G75*
%MOIN*%
%OFA0B0*%
%FSLAX25Y25*%
%IPPOS*%
%LPD*%
%AMOC8*
5,1,8,0,0,1.08239X$1,22.5*
%
%ADD10R,0.05800X0.03300*%
%ADD11C,0.00500*%
%ADD12C,0.04737*%
%ADD13C,0.07800*%
%ADD14C,0.04800*%
%ADD15C,0.13800*%
%ADD16C,0.05000*%
%ADD17C,0.06706*%
D10*
X0297250Y0139400D03*
X0297250Y0143400D03*
X0297250Y0147400D03*
X0307250Y0145000D03*
X0307250Y0141800D03*
X0297250Y0361400D03*
X0297250Y0365400D03*
X0297250Y0369400D03*
X0307250Y0367000D03*
X0307250Y0363800D03*
D11*
X0297750Y0366650D02*
X0296750Y0366650D01*
X0296750Y0368150D01*
X0297750Y0368150D01*
X0297750Y0366650D01*
X0297750Y0366989D02*
X0296750Y0366989D01*
X0296750Y0367488D02*
X0297750Y0367488D01*
X0297750Y0367986D02*
X0296750Y0367986D01*
X0296750Y0146150D02*
X0296750Y0144650D01*
X0297750Y0144650D01*
X0297750Y0146150D01*
X0296750Y0146150D01*
X0296750Y0146149D02*
X0297750Y0146149D01*
X0297750Y0145650D02*
X0296750Y0145650D01*
X0296750Y0145152D02*
X0297750Y0145152D01*
X0297750Y0144653D02*
X0296750Y0144653D01*
D12*
X0046750Y0031500D03*
X0046750Y0253500D03*
X0085750Y0478750D03*
X0294000Y0279250D03*
X0294000Y0274250D03*
X0294000Y0269250D03*
X0294000Y0264250D03*
X0294000Y0259250D03*
X0299000Y0259250D03*
X0299000Y0264250D03*
X0299000Y0269250D03*
X0299000Y0274250D03*
X0299000Y0279250D03*
X0410750Y0245500D03*
X0299000Y0057250D03*
X0299000Y0052250D03*
X0299000Y0047250D03*
X0299000Y0042250D03*
X0299000Y0037250D03*
X0294000Y0037250D03*
X0294000Y0042250D03*
X0294000Y0047250D03*
X0294000Y0052250D03*
X0294000Y0057250D03*
X0410750Y0467500D03*
X0371750Y0478750D03*
D13*
X0376250Y0466000D02*
X0376250Y0443000D01*
X0366250Y0443000D02*
X0366250Y0466000D01*
X0356250Y0466000D02*
X0356250Y0443000D01*
X0343250Y0443000D02*
X0343250Y0466000D01*
X0333250Y0466000D02*
X0333250Y0443000D01*
X0323250Y0443000D02*
X0323250Y0466000D01*
X0310250Y0466000D02*
X0310250Y0443000D01*
X0300250Y0443000D02*
X0300250Y0466000D01*
X0290250Y0466000D02*
X0290250Y0443000D01*
X0277250Y0443000D02*
X0277250Y0466000D01*
X0267250Y0466000D02*
X0267250Y0443000D01*
X0257250Y0443000D02*
X0257250Y0466000D01*
X0239250Y0466000D02*
X0239250Y0443000D01*
X0229250Y0443000D02*
X0229250Y0466000D01*
X0219250Y0466000D02*
X0219250Y0443000D01*
X0209250Y0443000D02*
X0209250Y0466000D01*
X0191250Y0466000D02*
X0191250Y0443000D01*
X0181250Y0443000D02*
X0181250Y0466000D01*
X0171250Y0466000D02*
X0171250Y0443000D01*
X0153250Y0443000D02*
X0153250Y0466000D01*
X0143250Y0466000D02*
X0143250Y0443000D01*
X0133250Y0443000D02*
X0133250Y0466000D01*
X0123250Y0466000D02*
X0123250Y0443000D01*
X0107750Y0443000D02*
X0107750Y0466000D01*
X0097750Y0466000D02*
X0097750Y0443000D01*
X0087750Y0443000D02*
X0087750Y0466000D01*
X0077750Y0466000D02*
X0077750Y0443000D01*
X0071750Y0376000D02*
X0048750Y0376000D01*
X0048750Y0366000D02*
X0071750Y0366000D01*
X0077750Y0244000D02*
X0077750Y0221000D01*
X0087750Y0221000D02*
X0087750Y0244000D01*
X0097750Y0244000D02*
X0097750Y0221000D01*
X0107750Y0221000D02*
X0107750Y0244000D01*
X0123250Y0244000D02*
X0123250Y0221000D01*
X0133250Y0221000D02*
X0133250Y0244000D01*
X0143250Y0244000D02*
X0143250Y0221000D01*
X0153250Y0221000D02*
X0153250Y0244000D01*
X0171250Y0244000D02*
X0171250Y0221000D01*
X0181250Y0221000D02*
X0181250Y0244000D01*
X0191250Y0244000D02*
X0191250Y0221000D01*
X0209250Y0221000D02*
X0209250Y0244000D01*
X0219250Y0244000D02*
X0219250Y0221000D01*
X0229250Y0221000D02*
X0229250Y0244000D01*
X0239250Y0244000D02*
X0239250Y0221000D01*
X0257250Y0221000D02*
X0257250Y0244000D01*
X0267250Y0244000D02*
X0267250Y0221000D01*
X0277250Y0221000D02*
X0277250Y0244000D01*
X0290250Y0244000D02*
X0290250Y0221000D01*
X0300250Y0221000D02*
X0300250Y0244000D01*
X0310250Y0244000D02*
X0310250Y0221000D01*
X0323250Y0221000D02*
X0323250Y0244000D01*
X0333250Y0244000D02*
X0333250Y0221000D01*
X0343250Y0221000D02*
X0343250Y0244000D01*
X0356250Y0244000D02*
X0356250Y0221000D01*
X0366250Y0221000D02*
X0366250Y0244000D01*
X0376250Y0244000D02*
X0376250Y0221000D01*
X0071750Y0154000D02*
X0048750Y0154000D01*
X0048750Y0144000D02*
X0071750Y0144000D01*
D14*
X0080250Y0136000D03*
X0087250Y0136000D03*
X0123750Y0171500D03*
X0128250Y0195500D03*
X0148250Y0195500D03*
X0103750Y0195000D03*
X0081750Y0195000D03*
X0078250Y0178000D03*
X0071250Y0178000D03*
X0064250Y0178000D03*
X0085250Y0178000D03*
X0063750Y0098500D03*
X0063750Y0088500D03*
X0078750Y0088500D03*
X0086250Y0088500D03*
X0207250Y0203500D03*
X0219750Y0203500D03*
X0229750Y0203500D03*
X0242250Y0203500D03*
X0257250Y0195500D03*
X0267250Y0195500D03*
X0277250Y0195500D03*
X0290250Y0195500D03*
X0300250Y0195500D03*
X0310250Y0195500D03*
X0323250Y0195500D03*
X0333250Y0195500D03*
X0343250Y0195500D03*
X0356250Y0195500D03*
X0366250Y0195500D03*
X0376250Y0195500D03*
X0323250Y0165500D03*
X0298250Y0152000D03*
X0291250Y0143500D03*
X0284250Y0151500D03*
X0284250Y0156500D03*
X0284250Y0161500D03*
X0284250Y0166500D03*
X0284250Y0171500D03*
X0284250Y0176500D03*
X0311250Y0121000D03*
X0311250Y0111000D03*
X0286250Y0111000D03*
X0286250Y0101000D03*
X0322250Y0053500D03*
X0331250Y0053500D03*
X0341250Y0053500D03*
X0351250Y0053500D03*
X0361250Y0053500D03*
X0312750Y0034000D03*
X0273750Y0033500D03*
X0273750Y0046000D03*
X0273750Y0255500D03*
X0273750Y0268000D03*
X0312750Y0256000D03*
X0322250Y0275500D03*
X0331250Y0275500D03*
X0341250Y0275500D03*
X0351250Y0275500D03*
X0361250Y0275500D03*
X0311250Y0333000D03*
X0311250Y0343000D03*
X0286250Y0333000D03*
X0286250Y0323000D03*
X0291250Y0365500D03*
X0284250Y0373500D03*
X0284250Y0378500D03*
X0284250Y0383500D03*
X0284250Y0388500D03*
X0284250Y0393500D03*
X0284250Y0398500D03*
X0290250Y0417500D03*
X0300250Y0417500D03*
X0310250Y0417500D03*
X0323250Y0417500D03*
X0333250Y0417500D03*
X0343250Y0417500D03*
X0356250Y0417500D03*
X0366250Y0417500D03*
X0376250Y0417500D03*
X0323250Y0387500D03*
X0298250Y0374000D03*
X0277250Y0417500D03*
X0267250Y0417500D03*
X0257250Y0417500D03*
X0242250Y0425500D03*
X0229750Y0425500D03*
X0219750Y0425500D03*
X0207250Y0425500D03*
X0148250Y0417500D03*
X0128250Y0417500D03*
X0123750Y0393500D03*
X0103750Y0417000D03*
X0085250Y0400000D03*
X0078250Y0400000D03*
X0071250Y0400000D03*
X0064250Y0400000D03*
X0081750Y0417000D03*
X0080250Y0358000D03*
X0087250Y0358000D03*
X0063750Y0320500D03*
X0063750Y0310500D03*
X0078750Y0310500D03*
X0086250Y0310500D03*
D15*
X0055250Y0262000D03*
X0055250Y0237000D03*
X0055250Y0040000D03*
X0402250Y0040000D03*
X0402250Y0237000D03*
X0402250Y0262000D03*
X0402250Y0459000D03*
X0055250Y0459000D03*
D16*
X0082185Y0020250D02*
X0082187Y0020369D01*
X0082193Y0020488D01*
X0082203Y0020607D01*
X0082217Y0020725D01*
X0082235Y0020843D01*
X0082256Y0020960D01*
X0082282Y0021076D01*
X0082312Y0021192D01*
X0082345Y0021306D01*
X0082382Y0021419D01*
X0082423Y0021531D01*
X0082468Y0021642D01*
X0082516Y0021751D01*
X0082568Y0021858D01*
X0082624Y0021963D01*
X0082683Y0022067D01*
X0082745Y0022168D01*
X0082811Y0022268D01*
X0082880Y0022365D01*
X0082952Y0022459D01*
X0083028Y0022552D01*
X0083106Y0022641D01*
X0083187Y0022728D01*
X0083272Y0022813D01*
X0083359Y0022894D01*
X0083448Y0022972D01*
X0083541Y0023048D01*
X0083635Y0023120D01*
X0083732Y0023189D01*
X0083832Y0023255D01*
X0083933Y0023317D01*
X0084037Y0023376D01*
X0084142Y0023432D01*
X0084249Y0023484D01*
X0084358Y0023532D01*
X0084469Y0023577D01*
X0084581Y0023618D01*
X0084694Y0023655D01*
X0084808Y0023688D01*
X0084924Y0023718D01*
X0085040Y0023744D01*
X0085157Y0023765D01*
X0085275Y0023783D01*
X0085393Y0023797D01*
X0085512Y0023807D01*
X0085631Y0023813D01*
X0085750Y0023815D01*
X0085869Y0023813D01*
X0085988Y0023807D01*
X0086107Y0023797D01*
X0086225Y0023783D01*
X0086343Y0023765D01*
X0086460Y0023744D01*
X0086576Y0023718D01*
X0086692Y0023688D01*
X0086806Y0023655D01*
X0086919Y0023618D01*
X0087031Y0023577D01*
X0087142Y0023532D01*
X0087251Y0023484D01*
X0087358Y0023432D01*
X0087463Y0023376D01*
X0087567Y0023317D01*
X0087668Y0023255D01*
X0087768Y0023189D01*
X0087865Y0023120D01*
X0087959Y0023048D01*
X0088052Y0022972D01*
X0088141Y0022894D01*
X0088228Y0022813D01*
X0088313Y0022728D01*
X0088394Y0022641D01*
X0088472Y0022552D01*
X0088548Y0022459D01*
X0088620Y0022365D01*
X0088689Y0022268D01*
X0088755Y0022168D01*
X0088817Y0022067D01*
X0088876Y0021963D01*
X0088932Y0021858D01*
X0088984Y0021751D01*
X0089032Y0021642D01*
X0089077Y0021531D01*
X0089118Y0021419D01*
X0089155Y0021306D01*
X0089188Y0021192D01*
X0089218Y0021076D01*
X0089244Y0020960D01*
X0089265Y0020843D01*
X0089283Y0020725D01*
X0089297Y0020607D01*
X0089307Y0020488D01*
X0089313Y0020369D01*
X0089315Y0020250D01*
X0089313Y0020131D01*
X0089307Y0020012D01*
X0089297Y0019893D01*
X0089283Y0019775D01*
X0089265Y0019657D01*
X0089244Y0019540D01*
X0089218Y0019424D01*
X0089188Y0019308D01*
X0089155Y0019194D01*
X0089118Y0019081D01*
X0089077Y0018969D01*
X0089032Y0018858D01*
X0088984Y0018749D01*
X0088932Y0018642D01*
X0088876Y0018537D01*
X0088817Y0018433D01*
X0088755Y0018332D01*
X0088689Y0018232D01*
X0088620Y0018135D01*
X0088548Y0018041D01*
X0088472Y0017948D01*
X0088394Y0017859D01*
X0088313Y0017772D01*
X0088228Y0017687D01*
X0088141Y0017606D01*
X0088052Y0017528D01*
X0087959Y0017452D01*
X0087865Y0017380D01*
X0087768Y0017311D01*
X0087668Y0017245D01*
X0087567Y0017183D01*
X0087463Y0017124D01*
X0087358Y0017068D01*
X0087251Y0017016D01*
X0087142Y0016968D01*
X0087031Y0016923D01*
X0086919Y0016882D01*
X0086806Y0016845D01*
X0086692Y0016812D01*
X0086576Y0016782D01*
X0086460Y0016756D01*
X0086343Y0016735D01*
X0086225Y0016717D01*
X0086107Y0016703D01*
X0085988Y0016693D01*
X0085869Y0016687D01*
X0085750Y0016685D01*
X0085631Y0016687D01*
X0085512Y0016693D01*
X0085393Y0016703D01*
X0085275Y0016717D01*
X0085157Y0016735D01*
X0085040Y0016756D01*
X0084924Y0016782D01*
X0084808Y0016812D01*
X0084694Y0016845D01*
X0084581Y0016882D01*
X0084469Y0016923D01*
X0084358Y0016968D01*
X0084249Y0017016D01*
X0084142Y0017068D01*
X0084037Y0017124D01*
X0083933Y0017183D01*
X0083832Y0017245D01*
X0083732Y0017311D01*
X0083635Y0017380D01*
X0083541Y0017452D01*
X0083448Y0017528D01*
X0083359Y0017606D01*
X0083272Y0017687D01*
X0083187Y0017772D01*
X0083106Y0017859D01*
X0083028Y0017948D01*
X0082952Y0018041D01*
X0082880Y0018135D01*
X0082811Y0018232D01*
X0082745Y0018332D01*
X0082683Y0018433D01*
X0082624Y0018537D01*
X0082568Y0018642D01*
X0082516Y0018749D01*
X0082468Y0018858D01*
X0082423Y0018969D01*
X0082382Y0019081D01*
X0082345Y0019194D01*
X0082312Y0019308D01*
X0082282Y0019424D01*
X0082256Y0019540D01*
X0082235Y0019657D01*
X0082217Y0019775D01*
X0082203Y0019893D01*
X0082193Y0020012D01*
X0082187Y0020131D01*
X0082185Y0020250D01*
D17*
X0085750Y0020250D03*
M02*
