G75*
%MOIN*%
%OFA0B0*%
%FSLAX25Y25*%
%IPPOS*%
%LPD*%
%AMOC8*
5,1,8,0,0,1.08239X$1,22.5*
%
%ADD10C,0.00000*%
%ADD11C,0.01100*%
%ADD12C,0.01500*%
%ADD13C,0.01000*%
%ADD14C,0.00079*%
D10*
X0043750Y0031500D02*
X0043750Y0245500D01*
X0043752Y0245607D01*
X0043758Y0245714D01*
X0043767Y0245821D01*
X0043781Y0245927D01*
X0043798Y0246033D01*
X0043819Y0246138D01*
X0043843Y0246242D01*
X0043872Y0246345D01*
X0043904Y0246447D01*
X0043939Y0246548D01*
X0043978Y0246648D01*
X0044021Y0246746D01*
X0044067Y0246843D01*
X0044117Y0246938D01*
X0044170Y0247031D01*
X0044226Y0247122D01*
X0044286Y0247211D01*
X0044348Y0247298D01*
X0044414Y0247382D01*
X0044483Y0247465D01*
X0044554Y0247544D01*
X0044629Y0247621D01*
X0044706Y0247696D01*
X0044785Y0247767D01*
X0044868Y0247836D01*
X0044952Y0247902D01*
X0045039Y0247964D01*
X0045128Y0248024D01*
X0045219Y0248080D01*
X0045312Y0248133D01*
X0045407Y0248183D01*
X0045504Y0248229D01*
X0045602Y0248272D01*
X0045702Y0248311D01*
X0045803Y0248346D01*
X0045905Y0248378D01*
X0046008Y0248407D01*
X0046112Y0248431D01*
X0046217Y0248452D01*
X0046323Y0248469D01*
X0046429Y0248483D01*
X0046536Y0248492D01*
X0046643Y0248498D01*
X0046750Y0248500D01*
X0410750Y0248500D01*
X0410750Y0250500D02*
X0046750Y0250500D01*
X0046643Y0250502D01*
X0046536Y0250508D01*
X0046429Y0250517D01*
X0046323Y0250531D01*
X0046217Y0250548D01*
X0046112Y0250569D01*
X0046008Y0250593D01*
X0045905Y0250622D01*
X0045803Y0250654D01*
X0045702Y0250689D01*
X0045602Y0250728D01*
X0045504Y0250771D01*
X0045407Y0250817D01*
X0045312Y0250867D01*
X0045219Y0250920D01*
X0045128Y0250976D01*
X0045039Y0251036D01*
X0044952Y0251098D01*
X0044868Y0251164D01*
X0044785Y0251233D01*
X0044706Y0251304D01*
X0044629Y0251379D01*
X0044554Y0251456D01*
X0044483Y0251535D01*
X0044414Y0251618D01*
X0044348Y0251702D01*
X0044286Y0251789D01*
X0044226Y0251878D01*
X0044170Y0251969D01*
X0044117Y0252062D01*
X0044067Y0252157D01*
X0044021Y0252254D01*
X0043978Y0252352D01*
X0043939Y0252452D01*
X0043904Y0252553D01*
X0043872Y0252655D01*
X0043843Y0252758D01*
X0043819Y0252862D01*
X0043798Y0252967D01*
X0043781Y0253073D01*
X0043767Y0253179D01*
X0043758Y0253286D01*
X0043752Y0253393D01*
X0043750Y0253500D01*
X0043750Y0467500D01*
X0043752Y0467607D01*
X0043758Y0467714D01*
X0043767Y0467821D01*
X0043781Y0467927D01*
X0043798Y0468033D01*
X0043819Y0468138D01*
X0043843Y0468242D01*
X0043872Y0468345D01*
X0043904Y0468447D01*
X0043939Y0468548D01*
X0043978Y0468648D01*
X0044021Y0468746D01*
X0044067Y0468843D01*
X0044117Y0468938D01*
X0044170Y0469031D01*
X0044226Y0469122D01*
X0044286Y0469211D01*
X0044348Y0469298D01*
X0044414Y0469382D01*
X0044483Y0469465D01*
X0044554Y0469544D01*
X0044629Y0469621D01*
X0044706Y0469696D01*
X0044785Y0469767D01*
X0044868Y0469836D01*
X0044952Y0469902D01*
X0045039Y0469964D01*
X0045128Y0470024D01*
X0045219Y0470080D01*
X0045312Y0470133D01*
X0045407Y0470183D01*
X0045504Y0470229D01*
X0045602Y0470272D01*
X0045702Y0470311D01*
X0045803Y0470346D01*
X0045905Y0470378D01*
X0046008Y0470407D01*
X0046112Y0470431D01*
X0046217Y0470452D01*
X0046323Y0470469D01*
X0046429Y0470483D01*
X0046536Y0470492D01*
X0046643Y0470498D01*
X0046750Y0470500D01*
X0410750Y0470500D01*
X0410857Y0470498D01*
X0410964Y0470492D01*
X0411071Y0470483D01*
X0411177Y0470469D01*
X0411283Y0470452D01*
X0411388Y0470431D01*
X0411492Y0470407D01*
X0411595Y0470378D01*
X0411697Y0470346D01*
X0411798Y0470311D01*
X0411898Y0470272D01*
X0411996Y0470229D01*
X0412093Y0470183D01*
X0412188Y0470133D01*
X0412281Y0470080D01*
X0412372Y0470024D01*
X0412461Y0469964D01*
X0412548Y0469902D01*
X0412632Y0469836D01*
X0412715Y0469767D01*
X0412794Y0469696D01*
X0412871Y0469621D01*
X0412946Y0469544D01*
X0413017Y0469465D01*
X0413086Y0469382D01*
X0413152Y0469298D01*
X0413214Y0469211D01*
X0413274Y0469122D01*
X0413330Y0469031D01*
X0413383Y0468938D01*
X0413433Y0468843D01*
X0413479Y0468746D01*
X0413522Y0468648D01*
X0413561Y0468548D01*
X0413596Y0468447D01*
X0413628Y0468345D01*
X0413657Y0468242D01*
X0413681Y0468138D01*
X0413702Y0468033D01*
X0413719Y0467927D01*
X0413733Y0467821D01*
X0413742Y0467714D01*
X0413748Y0467607D01*
X0413750Y0467500D01*
X0413750Y0407500D01*
X0413748Y0407424D01*
X0413742Y0407348D01*
X0413733Y0407273D01*
X0413719Y0407198D01*
X0413702Y0407124D01*
X0413681Y0407051D01*
X0413657Y0406979D01*
X0413628Y0406908D01*
X0413597Y0406839D01*
X0413562Y0406772D01*
X0413523Y0406707D01*
X0413481Y0406643D01*
X0413436Y0406582D01*
X0413388Y0406523D01*
X0413337Y0406467D01*
X0413283Y0406413D01*
X0413227Y0406362D01*
X0413168Y0406314D01*
X0413107Y0406269D01*
X0413043Y0406227D01*
X0412978Y0406188D01*
X0412911Y0406153D01*
X0412842Y0406122D01*
X0412771Y0406093D01*
X0412699Y0406069D01*
X0412626Y0406048D01*
X0412552Y0406031D01*
X0412477Y0406017D01*
X0412402Y0406008D01*
X0412326Y0406002D01*
X0412250Y0406000D01*
X0412057Y0405986D01*
X0411864Y0405967D01*
X0411672Y0405943D01*
X0411480Y0405915D01*
X0411289Y0405882D01*
X0411099Y0405844D01*
X0410910Y0405802D01*
X0410722Y0405755D01*
X0410535Y0405704D01*
X0410350Y0405648D01*
X0410166Y0405588D01*
X0409983Y0405523D01*
X0409802Y0405454D01*
X0409623Y0405381D01*
X0409445Y0405303D01*
X0409270Y0405221D01*
X0409097Y0405135D01*
X0408925Y0405045D01*
X0408756Y0404950D01*
X0408589Y0404852D01*
X0408425Y0404749D01*
X0408263Y0404643D01*
X0408104Y0404532D01*
X0407947Y0404418D01*
X0407794Y0404300D01*
X0407643Y0404179D01*
X0407495Y0404053D01*
X0407350Y0403925D01*
X0407209Y0403792D01*
X0407070Y0403657D01*
X0406935Y0403518D01*
X0406804Y0403376D01*
X0406676Y0403231D01*
X0406551Y0403082D01*
X0406430Y0402931D01*
X0406313Y0402777D01*
X0406199Y0402620D01*
X0406089Y0402460D01*
X0405984Y0402298D01*
X0405882Y0402133D01*
X0405784Y0401966D01*
X0405690Y0401797D01*
X0405600Y0401625D01*
X0405515Y0401451D01*
X0405434Y0401275D01*
X0405357Y0401097D01*
X0405284Y0400918D01*
X0405216Y0400737D01*
X0405152Y0400554D01*
X0405092Y0400369D01*
X0405037Y0400184D01*
X0404987Y0399997D01*
X0404941Y0399809D01*
X0404899Y0399619D01*
X0404862Y0399429D01*
X0404830Y0399238D01*
X0404803Y0399046D01*
X0404780Y0398854D01*
X0404761Y0398661D01*
X0404748Y0398468D01*
X0404739Y0398274D01*
X0404734Y0398081D01*
X0404735Y0397887D01*
X0404740Y0397693D01*
X0404750Y0397500D01*
X0404750Y0359000D01*
X0404759Y0358810D01*
X0404772Y0358620D01*
X0404789Y0358431D01*
X0404812Y0358242D01*
X0404839Y0358053D01*
X0404871Y0357866D01*
X0404907Y0357679D01*
X0404948Y0357493D01*
X0404993Y0357308D01*
X0405043Y0357124D01*
X0405097Y0356942D01*
X0405156Y0356761D01*
X0405220Y0356582D01*
X0405287Y0356404D01*
X0405359Y0356228D01*
X0405436Y0356053D01*
X0405516Y0355881D01*
X0405601Y0355710D01*
X0405690Y0355542D01*
X0405783Y0355376D01*
X0405880Y0355213D01*
X0405981Y0355051D01*
X0406086Y0354893D01*
X0406195Y0354736D01*
X0406308Y0354583D01*
X0406424Y0354433D01*
X0406544Y0354285D01*
X0406668Y0354140D01*
X0406795Y0353999D01*
X0406926Y0353860D01*
X0407059Y0353725D01*
X0407197Y0353593D01*
X0407337Y0353465D01*
X0407481Y0353340D01*
X0407627Y0353218D01*
X0407777Y0353101D01*
X0407929Y0352987D01*
X0408084Y0352876D01*
X0408242Y0352770D01*
X0408402Y0352667D01*
X0408565Y0352569D01*
X0408730Y0352474D01*
X0408898Y0352384D01*
X0409067Y0352297D01*
X0409239Y0352215D01*
X0409412Y0352137D01*
X0409588Y0352064D01*
X0409765Y0351994D01*
X0409944Y0351929D01*
X0410124Y0351869D01*
X0410306Y0351813D01*
X0410490Y0351761D01*
X0410674Y0351714D01*
X0410859Y0351672D01*
X0411046Y0351634D01*
X0411233Y0351600D01*
X0411421Y0351571D01*
X0411610Y0351547D01*
X0411799Y0351528D01*
X0411989Y0351513D01*
X0412179Y0351503D01*
X0412369Y0351497D01*
X0412560Y0351496D01*
X0412750Y0351500D01*
X0412810Y0351498D01*
X0412871Y0351493D01*
X0412930Y0351484D01*
X0412989Y0351471D01*
X0413048Y0351455D01*
X0413105Y0351435D01*
X0413160Y0351412D01*
X0413215Y0351385D01*
X0413267Y0351356D01*
X0413318Y0351323D01*
X0413367Y0351287D01*
X0413413Y0351249D01*
X0413457Y0351207D01*
X0413499Y0351163D01*
X0413537Y0351117D01*
X0413573Y0351068D01*
X0413606Y0351017D01*
X0413635Y0350965D01*
X0413662Y0350910D01*
X0413685Y0350855D01*
X0413705Y0350798D01*
X0413721Y0350739D01*
X0413734Y0350680D01*
X0413743Y0350621D01*
X0413748Y0350560D01*
X0413750Y0350500D01*
X0413750Y0253500D01*
X0413748Y0253393D01*
X0413742Y0253286D01*
X0413733Y0253179D01*
X0413719Y0253073D01*
X0413702Y0252967D01*
X0413681Y0252862D01*
X0413657Y0252758D01*
X0413628Y0252655D01*
X0413596Y0252553D01*
X0413561Y0252452D01*
X0413522Y0252352D01*
X0413479Y0252254D01*
X0413433Y0252157D01*
X0413383Y0252062D01*
X0413330Y0251969D01*
X0413274Y0251878D01*
X0413214Y0251789D01*
X0413152Y0251702D01*
X0413086Y0251618D01*
X0413017Y0251535D01*
X0412946Y0251456D01*
X0412871Y0251379D01*
X0412794Y0251304D01*
X0412715Y0251233D01*
X0412632Y0251164D01*
X0412548Y0251098D01*
X0412461Y0251036D01*
X0412372Y0250976D01*
X0412281Y0250920D01*
X0412188Y0250867D01*
X0412093Y0250817D01*
X0411996Y0250771D01*
X0411898Y0250728D01*
X0411798Y0250689D01*
X0411697Y0250654D01*
X0411595Y0250622D01*
X0411492Y0250593D01*
X0411388Y0250569D01*
X0411283Y0250548D01*
X0411177Y0250531D01*
X0411071Y0250517D01*
X0410964Y0250508D01*
X0410857Y0250502D01*
X0410750Y0250500D01*
X0410750Y0248500D02*
X0410857Y0248498D01*
X0410964Y0248492D01*
X0411071Y0248483D01*
X0411177Y0248469D01*
X0411283Y0248452D01*
X0411388Y0248431D01*
X0411492Y0248407D01*
X0411595Y0248378D01*
X0411697Y0248346D01*
X0411798Y0248311D01*
X0411898Y0248272D01*
X0411996Y0248229D01*
X0412093Y0248183D01*
X0412188Y0248133D01*
X0412281Y0248080D01*
X0412372Y0248024D01*
X0412461Y0247964D01*
X0412548Y0247902D01*
X0412632Y0247836D01*
X0412715Y0247767D01*
X0412794Y0247696D01*
X0412871Y0247621D01*
X0412946Y0247544D01*
X0413017Y0247465D01*
X0413086Y0247382D01*
X0413152Y0247298D01*
X0413214Y0247211D01*
X0413274Y0247122D01*
X0413330Y0247031D01*
X0413383Y0246938D01*
X0413433Y0246843D01*
X0413479Y0246746D01*
X0413522Y0246648D01*
X0413561Y0246548D01*
X0413596Y0246447D01*
X0413628Y0246345D01*
X0413657Y0246242D01*
X0413681Y0246138D01*
X0413702Y0246033D01*
X0413719Y0245927D01*
X0413733Y0245821D01*
X0413742Y0245714D01*
X0413748Y0245607D01*
X0413750Y0245500D01*
X0413750Y0185500D01*
X0413748Y0185424D01*
X0413742Y0185348D01*
X0413733Y0185273D01*
X0413719Y0185198D01*
X0413702Y0185124D01*
X0413681Y0185051D01*
X0413657Y0184979D01*
X0413628Y0184908D01*
X0413597Y0184839D01*
X0413562Y0184772D01*
X0413523Y0184707D01*
X0413481Y0184643D01*
X0413436Y0184582D01*
X0413388Y0184523D01*
X0413337Y0184467D01*
X0413283Y0184413D01*
X0413227Y0184362D01*
X0413168Y0184314D01*
X0413107Y0184269D01*
X0413043Y0184227D01*
X0412978Y0184188D01*
X0412911Y0184153D01*
X0412842Y0184122D01*
X0412771Y0184093D01*
X0412699Y0184069D01*
X0412626Y0184048D01*
X0412552Y0184031D01*
X0412477Y0184017D01*
X0412402Y0184008D01*
X0412326Y0184002D01*
X0412250Y0184000D01*
X0412057Y0183986D01*
X0411864Y0183967D01*
X0411672Y0183943D01*
X0411480Y0183915D01*
X0411289Y0183882D01*
X0411099Y0183844D01*
X0410910Y0183802D01*
X0410722Y0183755D01*
X0410535Y0183704D01*
X0410350Y0183648D01*
X0410166Y0183588D01*
X0409983Y0183523D01*
X0409802Y0183454D01*
X0409623Y0183381D01*
X0409445Y0183303D01*
X0409270Y0183221D01*
X0409097Y0183135D01*
X0408925Y0183045D01*
X0408756Y0182950D01*
X0408589Y0182852D01*
X0408425Y0182749D01*
X0408263Y0182643D01*
X0408104Y0182532D01*
X0407947Y0182418D01*
X0407794Y0182300D01*
X0407643Y0182179D01*
X0407495Y0182053D01*
X0407350Y0181925D01*
X0407209Y0181792D01*
X0407070Y0181657D01*
X0406935Y0181518D01*
X0406804Y0181376D01*
X0406676Y0181231D01*
X0406551Y0181082D01*
X0406430Y0180931D01*
X0406313Y0180777D01*
X0406199Y0180620D01*
X0406089Y0180460D01*
X0405984Y0180298D01*
X0405882Y0180133D01*
X0405784Y0179966D01*
X0405690Y0179797D01*
X0405600Y0179625D01*
X0405515Y0179451D01*
X0405434Y0179275D01*
X0405357Y0179097D01*
X0405284Y0178918D01*
X0405216Y0178737D01*
X0405152Y0178554D01*
X0405092Y0178369D01*
X0405037Y0178184D01*
X0404987Y0177997D01*
X0404941Y0177809D01*
X0404899Y0177619D01*
X0404862Y0177429D01*
X0404830Y0177238D01*
X0404803Y0177046D01*
X0404780Y0176854D01*
X0404761Y0176661D01*
X0404748Y0176468D01*
X0404739Y0176274D01*
X0404734Y0176081D01*
X0404735Y0175887D01*
X0404740Y0175693D01*
X0404750Y0175500D01*
X0404750Y0137000D01*
X0404759Y0136810D01*
X0404772Y0136620D01*
X0404789Y0136431D01*
X0404812Y0136242D01*
X0404839Y0136053D01*
X0404871Y0135866D01*
X0404907Y0135679D01*
X0404948Y0135493D01*
X0404993Y0135308D01*
X0405043Y0135124D01*
X0405097Y0134942D01*
X0405156Y0134761D01*
X0405220Y0134582D01*
X0405287Y0134404D01*
X0405359Y0134228D01*
X0405436Y0134053D01*
X0405516Y0133881D01*
X0405601Y0133710D01*
X0405690Y0133542D01*
X0405783Y0133376D01*
X0405880Y0133213D01*
X0405981Y0133051D01*
X0406086Y0132893D01*
X0406195Y0132736D01*
X0406308Y0132583D01*
X0406424Y0132433D01*
X0406544Y0132285D01*
X0406668Y0132140D01*
X0406795Y0131999D01*
X0406926Y0131860D01*
X0407059Y0131725D01*
X0407197Y0131593D01*
X0407337Y0131465D01*
X0407481Y0131340D01*
X0407627Y0131218D01*
X0407777Y0131101D01*
X0407929Y0130987D01*
X0408084Y0130876D01*
X0408242Y0130770D01*
X0408402Y0130667D01*
X0408565Y0130569D01*
X0408730Y0130474D01*
X0408898Y0130384D01*
X0409067Y0130297D01*
X0409239Y0130215D01*
X0409412Y0130137D01*
X0409588Y0130064D01*
X0409765Y0129994D01*
X0409944Y0129929D01*
X0410124Y0129869D01*
X0410306Y0129813D01*
X0410490Y0129761D01*
X0410674Y0129714D01*
X0410859Y0129672D01*
X0411046Y0129634D01*
X0411233Y0129600D01*
X0411421Y0129571D01*
X0411610Y0129547D01*
X0411799Y0129528D01*
X0411989Y0129513D01*
X0412179Y0129503D01*
X0412369Y0129497D01*
X0412560Y0129496D01*
X0412750Y0129500D01*
X0412810Y0129498D01*
X0412871Y0129493D01*
X0412930Y0129484D01*
X0412989Y0129471D01*
X0413048Y0129455D01*
X0413105Y0129435D01*
X0413160Y0129412D01*
X0413215Y0129385D01*
X0413267Y0129356D01*
X0413318Y0129323D01*
X0413367Y0129287D01*
X0413413Y0129249D01*
X0413457Y0129207D01*
X0413499Y0129163D01*
X0413537Y0129117D01*
X0413573Y0129068D01*
X0413606Y0129017D01*
X0413635Y0128965D01*
X0413662Y0128910D01*
X0413685Y0128855D01*
X0413705Y0128798D01*
X0413721Y0128739D01*
X0413734Y0128680D01*
X0413743Y0128621D01*
X0413748Y0128560D01*
X0413750Y0128500D01*
X0413750Y0031500D01*
X0413748Y0031393D01*
X0413742Y0031286D01*
X0413733Y0031179D01*
X0413719Y0031073D01*
X0413702Y0030967D01*
X0413681Y0030862D01*
X0413657Y0030758D01*
X0413628Y0030655D01*
X0413596Y0030553D01*
X0413561Y0030452D01*
X0413522Y0030352D01*
X0413479Y0030254D01*
X0413433Y0030157D01*
X0413383Y0030062D01*
X0413330Y0029969D01*
X0413274Y0029878D01*
X0413214Y0029789D01*
X0413152Y0029702D01*
X0413086Y0029618D01*
X0413017Y0029535D01*
X0412946Y0029456D01*
X0412871Y0029379D01*
X0412794Y0029304D01*
X0412715Y0029233D01*
X0412632Y0029164D01*
X0412548Y0029098D01*
X0412461Y0029036D01*
X0412372Y0028976D01*
X0412281Y0028920D01*
X0412188Y0028867D01*
X0412093Y0028817D01*
X0411996Y0028771D01*
X0411898Y0028728D01*
X0411798Y0028689D01*
X0411697Y0028654D01*
X0411595Y0028622D01*
X0411492Y0028593D01*
X0411388Y0028569D01*
X0411283Y0028548D01*
X0411177Y0028531D01*
X0411071Y0028517D01*
X0410964Y0028508D01*
X0410857Y0028502D01*
X0410750Y0028500D01*
X0046750Y0028500D01*
X0046643Y0028502D01*
X0046536Y0028508D01*
X0046429Y0028517D01*
X0046323Y0028531D01*
X0046217Y0028548D01*
X0046112Y0028569D01*
X0046008Y0028593D01*
X0045905Y0028622D01*
X0045803Y0028654D01*
X0045702Y0028689D01*
X0045602Y0028728D01*
X0045504Y0028771D01*
X0045407Y0028817D01*
X0045312Y0028867D01*
X0045219Y0028920D01*
X0045128Y0028976D01*
X0045039Y0029036D01*
X0044952Y0029098D01*
X0044868Y0029164D01*
X0044785Y0029233D01*
X0044706Y0029304D01*
X0044629Y0029379D01*
X0044554Y0029456D01*
X0044483Y0029535D01*
X0044414Y0029618D01*
X0044348Y0029702D01*
X0044286Y0029789D01*
X0044226Y0029878D01*
X0044170Y0029969D01*
X0044117Y0030062D01*
X0044067Y0030157D01*
X0044021Y0030254D01*
X0043978Y0030352D01*
X0043939Y0030452D01*
X0043904Y0030553D01*
X0043872Y0030655D01*
X0043843Y0030758D01*
X0043819Y0030862D01*
X0043798Y0030967D01*
X0043781Y0031073D01*
X0043767Y0031179D01*
X0043758Y0031286D01*
X0043752Y0031393D01*
X0043750Y0031500D01*
X0048750Y0040000D02*
X0048752Y0040161D01*
X0048758Y0040321D01*
X0048768Y0040482D01*
X0048782Y0040642D01*
X0048800Y0040802D01*
X0048821Y0040961D01*
X0048847Y0041120D01*
X0048877Y0041278D01*
X0048910Y0041435D01*
X0048948Y0041592D01*
X0048989Y0041747D01*
X0049034Y0041901D01*
X0049083Y0042054D01*
X0049136Y0042206D01*
X0049192Y0042357D01*
X0049253Y0042506D01*
X0049316Y0042654D01*
X0049384Y0042800D01*
X0049455Y0042944D01*
X0049529Y0043086D01*
X0049607Y0043227D01*
X0049689Y0043365D01*
X0049774Y0043502D01*
X0049862Y0043636D01*
X0049954Y0043768D01*
X0050049Y0043898D01*
X0050147Y0044026D01*
X0050248Y0044151D01*
X0050352Y0044273D01*
X0050459Y0044393D01*
X0050569Y0044510D01*
X0050682Y0044625D01*
X0050798Y0044736D01*
X0050917Y0044845D01*
X0051038Y0044950D01*
X0051162Y0045053D01*
X0051288Y0045153D01*
X0051416Y0045249D01*
X0051547Y0045342D01*
X0051681Y0045432D01*
X0051816Y0045519D01*
X0051954Y0045602D01*
X0052093Y0045682D01*
X0052235Y0045758D01*
X0052378Y0045831D01*
X0052523Y0045900D01*
X0052670Y0045966D01*
X0052818Y0046028D01*
X0052968Y0046086D01*
X0053119Y0046141D01*
X0053272Y0046192D01*
X0053426Y0046239D01*
X0053581Y0046282D01*
X0053737Y0046321D01*
X0053893Y0046357D01*
X0054051Y0046388D01*
X0054209Y0046416D01*
X0054368Y0046440D01*
X0054528Y0046460D01*
X0054688Y0046476D01*
X0054848Y0046488D01*
X0055009Y0046496D01*
X0055170Y0046500D01*
X0055330Y0046500D01*
X0055491Y0046496D01*
X0055652Y0046488D01*
X0055812Y0046476D01*
X0055972Y0046460D01*
X0056132Y0046440D01*
X0056291Y0046416D01*
X0056449Y0046388D01*
X0056607Y0046357D01*
X0056763Y0046321D01*
X0056919Y0046282D01*
X0057074Y0046239D01*
X0057228Y0046192D01*
X0057381Y0046141D01*
X0057532Y0046086D01*
X0057682Y0046028D01*
X0057830Y0045966D01*
X0057977Y0045900D01*
X0058122Y0045831D01*
X0058265Y0045758D01*
X0058407Y0045682D01*
X0058546Y0045602D01*
X0058684Y0045519D01*
X0058819Y0045432D01*
X0058953Y0045342D01*
X0059084Y0045249D01*
X0059212Y0045153D01*
X0059338Y0045053D01*
X0059462Y0044950D01*
X0059583Y0044845D01*
X0059702Y0044736D01*
X0059818Y0044625D01*
X0059931Y0044510D01*
X0060041Y0044393D01*
X0060148Y0044273D01*
X0060252Y0044151D01*
X0060353Y0044026D01*
X0060451Y0043898D01*
X0060546Y0043768D01*
X0060638Y0043636D01*
X0060726Y0043502D01*
X0060811Y0043365D01*
X0060893Y0043227D01*
X0060971Y0043086D01*
X0061045Y0042944D01*
X0061116Y0042800D01*
X0061184Y0042654D01*
X0061247Y0042506D01*
X0061308Y0042357D01*
X0061364Y0042206D01*
X0061417Y0042054D01*
X0061466Y0041901D01*
X0061511Y0041747D01*
X0061552Y0041592D01*
X0061590Y0041435D01*
X0061623Y0041278D01*
X0061653Y0041120D01*
X0061679Y0040961D01*
X0061700Y0040802D01*
X0061718Y0040642D01*
X0061732Y0040482D01*
X0061742Y0040321D01*
X0061748Y0040161D01*
X0061750Y0040000D01*
X0061748Y0039839D01*
X0061742Y0039679D01*
X0061732Y0039518D01*
X0061718Y0039358D01*
X0061700Y0039198D01*
X0061679Y0039039D01*
X0061653Y0038880D01*
X0061623Y0038722D01*
X0061590Y0038565D01*
X0061552Y0038408D01*
X0061511Y0038253D01*
X0061466Y0038099D01*
X0061417Y0037946D01*
X0061364Y0037794D01*
X0061308Y0037643D01*
X0061247Y0037494D01*
X0061184Y0037346D01*
X0061116Y0037200D01*
X0061045Y0037056D01*
X0060971Y0036914D01*
X0060893Y0036773D01*
X0060811Y0036635D01*
X0060726Y0036498D01*
X0060638Y0036364D01*
X0060546Y0036232D01*
X0060451Y0036102D01*
X0060353Y0035974D01*
X0060252Y0035849D01*
X0060148Y0035727D01*
X0060041Y0035607D01*
X0059931Y0035490D01*
X0059818Y0035375D01*
X0059702Y0035264D01*
X0059583Y0035155D01*
X0059462Y0035050D01*
X0059338Y0034947D01*
X0059212Y0034847D01*
X0059084Y0034751D01*
X0058953Y0034658D01*
X0058819Y0034568D01*
X0058684Y0034481D01*
X0058546Y0034398D01*
X0058407Y0034318D01*
X0058265Y0034242D01*
X0058122Y0034169D01*
X0057977Y0034100D01*
X0057830Y0034034D01*
X0057682Y0033972D01*
X0057532Y0033914D01*
X0057381Y0033859D01*
X0057228Y0033808D01*
X0057074Y0033761D01*
X0056919Y0033718D01*
X0056763Y0033679D01*
X0056607Y0033643D01*
X0056449Y0033612D01*
X0056291Y0033584D01*
X0056132Y0033560D01*
X0055972Y0033540D01*
X0055812Y0033524D01*
X0055652Y0033512D01*
X0055491Y0033504D01*
X0055330Y0033500D01*
X0055170Y0033500D01*
X0055009Y0033504D01*
X0054848Y0033512D01*
X0054688Y0033524D01*
X0054528Y0033540D01*
X0054368Y0033560D01*
X0054209Y0033584D01*
X0054051Y0033612D01*
X0053893Y0033643D01*
X0053737Y0033679D01*
X0053581Y0033718D01*
X0053426Y0033761D01*
X0053272Y0033808D01*
X0053119Y0033859D01*
X0052968Y0033914D01*
X0052818Y0033972D01*
X0052670Y0034034D01*
X0052523Y0034100D01*
X0052378Y0034169D01*
X0052235Y0034242D01*
X0052093Y0034318D01*
X0051954Y0034398D01*
X0051816Y0034481D01*
X0051681Y0034568D01*
X0051547Y0034658D01*
X0051416Y0034751D01*
X0051288Y0034847D01*
X0051162Y0034947D01*
X0051038Y0035050D01*
X0050917Y0035155D01*
X0050798Y0035264D01*
X0050682Y0035375D01*
X0050569Y0035490D01*
X0050459Y0035607D01*
X0050352Y0035727D01*
X0050248Y0035849D01*
X0050147Y0035974D01*
X0050049Y0036102D01*
X0049954Y0036232D01*
X0049862Y0036364D01*
X0049774Y0036498D01*
X0049689Y0036635D01*
X0049607Y0036773D01*
X0049529Y0036914D01*
X0049455Y0037056D01*
X0049384Y0037200D01*
X0049316Y0037346D01*
X0049253Y0037494D01*
X0049192Y0037643D01*
X0049136Y0037794D01*
X0049083Y0037946D01*
X0049034Y0038099D01*
X0048989Y0038253D01*
X0048948Y0038408D01*
X0048910Y0038565D01*
X0048877Y0038722D01*
X0048847Y0038880D01*
X0048821Y0039039D01*
X0048800Y0039198D01*
X0048782Y0039358D01*
X0048768Y0039518D01*
X0048758Y0039679D01*
X0048752Y0039839D01*
X0048750Y0040000D01*
X0048750Y0237000D02*
X0048752Y0237161D01*
X0048758Y0237321D01*
X0048768Y0237482D01*
X0048782Y0237642D01*
X0048800Y0237802D01*
X0048821Y0237961D01*
X0048847Y0238120D01*
X0048877Y0238278D01*
X0048910Y0238435D01*
X0048948Y0238592D01*
X0048989Y0238747D01*
X0049034Y0238901D01*
X0049083Y0239054D01*
X0049136Y0239206D01*
X0049192Y0239357D01*
X0049253Y0239506D01*
X0049316Y0239654D01*
X0049384Y0239800D01*
X0049455Y0239944D01*
X0049529Y0240086D01*
X0049607Y0240227D01*
X0049689Y0240365D01*
X0049774Y0240502D01*
X0049862Y0240636D01*
X0049954Y0240768D01*
X0050049Y0240898D01*
X0050147Y0241026D01*
X0050248Y0241151D01*
X0050352Y0241273D01*
X0050459Y0241393D01*
X0050569Y0241510D01*
X0050682Y0241625D01*
X0050798Y0241736D01*
X0050917Y0241845D01*
X0051038Y0241950D01*
X0051162Y0242053D01*
X0051288Y0242153D01*
X0051416Y0242249D01*
X0051547Y0242342D01*
X0051681Y0242432D01*
X0051816Y0242519D01*
X0051954Y0242602D01*
X0052093Y0242682D01*
X0052235Y0242758D01*
X0052378Y0242831D01*
X0052523Y0242900D01*
X0052670Y0242966D01*
X0052818Y0243028D01*
X0052968Y0243086D01*
X0053119Y0243141D01*
X0053272Y0243192D01*
X0053426Y0243239D01*
X0053581Y0243282D01*
X0053737Y0243321D01*
X0053893Y0243357D01*
X0054051Y0243388D01*
X0054209Y0243416D01*
X0054368Y0243440D01*
X0054528Y0243460D01*
X0054688Y0243476D01*
X0054848Y0243488D01*
X0055009Y0243496D01*
X0055170Y0243500D01*
X0055330Y0243500D01*
X0055491Y0243496D01*
X0055652Y0243488D01*
X0055812Y0243476D01*
X0055972Y0243460D01*
X0056132Y0243440D01*
X0056291Y0243416D01*
X0056449Y0243388D01*
X0056607Y0243357D01*
X0056763Y0243321D01*
X0056919Y0243282D01*
X0057074Y0243239D01*
X0057228Y0243192D01*
X0057381Y0243141D01*
X0057532Y0243086D01*
X0057682Y0243028D01*
X0057830Y0242966D01*
X0057977Y0242900D01*
X0058122Y0242831D01*
X0058265Y0242758D01*
X0058407Y0242682D01*
X0058546Y0242602D01*
X0058684Y0242519D01*
X0058819Y0242432D01*
X0058953Y0242342D01*
X0059084Y0242249D01*
X0059212Y0242153D01*
X0059338Y0242053D01*
X0059462Y0241950D01*
X0059583Y0241845D01*
X0059702Y0241736D01*
X0059818Y0241625D01*
X0059931Y0241510D01*
X0060041Y0241393D01*
X0060148Y0241273D01*
X0060252Y0241151D01*
X0060353Y0241026D01*
X0060451Y0240898D01*
X0060546Y0240768D01*
X0060638Y0240636D01*
X0060726Y0240502D01*
X0060811Y0240365D01*
X0060893Y0240227D01*
X0060971Y0240086D01*
X0061045Y0239944D01*
X0061116Y0239800D01*
X0061184Y0239654D01*
X0061247Y0239506D01*
X0061308Y0239357D01*
X0061364Y0239206D01*
X0061417Y0239054D01*
X0061466Y0238901D01*
X0061511Y0238747D01*
X0061552Y0238592D01*
X0061590Y0238435D01*
X0061623Y0238278D01*
X0061653Y0238120D01*
X0061679Y0237961D01*
X0061700Y0237802D01*
X0061718Y0237642D01*
X0061732Y0237482D01*
X0061742Y0237321D01*
X0061748Y0237161D01*
X0061750Y0237000D01*
X0061748Y0236839D01*
X0061742Y0236679D01*
X0061732Y0236518D01*
X0061718Y0236358D01*
X0061700Y0236198D01*
X0061679Y0236039D01*
X0061653Y0235880D01*
X0061623Y0235722D01*
X0061590Y0235565D01*
X0061552Y0235408D01*
X0061511Y0235253D01*
X0061466Y0235099D01*
X0061417Y0234946D01*
X0061364Y0234794D01*
X0061308Y0234643D01*
X0061247Y0234494D01*
X0061184Y0234346D01*
X0061116Y0234200D01*
X0061045Y0234056D01*
X0060971Y0233914D01*
X0060893Y0233773D01*
X0060811Y0233635D01*
X0060726Y0233498D01*
X0060638Y0233364D01*
X0060546Y0233232D01*
X0060451Y0233102D01*
X0060353Y0232974D01*
X0060252Y0232849D01*
X0060148Y0232727D01*
X0060041Y0232607D01*
X0059931Y0232490D01*
X0059818Y0232375D01*
X0059702Y0232264D01*
X0059583Y0232155D01*
X0059462Y0232050D01*
X0059338Y0231947D01*
X0059212Y0231847D01*
X0059084Y0231751D01*
X0058953Y0231658D01*
X0058819Y0231568D01*
X0058684Y0231481D01*
X0058546Y0231398D01*
X0058407Y0231318D01*
X0058265Y0231242D01*
X0058122Y0231169D01*
X0057977Y0231100D01*
X0057830Y0231034D01*
X0057682Y0230972D01*
X0057532Y0230914D01*
X0057381Y0230859D01*
X0057228Y0230808D01*
X0057074Y0230761D01*
X0056919Y0230718D01*
X0056763Y0230679D01*
X0056607Y0230643D01*
X0056449Y0230612D01*
X0056291Y0230584D01*
X0056132Y0230560D01*
X0055972Y0230540D01*
X0055812Y0230524D01*
X0055652Y0230512D01*
X0055491Y0230504D01*
X0055330Y0230500D01*
X0055170Y0230500D01*
X0055009Y0230504D01*
X0054848Y0230512D01*
X0054688Y0230524D01*
X0054528Y0230540D01*
X0054368Y0230560D01*
X0054209Y0230584D01*
X0054051Y0230612D01*
X0053893Y0230643D01*
X0053737Y0230679D01*
X0053581Y0230718D01*
X0053426Y0230761D01*
X0053272Y0230808D01*
X0053119Y0230859D01*
X0052968Y0230914D01*
X0052818Y0230972D01*
X0052670Y0231034D01*
X0052523Y0231100D01*
X0052378Y0231169D01*
X0052235Y0231242D01*
X0052093Y0231318D01*
X0051954Y0231398D01*
X0051816Y0231481D01*
X0051681Y0231568D01*
X0051547Y0231658D01*
X0051416Y0231751D01*
X0051288Y0231847D01*
X0051162Y0231947D01*
X0051038Y0232050D01*
X0050917Y0232155D01*
X0050798Y0232264D01*
X0050682Y0232375D01*
X0050569Y0232490D01*
X0050459Y0232607D01*
X0050352Y0232727D01*
X0050248Y0232849D01*
X0050147Y0232974D01*
X0050049Y0233102D01*
X0049954Y0233232D01*
X0049862Y0233364D01*
X0049774Y0233498D01*
X0049689Y0233635D01*
X0049607Y0233773D01*
X0049529Y0233914D01*
X0049455Y0234056D01*
X0049384Y0234200D01*
X0049316Y0234346D01*
X0049253Y0234494D01*
X0049192Y0234643D01*
X0049136Y0234794D01*
X0049083Y0234946D01*
X0049034Y0235099D01*
X0048989Y0235253D01*
X0048948Y0235408D01*
X0048910Y0235565D01*
X0048877Y0235722D01*
X0048847Y0235880D01*
X0048821Y0236039D01*
X0048800Y0236198D01*
X0048782Y0236358D01*
X0048768Y0236518D01*
X0048758Y0236679D01*
X0048752Y0236839D01*
X0048750Y0237000D01*
X0048750Y0262000D02*
X0048752Y0262161D01*
X0048758Y0262321D01*
X0048768Y0262482D01*
X0048782Y0262642D01*
X0048800Y0262802D01*
X0048821Y0262961D01*
X0048847Y0263120D01*
X0048877Y0263278D01*
X0048910Y0263435D01*
X0048948Y0263592D01*
X0048989Y0263747D01*
X0049034Y0263901D01*
X0049083Y0264054D01*
X0049136Y0264206D01*
X0049192Y0264357D01*
X0049253Y0264506D01*
X0049316Y0264654D01*
X0049384Y0264800D01*
X0049455Y0264944D01*
X0049529Y0265086D01*
X0049607Y0265227D01*
X0049689Y0265365D01*
X0049774Y0265502D01*
X0049862Y0265636D01*
X0049954Y0265768D01*
X0050049Y0265898D01*
X0050147Y0266026D01*
X0050248Y0266151D01*
X0050352Y0266273D01*
X0050459Y0266393D01*
X0050569Y0266510D01*
X0050682Y0266625D01*
X0050798Y0266736D01*
X0050917Y0266845D01*
X0051038Y0266950D01*
X0051162Y0267053D01*
X0051288Y0267153D01*
X0051416Y0267249D01*
X0051547Y0267342D01*
X0051681Y0267432D01*
X0051816Y0267519D01*
X0051954Y0267602D01*
X0052093Y0267682D01*
X0052235Y0267758D01*
X0052378Y0267831D01*
X0052523Y0267900D01*
X0052670Y0267966D01*
X0052818Y0268028D01*
X0052968Y0268086D01*
X0053119Y0268141D01*
X0053272Y0268192D01*
X0053426Y0268239D01*
X0053581Y0268282D01*
X0053737Y0268321D01*
X0053893Y0268357D01*
X0054051Y0268388D01*
X0054209Y0268416D01*
X0054368Y0268440D01*
X0054528Y0268460D01*
X0054688Y0268476D01*
X0054848Y0268488D01*
X0055009Y0268496D01*
X0055170Y0268500D01*
X0055330Y0268500D01*
X0055491Y0268496D01*
X0055652Y0268488D01*
X0055812Y0268476D01*
X0055972Y0268460D01*
X0056132Y0268440D01*
X0056291Y0268416D01*
X0056449Y0268388D01*
X0056607Y0268357D01*
X0056763Y0268321D01*
X0056919Y0268282D01*
X0057074Y0268239D01*
X0057228Y0268192D01*
X0057381Y0268141D01*
X0057532Y0268086D01*
X0057682Y0268028D01*
X0057830Y0267966D01*
X0057977Y0267900D01*
X0058122Y0267831D01*
X0058265Y0267758D01*
X0058407Y0267682D01*
X0058546Y0267602D01*
X0058684Y0267519D01*
X0058819Y0267432D01*
X0058953Y0267342D01*
X0059084Y0267249D01*
X0059212Y0267153D01*
X0059338Y0267053D01*
X0059462Y0266950D01*
X0059583Y0266845D01*
X0059702Y0266736D01*
X0059818Y0266625D01*
X0059931Y0266510D01*
X0060041Y0266393D01*
X0060148Y0266273D01*
X0060252Y0266151D01*
X0060353Y0266026D01*
X0060451Y0265898D01*
X0060546Y0265768D01*
X0060638Y0265636D01*
X0060726Y0265502D01*
X0060811Y0265365D01*
X0060893Y0265227D01*
X0060971Y0265086D01*
X0061045Y0264944D01*
X0061116Y0264800D01*
X0061184Y0264654D01*
X0061247Y0264506D01*
X0061308Y0264357D01*
X0061364Y0264206D01*
X0061417Y0264054D01*
X0061466Y0263901D01*
X0061511Y0263747D01*
X0061552Y0263592D01*
X0061590Y0263435D01*
X0061623Y0263278D01*
X0061653Y0263120D01*
X0061679Y0262961D01*
X0061700Y0262802D01*
X0061718Y0262642D01*
X0061732Y0262482D01*
X0061742Y0262321D01*
X0061748Y0262161D01*
X0061750Y0262000D01*
X0061748Y0261839D01*
X0061742Y0261679D01*
X0061732Y0261518D01*
X0061718Y0261358D01*
X0061700Y0261198D01*
X0061679Y0261039D01*
X0061653Y0260880D01*
X0061623Y0260722D01*
X0061590Y0260565D01*
X0061552Y0260408D01*
X0061511Y0260253D01*
X0061466Y0260099D01*
X0061417Y0259946D01*
X0061364Y0259794D01*
X0061308Y0259643D01*
X0061247Y0259494D01*
X0061184Y0259346D01*
X0061116Y0259200D01*
X0061045Y0259056D01*
X0060971Y0258914D01*
X0060893Y0258773D01*
X0060811Y0258635D01*
X0060726Y0258498D01*
X0060638Y0258364D01*
X0060546Y0258232D01*
X0060451Y0258102D01*
X0060353Y0257974D01*
X0060252Y0257849D01*
X0060148Y0257727D01*
X0060041Y0257607D01*
X0059931Y0257490D01*
X0059818Y0257375D01*
X0059702Y0257264D01*
X0059583Y0257155D01*
X0059462Y0257050D01*
X0059338Y0256947D01*
X0059212Y0256847D01*
X0059084Y0256751D01*
X0058953Y0256658D01*
X0058819Y0256568D01*
X0058684Y0256481D01*
X0058546Y0256398D01*
X0058407Y0256318D01*
X0058265Y0256242D01*
X0058122Y0256169D01*
X0057977Y0256100D01*
X0057830Y0256034D01*
X0057682Y0255972D01*
X0057532Y0255914D01*
X0057381Y0255859D01*
X0057228Y0255808D01*
X0057074Y0255761D01*
X0056919Y0255718D01*
X0056763Y0255679D01*
X0056607Y0255643D01*
X0056449Y0255612D01*
X0056291Y0255584D01*
X0056132Y0255560D01*
X0055972Y0255540D01*
X0055812Y0255524D01*
X0055652Y0255512D01*
X0055491Y0255504D01*
X0055330Y0255500D01*
X0055170Y0255500D01*
X0055009Y0255504D01*
X0054848Y0255512D01*
X0054688Y0255524D01*
X0054528Y0255540D01*
X0054368Y0255560D01*
X0054209Y0255584D01*
X0054051Y0255612D01*
X0053893Y0255643D01*
X0053737Y0255679D01*
X0053581Y0255718D01*
X0053426Y0255761D01*
X0053272Y0255808D01*
X0053119Y0255859D01*
X0052968Y0255914D01*
X0052818Y0255972D01*
X0052670Y0256034D01*
X0052523Y0256100D01*
X0052378Y0256169D01*
X0052235Y0256242D01*
X0052093Y0256318D01*
X0051954Y0256398D01*
X0051816Y0256481D01*
X0051681Y0256568D01*
X0051547Y0256658D01*
X0051416Y0256751D01*
X0051288Y0256847D01*
X0051162Y0256947D01*
X0051038Y0257050D01*
X0050917Y0257155D01*
X0050798Y0257264D01*
X0050682Y0257375D01*
X0050569Y0257490D01*
X0050459Y0257607D01*
X0050352Y0257727D01*
X0050248Y0257849D01*
X0050147Y0257974D01*
X0050049Y0258102D01*
X0049954Y0258232D01*
X0049862Y0258364D01*
X0049774Y0258498D01*
X0049689Y0258635D01*
X0049607Y0258773D01*
X0049529Y0258914D01*
X0049455Y0259056D01*
X0049384Y0259200D01*
X0049316Y0259346D01*
X0049253Y0259494D01*
X0049192Y0259643D01*
X0049136Y0259794D01*
X0049083Y0259946D01*
X0049034Y0260099D01*
X0048989Y0260253D01*
X0048948Y0260408D01*
X0048910Y0260565D01*
X0048877Y0260722D01*
X0048847Y0260880D01*
X0048821Y0261039D01*
X0048800Y0261198D01*
X0048782Y0261358D01*
X0048768Y0261518D01*
X0048758Y0261679D01*
X0048752Y0261839D01*
X0048750Y0262000D01*
X0048750Y0459000D02*
X0048752Y0459161D01*
X0048758Y0459321D01*
X0048768Y0459482D01*
X0048782Y0459642D01*
X0048800Y0459802D01*
X0048821Y0459961D01*
X0048847Y0460120D01*
X0048877Y0460278D01*
X0048910Y0460435D01*
X0048948Y0460592D01*
X0048989Y0460747D01*
X0049034Y0460901D01*
X0049083Y0461054D01*
X0049136Y0461206D01*
X0049192Y0461357D01*
X0049253Y0461506D01*
X0049316Y0461654D01*
X0049384Y0461800D01*
X0049455Y0461944D01*
X0049529Y0462086D01*
X0049607Y0462227D01*
X0049689Y0462365D01*
X0049774Y0462502D01*
X0049862Y0462636D01*
X0049954Y0462768D01*
X0050049Y0462898D01*
X0050147Y0463026D01*
X0050248Y0463151D01*
X0050352Y0463273D01*
X0050459Y0463393D01*
X0050569Y0463510D01*
X0050682Y0463625D01*
X0050798Y0463736D01*
X0050917Y0463845D01*
X0051038Y0463950D01*
X0051162Y0464053D01*
X0051288Y0464153D01*
X0051416Y0464249D01*
X0051547Y0464342D01*
X0051681Y0464432D01*
X0051816Y0464519D01*
X0051954Y0464602D01*
X0052093Y0464682D01*
X0052235Y0464758D01*
X0052378Y0464831D01*
X0052523Y0464900D01*
X0052670Y0464966D01*
X0052818Y0465028D01*
X0052968Y0465086D01*
X0053119Y0465141D01*
X0053272Y0465192D01*
X0053426Y0465239D01*
X0053581Y0465282D01*
X0053737Y0465321D01*
X0053893Y0465357D01*
X0054051Y0465388D01*
X0054209Y0465416D01*
X0054368Y0465440D01*
X0054528Y0465460D01*
X0054688Y0465476D01*
X0054848Y0465488D01*
X0055009Y0465496D01*
X0055170Y0465500D01*
X0055330Y0465500D01*
X0055491Y0465496D01*
X0055652Y0465488D01*
X0055812Y0465476D01*
X0055972Y0465460D01*
X0056132Y0465440D01*
X0056291Y0465416D01*
X0056449Y0465388D01*
X0056607Y0465357D01*
X0056763Y0465321D01*
X0056919Y0465282D01*
X0057074Y0465239D01*
X0057228Y0465192D01*
X0057381Y0465141D01*
X0057532Y0465086D01*
X0057682Y0465028D01*
X0057830Y0464966D01*
X0057977Y0464900D01*
X0058122Y0464831D01*
X0058265Y0464758D01*
X0058407Y0464682D01*
X0058546Y0464602D01*
X0058684Y0464519D01*
X0058819Y0464432D01*
X0058953Y0464342D01*
X0059084Y0464249D01*
X0059212Y0464153D01*
X0059338Y0464053D01*
X0059462Y0463950D01*
X0059583Y0463845D01*
X0059702Y0463736D01*
X0059818Y0463625D01*
X0059931Y0463510D01*
X0060041Y0463393D01*
X0060148Y0463273D01*
X0060252Y0463151D01*
X0060353Y0463026D01*
X0060451Y0462898D01*
X0060546Y0462768D01*
X0060638Y0462636D01*
X0060726Y0462502D01*
X0060811Y0462365D01*
X0060893Y0462227D01*
X0060971Y0462086D01*
X0061045Y0461944D01*
X0061116Y0461800D01*
X0061184Y0461654D01*
X0061247Y0461506D01*
X0061308Y0461357D01*
X0061364Y0461206D01*
X0061417Y0461054D01*
X0061466Y0460901D01*
X0061511Y0460747D01*
X0061552Y0460592D01*
X0061590Y0460435D01*
X0061623Y0460278D01*
X0061653Y0460120D01*
X0061679Y0459961D01*
X0061700Y0459802D01*
X0061718Y0459642D01*
X0061732Y0459482D01*
X0061742Y0459321D01*
X0061748Y0459161D01*
X0061750Y0459000D01*
X0061748Y0458839D01*
X0061742Y0458679D01*
X0061732Y0458518D01*
X0061718Y0458358D01*
X0061700Y0458198D01*
X0061679Y0458039D01*
X0061653Y0457880D01*
X0061623Y0457722D01*
X0061590Y0457565D01*
X0061552Y0457408D01*
X0061511Y0457253D01*
X0061466Y0457099D01*
X0061417Y0456946D01*
X0061364Y0456794D01*
X0061308Y0456643D01*
X0061247Y0456494D01*
X0061184Y0456346D01*
X0061116Y0456200D01*
X0061045Y0456056D01*
X0060971Y0455914D01*
X0060893Y0455773D01*
X0060811Y0455635D01*
X0060726Y0455498D01*
X0060638Y0455364D01*
X0060546Y0455232D01*
X0060451Y0455102D01*
X0060353Y0454974D01*
X0060252Y0454849D01*
X0060148Y0454727D01*
X0060041Y0454607D01*
X0059931Y0454490D01*
X0059818Y0454375D01*
X0059702Y0454264D01*
X0059583Y0454155D01*
X0059462Y0454050D01*
X0059338Y0453947D01*
X0059212Y0453847D01*
X0059084Y0453751D01*
X0058953Y0453658D01*
X0058819Y0453568D01*
X0058684Y0453481D01*
X0058546Y0453398D01*
X0058407Y0453318D01*
X0058265Y0453242D01*
X0058122Y0453169D01*
X0057977Y0453100D01*
X0057830Y0453034D01*
X0057682Y0452972D01*
X0057532Y0452914D01*
X0057381Y0452859D01*
X0057228Y0452808D01*
X0057074Y0452761D01*
X0056919Y0452718D01*
X0056763Y0452679D01*
X0056607Y0452643D01*
X0056449Y0452612D01*
X0056291Y0452584D01*
X0056132Y0452560D01*
X0055972Y0452540D01*
X0055812Y0452524D01*
X0055652Y0452512D01*
X0055491Y0452504D01*
X0055330Y0452500D01*
X0055170Y0452500D01*
X0055009Y0452504D01*
X0054848Y0452512D01*
X0054688Y0452524D01*
X0054528Y0452540D01*
X0054368Y0452560D01*
X0054209Y0452584D01*
X0054051Y0452612D01*
X0053893Y0452643D01*
X0053737Y0452679D01*
X0053581Y0452718D01*
X0053426Y0452761D01*
X0053272Y0452808D01*
X0053119Y0452859D01*
X0052968Y0452914D01*
X0052818Y0452972D01*
X0052670Y0453034D01*
X0052523Y0453100D01*
X0052378Y0453169D01*
X0052235Y0453242D01*
X0052093Y0453318D01*
X0051954Y0453398D01*
X0051816Y0453481D01*
X0051681Y0453568D01*
X0051547Y0453658D01*
X0051416Y0453751D01*
X0051288Y0453847D01*
X0051162Y0453947D01*
X0051038Y0454050D01*
X0050917Y0454155D01*
X0050798Y0454264D01*
X0050682Y0454375D01*
X0050569Y0454490D01*
X0050459Y0454607D01*
X0050352Y0454727D01*
X0050248Y0454849D01*
X0050147Y0454974D01*
X0050049Y0455102D01*
X0049954Y0455232D01*
X0049862Y0455364D01*
X0049774Y0455498D01*
X0049689Y0455635D01*
X0049607Y0455773D01*
X0049529Y0455914D01*
X0049455Y0456056D01*
X0049384Y0456200D01*
X0049316Y0456346D01*
X0049253Y0456494D01*
X0049192Y0456643D01*
X0049136Y0456794D01*
X0049083Y0456946D01*
X0049034Y0457099D01*
X0048989Y0457253D01*
X0048948Y0457408D01*
X0048910Y0457565D01*
X0048877Y0457722D01*
X0048847Y0457880D01*
X0048821Y0458039D01*
X0048800Y0458198D01*
X0048782Y0458358D01*
X0048768Y0458518D01*
X0048758Y0458679D01*
X0048752Y0458839D01*
X0048750Y0459000D01*
X0395750Y0459000D02*
X0395752Y0459161D01*
X0395758Y0459321D01*
X0395768Y0459482D01*
X0395782Y0459642D01*
X0395800Y0459802D01*
X0395821Y0459961D01*
X0395847Y0460120D01*
X0395877Y0460278D01*
X0395910Y0460435D01*
X0395948Y0460592D01*
X0395989Y0460747D01*
X0396034Y0460901D01*
X0396083Y0461054D01*
X0396136Y0461206D01*
X0396192Y0461357D01*
X0396253Y0461506D01*
X0396316Y0461654D01*
X0396384Y0461800D01*
X0396455Y0461944D01*
X0396529Y0462086D01*
X0396607Y0462227D01*
X0396689Y0462365D01*
X0396774Y0462502D01*
X0396862Y0462636D01*
X0396954Y0462768D01*
X0397049Y0462898D01*
X0397147Y0463026D01*
X0397248Y0463151D01*
X0397352Y0463273D01*
X0397459Y0463393D01*
X0397569Y0463510D01*
X0397682Y0463625D01*
X0397798Y0463736D01*
X0397917Y0463845D01*
X0398038Y0463950D01*
X0398162Y0464053D01*
X0398288Y0464153D01*
X0398416Y0464249D01*
X0398547Y0464342D01*
X0398681Y0464432D01*
X0398816Y0464519D01*
X0398954Y0464602D01*
X0399093Y0464682D01*
X0399235Y0464758D01*
X0399378Y0464831D01*
X0399523Y0464900D01*
X0399670Y0464966D01*
X0399818Y0465028D01*
X0399968Y0465086D01*
X0400119Y0465141D01*
X0400272Y0465192D01*
X0400426Y0465239D01*
X0400581Y0465282D01*
X0400737Y0465321D01*
X0400893Y0465357D01*
X0401051Y0465388D01*
X0401209Y0465416D01*
X0401368Y0465440D01*
X0401528Y0465460D01*
X0401688Y0465476D01*
X0401848Y0465488D01*
X0402009Y0465496D01*
X0402170Y0465500D01*
X0402330Y0465500D01*
X0402491Y0465496D01*
X0402652Y0465488D01*
X0402812Y0465476D01*
X0402972Y0465460D01*
X0403132Y0465440D01*
X0403291Y0465416D01*
X0403449Y0465388D01*
X0403607Y0465357D01*
X0403763Y0465321D01*
X0403919Y0465282D01*
X0404074Y0465239D01*
X0404228Y0465192D01*
X0404381Y0465141D01*
X0404532Y0465086D01*
X0404682Y0465028D01*
X0404830Y0464966D01*
X0404977Y0464900D01*
X0405122Y0464831D01*
X0405265Y0464758D01*
X0405407Y0464682D01*
X0405546Y0464602D01*
X0405684Y0464519D01*
X0405819Y0464432D01*
X0405953Y0464342D01*
X0406084Y0464249D01*
X0406212Y0464153D01*
X0406338Y0464053D01*
X0406462Y0463950D01*
X0406583Y0463845D01*
X0406702Y0463736D01*
X0406818Y0463625D01*
X0406931Y0463510D01*
X0407041Y0463393D01*
X0407148Y0463273D01*
X0407252Y0463151D01*
X0407353Y0463026D01*
X0407451Y0462898D01*
X0407546Y0462768D01*
X0407638Y0462636D01*
X0407726Y0462502D01*
X0407811Y0462365D01*
X0407893Y0462227D01*
X0407971Y0462086D01*
X0408045Y0461944D01*
X0408116Y0461800D01*
X0408184Y0461654D01*
X0408247Y0461506D01*
X0408308Y0461357D01*
X0408364Y0461206D01*
X0408417Y0461054D01*
X0408466Y0460901D01*
X0408511Y0460747D01*
X0408552Y0460592D01*
X0408590Y0460435D01*
X0408623Y0460278D01*
X0408653Y0460120D01*
X0408679Y0459961D01*
X0408700Y0459802D01*
X0408718Y0459642D01*
X0408732Y0459482D01*
X0408742Y0459321D01*
X0408748Y0459161D01*
X0408750Y0459000D01*
X0408748Y0458839D01*
X0408742Y0458679D01*
X0408732Y0458518D01*
X0408718Y0458358D01*
X0408700Y0458198D01*
X0408679Y0458039D01*
X0408653Y0457880D01*
X0408623Y0457722D01*
X0408590Y0457565D01*
X0408552Y0457408D01*
X0408511Y0457253D01*
X0408466Y0457099D01*
X0408417Y0456946D01*
X0408364Y0456794D01*
X0408308Y0456643D01*
X0408247Y0456494D01*
X0408184Y0456346D01*
X0408116Y0456200D01*
X0408045Y0456056D01*
X0407971Y0455914D01*
X0407893Y0455773D01*
X0407811Y0455635D01*
X0407726Y0455498D01*
X0407638Y0455364D01*
X0407546Y0455232D01*
X0407451Y0455102D01*
X0407353Y0454974D01*
X0407252Y0454849D01*
X0407148Y0454727D01*
X0407041Y0454607D01*
X0406931Y0454490D01*
X0406818Y0454375D01*
X0406702Y0454264D01*
X0406583Y0454155D01*
X0406462Y0454050D01*
X0406338Y0453947D01*
X0406212Y0453847D01*
X0406084Y0453751D01*
X0405953Y0453658D01*
X0405819Y0453568D01*
X0405684Y0453481D01*
X0405546Y0453398D01*
X0405407Y0453318D01*
X0405265Y0453242D01*
X0405122Y0453169D01*
X0404977Y0453100D01*
X0404830Y0453034D01*
X0404682Y0452972D01*
X0404532Y0452914D01*
X0404381Y0452859D01*
X0404228Y0452808D01*
X0404074Y0452761D01*
X0403919Y0452718D01*
X0403763Y0452679D01*
X0403607Y0452643D01*
X0403449Y0452612D01*
X0403291Y0452584D01*
X0403132Y0452560D01*
X0402972Y0452540D01*
X0402812Y0452524D01*
X0402652Y0452512D01*
X0402491Y0452504D01*
X0402330Y0452500D01*
X0402170Y0452500D01*
X0402009Y0452504D01*
X0401848Y0452512D01*
X0401688Y0452524D01*
X0401528Y0452540D01*
X0401368Y0452560D01*
X0401209Y0452584D01*
X0401051Y0452612D01*
X0400893Y0452643D01*
X0400737Y0452679D01*
X0400581Y0452718D01*
X0400426Y0452761D01*
X0400272Y0452808D01*
X0400119Y0452859D01*
X0399968Y0452914D01*
X0399818Y0452972D01*
X0399670Y0453034D01*
X0399523Y0453100D01*
X0399378Y0453169D01*
X0399235Y0453242D01*
X0399093Y0453318D01*
X0398954Y0453398D01*
X0398816Y0453481D01*
X0398681Y0453568D01*
X0398547Y0453658D01*
X0398416Y0453751D01*
X0398288Y0453847D01*
X0398162Y0453947D01*
X0398038Y0454050D01*
X0397917Y0454155D01*
X0397798Y0454264D01*
X0397682Y0454375D01*
X0397569Y0454490D01*
X0397459Y0454607D01*
X0397352Y0454727D01*
X0397248Y0454849D01*
X0397147Y0454974D01*
X0397049Y0455102D01*
X0396954Y0455232D01*
X0396862Y0455364D01*
X0396774Y0455498D01*
X0396689Y0455635D01*
X0396607Y0455773D01*
X0396529Y0455914D01*
X0396455Y0456056D01*
X0396384Y0456200D01*
X0396316Y0456346D01*
X0396253Y0456494D01*
X0396192Y0456643D01*
X0396136Y0456794D01*
X0396083Y0456946D01*
X0396034Y0457099D01*
X0395989Y0457253D01*
X0395948Y0457408D01*
X0395910Y0457565D01*
X0395877Y0457722D01*
X0395847Y0457880D01*
X0395821Y0458039D01*
X0395800Y0458198D01*
X0395782Y0458358D01*
X0395768Y0458518D01*
X0395758Y0458679D01*
X0395752Y0458839D01*
X0395750Y0459000D01*
X0395750Y0262000D02*
X0395752Y0262161D01*
X0395758Y0262321D01*
X0395768Y0262482D01*
X0395782Y0262642D01*
X0395800Y0262802D01*
X0395821Y0262961D01*
X0395847Y0263120D01*
X0395877Y0263278D01*
X0395910Y0263435D01*
X0395948Y0263592D01*
X0395989Y0263747D01*
X0396034Y0263901D01*
X0396083Y0264054D01*
X0396136Y0264206D01*
X0396192Y0264357D01*
X0396253Y0264506D01*
X0396316Y0264654D01*
X0396384Y0264800D01*
X0396455Y0264944D01*
X0396529Y0265086D01*
X0396607Y0265227D01*
X0396689Y0265365D01*
X0396774Y0265502D01*
X0396862Y0265636D01*
X0396954Y0265768D01*
X0397049Y0265898D01*
X0397147Y0266026D01*
X0397248Y0266151D01*
X0397352Y0266273D01*
X0397459Y0266393D01*
X0397569Y0266510D01*
X0397682Y0266625D01*
X0397798Y0266736D01*
X0397917Y0266845D01*
X0398038Y0266950D01*
X0398162Y0267053D01*
X0398288Y0267153D01*
X0398416Y0267249D01*
X0398547Y0267342D01*
X0398681Y0267432D01*
X0398816Y0267519D01*
X0398954Y0267602D01*
X0399093Y0267682D01*
X0399235Y0267758D01*
X0399378Y0267831D01*
X0399523Y0267900D01*
X0399670Y0267966D01*
X0399818Y0268028D01*
X0399968Y0268086D01*
X0400119Y0268141D01*
X0400272Y0268192D01*
X0400426Y0268239D01*
X0400581Y0268282D01*
X0400737Y0268321D01*
X0400893Y0268357D01*
X0401051Y0268388D01*
X0401209Y0268416D01*
X0401368Y0268440D01*
X0401528Y0268460D01*
X0401688Y0268476D01*
X0401848Y0268488D01*
X0402009Y0268496D01*
X0402170Y0268500D01*
X0402330Y0268500D01*
X0402491Y0268496D01*
X0402652Y0268488D01*
X0402812Y0268476D01*
X0402972Y0268460D01*
X0403132Y0268440D01*
X0403291Y0268416D01*
X0403449Y0268388D01*
X0403607Y0268357D01*
X0403763Y0268321D01*
X0403919Y0268282D01*
X0404074Y0268239D01*
X0404228Y0268192D01*
X0404381Y0268141D01*
X0404532Y0268086D01*
X0404682Y0268028D01*
X0404830Y0267966D01*
X0404977Y0267900D01*
X0405122Y0267831D01*
X0405265Y0267758D01*
X0405407Y0267682D01*
X0405546Y0267602D01*
X0405684Y0267519D01*
X0405819Y0267432D01*
X0405953Y0267342D01*
X0406084Y0267249D01*
X0406212Y0267153D01*
X0406338Y0267053D01*
X0406462Y0266950D01*
X0406583Y0266845D01*
X0406702Y0266736D01*
X0406818Y0266625D01*
X0406931Y0266510D01*
X0407041Y0266393D01*
X0407148Y0266273D01*
X0407252Y0266151D01*
X0407353Y0266026D01*
X0407451Y0265898D01*
X0407546Y0265768D01*
X0407638Y0265636D01*
X0407726Y0265502D01*
X0407811Y0265365D01*
X0407893Y0265227D01*
X0407971Y0265086D01*
X0408045Y0264944D01*
X0408116Y0264800D01*
X0408184Y0264654D01*
X0408247Y0264506D01*
X0408308Y0264357D01*
X0408364Y0264206D01*
X0408417Y0264054D01*
X0408466Y0263901D01*
X0408511Y0263747D01*
X0408552Y0263592D01*
X0408590Y0263435D01*
X0408623Y0263278D01*
X0408653Y0263120D01*
X0408679Y0262961D01*
X0408700Y0262802D01*
X0408718Y0262642D01*
X0408732Y0262482D01*
X0408742Y0262321D01*
X0408748Y0262161D01*
X0408750Y0262000D01*
X0408748Y0261839D01*
X0408742Y0261679D01*
X0408732Y0261518D01*
X0408718Y0261358D01*
X0408700Y0261198D01*
X0408679Y0261039D01*
X0408653Y0260880D01*
X0408623Y0260722D01*
X0408590Y0260565D01*
X0408552Y0260408D01*
X0408511Y0260253D01*
X0408466Y0260099D01*
X0408417Y0259946D01*
X0408364Y0259794D01*
X0408308Y0259643D01*
X0408247Y0259494D01*
X0408184Y0259346D01*
X0408116Y0259200D01*
X0408045Y0259056D01*
X0407971Y0258914D01*
X0407893Y0258773D01*
X0407811Y0258635D01*
X0407726Y0258498D01*
X0407638Y0258364D01*
X0407546Y0258232D01*
X0407451Y0258102D01*
X0407353Y0257974D01*
X0407252Y0257849D01*
X0407148Y0257727D01*
X0407041Y0257607D01*
X0406931Y0257490D01*
X0406818Y0257375D01*
X0406702Y0257264D01*
X0406583Y0257155D01*
X0406462Y0257050D01*
X0406338Y0256947D01*
X0406212Y0256847D01*
X0406084Y0256751D01*
X0405953Y0256658D01*
X0405819Y0256568D01*
X0405684Y0256481D01*
X0405546Y0256398D01*
X0405407Y0256318D01*
X0405265Y0256242D01*
X0405122Y0256169D01*
X0404977Y0256100D01*
X0404830Y0256034D01*
X0404682Y0255972D01*
X0404532Y0255914D01*
X0404381Y0255859D01*
X0404228Y0255808D01*
X0404074Y0255761D01*
X0403919Y0255718D01*
X0403763Y0255679D01*
X0403607Y0255643D01*
X0403449Y0255612D01*
X0403291Y0255584D01*
X0403132Y0255560D01*
X0402972Y0255540D01*
X0402812Y0255524D01*
X0402652Y0255512D01*
X0402491Y0255504D01*
X0402330Y0255500D01*
X0402170Y0255500D01*
X0402009Y0255504D01*
X0401848Y0255512D01*
X0401688Y0255524D01*
X0401528Y0255540D01*
X0401368Y0255560D01*
X0401209Y0255584D01*
X0401051Y0255612D01*
X0400893Y0255643D01*
X0400737Y0255679D01*
X0400581Y0255718D01*
X0400426Y0255761D01*
X0400272Y0255808D01*
X0400119Y0255859D01*
X0399968Y0255914D01*
X0399818Y0255972D01*
X0399670Y0256034D01*
X0399523Y0256100D01*
X0399378Y0256169D01*
X0399235Y0256242D01*
X0399093Y0256318D01*
X0398954Y0256398D01*
X0398816Y0256481D01*
X0398681Y0256568D01*
X0398547Y0256658D01*
X0398416Y0256751D01*
X0398288Y0256847D01*
X0398162Y0256947D01*
X0398038Y0257050D01*
X0397917Y0257155D01*
X0397798Y0257264D01*
X0397682Y0257375D01*
X0397569Y0257490D01*
X0397459Y0257607D01*
X0397352Y0257727D01*
X0397248Y0257849D01*
X0397147Y0257974D01*
X0397049Y0258102D01*
X0396954Y0258232D01*
X0396862Y0258364D01*
X0396774Y0258498D01*
X0396689Y0258635D01*
X0396607Y0258773D01*
X0396529Y0258914D01*
X0396455Y0259056D01*
X0396384Y0259200D01*
X0396316Y0259346D01*
X0396253Y0259494D01*
X0396192Y0259643D01*
X0396136Y0259794D01*
X0396083Y0259946D01*
X0396034Y0260099D01*
X0395989Y0260253D01*
X0395948Y0260408D01*
X0395910Y0260565D01*
X0395877Y0260722D01*
X0395847Y0260880D01*
X0395821Y0261039D01*
X0395800Y0261198D01*
X0395782Y0261358D01*
X0395768Y0261518D01*
X0395758Y0261679D01*
X0395752Y0261839D01*
X0395750Y0262000D01*
X0395750Y0237000D02*
X0395752Y0237161D01*
X0395758Y0237321D01*
X0395768Y0237482D01*
X0395782Y0237642D01*
X0395800Y0237802D01*
X0395821Y0237961D01*
X0395847Y0238120D01*
X0395877Y0238278D01*
X0395910Y0238435D01*
X0395948Y0238592D01*
X0395989Y0238747D01*
X0396034Y0238901D01*
X0396083Y0239054D01*
X0396136Y0239206D01*
X0396192Y0239357D01*
X0396253Y0239506D01*
X0396316Y0239654D01*
X0396384Y0239800D01*
X0396455Y0239944D01*
X0396529Y0240086D01*
X0396607Y0240227D01*
X0396689Y0240365D01*
X0396774Y0240502D01*
X0396862Y0240636D01*
X0396954Y0240768D01*
X0397049Y0240898D01*
X0397147Y0241026D01*
X0397248Y0241151D01*
X0397352Y0241273D01*
X0397459Y0241393D01*
X0397569Y0241510D01*
X0397682Y0241625D01*
X0397798Y0241736D01*
X0397917Y0241845D01*
X0398038Y0241950D01*
X0398162Y0242053D01*
X0398288Y0242153D01*
X0398416Y0242249D01*
X0398547Y0242342D01*
X0398681Y0242432D01*
X0398816Y0242519D01*
X0398954Y0242602D01*
X0399093Y0242682D01*
X0399235Y0242758D01*
X0399378Y0242831D01*
X0399523Y0242900D01*
X0399670Y0242966D01*
X0399818Y0243028D01*
X0399968Y0243086D01*
X0400119Y0243141D01*
X0400272Y0243192D01*
X0400426Y0243239D01*
X0400581Y0243282D01*
X0400737Y0243321D01*
X0400893Y0243357D01*
X0401051Y0243388D01*
X0401209Y0243416D01*
X0401368Y0243440D01*
X0401528Y0243460D01*
X0401688Y0243476D01*
X0401848Y0243488D01*
X0402009Y0243496D01*
X0402170Y0243500D01*
X0402330Y0243500D01*
X0402491Y0243496D01*
X0402652Y0243488D01*
X0402812Y0243476D01*
X0402972Y0243460D01*
X0403132Y0243440D01*
X0403291Y0243416D01*
X0403449Y0243388D01*
X0403607Y0243357D01*
X0403763Y0243321D01*
X0403919Y0243282D01*
X0404074Y0243239D01*
X0404228Y0243192D01*
X0404381Y0243141D01*
X0404532Y0243086D01*
X0404682Y0243028D01*
X0404830Y0242966D01*
X0404977Y0242900D01*
X0405122Y0242831D01*
X0405265Y0242758D01*
X0405407Y0242682D01*
X0405546Y0242602D01*
X0405684Y0242519D01*
X0405819Y0242432D01*
X0405953Y0242342D01*
X0406084Y0242249D01*
X0406212Y0242153D01*
X0406338Y0242053D01*
X0406462Y0241950D01*
X0406583Y0241845D01*
X0406702Y0241736D01*
X0406818Y0241625D01*
X0406931Y0241510D01*
X0407041Y0241393D01*
X0407148Y0241273D01*
X0407252Y0241151D01*
X0407353Y0241026D01*
X0407451Y0240898D01*
X0407546Y0240768D01*
X0407638Y0240636D01*
X0407726Y0240502D01*
X0407811Y0240365D01*
X0407893Y0240227D01*
X0407971Y0240086D01*
X0408045Y0239944D01*
X0408116Y0239800D01*
X0408184Y0239654D01*
X0408247Y0239506D01*
X0408308Y0239357D01*
X0408364Y0239206D01*
X0408417Y0239054D01*
X0408466Y0238901D01*
X0408511Y0238747D01*
X0408552Y0238592D01*
X0408590Y0238435D01*
X0408623Y0238278D01*
X0408653Y0238120D01*
X0408679Y0237961D01*
X0408700Y0237802D01*
X0408718Y0237642D01*
X0408732Y0237482D01*
X0408742Y0237321D01*
X0408748Y0237161D01*
X0408750Y0237000D01*
X0408748Y0236839D01*
X0408742Y0236679D01*
X0408732Y0236518D01*
X0408718Y0236358D01*
X0408700Y0236198D01*
X0408679Y0236039D01*
X0408653Y0235880D01*
X0408623Y0235722D01*
X0408590Y0235565D01*
X0408552Y0235408D01*
X0408511Y0235253D01*
X0408466Y0235099D01*
X0408417Y0234946D01*
X0408364Y0234794D01*
X0408308Y0234643D01*
X0408247Y0234494D01*
X0408184Y0234346D01*
X0408116Y0234200D01*
X0408045Y0234056D01*
X0407971Y0233914D01*
X0407893Y0233773D01*
X0407811Y0233635D01*
X0407726Y0233498D01*
X0407638Y0233364D01*
X0407546Y0233232D01*
X0407451Y0233102D01*
X0407353Y0232974D01*
X0407252Y0232849D01*
X0407148Y0232727D01*
X0407041Y0232607D01*
X0406931Y0232490D01*
X0406818Y0232375D01*
X0406702Y0232264D01*
X0406583Y0232155D01*
X0406462Y0232050D01*
X0406338Y0231947D01*
X0406212Y0231847D01*
X0406084Y0231751D01*
X0405953Y0231658D01*
X0405819Y0231568D01*
X0405684Y0231481D01*
X0405546Y0231398D01*
X0405407Y0231318D01*
X0405265Y0231242D01*
X0405122Y0231169D01*
X0404977Y0231100D01*
X0404830Y0231034D01*
X0404682Y0230972D01*
X0404532Y0230914D01*
X0404381Y0230859D01*
X0404228Y0230808D01*
X0404074Y0230761D01*
X0403919Y0230718D01*
X0403763Y0230679D01*
X0403607Y0230643D01*
X0403449Y0230612D01*
X0403291Y0230584D01*
X0403132Y0230560D01*
X0402972Y0230540D01*
X0402812Y0230524D01*
X0402652Y0230512D01*
X0402491Y0230504D01*
X0402330Y0230500D01*
X0402170Y0230500D01*
X0402009Y0230504D01*
X0401848Y0230512D01*
X0401688Y0230524D01*
X0401528Y0230540D01*
X0401368Y0230560D01*
X0401209Y0230584D01*
X0401051Y0230612D01*
X0400893Y0230643D01*
X0400737Y0230679D01*
X0400581Y0230718D01*
X0400426Y0230761D01*
X0400272Y0230808D01*
X0400119Y0230859D01*
X0399968Y0230914D01*
X0399818Y0230972D01*
X0399670Y0231034D01*
X0399523Y0231100D01*
X0399378Y0231169D01*
X0399235Y0231242D01*
X0399093Y0231318D01*
X0398954Y0231398D01*
X0398816Y0231481D01*
X0398681Y0231568D01*
X0398547Y0231658D01*
X0398416Y0231751D01*
X0398288Y0231847D01*
X0398162Y0231947D01*
X0398038Y0232050D01*
X0397917Y0232155D01*
X0397798Y0232264D01*
X0397682Y0232375D01*
X0397569Y0232490D01*
X0397459Y0232607D01*
X0397352Y0232727D01*
X0397248Y0232849D01*
X0397147Y0232974D01*
X0397049Y0233102D01*
X0396954Y0233232D01*
X0396862Y0233364D01*
X0396774Y0233498D01*
X0396689Y0233635D01*
X0396607Y0233773D01*
X0396529Y0233914D01*
X0396455Y0234056D01*
X0396384Y0234200D01*
X0396316Y0234346D01*
X0396253Y0234494D01*
X0396192Y0234643D01*
X0396136Y0234794D01*
X0396083Y0234946D01*
X0396034Y0235099D01*
X0395989Y0235253D01*
X0395948Y0235408D01*
X0395910Y0235565D01*
X0395877Y0235722D01*
X0395847Y0235880D01*
X0395821Y0236039D01*
X0395800Y0236198D01*
X0395782Y0236358D01*
X0395768Y0236518D01*
X0395758Y0236679D01*
X0395752Y0236839D01*
X0395750Y0237000D01*
X0395750Y0040000D02*
X0395752Y0040161D01*
X0395758Y0040321D01*
X0395768Y0040482D01*
X0395782Y0040642D01*
X0395800Y0040802D01*
X0395821Y0040961D01*
X0395847Y0041120D01*
X0395877Y0041278D01*
X0395910Y0041435D01*
X0395948Y0041592D01*
X0395989Y0041747D01*
X0396034Y0041901D01*
X0396083Y0042054D01*
X0396136Y0042206D01*
X0396192Y0042357D01*
X0396253Y0042506D01*
X0396316Y0042654D01*
X0396384Y0042800D01*
X0396455Y0042944D01*
X0396529Y0043086D01*
X0396607Y0043227D01*
X0396689Y0043365D01*
X0396774Y0043502D01*
X0396862Y0043636D01*
X0396954Y0043768D01*
X0397049Y0043898D01*
X0397147Y0044026D01*
X0397248Y0044151D01*
X0397352Y0044273D01*
X0397459Y0044393D01*
X0397569Y0044510D01*
X0397682Y0044625D01*
X0397798Y0044736D01*
X0397917Y0044845D01*
X0398038Y0044950D01*
X0398162Y0045053D01*
X0398288Y0045153D01*
X0398416Y0045249D01*
X0398547Y0045342D01*
X0398681Y0045432D01*
X0398816Y0045519D01*
X0398954Y0045602D01*
X0399093Y0045682D01*
X0399235Y0045758D01*
X0399378Y0045831D01*
X0399523Y0045900D01*
X0399670Y0045966D01*
X0399818Y0046028D01*
X0399968Y0046086D01*
X0400119Y0046141D01*
X0400272Y0046192D01*
X0400426Y0046239D01*
X0400581Y0046282D01*
X0400737Y0046321D01*
X0400893Y0046357D01*
X0401051Y0046388D01*
X0401209Y0046416D01*
X0401368Y0046440D01*
X0401528Y0046460D01*
X0401688Y0046476D01*
X0401848Y0046488D01*
X0402009Y0046496D01*
X0402170Y0046500D01*
X0402330Y0046500D01*
X0402491Y0046496D01*
X0402652Y0046488D01*
X0402812Y0046476D01*
X0402972Y0046460D01*
X0403132Y0046440D01*
X0403291Y0046416D01*
X0403449Y0046388D01*
X0403607Y0046357D01*
X0403763Y0046321D01*
X0403919Y0046282D01*
X0404074Y0046239D01*
X0404228Y0046192D01*
X0404381Y0046141D01*
X0404532Y0046086D01*
X0404682Y0046028D01*
X0404830Y0045966D01*
X0404977Y0045900D01*
X0405122Y0045831D01*
X0405265Y0045758D01*
X0405407Y0045682D01*
X0405546Y0045602D01*
X0405684Y0045519D01*
X0405819Y0045432D01*
X0405953Y0045342D01*
X0406084Y0045249D01*
X0406212Y0045153D01*
X0406338Y0045053D01*
X0406462Y0044950D01*
X0406583Y0044845D01*
X0406702Y0044736D01*
X0406818Y0044625D01*
X0406931Y0044510D01*
X0407041Y0044393D01*
X0407148Y0044273D01*
X0407252Y0044151D01*
X0407353Y0044026D01*
X0407451Y0043898D01*
X0407546Y0043768D01*
X0407638Y0043636D01*
X0407726Y0043502D01*
X0407811Y0043365D01*
X0407893Y0043227D01*
X0407971Y0043086D01*
X0408045Y0042944D01*
X0408116Y0042800D01*
X0408184Y0042654D01*
X0408247Y0042506D01*
X0408308Y0042357D01*
X0408364Y0042206D01*
X0408417Y0042054D01*
X0408466Y0041901D01*
X0408511Y0041747D01*
X0408552Y0041592D01*
X0408590Y0041435D01*
X0408623Y0041278D01*
X0408653Y0041120D01*
X0408679Y0040961D01*
X0408700Y0040802D01*
X0408718Y0040642D01*
X0408732Y0040482D01*
X0408742Y0040321D01*
X0408748Y0040161D01*
X0408750Y0040000D01*
X0408748Y0039839D01*
X0408742Y0039679D01*
X0408732Y0039518D01*
X0408718Y0039358D01*
X0408700Y0039198D01*
X0408679Y0039039D01*
X0408653Y0038880D01*
X0408623Y0038722D01*
X0408590Y0038565D01*
X0408552Y0038408D01*
X0408511Y0038253D01*
X0408466Y0038099D01*
X0408417Y0037946D01*
X0408364Y0037794D01*
X0408308Y0037643D01*
X0408247Y0037494D01*
X0408184Y0037346D01*
X0408116Y0037200D01*
X0408045Y0037056D01*
X0407971Y0036914D01*
X0407893Y0036773D01*
X0407811Y0036635D01*
X0407726Y0036498D01*
X0407638Y0036364D01*
X0407546Y0036232D01*
X0407451Y0036102D01*
X0407353Y0035974D01*
X0407252Y0035849D01*
X0407148Y0035727D01*
X0407041Y0035607D01*
X0406931Y0035490D01*
X0406818Y0035375D01*
X0406702Y0035264D01*
X0406583Y0035155D01*
X0406462Y0035050D01*
X0406338Y0034947D01*
X0406212Y0034847D01*
X0406084Y0034751D01*
X0405953Y0034658D01*
X0405819Y0034568D01*
X0405684Y0034481D01*
X0405546Y0034398D01*
X0405407Y0034318D01*
X0405265Y0034242D01*
X0405122Y0034169D01*
X0404977Y0034100D01*
X0404830Y0034034D01*
X0404682Y0033972D01*
X0404532Y0033914D01*
X0404381Y0033859D01*
X0404228Y0033808D01*
X0404074Y0033761D01*
X0403919Y0033718D01*
X0403763Y0033679D01*
X0403607Y0033643D01*
X0403449Y0033612D01*
X0403291Y0033584D01*
X0403132Y0033560D01*
X0402972Y0033540D01*
X0402812Y0033524D01*
X0402652Y0033512D01*
X0402491Y0033504D01*
X0402330Y0033500D01*
X0402170Y0033500D01*
X0402009Y0033504D01*
X0401848Y0033512D01*
X0401688Y0033524D01*
X0401528Y0033540D01*
X0401368Y0033560D01*
X0401209Y0033584D01*
X0401051Y0033612D01*
X0400893Y0033643D01*
X0400737Y0033679D01*
X0400581Y0033718D01*
X0400426Y0033761D01*
X0400272Y0033808D01*
X0400119Y0033859D01*
X0399968Y0033914D01*
X0399818Y0033972D01*
X0399670Y0034034D01*
X0399523Y0034100D01*
X0399378Y0034169D01*
X0399235Y0034242D01*
X0399093Y0034318D01*
X0398954Y0034398D01*
X0398816Y0034481D01*
X0398681Y0034568D01*
X0398547Y0034658D01*
X0398416Y0034751D01*
X0398288Y0034847D01*
X0398162Y0034947D01*
X0398038Y0035050D01*
X0397917Y0035155D01*
X0397798Y0035264D01*
X0397682Y0035375D01*
X0397569Y0035490D01*
X0397459Y0035607D01*
X0397352Y0035727D01*
X0397248Y0035849D01*
X0397147Y0035974D01*
X0397049Y0036102D01*
X0396954Y0036232D01*
X0396862Y0036364D01*
X0396774Y0036498D01*
X0396689Y0036635D01*
X0396607Y0036773D01*
X0396529Y0036914D01*
X0396455Y0037056D01*
X0396384Y0037200D01*
X0396316Y0037346D01*
X0396253Y0037494D01*
X0396192Y0037643D01*
X0396136Y0037794D01*
X0396083Y0037946D01*
X0396034Y0038099D01*
X0395989Y0038253D01*
X0395948Y0038408D01*
X0395910Y0038565D01*
X0395877Y0038722D01*
X0395847Y0038880D01*
X0395821Y0039039D01*
X0395800Y0039198D01*
X0395782Y0039358D01*
X0395768Y0039518D01*
X0395758Y0039679D01*
X0395752Y0039839D01*
X0395750Y0040000D01*
D11*
X0419300Y0117045D02*
X0419300Y0118684D01*
X0419302Y0118763D01*
X0419308Y0118842D01*
X0419317Y0118921D01*
X0419331Y0118999D01*
X0419348Y0119076D01*
X0419368Y0119153D01*
X0419393Y0119228D01*
X0419421Y0119302D01*
X0419453Y0119375D01*
X0419488Y0119446D01*
X0419526Y0119515D01*
X0419568Y0119582D01*
X0419613Y0119647D01*
X0419661Y0119710D01*
X0419712Y0119771D01*
X0419766Y0119829D01*
X0419823Y0119884D01*
X0419882Y0119937D01*
X0419944Y0119986D01*
X0420008Y0120033D01*
X0420074Y0120076D01*
X0420142Y0120116D01*
X0420213Y0120153D01*
X0420284Y0120187D01*
X0420358Y0120216D01*
X0420433Y0120243D01*
X0420508Y0120265D01*
X0420585Y0120284D01*
X0420663Y0120300D01*
X0420741Y0120311D01*
X0420820Y0120319D01*
X0420899Y0120323D01*
X0420979Y0120323D01*
X0421058Y0120319D01*
X0421137Y0120311D01*
X0421215Y0120300D01*
X0421293Y0120284D01*
X0421370Y0120265D01*
X0421445Y0120243D01*
X0421520Y0120216D01*
X0421594Y0120187D01*
X0421665Y0120153D01*
X0421736Y0120116D01*
X0421804Y0120076D01*
X0421870Y0120033D01*
X0421934Y0119986D01*
X0421996Y0119937D01*
X0422055Y0119884D01*
X0422112Y0119829D01*
X0422166Y0119771D01*
X0422217Y0119710D01*
X0422265Y0119647D01*
X0422310Y0119582D01*
X0422352Y0119515D01*
X0422390Y0119446D01*
X0422425Y0119375D01*
X0422457Y0119302D01*
X0422485Y0119228D01*
X0422510Y0119153D01*
X0422530Y0119076D01*
X0422547Y0118999D01*
X0422561Y0118921D01*
X0422570Y0118842D01*
X0422576Y0118763D01*
X0422578Y0118684D01*
X0422578Y0117045D01*
X0422578Y0119012D02*
X0425200Y0120323D01*
X0423889Y0123062D02*
X0422578Y0123062D01*
X0422507Y0123064D01*
X0422436Y0123070D01*
X0422366Y0123079D01*
X0422296Y0123093D01*
X0422227Y0123110D01*
X0422159Y0123131D01*
X0422093Y0123155D01*
X0422028Y0123183D01*
X0421964Y0123215D01*
X0421902Y0123250D01*
X0421842Y0123288D01*
X0421785Y0123329D01*
X0421729Y0123374D01*
X0421676Y0123421D01*
X0421626Y0123471D01*
X0421579Y0123524D01*
X0421534Y0123580D01*
X0421493Y0123637D01*
X0421455Y0123697D01*
X0421420Y0123759D01*
X0421388Y0123823D01*
X0421360Y0123888D01*
X0421336Y0123954D01*
X0421315Y0124022D01*
X0421298Y0124091D01*
X0421284Y0124161D01*
X0421275Y0124231D01*
X0421269Y0124302D01*
X0421267Y0124373D01*
X0421269Y0124444D01*
X0421275Y0124515D01*
X0421284Y0124585D01*
X0421298Y0124655D01*
X0421315Y0124724D01*
X0421336Y0124792D01*
X0421360Y0124858D01*
X0421388Y0124923D01*
X0421420Y0124987D01*
X0421455Y0125049D01*
X0421493Y0125109D01*
X0421534Y0125166D01*
X0421579Y0125222D01*
X0421626Y0125275D01*
X0421676Y0125325D01*
X0421729Y0125372D01*
X0421785Y0125417D01*
X0421842Y0125458D01*
X0421902Y0125496D01*
X0421964Y0125531D01*
X0422028Y0125563D01*
X0422093Y0125591D01*
X0422159Y0125615D01*
X0422227Y0125636D01*
X0422296Y0125653D01*
X0422366Y0125667D01*
X0422436Y0125676D01*
X0422507Y0125682D01*
X0422578Y0125684D01*
X0423889Y0125684D01*
X0423960Y0125682D01*
X0424031Y0125676D01*
X0424101Y0125667D01*
X0424171Y0125653D01*
X0424240Y0125636D01*
X0424308Y0125615D01*
X0424374Y0125591D01*
X0424439Y0125563D01*
X0424503Y0125531D01*
X0424565Y0125496D01*
X0424625Y0125458D01*
X0424682Y0125417D01*
X0424738Y0125372D01*
X0424791Y0125325D01*
X0424841Y0125275D01*
X0424888Y0125222D01*
X0424933Y0125166D01*
X0424974Y0125109D01*
X0425012Y0125049D01*
X0425047Y0124987D01*
X0425079Y0124923D01*
X0425107Y0124858D01*
X0425131Y0124792D01*
X0425152Y0124724D01*
X0425169Y0124655D01*
X0425183Y0124585D01*
X0425192Y0124515D01*
X0425198Y0124444D01*
X0425200Y0124373D01*
X0425198Y0124302D01*
X0425192Y0124231D01*
X0425183Y0124161D01*
X0425169Y0124091D01*
X0425152Y0124022D01*
X0425131Y0123954D01*
X0425107Y0123888D01*
X0425079Y0123823D01*
X0425047Y0123759D01*
X0425012Y0123697D01*
X0424974Y0123637D01*
X0424933Y0123580D01*
X0424888Y0123524D01*
X0424841Y0123471D01*
X0424791Y0123421D01*
X0424738Y0123374D01*
X0424682Y0123329D01*
X0424625Y0123288D01*
X0424565Y0123250D01*
X0424503Y0123215D01*
X0424439Y0123183D01*
X0424374Y0123155D01*
X0424308Y0123131D01*
X0424240Y0123110D01*
X0424171Y0123093D01*
X0424101Y0123079D01*
X0424031Y0123070D01*
X0423960Y0123064D01*
X0423889Y0123062D01*
X0424217Y0128601D02*
X0421267Y0128601D01*
X0421267Y0131223D02*
X0425200Y0131223D01*
X0425200Y0129584D01*
X0425198Y0129522D01*
X0425192Y0129461D01*
X0425183Y0129400D01*
X0425169Y0129340D01*
X0425152Y0129280D01*
X0425131Y0129222D01*
X0425106Y0129165D01*
X0425078Y0129110D01*
X0425047Y0129057D01*
X0425012Y0129006D01*
X0424974Y0128957D01*
X0424934Y0128911D01*
X0424890Y0128867D01*
X0424844Y0128827D01*
X0424795Y0128789D01*
X0424744Y0128754D01*
X0424691Y0128723D01*
X0424636Y0128695D01*
X0424579Y0128670D01*
X0424521Y0128649D01*
X0424461Y0128632D01*
X0424401Y0128618D01*
X0424340Y0128609D01*
X0424279Y0128603D01*
X0424217Y0128601D01*
X0424217Y0134233D02*
X0419300Y0134233D01*
X0421267Y0133578D02*
X0421267Y0135544D01*
X0422578Y0138037D02*
X0424217Y0138037D01*
X0424279Y0138039D01*
X0424340Y0138045D01*
X0424401Y0138054D01*
X0424461Y0138068D01*
X0424521Y0138085D01*
X0424579Y0138106D01*
X0424636Y0138131D01*
X0424691Y0138159D01*
X0424744Y0138190D01*
X0424795Y0138225D01*
X0424844Y0138263D01*
X0424890Y0138303D01*
X0424934Y0138347D01*
X0424974Y0138393D01*
X0425012Y0138442D01*
X0425047Y0138493D01*
X0425078Y0138546D01*
X0425106Y0138601D01*
X0425131Y0138658D01*
X0425152Y0138716D01*
X0425169Y0138776D01*
X0425183Y0138836D01*
X0425192Y0138897D01*
X0425198Y0138958D01*
X0425200Y0139020D01*
X0425200Y0140659D01*
X0423233Y0140659D02*
X0423233Y0138037D01*
X0422578Y0138037D02*
X0422507Y0138039D01*
X0422436Y0138045D01*
X0422366Y0138054D01*
X0422296Y0138068D01*
X0422227Y0138085D01*
X0422159Y0138106D01*
X0422093Y0138130D01*
X0422028Y0138158D01*
X0421964Y0138190D01*
X0421902Y0138225D01*
X0421842Y0138263D01*
X0421785Y0138304D01*
X0421729Y0138349D01*
X0421676Y0138396D01*
X0421626Y0138446D01*
X0421579Y0138499D01*
X0421534Y0138555D01*
X0421493Y0138612D01*
X0421455Y0138672D01*
X0421420Y0138734D01*
X0421388Y0138798D01*
X0421360Y0138863D01*
X0421336Y0138929D01*
X0421315Y0138997D01*
X0421298Y0139066D01*
X0421284Y0139136D01*
X0421275Y0139206D01*
X0421269Y0139277D01*
X0421267Y0139348D01*
X0421269Y0139419D01*
X0421275Y0139490D01*
X0421284Y0139560D01*
X0421298Y0139630D01*
X0421315Y0139699D01*
X0421336Y0139767D01*
X0421360Y0139833D01*
X0421388Y0139898D01*
X0421420Y0139962D01*
X0421455Y0140024D01*
X0421493Y0140084D01*
X0421534Y0140141D01*
X0421579Y0140197D01*
X0421626Y0140250D01*
X0421676Y0140300D01*
X0421729Y0140347D01*
X0421785Y0140392D01*
X0421842Y0140433D01*
X0421902Y0140471D01*
X0421964Y0140506D01*
X0422028Y0140538D01*
X0422093Y0140566D01*
X0422159Y0140590D01*
X0422227Y0140611D01*
X0422296Y0140628D01*
X0422366Y0140642D01*
X0422436Y0140651D01*
X0422507Y0140657D01*
X0422578Y0140659D01*
X0423233Y0140659D01*
X0425200Y0135544D02*
X0425200Y0135216D01*
X0425198Y0135154D01*
X0425192Y0135093D01*
X0425183Y0135032D01*
X0425169Y0134972D01*
X0425152Y0134912D01*
X0425131Y0134854D01*
X0425106Y0134797D01*
X0425078Y0134742D01*
X0425047Y0134689D01*
X0425012Y0134638D01*
X0424974Y0134589D01*
X0424934Y0134543D01*
X0424890Y0134499D01*
X0424844Y0134459D01*
X0424795Y0134421D01*
X0424744Y0134386D01*
X0424691Y0134355D01*
X0424636Y0134327D01*
X0424579Y0134302D01*
X0424521Y0134281D01*
X0424461Y0134264D01*
X0424401Y0134250D01*
X0424340Y0134241D01*
X0424279Y0134235D01*
X0424217Y0134233D01*
X0423561Y0146735D02*
X0420939Y0146735D01*
X0420860Y0146737D01*
X0420781Y0146743D01*
X0420702Y0146752D01*
X0420624Y0146766D01*
X0420547Y0146783D01*
X0420470Y0146803D01*
X0420395Y0146828D01*
X0420321Y0146856D01*
X0420248Y0146888D01*
X0420177Y0146923D01*
X0420108Y0146961D01*
X0420041Y0147003D01*
X0419976Y0147048D01*
X0419913Y0147096D01*
X0419852Y0147147D01*
X0419794Y0147201D01*
X0419739Y0147258D01*
X0419686Y0147317D01*
X0419637Y0147379D01*
X0419590Y0147443D01*
X0419547Y0147509D01*
X0419507Y0147577D01*
X0419470Y0147648D01*
X0419436Y0147719D01*
X0419407Y0147793D01*
X0419380Y0147868D01*
X0419358Y0147943D01*
X0419339Y0148020D01*
X0419323Y0148098D01*
X0419312Y0148176D01*
X0419304Y0148255D01*
X0419300Y0148334D01*
X0419300Y0148414D01*
X0419304Y0148493D01*
X0419312Y0148572D01*
X0419323Y0148650D01*
X0419339Y0148728D01*
X0419358Y0148805D01*
X0419380Y0148880D01*
X0419407Y0148955D01*
X0419436Y0149029D01*
X0419470Y0149100D01*
X0419507Y0149171D01*
X0419547Y0149239D01*
X0419590Y0149305D01*
X0419637Y0149369D01*
X0419686Y0149431D01*
X0419739Y0149490D01*
X0419794Y0149547D01*
X0419852Y0149601D01*
X0419913Y0149652D01*
X0419976Y0149700D01*
X0420041Y0149745D01*
X0420108Y0149787D01*
X0420177Y0149825D01*
X0420248Y0149860D01*
X0420321Y0149892D01*
X0420395Y0149920D01*
X0420470Y0149945D01*
X0420547Y0149965D01*
X0420624Y0149982D01*
X0420702Y0149996D01*
X0420781Y0150005D01*
X0420860Y0150011D01*
X0420939Y0150013D01*
X0423561Y0150013D01*
X0423640Y0150011D01*
X0423719Y0150005D01*
X0423798Y0149996D01*
X0423876Y0149982D01*
X0423953Y0149965D01*
X0424030Y0149945D01*
X0424105Y0149920D01*
X0424179Y0149892D01*
X0424252Y0149860D01*
X0424323Y0149825D01*
X0424392Y0149787D01*
X0424459Y0149745D01*
X0424524Y0149700D01*
X0424587Y0149652D01*
X0424648Y0149601D01*
X0424706Y0149547D01*
X0424761Y0149490D01*
X0424814Y0149431D01*
X0424863Y0149369D01*
X0424910Y0149305D01*
X0424953Y0149239D01*
X0424993Y0149171D01*
X0425030Y0149100D01*
X0425064Y0149029D01*
X0425093Y0148955D01*
X0425120Y0148880D01*
X0425142Y0148805D01*
X0425161Y0148728D01*
X0425177Y0148650D01*
X0425188Y0148572D01*
X0425196Y0148493D01*
X0425200Y0148414D01*
X0425200Y0148334D01*
X0425196Y0148255D01*
X0425188Y0148176D01*
X0425177Y0148098D01*
X0425161Y0148020D01*
X0425142Y0147943D01*
X0425120Y0147868D01*
X0425093Y0147793D01*
X0425064Y0147719D01*
X0425030Y0147648D01*
X0424993Y0147577D01*
X0424953Y0147509D01*
X0424910Y0147443D01*
X0424863Y0147379D01*
X0424814Y0147317D01*
X0424761Y0147258D01*
X0424706Y0147201D01*
X0424648Y0147147D01*
X0424587Y0147096D01*
X0424524Y0147048D01*
X0424459Y0147003D01*
X0424392Y0146961D01*
X0424323Y0146923D01*
X0424252Y0146888D01*
X0424179Y0146856D01*
X0424105Y0146828D01*
X0424030Y0146803D01*
X0423953Y0146783D01*
X0423876Y0146766D01*
X0423798Y0146752D01*
X0423719Y0146743D01*
X0423640Y0146737D01*
X0423561Y0146735D01*
X0424217Y0153012D02*
X0421267Y0153012D01*
X0421267Y0155634D02*
X0425200Y0155634D01*
X0425200Y0153995D01*
X0425198Y0153933D01*
X0425192Y0153872D01*
X0425183Y0153811D01*
X0425169Y0153751D01*
X0425152Y0153691D01*
X0425131Y0153633D01*
X0425106Y0153576D01*
X0425078Y0153521D01*
X0425047Y0153468D01*
X0425012Y0153417D01*
X0424974Y0153368D01*
X0424934Y0153322D01*
X0424890Y0153278D01*
X0424844Y0153238D01*
X0424795Y0153200D01*
X0424744Y0153165D01*
X0424691Y0153134D01*
X0424636Y0153106D01*
X0424579Y0153081D01*
X0424521Y0153060D01*
X0424461Y0153043D01*
X0424401Y0153029D01*
X0424340Y0153020D01*
X0424279Y0153014D01*
X0424217Y0153012D01*
X0424217Y0158644D02*
X0419300Y0158644D01*
X0421267Y0157988D02*
X0421267Y0159955D01*
X0424217Y0158644D02*
X0424279Y0158646D01*
X0424340Y0158652D01*
X0424401Y0158661D01*
X0424461Y0158675D01*
X0424521Y0158692D01*
X0424579Y0158713D01*
X0424636Y0158738D01*
X0424691Y0158766D01*
X0424744Y0158797D01*
X0424795Y0158832D01*
X0424844Y0158870D01*
X0424890Y0158910D01*
X0424934Y0158954D01*
X0424974Y0159000D01*
X0425012Y0159049D01*
X0425047Y0159100D01*
X0425078Y0159153D01*
X0425106Y0159208D01*
X0425131Y0159265D01*
X0425152Y0159323D01*
X0425169Y0159383D01*
X0425183Y0159443D01*
X0425192Y0159504D01*
X0425198Y0159565D01*
X0425200Y0159627D01*
X0425200Y0159955D01*
X0425200Y0117045D02*
X0419300Y0117045D01*
X0505644Y0024878D02*
X0505778Y0024832D01*
X0505913Y0024789D01*
X0506049Y0024750D01*
X0506186Y0024714D01*
X0506323Y0024682D01*
X0506462Y0024653D01*
X0506601Y0024627D01*
X0506741Y0024606D01*
X0506882Y0024587D01*
X0507022Y0024573D01*
X0507164Y0024562D01*
X0507305Y0024554D01*
X0507447Y0024551D01*
X0507447Y0024550D02*
X0507504Y0024551D01*
X0507562Y0024556D01*
X0507619Y0024565D01*
X0507675Y0024578D01*
X0507730Y0024594D01*
X0507784Y0024614D01*
X0507836Y0024638D01*
X0507887Y0024665D01*
X0507935Y0024696D01*
X0507982Y0024730D01*
X0508026Y0024767D01*
X0508068Y0024807D01*
X0508106Y0024849D01*
X0508142Y0024894D01*
X0508175Y0024942D01*
X0508204Y0024991D01*
X0508230Y0025042D01*
X0508253Y0025095D01*
X0508271Y0025150D01*
X0508286Y0025205D01*
X0508298Y0025262D01*
X0508305Y0025319D01*
X0508309Y0025376D01*
X0508308Y0025434D01*
X0508304Y0025491D01*
X0508296Y0025548D01*
X0508284Y0025604D01*
X0508268Y0025660D01*
X0508249Y0025714D01*
X0508226Y0025766D01*
X0508199Y0025817D01*
X0508169Y0025867D01*
X0508136Y0025914D01*
X0508100Y0025958D01*
X0508061Y0026000D01*
X0508019Y0026040D01*
X0507974Y0026076D01*
X0507927Y0026109D01*
X0507878Y0026139D01*
X0507827Y0026166D01*
X0507775Y0026189D01*
X0507774Y0026189D02*
X0506136Y0026844D01*
X0506135Y0026845D02*
X0506083Y0026868D01*
X0506032Y0026895D01*
X0505983Y0026925D01*
X0505936Y0026958D01*
X0505891Y0026994D01*
X0505849Y0027034D01*
X0505810Y0027076D01*
X0505774Y0027120D01*
X0505741Y0027167D01*
X0505711Y0027217D01*
X0505684Y0027268D01*
X0505661Y0027320D01*
X0505642Y0027374D01*
X0505626Y0027430D01*
X0505614Y0027486D01*
X0505606Y0027543D01*
X0505602Y0027600D01*
X0505601Y0027658D01*
X0505605Y0027715D01*
X0505612Y0027772D01*
X0505624Y0027829D01*
X0505639Y0027884D01*
X0505657Y0027939D01*
X0505680Y0027992D01*
X0505706Y0028043D01*
X0505735Y0028092D01*
X0505768Y0028140D01*
X0505804Y0028185D01*
X0505842Y0028227D01*
X0505884Y0028267D01*
X0505928Y0028304D01*
X0505975Y0028338D01*
X0506023Y0028369D01*
X0506074Y0028396D01*
X0506126Y0028420D01*
X0506180Y0028440D01*
X0506235Y0028456D01*
X0506291Y0028469D01*
X0506348Y0028478D01*
X0506406Y0028483D01*
X0506463Y0028484D01*
X0506463Y0028483D02*
X0506580Y0028479D01*
X0506697Y0028472D01*
X0506813Y0028461D01*
X0506930Y0028447D01*
X0507045Y0028428D01*
X0507160Y0028407D01*
X0507274Y0028381D01*
X0507388Y0028352D01*
X0507500Y0028320D01*
X0507612Y0028284D01*
X0507722Y0028244D01*
X0507831Y0028201D01*
X0507938Y0028155D01*
X0510988Y0027500D02*
X0510988Y0025533D01*
X0510990Y0025471D01*
X0510996Y0025410D01*
X0511005Y0025349D01*
X0511019Y0025289D01*
X0511036Y0025229D01*
X0511057Y0025171D01*
X0511082Y0025114D01*
X0511110Y0025059D01*
X0511141Y0025006D01*
X0511176Y0024955D01*
X0511214Y0024906D01*
X0511254Y0024860D01*
X0511298Y0024816D01*
X0511344Y0024776D01*
X0511393Y0024738D01*
X0511444Y0024703D01*
X0511497Y0024672D01*
X0511552Y0024644D01*
X0511609Y0024619D01*
X0511667Y0024598D01*
X0511727Y0024581D01*
X0511787Y0024567D01*
X0511848Y0024558D01*
X0511909Y0024552D01*
X0511971Y0024550D01*
X0513282Y0024550D01*
X0515695Y0025861D02*
X0515695Y0027172D01*
X0515696Y0027172D02*
X0515698Y0027243D01*
X0515704Y0027314D01*
X0515713Y0027384D01*
X0515727Y0027454D01*
X0515744Y0027523D01*
X0515765Y0027591D01*
X0515789Y0027657D01*
X0515817Y0027722D01*
X0515849Y0027786D01*
X0515884Y0027848D01*
X0515922Y0027908D01*
X0515963Y0027965D01*
X0516008Y0028021D01*
X0516055Y0028074D01*
X0516105Y0028124D01*
X0516158Y0028171D01*
X0516214Y0028216D01*
X0516271Y0028257D01*
X0516331Y0028295D01*
X0516393Y0028330D01*
X0516457Y0028362D01*
X0516522Y0028390D01*
X0516588Y0028414D01*
X0516656Y0028435D01*
X0516725Y0028452D01*
X0516795Y0028466D01*
X0516865Y0028475D01*
X0516936Y0028481D01*
X0517007Y0028483D01*
X0517078Y0028481D01*
X0517149Y0028475D01*
X0517219Y0028466D01*
X0517289Y0028452D01*
X0517358Y0028435D01*
X0517426Y0028414D01*
X0517492Y0028390D01*
X0517557Y0028362D01*
X0517621Y0028330D01*
X0517683Y0028295D01*
X0517743Y0028257D01*
X0517800Y0028216D01*
X0517856Y0028171D01*
X0517909Y0028124D01*
X0517959Y0028074D01*
X0518006Y0028021D01*
X0518051Y0027965D01*
X0518092Y0027908D01*
X0518130Y0027848D01*
X0518165Y0027786D01*
X0518197Y0027722D01*
X0518225Y0027657D01*
X0518249Y0027591D01*
X0518270Y0027523D01*
X0518287Y0027454D01*
X0518301Y0027384D01*
X0518310Y0027314D01*
X0518316Y0027243D01*
X0518318Y0027172D01*
X0518318Y0025861D01*
X0518316Y0025790D01*
X0518310Y0025719D01*
X0518301Y0025649D01*
X0518287Y0025579D01*
X0518270Y0025510D01*
X0518249Y0025442D01*
X0518225Y0025376D01*
X0518197Y0025311D01*
X0518165Y0025247D01*
X0518130Y0025185D01*
X0518092Y0025125D01*
X0518051Y0025068D01*
X0518006Y0025012D01*
X0517959Y0024959D01*
X0517909Y0024909D01*
X0517856Y0024862D01*
X0517800Y0024817D01*
X0517743Y0024776D01*
X0517683Y0024738D01*
X0517621Y0024703D01*
X0517557Y0024671D01*
X0517492Y0024643D01*
X0517426Y0024619D01*
X0517358Y0024598D01*
X0517289Y0024581D01*
X0517219Y0024567D01*
X0517149Y0024558D01*
X0517078Y0024552D01*
X0517007Y0024550D01*
X0516936Y0024552D01*
X0516865Y0024558D01*
X0516795Y0024567D01*
X0516725Y0024581D01*
X0516656Y0024598D01*
X0516588Y0024619D01*
X0516522Y0024643D01*
X0516457Y0024671D01*
X0516393Y0024703D01*
X0516331Y0024738D01*
X0516271Y0024776D01*
X0516214Y0024817D01*
X0516158Y0024862D01*
X0516105Y0024909D01*
X0516055Y0024959D01*
X0516008Y0025012D01*
X0515963Y0025068D01*
X0515922Y0025125D01*
X0515884Y0025185D01*
X0515849Y0025247D01*
X0515817Y0025311D01*
X0515789Y0025376D01*
X0515765Y0025442D01*
X0515744Y0025510D01*
X0515727Y0025579D01*
X0515713Y0025649D01*
X0515704Y0025719D01*
X0515698Y0025790D01*
X0515696Y0025861D01*
X0513282Y0028483D02*
X0511971Y0028483D01*
X0511909Y0028481D01*
X0511848Y0028475D01*
X0511787Y0028466D01*
X0511727Y0028452D01*
X0511667Y0028435D01*
X0511609Y0028414D01*
X0511552Y0028389D01*
X0511497Y0028361D01*
X0511444Y0028330D01*
X0511393Y0028295D01*
X0511344Y0028257D01*
X0511298Y0028217D01*
X0511254Y0028173D01*
X0511214Y0028127D01*
X0511176Y0028078D01*
X0511141Y0028027D01*
X0511110Y0027974D01*
X0511082Y0027919D01*
X0511057Y0027862D01*
X0511036Y0027804D01*
X0511019Y0027744D01*
X0511005Y0027684D01*
X0510996Y0027623D01*
X0510990Y0027562D01*
X0510988Y0027500D01*
X0502768Y0026844D02*
X0498834Y0026844D01*
X0496163Y0028483D02*
X0494852Y0024550D01*
X0493541Y0028483D01*
X0521284Y0028483D02*
X0521284Y0024550D01*
X0523251Y0027828D02*
X0523251Y0028483D01*
X0521284Y0028483D01*
X0525337Y0027172D02*
X0525337Y0025533D01*
X0525339Y0025471D01*
X0525345Y0025410D01*
X0525354Y0025349D01*
X0525368Y0025289D01*
X0525385Y0025229D01*
X0525406Y0025171D01*
X0525431Y0025114D01*
X0525459Y0025059D01*
X0525490Y0025006D01*
X0525525Y0024955D01*
X0525563Y0024906D01*
X0525603Y0024860D01*
X0525647Y0024816D01*
X0525693Y0024776D01*
X0525742Y0024738D01*
X0525793Y0024703D01*
X0525846Y0024672D01*
X0525901Y0024644D01*
X0525958Y0024619D01*
X0526016Y0024598D01*
X0526076Y0024581D01*
X0526136Y0024567D01*
X0526197Y0024558D01*
X0526258Y0024552D01*
X0526320Y0024550D01*
X0527959Y0024550D01*
X0527959Y0026517D02*
X0525337Y0026517D01*
X0525337Y0027172D02*
X0525339Y0027243D01*
X0525345Y0027314D01*
X0525354Y0027384D01*
X0525368Y0027454D01*
X0525385Y0027523D01*
X0525406Y0027591D01*
X0525430Y0027657D01*
X0525458Y0027722D01*
X0525490Y0027786D01*
X0525525Y0027848D01*
X0525563Y0027908D01*
X0525604Y0027965D01*
X0525649Y0028021D01*
X0525696Y0028074D01*
X0525746Y0028124D01*
X0525799Y0028171D01*
X0525855Y0028216D01*
X0525912Y0028257D01*
X0525972Y0028295D01*
X0526034Y0028330D01*
X0526098Y0028362D01*
X0526163Y0028390D01*
X0526229Y0028414D01*
X0526297Y0028435D01*
X0526366Y0028452D01*
X0526436Y0028466D01*
X0526506Y0028475D01*
X0526577Y0028481D01*
X0526648Y0028483D01*
X0526719Y0028481D01*
X0526790Y0028475D01*
X0526860Y0028466D01*
X0526930Y0028452D01*
X0526999Y0028435D01*
X0527067Y0028414D01*
X0527133Y0028390D01*
X0527198Y0028362D01*
X0527262Y0028330D01*
X0527324Y0028295D01*
X0527384Y0028257D01*
X0527441Y0028216D01*
X0527497Y0028171D01*
X0527550Y0028124D01*
X0527600Y0028074D01*
X0527647Y0028021D01*
X0527692Y0027965D01*
X0527733Y0027908D01*
X0527771Y0027848D01*
X0527806Y0027786D01*
X0527838Y0027722D01*
X0527866Y0027657D01*
X0527890Y0027591D01*
X0527911Y0027523D01*
X0527928Y0027454D01*
X0527942Y0027384D01*
X0527951Y0027314D01*
X0527957Y0027243D01*
X0527959Y0027172D01*
X0527959Y0026517D01*
X0527959Y0246550D02*
X0526320Y0246550D01*
X0526258Y0246552D01*
X0526197Y0246558D01*
X0526136Y0246567D01*
X0526076Y0246581D01*
X0526016Y0246598D01*
X0525958Y0246619D01*
X0525901Y0246644D01*
X0525846Y0246672D01*
X0525793Y0246703D01*
X0525742Y0246738D01*
X0525693Y0246776D01*
X0525647Y0246816D01*
X0525603Y0246860D01*
X0525563Y0246906D01*
X0525525Y0246955D01*
X0525490Y0247006D01*
X0525459Y0247059D01*
X0525431Y0247114D01*
X0525406Y0247171D01*
X0525385Y0247229D01*
X0525368Y0247289D01*
X0525354Y0247349D01*
X0525345Y0247410D01*
X0525339Y0247471D01*
X0525337Y0247533D01*
X0525337Y0249172D01*
X0525337Y0248517D02*
X0527959Y0248517D01*
X0527959Y0249172D01*
X0527957Y0249243D01*
X0527951Y0249314D01*
X0527942Y0249384D01*
X0527928Y0249454D01*
X0527911Y0249523D01*
X0527890Y0249591D01*
X0527866Y0249657D01*
X0527838Y0249722D01*
X0527806Y0249786D01*
X0527771Y0249848D01*
X0527733Y0249908D01*
X0527692Y0249965D01*
X0527647Y0250021D01*
X0527600Y0250074D01*
X0527550Y0250124D01*
X0527497Y0250171D01*
X0527441Y0250216D01*
X0527384Y0250257D01*
X0527324Y0250295D01*
X0527262Y0250330D01*
X0527198Y0250362D01*
X0527133Y0250390D01*
X0527067Y0250414D01*
X0526999Y0250435D01*
X0526930Y0250452D01*
X0526860Y0250466D01*
X0526790Y0250475D01*
X0526719Y0250481D01*
X0526648Y0250483D01*
X0526577Y0250481D01*
X0526506Y0250475D01*
X0526436Y0250466D01*
X0526366Y0250452D01*
X0526297Y0250435D01*
X0526229Y0250414D01*
X0526163Y0250390D01*
X0526098Y0250362D01*
X0526034Y0250330D01*
X0525972Y0250295D01*
X0525912Y0250257D01*
X0525855Y0250216D01*
X0525799Y0250171D01*
X0525746Y0250124D01*
X0525696Y0250074D01*
X0525649Y0250021D01*
X0525604Y0249965D01*
X0525563Y0249908D01*
X0525525Y0249848D01*
X0525490Y0249786D01*
X0525458Y0249722D01*
X0525430Y0249657D01*
X0525406Y0249591D01*
X0525385Y0249523D01*
X0525368Y0249454D01*
X0525354Y0249384D01*
X0525345Y0249314D01*
X0525339Y0249243D01*
X0525337Y0249172D01*
X0523251Y0249828D02*
X0523251Y0250483D01*
X0521284Y0250483D01*
X0521284Y0246550D01*
X0518318Y0247861D02*
X0518318Y0249172D01*
X0518316Y0249243D01*
X0518310Y0249314D01*
X0518301Y0249384D01*
X0518287Y0249454D01*
X0518270Y0249523D01*
X0518249Y0249591D01*
X0518225Y0249657D01*
X0518197Y0249722D01*
X0518165Y0249786D01*
X0518130Y0249848D01*
X0518092Y0249908D01*
X0518051Y0249965D01*
X0518006Y0250021D01*
X0517959Y0250074D01*
X0517909Y0250124D01*
X0517856Y0250171D01*
X0517800Y0250216D01*
X0517743Y0250257D01*
X0517683Y0250295D01*
X0517621Y0250330D01*
X0517557Y0250362D01*
X0517492Y0250390D01*
X0517426Y0250414D01*
X0517358Y0250435D01*
X0517289Y0250452D01*
X0517219Y0250466D01*
X0517149Y0250475D01*
X0517078Y0250481D01*
X0517007Y0250483D01*
X0516936Y0250481D01*
X0516865Y0250475D01*
X0516795Y0250466D01*
X0516725Y0250452D01*
X0516656Y0250435D01*
X0516588Y0250414D01*
X0516522Y0250390D01*
X0516457Y0250362D01*
X0516393Y0250330D01*
X0516331Y0250295D01*
X0516271Y0250257D01*
X0516214Y0250216D01*
X0516158Y0250171D01*
X0516105Y0250124D01*
X0516055Y0250074D01*
X0516008Y0250021D01*
X0515963Y0249965D01*
X0515922Y0249908D01*
X0515884Y0249848D01*
X0515849Y0249786D01*
X0515817Y0249722D01*
X0515789Y0249657D01*
X0515765Y0249591D01*
X0515744Y0249523D01*
X0515727Y0249454D01*
X0515713Y0249384D01*
X0515704Y0249314D01*
X0515698Y0249243D01*
X0515696Y0249172D01*
X0515695Y0249172D02*
X0515695Y0247861D01*
X0515696Y0247861D02*
X0515698Y0247790D01*
X0515704Y0247719D01*
X0515713Y0247649D01*
X0515727Y0247579D01*
X0515744Y0247510D01*
X0515765Y0247442D01*
X0515789Y0247376D01*
X0515817Y0247311D01*
X0515849Y0247247D01*
X0515884Y0247185D01*
X0515922Y0247125D01*
X0515963Y0247068D01*
X0516008Y0247012D01*
X0516055Y0246959D01*
X0516105Y0246909D01*
X0516158Y0246862D01*
X0516214Y0246817D01*
X0516271Y0246776D01*
X0516331Y0246738D01*
X0516393Y0246703D01*
X0516457Y0246671D01*
X0516522Y0246643D01*
X0516588Y0246619D01*
X0516656Y0246598D01*
X0516725Y0246581D01*
X0516795Y0246567D01*
X0516865Y0246558D01*
X0516936Y0246552D01*
X0517007Y0246550D01*
X0517078Y0246552D01*
X0517149Y0246558D01*
X0517219Y0246567D01*
X0517289Y0246581D01*
X0517358Y0246598D01*
X0517426Y0246619D01*
X0517492Y0246643D01*
X0517557Y0246671D01*
X0517621Y0246703D01*
X0517683Y0246738D01*
X0517743Y0246776D01*
X0517800Y0246817D01*
X0517856Y0246862D01*
X0517909Y0246909D01*
X0517959Y0246959D01*
X0518006Y0247012D01*
X0518051Y0247068D01*
X0518092Y0247125D01*
X0518130Y0247185D01*
X0518165Y0247247D01*
X0518197Y0247311D01*
X0518225Y0247376D01*
X0518249Y0247442D01*
X0518270Y0247510D01*
X0518287Y0247579D01*
X0518301Y0247649D01*
X0518310Y0247719D01*
X0518316Y0247790D01*
X0518318Y0247861D01*
X0513282Y0246550D02*
X0511971Y0246550D01*
X0511909Y0246552D01*
X0511848Y0246558D01*
X0511787Y0246567D01*
X0511727Y0246581D01*
X0511667Y0246598D01*
X0511609Y0246619D01*
X0511552Y0246644D01*
X0511497Y0246672D01*
X0511444Y0246703D01*
X0511393Y0246738D01*
X0511344Y0246776D01*
X0511298Y0246816D01*
X0511254Y0246860D01*
X0511214Y0246906D01*
X0511176Y0246955D01*
X0511141Y0247006D01*
X0511110Y0247059D01*
X0511082Y0247114D01*
X0511057Y0247171D01*
X0511036Y0247229D01*
X0511019Y0247289D01*
X0511005Y0247349D01*
X0510996Y0247410D01*
X0510990Y0247471D01*
X0510988Y0247533D01*
X0510988Y0249500D01*
X0510990Y0249562D01*
X0510996Y0249623D01*
X0511005Y0249684D01*
X0511019Y0249744D01*
X0511036Y0249804D01*
X0511057Y0249862D01*
X0511082Y0249919D01*
X0511110Y0249974D01*
X0511141Y0250027D01*
X0511176Y0250078D01*
X0511214Y0250127D01*
X0511254Y0250173D01*
X0511298Y0250217D01*
X0511344Y0250257D01*
X0511393Y0250295D01*
X0511444Y0250330D01*
X0511497Y0250361D01*
X0511552Y0250389D01*
X0511609Y0250414D01*
X0511667Y0250435D01*
X0511727Y0250452D01*
X0511787Y0250466D01*
X0511848Y0250475D01*
X0511909Y0250481D01*
X0511971Y0250483D01*
X0513282Y0250483D01*
X0507774Y0248189D02*
X0506136Y0248844D01*
X0506135Y0248845D02*
X0506083Y0248868D01*
X0506032Y0248895D01*
X0505983Y0248925D01*
X0505936Y0248958D01*
X0505891Y0248994D01*
X0505849Y0249034D01*
X0505810Y0249076D01*
X0505774Y0249120D01*
X0505741Y0249167D01*
X0505711Y0249217D01*
X0505684Y0249268D01*
X0505661Y0249320D01*
X0505642Y0249374D01*
X0505626Y0249430D01*
X0505614Y0249486D01*
X0505606Y0249543D01*
X0505602Y0249600D01*
X0505601Y0249658D01*
X0505605Y0249715D01*
X0505612Y0249772D01*
X0505624Y0249829D01*
X0505639Y0249884D01*
X0505657Y0249939D01*
X0505680Y0249992D01*
X0505706Y0250043D01*
X0505735Y0250092D01*
X0505768Y0250140D01*
X0505804Y0250185D01*
X0505842Y0250227D01*
X0505884Y0250267D01*
X0505928Y0250304D01*
X0505975Y0250338D01*
X0506023Y0250369D01*
X0506074Y0250396D01*
X0506126Y0250420D01*
X0506180Y0250440D01*
X0506235Y0250456D01*
X0506291Y0250469D01*
X0506348Y0250478D01*
X0506406Y0250483D01*
X0506463Y0250484D01*
X0505644Y0246878D02*
X0505778Y0246832D01*
X0505913Y0246789D01*
X0506049Y0246750D01*
X0506186Y0246714D01*
X0506323Y0246682D01*
X0506462Y0246653D01*
X0506601Y0246627D01*
X0506741Y0246606D01*
X0506882Y0246587D01*
X0507022Y0246573D01*
X0507164Y0246562D01*
X0507305Y0246554D01*
X0507447Y0246551D01*
X0507447Y0246550D02*
X0507504Y0246551D01*
X0507562Y0246556D01*
X0507619Y0246565D01*
X0507675Y0246578D01*
X0507730Y0246594D01*
X0507784Y0246614D01*
X0507836Y0246638D01*
X0507887Y0246665D01*
X0507935Y0246696D01*
X0507982Y0246730D01*
X0508026Y0246767D01*
X0508068Y0246807D01*
X0508106Y0246849D01*
X0508142Y0246894D01*
X0508175Y0246942D01*
X0508204Y0246991D01*
X0508230Y0247042D01*
X0508253Y0247095D01*
X0508271Y0247150D01*
X0508286Y0247205D01*
X0508298Y0247262D01*
X0508305Y0247319D01*
X0508309Y0247376D01*
X0508308Y0247434D01*
X0508304Y0247491D01*
X0508296Y0247548D01*
X0508284Y0247604D01*
X0508268Y0247660D01*
X0508249Y0247714D01*
X0508226Y0247766D01*
X0508199Y0247817D01*
X0508169Y0247867D01*
X0508136Y0247914D01*
X0508100Y0247958D01*
X0508061Y0248000D01*
X0508019Y0248040D01*
X0507974Y0248076D01*
X0507927Y0248109D01*
X0507878Y0248139D01*
X0507827Y0248166D01*
X0507775Y0248189D01*
X0507938Y0250155D02*
X0507831Y0250201D01*
X0507722Y0250244D01*
X0507612Y0250284D01*
X0507500Y0250320D01*
X0507388Y0250352D01*
X0507274Y0250381D01*
X0507160Y0250407D01*
X0507045Y0250428D01*
X0506930Y0250447D01*
X0506813Y0250461D01*
X0506697Y0250472D01*
X0506580Y0250479D01*
X0506463Y0250483D01*
X0502768Y0248844D02*
X0498834Y0248844D01*
X0496163Y0250483D02*
X0494852Y0246550D01*
X0493541Y0250483D01*
X0425200Y0339045D02*
X0419300Y0339045D01*
X0419300Y0340684D01*
X0419302Y0340763D01*
X0419308Y0340842D01*
X0419317Y0340921D01*
X0419331Y0340999D01*
X0419348Y0341076D01*
X0419368Y0341153D01*
X0419393Y0341228D01*
X0419421Y0341302D01*
X0419453Y0341375D01*
X0419488Y0341446D01*
X0419526Y0341515D01*
X0419568Y0341582D01*
X0419613Y0341647D01*
X0419661Y0341710D01*
X0419712Y0341771D01*
X0419766Y0341829D01*
X0419823Y0341884D01*
X0419882Y0341937D01*
X0419944Y0341986D01*
X0420008Y0342033D01*
X0420074Y0342076D01*
X0420142Y0342116D01*
X0420213Y0342153D01*
X0420284Y0342187D01*
X0420358Y0342216D01*
X0420433Y0342243D01*
X0420508Y0342265D01*
X0420585Y0342284D01*
X0420663Y0342300D01*
X0420741Y0342311D01*
X0420820Y0342319D01*
X0420899Y0342323D01*
X0420979Y0342323D01*
X0421058Y0342319D01*
X0421137Y0342311D01*
X0421215Y0342300D01*
X0421293Y0342284D01*
X0421370Y0342265D01*
X0421445Y0342243D01*
X0421520Y0342216D01*
X0421594Y0342187D01*
X0421665Y0342153D01*
X0421736Y0342116D01*
X0421804Y0342076D01*
X0421870Y0342033D01*
X0421934Y0341986D01*
X0421996Y0341937D01*
X0422055Y0341884D01*
X0422112Y0341829D01*
X0422166Y0341771D01*
X0422217Y0341710D01*
X0422265Y0341647D01*
X0422310Y0341582D01*
X0422352Y0341515D01*
X0422390Y0341446D01*
X0422425Y0341375D01*
X0422457Y0341302D01*
X0422485Y0341228D01*
X0422510Y0341153D01*
X0422530Y0341076D01*
X0422547Y0340999D01*
X0422561Y0340921D01*
X0422570Y0340842D01*
X0422576Y0340763D01*
X0422578Y0340684D01*
X0422578Y0339045D01*
X0422578Y0341012D02*
X0425200Y0342323D01*
X0423889Y0345062D02*
X0422578Y0345062D01*
X0422507Y0345064D01*
X0422436Y0345070D01*
X0422366Y0345079D01*
X0422296Y0345093D01*
X0422227Y0345110D01*
X0422159Y0345131D01*
X0422093Y0345155D01*
X0422028Y0345183D01*
X0421964Y0345215D01*
X0421902Y0345250D01*
X0421842Y0345288D01*
X0421785Y0345329D01*
X0421729Y0345374D01*
X0421676Y0345421D01*
X0421626Y0345471D01*
X0421579Y0345524D01*
X0421534Y0345580D01*
X0421493Y0345637D01*
X0421455Y0345697D01*
X0421420Y0345759D01*
X0421388Y0345823D01*
X0421360Y0345888D01*
X0421336Y0345954D01*
X0421315Y0346022D01*
X0421298Y0346091D01*
X0421284Y0346161D01*
X0421275Y0346231D01*
X0421269Y0346302D01*
X0421267Y0346373D01*
X0421269Y0346444D01*
X0421275Y0346515D01*
X0421284Y0346585D01*
X0421298Y0346655D01*
X0421315Y0346724D01*
X0421336Y0346792D01*
X0421360Y0346858D01*
X0421388Y0346923D01*
X0421420Y0346987D01*
X0421455Y0347049D01*
X0421493Y0347109D01*
X0421534Y0347166D01*
X0421579Y0347222D01*
X0421626Y0347275D01*
X0421676Y0347325D01*
X0421729Y0347372D01*
X0421785Y0347417D01*
X0421842Y0347458D01*
X0421902Y0347496D01*
X0421964Y0347531D01*
X0422028Y0347563D01*
X0422093Y0347591D01*
X0422159Y0347615D01*
X0422227Y0347636D01*
X0422296Y0347653D01*
X0422366Y0347667D01*
X0422436Y0347676D01*
X0422507Y0347682D01*
X0422578Y0347684D01*
X0423889Y0347684D01*
X0423960Y0347682D01*
X0424031Y0347676D01*
X0424101Y0347667D01*
X0424171Y0347653D01*
X0424240Y0347636D01*
X0424308Y0347615D01*
X0424374Y0347591D01*
X0424439Y0347563D01*
X0424503Y0347531D01*
X0424565Y0347496D01*
X0424625Y0347458D01*
X0424682Y0347417D01*
X0424738Y0347372D01*
X0424791Y0347325D01*
X0424841Y0347275D01*
X0424888Y0347222D01*
X0424933Y0347166D01*
X0424974Y0347109D01*
X0425012Y0347049D01*
X0425047Y0346987D01*
X0425079Y0346923D01*
X0425107Y0346858D01*
X0425131Y0346792D01*
X0425152Y0346724D01*
X0425169Y0346655D01*
X0425183Y0346585D01*
X0425192Y0346515D01*
X0425198Y0346444D01*
X0425200Y0346373D01*
X0425198Y0346302D01*
X0425192Y0346231D01*
X0425183Y0346161D01*
X0425169Y0346091D01*
X0425152Y0346022D01*
X0425131Y0345954D01*
X0425107Y0345888D01*
X0425079Y0345823D01*
X0425047Y0345759D01*
X0425012Y0345697D01*
X0424974Y0345637D01*
X0424933Y0345580D01*
X0424888Y0345524D01*
X0424841Y0345471D01*
X0424791Y0345421D01*
X0424738Y0345374D01*
X0424682Y0345329D01*
X0424625Y0345288D01*
X0424565Y0345250D01*
X0424503Y0345215D01*
X0424439Y0345183D01*
X0424374Y0345155D01*
X0424308Y0345131D01*
X0424240Y0345110D01*
X0424171Y0345093D01*
X0424101Y0345079D01*
X0424031Y0345070D01*
X0423960Y0345064D01*
X0423889Y0345062D01*
X0424217Y0350601D02*
X0421267Y0350601D01*
X0421267Y0353223D02*
X0425200Y0353223D01*
X0425200Y0351584D01*
X0425198Y0351522D01*
X0425192Y0351461D01*
X0425183Y0351400D01*
X0425169Y0351340D01*
X0425152Y0351280D01*
X0425131Y0351222D01*
X0425106Y0351165D01*
X0425078Y0351110D01*
X0425047Y0351057D01*
X0425012Y0351006D01*
X0424974Y0350957D01*
X0424934Y0350911D01*
X0424890Y0350867D01*
X0424844Y0350827D01*
X0424795Y0350789D01*
X0424744Y0350754D01*
X0424691Y0350723D01*
X0424636Y0350695D01*
X0424579Y0350670D01*
X0424521Y0350649D01*
X0424461Y0350632D01*
X0424401Y0350618D01*
X0424340Y0350609D01*
X0424279Y0350603D01*
X0424217Y0350601D01*
X0424217Y0356233D02*
X0419300Y0356233D01*
X0421267Y0355578D02*
X0421267Y0357544D01*
X0422578Y0360037D02*
X0424217Y0360037D01*
X0424279Y0360039D01*
X0424340Y0360045D01*
X0424401Y0360054D01*
X0424461Y0360068D01*
X0424521Y0360085D01*
X0424579Y0360106D01*
X0424636Y0360131D01*
X0424691Y0360159D01*
X0424744Y0360190D01*
X0424795Y0360225D01*
X0424844Y0360263D01*
X0424890Y0360303D01*
X0424934Y0360347D01*
X0424974Y0360393D01*
X0425012Y0360442D01*
X0425047Y0360493D01*
X0425078Y0360546D01*
X0425106Y0360601D01*
X0425131Y0360658D01*
X0425152Y0360716D01*
X0425169Y0360776D01*
X0425183Y0360836D01*
X0425192Y0360897D01*
X0425198Y0360958D01*
X0425200Y0361020D01*
X0425200Y0362659D01*
X0423233Y0362659D02*
X0423233Y0360037D01*
X0422578Y0360037D02*
X0422507Y0360039D01*
X0422436Y0360045D01*
X0422366Y0360054D01*
X0422296Y0360068D01*
X0422227Y0360085D01*
X0422159Y0360106D01*
X0422093Y0360130D01*
X0422028Y0360158D01*
X0421964Y0360190D01*
X0421902Y0360225D01*
X0421842Y0360263D01*
X0421785Y0360304D01*
X0421729Y0360349D01*
X0421676Y0360396D01*
X0421626Y0360446D01*
X0421579Y0360499D01*
X0421534Y0360555D01*
X0421493Y0360612D01*
X0421455Y0360672D01*
X0421420Y0360734D01*
X0421388Y0360798D01*
X0421360Y0360863D01*
X0421336Y0360929D01*
X0421315Y0360997D01*
X0421298Y0361066D01*
X0421284Y0361136D01*
X0421275Y0361206D01*
X0421269Y0361277D01*
X0421267Y0361348D01*
X0421269Y0361419D01*
X0421275Y0361490D01*
X0421284Y0361560D01*
X0421298Y0361630D01*
X0421315Y0361699D01*
X0421336Y0361767D01*
X0421360Y0361833D01*
X0421388Y0361898D01*
X0421420Y0361962D01*
X0421455Y0362024D01*
X0421493Y0362084D01*
X0421534Y0362141D01*
X0421579Y0362197D01*
X0421626Y0362250D01*
X0421676Y0362300D01*
X0421729Y0362347D01*
X0421785Y0362392D01*
X0421842Y0362433D01*
X0421902Y0362471D01*
X0421964Y0362506D01*
X0422028Y0362538D01*
X0422093Y0362566D01*
X0422159Y0362590D01*
X0422227Y0362611D01*
X0422296Y0362628D01*
X0422366Y0362642D01*
X0422436Y0362651D01*
X0422507Y0362657D01*
X0422578Y0362659D01*
X0423233Y0362659D01*
X0425200Y0357544D02*
X0425200Y0357216D01*
X0425198Y0357154D01*
X0425192Y0357093D01*
X0425183Y0357032D01*
X0425169Y0356972D01*
X0425152Y0356912D01*
X0425131Y0356854D01*
X0425106Y0356797D01*
X0425078Y0356742D01*
X0425047Y0356689D01*
X0425012Y0356638D01*
X0424974Y0356589D01*
X0424934Y0356543D01*
X0424890Y0356499D01*
X0424844Y0356459D01*
X0424795Y0356421D01*
X0424744Y0356386D01*
X0424691Y0356355D01*
X0424636Y0356327D01*
X0424579Y0356302D01*
X0424521Y0356281D01*
X0424461Y0356264D01*
X0424401Y0356250D01*
X0424340Y0356241D01*
X0424279Y0356235D01*
X0424217Y0356233D01*
X0423561Y0368735D02*
X0420939Y0368735D01*
X0420860Y0368737D01*
X0420781Y0368743D01*
X0420702Y0368752D01*
X0420624Y0368766D01*
X0420547Y0368783D01*
X0420470Y0368803D01*
X0420395Y0368828D01*
X0420321Y0368856D01*
X0420248Y0368888D01*
X0420177Y0368923D01*
X0420108Y0368961D01*
X0420041Y0369003D01*
X0419976Y0369048D01*
X0419913Y0369096D01*
X0419852Y0369147D01*
X0419794Y0369201D01*
X0419739Y0369258D01*
X0419686Y0369317D01*
X0419637Y0369379D01*
X0419590Y0369443D01*
X0419547Y0369509D01*
X0419507Y0369577D01*
X0419470Y0369648D01*
X0419436Y0369719D01*
X0419407Y0369793D01*
X0419380Y0369868D01*
X0419358Y0369943D01*
X0419339Y0370020D01*
X0419323Y0370098D01*
X0419312Y0370176D01*
X0419304Y0370255D01*
X0419300Y0370334D01*
X0419300Y0370414D01*
X0419304Y0370493D01*
X0419312Y0370572D01*
X0419323Y0370650D01*
X0419339Y0370728D01*
X0419358Y0370805D01*
X0419380Y0370880D01*
X0419407Y0370955D01*
X0419436Y0371029D01*
X0419470Y0371100D01*
X0419507Y0371171D01*
X0419547Y0371239D01*
X0419590Y0371305D01*
X0419637Y0371369D01*
X0419686Y0371431D01*
X0419739Y0371490D01*
X0419794Y0371547D01*
X0419852Y0371601D01*
X0419913Y0371652D01*
X0419976Y0371700D01*
X0420041Y0371745D01*
X0420108Y0371787D01*
X0420177Y0371825D01*
X0420248Y0371860D01*
X0420321Y0371892D01*
X0420395Y0371920D01*
X0420470Y0371945D01*
X0420547Y0371965D01*
X0420624Y0371982D01*
X0420702Y0371996D01*
X0420781Y0372005D01*
X0420860Y0372011D01*
X0420939Y0372013D01*
X0423561Y0372013D01*
X0423640Y0372011D01*
X0423719Y0372005D01*
X0423798Y0371996D01*
X0423876Y0371982D01*
X0423953Y0371965D01*
X0424030Y0371945D01*
X0424105Y0371920D01*
X0424179Y0371892D01*
X0424252Y0371860D01*
X0424323Y0371825D01*
X0424392Y0371787D01*
X0424459Y0371745D01*
X0424524Y0371700D01*
X0424587Y0371652D01*
X0424648Y0371601D01*
X0424706Y0371547D01*
X0424761Y0371490D01*
X0424814Y0371431D01*
X0424863Y0371369D01*
X0424910Y0371305D01*
X0424953Y0371239D01*
X0424993Y0371171D01*
X0425030Y0371100D01*
X0425064Y0371029D01*
X0425093Y0370955D01*
X0425120Y0370880D01*
X0425142Y0370805D01*
X0425161Y0370728D01*
X0425177Y0370650D01*
X0425188Y0370572D01*
X0425196Y0370493D01*
X0425200Y0370414D01*
X0425200Y0370334D01*
X0425196Y0370255D01*
X0425188Y0370176D01*
X0425177Y0370098D01*
X0425161Y0370020D01*
X0425142Y0369943D01*
X0425120Y0369868D01*
X0425093Y0369793D01*
X0425064Y0369719D01*
X0425030Y0369648D01*
X0424993Y0369577D01*
X0424953Y0369509D01*
X0424910Y0369443D01*
X0424863Y0369379D01*
X0424814Y0369317D01*
X0424761Y0369258D01*
X0424706Y0369201D01*
X0424648Y0369147D01*
X0424587Y0369096D01*
X0424524Y0369048D01*
X0424459Y0369003D01*
X0424392Y0368961D01*
X0424323Y0368923D01*
X0424252Y0368888D01*
X0424179Y0368856D01*
X0424105Y0368828D01*
X0424030Y0368803D01*
X0423953Y0368783D01*
X0423876Y0368766D01*
X0423798Y0368752D01*
X0423719Y0368743D01*
X0423640Y0368737D01*
X0423561Y0368735D01*
X0424217Y0375012D02*
X0421267Y0375012D01*
X0421267Y0377634D02*
X0425200Y0377634D01*
X0425200Y0375995D01*
X0425198Y0375933D01*
X0425192Y0375872D01*
X0425183Y0375811D01*
X0425169Y0375751D01*
X0425152Y0375691D01*
X0425131Y0375633D01*
X0425106Y0375576D01*
X0425078Y0375521D01*
X0425047Y0375468D01*
X0425012Y0375417D01*
X0424974Y0375368D01*
X0424934Y0375322D01*
X0424890Y0375278D01*
X0424844Y0375238D01*
X0424795Y0375200D01*
X0424744Y0375165D01*
X0424691Y0375134D01*
X0424636Y0375106D01*
X0424579Y0375081D01*
X0424521Y0375060D01*
X0424461Y0375043D01*
X0424401Y0375029D01*
X0424340Y0375020D01*
X0424279Y0375014D01*
X0424217Y0375012D01*
X0424217Y0380644D02*
X0419300Y0380644D01*
X0421267Y0379988D02*
X0421267Y0381955D01*
X0424217Y0380644D02*
X0424279Y0380646D01*
X0424340Y0380652D01*
X0424401Y0380661D01*
X0424461Y0380675D01*
X0424521Y0380692D01*
X0424579Y0380713D01*
X0424636Y0380738D01*
X0424691Y0380766D01*
X0424744Y0380797D01*
X0424795Y0380832D01*
X0424844Y0380870D01*
X0424890Y0380910D01*
X0424934Y0380954D01*
X0424974Y0381000D01*
X0425012Y0381049D01*
X0425047Y0381100D01*
X0425078Y0381153D01*
X0425106Y0381208D01*
X0425131Y0381265D01*
X0425152Y0381323D01*
X0425169Y0381383D01*
X0425183Y0381443D01*
X0425192Y0381504D01*
X0425198Y0381565D01*
X0425200Y0381627D01*
X0425200Y0381955D01*
X0494852Y0468550D02*
X0496163Y0472483D01*
X0493541Y0472483D02*
X0494852Y0468550D01*
X0498834Y0470844D02*
X0502768Y0470844D01*
X0506136Y0470844D02*
X0507774Y0470189D01*
X0507775Y0470189D02*
X0507827Y0470166D01*
X0507878Y0470139D01*
X0507927Y0470109D01*
X0507974Y0470076D01*
X0508019Y0470040D01*
X0508061Y0470000D01*
X0508100Y0469958D01*
X0508136Y0469914D01*
X0508169Y0469867D01*
X0508199Y0469817D01*
X0508226Y0469766D01*
X0508249Y0469714D01*
X0508268Y0469660D01*
X0508284Y0469604D01*
X0508296Y0469548D01*
X0508304Y0469491D01*
X0508308Y0469434D01*
X0508309Y0469376D01*
X0508305Y0469319D01*
X0508298Y0469262D01*
X0508286Y0469205D01*
X0508271Y0469150D01*
X0508253Y0469095D01*
X0508230Y0469042D01*
X0508204Y0468991D01*
X0508175Y0468942D01*
X0508142Y0468894D01*
X0508106Y0468849D01*
X0508068Y0468807D01*
X0508026Y0468767D01*
X0507982Y0468730D01*
X0507935Y0468696D01*
X0507887Y0468665D01*
X0507836Y0468638D01*
X0507784Y0468614D01*
X0507730Y0468594D01*
X0507675Y0468578D01*
X0507619Y0468565D01*
X0507562Y0468556D01*
X0507504Y0468551D01*
X0507447Y0468550D01*
X0507938Y0472155D02*
X0507831Y0472201D01*
X0507722Y0472244D01*
X0507612Y0472284D01*
X0507500Y0472320D01*
X0507388Y0472352D01*
X0507274Y0472381D01*
X0507160Y0472407D01*
X0507045Y0472428D01*
X0506930Y0472447D01*
X0506813Y0472461D01*
X0506697Y0472472D01*
X0506580Y0472479D01*
X0506463Y0472483D01*
X0506463Y0472484D02*
X0506406Y0472483D01*
X0506348Y0472478D01*
X0506291Y0472469D01*
X0506235Y0472456D01*
X0506180Y0472440D01*
X0506126Y0472420D01*
X0506074Y0472396D01*
X0506023Y0472369D01*
X0505975Y0472338D01*
X0505928Y0472304D01*
X0505884Y0472267D01*
X0505842Y0472227D01*
X0505804Y0472185D01*
X0505768Y0472140D01*
X0505735Y0472092D01*
X0505706Y0472043D01*
X0505680Y0471992D01*
X0505657Y0471939D01*
X0505639Y0471884D01*
X0505624Y0471829D01*
X0505612Y0471772D01*
X0505605Y0471715D01*
X0505601Y0471658D01*
X0505602Y0471600D01*
X0505606Y0471543D01*
X0505614Y0471486D01*
X0505626Y0471430D01*
X0505642Y0471374D01*
X0505661Y0471320D01*
X0505684Y0471268D01*
X0505711Y0471217D01*
X0505741Y0471167D01*
X0505774Y0471120D01*
X0505810Y0471076D01*
X0505849Y0471034D01*
X0505891Y0470994D01*
X0505936Y0470958D01*
X0505983Y0470925D01*
X0506032Y0470895D01*
X0506083Y0470868D01*
X0506135Y0470845D01*
X0505644Y0468878D02*
X0505778Y0468832D01*
X0505913Y0468789D01*
X0506049Y0468750D01*
X0506186Y0468714D01*
X0506323Y0468682D01*
X0506462Y0468653D01*
X0506601Y0468627D01*
X0506741Y0468606D01*
X0506882Y0468587D01*
X0507022Y0468573D01*
X0507164Y0468562D01*
X0507305Y0468554D01*
X0507447Y0468551D01*
X0510988Y0469533D02*
X0510988Y0471500D01*
X0510990Y0471562D01*
X0510996Y0471623D01*
X0511005Y0471684D01*
X0511019Y0471744D01*
X0511036Y0471804D01*
X0511057Y0471862D01*
X0511082Y0471919D01*
X0511110Y0471974D01*
X0511141Y0472027D01*
X0511176Y0472078D01*
X0511214Y0472127D01*
X0511254Y0472173D01*
X0511298Y0472217D01*
X0511344Y0472257D01*
X0511393Y0472295D01*
X0511444Y0472330D01*
X0511497Y0472361D01*
X0511552Y0472389D01*
X0511609Y0472414D01*
X0511667Y0472435D01*
X0511727Y0472452D01*
X0511787Y0472466D01*
X0511848Y0472475D01*
X0511909Y0472481D01*
X0511971Y0472483D01*
X0513282Y0472483D01*
X0515695Y0471172D02*
X0515695Y0469861D01*
X0515696Y0469861D02*
X0515698Y0469790D01*
X0515704Y0469719D01*
X0515713Y0469649D01*
X0515727Y0469579D01*
X0515744Y0469510D01*
X0515765Y0469442D01*
X0515789Y0469376D01*
X0515817Y0469311D01*
X0515849Y0469247D01*
X0515884Y0469185D01*
X0515922Y0469125D01*
X0515963Y0469068D01*
X0516008Y0469012D01*
X0516055Y0468959D01*
X0516105Y0468909D01*
X0516158Y0468862D01*
X0516214Y0468817D01*
X0516271Y0468776D01*
X0516331Y0468738D01*
X0516393Y0468703D01*
X0516457Y0468671D01*
X0516522Y0468643D01*
X0516588Y0468619D01*
X0516656Y0468598D01*
X0516725Y0468581D01*
X0516795Y0468567D01*
X0516865Y0468558D01*
X0516936Y0468552D01*
X0517007Y0468550D01*
X0517078Y0468552D01*
X0517149Y0468558D01*
X0517219Y0468567D01*
X0517289Y0468581D01*
X0517358Y0468598D01*
X0517426Y0468619D01*
X0517492Y0468643D01*
X0517557Y0468671D01*
X0517621Y0468703D01*
X0517683Y0468738D01*
X0517743Y0468776D01*
X0517800Y0468817D01*
X0517856Y0468862D01*
X0517909Y0468909D01*
X0517959Y0468959D01*
X0518006Y0469012D01*
X0518051Y0469068D01*
X0518092Y0469125D01*
X0518130Y0469185D01*
X0518165Y0469247D01*
X0518197Y0469311D01*
X0518225Y0469376D01*
X0518249Y0469442D01*
X0518270Y0469510D01*
X0518287Y0469579D01*
X0518301Y0469649D01*
X0518310Y0469719D01*
X0518316Y0469790D01*
X0518318Y0469861D01*
X0518318Y0471172D01*
X0518316Y0471243D01*
X0518310Y0471314D01*
X0518301Y0471384D01*
X0518287Y0471454D01*
X0518270Y0471523D01*
X0518249Y0471591D01*
X0518225Y0471657D01*
X0518197Y0471722D01*
X0518165Y0471786D01*
X0518130Y0471848D01*
X0518092Y0471908D01*
X0518051Y0471965D01*
X0518006Y0472021D01*
X0517959Y0472074D01*
X0517909Y0472124D01*
X0517856Y0472171D01*
X0517800Y0472216D01*
X0517743Y0472257D01*
X0517683Y0472295D01*
X0517621Y0472330D01*
X0517557Y0472362D01*
X0517492Y0472390D01*
X0517426Y0472414D01*
X0517358Y0472435D01*
X0517289Y0472452D01*
X0517219Y0472466D01*
X0517149Y0472475D01*
X0517078Y0472481D01*
X0517007Y0472483D01*
X0516936Y0472481D01*
X0516865Y0472475D01*
X0516795Y0472466D01*
X0516725Y0472452D01*
X0516656Y0472435D01*
X0516588Y0472414D01*
X0516522Y0472390D01*
X0516457Y0472362D01*
X0516393Y0472330D01*
X0516331Y0472295D01*
X0516271Y0472257D01*
X0516214Y0472216D01*
X0516158Y0472171D01*
X0516105Y0472124D01*
X0516055Y0472074D01*
X0516008Y0472021D01*
X0515963Y0471965D01*
X0515922Y0471908D01*
X0515884Y0471848D01*
X0515849Y0471786D01*
X0515817Y0471722D01*
X0515789Y0471657D01*
X0515765Y0471591D01*
X0515744Y0471523D01*
X0515727Y0471454D01*
X0515713Y0471384D01*
X0515704Y0471314D01*
X0515698Y0471243D01*
X0515696Y0471172D01*
X0513282Y0468550D02*
X0511971Y0468550D01*
X0511909Y0468552D01*
X0511848Y0468558D01*
X0511787Y0468567D01*
X0511727Y0468581D01*
X0511667Y0468598D01*
X0511609Y0468619D01*
X0511552Y0468644D01*
X0511497Y0468672D01*
X0511444Y0468703D01*
X0511393Y0468738D01*
X0511344Y0468776D01*
X0511298Y0468816D01*
X0511254Y0468860D01*
X0511214Y0468906D01*
X0511176Y0468955D01*
X0511141Y0469006D01*
X0511110Y0469059D01*
X0511082Y0469114D01*
X0511057Y0469171D01*
X0511036Y0469229D01*
X0511019Y0469289D01*
X0511005Y0469349D01*
X0510996Y0469410D01*
X0510990Y0469471D01*
X0510988Y0469533D01*
X0521284Y0468550D02*
X0521284Y0472483D01*
X0523251Y0472483D01*
X0523251Y0471828D01*
X0525337Y0471172D02*
X0525337Y0469533D01*
X0525339Y0469471D01*
X0525345Y0469410D01*
X0525354Y0469349D01*
X0525368Y0469289D01*
X0525385Y0469229D01*
X0525406Y0469171D01*
X0525431Y0469114D01*
X0525459Y0469059D01*
X0525490Y0469006D01*
X0525525Y0468955D01*
X0525563Y0468906D01*
X0525603Y0468860D01*
X0525647Y0468816D01*
X0525693Y0468776D01*
X0525742Y0468738D01*
X0525793Y0468703D01*
X0525846Y0468672D01*
X0525901Y0468644D01*
X0525958Y0468619D01*
X0526016Y0468598D01*
X0526076Y0468581D01*
X0526136Y0468567D01*
X0526197Y0468558D01*
X0526258Y0468552D01*
X0526320Y0468550D01*
X0527959Y0468550D01*
X0527959Y0470517D02*
X0525337Y0470517D01*
X0525337Y0471172D02*
X0525339Y0471243D01*
X0525345Y0471314D01*
X0525354Y0471384D01*
X0525368Y0471454D01*
X0525385Y0471523D01*
X0525406Y0471591D01*
X0525430Y0471657D01*
X0525458Y0471722D01*
X0525490Y0471786D01*
X0525525Y0471848D01*
X0525563Y0471908D01*
X0525604Y0471965D01*
X0525649Y0472021D01*
X0525696Y0472074D01*
X0525746Y0472124D01*
X0525799Y0472171D01*
X0525855Y0472216D01*
X0525912Y0472257D01*
X0525972Y0472295D01*
X0526034Y0472330D01*
X0526098Y0472362D01*
X0526163Y0472390D01*
X0526229Y0472414D01*
X0526297Y0472435D01*
X0526366Y0472452D01*
X0526436Y0472466D01*
X0526506Y0472475D01*
X0526577Y0472481D01*
X0526648Y0472483D01*
X0526719Y0472481D01*
X0526790Y0472475D01*
X0526860Y0472466D01*
X0526930Y0472452D01*
X0526999Y0472435D01*
X0527067Y0472414D01*
X0527133Y0472390D01*
X0527198Y0472362D01*
X0527262Y0472330D01*
X0527324Y0472295D01*
X0527384Y0472257D01*
X0527441Y0472216D01*
X0527497Y0472171D01*
X0527550Y0472124D01*
X0527600Y0472074D01*
X0527647Y0472021D01*
X0527692Y0471965D01*
X0527733Y0471908D01*
X0527771Y0471848D01*
X0527806Y0471786D01*
X0527838Y0471722D01*
X0527866Y0471657D01*
X0527890Y0471591D01*
X0527911Y0471523D01*
X0527928Y0471454D01*
X0527942Y0471384D01*
X0527951Y0471314D01*
X0527957Y0471243D01*
X0527959Y0471172D01*
X0527959Y0470517D01*
X0038200Y0381955D02*
X0038200Y0381627D01*
X0038198Y0381565D01*
X0038192Y0381504D01*
X0038183Y0381443D01*
X0038169Y0381383D01*
X0038152Y0381323D01*
X0038131Y0381265D01*
X0038106Y0381208D01*
X0038078Y0381153D01*
X0038047Y0381100D01*
X0038012Y0381049D01*
X0037974Y0381000D01*
X0037934Y0380954D01*
X0037890Y0380910D01*
X0037844Y0380870D01*
X0037795Y0380832D01*
X0037744Y0380797D01*
X0037691Y0380766D01*
X0037636Y0380738D01*
X0037579Y0380713D01*
X0037521Y0380692D01*
X0037461Y0380675D01*
X0037401Y0380661D01*
X0037340Y0380652D01*
X0037279Y0380646D01*
X0037217Y0380644D01*
X0032300Y0380644D01*
X0034267Y0379988D02*
X0034267Y0381955D01*
X0034267Y0377634D02*
X0038200Y0377634D01*
X0038200Y0375995D01*
X0038198Y0375933D01*
X0038192Y0375872D01*
X0038183Y0375811D01*
X0038169Y0375751D01*
X0038152Y0375691D01*
X0038131Y0375633D01*
X0038106Y0375576D01*
X0038078Y0375521D01*
X0038047Y0375468D01*
X0038012Y0375417D01*
X0037974Y0375368D01*
X0037934Y0375322D01*
X0037890Y0375278D01*
X0037844Y0375238D01*
X0037795Y0375200D01*
X0037744Y0375165D01*
X0037691Y0375134D01*
X0037636Y0375106D01*
X0037579Y0375081D01*
X0037521Y0375060D01*
X0037461Y0375043D01*
X0037401Y0375029D01*
X0037340Y0375020D01*
X0037279Y0375014D01*
X0037217Y0375012D01*
X0034267Y0375012D01*
X0033939Y0372013D02*
X0036561Y0372013D01*
X0036640Y0372011D01*
X0036719Y0372005D01*
X0036798Y0371996D01*
X0036876Y0371982D01*
X0036953Y0371965D01*
X0037030Y0371945D01*
X0037105Y0371920D01*
X0037179Y0371892D01*
X0037252Y0371860D01*
X0037323Y0371825D01*
X0037392Y0371787D01*
X0037459Y0371745D01*
X0037524Y0371700D01*
X0037587Y0371652D01*
X0037648Y0371601D01*
X0037706Y0371547D01*
X0037761Y0371490D01*
X0037814Y0371431D01*
X0037863Y0371369D01*
X0037910Y0371305D01*
X0037953Y0371239D01*
X0037993Y0371171D01*
X0038030Y0371100D01*
X0038064Y0371029D01*
X0038093Y0370955D01*
X0038120Y0370880D01*
X0038142Y0370805D01*
X0038161Y0370728D01*
X0038177Y0370650D01*
X0038188Y0370572D01*
X0038196Y0370493D01*
X0038200Y0370414D01*
X0038200Y0370334D01*
X0038196Y0370255D01*
X0038188Y0370176D01*
X0038177Y0370098D01*
X0038161Y0370020D01*
X0038142Y0369943D01*
X0038120Y0369868D01*
X0038093Y0369793D01*
X0038064Y0369719D01*
X0038030Y0369648D01*
X0037993Y0369577D01*
X0037953Y0369509D01*
X0037910Y0369443D01*
X0037863Y0369379D01*
X0037814Y0369317D01*
X0037761Y0369258D01*
X0037706Y0369201D01*
X0037648Y0369147D01*
X0037587Y0369096D01*
X0037524Y0369048D01*
X0037459Y0369003D01*
X0037392Y0368961D01*
X0037323Y0368923D01*
X0037252Y0368888D01*
X0037179Y0368856D01*
X0037105Y0368828D01*
X0037030Y0368803D01*
X0036953Y0368783D01*
X0036876Y0368766D01*
X0036798Y0368752D01*
X0036719Y0368743D01*
X0036640Y0368737D01*
X0036561Y0368735D01*
X0033939Y0368735D01*
X0033860Y0368737D01*
X0033781Y0368743D01*
X0033702Y0368752D01*
X0033624Y0368766D01*
X0033547Y0368783D01*
X0033470Y0368803D01*
X0033395Y0368828D01*
X0033321Y0368856D01*
X0033248Y0368888D01*
X0033177Y0368923D01*
X0033108Y0368961D01*
X0033041Y0369003D01*
X0032976Y0369048D01*
X0032913Y0369096D01*
X0032852Y0369147D01*
X0032794Y0369201D01*
X0032739Y0369258D01*
X0032686Y0369317D01*
X0032637Y0369379D01*
X0032590Y0369443D01*
X0032547Y0369509D01*
X0032507Y0369577D01*
X0032470Y0369648D01*
X0032436Y0369719D01*
X0032407Y0369793D01*
X0032380Y0369868D01*
X0032358Y0369943D01*
X0032339Y0370020D01*
X0032323Y0370098D01*
X0032312Y0370176D01*
X0032304Y0370255D01*
X0032300Y0370334D01*
X0032300Y0370414D01*
X0032304Y0370493D01*
X0032312Y0370572D01*
X0032323Y0370650D01*
X0032339Y0370728D01*
X0032358Y0370805D01*
X0032380Y0370880D01*
X0032407Y0370955D01*
X0032436Y0371029D01*
X0032470Y0371100D01*
X0032507Y0371171D01*
X0032547Y0371239D01*
X0032590Y0371305D01*
X0032637Y0371369D01*
X0032686Y0371431D01*
X0032739Y0371490D01*
X0032794Y0371547D01*
X0032852Y0371601D01*
X0032913Y0371652D01*
X0032976Y0371700D01*
X0033041Y0371745D01*
X0033108Y0371787D01*
X0033177Y0371825D01*
X0033248Y0371860D01*
X0033321Y0371892D01*
X0033395Y0371920D01*
X0033470Y0371945D01*
X0033547Y0371965D01*
X0033624Y0371982D01*
X0033702Y0371996D01*
X0033781Y0372005D01*
X0033860Y0372011D01*
X0033939Y0372013D01*
X0035578Y0362659D02*
X0036233Y0362659D01*
X0036233Y0360037D01*
X0035578Y0360037D02*
X0037217Y0360037D01*
X0037279Y0360039D01*
X0037340Y0360045D01*
X0037401Y0360054D01*
X0037461Y0360068D01*
X0037521Y0360085D01*
X0037579Y0360106D01*
X0037636Y0360131D01*
X0037691Y0360159D01*
X0037744Y0360190D01*
X0037795Y0360225D01*
X0037844Y0360263D01*
X0037890Y0360303D01*
X0037934Y0360347D01*
X0037974Y0360393D01*
X0038012Y0360442D01*
X0038047Y0360493D01*
X0038078Y0360546D01*
X0038106Y0360601D01*
X0038131Y0360658D01*
X0038152Y0360716D01*
X0038169Y0360776D01*
X0038183Y0360836D01*
X0038192Y0360897D01*
X0038198Y0360958D01*
X0038200Y0361020D01*
X0038200Y0362659D01*
X0035578Y0362659D02*
X0035507Y0362657D01*
X0035436Y0362651D01*
X0035366Y0362642D01*
X0035296Y0362628D01*
X0035227Y0362611D01*
X0035159Y0362590D01*
X0035093Y0362566D01*
X0035028Y0362538D01*
X0034964Y0362506D01*
X0034902Y0362471D01*
X0034842Y0362433D01*
X0034785Y0362392D01*
X0034729Y0362347D01*
X0034676Y0362300D01*
X0034626Y0362250D01*
X0034579Y0362197D01*
X0034534Y0362141D01*
X0034493Y0362084D01*
X0034455Y0362024D01*
X0034420Y0361962D01*
X0034388Y0361898D01*
X0034360Y0361833D01*
X0034336Y0361767D01*
X0034315Y0361699D01*
X0034298Y0361630D01*
X0034284Y0361560D01*
X0034275Y0361490D01*
X0034269Y0361419D01*
X0034267Y0361348D01*
X0034269Y0361277D01*
X0034275Y0361206D01*
X0034284Y0361136D01*
X0034298Y0361066D01*
X0034315Y0360997D01*
X0034336Y0360929D01*
X0034360Y0360863D01*
X0034388Y0360798D01*
X0034420Y0360734D01*
X0034455Y0360672D01*
X0034493Y0360612D01*
X0034534Y0360555D01*
X0034579Y0360499D01*
X0034626Y0360446D01*
X0034676Y0360396D01*
X0034729Y0360349D01*
X0034785Y0360304D01*
X0034842Y0360263D01*
X0034902Y0360225D01*
X0034964Y0360190D01*
X0035028Y0360158D01*
X0035093Y0360130D01*
X0035159Y0360106D01*
X0035227Y0360085D01*
X0035296Y0360068D01*
X0035366Y0360054D01*
X0035436Y0360045D01*
X0035507Y0360039D01*
X0035578Y0360037D01*
X0034267Y0357544D02*
X0034267Y0355578D01*
X0032300Y0356233D02*
X0037217Y0356233D01*
X0037279Y0356235D01*
X0037340Y0356241D01*
X0037401Y0356250D01*
X0037461Y0356264D01*
X0037521Y0356281D01*
X0037579Y0356302D01*
X0037636Y0356327D01*
X0037691Y0356355D01*
X0037744Y0356386D01*
X0037795Y0356421D01*
X0037844Y0356459D01*
X0037890Y0356499D01*
X0037934Y0356543D01*
X0037974Y0356589D01*
X0038012Y0356638D01*
X0038047Y0356689D01*
X0038078Y0356742D01*
X0038106Y0356797D01*
X0038131Y0356854D01*
X0038152Y0356912D01*
X0038169Y0356972D01*
X0038183Y0357032D01*
X0038192Y0357093D01*
X0038198Y0357154D01*
X0038200Y0357216D01*
X0038200Y0357544D01*
X0038200Y0353223D02*
X0034267Y0353223D01*
X0034267Y0350601D02*
X0037217Y0350601D01*
X0037279Y0350603D01*
X0037340Y0350609D01*
X0037401Y0350618D01*
X0037461Y0350632D01*
X0037521Y0350649D01*
X0037579Y0350670D01*
X0037636Y0350695D01*
X0037691Y0350723D01*
X0037744Y0350754D01*
X0037795Y0350789D01*
X0037844Y0350827D01*
X0037890Y0350867D01*
X0037934Y0350911D01*
X0037974Y0350957D01*
X0038012Y0351006D01*
X0038047Y0351057D01*
X0038078Y0351110D01*
X0038106Y0351165D01*
X0038131Y0351222D01*
X0038152Y0351280D01*
X0038169Y0351340D01*
X0038183Y0351400D01*
X0038192Y0351461D01*
X0038198Y0351522D01*
X0038200Y0351584D01*
X0038200Y0353223D01*
X0036889Y0347684D02*
X0035578Y0347684D01*
X0035507Y0347682D01*
X0035436Y0347676D01*
X0035366Y0347667D01*
X0035296Y0347653D01*
X0035227Y0347636D01*
X0035159Y0347615D01*
X0035093Y0347591D01*
X0035028Y0347563D01*
X0034964Y0347531D01*
X0034902Y0347496D01*
X0034842Y0347458D01*
X0034785Y0347417D01*
X0034729Y0347372D01*
X0034676Y0347325D01*
X0034626Y0347275D01*
X0034579Y0347222D01*
X0034534Y0347166D01*
X0034493Y0347109D01*
X0034455Y0347049D01*
X0034420Y0346987D01*
X0034388Y0346923D01*
X0034360Y0346858D01*
X0034336Y0346792D01*
X0034315Y0346724D01*
X0034298Y0346655D01*
X0034284Y0346585D01*
X0034275Y0346515D01*
X0034269Y0346444D01*
X0034267Y0346373D01*
X0034269Y0346302D01*
X0034275Y0346231D01*
X0034284Y0346161D01*
X0034298Y0346091D01*
X0034315Y0346022D01*
X0034336Y0345954D01*
X0034360Y0345888D01*
X0034388Y0345823D01*
X0034420Y0345759D01*
X0034455Y0345697D01*
X0034493Y0345637D01*
X0034534Y0345580D01*
X0034579Y0345524D01*
X0034626Y0345471D01*
X0034676Y0345421D01*
X0034729Y0345374D01*
X0034785Y0345329D01*
X0034842Y0345288D01*
X0034902Y0345250D01*
X0034964Y0345215D01*
X0035028Y0345183D01*
X0035093Y0345155D01*
X0035159Y0345131D01*
X0035227Y0345110D01*
X0035296Y0345093D01*
X0035366Y0345079D01*
X0035436Y0345070D01*
X0035507Y0345064D01*
X0035578Y0345062D01*
X0036889Y0345062D01*
X0036960Y0345064D01*
X0037031Y0345070D01*
X0037101Y0345079D01*
X0037171Y0345093D01*
X0037240Y0345110D01*
X0037308Y0345131D01*
X0037374Y0345155D01*
X0037439Y0345183D01*
X0037503Y0345215D01*
X0037565Y0345250D01*
X0037625Y0345288D01*
X0037682Y0345329D01*
X0037738Y0345374D01*
X0037791Y0345421D01*
X0037841Y0345471D01*
X0037888Y0345524D01*
X0037933Y0345580D01*
X0037974Y0345637D01*
X0038012Y0345697D01*
X0038047Y0345759D01*
X0038079Y0345823D01*
X0038107Y0345888D01*
X0038131Y0345954D01*
X0038152Y0346022D01*
X0038169Y0346091D01*
X0038183Y0346161D01*
X0038192Y0346231D01*
X0038198Y0346302D01*
X0038200Y0346373D01*
X0038198Y0346444D01*
X0038192Y0346515D01*
X0038183Y0346585D01*
X0038169Y0346655D01*
X0038152Y0346724D01*
X0038131Y0346792D01*
X0038107Y0346858D01*
X0038079Y0346923D01*
X0038047Y0346987D01*
X0038012Y0347049D01*
X0037974Y0347109D01*
X0037933Y0347166D01*
X0037888Y0347222D01*
X0037841Y0347275D01*
X0037791Y0347325D01*
X0037738Y0347372D01*
X0037682Y0347417D01*
X0037625Y0347458D01*
X0037565Y0347496D01*
X0037503Y0347531D01*
X0037439Y0347563D01*
X0037374Y0347591D01*
X0037308Y0347615D01*
X0037240Y0347636D01*
X0037171Y0347653D01*
X0037101Y0347667D01*
X0037031Y0347676D01*
X0036960Y0347682D01*
X0036889Y0347684D01*
X0038200Y0342323D02*
X0035578Y0341012D01*
X0035578Y0340684D02*
X0035578Y0339045D01*
X0035578Y0340684D02*
X0035576Y0340763D01*
X0035570Y0340842D01*
X0035561Y0340921D01*
X0035547Y0340999D01*
X0035530Y0341076D01*
X0035510Y0341153D01*
X0035485Y0341228D01*
X0035457Y0341302D01*
X0035425Y0341375D01*
X0035390Y0341446D01*
X0035352Y0341515D01*
X0035310Y0341582D01*
X0035265Y0341647D01*
X0035217Y0341710D01*
X0035166Y0341771D01*
X0035112Y0341829D01*
X0035055Y0341884D01*
X0034996Y0341937D01*
X0034934Y0341986D01*
X0034870Y0342033D01*
X0034804Y0342076D01*
X0034736Y0342116D01*
X0034665Y0342153D01*
X0034594Y0342187D01*
X0034520Y0342216D01*
X0034445Y0342243D01*
X0034370Y0342265D01*
X0034293Y0342284D01*
X0034215Y0342300D01*
X0034137Y0342311D01*
X0034058Y0342319D01*
X0033979Y0342323D01*
X0033899Y0342323D01*
X0033820Y0342319D01*
X0033741Y0342311D01*
X0033663Y0342300D01*
X0033585Y0342284D01*
X0033508Y0342265D01*
X0033433Y0342243D01*
X0033358Y0342216D01*
X0033284Y0342187D01*
X0033213Y0342153D01*
X0033142Y0342116D01*
X0033074Y0342076D01*
X0033008Y0342033D01*
X0032944Y0341986D01*
X0032882Y0341937D01*
X0032823Y0341884D01*
X0032766Y0341829D01*
X0032712Y0341771D01*
X0032661Y0341710D01*
X0032613Y0341647D01*
X0032568Y0341582D01*
X0032526Y0341515D01*
X0032488Y0341446D01*
X0032453Y0341375D01*
X0032421Y0341302D01*
X0032393Y0341228D01*
X0032368Y0341153D01*
X0032348Y0341076D01*
X0032331Y0340999D01*
X0032317Y0340921D01*
X0032308Y0340842D01*
X0032302Y0340763D01*
X0032300Y0340684D01*
X0032300Y0339045D01*
X0038200Y0339045D01*
X0038200Y0159955D02*
X0038200Y0159627D01*
X0038198Y0159565D01*
X0038192Y0159504D01*
X0038183Y0159443D01*
X0038169Y0159383D01*
X0038152Y0159323D01*
X0038131Y0159265D01*
X0038106Y0159208D01*
X0038078Y0159153D01*
X0038047Y0159100D01*
X0038012Y0159049D01*
X0037974Y0159000D01*
X0037934Y0158954D01*
X0037890Y0158910D01*
X0037844Y0158870D01*
X0037795Y0158832D01*
X0037744Y0158797D01*
X0037691Y0158766D01*
X0037636Y0158738D01*
X0037579Y0158713D01*
X0037521Y0158692D01*
X0037461Y0158675D01*
X0037401Y0158661D01*
X0037340Y0158652D01*
X0037279Y0158646D01*
X0037217Y0158644D01*
X0032300Y0158644D01*
X0034267Y0157988D02*
X0034267Y0159955D01*
X0034267Y0155634D02*
X0038200Y0155634D01*
X0038200Y0153995D01*
X0038198Y0153933D01*
X0038192Y0153872D01*
X0038183Y0153811D01*
X0038169Y0153751D01*
X0038152Y0153691D01*
X0038131Y0153633D01*
X0038106Y0153576D01*
X0038078Y0153521D01*
X0038047Y0153468D01*
X0038012Y0153417D01*
X0037974Y0153368D01*
X0037934Y0153322D01*
X0037890Y0153278D01*
X0037844Y0153238D01*
X0037795Y0153200D01*
X0037744Y0153165D01*
X0037691Y0153134D01*
X0037636Y0153106D01*
X0037579Y0153081D01*
X0037521Y0153060D01*
X0037461Y0153043D01*
X0037401Y0153029D01*
X0037340Y0153020D01*
X0037279Y0153014D01*
X0037217Y0153012D01*
X0034267Y0153012D01*
X0033939Y0150013D02*
X0036561Y0150013D01*
X0036640Y0150011D01*
X0036719Y0150005D01*
X0036798Y0149996D01*
X0036876Y0149982D01*
X0036953Y0149965D01*
X0037030Y0149945D01*
X0037105Y0149920D01*
X0037179Y0149892D01*
X0037252Y0149860D01*
X0037323Y0149825D01*
X0037392Y0149787D01*
X0037459Y0149745D01*
X0037524Y0149700D01*
X0037587Y0149652D01*
X0037648Y0149601D01*
X0037706Y0149547D01*
X0037761Y0149490D01*
X0037814Y0149431D01*
X0037863Y0149369D01*
X0037910Y0149305D01*
X0037953Y0149239D01*
X0037993Y0149171D01*
X0038030Y0149100D01*
X0038064Y0149029D01*
X0038093Y0148955D01*
X0038120Y0148880D01*
X0038142Y0148805D01*
X0038161Y0148728D01*
X0038177Y0148650D01*
X0038188Y0148572D01*
X0038196Y0148493D01*
X0038200Y0148414D01*
X0038200Y0148334D01*
X0038196Y0148255D01*
X0038188Y0148176D01*
X0038177Y0148098D01*
X0038161Y0148020D01*
X0038142Y0147943D01*
X0038120Y0147868D01*
X0038093Y0147793D01*
X0038064Y0147719D01*
X0038030Y0147648D01*
X0037993Y0147577D01*
X0037953Y0147509D01*
X0037910Y0147443D01*
X0037863Y0147379D01*
X0037814Y0147317D01*
X0037761Y0147258D01*
X0037706Y0147201D01*
X0037648Y0147147D01*
X0037587Y0147096D01*
X0037524Y0147048D01*
X0037459Y0147003D01*
X0037392Y0146961D01*
X0037323Y0146923D01*
X0037252Y0146888D01*
X0037179Y0146856D01*
X0037105Y0146828D01*
X0037030Y0146803D01*
X0036953Y0146783D01*
X0036876Y0146766D01*
X0036798Y0146752D01*
X0036719Y0146743D01*
X0036640Y0146737D01*
X0036561Y0146735D01*
X0033939Y0146735D01*
X0033860Y0146737D01*
X0033781Y0146743D01*
X0033702Y0146752D01*
X0033624Y0146766D01*
X0033547Y0146783D01*
X0033470Y0146803D01*
X0033395Y0146828D01*
X0033321Y0146856D01*
X0033248Y0146888D01*
X0033177Y0146923D01*
X0033108Y0146961D01*
X0033041Y0147003D01*
X0032976Y0147048D01*
X0032913Y0147096D01*
X0032852Y0147147D01*
X0032794Y0147201D01*
X0032739Y0147258D01*
X0032686Y0147317D01*
X0032637Y0147379D01*
X0032590Y0147443D01*
X0032547Y0147509D01*
X0032507Y0147577D01*
X0032470Y0147648D01*
X0032436Y0147719D01*
X0032407Y0147793D01*
X0032380Y0147868D01*
X0032358Y0147943D01*
X0032339Y0148020D01*
X0032323Y0148098D01*
X0032312Y0148176D01*
X0032304Y0148255D01*
X0032300Y0148334D01*
X0032300Y0148414D01*
X0032304Y0148493D01*
X0032312Y0148572D01*
X0032323Y0148650D01*
X0032339Y0148728D01*
X0032358Y0148805D01*
X0032380Y0148880D01*
X0032407Y0148955D01*
X0032436Y0149029D01*
X0032470Y0149100D01*
X0032507Y0149171D01*
X0032547Y0149239D01*
X0032590Y0149305D01*
X0032637Y0149369D01*
X0032686Y0149431D01*
X0032739Y0149490D01*
X0032794Y0149547D01*
X0032852Y0149601D01*
X0032913Y0149652D01*
X0032976Y0149700D01*
X0033041Y0149745D01*
X0033108Y0149787D01*
X0033177Y0149825D01*
X0033248Y0149860D01*
X0033321Y0149892D01*
X0033395Y0149920D01*
X0033470Y0149945D01*
X0033547Y0149965D01*
X0033624Y0149982D01*
X0033702Y0149996D01*
X0033781Y0150005D01*
X0033860Y0150011D01*
X0033939Y0150013D01*
X0035578Y0140659D02*
X0036233Y0140659D01*
X0036233Y0138037D01*
X0035578Y0138037D02*
X0037217Y0138037D01*
X0037279Y0138039D01*
X0037340Y0138045D01*
X0037401Y0138054D01*
X0037461Y0138068D01*
X0037521Y0138085D01*
X0037579Y0138106D01*
X0037636Y0138131D01*
X0037691Y0138159D01*
X0037744Y0138190D01*
X0037795Y0138225D01*
X0037844Y0138263D01*
X0037890Y0138303D01*
X0037934Y0138347D01*
X0037974Y0138393D01*
X0038012Y0138442D01*
X0038047Y0138493D01*
X0038078Y0138546D01*
X0038106Y0138601D01*
X0038131Y0138658D01*
X0038152Y0138716D01*
X0038169Y0138776D01*
X0038183Y0138836D01*
X0038192Y0138897D01*
X0038198Y0138958D01*
X0038200Y0139020D01*
X0038200Y0140659D01*
X0035578Y0140659D02*
X0035507Y0140657D01*
X0035436Y0140651D01*
X0035366Y0140642D01*
X0035296Y0140628D01*
X0035227Y0140611D01*
X0035159Y0140590D01*
X0035093Y0140566D01*
X0035028Y0140538D01*
X0034964Y0140506D01*
X0034902Y0140471D01*
X0034842Y0140433D01*
X0034785Y0140392D01*
X0034729Y0140347D01*
X0034676Y0140300D01*
X0034626Y0140250D01*
X0034579Y0140197D01*
X0034534Y0140141D01*
X0034493Y0140084D01*
X0034455Y0140024D01*
X0034420Y0139962D01*
X0034388Y0139898D01*
X0034360Y0139833D01*
X0034336Y0139767D01*
X0034315Y0139699D01*
X0034298Y0139630D01*
X0034284Y0139560D01*
X0034275Y0139490D01*
X0034269Y0139419D01*
X0034267Y0139348D01*
X0034269Y0139277D01*
X0034275Y0139206D01*
X0034284Y0139136D01*
X0034298Y0139066D01*
X0034315Y0138997D01*
X0034336Y0138929D01*
X0034360Y0138863D01*
X0034388Y0138798D01*
X0034420Y0138734D01*
X0034455Y0138672D01*
X0034493Y0138612D01*
X0034534Y0138555D01*
X0034579Y0138499D01*
X0034626Y0138446D01*
X0034676Y0138396D01*
X0034729Y0138349D01*
X0034785Y0138304D01*
X0034842Y0138263D01*
X0034902Y0138225D01*
X0034964Y0138190D01*
X0035028Y0138158D01*
X0035093Y0138130D01*
X0035159Y0138106D01*
X0035227Y0138085D01*
X0035296Y0138068D01*
X0035366Y0138054D01*
X0035436Y0138045D01*
X0035507Y0138039D01*
X0035578Y0138037D01*
X0034267Y0135544D02*
X0034267Y0133578D01*
X0032300Y0134233D02*
X0037217Y0134233D01*
X0037279Y0134235D01*
X0037340Y0134241D01*
X0037401Y0134250D01*
X0037461Y0134264D01*
X0037521Y0134281D01*
X0037579Y0134302D01*
X0037636Y0134327D01*
X0037691Y0134355D01*
X0037744Y0134386D01*
X0037795Y0134421D01*
X0037844Y0134459D01*
X0037890Y0134499D01*
X0037934Y0134543D01*
X0037974Y0134589D01*
X0038012Y0134638D01*
X0038047Y0134689D01*
X0038078Y0134742D01*
X0038106Y0134797D01*
X0038131Y0134854D01*
X0038152Y0134912D01*
X0038169Y0134972D01*
X0038183Y0135032D01*
X0038192Y0135093D01*
X0038198Y0135154D01*
X0038200Y0135216D01*
X0038200Y0135544D01*
X0038200Y0131223D02*
X0034267Y0131223D01*
X0034267Y0128601D02*
X0037217Y0128601D01*
X0037279Y0128603D01*
X0037340Y0128609D01*
X0037401Y0128618D01*
X0037461Y0128632D01*
X0037521Y0128649D01*
X0037579Y0128670D01*
X0037636Y0128695D01*
X0037691Y0128723D01*
X0037744Y0128754D01*
X0037795Y0128789D01*
X0037844Y0128827D01*
X0037890Y0128867D01*
X0037934Y0128911D01*
X0037974Y0128957D01*
X0038012Y0129006D01*
X0038047Y0129057D01*
X0038078Y0129110D01*
X0038106Y0129165D01*
X0038131Y0129222D01*
X0038152Y0129280D01*
X0038169Y0129340D01*
X0038183Y0129400D01*
X0038192Y0129461D01*
X0038198Y0129522D01*
X0038200Y0129584D01*
X0038200Y0131223D01*
X0036889Y0125684D02*
X0035578Y0125684D01*
X0035507Y0125682D01*
X0035436Y0125676D01*
X0035366Y0125667D01*
X0035296Y0125653D01*
X0035227Y0125636D01*
X0035159Y0125615D01*
X0035093Y0125591D01*
X0035028Y0125563D01*
X0034964Y0125531D01*
X0034902Y0125496D01*
X0034842Y0125458D01*
X0034785Y0125417D01*
X0034729Y0125372D01*
X0034676Y0125325D01*
X0034626Y0125275D01*
X0034579Y0125222D01*
X0034534Y0125166D01*
X0034493Y0125109D01*
X0034455Y0125049D01*
X0034420Y0124987D01*
X0034388Y0124923D01*
X0034360Y0124858D01*
X0034336Y0124792D01*
X0034315Y0124724D01*
X0034298Y0124655D01*
X0034284Y0124585D01*
X0034275Y0124515D01*
X0034269Y0124444D01*
X0034267Y0124373D01*
X0034269Y0124302D01*
X0034275Y0124231D01*
X0034284Y0124161D01*
X0034298Y0124091D01*
X0034315Y0124022D01*
X0034336Y0123954D01*
X0034360Y0123888D01*
X0034388Y0123823D01*
X0034420Y0123759D01*
X0034455Y0123697D01*
X0034493Y0123637D01*
X0034534Y0123580D01*
X0034579Y0123524D01*
X0034626Y0123471D01*
X0034676Y0123421D01*
X0034729Y0123374D01*
X0034785Y0123329D01*
X0034842Y0123288D01*
X0034902Y0123250D01*
X0034964Y0123215D01*
X0035028Y0123183D01*
X0035093Y0123155D01*
X0035159Y0123131D01*
X0035227Y0123110D01*
X0035296Y0123093D01*
X0035366Y0123079D01*
X0035436Y0123070D01*
X0035507Y0123064D01*
X0035578Y0123062D01*
X0036889Y0123062D01*
X0036960Y0123064D01*
X0037031Y0123070D01*
X0037101Y0123079D01*
X0037171Y0123093D01*
X0037240Y0123110D01*
X0037308Y0123131D01*
X0037374Y0123155D01*
X0037439Y0123183D01*
X0037503Y0123215D01*
X0037565Y0123250D01*
X0037625Y0123288D01*
X0037682Y0123329D01*
X0037738Y0123374D01*
X0037791Y0123421D01*
X0037841Y0123471D01*
X0037888Y0123524D01*
X0037933Y0123580D01*
X0037974Y0123637D01*
X0038012Y0123697D01*
X0038047Y0123759D01*
X0038079Y0123823D01*
X0038107Y0123888D01*
X0038131Y0123954D01*
X0038152Y0124022D01*
X0038169Y0124091D01*
X0038183Y0124161D01*
X0038192Y0124231D01*
X0038198Y0124302D01*
X0038200Y0124373D01*
X0038198Y0124444D01*
X0038192Y0124515D01*
X0038183Y0124585D01*
X0038169Y0124655D01*
X0038152Y0124724D01*
X0038131Y0124792D01*
X0038107Y0124858D01*
X0038079Y0124923D01*
X0038047Y0124987D01*
X0038012Y0125049D01*
X0037974Y0125109D01*
X0037933Y0125166D01*
X0037888Y0125222D01*
X0037841Y0125275D01*
X0037791Y0125325D01*
X0037738Y0125372D01*
X0037682Y0125417D01*
X0037625Y0125458D01*
X0037565Y0125496D01*
X0037503Y0125531D01*
X0037439Y0125563D01*
X0037374Y0125591D01*
X0037308Y0125615D01*
X0037240Y0125636D01*
X0037171Y0125653D01*
X0037101Y0125667D01*
X0037031Y0125676D01*
X0036960Y0125682D01*
X0036889Y0125684D01*
X0038200Y0120323D02*
X0035578Y0119012D01*
X0035578Y0118684D02*
X0035578Y0117045D01*
X0035578Y0118684D02*
X0035576Y0118763D01*
X0035570Y0118842D01*
X0035561Y0118921D01*
X0035547Y0118999D01*
X0035530Y0119076D01*
X0035510Y0119153D01*
X0035485Y0119228D01*
X0035457Y0119302D01*
X0035425Y0119375D01*
X0035390Y0119446D01*
X0035352Y0119515D01*
X0035310Y0119582D01*
X0035265Y0119647D01*
X0035217Y0119710D01*
X0035166Y0119771D01*
X0035112Y0119829D01*
X0035055Y0119884D01*
X0034996Y0119937D01*
X0034934Y0119986D01*
X0034870Y0120033D01*
X0034804Y0120076D01*
X0034736Y0120116D01*
X0034665Y0120153D01*
X0034594Y0120187D01*
X0034520Y0120216D01*
X0034445Y0120243D01*
X0034370Y0120265D01*
X0034293Y0120284D01*
X0034215Y0120300D01*
X0034137Y0120311D01*
X0034058Y0120319D01*
X0033979Y0120323D01*
X0033899Y0120323D01*
X0033820Y0120319D01*
X0033741Y0120311D01*
X0033663Y0120300D01*
X0033585Y0120284D01*
X0033508Y0120265D01*
X0033433Y0120243D01*
X0033358Y0120216D01*
X0033284Y0120187D01*
X0033213Y0120153D01*
X0033142Y0120116D01*
X0033074Y0120076D01*
X0033008Y0120033D01*
X0032944Y0119986D01*
X0032882Y0119937D01*
X0032823Y0119884D01*
X0032766Y0119829D01*
X0032712Y0119771D01*
X0032661Y0119710D01*
X0032613Y0119647D01*
X0032568Y0119582D01*
X0032526Y0119515D01*
X0032488Y0119446D01*
X0032453Y0119375D01*
X0032421Y0119302D01*
X0032393Y0119228D01*
X0032368Y0119153D01*
X0032348Y0119076D01*
X0032331Y0118999D01*
X0032317Y0118921D01*
X0032308Y0118842D01*
X0032302Y0118763D01*
X0032300Y0118684D01*
X0032300Y0117045D01*
X0038200Y0117045D01*
D12*
X0001750Y0027500D02*
X0480750Y0027500D01*
X0480750Y0249500D02*
X0001750Y0249500D01*
X0001750Y0471500D02*
X0480750Y0471500D01*
D13*
X0001750Y0026500D02*
X0001750Y0001500D01*
X0455750Y0001500D01*
X0455750Y0026500D01*
X0001750Y0026500D01*
X0001750Y0028500D02*
X0001750Y0470500D01*
X0026750Y0470500D01*
X0026750Y0028500D01*
X0001750Y0028500D01*
X0430750Y0028500D02*
X0430750Y0470500D01*
X0455750Y0470500D01*
X0455750Y0028500D01*
X0430750Y0028500D01*
X0455750Y0472500D02*
X0001750Y0472500D01*
X0001750Y0497500D01*
X0455750Y0497500D01*
X0455750Y0472500D01*
D14*
X0062844Y0349346D02*
X0061270Y0349346D01*
X0061270Y0349347D02*
X0061198Y0349342D01*
X0061126Y0349333D01*
X0061055Y0349320D01*
X0060984Y0349303D01*
X0060915Y0349283D01*
X0060847Y0349258D01*
X0060780Y0349231D01*
X0060715Y0349199D01*
X0060651Y0349164D01*
X0060590Y0349126D01*
X0060531Y0349085D01*
X0060474Y0349040D01*
X0060419Y0348992D01*
X0060368Y0348942D01*
X0060319Y0348888D01*
X0060273Y0348833D01*
X0060230Y0348774D01*
X0060190Y0348714D01*
X0060154Y0348651D01*
X0060121Y0348587D01*
X0060091Y0348521D01*
X0060066Y0348453D01*
X0060043Y0348384D01*
X0060025Y0348314D01*
X0060011Y0348243D01*
X0060000Y0348172D01*
X0059993Y0348100D01*
X0059990Y0348027D01*
X0059991Y0348027D02*
X0059989Y0347960D01*
X0059991Y0347893D01*
X0059997Y0347826D01*
X0060007Y0347759D01*
X0060020Y0347693D01*
X0060037Y0347628D01*
X0060058Y0347564D01*
X0060083Y0347502D01*
X0060111Y0347440D01*
X0060143Y0347381D01*
X0060177Y0347323D01*
X0060215Y0347268D01*
X0060257Y0347215D01*
X0060301Y0347164D01*
X0060348Y0347116D01*
X0060397Y0347070D01*
X0060450Y0347028D01*
X0060504Y0346988D01*
X0060561Y0346952D01*
X0060619Y0346919D01*
X0060680Y0346889D01*
X0060742Y0346863D01*
X0060805Y0346841D01*
X0060870Y0346822D01*
X0060935Y0346806D01*
X0061002Y0346795D01*
X0061068Y0346787D01*
X0061136Y0346783D01*
X0061203Y0346783D01*
X0061270Y0346787D01*
X0062844Y0346787D01*
X0062913Y0346789D01*
X0062982Y0346795D01*
X0063051Y0346804D01*
X0063119Y0346817D01*
X0063186Y0346834D01*
X0063253Y0346854D01*
X0063318Y0346878D01*
X0063381Y0346905D01*
X0063444Y0346936D01*
X0063504Y0346970D01*
X0063562Y0347008D01*
X0063619Y0347048D01*
X0063673Y0347091D01*
X0063724Y0347138D01*
X0063773Y0347187D01*
X0063820Y0347238D01*
X0063863Y0347292D01*
X0063903Y0347349D01*
X0063941Y0347407D01*
X0063975Y0347467D01*
X0064006Y0347530D01*
X0064033Y0347593D01*
X0064057Y0347658D01*
X0064077Y0347725D01*
X0064094Y0347792D01*
X0064107Y0347860D01*
X0064116Y0347929D01*
X0064122Y0347998D01*
X0064124Y0348067D01*
X0064123Y0348137D01*
X0064118Y0348206D01*
X0064110Y0348275D01*
X0064098Y0348344D01*
X0064082Y0348411D01*
X0064062Y0348478D01*
X0064038Y0348544D01*
X0064011Y0348608D01*
X0063981Y0348670D01*
X0063947Y0348731D01*
X0063910Y0348790D01*
X0063869Y0348847D01*
X0063826Y0348901D01*
X0063779Y0348953D01*
X0063730Y0349002D01*
X0063678Y0349049D01*
X0063624Y0349092D01*
X0063567Y0349133D01*
X0063508Y0349170D01*
X0063447Y0349204D01*
X0063385Y0349234D01*
X0063321Y0349261D01*
X0063255Y0349285D01*
X0063188Y0349305D01*
X0063121Y0349321D01*
X0063052Y0349333D01*
X0062983Y0349341D01*
X0062914Y0349346D01*
X0062844Y0349347D01*
X0051309Y0350626D02*
X0048947Y0350626D01*
X0048876Y0350616D01*
X0048807Y0350602D01*
X0048738Y0350584D01*
X0048670Y0350563D01*
X0048603Y0350538D01*
X0048538Y0350509D01*
X0048474Y0350477D01*
X0048413Y0350442D01*
X0048353Y0350404D01*
X0048295Y0350362D01*
X0048240Y0350317D01*
X0048186Y0350270D01*
X0048136Y0350220D01*
X0048088Y0350167D01*
X0048043Y0350112D01*
X0048002Y0350054D01*
X0047963Y0349995D01*
X0047927Y0349933D01*
X0047895Y0349870D01*
X0047866Y0349804D01*
X0047841Y0349738D01*
X0047819Y0349670D01*
X0047801Y0349601D01*
X0047786Y0349532D01*
X0047776Y0349462D01*
X0047769Y0349391D01*
X0047765Y0349320D01*
X0047766Y0349249D01*
X0047766Y0349248D02*
X0047765Y0349177D01*
X0047769Y0349106D01*
X0047776Y0349035D01*
X0047786Y0348965D01*
X0047801Y0348896D01*
X0047819Y0348827D01*
X0047841Y0348759D01*
X0047866Y0348693D01*
X0047895Y0348627D01*
X0047927Y0348564D01*
X0047963Y0348502D01*
X0048002Y0348443D01*
X0048043Y0348385D01*
X0048088Y0348330D01*
X0048136Y0348277D01*
X0048186Y0348227D01*
X0048240Y0348180D01*
X0048295Y0348135D01*
X0048353Y0348093D01*
X0048413Y0348055D01*
X0048474Y0348020D01*
X0048538Y0347988D01*
X0048603Y0347959D01*
X0048670Y0347934D01*
X0048738Y0347913D01*
X0048807Y0347895D01*
X0048876Y0347881D01*
X0048947Y0347871D01*
X0048947Y0347870D02*
X0051309Y0347870D01*
X0051309Y0347871D02*
X0051380Y0347881D01*
X0051449Y0347895D01*
X0051518Y0347913D01*
X0051586Y0347934D01*
X0051653Y0347959D01*
X0051718Y0347988D01*
X0051782Y0348020D01*
X0051843Y0348055D01*
X0051903Y0348093D01*
X0051961Y0348135D01*
X0052016Y0348180D01*
X0052070Y0348227D01*
X0052120Y0348277D01*
X0052168Y0348330D01*
X0052213Y0348385D01*
X0052254Y0348443D01*
X0052293Y0348502D01*
X0052329Y0348564D01*
X0052361Y0348627D01*
X0052390Y0348693D01*
X0052415Y0348759D01*
X0052437Y0348827D01*
X0052455Y0348896D01*
X0052470Y0348965D01*
X0052480Y0349035D01*
X0052487Y0349106D01*
X0052491Y0349177D01*
X0052490Y0349248D01*
X0052490Y0349249D02*
X0052491Y0349320D01*
X0052487Y0349391D01*
X0052480Y0349462D01*
X0052470Y0349532D01*
X0052455Y0349601D01*
X0052437Y0349670D01*
X0052415Y0349738D01*
X0052390Y0349804D01*
X0052361Y0349870D01*
X0052329Y0349933D01*
X0052293Y0349995D01*
X0052254Y0350054D01*
X0052213Y0350112D01*
X0052168Y0350167D01*
X0052120Y0350220D01*
X0052070Y0350270D01*
X0052016Y0350317D01*
X0051961Y0350362D01*
X0051903Y0350404D01*
X0051843Y0350442D01*
X0051782Y0350477D01*
X0051718Y0350509D01*
X0051653Y0350538D01*
X0051586Y0350563D01*
X0051518Y0350584D01*
X0051449Y0350602D01*
X0051380Y0350616D01*
X0051309Y0350626D01*
X0061270Y0330213D02*
X0062844Y0330213D01*
X0062914Y0330212D01*
X0062983Y0330207D01*
X0063052Y0330199D01*
X0063121Y0330187D01*
X0063188Y0330171D01*
X0063255Y0330151D01*
X0063321Y0330127D01*
X0063385Y0330100D01*
X0063447Y0330070D01*
X0063508Y0330036D01*
X0063567Y0329999D01*
X0063624Y0329958D01*
X0063678Y0329915D01*
X0063730Y0329868D01*
X0063779Y0329819D01*
X0063826Y0329767D01*
X0063869Y0329713D01*
X0063910Y0329656D01*
X0063947Y0329597D01*
X0063981Y0329536D01*
X0064011Y0329474D01*
X0064038Y0329410D01*
X0064062Y0329344D01*
X0064082Y0329277D01*
X0064098Y0329210D01*
X0064110Y0329141D01*
X0064118Y0329072D01*
X0064123Y0329003D01*
X0064124Y0328933D01*
X0064122Y0328864D01*
X0064116Y0328795D01*
X0064107Y0328726D01*
X0064094Y0328658D01*
X0064077Y0328591D01*
X0064057Y0328524D01*
X0064033Y0328459D01*
X0064006Y0328396D01*
X0063975Y0328333D01*
X0063941Y0328273D01*
X0063903Y0328215D01*
X0063863Y0328158D01*
X0063820Y0328104D01*
X0063773Y0328053D01*
X0063724Y0328004D01*
X0063673Y0327957D01*
X0063619Y0327914D01*
X0063562Y0327874D01*
X0063504Y0327836D01*
X0063444Y0327802D01*
X0063381Y0327771D01*
X0063318Y0327744D01*
X0063253Y0327720D01*
X0063186Y0327700D01*
X0063119Y0327683D01*
X0063051Y0327670D01*
X0062982Y0327661D01*
X0062913Y0327655D01*
X0062844Y0327653D01*
X0062844Y0327654D02*
X0061270Y0327654D01*
X0061270Y0327653D02*
X0061203Y0327649D01*
X0061136Y0327649D01*
X0061068Y0327653D01*
X0061002Y0327661D01*
X0060935Y0327672D01*
X0060870Y0327688D01*
X0060805Y0327707D01*
X0060742Y0327729D01*
X0060680Y0327755D01*
X0060619Y0327785D01*
X0060561Y0327818D01*
X0060504Y0327854D01*
X0060450Y0327894D01*
X0060397Y0327936D01*
X0060348Y0327982D01*
X0060301Y0328030D01*
X0060257Y0328081D01*
X0060215Y0328134D01*
X0060177Y0328189D01*
X0060143Y0328247D01*
X0060111Y0328306D01*
X0060083Y0328368D01*
X0060058Y0328430D01*
X0060037Y0328494D01*
X0060020Y0328559D01*
X0060007Y0328625D01*
X0059997Y0328692D01*
X0059991Y0328759D01*
X0059989Y0328826D01*
X0059991Y0328893D01*
X0059990Y0328893D02*
X0059993Y0328966D01*
X0060000Y0329038D01*
X0060011Y0329109D01*
X0060025Y0329180D01*
X0060043Y0329250D01*
X0060066Y0329319D01*
X0060091Y0329387D01*
X0060121Y0329453D01*
X0060154Y0329517D01*
X0060190Y0329580D01*
X0060230Y0329640D01*
X0060273Y0329699D01*
X0060319Y0329754D01*
X0060368Y0329808D01*
X0060419Y0329858D01*
X0060474Y0329906D01*
X0060531Y0329951D01*
X0060590Y0329992D01*
X0060651Y0330030D01*
X0060715Y0330065D01*
X0060780Y0330097D01*
X0060847Y0330124D01*
X0060915Y0330149D01*
X0060984Y0330169D01*
X0061055Y0330186D01*
X0061126Y0330199D01*
X0061198Y0330208D01*
X0061270Y0330213D01*
X0051309Y0329130D02*
X0048947Y0329130D01*
X0048947Y0329129D02*
X0048876Y0329119D01*
X0048807Y0329105D01*
X0048738Y0329087D01*
X0048670Y0329066D01*
X0048603Y0329041D01*
X0048538Y0329012D01*
X0048474Y0328980D01*
X0048413Y0328945D01*
X0048353Y0328907D01*
X0048295Y0328865D01*
X0048240Y0328820D01*
X0048186Y0328773D01*
X0048136Y0328723D01*
X0048088Y0328670D01*
X0048043Y0328615D01*
X0048002Y0328557D01*
X0047963Y0328498D01*
X0047927Y0328436D01*
X0047895Y0328373D01*
X0047866Y0328307D01*
X0047841Y0328241D01*
X0047819Y0328173D01*
X0047801Y0328104D01*
X0047786Y0328035D01*
X0047776Y0327965D01*
X0047769Y0327894D01*
X0047765Y0327823D01*
X0047766Y0327752D01*
X0047766Y0327751D02*
X0047765Y0327680D01*
X0047769Y0327609D01*
X0047776Y0327538D01*
X0047786Y0327468D01*
X0047801Y0327399D01*
X0047819Y0327330D01*
X0047841Y0327262D01*
X0047866Y0327196D01*
X0047895Y0327130D01*
X0047927Y0327067D01*
X0047963Y0327005D01*
X0048002Y0326946D01*
X0048043Y0326888D01*
X0048088Y0326833D01*
X0048136Y0326780D01*
X0048186Y0326730D01*
X0048240Y0326683D01*
X0048295Y0326638D01*
X0048353Y0326596D01*
X0048413Y0326558D01*
X0048474Y0326523D01*
X0048538Y0326491D01*
X0048603Y0326462D01*
X0048670Y0326437D01*
X0048738Y0326416D01*
X0048807Y0326398D01*
X0048876Y0326384D01*
X0048947Y0326374D01*
X0051309Y0326374D01*
X0051380Y0326384D01*
X0051449Y0326398D01*
X0051518Y0326416D01*
X0051586Y0326437D01*
X0051653Y0326462D01*
X0051718Y0326491D01*
X0051782Y0326523D01*
X0051843Y0326558D01*
X0051903Y0326596D01*
X0051961Y0326638D01*
X0052016Y0326683D01*
X0052070Y0326730D01*
X0052120Y0326780D01*
X0052168Y0326833D01*
X0052213Y0326888D01*
X0052254Y0326946D01*
X0052293Y0327005D01*
X0052329Y0327067D01*
X0052361Y0327130D01*
X0052390Y0327196D01*
X0052415Y0327262D01*
X0052437Y0327330D01*
X0052455Y0327399D01*
X0052470Y0327468D01*
X0052480Y0327538D01*
X0052487Y0327609D01*
X0052491Y0327680D01*
X0052490Y0327751D01*
X0052490Y0327752D02*
X0052491Y0327823D01*
X0052487Y0327894D01*
X0052480Y0327965D01*
X0052470Y0328035D01*
X0052455Y0328104D01*
X0052437Y0328173D01*
X0052415Y0328241D01*
X0052390Y0328307D01*
X0052361Y0328373D01*
X0052329Y0328436D01*
X0052293Y0328498D01*
X0052254Y0328557D01*
X0052213Y0328615D01*
X0052168Y0328670D01*
X0052120Y0328723D01*
X0052070Y0328773D01*
X0052016Y0328820D01*
X0051961Y0328865D01*
X0051903Y0328907D01*
X0051843Y0328945D01*
X0051782Y0328980D01*
X0051718Y0329012D01*
X0051653Y0329041D01*
X0051586Y0329066D01*
X0051518Y0329087D01*
X0051449Y0329105D01*
X0051380Y0329119D01*
X0051309Y0329129D01*
X0051309Y0303126D02*
X0048947Y0303126D01*
X0048876Y0303116D01*
X0048807Y0303102D01*
X0048738Y0303084D01*
X0048670Y0303063D01*
X0048603Y0303038D01*
X0048538Y0303009D01*
X0048474Y0302977D01*
X0048413Y0302942D01*
X0048353Y0302904D01*
X0048295Y0302862D01*
X0048240Y0302817D01*
X0048186Y0302770D01*
X0048136Y0302720D01*
X0048088Y0302667D01*
X0048043Y0302612D01*
X0048002Y0302554D01*
X0047963Y0302495D01*
X0047927Y0302433D01*
X0047895Y0302370D01*
X0047866Y0302304D01*
X0047841Y0302238D01*
X0047819Y0302170D01*
X0047801Y0302101D01*
X0047786Y0302032D01*
X0047776Y0301962D01*
X0047769Y0301891D01*
X0047765Y0301820D01*
X0047766Y0301749D01*
X0047766Y0301748D02*
X0047765Y0301677D01*
X0047769Y0301606D01*
X0047776Y0301535D01*
X0047786Y0301465D01*
X0047801Y0301396D01*
X0047819Y0301327D01*
X0047841Y0301259D01*
X0047866Y0301193D01*
X0047895Y0301127D01*
X0047927Y0301064D01*
X0047963Y0301002D01*
X0048002Y0300943D01*
X0048043Y0300885D01*
X0048088Y0300830D01*
X0048136Y0300777D01*
X0048186Y0300727D01*
X0048240Y0300680D01*
X0048295Y0300635D01*
X0048353Y0300593D01*
X0048413Y0300555D01*
X0048474Y0300520D01*
X0048538Y0300488D01*
X0048603Y0300459D01*
X0048670Y0300434D01*
X0048738Y0300413D01*
X0048807Y0300395D01*
X0048876Y0300381D01*
X0048947Y0300371D01*
X0048947Y0300370D02*
X0051309Y0300370D01*
X0051309Y0300371D02*
X0051380Y0300381D01*
X0051449Y0300395D01*
X0051518Y0300413D01*
X0051586Y0300434D01*
X0051653Y0300459D01*
X0051718Y0300488D01*
X0051782Y0300520D01*
X0051843Y0300555D01*
X0051903Y0300593D01*
X0051961Y0300635D01*
X0052016Y0300680D01*
X0052070Y0300727D01*
X0052120Y0300777D01*
X0052168Y0300830D01*
X0052213Y0300885D01*
X0052254Y0300943D01*
X0052293Y0301002D01*
X0052329Y0301064D01*
X0052361Y0301127D01*
X0052390Y0301193D01*
X0052415Y0301259D01*
X0052437Y0301327D01*
X0052455Y0301396D01*
X0052470Y0301465D01*
X0052480Y0301535D01*
X0052487Y0301606D01*
X0052491Y0301677D01*
X0052490Y0301748D01*
X0052490Y0301749D02*
X0052491Y0301820D01*
X0052487Y0301891D01*
X0052480Y0301962D01*
X0052470Y0302032D01*
X0052455Y0302101D01*
X0052437Y0302170D01*
X0052415Y0302238D01*
X0052390Y0302304D01*
X0052361Y0302370D01*
X0052329Y0302433D01*
X0052293Y0302495D01*
X0052254Y0302554D01*
X0052213Y0302612D01*
X0052168Y0302667D01*
X0052120Y0302720D01*
X0052070Y0302770D01*
X0052016Y0302817D01*
X0051961Y0302862D01*
X0051903Y0302904D01*
X0051843Y0302942D01*
X0051782Y0302977D01*
X0051718Y0303009D01*
X0051653Y0303038D01*
X0051586Y0303063D01*
X0051518Y0303084D01*
X0051449Y0303102D01*
X0051380Y0303116D01*
X0051309Y0303126D01*
X0061270Y0301846D02*
X0062844Y0301846D01*
X0062844Y0301847D02*
X0062914Y0301846D01*
X0062983Y0301841D01*
X0063052Y0301833D01*
X0063121Y0301821D01*
X0063188Y0301805D01*
X0063255Y0301785D01*
X0063321Y0301761D01*
X0063385Y0301734D01*
X0063447Y0301704D01*
X0063508Y0301670D01*
X0063567Y0301633D01*
X0063624Y0301592D01*
X0063678Y0301549D01*
X0063730Y0301502D01*
X0063779Y0301453D01*
X0063826Y0301401D01*
X0063869Y0301347D01*
X0063910Y0301290D01*
X0063947Y0301231D01*
X0063981Y0301170D01*
X0064011Y0301108D01*
X0064038Y0301044D01*
X0064062Y0300978D01*
X0064082Y0300911D01*
X0064098Y0300844D01*
X0064110Y0300775D01*
X0064118Y0300706D01*
X0064123Y0300637D01*
X0064124Y0300567D01*
X0064122Y0300498D01*
X0064116Y0300429D01*
X0064107Y0300360D01*
X0064094Y0300292D01*
X0064077Y0300225D01*
X0064057Y0300158D01*
X0064033Y0300093D01*
X0064006Y0300030D01*
X0063975Y0299967D01*
X0063941Y0299907D01*
X0063903Y0299849D01*
X0063863Y0299792D01*
X0063820Y0299738D01*
X0063773Y0299687D01*
X0063724Y0299638D01*
X0063673Y0299591D01*
X0063619Y0299548D01*
X0063562Y0299508D01*
X0063504Y0299470D01*
X0063444Y0299436D01*
X0063381Y0299405D01*
X0063318Y0299378D01*
X0063253Y0299354D01*
X0063186Y0299334D01*
X0063119Y0299317D01*
X0063051Y0299304D01*
X0062982Y0299295D01*
X0062913Y0299289D01*
X0062844Y0299287D01*
X0061270Y0299287D01*
X0061203Y0299283D01*
X0061136Y0299283D01*
X0061068Y0299287D01*
X0061002Y0299295D01*
X0060935Y0299306D01*
X0060870Y0299322D01*
X0060805Y0299341D01*
X0060742Y0299363D01*
X0060680Y0299389D01*
X0060619Y0299419D01*
X0060561Y0299452D01*
X0060504Y0299488D01*
X0060450Y0299528D01*
X0060397Y0299570D01*
X0060348Y0299616D01*
X0060301Y0299664D01*
X0060257Y0299715D01*
X0060215Y0299768D01*
X0060177Y0299823D01*
X0060143Y0299881D01*
X0060111Y0299940D01*
X0060083Y0300002D01*
X0060058Y0300064D01*
X0060037Y0300128D01*
X0060020Y0300193D01*
X0060007Y0300259D01*
X0059997Y0300326D01*
X0059991Y0300393D01*
X0059989Y0300460D01*
X0059991Y0300527D01*
X0059990Y0300527D02*
X0059993Y0300600D01*
X0060000Y0300672D01*
X0060011Y0300743D01*
X0060025Y0300814D01*
X0060043Y0300884D01*
X0060066Y0300953D01*
X0060091Y0301021D01*
X0060121Y0301087D01*
X0060154Y0301151D01*
X0060190Y0301214D01*
X0060230Y0301274D01*
X0060273Y0301333D01*
X0060319Y0301388D01*
X0060368Y0301442D01*
X0060419Y0301492D01*
X0060474Y0301540D01*
X0060531Y0301585D01*
X0060590Y0301626D01*
X0060651Y0301664D01*
X0060715Y0301699D01*
X0060780Y0301731D01*
X0060847Y0301758D01*
X0060915Y0301783D01*
X0060984Y0301803D01*
X0061055Y0301820D01*
X0061126Y0301833D01*
X0061198Y0301842D01*
X0061270Y0301847D01*
X0061270Y0282713D02*
X0062844Y0282713D01*
X0062914Y0282712D01*
X0062983Y0282707D01*
X0063052Y0282699D01*
X0063121Y0282687D01*
X0063188Y0282671D01*
X0063255Y0282651D01*
X0063321Y0282627D01*
X0063385Y0282600D01*
X0063447Y0282570D01*
X0063508Y0282536D01*
X0063567Y0282499D01*
X0063624Y0282458D01*
X0063678Y0282415D01*
X0063730Y0282368D01*
X0063779Y0282319D01*
X0063826Y0282267D01*
X0063869Y0282213D01*
X0063910Y0282156D01*
X0063947Y0282097D01*
X0063981Y0282036D01*
X0064011Y0281974D01*
X0064038Y0281910D01*
X0064062Y0281844D01*
X0064082Y0281777D01*
X0064098Y0281710D01*
X0064110Y0281641D01*
X0064118Y0281572D01*
X0064123Y0281503D01*
X0064124Y0281433D01*
X0064122Y0281364D01*
X0064116Y0281295D01*
X0064107Y0281226D01*
X0064094Y0281158D01*
X0064077Y0281091D01*
X0064057Y0281024D01*
X0064033Y0280959D01*
X0064006Y0280896D01*
X0063975Y0280833D01*
X0063941Y0280773D01*
X0063903Y0280715D01*
X0063863Y0280658D01*
X0063820Y0280604D01*
X0063773Y0280553D01*
X0063724Y0280504D01*
X0063673Y0280457D01*
X0063619Y0280414D01*
X0063562Y0280374D01*
X0063504Y0280336D01*
X0063444Y0280302D01*
X0063381Y0280271D01*
X0063318Y0280244D01*
X0063253Y0280220D01*
X0063186Y0280200D01*
X0063119Y0280183D01*
X0063051Y0280170D01*
X0062982Y0280161D01*
X0062913Y0280155D01*
X0062844Y0280153D01*
X0062844Y0280154D02*
X0061270Y0280154D01*
X0061270Y0280153D02*
X0061203Y0280149D01*
X0061136Y0280149D01*
X0061068Y0280153D01*
X0061002Y0280161D01*
X0060935Y0280172D01*
X0060870Y0280188D01*
X0060805Y0280207D01*
X0060742Y0280229D01*
X0060680Y0280255D01*
X0060619Y0280285D01*
X0060561Y0280318D01*
X0060504Y0280354D01*
X0060450Y0280394D01*
X0060397Y0280436D01*
X0060348Y0280482D01*
X0060301Y0280530D01*
X0060257Y0280581D01*
X0060215Y0280634D01*
X0060177Y0280689D01*
X0060143Y0280747D01*
X0060111Y0280806D01*
X0060083Y0280868D01*
X0060058Y0280930D01*
X0060037Y0280994D01*
X0060020Y0281059D01*
X0060007Y0281125D01*
X0059997Y0281192D01*
X0059991Y0281259D01*
X0059989Y0281326D01*
X0059991Y0281393D01*
X0059990Y0281393D02*
X0059993Y0281466D01*
X0060000Y0281538D01*
X0060011Y0281609D01*
X0060025Y0281680D01*
X0060043Y0281750D01*
X0060066Y0281819D01*
X0060091Y0281887D01*
X0060121Y0281953D01*
X0060154Y0282017D01*
X0060190Y0282080D01*
X0060230Y0282140D01*
X0060273Y0282199D01*
X0060319Y0282254D01*
X0060368Y0282308D01*
X0060419Y0282358D01*
X0060474Y0282406D01*
X0060531Y0282451D01*
X0060590Y0282492D01*
X0060651Y0282530D01*
X0060715Y0282565D01*
X0060780Y0282597D01*
X0060847Y0282624D01*
X0060915Y0282649D01*
X0060984Y0282669D01*
X0061055Y0282686D01*
X0061126Y0282699D01*
X0061198Y0282708D01*
X0061270Y0282713D01*
X0051309Y0281630D02*
X0048947Y0281630D01*
X0048947Y0281629D02*
X0048876Y0281619D01*
X0048807Y0281605D01*
X0048738Y0281587D01*
X0048670Y0281566D01*
X0048603Y0281541D01*
X0048538Y0281512D01*
X0048474Y0281480D01*
X0048413Y0281445D01*
X0048353Y0281407D01*
X0048295Y0281365D01*
X0048240Y0281320D01*
X0048186Y0281273D01*
X0048136Y0281223D01*
X0048088Y0281170D01*
X0048043Y0281115D01*
X0048002Y0281057D01*
X0047963Y0280998D01*
X0047927Y0280936D01*
X0047895Y0280873D01*
X0047866Y0280807D01*
X0047841Y0280741D01*
X0047819Y0280673D01*
X0047801Y0280604D01*
X0047786Y0280535D01*
X0047776Y0280465D01*
X0047769Y0280394D01*
X0047765Y0280323D01*
X0047766Y0280252D01*
X0047766Y0280251D02*
X0047765Y0280180D01*
X0047769Y0280109D01*
X0047776Y0280038D01*
X0047786Y0279968D01*
X0047801Y0279899D01*
X0047819Y0279830D01*
X0047841Y0279762D01*
X0047866Y0279696D01*
X0047895Y0279630D01*
X0047927Y0279567D01*
X0047963Y0279505D01*
X0048002Y0279446D01*
X0048043Y0279388D01*
X0048088Y0279333D01*
X0048136Y0279280D01*
X0048186Y0279230D01*
X0048240Y0279183D01*
X0048295Y0279138D01*
X0048353Y0279096D01*
X0048413Y0279058D01*
X0048474Y0279023D01*
X0048538Y0278991D01*
X0048603Y0278962D01*
X0048670Y0278937D01*
X0048738Y0278916D01*
X0048807Y0278898D01*
X0048876Y0278884D01*
X0048947Y0278874D01*
X0051309Y0278874D01*
X0051380Y0278884D01*
X0051449Y0278898D01*
X0051518Y0278916D01*
X0051586Y0278937D01*
X0051653Y0278962D01*
X0051718Y0278991D01*
X0051782Y0279023D01*
X0051843Y0279058D01*
X0051903Y0279096D01*
X0051961Y0279138D01*
X0052016Y0279183D01*
X0052070Y0279230D01*
X0052120Y0279280D01*
X0052168Y0279333D01*
X0052213Y0279388D01*
X0052254Y0279446D01*
X0052293Y0279505D01*
X0052329Y0279567D01*
X0052361Y0279630D01*
X0052390Y0279696D01*
X0052415Y0279762D01*
X0052437Y0279830D01*
X0052455Y0279899D01*
X0052470Y0279968D01*
X0052480Y0280038D01*
X0052487Y0280109D01*
X0052491Y0280180D01*
X0052490Y0280251D01*
X0052490Y0280252D02*
X0052491Y0280323D01*
X0052487Y0280394D01*
X0052480Y0280465D01*
X0052470Y0280535D01*
X0052455Y0280604D01*
X0052437Y0280673D01*
X0052415Y0280741D01*
X0052390Y0280807D01*
X0052361Y0280873D01*
X0052329Y0280936D01*
X0052293Y0280998D01*
X0052254Y0281057D01*
X0052213Y0281115D01*
X0052168Y0281170D01*
X0052120Y0281223D01*
X0052070Y0281273D01*
X0052016Y0281320D01*
X0051961Y0281365D01*
X0051903Y0281407D01*
X0051843Y0281445D01*
X0051782Y0281480D01*
X0051718Y0281512D01*
X0051653Y0281541D01*
X0051586Y0281566D01*
X0051518Y0281587D01*
X0051449Y0281605D01*
X0051380Y0281619D01*
X0051309Y0281629D01*
X0051309Y0128626D02*
X0048947Y0128626D01*
X0048876Y0128616D01*
X0048807Y0128602D01*
X0048738Y0128584D01*
X0048670Y0128563D01*
X0048603Y0128538D01*
X0048538Y0128509D01*
X0048474Y0128477D01*
X0048413Y0128442D01*
X0048353Y0128404D01*
X0048295Y0128362D01*
X0048240Y0128317D01*
X0048186Y0128270D01*
X0048136Y0128220D01*
X0048088Y0128167D01*
X0048043Y0128112D01*
X0048002Y0128054D01*
X0047963Y0127995D01*
X0047927Y0127933D01*
X0047895Y0127870D01*
X0047866Y0127804D01*
X0047841Y0127738D01*
X0047819Y0127670D01*
X0047801Y0127601D01*
X0047786Y0127532D01*
X0047776Y0127462D01*
X0047769Y0127391D01*
X0047765Y0127320D01*
X0047766Y0127249D01*
X0047766Y0127248D02*
X0047765Y0127177D01*
X0047769Y0127106D01*
X0047776Y0127035D01*
X0047786Y0126965D01*
X0047801Y0126896D01*
X0047819Y0126827D01*
X0047841Y0126759D01*
X0047866Y0126693D01*
X0047895Y0126627D01*
X0047927Y0126564D01*
X0047963Y0126502D01*
X0048002Y0126443D01*
X0048043Y0126385D01*
X0048088Y0126330D01*
X0048136Y0126277D01*
X0048186Y0126227D01*
X0048240Y0126180D01*
X0048295Y0126135D01*
X0048353Y0126093D01*
X0048413Y0126055D01*
X0048474Y0126020D01*
X0048538Y0125988D01*
X0048603Y0125959D01*
X0048670Y0125934D01*
X0048738Y0125913D01*
X0048807Y0125895D01*
X0048876Y0125881D01*
X0048947Y0125871D01*
X0048947Y0125870D02*
X0051309Y0125870D01*
X0051309Y0125871D02*
X0051380Y0125881D01*
X0051449Y0125895D01*
X0051518Y0125913D01*
X0051586Y0125934D01*
X0051653Y0125959D01*
X0051718Y0125988D01*
X0051782Y0126020D01*
X0051843Y0126055D01*
X0051903Y0126093D01*
X0051961Y0126135D01*
X0052016Y0126180D01*
X0052070Y0126227D01*
X0052120Y0126277D01*
X0052168Y0126330D01*
X0052213Y0126385D01*
X0052254Y0126443D01*
X0052293Y0126502D01*
X0052329Y0126564D01*
X0052361Y0126627D01*
X0052390Y0126693D01*
X0052415Y0126759D01*
X0052437Y0126827D01*
X0052455Y0126896D01*
X0052470Y0126965D01*
X0052480Y0127035D01*
X0052487Y0127106D01*
X0052491Y0127177D01*
X0052490Y0127248D01*
X0052490Y0127249D02*
X0052491Y0127320D01*
X0052487Y0127391D01*
X0052480Y0127462D01*
X0052470Y0127532D01*
X0052455Y0127601D01*
X0052437Y0127670D01*
X0052415Y0127738D01*
X0052390Y0127804D01*
X0052361Y0127870D01*
X0052329Y0127933D01*
X0052293Y0127995D01*
X0052254Y0128054D01*
X0052213Y0128112D01*
X0052168Y0128167D01*
X0052120Y0128220D01*
X0052070Y0128270D01*
X0052016Y0128317D01*
X0051961Y0128362D01*
X0051903Y0128404D01*
X0051843Y0128442D01*
X0051782Y0128477D01*
X0051718Y0128509D01*
X0051653Y0128538D01*
X0051586Y0128563D01*
X0051518Y0128584D01*
X0051449Y0128602D01*
X0051380Y0128616D01*
X0051309Y0128626D01*
X0061270Y0127346D02*
X0062844Y0127346D01*
X0062844Y0127347D02*
X0062914Y0127346D01*
X0062983Y0127341D01*
X0063052Y0127333D01*
X0063121Y0127321D01*
X0063188Y0127305D01*
X0063255Y0127285D01*
X0063321Y0127261D01*
X0063385Y0127234D01*
X0063447Y0127204D01*
X0063508Y0127170D01*
X0063567Y0127133D01*
X0063624Y0127092D01*
X0063678Y0127049D01*
X0063730Y0127002D01*
X0063779Y0126953D01*
X0063826Y0126901D01*
X0063869Y0126847D01*
X0063910Y0126790D01*
X0063947Y0126731D01*
X0063981Y0126670D01*
X0064011Y0126608D01*
X0064038Y0126544D01*
X0064062Y0126478D01*
X0064082Y0126411D01*
X0064098Y0126344D01*
X0064110Y0126275D01*
X0064118Y0126206D01*
X0064123Y0126137D01*
X0064124Y0126067D01*
X0064122Y0125998D01*
X0064116Y0125929D01*
X0064107Y0125860D01*
X0064094Y0125792D01*
X0064077Y0125725D01*
X0064057Y0125658D01*
X0064033Y0125593D01*
X0064006Y0125530D01*
X0063975Y0125467D01*
X0063941Y0125407D01*
X0063903Y0125349D01*
X0063863Y0125292D01*
X0063820Y0125238D01*
X0063773Y0125187D01*
X0063724Y0125138D01*
X0063673Y0125091D01*
X0063619Y0125048D01*
X0063562Y0125008D01*
X0063504Y0124970D01*
X0063444Y0124936D01*
X0063381Y0124905D01*
X0063318Y0124878D01*
X0063253Y0124854D01*
X0063186Y0124834D01*
X0063119Y0124817D01*
X0063051Y0124804D01*
X0062982Y0124795D01*
X0062913Y0124789D01*
X0062844Y0124787D01*
X0061270Y0124787D01*
X0061203Y0124783D01*
X0061136Y0124783D01*
X0061068Y0124787D01*
X0061002Y0124795D01*
X0060935Y0124806D01*
X0060870Y0124822D01*
X0060805Y0124841D01*
X0060742Y0124863D01*
X0060680Y0124889D01*
X0060619Y0124919D01*
X0060561Y0124952D01*
X0060504Y0124988D01*
X0060450Y0125028D01*
X0060397Y0125070D01*
X0060348Y0125116D01*
X0060301Y0125164D01*
X0060257Y0125215D01*
X0060215Y0125268D01*
X0060177Y0125323D01*
X0060143Y0125381D01*
X0060111Y0125440D01*
X0060083Y0125502D01*
X0060058Y0125564D01*
X0060037Y0125628D01*
X0060020Y0125693D01*
X0060007Y0125759D01*
X0059997Y0125826D01*
X0059991Y0125893D01*
X0059989Y0125960D01*
X0059991Y0126027D01*
X0059990Y0126027D02*
X0059993Y0126100D01*
X0060000Y0126172D01*
X0060011Y0126243D01*
X0060025Y0126314D01*
X0060043Y0126384D01*
X0060066Y0126453D01*
X0060091Y0126521D01*
X0060121Y0126587D01*
X0060154Y0126651D01*
X0060190Y0126714D01*
X0060230Y0126774D01*
X0060273Y0126833D01*
X0060319Y0126888D01*
X0060368Y0126942D01*
X0060419Y0126992D01*
X0060474Y0127040D01*
X0060531Y0127085D01*
X0060590Y0127126D01*
X0060651Y0127164D01*
X0060715Y0127199D01*
X0060780Y0127231D01*
X0060847Y0127258D01*
X0060915Y0127283D01*
X0060984Y0127303D01*
X0061055Y0127320D01*
X0061126Y0127333D01*
X0061198Y0127342D01*
X0061270Y0127347D01*
X0061270Y0108213D02*
X0062844Y0108213D01*
X0062914Y0108212D01*
X0062983Y0108207D01*
X0063052Y0108199D01*
X0063121Y0108187D01*
X0063188Y0108171D01*
X0063255Y0108151D01*
X0063321Y0108127D01*
X0063385Y0108100D01*
X0063447Y0108070D01*
X0063508Y0108036D01*
X0063567Y0107999D01*
X0063624Y0107958D01*
X0063678Y0107915D01*
X0063730Y0107868D01*
X0063779Y0107819D01*
X0063826Y0107767D01*
X0063869Y0107713D01*
X0063910Y0107656D01*
X0063947Y0107597D01*
X0063981Y0107536D01*
X0064011Y0107474D01*
X0064038Y0107410D01*
X0064062Y0107344D01*
X0064082Y0107277D01*
X0064098Y0107210D01*
X0064110Y0107141D01*
X0064118Y0107072D01*
X0064123Y0107003D01*
X0064124Y0106933D01*
X0064122Y0106864D01*
X0064116Y0106795D01*
X0064107Y0106726D01*
X0064094Y0106658D01*
X0064077Y0106591D01*
X0064057Y0106524D01*
X0064033Y0106459D01*
X0064006Y0106396D01*
X0063975Y0106333D01*
X0063941Y0106273D01*
X0063903Y0106215D01*
X0063863Y0106158D01*
X0063820Y0106104D01*
X0063773Y0106053D01*
X0063724Y0106004D01*
X0063673Y0105957D01*
X0063619Y0105914D01*
X0063562Y0105874D01*
X0063504Y0105836D01*
X0063444Y0105802D01*
X0063381Y0105771D01*
X0063318Y0105744D01*
X0063253Y0105720D01*
X0063186Y0105700D01*
X0063119Y0105683D01*
X0063051Y0105670D01*
X0062982Y0105661D01*
X0062913Y0105655D01*
X0062844Y0105653D01*
X0062844Y0105654D02*
X0061270Y0105654D01*
X0061270Y0105653D02*
X0061203Y0105649D01*
X0061136Y0105649D01*
X0061068Y0105653D01*
X0061002Y0105661D01*
X0060935Y0105672D01*
X0060870Y0105688D01*
X0060805Y0105707D01*
X0060742Y0105729D01*
X0060680Y0105755D01*
X0060619Y0105785D01*
X0060561Y0105818D01*
X0060504Y0105854D01*
X0060450Y0105894D01*
X0060397Y0105936D01*
X0060348Y0105982D01*
X0060301Y0106030D01*
X0060257Y0106081D01*
X0060215Y0106134D01*
X0060177Y0106189D01*
X0060143Y0106247D01*
X0060111Y0106306D01*
X0060083Y0106368D01*
X0060058Y0106430D01*
X0060037Y0106494D01*
X0060020Y0106559D01*
X0060007Y0106625D01*
X0059997Y0106692D01*
X0059991Y0106759D01*
X0059989Y0106826D01*
X0059991Y0106893D01*
X0059990Y0106893D02*
X0059993Y0106966D01*
X0060000Y0107038D01*
X0060011Y0107109D01*
X0060025Y0107180D01*
X0060043Y0107250D01*
X0060066Y0107319D01*
X0060091Y0107387D01*
X0060121Y0107453D01*
X0060154Y0107517D01*
X0060190Y0107580D01*
X0060230Y0107640D01*
X0060273Y0107699D01*
X0060319Y0107754D01*
X0060368Y0107808D01*
X0060419Y0107858D01*
X0060474Y0107906D01*
X0060531Y0107951D01*
X0060590Y0107992D01*
X0060651Y0108030D01*
X0060715Y0108065D01*
X0060780Y0108097D01*
X0060847Y0108124D01*
X0060915Y0108149D01*
X0060984Y0108169D01*
X0061055Y0108186D01*
X0061126Y0108199D01*
X0061198Y0108208D01*
X0061270Y0108213D01*
X0051309Y0107130D02*
X0048947Y0107130D01*
X0048947Y0107129D02*
X0048876Y0107119D01*
X0048807Y0107105D01*
X0048738Y0107087D01*
X0048670Y0107066D01*
X0048603Y0107041D01*
X0048538Y0107012D01*
X0048474Y0106980D01*
X0048413Y0106945D01*
X0048353Y0106907D01*
X0048295Y0106865D01*
X0048240Y0106820D01*
X0048186Y0106773D01*
X0048136Y0106723D01*
X0048088Y0106670D01*
X0048043Y0106615D01*
X0048002Y0106557D01*
X0047963Y0106498D01*
X0047927Y0106436D01*
X0047895Y0106373D01*
X0047866Y0106307D01*
X0047841Y0106241D01*
X0047819Y0106173D01*
X0047801Y0106104D01*
X0047786Y0106035D01*
X0047776Y0105965D01*
X0047769Y0105894D01*
X0047765Y0105823D01*
X0047766Y0105752D01*
X0047766Y0105751D02*
X0047765Y0105680D01*
X0047769Y0105609D01*
X0047776Y0105538D01*
X0047786Y0105468D01*
X0047801Y0105399D01*
X0047819Y0105330D01*
X0047841Y0105262D01*
X0047866Y0105196D01*
X0047895Y0105130D01*
X0047927Y0105067D01*
X0047963Y0105005D01*
X0048002Y0104946D01*
X0048043Y0104888D01*
X0048088Y0104833D01*
X0048136Y0104780D01*
X0048186Y0104730D01*
X0048240Y0104683D01*
X0048295Y0104638D01*
X0048353Y0104596D01*
X0048413Y0104558D01*
X0048474Y0104523D01*
X0048538Y0104491D01*
X0048603Y0104462D01*
X0048670Y0104437D01*
X0048738Y0104416D01*
X0048807Y0104398D01*
X0048876Y0104384D01*
X0048947Y0104374D01*
X0051309Y0104374D01*
X0051380Y0104384D01*
X0051449Y0104398D01*
X0051518Y0104416D01*
X0051586Y0104437D01*
X0051653Y0104462D01*
X0051718Y0104491D01*
X0051782Y0104523D01*
X0051843Y0104558D01*
X0051903Y0104596D01*
X0051961Y0104638D01*
X0052016Y0104683D01*
X0052070Y0104730D01*
X0052120Y0104780D01*
X0052168Y0104833D01*
X0052213Y0104888D01*
X0052254Y0104946D01*
X0052293Y0105005D01*
X0052329Y0105067D01*
X0052361Y0105130D01*
X0052390Y0105196D01*
X0052415Y0105262D01*
X0052437Y0105330D01*
X0052455Y0105399D01*
X0052470Y0105468D01*
X0052480Y0105538D01*
X0052487Y0105609D01*
X0052491Y0105680D01*
X0052490Y0105751D01*
X0052490Y0105752D02*
X0052491Y0105823D01*
X0052487Y0105894D01*
X0052480Y0105965D01*
X0052470Y0106035D01*
X0052455Y0106104D01*
X0052437Y0106173D01*
X0052415Y0106241D01*
X0052390Y0106307D01*
X0052361Y0106373D01*
X0052329Y0106436D01*
X0052293Y0106498D01*
X0052254Y0106557D01*
X0052213Y0106615D01*
X0052168Y0106670D01*
X0052120Y0106723D01*
X0052070Y0106773D01*
X0052016Y0106820D01*
X0051961Y0106865D01*
X0051903Y0106907D01*
X0051843Y0106945D01*
X0051782Y0106980D01*
X0051718Y0107012D01*
X0051653Y0107041D01*
X0051586Y0107066D01*
X0051518Y0107087D01*
X0051449Y0107105D01*
X0051380Y0107119D01*
X0051309Y0107129D01*
X0051309Y0081126D02*
X0048947Y0081126D01*
X0048876Y0081116D01*
X0048807Y0081102D01*
X0048738Y0081084D01*
X0048670Y0081063D01*
X0048603Y0081038D01*
X0048538Y0081009D01*
X0048474Y0080977D01*
X0048413Y0080942D01*
X0048353Y0080904D01*
X0048295Y0080862D01*
X0048240Y0080817D01*
X0048186Y0080770D01*
X0048136Y0080720D01*
X0048088Y0080667D01*
X0048043Y0080612D01*
X0048002Y0080554D01*
X0047963Y0080495D01*
X0047927Y0080433D01*
X0047895Y0080370D01*
X0047866Y0080304D01*
X0047841Y0080238D01*
X0047819Y0080170D01*
X0047801Y0080101D01*
X0047786Y0080032D01*
X0047776Y0079962D01*
X0047769Y0079891D01*
X0047765Y0079820D01*
X0047766Y0079749D01*
X0047766Y0079748D02*
X0047765Y0079677D01*
X0047769Y0079606D01*
X0047776Y0079535D01*
X0047786Y0079465D01*
X0047801Y0079396D01*
X0047819Y0079327D01*
X0047841Y0079259D01*
X0047866Y0079193D01*
X0047895Y0079127D01*
X0047927Y0079064D01*
X0047963Y0079002D01*
X0048002Y0078943D01*
X0048043Y0078885D01*
X0048088Y0078830D01*
X0048136Y0078777D01*
X0048186Y0078727D01*
X0048240Y0078680D01*
X0048295Y0078635D01*
X0048353Y0078593D01*
X0048413Y0078555D01*
X0048474Y0078520D01*
X0048538Y0078488D01*
X0048603Y0078459D01*
X0048670Y0078434D01*
X0048738Y0078413D01*
X0048807Y0078395D01*
X0048876Y0078381D01*
X0048947Y0078371D01*
X0048947Y0078370D02*
X0051309Y0078370D01*
X0051309Y0078371D02*
X0051380Y0078381D01*
X0051449Y0078395D01*
X0051518Y0078413D01*
X0051586Y0078434D01*
X0051653Y0078459D01*
X0051718Y0078488D01*
X0051782Y0078520D01*
X0051843Y0078555D01*
X0051903Y0078593D01*
X0051961Y0078635D01*
X0052016Y0078680D01*
X0052070Y0078727D01*
X0052120Y0078777D01*
X0052168Y0078830D01*
X0052213Y0078885D01*
X0052254Y0078943D01*
X0052293Y0079002D01*
X0052329Y0079064D01*
X0052361Y0079127D01*
X0052390Y0079193D01*
X0052415Y0079259D01*
X0052437Y0079327D01*
X0052455Y0079396D01*
X0052470Y0079465D01*
X0052480Y0079535D01*
X0052487Y0079606D01*
X0052491Y0079677D01*
X0052490Y0079748D01*
X0052490Y0079749D02*
X0052491Y0079820D01*
X0052487Y0079891D01*
X0052480Y0079962D01*
X0052470Y0080032D01*
X0052455Y0080101D01*
X0052437Y0080170D01*
X0052415Y0080238D01*
X0052390Y0080304D01*
X0052361Y0080370D01*
X0052329Y0080433D01*
X0052293Y0080495D01*
X0052254Y0080554D01*
X0052213Y0080612D01*
X0052168Y0080667D01*
X0052120Y0080720D01*
X0052070Y0080770D01*
X0052016Y0080817D01*
X0051961Y0080862D01*
X0051903Y0080904D01*
X0051843Y0080942D01*
X0051782Y0080977D01*
X0051718Y0081009D01*
X0051653Y0081038D01*
X0051586Y0081063D01*
X0051518Y0081084D01*
X0051449Y0081102D01*
X0051380Y0081116D01*
X0051309Y0081126D01*
X0061270Y0079846D02*
X0062844Y0079846D01*
X0062844Y0079847D02*
X0062914Y0079846D01*
X0062983Y0079841D01*
X0063052Y0079833D01*
X0063121Y0079821D01*
X0063188Y0079805D01*
X0063255Y0079785D01*
X0063321Y0079761D01*
X0063385Y0079734D01*
X0063447Y0079704D01*
X0063508Y0079670D01*
X0063567Y0079633D01*
X0063624Y0079592D01*
X0063678Y0079549D01*
X0063730Y0079502D01*
X0063779Y0079453D01*
X0063826Y0079401D01*
X0063869Y0079347D01*
X0063910Y0079290D01*
X0063947Y0079231D01*
X0063981Y0079170D01*
X0064011Y0079108D01*
X0064038Y0079044D01*
X0064062Y0078978D01*
X0064082Y0078911D01*
X0064098Y0078844D01*
X0064110Y0078775D01*
X0064118Y0078706D01*
X0064123Y0078637D01*
X0064124Y0078567D01*
X0064122Y0078498D01*
X0064116Y0078429D01*
X0064107Y0078360D01*
X0064094Y0078292D01*
X0064077Y0078225D01*
X0064057Y0078158D01*
X0064033Y0078093D01*
X0064006Y0078030D01*
X0063975Y0077967D01*
X0063941Y0077907D01*
X0063903Y0077849D01*
X0063863Y0077792D01*
X0063820Y0077738D01*
X0063773Y0077687D01*
X0063724Y0077638D01*
X0063673Y0077591D01*
X0063619Y0077548D01*
X0063562Y0077508D01*
X0063504Y0077470D01*
X0063444Y0077436D01*
X0063381Y0077405D01*
X0063318Y0077378D01*
X0063253Y0077354D01*
X0063186Y0077334D01*
X0063119Y0077317D01*
X0063051Y0077304D01*
X0062982Y0077295D01*
X0062913Y0077289D01*
X0062844Y0077287D01*
X0061270Y0077287D01*
X0061203Y0077283D01*
X0061136Y0077283D01*
X0061068Y0077287D01*
X0061002Y0077295D01*
X0060935Y0077306D01*
X0060870Y0077322D01*
X0060805Y0077341D01*
X0060742Y0077363D01*
X0060680Y0077389D01*
X0060619Y0077419D01*
X0060561Y0077452D01*
X0060504Y0077488D01*
X0060450Y0077528D01*
X0060397Y0077570D01*
X0060348Y0077616D01*
X0060301Y0077664D01*
X0060257Y0077715D01*
X0060215Y0077768D01*
X0060177Y0077823D01*
X0060143Y0077881D01*
X0060111Y0077940D01*
X0060083Y0078002D01*
X0060058Y0078064D01*
X0060037Y0078128D01*
X0060020Y0078193D01*
X0060007Y0078259D01*
X0059997Y0078326D01*
X0059991Y0078393D01*
X0059989Y0078460D01*
X0059991Y0078527D01*
X0059990Y0078527D02*
X0059993Y0078600D01*
X0060000Y0078672D01*
X0060011Y0078743D01*
X0060025Y0078814D01*
X0060043Y0078884D01*
X0060066Y0078953D01*
X0060091Y0079021D01*
X0060121Y0079087D01*
X0060154Y0079151D01*
X0060190Y0079214D01*
X0060230Y0079274D01*
X0060273Y0079333D01*
X0060319Y0079388D01*
X0060368Y0079442D01*
X0060419Y0079492D01*
X0060474Y0079540D01*
X0060531Y0079585D01*
X0060590Y0079626D01*
X0060651Y0079664D01*
X0060715Y0079699D01*
X0060780Y0079731D01*
X0060847Y0079758D01*
X0060915Y0079783D01*
X0060984Y0079803D01*
X0061055Y0079820D01*
X0061126Y0079833D01*
X0061198Y0079842D01*
X0061270Y0079847D01*
X0061270Y0060713D02*
X0062844Y0060713D01*
X0062914Y0060712D01*
X0062983Y0060707D01*
X0063052Y0060699D01*
X0063121Y0060687D01*
X0063188Y0060671D01*
X0063255Y0060651D01*
X0063321Y0060627D01*
X0063385Y0060600D01*
X0063447Y0060570D01*
X0063508Y0060536D01*
X0063567Y0060499D01*
X0063624Y0060458D01*
X0063678Y0060415D01*
X0063730Y0060368D01*
X0063779Y0060319D01*
X0063826Y0060267D01*
X0063869Y0060213D01*
X0063910Y0060156D01*
X0063947Y0060097D01*
X0063981Y0060036D01*
X0064011Y0059974D01*
X0064038Y0059910D01*
X0064062Y0059844D01*
X0064082Y0059777D01*
X0064098Y0059710D01*
X0064110Y0059641D01*
X0064118Y0059572D01*
X0064123Y0059503D01*
X0064124Y0059433D01*
X0064122Y0059364D01*
X0064116Y0059295D01*
X0064107Y0059226D01*
X0064094Y0059158D01*
X0064077Y0059091D01*
X0064057Y0059024D01*
X0064033Y0058959D01*
X0064006Y0058896D01*
X0063975Y0058833D01*
X0063941Y0058773D01*
X0063903Y0058715D01*
X0063863Y0058658D01*
X0063820Y0058604D01*
X0063773Y0058553D01*
X0063724Y0058504D01*
X0063673Y0058457D01*
X0063619Y0058414D01*
X0063562Y0058374D01*
X0063504Y0058336D01*
X0063444Y0058302D01*
X0063381Y0058271D01*
X0063318Y0058244D01*
X0063253Y0058220D01*
X0063186Y0058200D01*
X0063119Y0058183D01*
X0063051Y0058170D01*
X0062982Y0058161D01*
X0062913Y0058155D01*
X0062844Y0058153D01*
X0062844Y0058154D02*
X0061270Y0058154D01*
X0061270Y0058153D02*
X0061203Y0058149D01*
X0061136Y0058149D01*
X0061068Y0058153D01*
X0061002Y0058161D01*
X0060935Y0058172D01*
X0060870Y0058188D01*
X0060805Y0058207D01*
X0060742Y0058229D01*
X0060680Y0058255D01*
X0060619Y0058285D01*
X0060561Y0058318D01*
X0060504Y0058354D01*
X0060450Y0058394D01*
X0060397Y0058436D01*
X0060348Y0058482D01*
X0060301Y0058530D01*
X0060257Y0058581D01*
X0060215Y0058634D01*
X0060177Y0058689D01*
X0060143Y0058747D01*
X0060111Y0058806D01*
X0060083Y0058868D01*
X0060058Y0058930D01*
X0060037Y0058994D01*
X0060020Y0059059D01*
X0060007Y0059125D01*
X0059997Y0059192D01*
X0059991Y0059259D01*
X0059989Y0059326D01*
X0059991Y0059393D01*
X0059990Y0059393D02*
X0059993Y0059466D01*
X0060000Y0059538D01*
X0060011Y0059609D01*
X0060025Y0059680D01*
X0060043Y0059750D01*
X0060066Y0059819D01*
X0060091Y0059887D01*
X0060121Y0059953D01*
X0060154Y0060017D01*
X0060190Y0060080D01*
X0060230Y0060140D01*
X0060273Y0060199D01*
X0060319Y0060254D01*
X0060368Y0060308D01*
X0060419Y0060358D01*
X0060474Y0060406D01*
X0060531Y0060451D01*
X0060590Y0060492D01*
X0060651Y0060530D01*
X0060715Y0060565D01*
X0060780Y0060597D01*
X0060847Y0060624D01*
X0060915Y0060649D01*
X0060984Y0060669D01*
X0061055Y0060686D01*
X0061126Y0060699D01*
X0061198Y0060708D01*
X0061270Y0060713D01*
X0051309Y0059630D02*
X0048947Y0059630D01*
X0048947Y0059629D02*
X0048876Y0059619D01*
X0048807Y0059605D01*
X0048738Y0059587D01*
X0048670Y0059566D01*
X0048603Y0059541D01*
X0048538Y0059512D01*
X0048474Y0059480D01*
X0048413Y0059445D01*
X0048353Y0059407D01*
X0048295Y0059365D01*
X0048240Y0059320D01*
X0048186Y0059273D01*
X0048136Y0059223D01*
X0048088Y0059170D01*
X0048043Y0059115D01*
X0048002Y0059057D01*
X0047963Y0058998D01*
X0047927Y0058936D01*
X0047895Y0058873D01*
X0047866Y0058807D01*
X0047841Y0058741D01*
X0047819Y0058673D01*
X0047801Y0058604D01*
X0047786Y0058535D01*
X0047776Y0058465D01*
X0047769Y0058394D01*
X0047765Y0058323D01*
X0047766Y0058252D01*
X0047766Y0058251D02*
X0047765Y0058180D01*
X0047769Y0058109D01*
X0047776Y0058038D01*
X0047786Y0057968D01*
X0047801Y0057899D01*
X0047819Y0057830D01*
X0047841Y0057762D01*
X0047866Y0057696D01*
X0047895Y0057630D01*
X0047927Y0057567D01*
X0047963Y0057505D01*
X0048002Y0057446D01*
X0048043Y0057388D01*
X0048088Y0057333D01*
X0048136Y0057280D01*
X0048186Y0057230D01*
X0048240Y0057183D01*
X0048295Y0057138D01*
X0048353Y0057096D01*
X0048413Y0057058D01*
X0048474Y0057023D01*
X0048538Y0056991D01*
X0048603Y0056962D01*
X0048670Y0056937D01*
X0048738Y0056916D01*
X0048807Y0056898D01*
X0048876Y0056884D01*
X0048947Y0056874D01*
X0051309Y0056874D01*
X0051380Y0056884D01*
X0051449Y0056898D01*
X0051518Y0056916D01*
X0051586Y0056937D01*
X0051653Y0056962D01*
X0051718Y0056991D01*
X0051782Y0057023D01*
X0051843Y0057058D01*
X0051903Y0057096D01*
X0051961Y0057138D01*
X0052016Y0057183D01*
X0052070Y0057230D01*
X0052120Y0057280D01*
X0052168Y0057333D01*
X0052213Y0057388D01*
X0052254Y0057446D01*
X0052293Y0057505D01*
X0052329Y0057567D01*
X0052361Y0057630D01*
X0052390Y0057696D01*
X0052415Y0057762D01*
X0052437Y0057830D01*
X0052455Y0057899D01*
X0052470Y0057968D01*
X0052480Y0058038D01*
X0052487Y0058109D01*
X0052491Y0058180D01*
X0052490Y0058251D01*
X0052490Y0058252D02*
X0052491Y0058323D01*
X0052487Y0058394D01*
X0052480Y0058465D01*
X0052470Y0058535D01*
X0052455Y0058604D01*
X0052437Y0058673D01*
X0052415Y0058741D01*
X0052390Y0058807D01*
X0052361Y0058873D01*
X0052329Y0058936D01*
X0052293Y0058998D01*
X0052254Y0059057D01*
X0052213Y0059115D01*
X0052168Y0059170D01*
X0052120Y0059223D01*
X0052070Y0059273D01*
X0052016Y0059320D01*
X0051961Y0059365D01*
X0051903Y0059407D01*
X0051843Y0059445D01*
X0051782Y0059480D01*
X0051718Y0059512D01*
X0051653Y0059541D01*
X0051586Y0059566D01*
X0051518Y0059587D01*
X0051449Y0059605D01*
X0051380Y0059619D01*
X0051309Y0059629D01*
M02*
