%
M48
M72
T01C0.0150
T02C0.0200
T03C0.1300
%
T01
X6875Y6200
X7225Y5950
X7575Y6050
X7025Y6700
X6675Y7150
X6725Y7550
X7125Y7750
X7073Y8435
X6975Y8950
X7725Y8200
X8275Y8450
X8625Y8450
X9225Y8500
X10725Y10050
X11255Y9550
X11825Y9550
X12025Y8550
X11575Y8400
X11175Y8450
X11625Y7410
X10705Y6870
X12695Y6880
X13265Y7440
X14635Y6880
X15025Y7495
X15575Y7330
X15975Y8385
X16725Y8700
X16983Y8492
X16885Y7320
X16895Y6870
X17975Y6000
X18155Y6870
X18155Y7310
X18775Y6200
X19425Y5650
X20025Y6200
X20775Y6940
X21515Y6940
X22975Y6950
X23325Y6550
X23625Y7000
X25025Y7350
X25375Y6600
X25375Y5100
X24425Y4450
X24225Y3750
X27075Y4900
X27475Y4050
X28025Y5500
X27325Y6650
X28534Y7609
X28825Y6950
X30375Y6650
X30875Y5850
X32125Y6100
X32275Y6700
X32325Y7550
X31675Y7550
X32675Y8650
X32925Y8400
X33175Y8700
X33374Y9050
X33325Y9550
X33225Y10700
X33675Y10650
X32675Y11600
X31875Y13500
X32425Y14400
X32425Y15100
X32494Y15600
X32729Y16241
X32825Y16890
X32875Y17400
X32240Y17340
X31645Y17300
X31925Y16590
X31492Y16373
X31675Y16090
X30925Y15690
X30925Y15310
X31325Y15290
X31775Y15250
X30815Y16200
X30496Y16318
X30601Y16640
X30825Y16890
X30475Y17400
X29725Y17250
X29325Y17500
X28875Y17350
X28873Y17020
X28875Y16690
X28875Y16150
X28875Y15750
X28875Y15350
X29025Y14740
X29025Y13940
X28975Y13200
X28125Y13000
X28125Y13450
X27425Y13750
X27175Y14650
X27175Y15800
X26375Y16050
X26075Y16250
X25810Y16750
X25525Y16940
X25275Y16600
X26325Y17300
X27375Y17300
X26675Y18850
X26025Y18850
X25725Y19150
X25075Y19250
X24575Y19700
X24625Y20350
X25275Y20500
X24525Y21000
X23723Y21000
X23725Y21450
X22765Y21100
X22425Y21050
X22085Y21100
X20375Y21450
X20325Y19750
X21375Y19200
X22025Y19200
X22025Y18200
X22025Y17850
X22025Y17500
X22675Y17850
X22825Y17500
X22525Y18200
X23425Y19200
X22875Y16600
X24025Y15900
X23775Y15200
X24175Y15050
X23925Y14400
X24778Y13550
X23610Y13000
X23225Y13000
X22540Y11735
X22179Y11656
X22175Y11100
X21525Y10750
X21205Y10840
X20925Y10235
X21205Y10000
X20925Y9750
X20625Y9450
X20325Y10470
X20125Y10750
X20005Y11350
X19675Y11367
X18799Y10745
X19307Y9900
X19125Y9600
X19360Y9350
X18790Y9500
X18525Y9250
X17225Y10200
X16505Y11059
X16225Y11300
X17775Y12350
X19325Y13050
X20285Y12940
X20425Y12600
X20925Y12350
X20953Y12018
X20595Y12030
X20358Y11347
X21475Y12900
X21125Y13100
X20175Y14050
X19925Y14300
X19175Y14750
X18325Y15685
X18025Y15450
X17675Y15200
X17275Y14850
X16425Y13800
X16025Y13565
X15625Y13500
X14475Y13500
X14125Y13200
X14075Y12250
X13975Y11300
X11825Y11300
X11775Y12200
X11775Y13200
X11205Y13530
X11075Y12950
X10175Y12450
X10725Y11250
X8925Y12450
X7725Y12450
X6983Y11942
X6975Y11600
X6675Y11400
X6875Y11000
X6775Y10508
X6825Y9850
X6075Y9250
X5025Y8800
X5025Y9700
X6825Y12300
X7025Y13700
X8025Y14200
X9325Y14300
X8025Y15600
X6825Y16300
X5725Y16100
X5225Y15400
X5225Y14400
X7775Y17000
X6825Y18300
X6425Y18300
X5925Y18700
X4925Y18200
X4925Y17800
X5725Y20250
X6925Y21550
X7075Y21950
X7775Y23250
X8775Y23850
X9775Y23850
X10775Y23250
X11575Y24500
X12325Y23250
X13325Y23950
X14325Y23950
X15325Y23250
X16175Y24550
X17125Y23250
X18125Y23850
X19125Y23250
X20125Y24550
X20925Y25425
X20275Y26150
X20675Y27550
X20025Y28400
X19425Y27850
X18775Y28400
X18425Y27600
X17975Y28200
X18155Y29070
X18155Y29510
X16885Y29520
X16895Y29070
X15575Y29530
X15025Y29695
X14635Y29080
X14675Y28000
X15625Y28100
X15225Y26150
X12875Y26050
X11075Y26050
X9225Y26050
X9175Y27650
X7575Y28250
X7225Y28150
X6875Y28400
X7025Y28900
X6675Y29350
X6725Y29750
X7125Y29950
X7073Y30635
X6975Y31150
X6825Y32050
X6775Y32708
X6875Y33200
X6675Y33600
X6975Y33800
X6983Y34142
X6825Y34500
X7725Y34650
X8925Y34650
X10175Y34650
X11075Y35150
X11205Y35730
X11775Y35400
X12275Y36100
X12875Y36500
X13125Y36250
X14125Y35400
X14475Y35700
X15625Y35700
X16025Y35765
X16425Y36000
X17275Y37050
X17675Y37400
X18025Y37650
X18325Y37885
X18325Y38400
X18325Y39000
X18325Y40250
X18965Y40205
X18125Y41045
X17775Y41400
X18625Y41550
X20325Y41950
X21375Y41400
X22025Y41400
X22025Y40400
X22025Y40050
X22025Y39700
X22675Y40050
X22525Y40400
X22825Y39700
X22875Y38800
X24025Y38100
X23775Y37400
X24175Y37250
X23925Y36600
X24778Y35750
X23610Y35200
X23225Y35200
X22540Y33935
X22179Y33856
X22175Y33300
X21525Y32950
X21205Y33040
X20925Y32435
X21205Y32200
X20925Y31950
X20625Y31650
X20325Y32670
X20125Y32950
X20005Y33550
X19675Y33567
X18799Y32945
X19307Y32100
X19125Y31800
X19360Y31550
X18790Y31700
X18525Y31450
X17225Y32400
X16505Y33259
X16225Y33500
X17775Y34550
X19325Y35250
X20285Y35140
X20425Y34800
X20925Y34550
X20953Y34218
X20595Y34230
X20358Y33547
X21475Y35100
X21125Y35300
X20175Y36250
X19925Y36500
X19175Y36950
X20275Y38200
X21575Y38150
X21605Y37150
X20375Y39550
X23425Y41400
X24575Y41900
X25075Y41450
X25725Y41350
X26025Y41050
X26675Y41050
X26325Y41950
X27125Y41950
X27725Y41350
X28375Y41500
X29025Y41350
X29325Y41050
X29925Y41050
X29625Y41950
X30425Y41950
X31025Y41350
X31675Y41500
X32325Y41350
X32625Y41050
X33225Y41050
X32925Y41950
X31925Y42800
X32925Y42950
X33325Y42950
X33725Y41950
X34325Y41355
X34925Y41550
X35625Y41355
X35875Y41045
X36525Y41050
X36225Y41950
X37025Y41950
X37625Y41350
X37625Y40800
X35233Y42800
X34825Y43450
X34975Y43900
X36295Y42950
X36625Y42950
X38225Y43450
X38375Y44550
X37625Y45450
X36625Y46050
X35625Y45450
X34325Y45450
X33325Y46050
X32325Y45450
X31025Y45450
X30025Y46050
X29025Y45450
X27725Y45450
X26725Y46050
X25725Y45450
X24725Y46750
X23925Y45450
X22925Y46250
X21925Y46250
X20925Y45450
X20125Y46750
X19125Y45450
X18125Y46050
X17125Y45450
X16175Y46750
X15325Y45450
X14325Y46150
X13325Y46150
X12325Y45450
X11575Y46700
X10775Y45450
X9775Y46050
X8775Y46050
X7775Y45450
X6875Y46200
X4975Y44600
X6925Y43750
X7075Y44150
X8875Y42950
X9275Y42950
X9275Y43850
X8875Y41950
X8575Y41250
X7725Y41050
X7575Y41650
X6825Y40500
X6425Y40500
X5925Y40900
X4925Y40400
X4925Y40000
X6825Y38500
X5725Y38300
X5225Y37600
X5225Y36600
X7025Y35900
X8025Y36400
X9325Y36500
X8025Y37800
X7775Y39200
X10075Y40150
X10375Y40455
X9675Y41150
X9675Y41950
X11490Y42115
X11775Y41350
X12825Y41350
X13075Y41045
X13725Y41045
X13425Y41950
X14225Y41950
X14825Y41355
X15325Y41450
X16375Y42300
X15725Y43450
X15275Y43450
X13825Y42950
X13425Y42950
X12375Y43050
X11525Y43450
X12225Y40350
X13625Y38250
X15325Y39850
X17625Y43800
X18625Y43750
X20375Y43650
X22085Y43300
X22425Y43250
X22765Y43300
X23723Y43200
X23725Y43650
X24525Y43200
X24625Y42550
X25275Y42700
X26325Y42995
X26725Y42950
X28225Y43450
X28375Y43950
X29625Y42950
X30025Y42950
X28625Y42750
X31525Y43450
X31675Y43950
X32240Y39540
X31645Y39500
X31925Y38790
X31492Y38573
X31675Y38290
X31775Y37450
X31325Y37490
X30925Y37510
X30925Y37890
X30815Y38400
X30496Y38518
X30601Y38840
X30825Y39090
X30475Y39600
X29725Y39450
X29325Y39700
X28875Y39550
X28873Y39220
X28875Y38890
X28875Y38350
X28875Y37950
X28875Y37550
X29025Y36940
X29025Y36140
X28975Y35400
X28125Y35200
X28125Y35650
X27425Y35950
X27175Y36850
X27175Y38000
X26375Y38250
X26075Y38450
X25810Y38950
X25525Y39140
X25275Y38800
X26325Y39500
X27375Y39500
X30375Y37540
X32425Y37300
X32494Y37800
X32729Y38441
X32825Y39090
X32875Y39600
X34225Y39650
X32425Y36600
X31875Y35700
X30425Y35740
X30525Y34400
X30475Y33750
X30525Y33085
X30425Y32150
X30475Y31550
X30525Y30885
X31675Y29750
X32325Y29750
X32275Y28900
X32125Y28300
X30875Y28050
X30375Y28850
X28825Y29150
X28534Y29809
X27325Y28850
X28025Y27700
X27075Y27100
X27475Y26250
X25375Y27300
X24425Y26650
X24225Y25950
X24725Y24550
X23925Y23250
X22925Y24050
X21925Y24050
X20925Y23250
X18625Y21550
X17625Y21600
X16375Y20100
X15725Y21250
X15275Y21250
X13825Y20750
X13425Y20750
X13425Y19750
X14225Y19750
X14825Y19155
X15325Y19250
X15325Y17650
X13725Y18845
X13075Y18845
X12825Y19150
X11775Y19150
X11490Y19915
X12375Y20850
X11525Y21250
X9675Y19750
X9675Y18950
X10375Y18255
X10075Y17950
X8575Y19050
X8875Y19750
X8875Y20750
X9275Y20750
X9275Y21650
X7575Y19450
X7725Y18850
X4975Y22400
X6875Y24000
X7425Y26000
X10705Y29070
X11625Y29610
X11575Y30600
X11175Y30650
X12025Y30750
X11825Y31750
X11255Y31750
X10725Y32250
X10725Y33450
X11825Y33500
X11775Y34400
X14075Y34450
X13975Y33500
X14725Y31400
X15375Y31100
X15975Y30585
X16725Y30900
X16983Y30692
X19975Y29555
X20775Y29140
X21515Y29140
X22975Y29150
X23325Y28750
X23625Y29200
X25025Y29550
X25375Y28800
X25475Y31300
X25670Y31665
X25925Y31950
X26475Y32975
X28175Y33300
X28325Y32975
X29275Y33750
X28275Y31900
X28275Y31200
X27075Y31300
X24675Y31300
X23575Y31300
X22735Y31150
X22325Y31400
X21975Y31670
X23375Y33000
X25425Y34550
X26075Y34800
X26225Y35100
X32675Y33800
X33225Y32900
X33675Y32850
X33325Y31750
X33374Y31250
X33175Y30900
X32925Y30600
X32675Y30850
X34075Y29700
X34975Y29000
X34625Y28150
X34125Y28150
X33625Y28150
X34025Y26900
X34725Y25350
X33325Y23850
X32325Y23250
X31025Y23250
X30025Y23850
X29025Y23250
X27725Y23250
X26725Y23850
X25725Y23250
X26325Y20795
X26725Y20750
X26325Y19750
X27125Y19750
X27725Y19150
X28375Y19300
X29025Y19150
X29325Y18850
X29925Y18850
X29625Y19750
X30425Y19750
X31025Y19150
X31675Y19300
X32325Y19150
X32625Y18850
X33225Y18850
X32925Y19750
X33725Y19750
X34325Y19155
X34925Y19350
X35625Y19155
X35875Y18845
X36525Y18850
X36225Y19750
X37025Y19750
X37625Y19150
X37625Y18600
X36625Y20750
X36295Y20750
X35233Y20600
X34825Y21250
X34975Y21700
X34325Y23250
X35625Y23250
X36625Y23850
X37625Y23250
X38375Y22350
X38225Y21250
X38525Y24600
X36525Y27166
X35825Y28200
X37125Y28600
X36656Y29450
X36125Y29450
X36775Y31200
X38575Y30700
X38575Y29400
X38575Y28300
X38575Y32050
X38575Y33350
X38225Y33350
X38175Y34000
X38875Y35100
X38625Y35500
X38375Y35832
X37675Y35950
X37125Y35550
X36125Y36550
X35725Y35300
X34225Y35700
X36175Y33800
X35275Y32800
X38525Y37200
X38325Y38050
X38525Y46800
X31275Y26400
X30925Y26300
X30125Y25350
X31675Y21750
X31525Y21250
X31925Y20600
X32925Y20750
X33325Y20750
X30025Y20750
X29625Y20750
X28625Y20550
X28225Y21250
X28375Y21750
X34225Y17450
X36125Y14350
X35725Y13100
X37125Y13350
X37675Y13750
X38375Y13632
X38625Y13300
X38875Y12900
X38175Y11800
X38225Y11150
X38575Y11150
X38575Y9850
X38575Y8500
X38575Y7200
X38575Y6100
X37125Y6400
X36656Y7250
X36125Y7250
X34975Y6800
X34625Y5950
X34125Y5950
X33625Y5950
X34025Y4700
X34725Y3150
X36525Y4966
X35825Y6000
X34075Y7500
X36775Y9000
X35275Y10600
X36175Y11600
X34225Y13500
X30425Y13540
X30525Y12200
X30475Y11550
X30525Y10885
X30425Y9950
X30475Y9350
X30525Y8685
X28275Y9000
X28275Y9700
X28325Y10775
X28175Y11100
X29275Y11550
X27075Y9100
X25925Y9750
X25670Y9465
X25475Y9100
X24675Y9100
X23575Y9100
X22735Y8950
X22325Y9200
X21975Y9470
X23375Y10800
X25425Y12350
X26075Y12600
X26225Y12900
X26475Y10775
X30375Y15340
X38325Y15850
X38525Y15000
X31275Y4200
X30925Y4100
X30125Y3150
X20925Y3225
X20275Y3950
X20675Y5350
X19975Y7355
X18425Y5400
X17825Y3950
X15625Y5900
X14675Y5800
X13225Y5750
X12875Y3850
X11075Y3850
X9225Y3850
X9175Y5450
X7425Y3800
X14725Y9200
X15375Y8900
X15225Y3950
X12275Y13900
X12875Y14300
X13125Y14050
X13625Y16050
X12225Y18150
X17775Y19200
X18125Y18845
X18625Y19350
X18325Y18050
X18965Y18005
X18325Y16800
X18325Y16200
X20275Y16000
X21575Y15950
X21605Y14950
X20375Y17350
X17825Y26150
X13225Y27950
X12695Y29080
X13265Y29640
X9225Y30700
X8625Y30650
X8275Y30650
X7725Y30400
X6075Y31450
X5025Y31000
X5025Y31900
X5725Y42450
T02
X29400Y27925
X29400Y27425
X29400Y26925
X29400Y26425
X29400Y25925
X29900Y25925
X29900Y26425
X29900Y26925
X29900Y27425
X29900Y27925
X29900Y5725
X29900Y5225
X29900Y4725
X29900Y4225
X29900Y3725
X29400Y3725
X29400Y4225
X29400Y4725
X29400Y5225
X29400Y5725
T03
X5525Y4000
X5525Y23700
X5525Y26200
X5525Y45900
X40225Y45900
X40225Y26200
X40225Y23700
X40225Y4000
M30
