G75*
%MOIN*%
%OFA0B0*%
%FSLAX25Y25*%
%IPPOS*%
%LPD*%
%AMOC8*
5,1,8,0,0,1.08239X$1,22.5*
%
%ADD10R,0.04331X0.03937*%
%ADD11R,0.05748X0.07874*%
%ADD12R,0.09843X0.05610*%
%ADD13C,0.00400*%
%ADD14C,0.00197*%
%ADD15R,0.06890X0.02756*%
%ADD16R,0.05906X0.05906*%
%ADD17R,0.05906X0.05118*%
%ADD18R,0.05906X0.03150*%
%ADD19R,0.05512X0.03150*%
%ADD20R,0.03937X0.05709*%
%ADD21R,0.06102X0.03937*%
%ADD22R,0.01181X0.02598*%
%ADD23R,0.01181X0.04724*%
%ADD24R,0.03543X0.05906*%
%ADD25R,0.05906X0.03543*%
%ADD26R,0.23622X0.23622*%
%ADD27R,0.00984X0.01772*%
%ADD28R,0.01772X0.00984*%
%ADD29R,0.03937X0.04331*%
%ADD30R,0.02200X0.06200*%
%ADD31R,0.03150X0.03543*%
%ADD32R,0.03150X0.04724*%
%ADD33R,0.05118X0.08465*%
%ADD34R,0.04724X0.02165*%
%ADD35R,0.03000X0.06000*%
%ADD36R,0.06000X0.03000*%
%ADD37C,0.01181*%
%ADD38R,0.04724X0.03150*%
%ADD39R,0.08465X0.05118*%
%ADD40R,0.03543X0.03150*%
%ADD41R,0.02480X0.03268*%
%ADD42R,0.03268X0.02480*%
%ADD43R,0.03937X0.01181*%
%ADD44R,0.03937X0.01378*%
%ADD45R,0.03150X0.00787*%
%ADD46R,0.03543X0.00787*%
%ADD47C,0.00492*%
%ADD48R,0.03937X0.03937*%
%ADD49R,0.07480X0.04331*%
D10*
X0073404Y0107500D03*
X0080096Y0107500D03*
X0111404Y0139250D03*
X0118096Y0139250D03*
X0118096Y0146750D03*
X0111404Y0146750D03*
G36*
X0144525Y0139877D02*
X0141464Y0142938D01*
X0144247Y0145721D01*
X0147308Y0142660D01*
X0144525Y0139877D01*
G37*
G36*
X0149258Y0135144D02*
X0146197Y0138205D01*
X0148980Y0140988D01*
X0152041Y0137927D01*
X0149258Y0135144D01*
G37*
G36*
X0170193Y0162201D02*
X0173254Y0159140D01*
X0170471Y0156357D01*
X0167410Y0159418D01*
X0170193Y0162201D01*
G37*
G36*
X0165460Y0166934D02*
X0168521Y0163873D01*
X0165738Y0161090D01*
X0162677Y0164151D01*
X0165460Y0166934D01*
G37*
X0187904Y0168000D03*
X0187904Y0161800D03*
X0194596Y0161800D03*
X0194596Y0168000D03*
X0213904Y0196500D03*
X0220596Y0196500D03*
X0227904Y0196500D03*
X0234596Y0196500D03*
X0256904Y0212500D03*
X0263596Y0212500D03*
X0270904Y0212500D03*
X0277596Y0212500D03*
X0289904Y0212500D03*
X0296596Y0212500D03*
X0303904Y0212500D03*
X0310596Y0212500D03*
X0322904Y0212500D03*
X0329596Y0212500D03*
X0336904Y0212500D03*
X0343596Y0212500D03*
X0355904Y0212500D03*
X0362596Y0212500D03*
X0369904Y0212500D03*
X0376596Y0212500D03*
X0299596Y0291500D03*
X0299596Y0297500D03*
X0299596Y0303500D03*
X0292904Y0303500D03*
X0292904Y0297500D03*
X0292904Y0291500D03*
X0292904Y0309500D03*
X0292904Y0315500D03*
X0292904Y0321500D03*
X0292904Y0327500D03*
X0292904Y0333500D03*
X0299596Y0333500D03*
X0299596Y0327500D03*
X0299596Y0321500D03*
X0299596Y0315500D03*
X0299596Y0309500D03*
X0284846Y0266750D03*
X0278154Y0266750D03*
X0271346Y0266750D03*
X0264654Y0266750D03*
X0264654Y0258250D03*
X0271346Y0258250D03*
X0278154Y0258250D03*
X0284846Y0258250D03*
X0244596Y0224500D03*
X0237904Y0224500D03*
X0210596Y0224500D03*
X0203904Y0224500D03*
X0148596Y0212500D03*
X0141904Y0212500D03*
X0134596Y0212500D03*
X0127904Y0212500D03*
X0104096Y0212500D03*
X0097404Y0212500D03*
X0088096Y0212500D03*
X0081404Y0212500D03*
X0161904Y0281000D03*
X0168596Y0281000D03*
X0187904Y0291500D03*
X0194596Y0291500D03*
X0211404Y0281000D03*
X0218096Y0281000D03*
G36*
X0149258Y0357144D02*
X0146197Y0360205D01*
X0148980Y0362988D01*
X0152041Y0359927D01*
X0149258Y0357144D01*
G37*
G36*
X0144525Y0361877D02*
X0141464Y0364938D01*
X0144247Y0367721D01*
X0147308Y0364660D01*
X0144525Y0361877D01*
G37*
X0118096Y0361250D03*
X0118096Y0368750D03*
X0111404Y0368750D03*
X0111404Y0361250D03*
X0080096Y0329500D03*
X0073404Y0329500D03*
G36*
X0165460Y0388934D02*
X0168521Y0385873D01*
X0165738Y0383090D01*
X0162677Y0386151D01*
X0165460Y0388934D01*
G37*
G36*
X0170193Y0384201D02*
X0173254Y0381140D01*
X0170471Y0378357D01*
X0167410Y0381418D01*
X0170193Y0384201D01*
G37*
X0187904Y0383800D03*
X0194596Y0383800D03*
X0194596Y0390000D03*
X0187904Y0390000D03*
X0213904Y0418500D03*
X0220596Y0418500D03*
X0227904Y0418500D03*
X0234596Y0418500D03*
X0256904Y0434500D03*
X0263596Y0434500D03*
X0270904Y0434500D03*
X0277596Y0434500D03*
X0289904Y0434500D03*
X0296596Y0434500D03*
X0303904Y0434500D03*
X0310596Y0434500D03*
X0322904Y0434500D03*
X0329596Y0434500D03*
X0336904Y0434500D03*
X0343596Y0434500D03*
X0355904Y0434500D03*
X0362596Y0434500D03*
X0369904Y0434500D03*
X0376596Y0434500D03*
X0244596Y0446500D03*
X0237904Y0446500D03*
X0210596Y0446500D03*
X0203904Y0446500D03*
X0148596Y0434500D03*
X0141904Y0434500D03*
X0134596Y0434500D03*
X0127904Y0434500D03*
X0104096Y0434500D03*
X0097404Y0434500D03*
X0088096Y0434500D03*
X0081404Y0434500D03*
X0292904Y0111500D03*
X0292904Y0105500D03*
X0299596Y0105500D03*
X0299596Y0111500D03*
X0299596Y0099500D03*
X0299596Y0093500D03*
X0299596Y0087500D03*
X0299596Y0081500D03*
X0299596Y0075500D03*
X0292904Y0075500D03*
X0292904Y0081500D03*
X0292904Y0087500D03*
X0292904Y0093500D03*
X0292904Y0099500D03*
X0292904Y0069500D03*
X0299596Y0069500D03*
X0284846Y0044750D03*
X0278154Y0044750D03*
X0271346Y0044750D03*
X0271346Y0036250D03*
X0278154Y0036250D03*
X0284846Y0036250D03*
X0264654Y0036250D03*
X0264654Y0044750D03*
X0218096Y0059000D03*
X0211404Y0059000D03*
X0194596Y0069500D03*
X0187904Y0069500D03*
X0168596Y0059000D03*
X0161904Y0059000D03*
D11*
X0062333Y0057583D03*
X0062333Y0080417D03*
X0062333Y0105083D03*
X0062333Y0127917D03*
X0062333Y0279583D03*
X0062333Y0302417D03*
X0062333Y0327083D03*
X0062333Y0349917D03*
D12*
X0050719Y0342289D03*
X0050719Y0334711D03*
X0050719Y0294789D03*
X0050719Y0287211D03*
X0050719Y0120289D03*
X0050719Y0112711D03*
X0050719Y0072789D03*
X0050719Y0065211D03*
D13*
X0055590Y0053794D02*
X0058690Y0053794D01*
X0058690Y0061194D01*
X0048690Y0061194D01*
X0048401Y0061161D01*
X0048126Y0061065D01*
X0047880Y0060910D01*
X0047674Y0060704D01*
X0047519Y0060458D01*
X0047423Y0060183D01*
X0047390Y0059894D01*
X0047390Y0056994D01*
X0047420Y0056727D01*
X0047509Y0056473D01*
X0047652Y0056246D01*
X0047842Y0056055D01*
X0048070Y0055913D01*
X0048323Y0055824D01*
X0048590Y0055794D01*
X0055490Y0055794D01*
X0055528Y0055786D01*
X0055561Y0055764D01*
X0055583Y0055732D01*
X0055590Y0055694D01*
X0055590Y0053794D01*
X0055590Y0054005D02*
X0058690Y0054005D01*
X0058690Y0054403D02*
X0055590Y0054403D01*
X0055590Y0054802D02*
X0058690Y0054802D01*
X0058690Y0055200D02*
X0055590Y0055200D01*
X0055590Y0055599D02*
X0058690Y0055599D01*
X0058690Y0055997D02*
X0047935Y0055997D01*
X0047558Y0056396D02*
X0058690Y0056396D01*
X0058690Y0056794D02*
X0047413Y0056794D01*
X0047390Y0057193D02*
X0058690Y0057193D01*
X0058690Y0057591D02*
X0047390Y0057591D01*
X0047390Y0057990D02*
X0058690Y0057990D01*
X0058690Y0058388D02*
X0047390Y0058388D01*
X0047390Y0058787D02*
X0058690Y0058787D01*
X0058690Y0059185D02*
X0047390Y0059185D01*
X0047390Y0059584D02*
X0058690Y0059584D01*
X0058690Y0059982D02*
X0047400Y0059982D01*
X0047492Y0060381D02*
X0058690Y0060381D01*
X0058690Y0060779D02*
X0047749Y0060779D01*
X0048550Y0061178D02*
X0058690Y0061178D01*
X0058690Y0076857D02*
X0048690Y0076857D01*
X0048401Y0076889D01*
X0048126Y0076986D01*
X0047880Y0077140D01*
X0047674Y0077346D01*
X0047519Y0077593D01*
X0047423Y0077868D01*
X0047390Y0078157D01*
X0047390Y0081057D01*
X0047420Y0081324D01*
X0047509Y0081577D01*
X0047652Y0081805D01*
X0047842Y0081995D01*
X0048070Y0082138D01*
X0048323Y0082227D01*
X0048590Y0082257D01*
X0055490Y0082257D01*
X0055528Y0082264D01*
X0055561Y0082286D01*
X0055583Y0082319D01*
X0055590Y0082357D01*
X0055590Y0084257D01*
X0058690Y0084257D01*
X0058690Y0076857D01*
X0058690Y0077118D02*
X0047915Y0077118D01*
X0047567Y0077517D02*
X0058690Y0077517D01*
X0058690Y0077915D02*
X0047417Y0077915D01*
X0047390Y0078314D02*
X0058690Y0078314D01*
X0058690Y0078712D02*
X0047390Y0078712D01*
X0047390Y0079111D02*
X0058690Y0079111D01*
X0058690Y0079509D02*
X0047390Y0079509D01*
X0047390Y0079908D02*
X0058690Y0079908D01*
X0058690Y0080306D02*
X0047390Y0080306D01*
X0047390Y0080705D02*
X0058690Y0080705D01*
X0058690Y0081103D02*
X0047395Y0081103D01*
X0047483Y0081502D02*
X0058690Y0081502D01*
X0058690Y0081901D02*
X0047747Y0081901D01*
X0055569Y0082299D02*
X0058690Y0082299D01*
X0058690Y0082698D02*
X0055590Y0082698D01*
X0055590Y0083096D02*
X0058690Y0083096D01*
X0058690Y0083495D02*
X0055590Y0083495D01*
X0055590Y0083893D02*
X0058690Y0083893D01*
X0058690Y0101294D02*
X0055590Y0101294D01*
X0055590Y0103194D01*
X0055583Y0103232D01*
X0055561Y0103264D01*
X0055528Y0103286D01*
X0055490Y0103294D01*
X0048590Y0103294D01*
X0048323Y0103324D01*
X0048070Y0103413D01*
X0047842Y0103555D01*
X0047652Y0103746D01*
X0047509Y0103973D01*
X0047420Y0104227D01*
X0047390Y0104494D01*
X0047390Y0107394D01*
X0047423Y0107683D01*
X0047519Y0107958D01*
X0047674Y0108204D01*
X0047880Y0108410D01*
X0048126Y0108565D01*
X0048401Y0108661D01*
X0048690Y0108694D01*
X0058690Y0108694D01*
X0058690Y0101294D01*
X0058690Y0101428D02*
X0055590Y0101428D01*
X0055590Y0101826D02*
X0058690Y0101826D01*
X0058690Y0102225D02*
X0055590Y0102225D01*
X0055590Y0102623D02*
X0058690Y0102623D01*
X0058690Y0103022D02*
X0055590Y0103022D01*
X0058690Y0103420D02*
X0048057Y0103420D01*
X0047606Y0103819D02*
X0058690Y0103819D01*
X0058690Y0104217D02*
X0047424Y0104217D01*
X0047390Y0104616D02*
X0058690Y0104616D01*
X0058690Y0105014D02*
X0047390Y0105014D01*
X0047390Y0105413D02*
X0058690Y0105413D01*
X0058690Y0105811D02*
X0047390Y0105811D01*
X0047390Y0106210D02*
X0058690Y0106210D01*
X0058690Y0106608D02*
X0047390Y0106608D01*
X0047390Y0107007D02*
X0058690Y0107007D01*
X0058690Y0107405D02*
X0047391Y0107405D01*
X0047465Y0107804D02*
X0058690Y0107804D01*
X0058690Y0108202D02*
X0047673Y0108202D01*
X0048228Y0108601D02*
X0058690Y0108601D01*
X0058690Y0124357D02*
X0048690Y0124357D01*
X0048401Y0124389D01*
X0048126Y0124486D01*
X0047880Y0124640D01*
X0047674Y0124846D01*
X0047519Y0125093D01*
X0047423Y0125368D01*
X0047390Y0125657D01*
X0047390Y0128557D01*
X0047420Y0128824D01*
X0047509Y0129077D01*
X0047652Y0129305D01*
X0047842Y0129495D01*
X0048070Y0129638D01*
X0048323Y0129727D01*
X0048590Y0129757D01*
X0055490Y0129757D01*
X0055528Y0129764D01*
X0055561Y0129786D01*
X0055583Y0129819D01*
X0055590Y0129857D01*
X0055590Y0131757D01*
X0058690Y0131757D01*
X0058690Y0124357D01*
X0058690Y0124541D02*
X0048038Y0124541D01*
X0047615Y0124940D02*
X0058690Y0124940D01*
X0058690Y0125338D02*
X0047433Y0125338D01*
X0047390Y0125737D02*
X0058690Y0125737D01*
X0058690Y0126135D02*
X0047390Y0126135D01*
X0047390Y0126534D02*
X0058690Y0126534D01*
X0058690Y0126932D02*
X0047390Y0126932D01*
X0047390Y0127331D02*
X0058690Y0127331D01*
X0058690Y0127729D02*
X0047390Y0127729D01*
X0047390Y0128128D02*
X0058690Y0128128D01*
X0058690Y0128526D02*
X0047390Y0128526D01*
X0047456Y0128925D02*
X0058690Y0128925D01*
X0058690Y0129323D02*
X0047670Y0129323D01*
X0048309Y0129722D02*
X0058690Y0129722D01*
X0058690Y0130120D02*
X0055590Y0130120D01*
X0055590Y0130519D02*
X0058690Y0130519D01*
X0058690Y0130917D02*
X0055590Y0130917D01*
X0055590Y0131316D02*
X0058690Y0131316D01*
X0058690Y0131714D02*
X0055590Y0131714D01*
X0055590Y0275794D02*
X0058690Y0275794D01*
X0058690Y0283194D01*
X0048690Y0283194D01*
X0048401Y0283161D01*
X0048126Y0283065D01*
X0047880Y0282910D01*
X0047674Y0282704D01*
X0047519Y0282458D01*
X0047423Y0282183D01*
X0047390Y0281894D01*
X0047390Y0278994D01*
X0047420Y0278727D01*
X0047509Y0278473D01*
X0047652Y0278246D01*
X0047842Y0278055D01*
X0048070Y0277913D01*
X0048323Y0277824D01*
X0048590Y0277794D01*
X0055490Y0277794D01*
X0055528Y0277786D01*
X0055561Y0277764D01*
X0055583Y0277732D01*
X0055590Y0277694D01*
X0055590Y0275794D01*
X0055590Y0275976D02*
X0058690Y0275976D01*
X0058690Y0276374D02*
X0055590Y0276374D01*
X0055590Y0276773D02*
X0058690Y0276773D01*
X0058690Y0277171D02*
X0055590Y0277171D01*
X0055590Y0277570D02*
X0058690Y0277570D01*
X0058690Y0277968D02*
X0047981Y0277968D01*
X0047576Y0278367D02*
X0058690Y0278367D01*
X0058690Y0278765D02*
X0047416Y0278765D01*
X0047390Y0279164D02*
X0058690Y0279164D01*
X0058690Y0279562D02*
X0047390Y0279562D01*
X0047390Y0279961D02*
X0058690Y0279961D01*
X0058690Y0280359D02*
X0047390Y0280359D01*
X0047390Y0280758D02*
X0058690Y0280758D01*
X0058690Y0281156D02*
X0047390Y0281156D01*
X0047390Y0281555D02*
X0058690Y0281555D01*
X0058690Y0281953D02*
X0047397Y0281953D01*
X0047482Y0282352D02*
X0058690Y0282352D01*
X0058690Y0282750D02*
X0047720Y0282750D01*
X0048366Y0283149D02*
X0058690Y0283149D01*
X0058690Y0298857D02*
X0048690Y0298857D01*
X0048401Y0298889D01*
X0048126Y0298986D01*
X0047880Y0299140D01*
X0047674Y0299346D01*
X0047519Y0299593D01*
X0047423Y0299868D01*
X0047390Y0300157D01*
X0047390Y0303057D01*
X0047420Y0303324D01*
X0047509Y0303577D01*
X0047652Y0303805D01*
X0047842Y0303995D01*
X0048070Y0304138D01*
X0048323Y0304227D01*
X0048590Y0304257D01*
X0055490Y0304257D01*
X0055528Y0304264D01*
X0055561Y0304286D01*
X0055583Y0304319D01*
X0055590Y0304357D01*
X0055590Y0306257D01*
X0058690Y0306257D01*
X0058690Y0298857D01*
X0058690Y0299089D02*
X0047961Y0299089D01*
X0047585Y0299488D02*
X0058690Y0299488D01*
X0058690Y0299886D02*
X0047421Y0299886D01*
X0047390Y0300285D02*
X0058690Y0300285D01*
X0058690Y0300683D02*
X0047390Y0300683D01*
X0047390Y0301082D02*
X0058690Y0301082D01*
X0058690Y0301480D02*
X0047390Y0301480D01*
X0047390Y0301879D02*
X0058690Y0301879D01*
X0058690Y0302277D02*
X0047390Y0302277D01*
X0047390Y0302676D02*
X0058690Y0302676D01*
X0058690Y0303074D02*
X0047392Y0303074D01*
X0047472Y0303473D02*
X0058690Y0303473D01*
X0058690Y0303871D02*
X0047718Y0303871D01*
X0055536Y0304270D02*
X0058690Y0304270D01*
X0058690Y0304668D02*
X0055590Y0304668D01*
X0055590Y0305067D02*
X0058690Y0305067D01*
X0058690Y0305465D02*
X0055590Y0305465D01*
X0055590Y0305864D02*
X0058690Y0305864D01*
X0058690Y0323294D02*
X0055590Y0323294D01*
X0055590Y0325194D01*
X0055583Y0325232D01*
X0055561Y0325264D01*
X0055528Y0325286D01*
X0055490Y0325294D01*
X0048590Y0325294D01*
X0048323Y0325324D01*
X0048070Y0325413D01*
X0047842Y0325555D01*
X0047652Y0325746D01*
X0047509Y0325973D01*
X0047420Y0326227D01*
X0047390Y0326494D01*
X0047390Y0329394D01*
X0047423Y0329683D01*
X0047519Y0329958D01*
X0047674Y0330204D01*
X0047880Y0330410D01*
X0048126Y0330565D01*
X0048401Y0330661D01*
X0048690Y0330694D01*
X0058690Y0330694D01*
X0058690Y0323294D01*
X0058690Y0323398D02*
X0055590Y0323398D01*
X0055590Y0323797D02*
X0058690Y0323797D01*
X0058690Y0324195D02*
X0055590Y0324195D01*
X0055590Y0324594D02*
X0058690Y0324594D01*
X0058690Y0324992D02*
X0055590Y0324992D01*
X0058690Y0325391D02*
X0048131Y0325391D01*
X0047624Y0325789D02*
X0058690Y0325789D01*
X0058690Y0326188D02*
X0047434Y0326188D01*
X0047390Y0326586D02*
X0058690Y0326586D01*
X0058690Y0326985D02*
X0047390Y0326985D01*
X0047390Y0327383D02*
X0058690Y0327383D01*
X0058690Y0327782D02*
X0047390Y0327782D01*
X0047390Y0328181D02*
X0058690Y0328181D01*
X0058690Y0328579D02*
X0047390Y0328579D01*
X0047390Y0328978D02*
X0058690Y0328978D01*
X0058690Y0329376D02*
X0047390Y0329376D01*
X0047455Y0329775D02*
X0058690Y0329775D01*
X0058690Y0330173D02*
X0047654Y0330173D01*
X0048145Y0330572D02*
X0058690Y0330572D01*
X0058690Y0346357D02*
X0048690Y0346357D01*
X0048401Y0346389D01*
X0048126Y0346486D01*
X0047880Y0346640D01*
X0047674Y0346846D01*
X0047519Y0347093D01*
X0047423Y0347368D01*
X0047390Y0347657D01*
X0047390Y0350557D01*
X0047420Y0350824D01*
X0047509Y0351077D01*
X0047652Y0351305D01*
X0047842Y0351495D01*
X0048070Y0351638D01*
X0048323Y0351727D01*
X0048590Y0351757D01*
X0055490Y0351757D01*
X0055528Y0351764D01*
X0055561Y0351786D01*
X0055583Y0351819D01*
X0055590Y0351857D01*
X0055590Y0353757D01*
X0058690Y0353757D01*
X0058690Y0346357D01*
X0058690Y0346512D02*
X0048084Y0346512D01*
X0047633Y0346911D02*
X0058690Y0346911D01*
X0058690Y0347309D02*
X0047443Y0347309D01*
X0047390Y0347708D02*
X0058690Y0347708D01*
X0058690Y0348106D02*
X0047390Y0348106D01*
X0047390Y0348505D02*
X0058690Y0348505D01*
X0058690Y0348903D02*
X0047390Y0348903D01*
X0047390Y0349302D02*
X0058690Y0349302D01*
X0058690Y0349700D02*
X0047390Y0349700D01*
X0047390Y0350099D02*
X0058690Y0350099D01*
X0058690Y0350497D02*
X0047390Y0350497D01*
X0047445Y0350896D02*
X0058690Y0350896D01*
X0058690Y0351294D02*
X0047645Y0351294D01*
X0048226Y0351693D02*
X0058690Y0351693D01*
X0058690Y0352091D02*
X0055590Y0352091D01*
X0055590Y0352490D02*
X0058690Y0352490D01*
X0058690Y0352888D02*
X0055590Y0352888D01*
X0055590Y0353287D02*
X0058690Y0353287D01*
X0058690Y0353685D02*
X0055590Y0353685D01*
D14*
X0058077Y0344110D02*
X0064475Y0344110D01*
X0064475Y0343126D01*
X0058077Y0343126D01*
X0058077Y0344110D01*
X0058077Y0344009D02*
X0064475Y0344009D01*
X0064475Y0343814D02*
X0058077Y0343814D01*
X0058077Y0343618D02*
X0064475Y0343618D01*
X0064475Y0343423D02*
X0058077Y0343423D01*
X0058077Y0343228D02*
X0064475Y0343228D01*
X0064475Y0341551D02*
X0058077Y0341551D01*
X0058077Y0340567D01*
X0064475Y0340567D01*
X0064475Y0341551D01*
X0064475Y0341469D02*
X0058077Y0341469D01*
X0058077Y0341274D02*
X0064475Y0341274D01*
X0064475Y0341079D02*
X0058077Y0341079D01*
X0058077Y0340883D02*
X0064475Y0340883D01*
X0064475Y0340688D02*
X0058077Y0340688D01*
X0058077Y0338992D02*
X0064475Y0338992D01*
X0064475Y0338008D01*
X0058077Y0338008D01*
X0058077Y0338992D01*
X0058077Y0338930D02*
X0064475Y0338930D01*
X0064475Y0338734D02*
X0058077Y0338734D01*
X0058077Y0338539D02*
X0064475Y0338539D01*
X0064475Y0338344D02*
X0058077Y0338344D01*
X0058077Y0338148D02*
X0064475Y0338148D01*
X0064475Y0336433D02*
X0058077Y0336433D01*
X0058077Y0335449D01*
X0064475Y0335449D01*
X0064475Y0336433D01*
X0064475Y0336390D02*
X0058077Y0336390D01*
X0058077Y0336195D02*
X0064475Y0336195D01*
X0064475Y0335999D02*
X0058077Y0335999D01*
X0058077Y0335804D02*
X0064475Y0335804D01*
X0064475Y0335609D02*
X0058077Y0335609D01*
X0058077Y0333874D02*
X0064475Y0333874D01*
X0064475Y0332890D01*
X0058077Y0332890D01*
X0058077Y0333874D01*
X0058077Y0333850D02*
X0064475Y0333850D01*
X0064475Y0333655D02*
X0058077Y0333655D01*
X0058077Y0333460D02*
X0064475Y0333460D01*
X0064475Y0333264D02*
X0058077Y0333264D01*
X0058077Y0333069D02*
X0064475Y0333069D01*
X0064475Y0296610D02*
X0058077Y0296610D01*
X0058077Y0295626D01*
X0064475Y0295626D01*
X0064475Y0296610D01*
X0064475Y0296536D02*
X0058077Y0296536D01*
X0058077Y0296341D02*
X0064475Y0296341D01*
X0064475Y0296146D02*
X0058077Y0296146D01*
X0058077Y0295950D02*
X0064475Y0295950D01*
X0064475Y0295755D02*
X0058077Y0295755D01*
X0058077Y0294051D02*
X0064475Y0294051D01*
X0064475Y0293067D01*
X0058077Y0293067D01*
X0058077Y0294051D01*
X0058077Y0293997D02*
X0064475Y0293997D01*
X0064475Y0293801D02*
X0058077Y0293801D01*
X0058077Y0293606D02*
X0064475Y0293606D01*
X0064475Y0293410D02*
X0058077Y0293410D01*
X0058077Y0293215D02*
X0064475Y0293215D01*
X0064475Y0291492D02*
X0058077Y0291492D01*
X0058077Y0290508D01*
X0064475Y0290508D01*
X0064475Y0291492D01*
X0064475Y0291457D02*
X0058077Y0291457D01*
X0058077Y0291262D02*
X0064475Y0291262D01*
X0064475Y0291066D02*
X0058077Y0291066D01*
X0058077Y0290871D02*
X0064475Y0290871D01*
X0064475Y0290675D02*
X0058077Y0290675D01*
X0058077Y0288933D02*
X0064475Y0288933D01*
X0064475Y0287949D01*
X0058077Y0287949D01*
X0058077Y0288933D01*
X0058077Y0288917D02*
X0064475Y0288917D01*
X0064475Y0288722D02*
X0058077Y0288722D01*
X0058077Y0288526D02*
X0064475Y0288526D01*
X0064475Y0288331D02*
X0058077Y0288331D01*
X0058077Y0288136D02*
X0064475Y0288136D01*
X0064475Y0286374D02*
X0058077Y0286374D01*
X0058077Y0285390D01*
X0064475Y0285390D01*
X0064475Y0286374D01*
X0064475Y0286182D02*
X0058077Y0286182D01*
X0058077Y0285987D02*
X0064475Y0285987D01*
X0064475Y0285791D02*
X0058077Y0285791D01*
X0058077Y0285596D02*
X0064475Y0285596D01*
X0064475Y0285401D02*
X0058077Y0285401D01*
X0058077Y0122110D02*
X0064475Y0122110D01*
X0064475Y0121126D01*
X0058077Y0121126D01*
X0058077Y0122110D01*
X0058077Y0122078D02*
X0064475Y0122078D01*
X0064475Y0121883D02*
X0058077Y0121883D01*
X0058077Y0121688D02*
X0064475Y0121688D01*
X0064475Y0121492D02*
X0058077Y0121492D01*
X0058077Y0121297D02*
X0064475Y0121297D01*
X0064475Y0119551D02*
X0058077Y0119551D01*
X0058077Y0118567D01*
X0064475Y0118567D01*
X0064475Y0119551D01*
X0064475Y0119539D02*
X0058077Y0119539D01*
X0058077Y0119343D02*
X0064475Y0119343D01*
X0064475Y0119148D02*
X0058077Y0119148D01*
X0058077Y0118952D02*
X0064475Y0118952D01*
X0064475Y0118757D02*
X0058077Y0118757D01*
X0058077Y0116992D02*
X0064475Y0116992D01*
X0064475Y0116008D01*
X0058077Y0116008D01*
X0058077Y0116992D01*
X0058077Y0116803D02*
X0064475Y0116803D01*
X0064475Y0116608D02*
X0058077Y0116608D01*
X0058077Y0116413D02*
X0064475Y0116413D01*
X0064475Y0116217D02*
X0058077Y0116217D01*
X0058077Y0116022D02*
X0064475Y0116022D01*
X0064475Y0114433D02*
X0058077Y0114433D01*
X0058077Y0113449D01*
X0064475Y0113449D01*
X0064475Y0114433D01*
X0064475Y0114264D02*
X0058077Y0114264D01*
X0058077Y0114068D02*
X0064475Y0114068D01*
X0064475Y0113873D02*
X0058077Y0113873D01*
X0058077Y0113678D02*
X0064475Y0113678D01*
X0064475Y0113482D02*
X0058077Y0113482D01*
X0058077Y0111874D02*
X0064475Y0111874D01*
X0064475Y0110890D01*
X0058077Y0110890D01*
X0058077Y0111874D01*
X0058077Y0111724D02*
X0064475Y0111724D01*
X0064475Y0111529D02*
X0058077Y0111529D01*
X0058077Y0111333D02*
X0064475Y0111333D01*
X0064475Y0111138D02*
X0058077Y0111138D01*
X0058077Y0110943D02*
X0064475Y0110943D01*
X0064475Y0074610D02*
X0058077Y0074610D01*
X0058077Y0073626D01*
X0064475Y0073626D01*
X0064475Y0074610D01*
X0064475Y0074605D02*
X0058077Y0074605D01*
X0058077Y0074410D02*
X0064475Y0074410D01*
X0064475Y0074215D02*
X0058077Y0074215D01*
X0058077Y0074019D02*
X0064475Y0074019D01*
X0064475Y0073824D02*
X0058077Y0073824D01*
X0058077Y0073629D02*
X0064475Y0073629D01*
X0064475Y0072051D02*
X0058077Y0072051D01*
X0058077Y0071067D01*
X0064475Y0071067D01*
X0064475Y0072051D01*
X0064475Y0071870D02*
X0058077Y0071870D01*
X0058077Y0071675D02*
X0064475Y0071675D01*
X0064475Y0071480D02*
X0058077Y0071480D01*
X0058077Y0071284D02*
X0064475Y0071284D01*
X0064475Y0071089D02*
X0058077Y0071089D01*
X0058077Y0069492D02*
X0064475Y0069492D01*
X0064475Y0068508D01*
X0058077Y0068508D01*
X0058077Y0069492D01*
X0058077Y0069331D02*
X0064475Y0069331D01*
X0064475Y0069135D02*
X0058077Y0069135D01*
X0058077Y0068940D02*
X0064475Y0068940D01*
X0064475Y0068745D02*
X0058077Y0068745D01*
X0058077Y0068549D02*
X0064475Y0068549D01*
X0064475Y0066933D02*
X0058077Y0066933D01*
X0058077Y0065949D01*
X0064475Y0065949D01*
X0064475Y0066933D01*
X0064475Y0066791D02*
X0058077Y0066791D01*
X0058077Y0066596D02*
X0064475Y0066596D01*
X0064475Y0066400D02*
X0058077Y0066400D01*
X0058077Y0066205D02*
X0064475Y0066205D01*
X0064475Y0066009D02*
X0058077Y0066009D01*
X0058077Y0064374D02*
X0064475Y0064374D01*
X0064475Y0063390D01*
X0058077Y0063390D01*
X0058077Y0064374D01*
X0058077Y0064251D02*
X0064475Y0064251D01*
X0064475Y0064056D02*
X0058077Y0064056D01*
X0058077Y0063860D02*
X0064475Y0063860D01*
X0064475Y0063665D02*
X0058077Y0063665D01*
X0058077Y0063470D02*
X0064475Y0063470D01*
D15*
X0393695Y0141500D03*
X0393695Y0145831D03*
X0393695Y0150161D03*
X0393695Y0154492D03*
X0393695Y0158823D03*
X0393695Y0163154D03*
X0393695Y0167484D03*
X0393695Y0171815D03*
X0393695Y0363500D03*
X0393695Y0367831D03*
X0393695Y0372161D03*
X0393695Y0376492D03*
X0393695Y0380823D03*
X0393695Y0385154D03*
X0393695Y0389484D03*
X0393695Y0393815D03*
D16*
X0393203Y0403461D03*
X0393203Y0181461D03*
D17*
X0393203Y0136776D03*
X0393203Y0358776D03*
D18*
X0363281Y0357693D03*
X0363281Y0135693D03*
D19*
X0360722Y0182740D03*
X0360722Y0404740D03*
D20*
X0357376Y0359071D03*
X0357376Y0137071D03*
D21*
X0351175Y0181461D03*
X0351175Y0403461D03*
D22*
X0065809Y0318122D03*
X0063250Y0318122D03*
X0060691Y0318122D03*
X0060691Y0310878D03*
X0063250Y0310878D03*
X0065809Y0310878D03*
X0065809Y0096122D03*
X0063250Y0096122D03*
X0060691Y0096122D03*
X0060691Y0088878D03*
X0063250Y0088878D03*
X0065809Y0088878D03*
D23*
G36*
X0151720Y0108591D02*
X0150885Y0109426D01*
X0154224Y0112765D01*
X0155059Y0111930D01*
X0151720Y0108591D01*
G37*
G36*
X0153112Y0107199D02*
X0152277Y0108034D01*
X0155616Y0111373D01*
X0156451Y0110538D01*
X0153112Y0107199D01*
G37*
G36*
X0154503Y0105807D02*
X0153668Y0106642D01*
X0157007Y0109981D01*
X0157842Y0109146D01*
X0154503Y0105807D01*
G37*
G36*
X0155895Y0104415D02*
X0155060Y0105250D01*
X0158399Y0108589D01*
X0159234Y0107754D01*
X0155895Y0104415D01*
G37*
G36*
X0157287Y0103023D02*
X0156452Y0103858D01*
X0159791Y0107197D01*
X0160626Y0106362D01*
X0157287Y0103023D01*
G37*
G36*
X0158679Y0101631D02*
X0157844Y0102466D01*
X0161183Y0105805D01*
X0162018Y0104970D01*
X0158679Y0101631D01*
G37*
G36*
X0160071Y0100240D02*
X0159236Y0101075D01*
X0162575Y0104414D01*
X0163410Y0103579D01*
X0160071Y0100240D01*
G37*
G36*
X0161463Y0098848D02*
X0160628Y0099683D01*
X0163967Y0103022D01*
X0164802Y0102187D01*
X0161463Y0098848D01*
G37*
G36*
X0162855Y0097456D02*
X0162020Y0098291D01*
X0165359Y0101630D01*
X0166194Y0100795D01*
X0162855Y0097456D01*
G37*
G36*
X0164247Y0096064D02*
X0163412Y0096899D01*
X0166751Y0100238D01*
X0167586Y0099403D01*
X0164247Y0096064D01*
G37*
G36*
X0165639Y0094672D02*
X0164804Y0095507D01*
X0168143Y0098846D01*
X0168978Y0098011D01*
X0165639Y0094672D01*
G37*
G36*
X0167031Y0093280D02*
X0166196Y0094115D01*
X0169535Y0097454D01*
X0170370Y0096619D01*
X0167031Y0093280D01*
G37*
G36*
X0168423Y0091888D02*
X0167588Y0092723D01*
X0170927Y0096062D01*
X0171762Y0095227D01*
X0168423Y0091888D01*
G37*
G36*
X0169815Y0090496D02*
X0168980Y0091331D01*
X0172319Y0094670D01*
X0173154Y0093835D01*
X0169815Y0090496D01*
G37*
G36*
X0171207Y0089104D02*
X0170372Y0089939D01*
X0173711Y0093278D01*
X0174546Y0092443D01*
X0171207Y0089104D01*
G37*
G36*
X0172599Y0087712D02*
X0171764Y0088547D01*
X0175103Y0091886D01*
X0175938Y0091051D01*
X0172599Y0087712D01*
G37*
G36*
X0173991Y0086320D02*
X0173156Y0087155D01*
X0176495Y0090494D01*
X0177330Y0089659D01*
X0173991Y0086320D01*
G37*
G36*
X0175383Y0084928D02*
X0174548Y0085763D01*
X0177887Y0089102D01*
X0178722Y0088267D01*
X0175383Y0084928D01*
G37*
G36*
X0176775Y0083536D02*
X0175940Y0084371D01*
X0179279Y0087710D01*
X0180114Y0086875D01*
X0176775Y0083536D01*
G37*
G36*
X0178166Y0082144D02*
X0177331Y0082979D01*
X0180670Y0086318D01*
X0181505Y0085483D01*
X0178166Y0082144D01*
G37*
G36*
X0179558Y0080752D02*
X0178723Y0081587D01*
X0182062Y0084926D01*
X0182897Y0084091D01*
X0179558Y0080752D01*
G37*
G36*
X0180950Y0079360D02*
X0180115Y0080195D01*
X0183454Y0083534D01*
X0184289Y0082699D01*
X0180950Y0079360D01*
G37*
G36*
X0182342Y0077968D02*
X0181507Y0078803D01*
X0184846Y0082142D01*
X0185681Y0081307D01*
X0182342Y0077968D01*
G37*
G36*
X0183734Y0076577D02*
X0182899Y0077412D01*
X0186238Y0080751D01*
X0187073Y0079916D01*
X0183734Y0076577D01*
G37*
G36*
X0185126Y0075185D02*
X0184291Y0076020D01*
X0187630Y0079359D01*
X0188465Y0078524D01*
X0185126Y0075185D01*
G37*
G36*
X0198209Y0076020D02*
X0197374Y0075185D01*
X0194035Y0078524D01*
X0194870Y0079359D01*
X0198209Y0076020D01*
G37*
G36*
X0199601Y0077412D02*
X0198766Y0076577D01*
X0195427Y0079916D01*
X0196262Y0080751D01*
X0199601Y0077412D01*
G37*
G36*
X0200993Y0078803D02*
X0200158Y0077968D01*
X0196819Y0081307D01*
X0197654Y0082142D01*
X0200993Y0078803D01*
G37*
G36*
X0202385Y0080195D02*
X0201550Y0079360D01*
X0198211Y0082699D01*
X0199046Y0083534D01*
X0202385Y0080195D01*
G37*
G36*
X0203777Y0081587D02*
X0202942Y0080752D01*
X0199603Y0084091D01*
X0200438Y0084926D01*
X0203777Y0081587D01*
G37*
G36*
X0205169Y0082979D02*
X0204334Y0082144D01*
X0200995Y0085483D01*
X0201830Y0086318D01*
X0205169Y0082979D01*
G37*
G36*
X0206560Y0084371D02*
X0205725Y0083536D01*
X0202386Y0086875D01*
X0203221Y0087710D01*
X0206560Y0084371D01*
G37*
G36*
X0207952Y0085763D02*
X0207117Y0084928D01*
X0203778Y0088267D01*
X0204613Y0089102D01*
X0207952Y0085763D01*
G37*
G36*
X0209344Y0087155D02*
X0208509Y0086320D01*
X0205170Y0089659D01*
X0206005Y0090494D01*
X0209344Y0087155D01*
G37*
G36*
X0210736Y0088547D02*
X0209901Y0087712D01*
X0206562Y0091051D01*
X0207397Y0091886D01*
X0210736Y0088547D01*
G37*
G36*
X0212128Y0089939D02*
X0211293Y0089104D01*
X0207954Y0092443D01*
X0208789Y0093278D01*
X0212128Y0089939D01*
G37*
G36*
X0213520Y0091331D02*
X0212685Y0090496D01*
X0209346Y0093835D01*
X0210181Y0094670D01*
X0213520Y0091331D01*
G37*
G36*
X0214912Y0092723D02*
X0214077Y0091888D01*
X0210738Y0095227D01*
X0211573Y0096062D01*
X0214912Y0092723D01*
G37*
G36*
X0216304Y0094115D02*
X0215469Y0093280D01*
X0212130Y0096619D01*
X0212965Y0097454D01*
X0216304Y0094115D01*
G37*
G36*
X0217696Y0095507D02*
X0216861Y0094672D01*
X0213522Y0098011D01*
X0214357Y0098846D01*
X0217696Y0095507D01*
G37*
G36*
X0219088Y0096899D02*
X0218253Y0096064D01*
X0214914Y0099403D01*
X0215749Y0100238D01*
X0219088Y0096899D01*
G37*
G36*
X0220480Y0098291D02*
X0219645Y0097456D01*
X0216306Y0100795D01*
X0217141Y0101630D01*
X0220480Y0098291D01*
G37*
G36*
X0221872Y0099683D02*
X0221037Y0098848D01*
X0217698Y0102187D01*
X0218533Y0103022D01*
X0221872Y0099683D01*
G37*
G36*
X0223264Y0101075D02*
X0222429Y0100240D01*
X0219090Y0103579D01*
X0219925Y0104414D01*
X0223264Y0101075D01*
G37*
G36*
X0224656Y0102466D02*
X0223821Y0101631D01*
X0220482Y0104970D01*
X0221317Y0105805D01*
X0224656Y0102466D01*
G37*
G36*
X0226048Y0103858D02*
X0225213Y0103023D01*
X0221874Y0106362D01*
X0222709Y0107197D01*
X0226048Y0103858D01*
G37*
G36*
X0227440Y0105250D02*
X0226605Y0104415D01*
X0223266Y0107754D01*
X0224101Y0108589D01*
X0227440Y0105250D01*
G37*
G36*
X0228832Y0106642D02*
X0227997Y0105807D01*
X0224658Y0109146D01*
X0225493Y0109981D01*
X0228832Y0106642D01*
G37*
G36*
X0230223Y0108034D02*
X0229388Y0107199D01*
X0226049Y0110538D01*
X0226884Y0111373D01*
X0230223Y0108034D01*
G37*
G36*
X0231615Y0109426D02*
X0230780Y0108591D01*
X0227441Y0111930D01*
X0228276Y0112765D01*
X0231615Y0109426D01*
G37*
G36*
X0230780Y0122509D02*
X0231615Y0121674D01*
X0228276Y0118335D01*
X0227441Y0119170D01*
X0230780Y0122509D01*
G37*
G36*
X0229388Y0123901D02*
X0230223Y0123066D01*
X0226884Y0119727D01*
X0226049Y0120562D01*
X0229388Y0123901D01*
G37*
G36*
X0227997Y0125293D02*
X0228832Y0124458D01*
X0225493Y0121119D01*
X0224658Y0121954D01*
X0227997Y0125293D01*
G37*
G36*
X0226605Y0126685D02*
X0227440Y0125850D01*
X0224101Y0122511D01*
X0223266Y0123346D01*
X0226605Y0126685D01*
G37*
G36*
X0225213Y0128077D02*
X0226048Y0127242D01*
X0222709Y0123903D01*
X0221874Y0124738D01*
X0225213Y0128077D01*
G37*
G36*
X0223821Y0129469D02*
X0224656Y0128634D01*
X0221317Y0125295D01*
X0220482Y0126130D01*
X0223821Y0129469D01*
G37*
G36*
X0222429Y0130860D02*
X0223264Y0130025D01*
X0219925Y0126686D01*
X0219090Y0127521D01*
X0222429Y0130860D01*
G37*
G36*
X0221037Y0132252D02*
X0221872Y0131417D01*
X0218533Y0128078D01*
X0217698Y0128913D01*
X0221037Y0132252D01*
G37*
G36*
X0219645Y0133644D02*
X0220480Y0132809D01*
X0217141Y0129470D01*
X0216306Y0130305D01*
X0219645Y0133644D01*
G37*
G36*
X0218253Y0135036D02*
X0219088Y0134201D01*
X0215749Y0130862D01*
X0214914Y0131697D01*
X0218253Y0135036D01*
G37*
G36*
X0216861Y0136428D02*
X0217696Y0135593D01*
X0214357Y0132254D01*
X0213522Y0133089D01*
X0216861Y0136428D01*
G37*
G36*
X0215469Y0137820D02*
X0216304Y0136985D01*
X0212965Y0133646D01*
X0212130Y0134481D01*
X0215469Y0137820D01*
G37*
G36*
X0214077Y0139212D02*
X0214912Y0138377D01*
X0211573Y0135038D01*
X0210738Y0135873D01*
X0214077Y0139212D01*
G37*
G36*
X0212685Y0140604D02*
X0213520Y0139769D01*
X0210181Y0136430D01*
X0209346Y0137265D01*
X0212685Y0140604D01*
G37*
G36*
X0211293Y0141996D02*
X0212128Y0141161D01*
X0208789Y0137822D01*
X0207954Y0138657D01*
X0211293Y0141996D01*
G37*
G36*
X0209901Y0143388D02*
X0210736Y0142553D01*
X0207397Y0139214D01*
X0206562Y0140049D01*
X0209901Y0143388D01*
G37*
G36*
X0208509Y0144780D02*
X0209344Y0143945D01*
X0206005Y0140606D01*
X0205170Y0141441D01*
X0208509Y0144780D01*
G37*
G36*
X0207117Y0146172D02*
X0207952Y0145337D01*
X0204613Y0141998D01*
X0203778Y0142833D01*
X0207117Y0146172D01*
G37*
G36*
X0205725Y0147564D02*
X0206560Y0146729D01*
X0203221Y0143390D01*
X0202386Y0144225D01*
X0205725Y0147564D01*
G37*
G36*
X0204334Y0148956D02*
X0205169Y0148121D01*
X0201830Y0144782D01*
X0200995Y0145617D01*
X0204334Y0148956D01*
G37*
G36*
X0202942Y0150348D02*
X0203777Y0149513D01*
X0200438Y0146174D01*
X0199603Y0147009D01*
X0202942Y0150348D01*
G37*
G36*
X0201550Y0151740D02*
X0202385Y0150905D01*
X0199046Y0147566D01*
X0198211Y0148401D01*
X0201550Y0151740D01*
G37*
G36*
X0200158Y0153132D02*
X0200993Y0152297D01*
X0197654Y0148958D01*
X0196819Y0149793D01*
X0200158Y0153132D01*
G37*
G36*
X0198766Y0154523D02*
X0199601Y0153688D01*
X0196262Y0150349D01*
X0195427Y0151184D01*
X0198766Y0154523D01*
G37*
G36*
X0197374Y0155915D02*
X0198209Y0155080D01*
X0194870Y0151741D01*
X0194035Y0152576D01*
X0197374Y0155915D01*
G37*
G36*
X0184291Y0155080D02*
X0185126Y0155915D01*
X0188465Y0152576D01*
X0187630Y0151741D01*
X0184291Y0155080D01*
G37*
G36*
X0182899Y0153688D02*
X0183734Y0154523D01*
X0187073Y0151184D01*
X0186238Y0150349D01*
X0182899Y0153688D01*
G37*
G36*
X0181507Y0152297D02*
X0182342Y0153132D01*
X0185681Y0149793D01*
X0184846Y0148958D01*
X0181507Y0152297D01*
G37*
G36*
X0180115Y0150905D02*
X0180950Y0151740D01*
X0184289Y0148401D01*
X0183454Y0147566D01*
X0180115Y0150905D01*
G37*
G36*
X0178723Y0149513D02*
X0179558Y0150348D01*
X0182897Y0147009D01*
X0182062Y0146174D01*
X0178723Y0149513D01*
G37*
G36*
X0177331Y0148121D02*
X0178166Y0148956D01*
X0181505Y0145617D01*
X0180670Y0144782D01*
X0177331Y0148121D01*
G37*
G36*
X0175940Y0146729D02*
X0176775Y0147564D01*
X0180114Y0144225D01*
X0179279Y0143390D01*
X0175940Y0146729D01*
G37*
G36*
X0174548Y0145337D02*
X0175383Y0146172D01*
X0178722Y0142833D01*
X0177887Y0141998D01*
X0174548Y0145337D01*
G37*
G36*
X0173156Y0143945D02*
X0173991Y0144780D01*
X0177330Y0141441D01*
X0176495Y0140606D01*
X0173156Y0143945D01*
G37*
G36*
X0171764Y0142553D02*
X0172599Y0143388D01*
X0175938Y0140049D01*
X0175103Y0139214D01*
X0171764Y0142553D01*
G37*
G36*
X0170372Y0141161D02*
X0171207Y0141996D01*
X0174546Y0138657D01*
X0173711Y0137822D01*
X0170372Y0141161D01*
G37*
G36*
X0168980Y0139769D02*
X0169815Y0140604D01*
X0173154Y0137265D01*
X0172319Y0136430D01*
X0168980Y0139769D01*
G37*
G36*
X0167588Y0138377D02*
X0168423Y0139212D01*
X0171762Y0135873D01*
X0170927Y0135038D01*
X0167588Y0138377D01*
G37*
G36*
X0166196Y0136985D02*
X0167031Y0137820D01*
X0170370Y0134481D01*
X0169535Y0133646D01*
X0166196Y0136985D01*
G37*
G36*
X0164804Y0135593D02*
X0165639Y0136428D01*
X0168978Y0133089D01*
X0168143Y0132254D01*
X0164804Y0135593D01*
G37*
G36*
X0163412Y0134201D02*
X0164247Y0135036D01*
X0167586Y0131697D01*
X0166751Y0130862D01*
X0163412Y0134201D01*
G37*
G36*
X0162020Y0132809D02*
X0162855Y0133644D01*
X0166194Y0130305D01*
X0165359Y0129470D01*
X0162020Y0132809D01*
G37*
G36*
X0160628Y0131417D02*
X0161463Y0132252D01*
X0164802Y0128913D01*
X0163967Y0128078D01*
X0160628Y0131417D01*
G37*
G36*
X0159236Y0130025D02*
X0160071Y0130860D01*
X0163410Y0127521D01*
X0162575Y0126686D01*
X0159236Y0130025D01*
G37*
G36*
X0157844Y0128634D02*
X0158679Y0129469D01*
X0162018Y0126130D01*
X0161183Y0125295D01*
X0157844Y0128634D01*
G37*
G36*
X0156452Y0127242D02*
X0157287Y0128077D01*
X0160626Y0124738D01*
X0159791Y0123903D01*
X0156452Y0127242D01*
G37*
G36*
X0155060Y0125850D02*
X0155895Y0126685D01*
X0159234Y0123346D01*
X0158399Y0122511D01*
X0155060Y0125850D01*
G37*
G36*
X0153668Y0124458D02*
X0154503Y0125293D01*
X0157842Y0121954D01*
X0157007Y0121119D01*
X0153668Y0124458D01*
G37*
G36*
X0152277Y0123066D02*
X0153112Y0123901D01*
X0156451Y0120562D01*
X0155616Y0119727D01*
X0152277Y0123066D01*
G37*
G36*
X0150885Y0121674D02*
X0151720Y0122509D01*
X0155059Y0119170D01*
X0154224Y0118335D01*
X0150885Y0121674D01*
G37*
G36*
X0185126Y0297185D02*
X0184291Y0298020D01*
X0187630Y0301359D01*
X0188465Y0300524D01*
X0185126Y0297185D01*
G37*
G36*
X0183734Y0298577D02*
X0182899Y0299412D01*
X0186238Y0302751D01*
X0187073Y0301916D01*
X0183734Y0298577D01*
G37*
G36*
X0182342Y0299968D02*
X0181507Y0300803D01*
X0184846Y0304142D01*
X0185681Y0303307D01*
X0182342Y0299968D01*
G37*
G36*
X0180950Y0301360D02*
X0180115Y0302195D01*
X0183454Y0305534D01*
X0184289Y0304699D01*
X0180950Y0301360D01*
G37*
G36*
X0179558Y0302752D02*
X0178723Y0303587D01*
X0182062Y0306926D01*
X0182897Y0306091D01*
X0179558Y0302752D01*
G37*
G36*
X0178166Y0304144D02*
X0177331Y0304979D01*
X0180670Y0308318D01*
X0181505Y0307483D01*
X0178166Y0304144D01*
G37*
G36*
X0176775Y0305536D02*
X0175940Y0306371D01*
X0179279Y0309710D01*
X0180114Y0308875D01*
X0176775Y0305536D01*
G37*
G36*
X0175383Y0306928D02*
X0174548Y0307763D01*
X0177887Y0311102D01*
X0178722Y0310267D01*
X0175383Y0306928D01*
G37*
G36*
X0173991Y0308320D02*
X0173156Y0309155D01*
X0176495Y0312494D01*
X0177330Y0311659D01*
X0173991Y0308320D01*
G37*
G36*
X0172599Y0309712D02*
X0171764Y0310547D01*
X0175103Y0313886D01*
X0175938Y0313051D01*
X0172599Y0309712D01*
G37*
G36*
X0171207Y0311104D02*
X0170372Y0311939D01*
X0173711Y0315278D01*
X0174546Y0314443D01*
X0171207Y0311104D01*
G37*
G36*
X0169815Y0312496D02*
X0168980Y0313331D01*
X0172319Y0316670D01*
X0173154Y0315835D01*
X0169815Y0312496D01*
G37*
G36*
X0168423Y0313888D02*
X0167588Y0314723D01*
X0170927Y0318062D01*
X0171762Y0317227D01*
X0168423Y0313888D01*
G37*
G36*
X0167031Y0315280D02*
X0166196Y0316115D01*
X0169535Y0319454D01*
X0170370Y0318619D01*
X0167031Y0315280D01*
G37*
G36*
X0165639Y0316672D02*
X0164804Y0317507D01*
X0168143Y0320846D01*
X0168978Y0320011D01*
X0165639Y0316672D01*
G37*
G36*
X0164247Y0318064D02*
X0163412Y0318899D01*
X0166751Y0322238D01*
X0167586Y0321403D01*
X0164247Y0318064D01*
G37*
G36*
X0162855Y0319456D02*
X0162020Y0320291D01*
X0165359Y0323630D01*
X0166194Y0322795D01*
X0162855Y0319456D01*
G37*
G36*
X0161463Y0320848D02*
X0160628Y0321683D01*
X0163967Y0325022D01*
X0164802Y0324187D01*
X0161463Y0320848D01*
G37*
G36*
X0160071Y0322240D02*
X0159236Y0323075D01*
X0162575Y0326414D01*
X0163410Y0325579D01*
X0160071Y0322240D01*
G37*
G36*
X0158679Y0323631D02*
X0157844Y0324466D01*
X0161183Y0327805D01*
X0162018Y0326970D01*
X0158679Y0323631D01*
G37*
G36*
X0157287Y0325023D02*
X0156452Y0325858D01*
X0159791Y0329197D01*
X0160626Y0328362D01*
X0157287Y0325023D01*
G37*
G36*
X0155895Y0326415D02*
X0155060Y0327250D01*
X0158399Y0330589D01*
X0159234Y0329754D01*
X0155895Y0326415D01*
G37*
G36*
X0154503Y0327807D02*
X0153668Y0328642D01*
X0157007Y0331981D01*
X0157842Y0331146D01*
X0154503Y0327807D01*
G37*
G36*
X0153112Y0329199D02*
X0152277Y0330034D01*
X0155616Y0333373D01*
X0156451Y0332538D01*
X0153112Y0329199D01*
G37*
G36*
X0151720Y0330591D02*
X0150885Y0331426D01*
X0154224Y0334765D01*
X0155059Y0333930D01*
X0151720Y0330591D01*
G37*
G36*
X0150885Y0343674D02*
X0151720Y0344509D01*
X0155059Y0341170D01*
X0154224Y0340335D01*
X0150885Y0343674D01*
G37*
G36*
X0152277Y0345066D02*
X0153112Y0345901D01*
X0156451Y0342562D01*
X0155616Y0341727D01*
X0152277Y0345066D01*
G37*
G36*
X0153668Y0346458D02*
X0154503Y0347293D01*
X0157842Y0343954D01*
X0157007Y0343119D01*
X0153668Y0346458D01*
G37*
G36*
X0155060Y0347850D02*
X0155895Y0348685D01*
X0159234Y0345346D01*
X0158399Y0344511D01*
X0155060Y0347850D01*
G37*
G36*
X0156452Y0349242D02*
X0157287Y0350077D01*
X0160626Y0346738D01*
X0159791Y0345903D01*
X0156452Y0349242D01*
G37*
G36*
X0157844Y0350634D02*
X0158679Y0351469D01*
X0162018Y0348130D01*
X0161183Y0347295D01*
X0157844Y0350634D01*
G37*
G36*
X0159236Y0352025D02*
X0160071Y0352860D01*
X0163410Y0349521D01*
X0162575Y0348686D01*
X0159236Y0352025D01*
G37*
G36*
X0160628Y0353417D02*
X0161463Y0354252D01*
X0164802Y0350913D01*
X0163967Y0350078D01*
X0160628Y0353417D01*
G37*
G36*
X0162020Y0354809D02*
X0162855Y0355644D01*
X0166194Y0352305D01*
X0165359Y0351470D01*
X0162020Y0354809D01*
G37*
G36*
X0163412Y0356201D02*
X0164247Y0357036D01*
X0167586Y0353697D01*
X0166751Y0352862D01*
X0163412Y0356201D01*
G37*
G36*
X0164804Y0357593D02*
X0165639Y0358428D01*
X0168978Y0355089D01*
X0168143Y0354254D01*
X0164804Y0357593D01*
G37*
G36*
X0166196Y0358985D02*
X0167031Y0359820D01*
X0170370Y0356481D01*
X0169535Y0355646D01*
X0166196Y0358985D01*
G37*
G36*
X0167588Y0360377D02*
X0168423Y0361212D01*
X0171762Y0357873D01*
X0170927Y0357038D01*
X0167588Y0360377D01*
G37*
G36*
X0168980Y0361769D02*
X0169815Y0362604D01*
X0173154Y0359265D01*
X0172319Y0358430D01*
X0168980Y0361769D01*
G37*
G36*
X0170372Y0363161D02*
X0171207Y0363996D01*
X0174546Y0360657D01*
X0173711Y0359822D01*
X0170372Y0363161D01*
G37*
G36*
X0171764Y0364553D02*
X0172599Y0365388D01*
X0175938Y0362049D01*
X0175103Y0361214D01*
X0171764Y0364553D01*
G37*
G36*
X0173156Y0365945D02*
X0173991Y0366780D01*
X0177330Y0363441D01*
X0176495Y0362606D01*
X0173156Y0365945D01*
G37*
G36*
X0174548Y0367337D02*
X0175383Y0368172D01*
X0178722Y0364833D01*
X0177887Y0363998D01*
X0174548Y0367337D01*
G37*
G36*
X0175940Y0368729D02*
X0176775Y0369564D01*
X0180114Y0366225D01*
X0179279Y0365390D01*
X0175940Y0368729D01*
G37*
G36*
X0177331Y0370121D02*
X0178166Y0370956D01*
X0181505Y0367617D01*
X0180670Y0366782D01*
X0177331Y0370121D01*
G37*
G36*
X0178723Y0371513D02*
X0179558Y0372348D01*
X0182897Y0369009D01*
X0182062Y0368174D01*
X0178723Y0371513D01*
G37*
G36*
X0180115Y0372905D02*
X0180950Y0373740D01*
X0184289Y0370401D01*
X0183454Y0369566D01*
X0180115Y0372905D01*
G37*
G36*
X0181507Y0374297D02*
X0182342Y0375132D01*
X0185681Y0371793D01*
X0184846Y0370958D01*
X0181507Y0374297D01*
G37*
G36*
X0182899Y0375688D02*
X0183734Y0376523D01*
X0187073Y0373184D01*
X0186238Y0372349D01*
X0182899Y0375688D01*
G37*
G36*
X0184291Y0377080D02*
X0185126Y0377915D01*
X0188465Y0374576D01*
X0187630Y0373741D01*
X0184291Y0377080D01*
G37*
G36*
X0197374Y0377915D02*
X0198209Y0377080D01*
X0194870Y0373741D01*
X0194035Y0374576D01*
X0197374Y0377915D01*
G37*
G36*
X0198766Y0376523D02*
X0199601Y0375688D01*
X0196262Y0372349D01*
X0195427Y0373184D01*
X0198766Y0376523D01*
G37*
G36*
X0200158Y0375132D02*
X0200993Y0374297D01*
X0197654Y0370958D01*
X0196819Y0371793D01*
X0200158Y0375132D01*
G37*
G36*
X0201550Y0373740D02*
X0202385Y0372905D01*
X0199046Y0369566D01*
X0198211Y0370401D01*
X0201550Y0373740D01*
G37*
G36*
X0202942Y0372348D02*
X0203777Y0371513D01*
X0200438Y0368174D01*
X0199603Y0369009D01*
X0202942Y0372348D01*
G37*
G36*
X0204334Y0370956D02*
X0205169Y0370121D01*
X0201830Y0366782D01*
X0200995Y0367617D01*
X0204334Y0370956D01*
G37*
G36*
X0205725Y0369564D02*
X0206560Y0368729D01*
X0203221Y0365390D01*
X0202386Y0366225D01*
X0205725Y0369564D01*
G37*
G36*
X0207117Y0368172D02*
X0207952Y0367337D01*
X0204613Y0363998D01*
X0203778Y0364833D01*
X0207117Y0368172D01*
G37*
G36*
X0208509Y0366780D02*
X0209344Y0365945D01*
X0206005Y0362606D01*
X0205170Y0363441D01*
X0208509Y0366780D01*
G37*
G36*
X0209901Y0365388D02*
X0210736Y0364553D01*
X0207397Y0361214D01*
X0206562Y0362049D01*
X0209901Y0365388D01*
G37*
G36*
X0211293Y0363996D02*
X0212128Y0363161D01*
X0208789Y0359822D01*
X0207954Y0360657D01*
X0211293Y0363996D01*
G37*
G36*
X0212685Y0362604D02*
X0213520Y0361769D01*
X0210181Y0358430D01*
X0209346Y0359265D01*
X0212685Y0362604D01*
G37*
G36*
X0214077Y0361212D02*
X0214912Y0360377D01*
X0211573Y0357038D01*
X0210738Y0357873D01*
X0214077Y0361212D01*
G37*
G36*
X0215469Y0359820D02*
X0216304Y0358985D01*
X0212965Y0355646D01*
X0212130Y0356481D01*
X0215469Y0359820D01*
G37*
G36*
X0216861Y0358428D02*
X0217696Y0357593D01*
X0214357Y0354254D01*
X0213522Y0355089D01*
X0216861Y0358428D01*
G37*
G36*
X0218253Y0357036D02*
X0219088Y0356201D01*
X0215749Y0352862D01*
X0214914Y0353697D01*
X0218253Y0357036D01*
G37*
G36*
X0219645Y0355644D02*
X0220480Y0354809D01*
X0217141Y0351470D01*
X0216306Y0352305D01*
X0219645Y0355644D01*
G37*
G36*
X0221037Y0354252D02*
X0221872Y0353417D01*
X0218533Y0350078D01*
X0217698Y0350913D01*
X0221037Y0354252D01*
G37*
G36*
X0222429Y0352860D02*
X0223264Y0352025D01*
X0219925Y0348686D01*
X0219090Y0349521D01*
X0222429Y0352860D01*
G37*
G36*
X0223821Y0351469D02*
X0224656Y0350634D01*
X0221317Y0347295D01*
X0220482Y0348130D01*
X0223821Y0351469D01*
G37*
G36*
X0225213Y0350077D02*
X0226048Y0349242D01*
X0222709Y0345903D01*
X0221874Y0346738D01*
X0225213Y0350077D01*
G37*
G36*
X0226605Y0348685D02*
X0227440Y0347850D01*
X0224101Y0344511D01*
X0223266Y0345346D01*
X0226605Y0348685D01*
G37*
G36*
X0227997Y0347293D02*
X0228832Y0346458D01*
X0225493Y0343119D01*
X0224658Y0343954D01*
X0227997Y0347293D01*
G37*
G36*
X0229388Y0345901D02*
X0230223Y0345066D01*
X0226884Y0341727D01*
X0226049Y0342562D01*
X0229388Y0345901D01*
G37*
G36*
X0230780Y0344509D02*
X0231615Y0343674D01*
X0228276Y0340335D01*
X0227441Y0341170D01*
X0230780Y0344509D01*
G37*
G36*
X0231615Y0331426D02*
X0230780Y0330591D01*
X0227441Y0333930D01*
X0228276Y0334765D01*
X0231615Y0331426D01*
G37*
G36*
X0230223Y0330034D02*
X0229388Y0329199D01*
X0226049Y0332538D01*
X0226884Y0333373D01*
X0230223Y0330034D01*
G37*
G36*
X0228832Y0328642D02*
X0227997Y0327807D01*
X0224658Y0331146D01*
X0225493Y0331981D01*
X0228832Y0328642D01*
G37*
G36*
X0227440Y0327250D02*
X0226605Y0326415D01*
X0223266Y0329754D01*
X0224101Y0330589D01*
X0227440Y0327250D01*
G37*
G36*
X0226048Y0325858D02*
X0225213Y0325023D01*
X0221874Y0328362D01*
X0222709Y0329197D01*
X0226048Y0325858D01*
G37*
G36*
X0224656Y0324466D02*
X0223821Y0323631D01*
X0220482Y0326970D01*
X0221317Y0327805D01*
X0224656Y0324466D01*
G37*
G36*
X0223264Y0323075D02*
X0222429Y0322240D01*
X0219090Y0325579D01*
X0219925Y0326414D01*
X0223264Y0323075D01*
G37*
G36*
X0221872Y0321683D02*
X0221037Y0320848D01*
X0217698Y0324187D01*
X0218533Y0325022D01*
X0221872Y0321683D01*
G37*
G36*
X0220480Y0320291D02*
X0219645Y0319456D01*
X0216306Y0322795D01*
X0217141Y0323630D01*
X0220480Y0320291D01*
G37*
G36*
X0219088Y0318899D02*
X0218253Y0318064D01*
X0214914Y0321403D01*
X0215749Y0322238D01*
X0219088Y0318899D01*
G37*
G36*
X0217696Y0317507D02*
X0216861Y0316672D01*
X0213522Y0320011D01*
X0214357Y0320846D01*
X0217696Y0317507D01*
G37*
G36*
X0216304Y0316115D02*
X0215469Y0315280D01*
X0212130Y0318619D01*
X0212965Y0319454D01*
X0216304Y0316115D01*
G37*
G36*
X0214912Y0314723D02*
X0214077Y0313888D01*
X0210738Y0317227D01*
X0211573Y0318062D01*
X0214912Y0314723D01*
G37*
G36*
X0213520Y0313331D02*
X0212685Y0312496D01*
X0209346Y0315835D01*
X0210181Y0316670D01*
X0213520Y0313331D01*
G37*
G36*
X0212128Y0311939D02*
X0211293Y0311104D01*
X0207954Y0314443D01*
X0208789Y0315278D01*
X0212128Y0311939D01*
G37*
G36*
X0210736Y0310547D02*
X0209901Y0309712D01*
X0206562Y0313051D01*
X0207397Y0313886D01*
X0210736Y0310547D01*
G37*
G36*
X0209344Y0309155D02*
X0208509Y0308320D01*
X0205170Y0311659D01*
X0206005Y0312494D01*
X0209344Y0309155D01*
G37*
G36*
X0207952Y0307763D02*
X0207117Y0306928D01*
X0203778Y0310267D01*
X0204613Y0311102D01*
X0207952Y0307763D01*
G37*
G36*
X0206560Y0306371D02*
X0205725Y0305536D01*
X0202386Y0308875D01*
X0203221Y0309710D01*
X0206560Y0306371D01*
G37*
G36*
X0205169Y0304979D02*
X0204334Y0304144D01*
X0200995Y0307483D01*
X0201830Y0308318D01*
X0205169Y0304979D01*
G37*
G36*
X0203777Y0303587D02*
X0202942Y0302752D01*
X0199603Y0306091D01*
X0200438Y0306926D01*
X0203777Y0303587D01*
G37*
G36*
X0202385Y0302195D02*
X0201550Y0301360D01*
X0198211Y0304699D01*
X0199046Y0305534D01*
X0202385Y0302195D01*
G37*
G36*
X0200993Y0300803D02*
X0200158Y0299968D01*
X0196819Y0303307D01*
X0197654Y0304142D01*
X0200993Y0300803D01*
G37*
G36*
X0199601Y0299412D02*
X0198766Y0298577D01*
X0195427Y0301916D01*
X0196262Y0302751D01*
X0199601Y0299412D01*
G37*
G36*
X0198209Y0298020D02*
X0197374Y0297185D01*
X0194035Y0300524D01*
X0194870Y0301359D01*
X0198209Y0298020D01*
G37*
D24*
X0316565Y0276567D03*
X0321565Y0276567D03*
X0326565Y0276567D03*
X0331565Y0276567D03*
X0336565Y0276567D03*
X0341565Y0276567D03*
X0346565Y0276567D03*
X0351565Y0276567D03*
X0356565Y0276567D03*
X0361565Y0276567D03*
X0366565Y0276567D03*
X0371565Y0276567D03*
X0376565Y0276567D03*
X0381565Y0276567D03*
X0381565Y0347433D03*
X0376565Y0347433D03*
X0371565Y0347433D03*
X0366565Y0347433D03*
X0361565Y0347433D03*
X0356565Y0347433D03*
X0351565Y0347433D03*
X0346565Y0347433D03*
X0341565Y0347433D03*
X0336565Y0347433D03*
X0331565Y0347433D03*
X0326565Y0347433D03*
X0321565Y0347433D03*
X0316565Y0347433D03*
X0316565Y0125433D03*
X0321565Y0125433D03*
X0326565Y0125433D03*
X0331565Y0125433D03*
X0336565Y0125433D03*
X0341565Y0125433D03*
X0346565Y0125433D03*
X0351565Y0125433D03*
X0356565Y0125433D03*
X0361565Y0125433D03*
X0366565Y0125433D03*
X0371565Y0125433D03*
X0376565Y0125433D03*
X0381565Y0125433D03*
X0381565Y0054567D03*
X0376565Y0054567D03*
X0371565Y0054567D03*
X0366565Y0054567D03*
X0361565Y0054567D03*
X0356565Y0054567D03*
X0351565Y0054567D03*
X0346565Y0054567D03*
X0341565Y0054567D03*
X0336565Y0054567D03*
X0331565Y0054567D03*
X0326565Y0054567D03*
X0321565Y0054567D03*
X0316565Y0054567D03*
D25*
X0310699Y0067500D03*
X0310699Y0072500D03*
X0310699Y0077500D03*
X0310699Y0082500D03*
X0310699Y0087500D03*
X0310699Y0092500D03*
X0310699Y0097500D03*
X0310699Y0102500D03*
X0310699Y0107500D03*
X0310699Y0112500D03*
X0310699Y0289500D03*
X0310699Y0294500D03*
X0310699Y0299500D03*
X0310699Y0304500D03*
X0310699Y0309500D03*
X0310699Y0314500D03*
X0310699Y0319500D03*
X0310699Y0324500D03*
X0310699Y0329500D03*
X0310699Y0334500D03*
D26*
X0351250Y0312000D03*
X0351250Y0090000D03*
D27*
X0321187Y0157494D03*
X0319612Y0157494D03*
X0318037Y0157494D03*
X0316463Y0157494D03*
X0314888Y0157494D03*
X0313313Y0157494D03*
X0313313Y0169306D03*
X0314888Y0169306D03*
X0316463Y0169306D03*
X0318037Y0169306D03*
X0319612Y0169306D03*
X0321187Y0169306D03*
X0321187Y0379494D03*
X0319612Y0379494D03*
X0318037Y0379494D03*
X0316463Y0379494D03*
X0314888Y0379494D03*
X0313313Y0379494D03*
X0313313Y0391306D03*
X0314888Y0391306D03*
X0316463Y0391306D03*
X0318037Y0391306D03*
X0319612Y0391306D03*
X0321187Y0391306D03*
D28*
X0323156Y0389337D03*
X0323156Y0387762D03*
X0323156Y0386187D03*
X0323156Y0384613D03*
X0323156Y0383038D03*
X0323156Y0381463D03*
X0311344Y0381463D03*
X0311344Y0383038D03*
X0311344Y0384613D03*
X0311344Y0386187D03*
X0311344Y0387762D03*
X0311344Y0389337D03*
X0311344Y0167337D03*
X0311344Y0165762D03*
X0311344Y0164187D03*
X0311344Y0162613D03*
X0311344Y0161038D03*
X0311344Y0159463D03*
X0323156Y0159463D03*
X0323156Y0161038D03*
X0323156Y0162613D03*
X0323156Y0164187D03*
X0323156Y0165762D03*
X0323156Y0167337D03*
D29*
X0319250Y0146746D03*
X0319250Y0140054D03*
X0313250Y0140054D03*
X0307250Y0140054D03*
X0307250Y0146746D03*
X0313250Y0146746D03*
X0285750Y0146746D03*
X0285750Y0140054D03*
X0237500Y0118796D03*
X0237500Y0112104D03*
X0233750Y0043096D03*
X0233750Y0036404D03*
X0146250Y0036404D03*
X0146250Y0043096D03*
X0097750Y0043654D03*
X0091750Y0043654D03*
X0085750Y0043654D03*
X0079750Y0043654D03*
X0073750Y0043654D03*
X0073750Y0050346D03*
X0079750Y0050346D03*
X0085750Y0050346D03*
X0091750Y0050346D03*
X0097750Y0050346D03*
X0092250Y0089154D03*
X0086250Y0089154D03*
X0080250Y0089154D03*
X0074250Y0089154D03*
X0074250Y0095846D03*
X0080250Y0095846D03*
X0086250Y0095846D03*
X0092250Y0095846D03*
X0145000Y0112204D03*
X0145000Y0118896D03*
X0086250Y0152654D03*
X0086250Y0159346D03*
X0086250Y0167654D03*
X0086250Y0174346D03*
X0061250Y0173346D03*
X0055250Y0173346D03*
X0055250Y0166654D03*
X0061250Y0166654D03*
X0074750Y0199154D03*
X0081750Y0199154D03*
X0081750Y0205846D03*
X0074750Y0205846D03*
X0103750Y0205846D03*
X0110750Y0205846D03*
X0110750Y0199154D03*
X0103750Y0199154D03*
X0128250Y0199154D03*
X0128250Y0205846D03*
X0148250Y0205846D03*
X0148250Y0199154D03*
X0207250Y0197154D03*
X0207250Y0203846D03*
X0217250Y0217154D03*
X0217250Y0223846D03*
X0231250Y0223846D03*
X0231250Y0217154D03*
X0241250Y0203846D03*
X0241250Y0197154D03*
X0257250Y0199154D03*
X0257250Y0205846D03*
X0277250Y0205846D03*
X0277250Y0199154D03*
X0290250Y0199154D03*
X0290250Y0205846D03*
X0310250Y0205846D03*
X0310250Y0199154D03*
X0323250Y0199154D03*
X0323250Y0205846D03*
X0343250Y0205846D03*
X0343250Y0199154D03*
X0356250Y0199154D03*
X0356250Y0205846D03*
X0376250Y0205846D03*
X0376250Y0199154D03*
X0233750Y0258404D03*
X0233750Y0265096D03*
X0237500Y0334104D03*
X0237500Y0340796D03*
X0285750Y0362054D03*
X0285750Y0368746D03*
X0307250Y0368746D03*
X0313250Y0368746D03*
X0313250Y0362054D03*
X0307250Y0362054D03*
X0319250Y0362054D03*
X0319250Y0368746D03*
X0323250Y0421154D03*
X0323250Y0427846D03*
X0310250Y0427846D03*
X0310250Y0421154D03*
X0290250Y0421154D03*
X0290250Y0427846D03*
X0277250Y0427846D03*
X0277250Y0421154D03*
X0257250Y0421154D03*
X0257250Y0427846D03*
X0241250Y0425846D03*
X0241250Y0419154D03*
X0231250Y0439154D03*
X0231250Y0445846D03*
X0217250Y0445846D03*
X0217250Y0439154D03*
X0207250Y0425846D03*
X0207250Y0419154D03*
X0148250Y0421154D03*
X0148250Y0427846D03*
X0128250Y0427846D03*
X0128250Y0421154D03*
X0110750Y0421154D03*
X0110750Y0427846D03*
X0103750Y0427846D03*
X0103750Y0421154D03*
X0081750Y0421154D03*
X0081750Y0427846D03*
X0074750Y0427846D03*
X0074750Y0421154D03*
X0086250Y0396346D03*
X0086250Y0389654D03*
X0086250Y0381346D03*
X0086250Y0374654D03*
X0061250Y0388654D03*
X0055250Y0388654D03*
X0055250Y0395346D03*
X0061250Y0395346D03*
X0074250Y0317846D03*
X0074250Y0311154D03*
X0080250Y0311154D03*
X0086250Y0311154D03*
X0092250Y0311154D03*
X0092250Y0317846D03*
X0086250Y0317846D03*
X0080250Y0317846D03*
X0079750Y0272346D03*
X0073750Y0272346D03*
X0073750Y0265654D03*
X0079750Y0265654D03*
X0085750Y0265654D03*
X0091750Y0265654D03*
X0097750Y0265654D03*
X0097750Y0272346D03*
X0091750Y0272346D03*
X0085750Y0272346D03*
X0146250Y0265096D03*
X0146250Y0258404D03*
X0145000Y0334204D03*
X0145000Y0340896D03*
X0343250Y0421154D03*
X0343250Y0427846D03*
X0356250Y0427846D03*
X0356250Y0421154D03*
X0376250Y0421154D03*
X0376250Y0427846D03*
D30*
X0300990Y0369700D03*
X0293510Y0369700D03*
X0293510Y0361100D03*
X0297250Y0361100D03*
X0300990Y0361100D03*
X0300990Y0147700D03*
X0293510Y0147700D03*
X0293510Y0139100D03*
X0297250Y0139100D03*
X0300990Y0139100D03*
D31*
X0234990Y0202563D03*
X0227510Y0202563D03*
X0220990Y0202563D03*
X0213510Y0202563D03*
X0217250Y0210831D03*
X0210990Y0218437D03*
X0203510Y0218437D03*
X0207250Y0210169D03*
X0231250Y0210831D03*
X0237510Y0218437D03*
X0241250Y0210169D03*
X0244990Y0218437D03*
X0256510Y0218563D03*
X0263990Y0218563D03*
X0270510Y0218563D03*
X0277990Y0218563D03*
X0274250Y0226831D03*
X0260250Y0226831D03*
X0289510Y0218563D03*
X0296990Y0218563D03*
X0303510Y0218563D03*
X0310990Y0218563D03*
X0307250Y0226831D03*
X0293250Y0226831D03*
X0322510Y0218563D03*
X0329990Y0218563D03*
X0336510Y0218563D03*
X0343990Y0218563D03*
X0340250Y0226831D03*
X0326250Y0226831D03*
X0355510Y0218563D03*
X0362990Y0218563D03*
X0369510Y0218563D03*
X0376990Y0218563D03*
X0373250Y0226831D03*
X0359250Y0226831D03*
X0148990Y0218563D03*
X0141510Y0218563D03*
X0134990Y0218563D03*
X0127510Y0218563D03*
X0131250Y0226831D03*
X0145250Y0226831D03*
X0104490Y0218563D03*
X0097010Y0218563D03*
X0088490Y0218563D03*
X0081010Y0218563D03*
X0084750Y0226831D03*
X0100750Y0226831D03*
X0213510Y0424563D03*
X0220990Y0424563D03*
X0227510Y0424563D03*
X0231250Y0432831D03*
X0234990Y0424563D03*
X0241250Y0432169D03*
X0237510Y0440437D03*
X0244990Y0440437D03*
X0256510Y0440563D03*
X0263990Y0440563D03*
X0270510Y0440563D03*
X0274250Y0448831D03*
X0277990Y0440563D03*
X0289510Y0440563D03*
X0296990Y0440563D03*
X0293250Y0448831D03*
X0303510Y0440563D03*
X0310990Y0440563D03*
X0307250Y0448831D03*
X0322510Y0440563D03*
X0326250Y0448831D03*
X0329990Y0440563D03*
X0336510Y0440563D03*
X0343990Y0440563D03*
X0340250Y0448831D03*
X0355510Y0440563D03*
X0359250Y0448831D03*
X0362990Y0440563D03*
X0369510Y0440563D03*
X0376990Y0440563D03*
X0373250Y0448831D03*
X0260250Y0448831D03*
X0217250Y0432831D03*
X0210990Y0440437D03*
X0203510Y0440437D03*
X0207250Y0432169D03*
X0148990Y0440563D03*
X0145250Y0448831D03*
X0141510Y0440563D03*
X0134990Y0440563D03*
X0131250Y0448831D03*
X0127510Y0440563D03*
X0104490Y0440563D03*
X0097010Y0440563D03*
X0100750Y0448831D03*
X0088490Y0440563D03*
X0081010Y0440563D03*
X0084750Y0448831D03*
D32*
X0085407Y0455500D03*
X0090329Y0455500D03*
X0095250Y0455500D03*
X0100171Y0455500D03*
X0130907Y0455500D03*
X0135829Y0455500D03*
X0140750Y0455500D03*
X0145671Y0455500D03*
X0176329Y0455500D03*
X0181250Y0455500D03*
X0186171Y0455500D03*
X0216907Y0455500D03*
X0221829Y0455500D03*
X0226750Y0455500D03*
X0231671Y0455500D03*
X0262329Y0455500D03*
X0267250Y0455500D03*
X0272171Y0455500D03*
X0295329Y0455500D03*
X0300250Y0455500D03*
X0305171Y0455500D03*
X0328329Y0455500D03*
X0333250Y0455500D03*
X0338171Y0455500D03*
X0361329Y0455500D03*
X0366250Y0455500D03*
X0371171Y0455500D03*
X0371171Y0233500D03*
X0366250Y0233500D03*
X0361329Y0233500D03*
X0338171Y0233500D03*
X0333250Y0233500D03*
X0328329Y0233500D03*
X0305171Y0233500D03*
X0300250Y0233500D03*
X0295329Y0233500D03*
X0272171Y0233500D03*
X0267250Y0233500D03*
X0262329Y0233500D03*
X0231671Y0233500D03*
X0226750Y0233500D03*
X0221829Y0233500D03*
X0216907Y0233500D03*
X0186171Y0233500D03*
X0181250Y0233500D03*
X0176329Y0233500D03*
X0145671Y0233500D03*
X0140750Y0233500D03*
X0135829Y0233500D03*
X0130907Y0233500D03*
X0100171Y0233500D03*
X0095250Y0233500D03*
X0090329Y0233500D03*
X0085407Y0233500D03*
D33*
X0077632Y0243185D03*
X0107947Y0243185D03*
X0123132Y0243185D03*
X0153447Y0243185D03*
X0168553Y0243185D03*
X0193947Y0243185D03*
X0209132Y0243185D03*
X0239447Y0243185D03*
X0254553Y0243185D03*
X0279947Y0243185D03*
X0287553Y0243185D03*
X0312947Y0243185D03*
X0320553Y0243185D03*
X0345947Y0243185D03*
X0353553Y0243185D03*
X0378947Y0243185D03*
X0378947Y0465185D03*
X0353553Y0465185D03*
X0345947Y0465185D03*
X0320553Y0465185D03*
X0312947Y0465185D03*
X0287553Y0465185D03*
X0279947Y0465185D03*
X0254553Y0465185D03*
X0239447Y0465185D03*
X0209132Y0465185D03*
X0193947Y0465185D03*
X0168553Y0465185D03*
X0153447Y0465185D03*
X0123132Y0465185D03*
X0107947Y0465185D03*
X0077632Y0465185D03*
D34*
X0077869Y0396240D03*
X0077869Y0388760D03*
X0067631Y0388760D03*
X0067631Y0392500D03*
X0067631Y0396240D03*
X0067631Y0174240D03*
X0067631Y0170500D03*
X0067631Y0166760D03*
X0077869Y0166760D03*
X0077869Y0174240D03*
D35*
X0107250Y0175250D03*
X0122250Y0175250D03*
X0122250Y0153250D03*
X0107250Y0153250D03*
X0107250Y0375250D03*
X0122250Y0375250D03*
X0122250Y0397250D03*
X0107250Y0397250D03*
D36*
X0154000Y0269250D03*
X0154000Y0254250D03*
X0176000Y0254250D03*
X0176000Y0269250D03*
X0204000Y0269250D03*
X0204000Y0254250D03*
X0226000Y0254250D03*
X0226000Y0269250D03*
X0312750Y0269250D03*
X0312750Y0254250D03*
X0334750Y0254250D03*
X0334750Y0269250D03*
X0359000Y0269250D03*
X0359000Y0254250D03*
X0381000Y0254250D03*
X0381000Y0269250D03*
X0381000Y0047250D03*
X0381000Y0032250D03*
X0359000Y0032250D03*
X0359000Y0047250D03*
X0334750Y0047250D03*
X0334750Y0032250D03*
X0312750Y0032250D03*
X0312750Y0047250D03*
X0226000Y0047250D03*
X0226000Y0032250D03*
X0204000Y0032250D03*
X0204000Y0047250D03*
X0176000Y0047250D03*
X0176000Y0032250D03*
X0154000Y0032250D03*
X0154000Y0047250D03*
D37*
X0160419Y0052122D02*
X0160419Y0054878D01*
X0163175Y0054878D01*
X0163175Y0052122D01*
X0160419Y0052122D01*
X0160419Y0053244D02*
X0163175Y0053244D01*
X0163175Y0054366D02*
X0160419Y0054366D01*
X0167325Y0054878D02*
X0167325Y0052122D01*
X0167325Y0054878D02*
X0170081Y0054878D01*
X0170081Y0052122D01*
X0167325Y0052122D01*
X0167325Y0053244D02*
X0170081Y0053244D01*
X0170081Y0054366D02*
X0167325Y0054366D01*
X0209919Y0054878D02*
X0209919Y0052122D01*
X0209919Y0054878D02*
X0212675Y0054878D01*
X0212675Y0052122D01*
X0209919Y0052122D01*
X0209919Y0053244D02*
X0212675Y0053244D01*
X0212675Y0054366D02*
X0209919Y0054366D01*
X0216825Y0054878D02*
X0216825Y0052122D01*
X0216825Y0054878D02*
X0219581Y0054878D01*
X0219581Y0052122D01*
X0216825Y0052122D01*
X0216825Y0053244D02*
X0219581Y0053244D01*
X0219581Y0054366D02*
X0216825Y0054366D01*
X0103628Y0087669D02*
X0100872Y0087669D01*
X0100872Y0090425D01*
X0103628Y0090425D01*
X0103628Y0087669D01*
X0103628Y0088791D02*
X0100872Y0088791D01*
X0100872Y0089913D02*
X0103628Y0089913D01*
X0103628Y0094575D02*
X0100872Y0094575D01*
X0100872Y0097331D01*
X0103628Y0097331D01*
X0103628Y0094575D01*
X0103628Y0095697D02*
X0100872Y0095697D01*
X0100872Y0096819D02*
X0103628Y0096819D01*
X0098628Y0094575D02*
X0095872Y0094575D01*
X0095872Y0097331D01*
X0098628Y0097331D01*
X0098628Y0094575D01*
X0098628Y0095697D02*
X0095872Y0095697D01*
X0095872Y0096819D02*
X0098628Y0096819D01*
X0098628Y0087669D02*
X0095872Y0087669D01*
X0095872Y0090425D01*
X0098628Y0090425D01*
X0098628Y0087669D01*
X0098628Y0088791D02*
X0095872Y0088791D01*
X0095872Y0089913D02*
X0098628Y0089913D01*
X0050628Y0167925D02*
X0047872Y0167925D01*
X0050628Y0167925D02*
X0050628Y0165169D01*
X0047872Y0165169D01*
X0047872Y0167925D01*
X0047872Y0166291D02*
X0050628Y0166291D01*
X0050628Y0167413D02*
X0047872Y0167413D01*
X0047872Y0174831D02*
X0050628Y0174831D01*
X0050628Y0172075D01*
X0047872Y0172075D01*
X0047872Y0174831D01*
X0047872Y0173197D02*
X0050628Y0173197D01*
X0050628Y0174319D02*
X0047872Y0174319D01*
X0073372Y0214425D02*
X0076128Y0214425D01*
X0076128Y0211669D01*
X0073372Y0211669D01*
X0073372Y0214425D01*
X0073372Y0212791D02*
X0076128Y0212791D01*
X0076128Y0213913D02*
X0073372Y0213913D01*
X0073372Y0221331D02*
X0076128Y0221331D01*
X0076128Y0218575D01*
X0073372Y0218575D01*
X0073372Y0221331D01*
X0073372Y0219697D02*
X0076128Y0219697D01*
X0076128Y0220819D02*
X0073372Y0220819D01*
X0109372Y0221331D02*
X0112128Y0221331D01*
X0112128Y0218575D01*
X0109372Y0218575D01*
X0109372Y0221331D01*
X0109372Y0219697D02*
X0112128Y0219697D01*
X0112128Y0220819D02*
X0109372Y0220819D01*
X0109372Y0214425D02*
X0112128Y0214425D01*
X0112128Y0211669D01*
X0109372Y0211669D01*
X0109372Y0214425D01*
X0109372Y0212791D02*
X0112128Y0212791D01*
X0112128Y0213913D02*
X0109372Y0213913D01*
X0160419Y0274122D02*
X0160419Y0276878D01*
X0163175Y0276878D01*
X0163175Y0274122D01*
X0160419Y0274122D01*
X0160419Y0275244D02*
X0163175Y0275244D01*
X0163175Y0276366D02*
X0160419Y0276366D01*
X0167325Y0276878D02*
X0167325Y0274122D01*
X0167325Y0276878D02*
X0170081Y0276878D01*
X0170081Y0274122D01*
X0167325Y0274122D01*
X0167325Y0275244D02*
X0170081Y0275244D01*
X0170081Y0276366D02*
X0167325Y0276366D01*
X0209919Y0276878D02*
X0209919Y0274122D01*
X0209919Y0276878D02*
X0212675Y0276878D01*
X0212675Y0274122D01*
X0209919Y0274122D01*
X0209919Y0275244D02*
X0212675Y0275244D01*
X0212675Y0276366D02*
X0209919Y0276366D01*
X0216825Y0276878D02*
X0216825Y0274122D01*
X0216825Y0276878D02*
X0219581Y0276878D01*
X0219581Y0274122D01*
X0216825Y0274122D01*
X0216825Y0275244D02*
X0219581Y0275244D01*
X0219581Y0276366D02*
X0216825Y0276366D01*
X0103628Y0309669D02*
X0100872Y0309669D01*
X0100872Y0312425D01*
X0103628Y0312425D01*
X0103628Y0309669D01*
X0103628Y0310791D02*
X0100872Y0310791D01*
X0100872Y0311913D02*
X0103628Y0311913D01*
X0103628Y0316575D02*
X0100872Y0316575D01*
X0100872Y0319331D01*
X0103628Y0319331D01*
X0103628Y0316575D01*
X0103628Y0317697D02*
X0100872Y0317697D01*
X0100872Y0318819D02*
X0103628Y0318819D01*
X0098628Y0316575D02*
X0095872Y0316575D01*
X0095872Y0319331D01*
X0098628Y0319331D01*
X0098628Y0316575D01*
X0098628Y0317697D02*
X0095872Y0317697D01*
X0095872Y0318819D02*
X0098628Y0318819D01*
X0098628Y0309669D02*
X0095872Y0309669D01*
X0095872Y0312425D01*
X0098628Y0312425D01*
X0098628Y0309669D01*
X0098628Y0310791D02*
X0095872Y0310791D01*
X0095872Y0311913D02*
X0098628Y0311913D01*
X0050628Y0389925D02*
X0047872Y0389925D01*
X0050628Y0389925D02*
X0050628Y0387169D01*
X0047872Y0387169D01*
X0047872Y0389925D01*
X0047872Y0388291D02*
X0050628Y0388291D01*
X0050628Y0389413D02*
X0047872Y0389413D01*
X0047872Y0396831D02*
X0050628Y0396831D01*
X0050628Y0394075D01*
X0047872Y0394075D01*
X0047872Y0396831D01*
X0047872Y0395197D02*
X0050628Y0395197D01*
X0050628Y0396319D02*
X0047872Y0396319D01*
X0073372Y0436425D02*
X0076128Y0436425D01*
X0076128Y0433669D01*
X0073372Y0433669D01*
X0073372Y0436425D01*
X0073372Y0434791D02*
X0076128Y0434791D01*
X0076128Y0435913D02*
X0073372Y0435913D01*
X0073372Y0443331D02*
X0076128Y0443331D01*
X0076128Y0440575D01*
X0073372Y0440575D01*
X0073372Y0443331D01*
X0073372Y0441697D02*
X0076128Y0441697D01*
X0076128Y0442819D02*
X0073372Y0442819D01*
X0109372Y0443331D02*
X0112128Y0443331D01*
X0112128Y0440575D01*
X0109372Y0440575D01*
X0109372Y0443331D01*
X0109372Y0441697D02*
X0112128Y0441697D01*
X0112128Y0442819D02*
X0109372Y0442819D01*
X0109372Y0436425D02*
X0112128Y0436425D01*
X0112128Y0433669D01*
X0109372Y0433669D01*
X0109372Y0436425D01*
X0109372Y0434791D02*
X0112128Y0434791D01*
X0112128Y0435913D02*
X0109372Y0435913D01*
D38*
X0059250Y0373421D03*
X0059250Y0368500D03*
X0080250Y0367543D03*
X0080250Y0360457D03*
X0059250Y0151421D03*
X0059250Y0146500D03*
X0080250Y0145543D03*
X0080250Y0138457D03*
D39*
X0049565Y0138724D03*
X0049565Y0159197D03*
X0049565Y0360724D03*
X0049565Y0381197D03*
D40*
X0065919Y0378000D03*
X0074187Y0381740D03*
X0074187Y0374260D03*
X0074187Y0367740D03*
X0074187Y0360260D03*
X0065919Y0364000D03*
X0074187Y0159740D03*
X0065919Y0156000D03*
X0074187Y0152260D03*
X0074187Y0145740D03*
X0065919Y0142000D03*
X0074187Y0138260D03*
D41*
X0072722Y0132000D03*
X0081778Y0132000D03*
X0081778Y0354000D03*
X0072722Y0354000D03*
D42*
X0080250Y0373472D03*
X0080250Y0382528D03*
X0080250Y0160528D03*
X0080250Y0151472D03*
D43*
X0292510Y0122000D03*
X0292510Y0119244D03*
X0299990Y0119244D03*
X0299990Y0122000D03*
X0299990Y0341244D03*
X0299990Y0344000D03*
X0292510Y0344000D03*
X0292510Y0341244D03*
D44*
X0292510Y0346756D03*
X0299990Y0346756D03*
X0299990Y0124756D03*
X0292510Y0124756D03*
D45*
X0293707Y0156313D03*
X0293707Y0157888D03*
X0293707Y0159463D03*
X0293707Y0161038D03*
X0293707Y0162613D03*
X0293707Y0164187D03*
X0293707Y0165762D03*
X0293707Y0167337D03*
X0293707Y0168912D03*
X0293707Y0170487D03*
X0300793Y0170487D03*
X0300793Y0168912D03*
X0300793Y0167337D03*
X0300793Y0165762D03*
X0300793Y0164187D03*
X0300793Y0162613D03*
X0300793Y0161038D03*
X0300793Y0159463D03*
X0300793Y0157888D03*
X0293707Y0378313D03*
X0293707Y0379888D03*
X0293707Y0381463D03*
X0293707Y0383038D03*
X0293707Y0384613D03*
X0293707Y0386187D03*
X0293707Y0387762D03*
X0293707Y0389337D03*
X0293707Y0390912D03*
X0293707Y0392487D03*
X0300793Y0392487D03*
X0300793Y0390912D03*
X0300793Y0389337D03*
X0300793Y0387762D03*
X0300793Y0386187D03*
X0300793Y0384613D03*
X0300793Y0383038D03*
X0300793Y0381463D03*
X0300793Y0379888D03*
D46*
X0300596Y0378313D03*
X0300596Y0156313D03*
D47*
X0098012Y0076152D02*
X0094174Y0076152D01*
X0098012Y0076152D02*
X0098012Y0075660D01*
X0094174Y0075660D01*
X0094174Y0076152D01*
X0094174Y0076127D02*
X0098012Y0076127D01*
X0098012Y0074183D02*
X0094174Y0074183D01*
X0098012Y0074183D02*
X0098012Y0073691D01*
X0094174Y0073691D01*
X0094174Y0074183D01*
X0094174Y0074158D02*
X0098012Y0074158D01*
X0098012Y0072215D02*
X0094174Y0072215D01*
X0098012Y0072215D02*
X0098012Y0071723D01*
X0094174Y0071723D01*
X0094174Y0072215D01*
X0094174Y0072190D02*
X0098012Y0072190D01*
X0098012Y0070246D02*
X0094174Y0070246D01*
X0098012Y0070246D02*
X0098012Y0069754D01*
X0094174Y0069754D01*
X0094174Y0070246D01*
X0094174Y0070221D02*
X0098012Y0070221D01*
X0098012Y0068277D02*
X0094174Y0068277D01*
X0098012Y0068277D02*
X0098012Y0067785D01*
X0094174Y0067785D01*
X0094174Y0068277D01*
X0094174Y0068252D02*
X0098012Y0068252D01*
X0098012Y0066309D02*
X0094174Y0066309D01*
X0098012Y0066309D02*
X0098012Y0065817D01*
X0094174Y0065817D01*
X0094174Y0066309D01*
X0094174Y0066284D02*
X0098012Y0066284D01*
X0098012Y0064340D02*
X0094174Y0064340D01*
X0098012Y0064340D02*
X0098012Y0063848D01*
X0094174Y0063848D01*
X0094174Y0064340D01*
X0094174Y0064315D02*
X0098012Y0064315D01*
X0092402Y0062076D02*
X0092402Y0058238D01*
X0091910Y0058238D01*
X0091910Y0062076D01*
X0092402Y0062076D01*
X0092402Y0058705D02*
X0091910Y0058705D01*
X0091910Y0059172D02*
X0092402Y0059172D01*
X0092402Y0059639D02*
X0091910Y0059639D01*
X0091910Y0060106D02*
X0092402Y0060106D01*
X0092402Y0060573D02*
X0091910Y0060573D01*
X0091910Y0061040D02*
X0092402Y0061040D01*
X0092402Y0061507D02*
X0091910Y0061507D01*
X0091910Y0061974D02*
X0092402Y0061974D01*
X0090433Y0062076D02*
X0090433Y0058238D01*
X0089941Y0058238D01*
X0089941Y0062076D01*
X0090433Y0062076D01*
X0090433Y0058705D02*
X0089941Y0058705D01*
X0089941Y0059172D02*
X0090433Y0059172D01*
X0090433Y0059639D02*
X0089941Y0059639D01*
X0089941Y0060106D02*
X0090433Y0060106D01*
X0090433Y0060573D02*
X0089941Y0060573D01*
X0089941Y0061040D02*
X0090433Y0061040D01*
X0090433Y0061507D02*
X0089941Y0061507D01*
X0089941Y0061974D02*
X0090433Y0061974D01*
X0088465Y0062076D02*
X0088465Y0058238D01*
X0087973Y0058238D01*
X0087973Y0062076D01*
X0088465Y0062076D01*
X0088465Y0058705D02*
X0087973Y0058705D01*
X0087973Y0059172D02*
X0088465Y0059172D01*
X0088465Y0059639D02*
X0087973Y0059639D01*
X0087973Y0060106D02*
X0088465Y0060106D01*
X0088465Y0060573D02*
X0087973Y0060573D01*
X0087973Y0061040D02*
X0088465Y0061040D01*
X0088465Y0061507D02*
X0087973Y0061507D01*
X0087973Y0061974D02*
X0088465Y0061974D01*
X0086496Y0062076D02*
X0086496Y0058238D01*
X0086004Y0058238D01*
X0086004Y0062076D01*
X0086496Y0062076D01*
X0086496Y0058705D02*
X0086004Y0058705D01*
X0086004Y0059172D02*
X0086496Y0059172D01*
X0086496Y0059639D02*
X0086004Y0059639D01*
X0086004Y0060106D02*
X0086496Y0060106D01*
X0086496Y0060573D02*
X0086004Y0060573D01*
X0086004Y0061040D02*
X0086496Y0061040D01*
X0086496Y0061507D02*
X0086004Y0061507D01*
X0086004Y0061974D02*
X0086496Y0061974D01*
X0084527Y0062076D02*
X0084527Y0058238D01*
X0084035Y0058238D01*
X0084035Y0062076D01*
X0084527Y0062076D01*
X0084527Y0058705D02*
X0084035Y0058705D01*
X0084035Y0059172D02*
X0084527Y0059172D01*
X0084527Y0059639D02*
X0084035Y0059639D01*
X0084035Y0060106D02*
X0084527Y0060106D01*
X0084527Y0060573D02*
X0084035Y0060573D01*
X0084035Y0061040D02*
X0084527Y0061040D01*
X0084527Y0061507D02*
X0084035Y0061507D01*
X0084035Y0061974D02*
X0084527Y0061974D01*
X0082559Y0062076D02*
X0082559Y0058238D01*
X0082067Y0058238D01*
X0082067Y0062076D01*
X0082559Y0062076D01*
X0082559Y0058705D02*
X0082067Y0058705D01*
X0082067Y0059172D02*
X0082559Y0059172D01*
X0082559Y0059639D02*
X0082067Y0059639D01*
X0082067Y0060106D02*
X0082559Y0060106D01*
X0082559Y0060573D02*
X0082067Y0060573D01*
X0082067Y0061040D02*
X0082559Y0061040D01*
X0082559Y0061507D02*
X0082067Y0061507D01*
X0082067Y0061974D02*
X0082559Y0061974D01*
X0080590Y0062076D02*
X0080590Y0058238D01*
X0080098Y0058238D01*
X0080098Y0062076D01*
X0080590Y0062076D01*
X0080590Y0058705D02*
X0080098Y0058705D01*
X0080098Y0059172D02*
X0080590Y0059172D01*
X0080590Y0059639D02*
X0080098Y0059639D01*
X0080098Y0060106D02*
X0080590Y0060106D01*
X0080590Y0060573D02*
X0080098Y0060573D01*
X0080098Y0061040D02*
X0080590Y0061040D01*
X0080590Y0061507D02*
X0080098Y0061507D01*
X0080098Y0061974D02*
X0080590Y0061974D01*
X0078326Y0063848D02*
X0074488Y0063848D01*
X0074488Y0064340D01*
X0078326Y0064340D01*
X0078326Y0063848D01*
X0078326Y0064315D02*
X0074488Y0064315D01*
X0074488Y0065817D02*
X0078326Y0065817D01*
X0074488Y0065817D02*
X0074488Y0066309D01*
X0078326Y0066309D01*
X0078326Y0065817D01*
X0078326Y0066284D02*
X0074488Y0066284D01*
X0074488Y0067785D02*
X0078326Y0067785D01*
X0074488Y0067785D02*
X0074488Y0068277D01*
X0078326Y0068277D01*
X0078326Y0067785D01*
X0078326Y0068252D02*
X0074488Y0068252D01*
X0074488Y0069754D02*
X0078326Y0069754D01*
X0074488Y0069754D02*
X0074488Y0070246D01*
X0078326Y0070246D01*
X0078326Y0069754D01*
X0078326Y0070221D02*
X0074488Y0070221D01*
X0074488Y0071723D02*
X0078326Y0071723D01*
X0074488Y0071723D02*
X0074488Y0072215D01*
X0078326Y0072215D01*
X0078326Y0071723D01*
X0078326Y0072190D02*
X0074488Y0072190D01*
X0074488Y0073691D02*
X0078326Y0073691D01*
X0074488Y0073691D02*
X0074488Y0074183D01*
X0078326Y0074183D01*
X0078326Y0073691D01*
X0078326Y0074158D02*
X0074488Y0074158D01*
X0074488Y0075660D02*
X0078326Y0075660D01*
X0074488Y0075660D02*
X0074488Y0076152D01*
X0078326Y0076152D01*
X0078326Y0075660D01*
X0078326Y0076127D02*
X0074488Y0076127D01*
X0080098Y0077924D02*
X0080098Y0081762D01*
X0080590Y0081762D01*
X0080590Y0077924D01*
X0080098Y0077924D01*
X0080098Y0078391D02*
X0080590Y0078391D01*
X0080590Y0078858D02*
X0080098Y0078858D01*
X0080098Y0079325D02*
X0080590Y0079325D01*
X0080590Y0079792D02*
X0080098Y0079792D01*
X0080098Y0080259D02*
X0080590Y0080259D01*
X0080590Y0080726D02*
X0080098Y0080726D01*
X0080098Y0081193D02*
X0080590Y0081193D01*
X0080590Y0081660D02*
X0080098Y0081660D01*
X0082067Y0081762D02*
X0082067Y0077924D01*
X0082067Y0081762D02*
X0082559Y0081762D01*
X0082559Y0077924D01*
X0082067Y0077924D01*
X0082067Y0078391D02*
X0082559Y0078391D01*
X0082559Y0078858D02*
X0082067Y0078858D01*
X0082067Y0079325D02*
X0082559Y0079325D01*
X0082559Y0079792D02*
X0082067Y0079792D01*
X0082067Y0080259D02*
X0082559Y0080259D01*
X0082559Y0080726D02*
X0082067Y0080726D01*
X0082067Y0081193D02*
X0082559Y0081193D01*
X0082559Y0081660D02*
X0082067Y0081660D01*
X0084035Y0081762D02*
X0084035Y0077924D01*
X0084035Y0081762D02*
X0084527Y0081762D01*
X0084527Y0077924D01*
X0084035Y0077924D01*
X0084035Y0078391D02*
X0084527Y0078391D01*
X0084527Y0078858D02*
X0084035Y0078858D01*
X0084035Y0079325D02*
X0084527Y0079325D01*
X0084527Y0079792D02*
X0084035Y0079792D01*
X0084035Y0080259D02*
X0084527Y0080259D01*
X0084527Y0080726D02*
X0084035Y0080726D01*
X0084035Y0081193D02*
X0084527Y0081193D01*
X0084527Y0081660D02*
X0084035Y0081660D01*
X0086004Y0081762D02*
X0086004Y0077924D01*
X0086004Y0081762D02*
X0086496Y0081762D01*
X0086496Y0077924D01*
X0086004Y0077924D01*
X0086004Y0078391D02*
X0086496Y0078391D01*
X0086496Y0078858D02*
X0086004Y0078858D01*
X0086004Y0079325D02*
X0086496Y0079325D01*
X0086496Y0079792D02*
X0086004Y0079792D01*
X0086004Y0080259D02*
X0086496Y0080259D01*
X0086496Y0080726D02*
X0086004Y0080726D01*
X0086004Y0081193D02*
X0086496Y0081193D01*
X0086496Y0081660D02*
X0086004Y0081660D01*
X0087973Y0081762D02*
X0087973Y0077924D01*
X0087973Y0081762D02*
X0088465Y0081762D01*
X0088465Y0077924D01*
X0087973Y0077924D01*
X0087973Y0078391D02*
X0088465Y0078391D01*
X0088465Y0078858D02*
X0087973Y0078858D01*
X0087973Y0079325D02*
X0088465Y0079325D01*
X0088465Y0079792D02*
X0087973Y0079792D01*
X0087973Y0080259D02*
X0088465Y0080259D01*
X0088465Y0080726D02*
X0087973Y0080726D01*
X0087973Y0081193D02*
X0088465Y0081193D01*
X0088465Y0081660D02*
X0087973Y0081660D01*
X0089941Y0081762D02*
X0089941Y0077924D01*
X0089941Y0081762D02*
X0090433Y0081762D01*
X0090433Y0077924D01*
X0089941Y0077924D01*
X0089941Y0078391D02*
X0090433Y0078391D01*
X0090433Y0078858D02*
X0089941Y0078858D01*
X0089941Y0079325D02*
X0090433Y0079325D01*
X0090433Y0079792D02*
X0089941Y0079792D01*
X0089941Y0080259D02*
X0090433Y0080259D01*
X0090433Y0080726D02*
X0089941Y0080726D01*
X0089941Y0081193D02*
X0090433Y0081193D01*
X0090433Y0081660D02*
X0089941Y0081660D01*
X0091910Y0081762D02*
X0091910Y0077924D01*
X0091910Y0081762D02*
X0092402Y0081762D01*
X0092402Y0077924D01*
X0091910Y0077924D01*
X0091910Y0078391D02*
X0092402Y0078391D01*
X0092402Y0078858D02*
X0091910Y0078858D01*
X0091910Y0079325D02*
X0092402Y0079325D01*
X0092402Y0079792D02*
X0091910Y0079792D01*
X0091910Y0080259D02*
X0092402Y0080259D01*
X0092402Y0080726D02*
X0091910Y0080726D01*
X0091910Y0081193D02*
X0092402Y0081193D01*
X0092402Y0081660D02*
X0091910Y0081660D01*
X0092402Y0280238D02*
X0092402Y0284076D01*
X0092402Y0280238D02*
X0091910Y0280238D01*
X0091910Y0284076D01*
X0092402Y0284076D01*
X0092402Y0280705D02*
X0091910Y0280705D01*
X0091910Y0281172D02*
X0092402Y0281172D01*
X0092402Y0281639D02*
X0091910Y0281639D01*
X0091910Y0282106D02*
X0092402Y0282106D01*
X0092402Y0282573D02*
X0091910Y0282573D01*
X0091910Y0283040D02*
X0092402Y0283040D01*
X0092402Y0283507D02*
X0091910Y0283507D01*
X0091910Y0283974D02*
X0092402Y0283974D01*
X0090433Y0284076D02*
X0090433Y0280238D01*
X0089941Y0280238D01*
X0089941Y0284076D01*
X0090433Y0284076D01*
X0090433Y0280705D02*
X0089941Y0280705D01*
X0089941Y0281172D02*
X0090433Y0281172D01*
X0090433Y0281639D02*
X0089941Y0281639D01*
X0089941Y0282106D02*
X0090433Y0282106D01*
X0090433Y0282573D02*
X0089941Y0282573D01*
X0089941Y0283040D02*
X0090433Y0283040D01*
X0090433Y0283507D02*
X0089941Y0283507D01*
X0089941Y0283974D02*
X0090433Y0283974D01*
X0088465Y0284076D02*
X0088465Y0280238D01*
X0087973Y0280238D01*
X0087973Y0284076D01*
X0088465Y0284076D01*
X0088465Y0280705D02*
X0087973Y0280705D01*
X0087973Y0281172D02*
X0088465Y0281172D01*
X0088465Y0281639D02*
X0087973Y0281639D01*
X0087973Y0282106D02*
X0088465Y0282106D01*
X0088465Y0282573D02*
X0087973Y0282573D01*
X0087973Y0283040D02*
X0088465Y0283040D01*
X0088465Y0283507D02*
X0087973Y0283507D01*
X0087973Y0283974D02*
X0088465Y0283974D01*
X0086496Y0284076D02*
X0086496Y0280238D01*
X0086004Y0280238D01*
X0086004Y0284076D01*
X0086496Y0284076D01*
X0086496Y0280705D02*
X0086004Y0280705D01*
X0086004Y0281172D02*
X0086496Y0281172D01*
X0086496Y0281639D02*
X0086004Y0281639D01*
X0086004Y0282106D02*
X0086496Y0282106D01*
X0086496Y0282573D02*
X0086004Y0282573D01*
X0086004Y0283040D02*
X0086496Y0283040D01*
X0086496Y0283507D02*
X0086004Y0283507D01*
X0086004Y0283974D02*
X0086496Y0283974D01*
X0084527Y0284076D02*
X0084527Y0280238D01*
X0084035Y0280238D01*
X0084035Y0284076D01*
X0084527Y0284076D01*
X0084527Y0280705D02*
X0084035Y0280705D01*
X0084035Y0281172D02*
X0084527Y0281172D01*
X0084527Y0281639D02*
X0084035Y0281639D01*
X0084035Y0282106D02*
X0084527Y0282106D01*
X0084527Y0282573D02*
X0084035Y0282573D01*
X0084035Y0283040D02*
X0084527Y0283040D01*
X0084527Y0283507D02*
X0084035Y0283507D01*
X0084035Y0283974D02*
X0084527Y0283974D01*
X0082559Y0284076D02*
X0082559Y0280238D01*
X0082067Y0280238D01*
X0082067Y0284076D01*
X0082559Y0284076D01*
X0082559Y0280705D02*
X0082067Y0280705D01*
X0082067Y0281172D02*
X0082559Y0281172D01*
X0082559Y0281639D02*
X0082067Y0281639D01*
X0082067Y0282106D02*
X0082559Y0282106D01*
X0082559Y0282573D02*
X0082067Y0282573D01*
X0082067Y0283040D02*
X0082559Y0283040D01*
X0082559Y0283507D02*
X0082067Y0283507D01*
X0082067Y0283974D02*
X0082559Y0283974D01*
X0080590Y0284076D02*
X0080590Y0280238D01*
X0080098Y0280238D01*
X0080098Y0284076D01*
X0080590Y0284076D01*
X0080590Y0280705D02*
X0080098Y0280705D01*
X0080098Y0281172D02*
X0080590Y0281172D01*
X0080590Y0281639D02*
X0080098Y0281639D01*
X0080098Y0282106D02*
X0080590Y0282106D01*
X0080590Y0282573D02*
X0080098Y0282573D01*
X0080098Y0283040D02*
X0080590Y0283040D01*
X0080590Y0283507D02*
X0080098Y0283507D01*
X0080098Y0283974D02*
X0080590Y0283974D01*
X0078326Y0285848D02*
X0074488Y0285848D01*
X0074488Y0286340D01*
X0078326Y0286340D01*
X0078326Y0285848D01*
X0078326Y0286315D02*
X0074488Y0286315D01*
X0074488Y0287817D02*
X0078326Y0287817D01*
X0074488Y0287817D02*
X0074488Y0288309D01*
X0078326Y0288309D01*
X0078326Y0287817D01*
X0078326Y0288284D02*
X0074488Y0288284D01*
X0074488Y0289785D02*
X0078326Y0289785D01*
X0074488Y0289785D02*
X0074488Y0290277D01*
X0078326Y0290277D01*
X0078326Y0289785D01*
X0078326Y0290252D02*
X0074488Y0290252D01*
X0074488Y0291754D02*
X0078326Y0291754D01*
X0074488Y0291754D02*
X0074488Y0292246D01*
X0078326Y0292246D01*
X0078326Y0291754D01*
X0078326Y0292221D02*
X0074488Y0292221D01*
X0074488Y0293723D02*
X0078326Y0293723D01*
X0074488Y0293723D02*
X0074488Y0294215D01*
X0078326Y0294215D01*
X0078326Y0293723D01*
X0078326Y0294190D02*
X0074488Y0294190D01*
X0074488Y0295691D02*
X0078326Y0295691D01*
X0074488Y0295691D02*
X0074488Y0296183D01*
X0078326Y0296183D01*
X0078326Y0295691D01*
X0078326Y0296158D02*
X0074488Y0296158D01*
X0074488Y0297660D02*
X0078326Y0297660D01*
X0074488Y0297660D02*
X0074488Y0298152D01*
X0078326Y0298152D01*
X0078326Y0297660D01*
X0078326Y0298127D02*
X0074488Y0298127D01*
X0080098Y0299924D02*
X0080098Y0303762D01*
X0080590Y0303762D01*
X0080590Y0299924D01*
X0080098Y0299924D01*
X0080098Y0300391D02*
X0080590Y0300391D01*
X0080590Y0300858D02*
X0080098Y0300858D01*
X0080098Y0301325D02*
X0080590Y0301325D01*
X0080590Y0301792D02*
X0080098Y0301792D01*
X0080098Y0302259D02*
X0080590Y0302259D01*
X0080590Y0302726D02*
X0080098Y0302726D01*
X0080098Y0303193D02*
X0080590Y0303193D01*
X0080590Y0303660D02*
X0080098Y0303660D01*
X0082067Y0303762D02*
X0082067Y0299924D01*
X0082067Y0303762D02*
X0082559Y0303762D01*
X0082559Y0299924D01*
X0082067Y0299924D01*
X0082067Y0300391D02*
X0082559Y0300391D01*
X0082559Y0300858D02*
X0082067Y0300858D01*
X0082067Y0301325D02*
X0082559Y0301325D01*
X0082559Y0301792D02*
X0082067Y0301792D01*
X0082067Y0302259D02*
X0082559Y0302259D01*
X0082559Y0302726D02*
X0082067Y0302726D01*
X0082067Y0303193D02*
X0082559Y0303193D01*
X0082559Y0303660D02*
X0082067Y0303660D01*
X0084035Y0303762D02*
X0084035Y0299924D01*
X0084035Y0303762D02*
X0084527Y0303762D01*
X0084527Y0299924D01*
X0084035Y0299924D01*
X0084035Y0300391D02*
X0084527Y0300391D01*
X0084527Y0300858D02*
X0084035Y0300858D01*
X0084035Y0301325D02*
X0084527Y0301325D01*
X0084527Y0301792D02*
X0084035Y0301792D01*
X0084035Y0302259D02*
X0084527Y0302259D01*
X0084527Y0302726D02*
X0084035Y0302726D01*
X0084035Y0303193D02*
X0084527Y0303193D01*
X0084527Y0303660D02*
X0084035Y0303660D01*
X0086004Y0303762D02*
X0086004Y0299924D01*
X0086004Y0303762D02*
X0086496Y0303762D01*
X0086496Y0299924D01*
X0086004Y0299924D01*
X0086004Y0300391D02*
X0086496Y0300391D01*
X0086496Y0300858D02*
X0086004Y0300858D01*
X0086004Y0301325D02*
X0086496Y0301325D01*
X0086496Y0301792D02*
X0086004Y0301792D01*
X0086004Y0302259D02*
X0086496Y0302259D01*
X0086496Y0302726D02*
X0086004Y0302726D01*
X0086004Y0303193D02*
X0086496Y0303193D01*
X0086496Y0303660D02*
X0086004Y0303660D01*
X0087973Y0303762D02*
X0087973Y0299924D01*
X0087973Y0303762D02*
X0088465Y0303762D01*
X0088465Y0299924D01*
X0087973Y0299924D01*
X0087973Y0300391D02*
X0088465Y0300391D01*
X0088465Y0300858D02*
X0087973Y0300858D01*
X0087973Y0301325D02*
X0088465Y0301325D01*
X0088465Y0301792D02*
X0087973Y0301792D01*
X0087973Y0302259D02*
X0088465Y0302259D01*
X0088465Y0302726D02*
X0087973Y0302726D01*
X0087973Y0303193D02*
X0088465Y0303193D01*
X0088465Y0303660D02*
X0087973Y0303660D01*
X0089941Y0303762D02*
X0089941Y0299924D01*
X0089941Y0303762D02*
X0090433Y0303762D01*
X0090433Y0299924D01*
X0089941Y0299924D01*
X0089941Y0300391D02*
X0090433Y0300391D01*
X0090433Y0300858D02*
X0089941Y0300858D01*
X0089941Y0301325D02*
X0090433Y0301325D01*
X0090433Y0301792D02*
X0089941Y0301792D01*
X0089941Y0302259D02*
X0090433Y0302259D01*
X0090433Y0302726D02*
X0089941Y0302726D01*
X0089941Y0303193D02*
X0090433Y0303193D01*
X0090433Y0303660D02*
X0089941Y0303660D01*
X0091910Y0303762D02*
X0091910Y0299924D01*
X0091910Y0303762D02*
X0092402Y0303762D01*
X0092402Y0299924D01*
X0091910Y0299924D01*
X0091910Y0300391D02*
X0092402Y0300391D01*
X0092402Y0300858D02*
X0091910Y0300858D01*
X0091910Y0301325D02*
X0092402Y0301325D01*
X0092402Y0301792D02*
X0091910Y0301792D01*
X0091910Y0302259D02*
X0092402Y0302259D01*
X0092402Y0302726D02*
X0091910Y0302726D01*
X0091910Y0303193D02*
X0092402Y0303193D01*
X0092402Y0303660D02*
X0091910Y0303660D01*
X0094174Y0298152D02*
X0098012Y0298152D01*
X0098012Y0297660D01*
X0094174Y0297660D01*
X0094174Y0298152D01*
X0094174Y0298127D02*
X0098012Y0298127D01*
X0098012Y0296183D02*
X0094174Y0296183D01*
X0098012Y0296183D02*
X0098012Y0295691D01*
X0094174Y0295691D01*
X0094174Y0296183D01*
X0094174Y0296158D02*
X0098012Y0296158D01*
X0098012Y0294215D02*
X0094174Y0294215D01*
X0098012Y0294215D02*
X0098012Y0293723D01*
X0094174Y0293723D01*
X0094174Y0294215D01*
X0094174Y0294190D02*
X0098012Y0294190D01*
X0098012Y0292246D02*
X0094174Y0292246D01*
X0098012Y0292246D02*
X0098012Y0291754D01*
X0094174Y0291754D01*
X0094174Y0292246D01*
X0094174Y0292221D02*
X0098012Y0292221D01*
X0098012Y0290277D02*
X0094174Y0290277D01*
X0098012Y0290277D02*
X0098012Y0289785D01*
X0094174Y0289785D01*
X0094174Y0290277D01*
X0094174Y0290252D02*
X0098012Y0290252D01*
X0098012Y0288309D02*
X0094174Y0288309D01*
X0098012Y0288309D02*
X0098012Y0287817D01*
X0094174Y0287817D01*
X0094174Y0288309D01*
X0094174Y0288284D02*
X0098012Y0288284D01*
X0098012Y0286340D02*
X0094174Y0286340D01*
X0098012Y0286340D02*
X0098012Y0285848D01*
X0094174Y0285848D01*
X0094174Y0286340D01*
X0094174Y0286315D02*
X0098012Y0286315D01*
D48*
X0089006Y0289244D03*
X0083494Y0289244D03*
X0083494Y0294756D03*
X0089006Y0294756D03*
X0089006Y0072756D03*
X0089006Y0067244D03*
X0083494Y0067244D03*
X0083494Y0072756D03*
D49*
G36*
X0159585Y0143800D02*
X0154297Y0138512D01*
X0151235Y0141574D01*
X0156523Y0146862D01*
X0159585Y0143800D01*
G37*
G36*
X0169886Y0154101D02*
X0164598Y0148813D01*
X0161536Y0151875D01*
X0166824Y0157163D01*
X0169886Y0154101D01*
G37*
G36*
X0163483Y0160504D02*
X0158195Y0155216D01*
X0155133Y0158278D01*
X0160421Y0163566D01*
X0163483Y0160504D01*
G37*
G36*
X0153182Y0150203D02*
X0147894Y0144915D01*
X0144832Y0147977D01*
X0150120Y0153265D01*
X0153182Y0150203D01*
G37*
G36*
X0159585Y0365800D02*
X0154297Y0360512D01*
X0151235Y0363574D01*
X0156523Y0368862D01*
X0159585Y0365800D01*
G37*
G36*
X0169886Y0376101D02*
X0164598Y0370813D01*
X0161536Y0373875D01*
X0166824Y0379163D01*
X0169886Y0376101D01*
G37*
G36*
X0163483Y0382504D02*
X0158195Y0377216D01*
X0155133Y0380278D01*
X0160421Y0385566D01*
X0163483Y0382504D01*
G37*
G36*
X0153182Y0372203D02*
X0147894Y0366915D01*
X0144832Y0369977D01*
X0150120Y0375265D01*
X0153182Y0372203D01*
G37*
M02*
