G75*
%MOIN*%
%OFA0B0*%
%FSLAX25Y25*%
%IPPOS*%
%LPD*%
%AMOC8*
5,1,8,0,0,1.08239X$1,22.5*
%
%ADD10R,0.05131X0.04737*%
%ADD11R,0.07690X0.02375*%
%ADD12R,0.06548X0.08674*%
%ADD13R,0.10643X0.06410*%
%ADD14C,0.00400*%
%ADD15R,0.07690X0.03556*%
%ADD16R,0.06706X0.06706*%
%ADD17R,0.06706X0.05918*%
%ADD18R,0.06706X0.03950*%
%ADD19R,0.06312X0.03950*%
%ADD20R,0.04737X0.06509*%
%ADD21R,0.06902X0.04737*%
%ADD22R,0.01981X0.03398*%
%ADD23R,0.01981X0.05524*%
%ADD24R,0.04343X0.06706*%
%ADD25R,0.06706X0.04343*%
%ADD26R,0.24422X0.24422*%
%ADD27R,0.01784X0.02749*%
%ADD28R,0.01784X0.03162*%
%ADD29R,0.02749X0.01784*%
%ADD30R,0.03162X0.01784*%
%ADD31R,0.01783X0.00409*%
%ADD32R,0.00409X0.01783*%
%ADD33R,0.04737X0.05131*%
%ADD34R,0.03000X0.07000*%
%ADD35R,0.03950X0.04343*%
%ADD36R,0.03300X0.05800*%
%ADD37C,0.00500*%
%ADD38R,0.03950X0.05524*%
%ADD39R,0.05918X0.09265*%
%ADD40R,0.05524X0.02965*%
%ADD41C,0.04737*%
%ADD42R,0.03800X0.06800*%
%ADD43R,0.06800X0.03800*%
%ADD44C,0.01990*%
%ADD45R,0.05524X0.03950*%
%ADD46R,0.09265X0.05918*%
%ADD47R,0.04343X0.03950*%
%ADD48R,0.05800X0.03300*%
%ADD49R,0.03280X0.04068*%
%ADD50R,0.04068X0.03280*%
%ADD51R,0.04737X0.01981*%
%ADD52R,0.04737X0.02178*%
%ADD53R,0.05131X0.01587*%
%ADD54R,0.04737X0.01587*%
%ADD55C,0.01285*%
%ADD56R,0.13595X0.13595*%
%ADD57R,0.08280X0.05131*%
%ADD58C,0.13800*%
%ADD59C,0.05000*%
%ADD60C,0.06706*%
D10*
X0073404Y0107500D03*
X0080096Y0107500D03*
X0111404Y0139250D03*
X0118096Y0139250D03*
X0118096Y0146750D03*
X0111404Y0146750D03*
G36*
X0144525Y0139311D02*
X0140898Y0142938D01*
X0144247Y0146287D01*
X0147874Y0142660D01*
X0144525Y0139311D01*
G37*
G36*
X0149258Y0134578D02*
X0145631Y0138205D01*
X0148980Y0141554D01*
X0152607Y0137927D01*
X0149258Y0134578D01*
G37*
G36*
X0170193Y0162767D02*
X0173820Y0159140D01*
X0170471Y0155791D01*
X0166844Y0159418D01*
X0170193Y0162767D01*
G37*
G36*
X0165460Y0167500D02*
X0169087Y0163873D01*
X0165738Y0160524D01*
X0162111Y0164151D01*
X0165460Y0167500D01*
G37*
X0187904Y0168000D03*
X0187904Y0161800D03*
X0194596Y0161800D03*
X0194596Y0168000D03*
X0213904Y0196500D03*
X0220596Y0196500D03*
X0227904Y0196500D03*
X0234596Y0196500D03*
X0256904Y0212500D03*
X0263596Y0212500D03*
X0270904Y0212500D03*
X0277596Y0212500D03*
X0289904Y0212500D03*
X0296596Y0212500D03*
X0303904Y0212500D03*
X0310596Y0212500D03*
X0322904Y0212500D03*
X0329596Y0212500D03*
X0336904Y0212500D03*
X0343596Y0212500D03*
X0355904Y0212500D03*
X0362596Y0212500D03*
X0369904Y0212500D03*
X0376596Y0212500D03*
X0299596Y0291500D03*
X0299596Y0297500D03*
X0299596Y0303500D03*
X0292904Y0303500D03*
X0292904Y0297500D03*
X0292904Y0291500D03*
X0292904Y0309500D03*
X0292904Y0315500D03*
X0292904Y0321500D03*
X0292904Y0327500D03*
X0292904Y0333500D03*
X0299596Y0333500D03*
X0299596Y0327500D03*
X0299596Y0321500D03*
X0299596Y0315500D03*
X0299596Y0309500D03*
X0284846Y0266750D03*
X0278154Y0266750D03*
X0271346Y0266750D03*
X0264654Y0266750D03*
X0264654Y0258250D03*
X0271346Y0258250D03*
X0278154Y0258250D03*
X0284846Y0258250D03*
X0244596Y0224500D03*
X0237904Y0224500D03*
X0210596Y0224500D03*
X0203904Y0224500D03*
X0148596Y0212500D03*
X0141904Y0212500D03*
X0134596Y0212500D03*
X0127904Y0212500D03*
X0104096Y0212500D03*
X0097404Y0212500D03*
X0088096Y0212500D03*
X0081404Y0212500D03*
X0161904Y0281000D03*
X0168596Y0281000D03*
X0187904Y0291500D03*
X0194596Y0291500D03*
X0211404Y0281000D03*
X0218096Y0281000D03*
G36*
X0149258Y0356578D02*
X0145631Y0360205D01*
X0148980Y0363554D01*
X0152607Y0359927D01*
X0149258Y0356578D01*
G37*
G36*
X0144525Y0361311D02*
X0140898Y0364938D01*
X0144247Y0368287D01*
X0147874Y0364660D01*
X0144525Y0361311D01*
G37*
X0118096Y0361250D03*
X0118096Y0368750D03*
X0111404Y0368750D03*
X0111404Y0361250D03*
X0080096Y0329500D03*
X0073404Y0329500D03*
G36*
X0165460Y0389500D02*
X0169087Y0385873D01*
X0165738Y0382524D01*
X0162111Y0386151D01*
X0165460Y0389500D01*
G37*
G36*
X0170193Y0384767D02*
X0173820Y0381140D01*
X0170471Y0377791D01*
X0166844Y0381418D01*
X0170193Y0384767D01*
G37*
X0187904Y0383800D03*
X0194596Y0383800D03*
X0194596Y0390000D03*
X0187904Y0390000D03*
X0213904Y0418500D03*
X0220596Y0418500D03*
X0227904Y0418500D03*
X0234596Y0418500D03*
X0256904Y0434500D03*
X0263596Y0434500D03*
X0270904Y0434500D03*
X0277596Y0434500D03*
X0289904Y0434500D03*
X0296596Y0434500D03*
X0303904Y0434500D03*
X0310596Y0434500D03*
X0322904Y0434500D03*
X0329596Y0434500D03*
X0336904Y0434500D03*
X0343596Y0434500D03*
X0355904Y0434500D03*
X0362596Y0434500D03*
X0369904Y0434500D03*
X0376596Y0434500D03*
X0244596Y0446500D03*
X0237904Y0446500D03*
X0210596Y0446500D03*
X0203904Y0446500D03*
X0148596Y0434500D03*
X0141904Y0434500D03*
X0134596Y0434500D03*
X0127904Y0434500D03*
X0104096Y0434500D03*
X0097404Y0434500D03*
X0088096Y0434500D03*
X0081404Y0434500D03*
X0292904Y0111500D03*
X0292904Y0105500D03*
X0299596Y0105500D03*
X0299596Y0111500D03*
X0299596Y0099500D03*
X0299596Y0093500D03*
X0299596Y0087500D03*
X0299596Y0081500D03*
X0299596Y0075500D03*
X0292904Y0075500D03*
X0292904Y0081500D03*
X0292904Y0087500D03*
X0292904Y0093500D03*
X0292904Y0099500D03*
X0292904Y0069500D03*
X0299596Y0069500D03*
X0284846Y0044750D03*
X0278154Y0044750D03*
X0271346Y0044750D03*
X0271346Y0036250D03*
X0278154Y0036250D03*
X0284846Y0036250D03*
X0264654Y0036250D03*
X0264654Y0044750D03*
X0218096Y0059000D03*
X0211404Y0059000D03*
X0194596Y0069500D03*
X0187904Y0069500D03*
X0168596Y0059000D03*
X0161904Y0059000D03*
D11*
X0061250Y0063882D03*
X0061250Y0066441D03*
X0061250Y0069000D03*
X0061250Y0071559D03*
X0061250Y0074118D03*
X0061250Y0111382D03*
X0061250Y0113941D03*
X0061250Y0116500D03*
X0061250Y0119059D03*
X0061250Y0121618D03*
X0061250Y0285882D03*
X0061250Y0288441D03*
X0061250Y0291000D03*
X0061250Y0293559D03*
X0061250Y0296118D03*
X0061250Y0333382D03*
X0061250Y0335941D03*
X0061250Y0338500D03*
X0061250Y0341059D03*
X0061250Y0343618D03*
D12*
X0062333Y0349917D03*
X0062333Y0327083D03*
X0062333Y0302417D03*
X0062333Y0279583D03*
X0062333Y0127917D03*
X0062333Y0105083D03*
X0062333Y0080417D03*
X0062333Y0057583D03*
D13*
X0050719Y0065211D03*
X0050719Y0072789D03*
X0050719Y0112711D03*
X0050719Y0120289D03*
X0050719Y0287211D03*
X0050719Y0294789D03*
X0050719Y0334711D03*
X0050719Y0342289D03*
D14*
X0048553Y0346374D02*
X0048242Y0346365D01*
X0047936Y0346425D01*
X0047651Y0346552D01*
X0047402Y0346739D01*
X0047200Y0346977D01*
X0047057Y0347253D01*
X0046978Y0347555D01*
X0046978Y0350311D01*
X0047018Y0350661D01*
X0047134Y0350994D01*
X0047322Y0351293D01*
X0047571Y0351542D01*
X0047870Y0351730D01*
X0048203Y0351846D01*
X0048553Y0351886D01*
X0055640Y0351886D01*
X0055640Y0353461D01*
X0058789Y0353461D01*
X0058789Y0346374D01*
X0048553Y0346374D01*
X0047741Y0346512D02*
X0058789Y0346512D01*
X0058789Y0346911D02*
X0047256Y0346911D01*
X0047042Y0347309D02*
X0058789Y0347309D01*
X0058789Y0347708D02*
X0046978Y0347708D01*
X0046978Y0348106D02*
X0058789Y0348106D01*
X0058789Y0348505D02*
X0046978Y0348505D01*
X0046978Y0348903D02*
X0058789Y0348903D01*
X0058789Y0349302D02*
X0046978Y0349302D01*
X0046978Y0349700D02*
X0058789Y0349700D01*
X0058789Y0350099D02*
X0046978Y0350099D01*
X0046999Y0350497D02*
X0058789Y0350497D01*
X0058789Y0350896D02*
X0047100Y0350896D01*
X0047323Y0351294D02*
X0058789Y0351294D01*
X0058789Y0351693D02*
X0047811Y0351693D01*
X0055640Y0352091D02*
X0058789Y0352091D01*
X0058789Y0352490D02*
X0055640Y0352490D01*
X0055640Y0352888D02*
X0058789Y0352888D01*
X0058789Y0353287D02*
X0055640Y0353287D01*
X0058789Y0330626D02*
X0048159Y0330626D01*
X0047897Y0330596D01*
X0047647Y0330509D01*
X0047423Y0330368D01*
X0047236Y0330181D01*
X0047095Y0329957D01*
X0047008Y0329708D01*
X0046978Y0329445D01*
X0046978Y0326295D01*
X0046969Y0325984D01*
X0047029Y0325678D01*
X0047156Y0325393D01*
X0047343Y0325144D01*
X0047581Y0324942D01*
X0047858Y0324799D01*
X0048159Y0324720D01*
X0055640Y0324720D01*
X0055640Y0323539D01*
X0058789Y0323539D01*
X0058789Y0330626D01*
X0058789Y0330572D02*
X0047826Y0330572D01*
X0047231Y0330173D02*
X0058789Y0330173D01*
X0058789Y0329775D02*
X0047031Y0329775D01*
X0046978Y0329376D02*
X0058789Y0329376D01*
X0058789Y0328978D02*
X0046978Y0328978D01*
X0046978Y0328579D02*
X0058789Y0328579D01*
X0058789Y0328181D02*
X0046978Y0328181D01*
X0046978Y0327782D02*
X0058789Y0327782D01*
X0058789Y0327383D02*
X0046978Y0327383D01*
X0046978Y0326985D02*
X0058789Y0326985D01*
X0058789Y0326586D02*
X0046978Y0326586D01*
X0046975Y0326188D02*
X0058789Y0326188D01*
X0058789Y0325789D02*
X0047007Y0325789D01*
X0047158Y0325391D02*
X0058789Y0325391D01*
X0058789Y0324992D02*
X0047522Y0324992D01*
X0055640Y0324594D02*
X0058789Y0324594D01*
X0058789Y0324195D02*
X0055640Y0324195D01*
X0055640Y0323797D02*
X0058789Y0323797D01*
X0058789Y0305961D02*
X0055640Y0305961D01*
X0055640Y0304386D01*
X0048553Y0304386D01*
X0048203Y0304346D01*
X0047870Y0304230D01*
X0047571Y0304042D01*
X0047322Y0303793D01*
X0047134Y0303494D01*
X0047018Y0303161D01*
X0046978Y0302811D01*
X0046978Y0300055D01*
X0047057Y0299753D01*
X0047200Y0299477D01*
X0047402Y0299239D01*
X0047651Y0299052D01*
X0047936Y0298925D01*
X0048242Y0298865D01*
X0048553Y0298874D01*
X0058789Y0298874D01*
X0058789Y0305961D01*
X0058789Y0305864D02*
X0055640Y0305864D01*
X0055640Y0305465D02*
X0058789Y0305465D01*
X0058789Y0305067D02*
X0055640Y0305067D01*
X0055640Y0304668D02*
X0058789Y0304668D01*
X0058789Y0304270D02*
X0047984Y0304270D01*
X0047400Y0303871D02*
X0058789Y0303871D01*
X0058789Y0303473D02*
X0047127Y0303473D01*
X0047008Y0303074D02*
X0058789Y0303074D01*
X0058789Y0302676D02*
X0046978Y0302676D01*
X0046978Y0302277D02*
X0058789Y0302277D01*
X0058789Y0301879D02*
X0046978Y0301879D01*
X0046978Y0301480D02*
X0058789Y0301480D01*
X0058789Y0301082D02*
X0046978Y0301082D01*
X0046978Y0300683D02*
X0058789Y0300683D01*
X0058789Y0300285D02*
X0046978Y0300285D01*
X0047022Y0299886D02*
X0058789Y0299886D01*
X0058789Y0299488D02*
X0047195Y0299488D01*
X0047601Y0299089D02*
X0058789Y0299089D01*
X0058789Y0283126D02*
X0048159Y0283126D01*
X0047897Y0283096D01*
X0047647Y0283009D01*
X0047423Y0282868D01*
X0047236Y0282681D01*
X0047095Y0282457D01*
X0047008Y0282208D01*
X0046978Y0281945D01*
X0046978Y0278795D01*
X0046969Y0278484D01*
X0047029Y0278178D01*
X0047156Y0277893D01*
X0047343Y0277644D01*
X0047581Y0277442D01*
X0047858Y0277299D01*
X0048159Y0277220D01*
X0055640Y0277220D01*
X0055640Y0276039D01*
X0058789Y0276039D01*
X0058789Y0283126D01*
X0058789Y0282750D02*
X0047305Y0282750D01*
X0047058Y0282352D02*
X0058789Y0282352D01*
X0058789Y0281953D02*
X0046979Y0281953D01*
X0046978Y0281555D02*
X0058789Y0281555D01*
X0058789Y0281156D02*
X0046978Y0281156D01*
X0046978Y0280758D02*
X0058789Y0280758D01*
X0058789Y0280359D02*
X0046978Y0280359D01*
X0046978Y0279961D02*
X0058789Y0279961D01*
X0058789Y0279562D02*
X0046978Y0279562D01*
X0046978Y0279164D02*
X0058789Y0279164D01*
X0058789Y0278765D02*
X0046977Y0278765D01*
X0046992Y0278367D02*
X0058789Y0278367D01*
X0058789Y0277968D02*
X0047123Y0277968D01*
X0047431Y0277570D02*
X0058789Y0277570D01*
X0058789Y0277171D02*
X0055640Y0277171D01*
X0055640Y0276773D02*
X0058789Y0276773D01*
X0058789Y0276374D02*
X0055640Y0276374D01*
X0055640Y0131461D02*
X0058789Y0131461D01*
X0058789Y0124374D01*
X0048553Y0124374D01*
X0048242Y0124365D01*
X0047936Y0124425D01*
X0047651Y0124552D01*
X0047402Y0124739D01*
X0047200Y0124977D01*
X0047057Y0125253D01*
X0046978Y0125555D01*
X0046978Y0128311D01*
X0047018Y0128661D01*
X0047134Y0128994D01*
X0047322Y0129293D01*
X0047571Y0129542D01*
X0047870Y0129730D01*
X0048203Y0129846D01*
X0048553Y0129886D01*
X0055640Y0129886D01*
X0055640Y0131461D01*
X0055640Y0131316D02*
X0058789Y0131316D01*
X0058789Y0130917D02*
X0055640Y0130917D01*
X0055640Y0130519D02*
X0058789Y0130519D01*
X0058789Y0130120D02*
X0055640Y0130120D01*
X0058789Y0129722D02*
X0047857Y0129722D01*
X0047352Y0129323D02*
X0058789Y0129323D01*
X0058789Y0128925D02*
X0047110Y0128925D01*
X0047003Y0128526D02*
X0058789Y0128526D01*
X0058789Y0128128D02*
X0046978Y0128128D01*
X0046978Y0127729D02*
X0058789Y0127729D01*
X0058789Y0127331D02*
X0046978Y0127331D01*
X0046978Y0126932D02*
X0058789Y0126932D01*
X0058789Y0126534D02*
X0046978Y0126534D01*
X0046978Y0126135D02*
X0058789Y0126135D01*
X0058789Y0125737D02*
X0046978Y0125737D01*
X0047035Y0125338D02*
X0058789Y0125338D01*
X0058789Y0124940D02*
X0047232Y0124940D01*
X0047675Y0124541D02*
X0058789Y0124541D01*
X0058789Y0108626D02*
X0048159Y0108626D01*
X0047897Y0108596D01*
X0047647Y0108509D01*
X0047423Y0108368D01*
X0047236Y0108181D01*
X0047095Y0107957D01*
X0047008Y0107708D01*
X0046978Y0107445D01*
X0046978Y0104295D01*
X0046969Y0103984D01*
X0047029Y0103678D01*
X0047156Y0103393D01*
X0047343Y0103144D01*
X0047581Y0102942D01*
X0047858Y0102799D01*
X0048159Y0102720D01*
X0055640Y0102720D01*
X0055640Y0101539D01*
X0058789Y0101539D01*
X0058789Y0108626D01*
X0058789Y0108601D02*
X0047936Y0108601D01*
X0047257Y0108202D02*
X0058789Y0108202D01*
X0058789Y0107804D02*
X0047042Y0107804D01*
X0046978Y0107405D02*
X0058789Y0107405D01*
X0058789Y0107007D02*
X0046978Y0107007D01*
X0046978Y0106608D02*
X0058789Y0106608D01*
X0058789Y0106210D02*
X0046978Y0106210D01*
X0046978Y0105811D02*
X0058789Y0105811D01*
X0058789Y0105413D02*
X0046978Y0105413D01*
X0046978Y0105014D02*
X0058789Y0105014D01*
X0058789Y0104616D02*
X0046978Y0104616D01*
X0046976Y0104217D02*
X0058789Y0104217D01*
X0058789Y0103819D02*
X0047002Y0103819D01*
X0047144Y0103420D02*
X0058789Y0103420D01*
X0058789Y0103022D02*
X0047488Y0103022D01*
X0055640Y0102623D02*
X0058789Y0102623D01*
X0058789Y0102225D02*
X0055640Y0102225D01*
X0055640Y0101826D02*
X0058789Y0101826D01*
X0058789Y0083961D02*
X0055640Y0083961D01*
X0055640Y0082386D01*
X0048553Y0082386D01*
X0048203Y0082346D01*
X0047870Y0082230D01*
X0047571Y0082042D01*
X0047322Y0081793D01*
X0047134Y0081494D01*
X0047018Y0081161D01*
X0046978Y0080811D01*
X0046978Y0078055D01*
X0047057Y0077753D01*
X0047200Y0077477D01*
X0047402Y0077239D01*
X0047651Y0077052D01*
X0047936Y0076925D01*
X0048242Y0076865D01*
X0048553Y0076874D01*
X0058789Y0076874D01*
X0058789Y0083961D01*
X0058789Y0083893D02*
X0055640Y0083893D01*
X0055640Y0083495D02*
X0058789Y0083495D01*
X0058789Y0083096D02*
X0055640Y0083096D01*
X0055640Y0082698D02*
X0058789Y0082698D01*
X0058789Y0082299D02*
X0048067Y0082299D01*
X0047430Y0081901D02*
X0058789Y0081901D01*
X0058789Y0081502D02*
X0047139Y0081502D01*
X0047011Y0081103D02*
X0058789Y0081103D01*
X0058789Y0080705D02*
X0046978Y0080705D01*
X0046978Y0080306D02*
X0058789Y0080306D01*
X0058789Y0079908D02*
X0046978Y0079908D01*
X0046978Y0079509D02*
X0058789Y0079509D01*
X0058789Y0079111D02*
X0046978Y0079111D01*
X0046978Y0078712D02*
X0058789Y0078712D01*
X0058789Y0078314D02*
X0046978Y0078314D01*
X0047015Y0077915D02*
X0058789Y0077915D01*
X0058789Y0077517D02*
X0047179Y0077517D01*
X0047562Y0077118D02*
X0058789Y0077118D01*
X0058789Y0061126D02*
X0048159Y0061126D01*
X0047897Y0061096D01*
X0047647Y0061009D01*
X0047423Y0060868D01*
X0047236Y0060681D01*
X0047095Y0060457D01*
X0047008Y0060208D01*
X0046978Y0059945D01*
X0046978Y0056795D01*
X0046969Y0056484D01*
X0047029Y0056178D01*
X0047156Y0055893D01*
X0047343Y0055644D01*
X0047581Y0055442D01*
X0047858Y0055299D01*
X0048159Y0055220D01*
X0055640Y0055220D01*
X0055640Y0054039D01*
X0058789Y0054039D01*
X0058789Y0061126D01*
X0058789Y0060779D02*
X0047334Y0060779D01*
X0047069Y0060381D02*
X0058789Y0060381D01*
X0058789Y0059982D02*
X0046983Y0059982D01*
X0046978Y0059584D02*
X0058789Y0059584D01*
X0058789Y0059185D02*
X0046978Y0059185D01*
X0046978Y0058787D02*
X0058789Y0058787D01*
X0058789Y0058388D02*
X0046978Y0058388D01*
X0046978Y0057990D02*
X0058789Y0057990D01*
X0058789Y0057591D02*
X0046978Y0057591D01*
X0046978Y0057193D02*
X0058789Y0057193D01*
X0058789Y0056794D02*
X0046978Y0056794D01*
X0046986Y0056396D02*
X0058789Y0056396D01*
X0058789Y0055997D02*
X0047110Y0055997D01*
X0047396Y0055599D02*
X0058789Y0055599D01*
X0058789Y0055200D02*
X0055640Y0055200D01*
X0055640Y0054802D02*
X0058789Y0054802D01*
X0058789Y0054403D02*
X0055640Y0054403D01*
D15*
X0393695Y0141500D03*
X0393695Y0145831D03*
X0393695Y0150161D03*
X0393695Y0154492D03*
X0393695Y0158823D03*
X0393695Y0163154D03*
X0393695Y0167484D03*
X0393695Y0171815D03*
X0393695Y0363500D03*
X0393695Y0367831D03*
X0393695Y0372161D03*
X0393695Y0376492D03*
X0393695Y0380823D03*
X0393695Y0385154D03*
X0393695Y0389484D03*
X0393695Y0393815D03*
D16*
X0393203Y0403461D03*
X0393203Y0181461D03*
D17*
X0393203Y0136776D03*
X0393203Y0358776D03*
D18*
X0363281Y0357693D03*
X0363281Y0135693D03*
D19*
X0360722Y0182740D03*
X0360722Y0404740D03*
D20*
X0357376Y0359071D03*
X0357376Y0137071D03*
D21*
X0351175Y0181461D03*
X0351175Y0403461D03*
D22*
X0065809Y0318122D03*
X0063250Y0318122D03*
X0060691Y0318122D03*
X0060691Y0310878D03*
X0063250Y0310878D03*
X0065809Y0310878D03*
X0065809Y0096122D03*
X0063250Y0096122D03*
X0060691Y0096122D03*
X0060691Y0088878D03*
X0063250Y0088878D03*
X0065809Y0088878D03*
D23*
G36*
X0151720Y0108025D02*
X0150319Y0109426D01*
X0154224Y0113331D01*
X0155625Y0111930D01*
X0151720Y0108025D01*
G37*
G36*
X0153112Y0106633D02*
X0151711Y0108034D01*
X0155616Y0111939D01*
X0157017Y0110538D01*
X0153112Y0106633D01*
G37*
G36*
X0154503Y0105241D02*
X0153102Y0106642D01*
X0157007Y0110547D01*
X0158408Y0109146D01*
X0154503Y0105241D01*
G37*
G36*
X0155895Y0103849D02*
X0154494Y0105250D01*
X0158399Y0109155D01*
X0159800Y0107754D01*
X0155895Y0103849D01*
G37*
G36*
X0157287Y0102457D02*
X0155886Y0103858D01*
X0159791Y0107763D01*
X0161192Y0106362D01*
X0157287Y0102457D01*
G37*
G36*
X0158679Y0101065D02*
X0157278Y0102466D01*
X0161183Y0106371D01*
X0162584Y0104970D01*
X0158679Y0101065D01*
G37*
G36*
X0160071Y0099674D02*
X0158670Y0101075D01*
X0162575Y0104980D01*
X0163976Y0103579D01*
X0160071Y0099674D01*
G37*
G36*
X0161463Y0098282D02*
X0160062Y0099683D01*
X0163967Y0103588D01*
X0165368Y0102187D01*
X0161463Y0098282D01*
G37*
G36*
X0162855Y0096890D02*
X0161454Y0098291D01*
X0165359Y0102196D01*
X0166760Y0100795D01*
X0162855Y0096890D01*
G37*
G36*
X0164247Y0095498D02*
X0162846Y0096899D01*
X0166751Y0100804D01*
X0168152Y0099403D01*
X0164247Y0095498D01*
G37*
G36*
X0165639Y0094106D02*
X0164238Y0095507D01*
X0168143Y0099412D01*
X0169544Y0098011D01*
X0165639Y0094106D01*
G37*
G36*
X0167031Y0092714D02*
X0165630Y0094115D01*
X0169535Y0098020D01*
X0170936Y0096619D01*
X0167031Y0092714D01*
G37*
G36*
X0168423Y0091322D02*
X0167022Y0092723D01*
X0170927Y0096628D01*
X0172328Y0095227D01*
X0168423Y0091322D01*
G37*
G36*
X0169815Y0089930D02*
X0168414Y0091331D01*
X0172319Y0095236D01*
X0173720Y0093835D01*
X0169815Y0089930D01*
G37*
G36*
X0171207Y0088538D02*
X0169806Y0089939D01*
X0173711Y0093844D01*
X0175112Y0092443D01*
X0171207Y0088538D01*
G37*
G36*
X0172599Y0087146D02*
X0171198Y0088547D01*
X0175103Y0092452D01*
X0176504Y0091051D01*
X0172599Y0087146D01*
G37*
G36*
X0173991Y0085754D02*
X0172590Y0087155D01*
X0176495Y0091060D01*
X0177896Y0089659D01*
X0173991Y0085754D01*
G37*
G36*
X0175383Y0084362D02*
X0173982Y0085763D01*
X0177887Y0089668D01*
X0179288Y0088267D01*
X0175383Y0084362D01*
G37*
G36*
X0176775Y0082970D02*
X0175374Y0084371D01*
X0179279Y0088276D01*
X0180680Y0086875D01*
X0176775Y0082970D01*
G37*
G36*
X0178166Y0081578D02*
X0176765Y0082979D01*
X0180670Y0086884D01*
X0182071Y0085483D01*
X0178166Y0081578D01*
G37*
G36*
X0179558Y0080186D02*
X0178157Y0081587D01*
X0182062Y0085492D01*
X0183463Y0084091D01*
X0179558Y0080186D01*
G37*
G36*
X0180950Y0078794D02*
X0179549Y0080195D01*
X0183454Y0084100D01*
X0184855Y0082699D01*
X0180950Y0078794D01*
G37*
G36*
X0182342Y0077402D02*
X0180941Y0078803D01*
X0184846Y0082708D01*
X0186247Y0081307D01*
X0182342Y0077402D01*
G37*
G36*
X0183734Y0076011D02*
X0182333Y0077412D01*
X0186238Y0081317D01*
X0187639Y0079916D01*
X0183734Y0076011D01*
G37*
G36*
X0185126Y0074619D02*
X0183725Y0076020D01*
X0187630Y0079925D01*
X0189031Y0078524D01*
X0185126Y0074619D01*
G37*
G36*
X0198775Y0076020D02*
X0197374Y0074619D01*
X0193469Y0078524D01*
X0194870Y0079925D01*
X0198775Y0076020D01*
G37*
G36*
X0200167Y0077412D02*
X0198766Y0076011D01*
X0194861Y0079916D01*
X0196262Y0081317D01*
X0200167Y0077412D01*
G37*
G36*
X0201559Y0078803D02*
X0200158Y0077402D01*
X0196253Y0081307D01*
X0197654Y0082708D01*
X0201559Y0078803D01*
G37*
G36*
X0202951Y0080195D02*
X0201550Y0078794D01*
X0197645Y0082699D01*
X0199046Y0084100D01*
X0202951Y0080195D01*
G37*
G36*
X0204343Y0081587D02*
X0202942Y0080186D01*
X0199037Y0084091D01*
X0200438Y0085492D01*
X0204343Y0081587D01*
G37*
G36*
X0205735Y0082979D02*
X0204334Y0081578D01*
X0200429Y0085483D01*
X0201830Y0086884D01*
X0205735Y0082979D01*
G37*
G36*
X0207126Y0084371D02*
X0205725Y0082970D01*
X0201820Y0086875D01*
X0203221Y0088276D01*
X0207126Y0084371D01*
G37*
G36*
X0208518Y0085763D02*
X0207117Y0084362D01*
X0203212Y0088267D01*
X0204613Y0089668D01*
X0208518Y0085763D01*
G37*
G36*
X0209910Y0087155D02*
X0208509Y0085754D01*
X0204604Y0089659D01*
X0206005Y0091060D01*
X0209910Y0087155D01*
G37*
G36*
X0211302Y0088547D02*
X0209901Y0087146D01*
X0205996Y0091051D01*
X0207397Y0092452D01*
X0211302Y0088547D01*
G37*
G36*
X0212694Y0089939D02*
X0211293Y0088538D01*
X0207388Y0092443D01*
X0208789Y0093844D01*
X0212694Y0089939D01*
G37*
G36*
X0214086Y0091331D02*
X0212685Y0089930D01*
X0208780Y0093835D01*
X0210181Y0095236D01*
X0214086Y0091331D01*
G37*
G36*
X0215478Y0092723D02*
X0214077Y0091322D01*
X0210172Y0095227D01*
X0211573Y0096628D01*
X0215478Y0092723D01*
G37*
G36*
X0216870Y0094115D02*
X0215469Y0092714D01*
X0211564Y0096619D01*
X0212965Y0098020D01*
X0216870Y0094115D01*
G37*
G36*
X0218262Y0095507D02*
X0216861Y0094106D01*
X0212956Y0098011D01*
X0214357Y0099412D01*
X0218262Y0095507D01*
G37*
G36*
X0219654Y0096899D02*
X0218253Y0095498D01*
X0214348Y0099403D01*
X0215749Y0100804D01*
X0219654Y0096899D01*
G37*
G36*
X0221046Y0098291D02*
X0219645Y0096890D01*
X0215740Y0100795D01*
X0217141Y0102196D01*
X0221046Y0098291D01*
G37*
G36*
X0222438Y0099683D02*
X0221037Y0098282D01*
X0217132Y0102187D01*
X0218533Y0103588D01*
X0222438Y0099683D01*
G37*
G36*
X0223830Y0101075D02*
X0222429Y0099674D01*
X0218524Y0103579D01*
X0219925Y0104980D01*
X0223830Y0101075D01*
G37*
G36*
X0225222Y0102466D02*
X0223821Y0101065D01*
X0219916Y0104970D01*
X0221317Y0106371D01*
X0225222Y0102466D01*
G37*
G36*
X0226614Y0103858D02*
X0225213Y0102457D01*
X0221308Y0106362D01*
X0222709Y0107763D01*
X0226614Y0103858D01*
G37*
G36*
X0228006Y0105250D02*
X0226605Y0103849D01*
X0222700Y0107754D01*
X0224101Y0109155D01*
X0228006Y0105250D01*
G37*
G36*
X0229398Y0106642D02*
X0227997Y0105241D01*
X0224092Y0109146D01*
X0225493Y0110547D01*
X0229398Y0106642D01*
G37*
G36*
X0230789Y0108034D02*
X0229388Y0106633D01*
X0225483Y0110538D01*
X0226884Y0111939D01*
X0230789Y0108034D01*
G37*
G36*
X0232181Y0109426D02*
X0230780Y0108025D01*
X0226875Y0111930D01*
X0228276Y0113331D01*
X0232181Y0109426D01*
G37*
G36*
X0230780Y0123075D02*
X0232181Y0121674D01*
X0228276Y0117769D01*
X0226875Y0119170D01*
X0230780Y0123075D01*
G37*
G36*
X0229388Y0124467D02*
X0230789Y0123066D01*
X0226884Y0119161D01*
X0225483Y0120562D01*
X0229388Y0124467D01*
G37*
G36*
X0227997Y0125859D02*
X0229398Y0124458D01*
X0225493Y0120553D01*
X0224092Y0121954D01*
X0227997Y0125859D01*
G37*
G36*
X0226605Y0127251D02*
X0228006Y0125850D01*
X0224101Y0121945D01*
X0222700Y0123346D01*
X0226605Y0127251D01*
G37*
G36*
X0225213Y0128643D02*
X0226614Y0127242D01*
X0222709Y0123337D01*
X0221308Y0124738D01*
X0225213Y0128643D01*
G37*
G36*
X0223821Y0130035D02*
X0225222Y0128634D01*
X0221317Y0124729D01*
X0219916Y0126130D01*
X0223821Y0130035D01*
G37*
G36*
X0222429Y0131426D02*
X0223830Y0130025D01*
X0219925Y0126120D01*
X0218524Y0127521D01*
X0222429Y0131426D01*
G37*
G36*
X0221037Y0132818D02*
X0222438Y0131417D01*
X0218533Y0127512D01*
X0217132Y0128913D01*
X0221037Y0132818D01*
G37*
G36*
X0219645Y0134210D02*
X0221046Y0132809D01*
X0217141Y0128904D01*
X0215740Y0130305D01*
X0219645Y0134210D01*
G37*
G36*
X0218253Y0135602D02*
X0219654Y0134201D01*
X0215749Y0130296D01*
X0214348Y0131697D01*
X0218253Y0135602D01*
G37*
G36*
X0216861Y0136994D02*
X0218262Y0135593D01*
X0214357Y0131688D01*
X0212956Y0133089D01*
X0216861Y0136994D01*
G37*
G36*
X0215469Y0138386D02*
X0216870Y0136985D01*
X0212965Y0133080D01*
X0211564Y0134481D01*
X0215469Y0138386D01*
G37*
G36*
X0214077Y0139778D02*
X0215478Y0138377D01*
X0211573Y0134472D01*
X0210172Y0135873D01*
X0214077Y0139778D01*
G37*
G36*
X0212685Y0141170D02*
X0214086Y0139769D01*
X0210181Y0135864D01*
X0208780Y0137265D01*
X0212685Y0141170D01*
G37*
G36*
X0211293Y0142562D02*
X0212694Y0141161D01*
X0208789Y0137256D01*
X0207388Y0138657D01*
X0211293Y0142562D01*
G37*
G36*
X0209901Y0143954D02*
X0211302Y0142553D01*
X0207397Y0138648D01*
X0205996Y0140049D01*
X0209901Y0143954D01*
G37*
G36*
X0208509Y0145346D02*
X0209910Y0143945D01*
X0206005Y0140040D01*
X0204604Y0141441D01*
X0208509Y0145346D01*
G37*
G36*
X0207117Y0146738D02*
X0208518Y0145337D01*
X0204613Y0141432D01*
X0203212Y0142833D01*
X0207117Y0146738D01*
G37*
G36*
X0205725Y0148130D02*
X0207126Y0146729D01*
X0203221Y0142824D01*
X0201820Y0144225D01*
X0205725Y0148130D01*
G37*
G36*
X0204334Y0149522D02*
X0205735Y0148121D01*
X0201830Y0144216D01*
X0200429Y0145617D01*
X0204334Y0149522D01*
G37*
G36*
X0202942Y0150914D02*
X0204343Y0149513D01*
X0200438Y0145608D01*
X0199037Y0147009D01*
X0202942Y0150914D01*
G37*
G36*
X0201550Y0152306D02*
X0202951Y0150905D01*
X0199046Y0147000D01*
X0197645Y0148401D01*
X0201550Y0152306D01*
G37*
G36*
X0200158Y0153698D02*
X0201559Y0152297D01*
X0197654Y0148392D01*
X0196253Y0149793D01*
X0200158Y0153698D01*
G37*
G36*
X0198766Y0155089D02*
X0200167Y0153688D01*
X0196262Y0149783D01*
X0194861Y0151184D01*
X0198766Y0155089D01*
G37*
G36*
X0197374Y0156481D02*
X0198775Y0155080D01*
X0194870Y0151175D01*
X0193469Y0152576D01*
X0197374Y0156481D01*
G37*
G36*
X0183725Y0155080D02*
X0185126Y0156481D01*
X0189031Y0152576D01*
X0187630Y0151175D01*
X0183725Y0155080D01*
G37*
G36*
X0182333Y0153688D02*
X0183734Y0155089D01*
X0187639Y0151184D01*
X0186238Y0149783D01*
X0182333Y0153688D01*
G37*
G36*
X0180941Y0152297D02*
X0182342Y0153698D01*
X0186247Y0149793D01*
X0184846Y0148392D01*
X0180941Y0152297D01*
G37*
G36*
X0179549Y0150905D02*
X0180950Y0152306D01*
X0184855Y0148401D01*
X0183454Y0147000D01*
X0179549Y0150905D01*
G37*
G36*
X0178157Y0149513D02*
X0179558Y0150914D01*
X0183463Y0147009D01*
X0182062Y0145608D01*
X0178157Y0149513D01*
G37*
G36*
X0176765Y0148121D02*
X0178166Y0149522D01*
X0182071Y0145617D01*
X0180670Y0144216D01*
X0176765Y0148121D01*
G37*
G36*
X0175374Y0146729D02*
X0176775Y0148130D01*
X0180680Y0144225D01*
X0179279Y0142824D01*
X0175374Y0146729D01*
G37*
G36*
X0173982Y0145337D02*
X0175383Y0146738D01*
X0179288Y0142833D01*
X0177887Y0141432D01*
X0173982Y0145337D01*
G37*
G36*
X0172590Y0143945D02*
X0173991Y0145346D01*
X0177896Y0141441D01*
X0176495Y0140040D01*
X0172590Y0143945D01*
G37*
G36*
X0171198Y0142553D02*
X0172599Y0143954D01*
X0176504Y0140049D01*
X0175103Y0138648D01*
X0171198Y0142553D01*
G37*
G36*
X0169806Y0141161D02*
X0171207Y0142562D01*
X0175112Y0138657D01*
X0173711Y0137256D01*
X0169806Y0141161D01*
G37*
G36*
X0168414Y0139769D02*
X0169815Y0141170D01*
X0173720Y0137265D01*
X0172319Y0135864D01*
X0168414Y0139769D01*
G37*
G36*
X0167022Y0138377D02*
X0168423Y0139778D01*
X0172328Y0135873D01*
X0170927Y0134472D01*
X0167022Y0138377D01*
G37*
G36*
X0165630Y0136985D02*
X0167031Y0138386D01*
X0170936Y0134481D01*
X0169535Y0133080D01*
X0165630Y0136985D01*
G37*
G36*
X0164238Y0135593D02*
X0165639Y0136994D01*
X0169544Y0133089D01*
X0168143Y0131688D01*
X0164238Y0135593D01*
G37*
G36*
X0162846Y0134201D02*
X0164247Y0135602D01*
X0168152Y0131697D01*
X0166751Y0130296D01*
X0162846Y0134201D01*
G37*
G36*
X0161454Y0132809D02*
X0162855Y0134210D01*
X0166760Y0130305D01*
X0165359Y0128904D01*
X0161454Y0132809D01*
G37*
G36*
X0160062Y0131417D02*
X0161463Y0132818D01*
X0165368Y0128913D01*
X0163967Y0127512D01*
X0160062Y0131417D01*
G37*
G36*
X0158670Y0130025D02*
X0160071Y0131426D01*
X0163976Y0127521D01*
X0162575Y0126120D01*
X0158670Y0130025D01*
G37*
G36*
X0157278Y0128634D02*
X0158679Y0130035D01*
X0162584Y0126130D01*
X0161183Y0124729D01*
X0157278Y0128634D01*
G37*
G36*
X0155886Y0127242D02*
X0157287Y0128643D01*
X0161192Y0124738D01*
X0159791Y0123337D01*
X0155886Y0127242D01*
G37*
G36*
X0154494Y0125850D02*
X0155895Y0127251D01*
X0159800Y0123346D01*
X0158399Y0121945D01*
X0154494Y0125850D01*
G37*
G36*
X0153102Y0124458D02*
X0154503Y0125859D01*
X0158408Y0121954D01*
X0157007Y0120553D01*
X0153102Y0124458D01*
G37*
G36*
X0151711Y0123066D02*
X0153112Y0124467D01*
X0157017Y0120562D01*
X0155616Y0119161D01*
X0151711Y0123066D01*
G37*
G36*
X0150319Y0121674D02*
X0151720Y0123075D01*
X0155625Y0119170D01*
X0154224Y0117769D01*
X0150319Y0121674D01*
G37*
G36*
X0185126Y0296619D02*
X0183725Y0298020D01*
X0187630Y0301925D01*
X0189031Y0300524D01*
X0185126Y0296619D01*
G37*
G36*
X0183734Y0298011D02*
X0182333Y0299412D01*
X0186238Y0303317D01*
X0187639Y0301916D01*
X0183734Y0298011D01*
G37*
G36*
X0182342Y0299402D02*
X0180941Y0300803D01*
X0184846Y0304708D01*
X0186247Y0303307D01*
X0182342Y0299402D01*
G37*
G36*
X0180950Y0300794D02*
X0179549Y0302195D01*
X0183454Y0306100D01*
X0184855Y0304699D01*
X0180950Y0300794D01*
G37*
G36*
X0179558Y0302186D02*
X0178157Y0303587D01*
X0182062Y0307492D01*
X0183463Y0306091D01*
X0179558Y0302186D01*
G37*
G36*
X0178166Y0303578D02*
X0176765Y0304979D01*
X0180670Y0308884D01*
X0182071Y0307483D01*
X0178166Y0303578D01*
G37*
G36*
X0176775Y0304970D02*
X0175374Y0306371D01*
X0179279Y0310276D01*
X0180680Y0308875D01*
X0176775Y0304970D01*
G37*
G36*
X0175383Y0306362D02*
X0173982Y0307763D01*
X0177887Y0311668D01*
X0179288Y0310267D01*
X0175383Y0306362D01*
G37*
G36*
X0173991Y0307754D02*
X0172590Y0309155D01*
X0176495Y0313060D01*
X0177896Y0311659D01*
X0173991Y0307754D01*
G37*
G36*
X0172599Y0309146D02*
X0171198Y0310547D01*
X0175103Y0314452D01*
X0176504Y0313051D01*
X0172599Y0309146D01*
G37*
G36*
X0171207Y0310538D02*
X0169806Y0311939D01*
X0173711Y0315844D01*
X0175112Y0314443D01*
X0171207Y0310538D01*
G37*
G36*
X0169815Y0311930D02*
X0168414Y0313331D01*
X0172319Y0317236D01*
X0173720Y0315835D01*
X0169815Y0311930D01*
G37*
G36*
X0168423Y0313322D02*
X0167022Y0314723D01*
X0170927Y0318628D01*
X0172328Y0317227D01*
X0168423Y0313322D01*
G37*
G36*
X0167031Y0314714D02*
X0165630Y0316115D01*
X0169535Y0320020D01*
X0170936Y0318619D01*
X0167031Y0314714D01*
G37*
G36*
X0165639Y0316106D02*
X0164238Y0317507D01*
X0168143Y0321412D01*
X0169544Y0320011D01*
X0165639Y0316106D01*
G37*
G36*
X0164247Y0317498D02*
X0162846Y0318899D01*
X0166751Y0322804D01*
X0168152Y0321403D01*
X0164247Y0317498D01*
G37*
G36*
X0162855Y0318890D02*
X0161454Y0320291D01*
X0165359Y0324196D01*
X0166760Y0322795D01*
X0162855Y0318890D01*
G37*
G36*
X0161463Y0320282D02*
X0160062Y0321683D01*
X0163967Y0325588D01*
X0165368Y0324187D01*
X0161463Y0320282D01*
G37*
G36*
X0160071Y0321674D02*
X0158670Y0323075D01*
X0162575Y0326980D01*
X0163976Y0325579D01*
X0160071Y0321674D01*
G37*
G36*
X0158679Y0323065D02*
X0157278Y0324466D01*
X0161183Y0328371D01*
X0162584Y0326970D01*
X0158679Y0323065D01*
G37*
G36*
X0157287Y0324457D02*
X0155886Y0325858D01*
X0159791Y0329763D01*
X0161192Y0328362D01*
X0157287Y0324457D01*
G37*
G36*
X0155895Y0325849D02*
X0154494Y0327250D01*
X0158399Y0331155D01*
X0159800Y0329754D01*
X0155895Y0325849D01*
G37*
G36*
X0154503Y0327241D02*
X0153102Y0328642D01*
X0157007Y0332547D01*
X0158408Y0331146D01*
X0154503Y0327241D01*
G37*
G36*
X0153112Y0328633D02*
X0151711Y0330034D01*
X0155616Y0333939D01*
X0157017Y0332538D01*
X0153112Y0328633D01*
G37*
G36*
X0151720Y0330025D02*
X0150319Y0331426D01*
X0154224Y0335331D01*
X0155625Y0333930D01*
X0151720Y0330025D01*
G37*
G36*
X0150319Y0343674D02*
X0151720Y0345075D01*
X0155625Y0341170D01*
X0154224Y0339769D01*
X0150319Y0343674D01*
G37*
G36*
X0151711Y0345066D02*
X0153112Y0346467D01*
X0157017Y0342562D01*
X0155616Y0341161D01*
X0151711Y0345066D01*
G37*
G36*
X0153102Y0346458D02*
X0154503Y0347859D01*
X0158408Y0343954D01*
X0157007Y0342553D01*
X0153102Y0346458D01*
G37*
G36*
X0154494Y0347850D02*
X0155895Y0349251D01*
X0159800Y0345346D01*
X0158399Y0343945D01*
X0154494Y0347850D01*
G37*
G36*
X0155886Y0349242D02*
X0157287Y0350643D01*
X0161192Y0346738D01*
X0159791Y0345337D01*
X0155886Y0349242D01*
G37*
G36*
X0157278Y0350634D02*
X0158679Y0352035D01*
X0162584Y0348130D01*
X0161183Y0346729D01*
X0157278Y0350634D01*
G37*
G36*
X0158670Y0352025D02*
X0160071Y0353426D01*
X0163976Y0349521D01*
X0162575Y0348120D01*
X0158670Y0352025D01*
G37*
G36*
X0160062Y0353417D02*
X0161463Y0354818D01*
X0165368Y0350913D01*
X0163967Y0349512D01*
X0160062Y0353417D01*
G37*
G36*
X0161454Y0354809D02*
X0162855Y0356210D01*
X0166760Y0352305D01*
X0165359Y0350904D01*
X0161454Y0354809D01*
G37*
G36*
X0162846Y0356201D02*
X0164247Y0357602D01*
X0168152Y0353697D01*
X0166751Y0352296D01*
X0162846Y0356201D01*
G37*
G36*
X0164238Y0357593D02*
X0165639Y0358994D01*
X0169544Y0355089D01*
X0168143Y0353688D01*
X0164238Y0357593D01*
G37*
G36*
X0165630Y0358985D02*
X0167031Y0360386D01*
X0170936Y0356481D01*
X0169535Y0355080D01*
X0165630Y0358985D01*
G37*
G36*
X0167022Y0360377D02*
X0168423Y0361778D01*
X0172328Y0357873D01*
X0170927Y0356472D01*
X0167022Y0360377D01*
G37*
G36*
X0168414Y0361769D02*
X0169815Y0363170D01*
X0173720Y0359265D01*
X0172319Y0357864D01*
X0168414Y0361769D01*
G37*
G36*
X0169806Y0363161D02*
X0171207Y0364562D01*
X0175112Y0360657D01*
X0173711Y0359256D01*
X0169806Y0363161D01*
G37*
G36*
X0171198Y0364553D02*
X0172599Y0365954D01*
X0176504Y0362049D01*
X0175103Y0360648D01*
X0171198Y0364553D01*
G37*
G36*
X0172590Y0365945D02*
X0173991Y0367346D01*
X0177896Y0363441D01*
X0176495Y0362040D01*
X0172590Y0365945D01*
G37*
G36*
X0173982Y0367337D02*
X0175383Y0368738D01*
X0179288Y0364833D01*
X0177887Y0363432D01*
X0173982Y0367337D01*
G37*
G36*
X0175374Y0368729D02*
X0176775Y0370130D01*
X0180680Y0366225D01*
X0179279Y0364824D01*
X0175374Y0368729D01*
G37*
G36*
X0176765Y0370121D02*
X0178166Y0371522D01*
X0182071Y0367617D01*
X0180670Y0366216D01*
X0176765Y0370121D01*
G37*
G36*
X0178157Y0371513D02*
X0179558Y0372914D01*
X0183463Y0369009D01*
X0182062Y0367608D01*
X0178157Y0371513D01*
G37*
G36*
X0179549Y0372905D02*
X0180950Y0374306D01*
X0184855Y0370401D01*
X0183454Y0369000D01*
X0179549Y0372905D01*
G37*
G36*
X0180941Y0374297D02*
X0182342Y0375698D01*
X0186247Y0371793D01*
X0184846Y0370392D01*
X0180941Y0374297D01*
G37*
G36*
X0182333Y0375688D02*
X0183734Y0377089D01*
X0187639Y0373184D01*
X0186238Y0371783D01*
X0182333Y0375688D01*
G37*
G36*
X0183725Y0377080D02*
X0185126Y0378481D01*
X0189031Y0374576D01*
X0187630Y0373175D01*
X0183725Y0377080D01*
G37*
G36*
X0197374Y0378481D02*
X0198775Y0377080D01*
X0194870Y0373175D01*
X0193469Y0374576D01*
X0197374Y0378481D01*
G37*
G36*
X0198766Y0377089D02*
X0200167Y0375688D01*
X0196262Y0371783D01*
X0194861Y0373184D01*
X0198766Y0377089D01*
G37*
G36*
X0200158Y0375698D02*
X0201559Y0374297D01*
X0197654Y0370392D01*
X0196253Y0371793D01*
X0200158Y0375698D01*
G37*
G36*
X0201550Y0374306D02*
X0202951Y0372905D01*
X0199046Y0369000D01*
X0197645Y0370401D01*
X0201550Y0374306D01*
G37*
G36*
X0202942Y0372914D02*
X0204343Y0371513D01*
X0200438Y0367608D01*
X0199037Y0369009D01*
X0202942Y0372914D01*
G37*
G36*
X0204334Y0371522D02*
X0205735Y0370121D01*
X0201830Y0366216D01*
X0200429Y0367617D01*
X0204334Y0371522D01*
G37*
G36*
X0205725Y0370130D02*
X0207126Y0368729D01*
X0203221Y0364824D01*
X0201820Y0366225D01*
X0205725Y0370130D01*
G37*
G36*
X0207117Y0368738D02*
X0208518Y0367337D01*
X0204613Y0363432D01*
X0203212Y0364833D01*
X0207117Y0368738D01*
G37*
G36*
X0208509Y0367346D02*
X0209910Y0365945D01*
X0206005Y0362040D01*
X0204604Y0363441D01*
X0208509Y0367346D01*
G37*
G36*
X0209901Y0365954D02*
X0211302Y0364553D01*
X0207397Y0360648D01*
X0205996Y0362049D01*
X0209901Y0365954D01*
G37*
G36*
X0211293Y0364562D02*
X0212694Y0363161D01*
X0208789Y0359256D01*
X0207388Y0360657D01*
X0211293Y0364562D01*
G37*
G36*
X0212685Y0363170D02*
X0214086Y0361769D01*
X0210181Y0357864D01*
X0208780Y0359265D01*
X0212685Y0363170D01*
G37*
G36*
X0214077Y0361778D02*
X0215478Y0360377D01*
X0211573Y0356472D01*
X0210172Y0357873D01*
X0214077Y0361778D01*
G37*
G36*
X0215469Y0360386D02*
X0216870Y0358985D01*
X0212965Y0355080D01*
X0211564Y0356481D01*
X0215469Y0360386D01*
G37*
G36*
X0216861Y0358994D02*
X0218262Y0357593D01*
X0214357Y0353688D01*
X0212956Y0355089D01*
X0216861Y0358994D01*
G37*
G36*
X0218253Y0357602D02*
X0219654Y0356201D01*
X0215749Y0352296D01*
X0214348Y0353697D01*
X0218253Y0357602D01*
G37*
G36*
X0219645Y0356210D02*
X0221046Y0354809D01*
X0217141Y0350904D01*
X0215740Y0352305D01*
X0219645Y0356210D01*
G37*
G36*
X0221037Y0354818D02*
X0222438Y0353417D01*
X0218533Y0349512D01*
X0217132Y0350913D01*
X0221037Y0354818D01*
G37*
G36*
X0222429Y0353426D02*
X0223830Y0352025D01*
X0219925Y0348120D01*
X0218524Y0349521D01*
X0222429Y0353426D01*
G37*
G36*
X0223821Y0352035D02*
X0225222Y0350634D01*
X0221317Y0346729D01*
X0219916Y0348130D01*
X0223821Y0352035D01*
G37*
G36*
X0225213Y0350643D02*
X0226614Y0349242D01*
X0222709Y0345337D01*
X0221308Y0346738D01*
X0225213Y0350643D01*
G37*
G36*
X0226605Y0349251D02*
X0228006Y0347850D01*
X0224101Y0343945D01*
X0222700Y0345346D01*
X0226605Y0349251D01*
G37*
G36*
X0227997Y0347859D02*
X0229398Y0346458D01*
X0225493Y0342553D01*
X0224092Y0343954D01*
X0227997Y0347859D01*
G37*
G36*
X0229388Y0346467D02*
X0230789Y0345066D01*
X0226884Y0341161D01*
X0225483Y0342562D01*
X0229388Y0346467D01*
G37*
G36*
X0230780Y0345075D02*
X0232181Y0343674D01*
X0228276Y0339769D01*
X0226875Y0341170D01*
X0230780Y0345075D01*
G37*
G36*
X0232181Y0331426D02*
X0230780Y0330025D01*
X0226875Y0333930D01*
X0228276Y0335331D01*
X0232181Y0331426D01*
G37*
G36*
X0230789Y0330034D02*
X0229388Y0328633D01*
X0225483Y0332538D01*
X0226884Y0333939D01*
X0230789Y0330034D01*
G37*
G36*
X0229398Y0328642D02*
X0227997Y0327241D01*
X0224092Y0331146D01*
X0225493Y0332547D01*
X0229398Y0328642D01*
G37*
G36*
X0228006Y0327250D02*
X0226605Y0325849D01*
X0222700Y0329754D01*
X0224101Y0331155D01*
X0228006Y0327250D01*
G37*
G36*
X0226614Y0325858D02*
X0225213Y0324457D01*
X0221308Y0328362D01*
X0222709Y0329763D01*
X0226614Y0325858D01*
G37*
G36*
X0225222Y0324466D02*
X0223821Y0323065D01*
X0219916Y0326970D01*
X0221317Y0328371D01*
X0225222Y0324466D01*
G37*
G36*
X0223830Y0323075D02*
X0222429Y0321674D01*
X0218524Y0325579D01*
X0219925Y0326980D01*
X0223830Y0323075D01*
G37*
G36*
X0222438Y0321683D02*
X0221037Y0320282D01*
X0217132Y0324187D01*
X0218533Y0325588D01*
X0222438Y0321683D01*
G37*
G36*
X0221046Y0320291D02*
X0219645Y0318890D01*
X0215740Y0322795D01*
X0217141Y0324196D01*
X0221046Y0320291D01*
G37*
G36*
X0219654Y0318899D02*
X0218253Y0317498D01*
X0214348Y0321403D01*
X0215749Y0322804D01*
X0219654Y0318899D01*
G37*
G36*
X0218262Y0317507D02*
X0216861Y0316106D01*
X0212956Y0320011D01*
X0214357Y0321412D01*
X0218262Y0317507D01*
G37*
G36*
X0216870Y0316115D02*
X0215469Y0314714D01*
X0211564Y0318619D01*
X0212965Y0320020D01*
X0216870Y0316115D01*
G37*
G36*
X0215478Y0314723D02*
X0214077Y0313322D01*
X0210172Y0317227D01*
X0211573Y0318628D01*
X0215478Y0314723D01*
G37*
G36*
X0214086Y0313331D02*
X0212685Y0311930D01*
X0208780Y0315835D01*
X0210181Y0317236D01*
X0214086Y0313331D01*
G37*
G36*
X0212694Y0311939D02*
X0211293Y0310538D01*
X0207388Y0314443D01*
X0208789Y0315844D01*
X0212694Y0311939D01*
G37*
G36*
X0211302Y0310547D02*
X0209901Y0309146D01*
X0205996Y0313051D01*
X0207397Y0314452D01*
X0211302Y0310547D01*
G37*
G36*
X0209910Y0309155D02*
X0208509Y0307754D01*
X0204604Y0311659D01*
X0206005Y0313060D01*
X0209910Y0309155D01*
G37*
G36*
X0208518Y0307763D02*
X0207117Y0306362D01*
X0203212Y0310267D01*
X0204613Y0311668D01*
X0208518Y0307763D01*
G37*
G36*
X0207126Y0306371D02*
X0205725Y0304970D01*
X0201820Y0308875D01*
X0203221Y0310276D01*
X0207126Y0306371D01*
G37*
G36*
X0205735Y0304979D02*
X0204334Y0303578D01*
X0200429Y0307483D01*
X0201830Y0308884D01*
X0205735Y0304979D01*
G37*
G36*
X0204343Y0303587D02*
X0202942Y0302186D01*
X0199037Y0306091D01*
X0200438Y0307492D01*
X0204343Y0303587D01*
G37*
G36*
X0202951Y0302195D02*
X0201550Y0300794D01*
X0197645Y0304699D01*
X0199046Y0306100D01*
X0202951Y0302195D01*
G37*
G36*
X0201559Y0300803D02*
X0200158Y0299402D01*
X0196253Y0303307D01*
X0197654Y0304708D01*
X0201559Y0300803D01*
G37*
G36*
X0200167Y0299412D02*
X0198766Y0298011D01*
X0194861Y0301916D01*
X0196262Y0303317D01*
X0200167Y0299412D01*
G37*
G36*
X0198775Y0298020D02*
X0197374Y0296619D01*
X0193469Y0300524D01*
X0194870Y0301925D01*
X0198775Y0298020D01*
G37*
D24*
X0316565Y0276567D03*
X0321565Y0276567D03*
X0326565Y0276567D03*
X0331565Y0276567D03*
X0336565Y0276567D03*
X0341565Y0276567D03*
X0346565Y0276567D03*
X0351565Y0276567D03*
X0356565Y0276567D03*
X0361565Y0276567D03*
X0366565Y0276567D03*
X0371565Y0276567D03*
X0376565Y0276567D03*
X0381565Y0276567D03*
X0381565Y0347433D03*
X0376565Y0347433D03*
X0371565Y0347433D03*
X0366565Y0347433D03*
X0361565Y0347433D03*
X0356565Y0347433D03*
X0351565Y0347433D03*
X0346565Y0347433D03*
X0341565Y0347433D03*
X0336565Y0347433D03*
X0331565Y0347433D03*
X0326565Y0347433D03*
X0321565Y0347433D03*
X0316565Y0347433D03*
X0316565Y0125433D03*
X0321565Y0125433D03*
X0326565Y0125433D03*
X0331565Y0125433D03*
X0336565Y0125433D03*
X0341565Y0125433D03*
X0346565Y0125433D03*
X0351565Y0125433D03*
X0356565Y0125433D03*
X0361565Y0125433D03*
X0366565Y0125433D03*
X0371565Y0125433D03*
X0376565Y0125433D03*
X0381565Y0125433D03*
X0381565Y0054567D03*
X0376565Y0054567D03*
X0371565Y0054567D03*
X0366565Y0054567D03*
X0361565Y0054567D03*
X0356565Y0054567D03*
X0351565Y0054567D03*
X0346565Y0054567D03*
X0341565Y0054567D03*
X0336565Y0054567D03*
X0331565Y0054567D03*
X0326565Y0054567D03*
X0321565Y0054567D03*
X0316565Y0054567D03*
D25*
X0310699Y0067500D03*
X0310699Y0072500D03*
X0310699Y0077500D03*
X0310699Y0082500D03*
X0310699Y0087500D03*
X0310699Y0092500D03*
X0310699Y0097500D03*
X0310699Y0102500D03*
X0310699Y0107500D03*
X0310699Y0112500D03*
X0310699Y0289500D03*
X0310699Y0294500D03*
X0310699Y0299500D03*
X0310699Y0304500D03*
X0310699Y0309500D03*
X0310699Y0314500D03*
X0310699Y0319500D03*
X0310699Y0324500D03*
X0310699Y0329500D03*
X0310699Y0334500D03*
D26*
X0351250Y0312000D03*
X0351250Y0090000D03*
D27*
X0321187Y0157288D03*
X0313313Y0157288D03*
X0313313Y0169512D03*
X0321187Y0169512D03*
X0321187Y0379288D03*
X0313313Y0379288D03*
X0313313Y0391512D03*
X0321187Y0391512D03*
D28*
X0319612Y0391306D03*
X0318037Y0391306D03*
X0316463Y0391306D03*
X0314888Y0391306D03*
X0314888Y0379494D03*
X0316463Y0379494D03*
X0318037Y0379494D03*
X0319612Y0379494D03*
X0319612Y0169306D03*
X0318037Y0169306D03*
X0316463Y0169306D03*
X0314888Y0169306D03*
X0314888Y0157494D03*
X0316463Y0157494D03*
X0318037Y0157494D03*
X0319612Y0157494D03*
D29*
X0323362Y0159463D03*
X0323362Y0167337D03*
X0311138Y0167337D03*
X0311138Y0159463D03*
X0311138Y0381463D03*
X0311138Y0389337D03*
X0323362Y0389337D03*
X0323362Y0381463D03*
D30*
X0323156Y0383038D03*
X0323156Y0384613D03*
X0323156Y0386187D03*
X0323156Y0387762D03*
X0311344Y0387762D03*
X0311344Y0386187D03*
X0311344Y0384613D03*
X0311344Y0383038D03*
X0311344Y0165762D03*
X0311344Y0164187D03*
X0311344Y0162613D03*
X0311344Y0161038D03*
X0323156Y0161038D03*
X0323156Y0162613D03*
X0323156Y0164187D03*
X0323156Y0165762D03*
D31*
X0321185Y0167931D03*
X0313315Y0167931D03*
X0313315Y0158869D03*
X0321185Y0158869D03*
X0321185Y0380869D03*
X0313315Y0380869D03*
X0313315Y0389931D03*
X0321185Y0389931D03*
D32*
X0321781Y0389335D03*
X0321781Y0381465D03*
X0312719Y0381465D03*
X0312719Y0389335D03*
X0312719Y0167335D03*
X0312719Y0159465D03*
X0321781Y0159465D03*
X0321781Y0167335D03*
D33*
X0319250Y0146746D03*
X0319250Y0140054D03*
X0313250Y0140054D03*
X0307250Y0140054D03*
X0307250Y0146746D03*
X0313250Y0146746D03*
X0285750Y0146746D03*
X0285750Y0140054D03*
X0237500Y0118796D03*
X0237500Y0112104D03*
X0233750Y0043096D03*
X0233750Y0036404D03*
X0146250Y0036404D03*
X0146250Y0043096D03*
X0097750Y0043654D03*
X0091750Y0043654D03*
X0085750Y0043654D03*
X0079750Y0043654D03*
X0073750Y0043654D03*
X0073750Y0050346D03*
X0079750Y0050346D03*
X0085750Y0050346D03*
X0091750Y0050346D03*
X0097750Y0050346D03*
X0092250Y0089154D03*
X0086250Y0089154D03*
X0080250Y0089154D03*
X0074250Y0089154D03*
X0074250Y0095846D03*
X0080250Y0095846D03*
X0086250Y0095846D03*
X0092250Y0095846D03*
X0145000Y0112204D03*
X0145000Y0118896D03*
X0086250Y0152654D03*
X0086250Y0159346D03*
X0086250Y0167654D03*
X0086250Y0174346D03*
X0061250Y0173346D03*
X0055250Y0173346D03*
X0055250Y0166654D03*
X0061250Y0166654D03*
X0074750Y0199154D03*
X0081750Y0199154D03*
X0081750Y0205846D03*
X0074750Y0205846D03*
X0103750Y0205846D03*
X0110750Y0205846D03*
X0110750Y0199154D03*
X0103750Y0199154D03*
X0128250Y0199154D03*
X0128250Y0205846D03*
X0148250Y0205846D03*
X0148250Y0199154D03*
X0207250Y0197154D03*
X0207250Y0203846D03*
X0217250Y0217154D03*
X0217250Y0223846D03*
X0231250Y0223846D03*
X0231250Y0217154D03*
X0241250Y0203846D03*
X0241250Y0197154D03*
X0257250Y0199154D03*
X0257250Y0205846D03*
X0277250Y0205846D03*
X0277250Y0199154D03*
X0290250Y0199154D03*
X0290250Y0205846D03*
X0310250Y0205846D03*
X0310250Y0199154D03*
X0323250Y0199154D03*
X0323250Y0205846D03*
X0343250Y0205846D03*
X0343250Y0199154D03*
X0356250Y0199154D03*
X0356250Y0205846D03*
X0376250Y0205846D03*
X0376250Y0199154D03*
X0233750Y0258404D03*
X0233750Y0265096D03*
X0237500Y0334104D03*
X0237500Y0340796D03*
X0285750Y0362054D03*
X0285750Y0368746D03*
X0307250Y0368746D03*
X0313250Y0368746D03*
X0313250Y0362054D03*
X0307250Y0362054D03*
X0319250Y0362054D03*
X0319250Y0368746D03*
X0323250Y0421154D03*
X0323250Y0427846D03*
X0310250Y0427846D03*
X0310250Y0421154D03*
X0290250Y0421154D03*
X0290250Y0427846D03*
X0277250Y0427846D03*
X0277250Y0421154D03*
X0257250Y0421154D03*
X0257250Y0427846D03*
X0241250Y0425846D03*
X0241250Y0419154D03*
X0231250Y0439154D03*
X0231250Y0445846D03*
X0217250Y0445846D03*
X0217250Y0439154D03*
X0207250Y0425846D03*
X0207250Y0419154D03*
X0148250Y0421154D03*
X0148250Y0427846D03*
X0128250Y0427846D03*
X0128250Y0421154D03*
X0110750Y0421154D03*
X0110750Y0427846D03*
X0103750Y0427846D03*
X0103750Y0421154D03*
X0081750Y0421154D03*
X0081750Y0427846D03*
X0074750Y0427846D03*
X0074750Y0421154D03*
X0086250Y0396346D03*
X0086250Y0389654D03*
X0086250Y0381346D03*
X0086250Y0374654D03*
X0061250Y0388654D03*
X0055250Y0388654D03*
X0055250Y0395346D03*
X0061250Y0395346D03*
X0074250Y0317846D03*
X0074250Y0311154D03*
X0080250Y0311154D03*
X0086250Y0311154D03*
X0092250Y0311154D03*
X0092250Y0317846D03*
X0086250Y0317846D03*
X0080250Y0317846D03*
X0079750Y0272346D03*
X0073750Y0272346D03*
X0073750Y0265654D03*
X0079750Y0265654D03*
X0085750Y0265654D03*
X0091750Y0265654D03*
X0097750Y0265654D03*
X0097750Y0272346D03*
X0091750Y0272346D03*
X0085750Y0272346D03*
X0146250Y0265096D03*
X0146250Y0258404D03*
X0145000Y0334204D03*
X0145000Y0340896D03*
X0343250Y0421154D03*
X0343250Y0427846D03*
X0356250Y0427846D03*
X0356250Y0421154D03*
X0376250Y0421154D03*
X0376250Y0427846D03*
D34*
X0300990Y0369700D03*
X0293510Y0369700D03*
X0293510Y0361100D03*
X0297250Y0361100D03*
X0300990Y0361100D03*
X0300990Y0147700D03*
X0293510Y0147700D03*
X0293510Y0139100D03*
X0297250Y0139100D03*
X0300990Y0139100D03*
D35*
X0234990Y0202563D03*
X0227510Y0202563D03*
X0220990Y0202563D03*
X0213510Y0202563D03*
X0217250Y0210831D03*
X0210990Y0218437D03*
X0203510Y0218437D03*
X0207250Y0210169D03*
X0231250Y0210831D03*
X0237510Y0218437D03*
X0241250Y0210169D03*
X0244990Y0218437D03*
X0256510Y0218563D03*
X0263990Y0218563D03*
X0270510Y0218563D03*
X0277990Y0218563D03*
X0274250Y0226831D03*
X0260250Y0226831D03*
X0289510Y0218563D03*
X0296990Y0218563D03*
X0303510Y0218563D03*
X0310990Y0218563D03*
X0307250Y0226831D03*
X0293250Y0226831D03*
X0322510Y0218563D03*
X0329990Y0218563D03*
X0336510Y0218563D03*
X0343990Y0218563D03*
X0340250Y0226831D03*
X0326250Y0226831D03*
X0355510Y0218563D03*
X0362990Y0218563D03*
X0369510Y0218563D03*
X0376990Y0218563D03*
X0373250Y0226831D03*
X0359250Y0226831D03*
X0148990Y0218563D03*
X0141510Y0218563D03*
X0134990Y0218563D03*
X0127510Y0218563D03*
X0131250Y0226831D03*
X0145250Y0226831D03*
X0104490Y0218563D03*
X0097010Y0218563D03*
X0088490Y0218563D03*
X0081010Y0218563D03*
X0084750Y0226831D03*
X0100750Y0226831D03*
X0213510Y0424563D03*
X0220990Y0424563D03*
X0227510Y0424563D03*
X0231250Y0432831D03*
X0234990Y0424563D03*
X0241250Y0432169D03*
X0237510Y0440437D03*
X0244990Y0440437D03*
X0256510Y0440563D03*
X0263990Y0440563D03*
X0270510Y0440563D03*
X0274250Y0448831D03*
X0277990Y0440563D03*
X0289510Y0440563D03*
X0296990Y0440563D03*
X0293250Y0448831D03*
X0303510Y0440563D03*
X0310990Y0440563D03*
X0307250Y0448831D03*
X0322510Y0440563D03*
X0326250Y0448831D03*
X0329990Y0440563D03*
X0336510Y0440563D03*
X0343990Y0440563D03*
X0340250Y0448831D03*
X0355510Y0440563D03*
X0359250Y0448831D03*
X0362990Y0440563D03*
X0369510Y0440563D03*
X0376990Y0440563D03*
X0373250Y0448831D03*
X0260250Y0448831D03*
X0217250Y0432831D03*
X0210990Y0440437D03*
X0203510Y0440437D03*
X0207250Y0432169D03*
X0148990Y0440563D03*
X0145250Y0448831D03*
X0141510Y0440563D03*
X0134990Y0440563D03*
X0131250Y0448831D03*
X0127510Y0440563D03*
X0104490Y0440563D03*
X0097010Y0440563D03*
X0100750Y0448831D03*
X0088490Y0440563D03*
X0081010Y0440563D03*
X0084750Y0448831D03*
D36*
X0088750Y0424500D03*
X0092750Y0424500D03*
X0096750Y0424500D03*
X0134250Y0424500D03*
X0138250Y0424500D03*
X0142250Y0424500D03*
X0189650Y0397500D03*
X0192850Y0397500D03*
X0263250Y0424500D03*
X0267250Y0424500D03*
X0271250Y0424500D03*
X0296250Y0424500D03*
X0300250Y0424500D03*
X0304250Y0424500D03*
X0329250Y0424500D03*
X0333250Y0424500D03*
X0337250Y0424500D03*
X0362250Y0424500D03*
X0366250Y0424500D03*
X0370250Y0424500D03*
X0370250Y0202500D03*
X0366250Y0202500D03*
X0362250Y0202500D03*
X0337250Y0202500D03*
X0333250Y0202500D03*
X0329250Y0202500D03*
X0304250Y0202500D03*
X0300250Y0202500D03*
X0296250Y0202500D03*
X0271250Y0202500D03*
X0267250Y0202500D03*
X0263250Y0202500D03*
X0192850Y0175500D03*
X0189650Y0175500D03*
X0142250Y0202500D03*
X0138250Y0202500D03*
X0134250Y0202500D03*
X0096750Y0202500D03*
X0092750Y0202500D03*
X0088750Y0202500D03*
D37*
X0094000Y0202480D02*
X0095500Y0202480D01*
X0095500Y0202000D02*
X0094000Y0202000D01*
X0094000Y0203000D01*
X0095500Y0203000D01*
X0095500Y0202000D01*
X0095500Y0202979D02*
X0094000Y0202979D01*
X0139500Y0202979D02*
X0141000Y0202979D01*
X0141000Y0203000D02*
X0141000Y0202000D01*
X0139500Y0202000D01*
X0139500Y0203000D01*
X0141000Y0203000D01*
X0141000Y0202480D02*
X0139500Y0202480D01*
X0264500Y0202480D02*
X0266000Y0202480D01*
X0266000Y0202000D02*
X0266000Y0203000D01*
X0264500Y0203000D01*
X0264500Y0202000D01*
X0266000Y0202000D01*
X0266000Y0202979D02*
X0264500Y0202979D01*
X0297500Y0202979D02*
X0299000Y0202979D01*
X0299000Y0203000D02*
X0299000Y0202000D01*
X0297500Y0202000D01*
X0297500Y0203000D01*
X0299000Y0203000D01*
X0299000Y0202480D02*
X0297500Y0202480D01*
X0330500Y0202480D02*
X0332000Y0202480D01*
X0332000Y0202000D02*
X0332000Y0203000D01*
X0330500Y0203000D01*
X0330500Y0202000D01*
X0332000Y0202000D01*
X0332000Y0202979D02*
X0330500Y0202979D01*
X0363500Y0202979D02*
X0365000Y0202979D01*
X0365000Y0203000D02*
X0365000Y0202000D01*
X0363500Y0202000D01*
X0363500Y0203000D01*
X0365000Y0203000D01*
X0365000Y0202480D02*
X0363500Y0202480D01*
X0363500Y0424000D02*
X0363500Y0425000D01*
X0365000Y0425000D01*
X0365000Y0424000D01*
X0363500Y0424000D01*
X0363500Y0424318D02*
X0365000Y0424318D01*
X0365000Y0424816D02*
X0363500Y0424816D01*
X0332000Y0424816D02*
X0330500Y0424816D01*
X0330500Y0425000D02*
X0332000Y0425000D01*
X0332000Y0424000D01*
X0330500Y0424000D01*
X0330500Y0425000D01*
X0330500Y0424318D02*
X0332000Y0424318D01*
X0299000Y0424318D02*
X0297500Y0424318D01*
X0297500Y0424000D02*
X0297500Y0425000D01*
X0299000Y0425000D01*
X0299000Y0424000D01*
X0297500Y0424000D01*
X0297500Y0424816D02*
X0299000Y0424816D01*
X0266000Y0424816D02*
X0264500Y0424816D01*
X0264500Y0425000D02*
X0266000Y0425000D01*
X0266000Y0424000D01*
X0264500Y0424000D01*
X0264500Y0425000D01*
X0264500Y0424318D02*
X0266000Y0424318D01*
X0141000Y0424318D02*
X0139500Y0424318D01*
X0139500Y0424000D02*
X0139500Y0425000D01*
X0141000Y0425000D01*
X0141000Y0424000D01*
X0139500Y0424000D01*
X0139500Y0424816D02*
X0141000Y0424816D01*
X0095500Y0424816D02*
X0094000Y0424816D01*
X0094000Y0425000D02*
X0094000Y0424000D01*
X0095500Y0424000D01*
X0095500Y0425000D01*
X0094000Y0425000D01*
X0094000Y0424318D02*
X0095500Y0424318D01*
D38*
X0095250Y0455500D03*
X0090329Y0455500D03*
X0085407Y0455500D03*
X0100171Y0455500D03*
X0130907Y0455500D03*
X0135829Y0455500D03*
X0140750Y0455500D03*
X0145671Y0455500D03*
X0176329Y0455500D03*
X0181250Y0455500D03*
X0186171Y0455500D03*
X0216907Y0455500D03*
X0221829Y0455500D03*
X0226750Y0455500D03*
X0231671Y0455500D03*
X0262329Y0455500D03*
X0267250Y0455500D03*
X0272171Y0455500D03*
X0295329Y0455500D03*
X0300250Y0455500D03*
X0305171Y0455500D03*
X0328329Y0455500D03*
X0333250Y0455500D03*
X0338171Y0455500D03*
X0361329Y0455500D03*
X0366250Y0455500D03*
X0371171Y0455500D03*
X0371171Y0233500D03*
X0366250Y0233500D03*
X0361329Y0233500D03*
X0338171Y0233500D03*
X0333250Y0233500D03*
X0328329Y0233500D03*
X0305171Y0233500D03*
X0300250Y0233500D03*
X0295329Y0233500D03*
X0272171Y0233500D03*
X0267250Y0233500D03*
X0262329Y0233500D03*
X0231671Y0233500D03*
X0226750Y0233500D03*
X0221829Y0233500D03*
X0216907Y0233500D03*
X0186171Y0233500D03*
X0181250Y0233500D03*
X0176329Y0233500D03*
X0145671Y0233500D03*
X0140750Y0233500D03*
X0135829Y0233500D03*
X0130907Y0233500D03*
X0100171Y0233500D03*
X0095250Y0233500D03*
X0090329Y0233500D03*
X0085407Y0233500D03*
D39*
X0077632Y0243185D03*
X0107947Y0243185D03*
X0123132Y0243185D03*
X0153447Y0243185D03*
X0168553Y0243185D03*
X0193947Y0243185D03*
X0209132Y0243185D03*
X0239447Y0243185D03*
X0254553Y0243185D03*
X0279947Y0243185D03*
X0287553Y0243185D03*
X0312947Y0243185D03*
X0320553Y0243185D03*
X0345947Y0243185D03*
X0353553Y0243185D03*
X0378947Y0243185D03*
X0378947Y0465185D03*
X0353553Y0465185D03*
X0345947Y0465185D03*
X0320553Y0465185D03*
X0312947Y0465185D03*
X0287553Y0465185D03*
X0279947Y0465185D03*
X0254553Y0465185D03*
X0239447Y0465185D03*
X0209132Y0465185D03*
X0193947Y0465185D03*
X0168553Y0465185D03*
X0153447Y0465185D03*
X0123132Y0465185D03*
X0107947Y0465185D03*
X0077632Y0465185D03*
D40*
X0077869Y0396240D03*
X0077869Y0388760D03*
X0067631Y0388760D03*
X0067631Y0392500D03*
X0067631Y0396240D03*
X0067631Y0174240D03*
X0067631Y0170500D03*
X0067631Y0166760D03*
X0077869Y0166760D03*
X0077869Y0174240D03*
D41*
X0046750Y0031500D03*
X0046750Y0253500D03*
X0085750Y0478750D03*
X0294000Y0279250D03*
X0294000Y0274250D03*
X0294000Y0269250D03*
X0294000Y0264250D03*
X0294000Y0259250D03*
X0299000Y0259250D03*
X0299000Y0264250D03*
X0299000Y0269250D03*
X0299000Y0274250D03*
X0299000Y0279250D03*
X0410750Y0245500D03*
X0299000Y0057250D03*
X0299000Y0052250D03*
X0299000Y0047250D03*
X0299000Y0042250D03*
X0299000Y0037250D03*
X0294000Y0037250D03*
X0294000Y0042250D03*
X0294000Y0047250D03*
X0294000Y0052250D03*
X0294000Y0057250D03*
X0410750Y0467500D03*
X0371750Y0478750D03*
D42*
X0122250Y0397250D03*
X0107250Y0397250D03*
X0107250Y0375250D03*
X0122250Y0375250D03*
X0122250Y0175250D03*
X0107250Y0175250D03*
X0107250Y0153250D03*
X0122250Y0153250D03*
D43*
X0154000Y0254250D03*
X0154000Y0269250D03*
X0176000Y0269250D03*
X0176000Y0254250D03*
X0204000Y0254250D03*
X0204000Y0269250D03*
X0226000Y0269250D03*
X0226000Y0254250D03*
X0312750Y0254250D03*
X0312750Y0269250D03*
X0334750Y0269250D03*
X0334750Y0254250D03*
X0359000Y0254250D03*
X0359000Y0269250D03*
X0381000Y0269250D03*
X0381000Y0254250D03*
X0381000Y0047250D03*
X0381000Y0032250D03*
X0359000Y0032250D03*
X0359000Y0047250D03*
X0334750Y0047250D03*
X0334750Y0032250D03*
X0312750Y0032250D03*
X0312750Y0047250D03*
X0226000Y0047250D03*
X0226000Y0032250D03*
X0204000Y0032250D03*
X0204000Y0047250D03*
X0176000Y0047250D03*
X0176000Y0032250D03*
X0154000Y0032250D03*
X0154000Y0047250D03*
D44*
X0160424Y0052127D02*
X0160424Y0054873D01*
X0163170Y0054873D01*
X0163170Y0052127D01*
X0160424Y0052127D01*
X0160424Y0054017D02*
X0163170Y0054017D01*
X0167330Y0054873D02*
X0167330Y0052127D01*
X0167330Y0054873D02*
X0170076Y0054873D01*
X0170076Y0052127D01*
X0167330Y0052127D01*
X0167330Y0054017D02*
X0170076Y0054017D01*
X0209924Y0054873D02*
X0209924Y0052127D01*
X0209924Y0054873D02*
X0212670Y0054873D01*
X0212670Y0052127D01*
X0209924Y0052127D01*
X0209924Y0054017D02*
X0212670Y0054017D01*
X0216830Y0054873D02*
X0216830Y0052127D01*
X0216830Y0054873D02*
X0219576Y0054873D01*
X0219576Y0052127D01*
X0216830Y0052127D01*
X0216830Y0054017D02*
X0219576Y0054017D01*
X0103623Y0087674D02*
X0100877Y0087674D01*
X0100877Y0090420D01*
X0103623Y0090420D01*
X0103623Y0087674D01*
X0103623Y0089564D02*
X0100877Y0089564D01*
X0098623Y0087674D02*
X0095877Y0087674D01*
X0095877Y0090420D01*
X0098623Y0090420D01*
X0098623Y0087674D01*
X0098623Y0089564D02*
X0095877Y0089564D01*
X0095877Y0094580D02*
X0098623Y0094580D01*
X0095877Y0094580D02*
X0095877Y0097326D01*
X0098623Y0097326D01*
X0098623Y0094580D01*
X0098623Y0096470D02*
X0095877Y0096470D01*
X0100877Y0094580D02*
X0103623Y0094580D01*
X0100877Y0094580D02*
X0100877Y0097326D01*
X0103623Y0097326D01*
X0103623Y0094580D01*
X0103623Y0096470D02*
X0100877Y0096470D01*
X0050623Y0167920D02*
X0047877Y0167920D01*
X0050623Y0167920D02*
X0050623Y0165174D01*
X0047877Y0165174D01*
X0047877Y0167920D01*
X0047877Y0167064D02*
X0050623Y0167064D01*
X0050623Y0174826D02*
X0047877Y0174826D01*
X0050623Y0174826D02*
X0050623Y0172080D01*
X0047877Y0172080D01*
X0047877Y0174826D01*
X0047877Y0173970D02*
X0050623Y0173970D01*
X0073377Y0214420D02*
X0076123Y0214420D01*
X0076123Y0211674D01*
X0073377Y0211674D01*
X0073377Y0214420D01*
X0073377Y0213564D02*
X0076123Y0213564D01*
X0076123Y0221326D02*
X0073377Y0221326D01*
X0076123Y0221326D02*
X0076123Y0218580D01*
X0073377Y0218580D01*
X0073377Y0221326D01*
X0073377Y0220470D02*
X0076123Y0220470D01*
X0109377Y0221326D02*
X0112123Y0221326D01*
X0112123Y0218580D01*
X0109377Y0218580D01*
X0109377Y0221326D01*
X0109377Y0220470D02*
X0112123Y0220470D01*
X0112123Y0214420D02*
X0109377Y0214420D01*
X0112123Y0214420D02*
X0112123Y0211674D01*
X0109377Y0211674D01*
X0109377Y0214420D01*
X0109377Y0213564D02*
X0112123Y0213564D01*
X0160424Y0274127D02*
X0160424Y0276873D01*
X0163170Y0276873D01*
X0163170Y0274127D01*
X0160424Y0274127D01*
X0160424Y0276017D02*
X0163170Y0276017D01*
X0167330Y0276873D02*
X0167330Y0274127D01*
X0167330Y0276873D02*
X0170076Y0276873D01*
X0170076Y0274127D01*
X0167330Y0274127D01*
X0167330Y0276017D02*
X0170076Y0276017D01*
X0209924Y0276873D02*
X0209924Y0274127D01*
X0209924Y0276873D02*
X0212670Y0276873D01*
X0212670Y0274127D01*
X0209924Y0274127D01*
X0209924Y0276017D02*
X0212670Y0276017D01*
X0216830Y0276873D02*
X0216830Y0274127D01*
X0216830Y0276873D02*
X0219576Y0276873D01*
X0219576Y0274127D01*
X0216830Y0274127D01*
X0216830Y0276017D02*
X0219576Y0276017D01*
X0103623Y0309674D02*
X0100877Y0309674D01*
X0100877Y0312420D01*
X0103623Y0312420D01*
X0103623Y0309674D01*
X0103623Y0311564D02*
X0100877Y0311564D01*
X0098623Y0309674D02*
X0095877Y0309674D01*
X0095877Y0312420D01*
X0098623Y0312420D01*
X0098623Y0309674D01*
X0098623Y0311564D02*
X0095877Y0311564D01*
X0095877Y0316580D02*
X0098623Y0316580D01*
X0095877Y0316580D02*
X0095877Y0319326D01*
X0098623Y0319326D01*
X0098623Y0316580D01*
X0098623Y0318470D02*
X0095877Y0318470D01*
X0100877Y0316580D02*
X0103623Y0316580D01*
X0100877Y0316580D02*
X0100877Y0319326D01*
X0103623Y0319326D01*
X0103623Y0316580D01*
X0103623Y0318470D02*
X0100877Y0318470D01*
X0050623Y0389920D02*
X0047877Y0389920D01*
X0050623Y0389920D02*
X0050623Y0387174D01*
X0047877Y0387174D01*
X0047877Y0389920D01*
X0047877Y0389064D02*
X0050623Y0389064D01*
X0050623Y0396826D02*
X0047877Y0396826D01*
X0050623Y0396826D02*
X0050623Y0394080D01*
X0047877Y0394080D01*
X0047877Y0396826D01*
X0047877Y0395970D02*
X0050623Y0395970D01*
X0073377Y0436420D02*
X0076123Y0436420D01*
X0076123Y0433674D01*
X0073377Y0433674D01*
X0073377Y0436420D01*
X0073377Y0435564D02*
X0076123Y0435564D01*
X0076123Y0443326D02*
X0073377Y0443326D01*
X0076123Y0443326D02*
X0076123Y0440580D01*
X0073377Y0440580D01*
X0073377Y0443326D01*
X0073377Y0442470D02*
X0076123Y0442470D01*
X0109377Y0443326D02*
X0112123Y0443326D01*
X0112123Y0440580D01*
X0109377Y0440580D01*
X0109377Y0443326D01*
X0109377Y0442470D02*
X0112123Y0442470D01*
X0112123Y0436420D02*
X0109377Y0436420D01*
X0112123Y0436420D02*
X0112123Y0433674D01*
X0109377Y0433674D01*
X0109377Y0436420D01*
X0109377Y0435564D02*
X0112123Y0435564D01*
D45*
X0059250Y0373421D03*
X0059250Y0368500D03*
X0080250Y0367543D03*
X0080250Y0360457D03*
X0059250Y0151421D03*
X0059250Y0146500D03*
X0080250Y0145543D03*
X0080250Y0138457D03*
D46*
X0049565Y0138724D03*
X0049565Y0159197D03*
X0049565Y0360724D03*
X0049565Y0381197D03*
D47*
X0065919Y0378000D03*
X0074187Y0381740D03*
X0074187Y0374260D03*
X0074187Y0367740D03*
X0074187Y0360260D03*
X0065919Y0364000D03*
X0074187Y0159740D03*
X0065919Y0156000D03*
X0074187Y0152260D03*
X0074187Y0145740D03*
X0065919Y0142000D03*
X0074187Y0138260D03*
D48*
X0088250Y0140400D03*
X0088250Y0143600D03*
X0088250Y0362400D03*
X0088250Y0365600D03*
D49*
X0081778Y0354000D03*
X0072722Y0354000D03*
X0072722Y0132000D03*
X0081778Y0132000D03*
D50*
X0080250Y0151472D03*
X0080250Y0160528D03*
X0080250Y0373472D03*
X0080250Y0382528D03*
D51*
X0292510Y0344000D03*
X0292510Y0341244D03*
X0299990Y0341244D03*
X0299990Y0344000D03*
X0299990Y0122000D03*
X0299990Y0119244D03*
X0292510Y0119244D03*
X0292510Y0122000D03*
D52*
X0292510Y0124756D03*
X0299990Y0124756D03*
X0299990Y0346756D03*
X0292510Y0346756D03*
D53*
X0300596Y0378313D03*
X0300596Y0156313D03*
D54*
X0300793Y0157888D03*
X0300793Y0159463D03*
X0300793Y0161038D03*
X0300793Y0162613D03*
X0300793Y0164187D03*
X0300793Y0165762D03*
X0300793Y0167337D03*
X0300793Y0168912D03*
X0300793Y0170487D03*
X0293707Y0170487D03*
X0293707Y0168912D03*
X0293707Y0167337D03*
X0293707Y0165762D03*
X0293707Y0164187D03*
X0293707Y0162613D03*
X0293707Y0161038D03*
X0293707Y0159463D03*
X0293707Y0157888D03*
X0293707Y0156313D03*
X0293707Y0378313D03*
X0293707Y0379888D03*
X0293707Y0381463D03*
X0293707Y0383038D03*
X0293707Y0384613D03*
X0293707Y0386187D03*
X0293707Y0387762D03*
X0293707Y0389337D03*
X0293707Y0390912D03*
X0293707Y0392487D03*
X0300793Y0392487D03*
X0300793Y0390912D03*
X0300793Y0389337D03*
X0300793Y0387762D03*
X0300793Y0386187D03*
X0300793Y0384613D03*
X0300793Y0383038D03*
X0300793Y0381463D03*
X0300793Y0379888D03*
D55*
X0098016Y0298156D02*
X0094170Y0298156D01*
X0098016Y0298156D02*
X0098016Y0297656D01*
X0094170Y0297656D01*
X0094170Y0298156D01*
X0094170Y0296187D02*
X0098016Y0296187D01*
X0098016Y0295687D01*
X0094170Y0295687D01*
X0094170Y0296187D01*
X0094170Y0294219D02*
X0098016Y0294219D01*
X0098016Y0293719D01*
X0094170Y0293719D01*
X0094170Y0294219D01*
X0094170Y0292250D02*
X0098016Y0292250D01*
X0098016Y0291750D01*
X0094170Y0291750D01*
X0094170Y0292250D01*
X0094170Y0290281D02*
X0098016Y0290281D01*
X0098016Y0289781D01*
X0094170Y0289781D01*
X0094170Y0290281D01*
X0094170Y0288313D02*
X0098016Y0288313D01*
X0098016Y0287813D01*
X0094170Y0287813D01*
X0094170Y0288313D01*
X0094170Y0286344D02*
X0098016Y0286344D01*
X0098016Y0285844D01*
X0094170Y0285844D01*
X0094170Y0286344D01*
X0092406Y0284080D02*
X0092406Y0280234D01*
X0091906Y0280234D01*
X0091906Y0284080D01*
X0092406Y0284080D01*
X0092406Y0281455D02*
X0091906Y0281455D01*
X0091906Y0282676D02*
X0092406Y0282676D01*
X0092406Y0283897D02*
X0091906Y0283897D01*
X0090437Y0284080D02*
X0090437Y0280234D01*
X0089937Y0280234D01*
X0089937Y0284080D01*
X0090437Y0284080D01*
X0090437Y0281455D02*
X0089937Y0281455D01*
X0089937Y0282676D02*
X0090437Y0282676D01*
X0090437Y0283897D02*
X0089937Y0283897D01*
X0088469Y0284080D02*
X0088469Y0280234D01*
X0087969Y0280234D01*
X0087969Y0284080D01*
X0088469Y0284080D01*
X0088469Y0281455D02*
X0087969Y0281455D01*
X0087969Y0282676D02*
X0088469Y0282676D01*
X0088469Y0283897D02*
X0087969Y0283897D01*
X0086500Y0284080D02*
X0086500Y0280234D01*
X0086000Y0280234D01*
X0086000Y0284080D01*
X0086500Y0284080D01*
X0086500Y0281455D02*
X0086000Y0281455D01*
X0086000Y0282676D02*
X0086500Y0282676D01*
X0086500Y0283897D02*
X0086000Y0283897D01*
X0084531Y0284080D02*
X0084531Y0280234D01*
X0084031Y0280234D01*
X0084031Y0284080D01*
X0084531Y0284080D01*
X0084531Y0281455D02*
X0084031Y0281455D01*
X0084031Y0282676D02*
X0084531Y0282676D01*
X0084531Y0283897D02*
X0084031Y0283897D01*
X0082563Y0284080D02*
X0082563Y0280234D01*
X0082063Y0280234D01*
X0082063Y0284080D01*
X0082563Y0284080D01*
X0082563Y0281455D02*
X0082063Y0281455D01*
X0082063Y0282676D02*
X0082563Y0282676D01*
X0082563Y0283897D02*
X0082063Y0283897D01*
X0080594Y0284080D02*
X0080594Y0280234D01*
X0080094Y0280234D01*
X0080094Y0284080D01*
X0080594Y0284080D01*
X0080594Y0281455D02*
X0080094Y0281455D01*
X0080094Y0282676D02*
X0080594Y0282676D01*
X0080594Y0283897D02*
X0080094Y0283897D01*
X0078330Y0285844D02*
X0074484Y0285844D01*
X0074484Y0286344D01*
X0078330Y0286344D01*
X0078330Y0285844D01*
X0078330Y0287813D02*
X0074484Y0287813D01*
X0074484Y0288313D01*
X0078330Y0288313D01*
X0078330Y0287813D01*
X0078330Y0289781D02*
X0074484Y0289781D01*
X0074484Y0290281D01*
X0078330Y0290281D01*
X0078330Y0289781D01*
X0078330Y0291750D02*
X0074484Y0291750D01*
X0074484Y0292250D01*
X0078330Y0292250D01*
X0078330Y0291750D01*
X0078330Y0293719D02*
X0074484Y0293719D01*
X0074484Y0294219D01*
X0078330Y0294219D01*
X0078330Y0293719D01*
X0078330Y0295687D02*
X0074484Y0295687D01*
X0074484Y0296187D01*
X0078330Y0296187D01*
X0078330Y0295687D01*
X0078330Y0297656D02*
X0074484Y0297656D01*
X0074484Y0298156D01*
X0078330Y0298156D01*
X0078330Y0297656D01*
X0080094Y0299920D02*
X0080094Y0303766D01*
X0080594Y0303766D01*
X0080594Y0299920D01*
X0080094Y0299920D01*
X0080094Y0301141D02*
X0080594Y0301141D01*
X0080594Y0302362D02*
X0080094Y0302362D01*
X0080094Y0303583D02*
X0080594Y0303583D01*
X0082063Y0303766D02*
X0082063Y0299920D01*
X0082063Y0303766D02*
X0082563Y0303766D01*
X0082563Y0299920D01*
X0082063Y0299920D01*
X0082063Y0301141D02*
X0082563Y0301141D01*
X0082563Y0302362D02*
X0082063Y0302362D01*
X0082063Y0303583D02*
X0082563Y0303583D01*
X0084031Y0303766D02*
X0084031Y0299920D01*
X0084031Y0303766D02*
X0084531Y0303766D01*
X0084531Y0299920D01*
X0084031Y0299920D01*
X0084031Y0301141D02*
X0084531Y0301141D01*
X0084531Y0302362D02*
X0084031Y0302362D01*
X0084031Y0303583D02*
X0084531Y0303583D01*
X0086000Y0303766D02*
X0086000Y0299920D01*
X0086000Y0303766D02*
X0086500Y0303766D01*
X0086500Y0299920D01*
X0086000Y0299920D01*
X0086000Y0301141D02*
X0086500Y0301141D01*
X0086500Y0302362D02*
X0086000Y0302362D01*
X0086000Y0303583D02*
X0086500Y0303583D01*
X0087969Y0303766D02*
X0087969Y0299920D01*
X0087969Y0303766D02*
X0088469Y0303766D01*
X0088469Y0299920D01*
X0087969Y0299920D01*
X0087969Y0301141D02*
X0088469Y0301141D01*
X0088469Y0302362D02*
X0087969Y0302362D01*
X0087969Y0303583D02*
X0088469Y0303583D01*
X0089937Y0303766D02*
X0089937Y0299920D01*
X0089937Y0303766D02*
X0090437Y0303766D01*
X0090437Y0299920D01*
X0089937Y0299920D01*
X0089937Y0301141D02*
X0090437Y0301141D01*
X0090437Y0302362D02*
X0089937Y0302362D01*
X0089937Y0303583D02*
X0090437Y0303583D01*
X0091906Y0303766D02*
X0091906Y0299920D01*
X0091906Y0303766D02*
X0092406Y0303766D01*
X0092406Y0299920D01*
X0091906Y0299920D01*
X0091906Y0301141D02*
X0092406Y0301141D01*
X0092406Y0302362D02*
X0091906Y0302362D01*
X0091906Y0303583D02*
X0092406Y0303583D01*
X0091906Y0081766D02*
X0091906Y0077920D01*
X0091906Y0081766D02*
X0092406Y0081766D01*
X0092406Y0077920D01*
X0091906Y0077920D01*
X0091906Y0079141D02*
X0092406Y0079141D01*
X0092406Y0080362D02*
X0091906Y0080362D01*
X0091906Y0081583D02*
X0092406Y0081583D01*
X0089937Y0081766D02*
X0089937Y0077920D01*
X0089937Y0081766D02*
X0090437Y0081766D01*
X0090437Y0077920D01*
X0089937Y0077920D01*
X0089937Y0079141D02*
X0090437Y0079141D01*
X0090437Y0080362D02*
X0089937Y0080362D01*
X0089937Y0081583D02*
X0090437Y0081583D01*
X0087969Y0081766D02*
X0087969Y0077920D01*
X0087969Y0081766D02*
X0088469Y0081766D01*
X0088469Y0077920D01*
X0087969Y0077920D01*
X0087969Y0079141D02*
X0088469Y0079141D01*
X0088469Y0080362D02*
X0087969Y0080362D01*
X0087969Y0081583D02*
X0088469Y0081583D01*
X0086000Y0081766D02*
X0086000Y0077920D01*
X0086000Y0081766D02*
X0086500Y0081766D01*
X0086500Y0077920D01*
X0086000Y0077920D01*
X0086000Y0079141D02*
X0086500Y0079141D01*
X0086500Y0080362D02*
X0086000Y0080362D01*
X0086000Y0081583D02*
X0086500Y0081583D01*
X0084031Y0081766D02*
X0084031Y0077920D01*
X0084031Y0081766D02*
X0084531Y0081766D01*
X0084531Y0077920D01*
X0084031Y0077920D01*
X0084031Y0079141D02*
X0084531Y0079141D01*
X0084531Y0080362D02*
X0084031Y0080362D01*
X0084031Y0081583D02*
X0084531Y0081583D01*
X0082063Y0081766D02*
X0082063Y0077920D01*
X0082063Y0081766D02*
X0082563Y0081766D01*
X0082563Y0077920D01*
X0082063Y0077920D01*
X0082063Y0079141D02*
X0082563Y0079141D01*
X0082563Y0080362D02*
X0082063Y0080362D01*
X0082063Y0081583D02*
X0082563Y0081583D01*
X0080094Y0081766D02*
X0080094Y0077920D01*
X0080094Y0081766D02*
X0080594Y0081766D01*
X0080594Y0077920D01*
X0080094Y0077920D01*
X0080094Y0079141D02*
X0080594Y0079141D01*
X0080594Y0080362D02*
X0080094Y0080362D01*
X0080094Y0081583D02*
X0080594Y0081583D01*
X0078330Y0075656D02*
X0074484Y0075656D01*
X0074484Y0076156D01*
X0078330Y0076156D01*
X0078330Y0075656D01*
X0078330Y0073687D02*
X0074484Y0073687D01*
X0074484Y0074187D01*
X0078330Y0074187D01*
X0078330Y0073687D01*
X0078330Y0071719D02*
X0074484Y0071719D01*
X0074484Y0072219D01*
X0078330Y0072219D01*
X0078330Y0071719D01*
X0078330Y0069750D02*
X0074484Y0069750D01*
X0074484Y0070250D01*
X0078330Y0070250D01*
X0078330Y0069750D01*
X0078330Y0067781D02*
X0074484Y0067781D01*
X0074484Y0068281D01*
X0078330Y0068281D01*
X0078330Y0067781D01*
X0078330Y0065813D02*
X0074484Y0065813D01*
X0074484Y0066313D01*
X0078330Y0066313D01*
X0078330Y0065813D01*
X0078330Y0063844D02*
X0074484Y0063844D01*
X0074484Y0064344D01*
X0078330Y0064344D01*
X0078330Y0063844D01*
X0080594Y0062080D02*
X0080594Y0058234D01*
X0080094Y0058234D01*
X0080094Y0062080D01*
X0080594Y0062080D01*
X0080594Y0059455D02*
X0080094Y0059455D01*
X0080094Y0060676D02*
X0080594Y0060676D01*
X0080594Y0061897D02*
X0080094Y0061897D01*
X0082563Y0062080D02*
X0082563Y0058234D01*
X0082063Y0058234D01*
X0082063Y0062080D01*
X0082563Y0062080D01*
X0082563Y0059455D02*
X0082063Y0059455D01*
X0082063Y0060676D02*
X0082563Y0060676D01*
X0082563Y0061897D02*
X0082063Y0061897D01*
X0084531Y0062080D02*
X0084531Y0058234D01*
X0084031Y0058234D01*
X0084031Y0062080D01*
X0084531Y0062080D01*
X0084531Y0059455D02*
X0084031Y0059455D01*
X0084031Y0060676D02*
X0084531Y0060676D01*
X0084531Y0061897D02*
X0084031Y0061897D01*
X0086500Y0062080D02*
X0086500Y0058234D01*
X0086000Y0058234D01*
X0086000Y0062080D01*
X0086500Y0062080D01*
X0086500Y0059455D02*
X0086000Y0059455D01*
X0086000Y0060676D02*
X0086500Y0060676D01*
X0086500Y0061897D02*
X0086000Y0061897D01*
X0088469Y0062080D02*
X0088469Y0058234D01*
X0087969Y0058234D01*
X0087969Y0062080D01*
X0088469Y0062080D01*
X0088469Y0059455D02*
X0087969Y0059455D01*
X0087969Y0060676D02*
X0088469Y0060676D01*
X0088469Y0061897D02*
X0087969Y0061897D01*
X0090437Y0062080D02*
X0090437Y0058234D01*
X0089937Y0058234D01*
X0089937Y0062080D01*
X0090437Y0062080D01*
X0090437Y0059455D02*
X0089937Y0059455D01*
X0089937Y0060676D02*
X0090437Y0060676D01*
X0090437Y0061897D02*
X0089937Y0061897D01*
X0092406Y0062080D02*
X0092406Y0058234D01*
X0091906Y0058234D01*
X0091906Y0062080D01*
X0092406Y0062080D01*
X0092406Y0059455D02*
X0091906Y0059455D01*
X0091906Y0060676D02*
X0092406Y0060676D01*
X0092406Y0061897D02*
X0091906Y0061897D01*
X0094170Y0064344D02*
X0098016Y0064344D01*
X0098016Y0063844D01*
X0094170Y0063844D01*
X0094170Y0064344D01*
X0094170Y0066313D02*
X0098016Y0066313D01*
X0098016Y0065813D01*
X0094170Y0065813D01*
X0094170Y0066313D01*
X0094170Y0068281D02*
X0098016Y0068281D01*
X0098016Y0067781D01*
X0094170Y0067781D01*
X0094170Y0068281D01*
X0094170Y0070250D02*
X0098016Y0070250D01*
X0098016Y0069750D01*
X0094170Y0069750D01*
X0094170Y0070250D01*
X0094170Y0072219D02*
X0098016Y0072219D01*
X0098016Y0071719D01*
X0094170Y0071719D01*
X0094170Y0072219D01*
X0094170Y0074187D02*
X0098016Y0074187D01*
X0098016Y0073687D01*
X0094170Y0073687D01*
X0094170Y0074187D01*
X0094170Y0076156D02*
X0098016Y0076156D01*
X0098016Y0075656D01*
X0094170Y0075656D01*
X0094170Y0076156D01*
D56*
X0086250Y0070000D03*
X0086250Y0292000D03*
D57*
G36*
X0160151Y0365800D02*
X0154297Y0359946D01*
X0150669Y0363574D01*
X0156523Y0369428D01*
X0160151Y0365800D01*
G37*
G36*
X0170452Y0376101D02*
X0164598Y0370247D01*
X0160970Y0373875D01*
X0166824Y0379729D01*
X0170452Y0376101D01*
G37*
G36*
X0164049Y0382504D02*
X0158195Y0376650D01*
X0154567Y0380278D01*
X0160421Y0386132D01*
X0164049Y0382504D01*
G37*
G36*
X0153748Y0372203D02*
X0147894Y0366349D01*
X0144266Y0369977D01*
X0150120Y0375831D01*
X0153748Y0372203D01*
G37*
G36*
X0164049Y0160504D02*
X0158195Y0154650D01*
X0154567Y0158278D01*
X0160421Y0164132D01*
X0164049Y0160504D01*
G37*
G36*
X0170452Y0154101D02*
X0164598Y0148247D01*
X0160970Y0151875D01*
X0166824Y0157729D01*
X0170452Y0154101D01*
G37*
G36*
X0160151Y0143800D02*
X0154297Y0137946D01*
X0150669Y0141574D01*
X0156523Y0147428D01*
X0160151Y0143800D01*
G37*
G36*
X0153748Y0150203D02*
X0147894Y0144349D01*
X0144266Y0147977D01*
X0150120Y0153831D01*
X0153748Y0150203D01*
G37*
D58*
X0055250Y0237000D03*
X0055250Y0262000D03*
X0055250Y0459000D03*
X0402250Y0459000D03*
X0402250Y0262000D03*
X0402250Y0237000D03*
X0402250Y0040000D03*
X0055250Y0040000D03*
D59*
X0082185Y0020250D02*
X0082187Y0020369D01*
X0082193Y0020488D01*
X0082203Y0020607D01*
X0082217Y0020725D01*
X0082235Y0020843D01*
X0082256Y0020960D01*
X0082282Y0021076D01*
X0082312Y0021192D01*
X0082345Y0021306D01*
X0082382Y0021419D01*
X0082423Y0021531D01*
X0082468Y0021642D01*
X0082516Y0021751D01*
X0082568Y0021858D01*
X0082624Y0021963D01*
X0082683Y0022067D01*
X0082745Y0022168D01*
X0082811Y0022268D01*
X0082880Y0022365D01*
X0082952Y0022459D01*
X0083028Y0022552D01*
X0083106Y0022641D01*
X0083187Y0022728D01*
X0083272Y0022813D01*
X0083359Y0022894D01*
X0083448Y0022972D01*
X0083541Y0023048D01*
X0083635Y0023120D01*
X0083732Y0023189D01*
X0083832Y0023255D01*
X0083933Y0023317D01*
X0084037Y0023376D01*
X0084142Y0023432D01*
X0084249Y0023484D01*
X0084358Y0023532D01*
X0084469Y0023577D01*
X0084581Y0023618D01*
X0084694Y0023655D01*
X0084808Y0023688D01*
X0084924Y0023718D01*
X0085040Y0023744D01*
X0085157Y0023765D01*
X0085275Y0023783D01*
X0085393Y0023797D01*
X0085512Y0023807D01*
X0085631Y0023813D01*
X0085750Y0023815D01*
X0085869Y0023813D01*
X0085988Y0023807D01*
X0086107Y0023797D01*
X0086225Y0023783D01*
X0086343Y0023765D01*
X0086460Y0023744D01*
X0086576Y0023718D01*
X0086692Y0023688D01*
X0086806Y0023655D01*
X0086919Y0023618D01*
X0087031Y0023577D01*
X0087142Y0023532D01*
X0087251Y0023484D01*
X0087358Y0023432D01*
X0087463Y0023376D01*
X0087567Y0023317D01*
X0087668Y0023255D01*
X0087768Y0023189D01*
X0087865Y0023120D01*
X0087959Y0023048D01*
X0088052Y0022972D01*
X0088141Y0022894D01*
X0088228Y0022813D01*
X0088313Y0022728D01*
X0088394Y0022641D01*
X0088472Y0022552D01*
X0088548Y0022459D01*
X0088620Y0022365D01*
X0088689Y0022268D01*
X0088755Y0022168D01*
X0088817Y0022067D01*
X0088876Y0021963D01*
X0088932Y0021858D01*
X0088984Y0021751D01*
X0089032Y0021642D01*
X0089077Y0021531D01*
X0089118Y0021419D01*
X0089155Y0021306D01*
X0089188Y0021192D01*
X0089218Y0021076D01*
X0089244Y0020960D01*
X0089265Y0020843D01*
X0089283Y0020725D01*
X0089297Y0020607D01*
X0089307Y0020488D01*
X0089313Y0020369D01*
X0089315Y0020250D01*
X0089313Y0020131D01*
X0089307Y0020012D01*
X0089297Y0019893D01*
X0089283Y0019775D01*
X0089265Y0019657D01*
X0089244Y0019540D01*
X0089218Y0019424D01*
X0089188Y0019308D01*
X0089155Y0019194D01*
X0089118Y0019081D01*
X0089077Y0018969D01*
X0089032Y0018858D01*
X0088984Y0018749D01*
X0088932Y0018642D01*
X0088876Y0018537D01*
X0088817Y0018433D01*
X0088755Y0018332D01*
X0088689Y0018232D01*
X0088620Y0018135D01*
X0088548Y0018041D01*
X0088472Y0017948D01*
X0088394Y0017859D01*
X0088313Y0017772D01*
X0088228Y0017687D01*
X0088141Y0017606D01*
X0088052Y0017528D01*
X0087959Y0017452D01*
X0087865Y0017380D01*
X0087768Y0017311D01*
X0087668Y0017245D01*
X0087567Y0017183D01*
X0087463Y0017124D01*
X0087358Y0017068D01*
X0087251Y0017016D01*
X0087142Y0016968D01*
X0087031Y0016923D01*
X0086919Y0016882D01*
X0086806Y0016845D01*
X0086692Y0016812D01*
X0086576Y0016782D01*
X0086460Y0016756D01*
X0086343Y0016735D01*
X0086225Y0016717D01*
X0086107Y0016703D01*
X0085988Y0016693D01*
X0085869Y0016687D01*
X0085750Y0016685D01*
X0085631Y0016687D01*
X0085512Y0016693D01*
X0085393Y0016703D01*
X0085275Y0016717D01*
X0085157Y0016735D01*
X0085040Y0016756D01*
X0084924Y0016782D01*
X0084808Y0016812D01*
X0084694Y0016845D01*
X0084581Y0016882D01*
X0084469Y0016923D01*
X0084358Y0016968D01*
X0084249Y0017016D01*
X0084142Y0017068D01*
X0084037Y0017124D01*
X0083933Y0017183D01*
X0083832Y0017245D01*
X0083732Y0017311D01*
X0083635Y0017380D01*
X0083541Y0017452D01*
X0083448Y0017528D01*
X0083359Y0017606D01*
X0083272Y0017687D01*
X0083187Y0017772D01*
X0083106Y0017859D01*
X0083028Y0017948D01*
X0082952Y0018041D01*
X0082880Y0018135D01*
X0082811Y0018232D01*
X0082745Y0018332D01*
X0082683Y0018433D01*
X0082624Y0018537D01*
X0082568Y0018642D01*
X0082516Y0018749D01*
X0082468Y0018858D01*
X0082423Y0018969D01*
X0082382Y0019081D01*
X0082345Y0019194D01*
X0082312Y0019308D01*
X0082282Y0019424D01*
X0082256Y0019540D01*
X0082235Y0019657D01*
X0082217Y0019775D01*
X0082203Y0019893D01*
X0082193Y0020012D01*
X0082187Y0020131D01*
X0082185Y0020250D01*
D60*
X0085750Y0020250D03*
M02*
