G75*
%MOIN*%
%OFA0B0*%
%FSLAX25Y25*%
%IPPOS*%
%LPD*%
%AMOC8*
5,1,8,0,0,1.08239X$1,22.5*
%
%ADD10R,0.05131X0.04737*%
%ADD11R,0.07690X0.02375*%
%ADD12R,0.06548X0.08674*%
%ADD13R,0.10643X0.06410*%
%ADD14C,0.00400*%
%ADD15R,0.07690X0.03556*%
%ADD16R,0.06706X0.06706*%
%ADD17R,0.06706X0.05918*%
%ADD18R,0.06706X0.03950*%
%ADD19R,0.06312X0.03950*%
%ADD20R,0.04737X0.06509*%
%ADD21R,0.06902X0.04737*%
%ADD22R,0.01981X0.03398*%
%ADD23R,0.01981X0.05524*%
%ADD24R,0.04343X0.06706*%
%ADD25R,0.06706X0.04343*%
%ADD26R,0.24422X0.24422*%
%ADD27R,0.01784X0.02749*%
%ADD28R,0.01784X0.03162*%
%ADD29R,0.02749X0.01784*%
%ADD30R,0.03162X0.01784*%
%ADD31R,0.01783X0.00409*%
%ADD32R,0.00409X0.01783*%
%ADD33R,0.04737X0.05131*%
%ADD34R,0.03000X0.07000*%
%ADD35R,0.03950X0.04343*%
%ADD36R,0.03300X0.05800*%
%ADD37C,0.00500*%
%ADD38R,0.03950X0.05524*%
%ADD39R,0.05918X0.09265*%
%ADD40R,0.05524X0.02965*%
%ADD41C,0.04737*%
%ADD42R,0.03800X0.06800*%
%ADD43R,0.06800X0.03800*%
%ADD44C,0.01990*%
%ADD45R,0.05524X0.03950*%
%ADD46R,0.09265X0.05918*%
%ADD47R,0.04343X0.03950*%
%ADD48R,0.05800X0.03300*%
%ADD49R,0.03280X0.04068*%
%ADD50R,0.04068X0.03280*%
%ADD51R,0.04737X0.01981*%
%ADD52R,0.04737X0.02178*%
%ADD53R,0.05131X0.01587*%
%ADD54R,0.04737X0.01587*%
%ADD55R,0.08280X0.05131*%
%ADD56C,0.13800*%
%ADD57R,0.05524X0.03162*%
%ADD58R,0.07500X0.03200*%
%ADD59C,0.05000*%
%ADD60C,0.06706*%
D10*
X0148404Y0056500D03*
X0155096Y0056500D03*
X0166404Y0059000D03*
X0173096Y0059000D03*
X0190904Y0069500D03*
X0197596Y0069500D03*
X0215904Y0059000D03*
X0222596Y0059000D03*
X0267654Y0044750D03*
X0267654Y0036250D03*
X0274346Y0036250D03*
X0281154Y0036250D03*
X0287846Y0036250D03*
X0287846Y0044750D03*
X0281154Y0044750D03*
X0274346Y0044750D03*
X0295904Y0069500D03*
X0302596Y0069500D03*
X0302596Y0075500D03*
X0302596Y0081500D03*
X0302596Y0087500D03*
X0302596Y0093500D03*
X0302596Y0099500D03*
X0295904Y0099500D03*
X0295904Y0093500D03*
X0295904Y0087500D03*
X0295904Y0081500D03*
X0295904Y0075500D03*
X0295904Y0105500D03*
X0295904Y0111500D03*
X0302596Y0111500D03*
X0302596Y0105500D03*
X0237596Y0196500D03*
X0230904Y0196500D03*
X0223596Y0196500D03*
X0216904Y0196500D03*
X0213596Y0224500D03*
X0206904Y0224500D03*
X0240904Y0224500D03*
X0247596Y0224500D03*
X0259904Y0212500D03*
X0266596Y0212500D03*
X0273904Y0212500D03*
X0280596Y0212500D03*
X0292904Y0212500D03*
X0299596Y0212500D03*
X0306904Y0212500D03*
X0313596Y0212500D03*
X0325904Y0212500D03*
X0332596Y0212500D03*
X0339904Y0212500D03*
X0346596Y0212500D03*
X0358904Y0212500D03*
X0365596Y0212500D03*
X0372904Y0212500D03*
X0379596Y0212500D03*
X0302596Y0291500D03*
X0302596Y0297500D03*
X0302596Y0303500D03*
X0295904Y0303500D03*
X0295904Y0297500D03*
X0295904Y0291500D03*
X0295904Y0309500D03*
X0295904Y0315500D03*
X0295904Y0321500D03*
X0295904Y0327500D03*
X0295904Y0333500D03*
X0302596Y0333500D03*
X0302596Y0327500D03*
X0302596Y0321500D03*
X0302596Y0315500D03*
X0302596Y0309500D03*
X0287846Y0266750D03*
X0281154Y0266750D03*
X0274346Y0266750D03*
X0267654Y0266750D03*
X0267654Y0258250D03*
X0274346Y0258250D03*
X0281154Y0258250D03*
X0287846Y0258250D03*
X0222596Y0281000D03*
X0215904Y0281000D03*
X0197596Y0291500D03*
X0190904Y0291500D03*
X0173096Y0281000D03*
X0166404Y0281000D03*
X0155096Y0278500D03*
X0148404Y0278500D03*
X0151596Y0212500D03*
X0144904Y0212500D03*
X0137596Y0212500D03*
X0130904Y0212500D03*
X0107096Y0212500D03*
X0100404Y0212500D03*
X0091096Y0212500D03*
X0084404Y0212500D03*
X0114404Y0146750D03*
X0121096Y0146750D03*
X0121096Y0139250D03*
X0114404Y0139250D03*
G36*
X0147525Y0139311D02*
X0143898Y0142938D01*
X0147247Y0146287D01*
X0150874Y0142660D01*
X0147525Y0139311D01*
G37*
G36*
X0152258Y0134578D02*
X0148631Y0138205D01*
X0151980Y0141554D01*
X0155607Y0137927D01*
X0152258Y0134578D01*
G37*
G36*
X0173193Y0162767D02*
X0176820Y0159140D01*
X0173471Y0155791D01*
X0169844Y0159418D01*
X0173193Y0162767D01*
G37*
G36*
X0168460Y0167500D02*
X0172087Y0163873D01*
X0168738Y0160524D01*
X0165111Y0164151D01*
X0168460Y0167500D01*
G37*
X0190904Y0168000D03*
X0190904Y0161800D03*
X0197596Y0161800D03*
X0197596Y0168000D03*
G36*
X0152258Y0356578D02*
X0148631Y0360205D01*
X0151980Y0363554D01*
X0155607Y0359927D01*
X0152258Y0356578D01*
G37*
G36*
X0147525Y0361311D02*
X0143898Y0364938D01*
X0147247Y0368287D01*
X0150874Y0364660D01*
X0147525Y0361311D01*
G37*
X0121096Y0361250D03*
X0114404Y0361250D03*
X0114404Y0368750D03*
X0121096Y0368750D03*
G36*
X0168460Y0389500D02*
X0172087Y0385873D01*
X0168738Y0382524D01*
X0165111Y0386151D01*
X0168460Y0389500D01*
G37*
G36*
X0173193Y0384767D02*
X0176820Y0381140D01*
X0173471Y0377791D01*
X0169844Y0381418D01*
X0173193Y0384767D01*
G37*
X0190904Y0383800D03*
X0197596Y0383800D03*
X0197596Y0390000D03*
X0190904Y0390000D03*
X0216904Y0418500D03*
X0223596Y0418500D03*
X0230904Y0418500D03*
X0237596Y0418500D03*
X0259904Y0434500D03*
X0266596Y0434500D03*
X0273904Y0434500D03*
X0280596Y0434500D03*
X0292904Y0434500D03*
X0299596Y0434500D03*
X0306904Y0434500D03*
X0313596Y0434500D03*
X0325904Y0434500D03*
X0332596Y0434500D03*
X0339904Y0434500D03*
X0346596Y0434500D03*
X0358904Y0434500D03*
X0365596Y0434500D03*
X0372904Y0434500D03*
X0379596Y0434500D03*
X0247596Y0446500D03*
X0240904Y0446500D03*
X0213596Y0446500D03*
X0206904Y0446500D03*
X0151596Y0434500D03*
X0144904Y0434500D03*
X0137596Y0434500D03*
X0130904Y0434500D03*
X0107096Y0434500D03*
X0100404Y0434500D03*
X0091096Y0434500D03*
X0084404Y0434500D03*
D11*
X0064250Y0343618D03*
X0064250Y0341059D03*
X0064250Y0338500D03*
X0064250Y0335941D03*
X0064250Y0333382D03*
X0064250Y0296118D03*
X0064250Y0293559D03*
X0064250Y0291000D03*
X0064250Y0288441D03*
X0064250Y0285882D03*
X0064250Y0121618D03*
X0064250Y0119059D03*
X0064250Y0116500D03*
X0064250Y0113941D03*
X0064250Y0111382D03*
X0064250Y0074118D03*
X0064250Y0071559D03*
X0064250Y0069000D03*
X0064250Y0066441D03*
X0064250Y0063882D03*
D12*
X0065333Y0057583D03*
X0065333Y0080417D03*
X0065333Y0105083D03*
X0065333Y0127917D03*
X0065333Y0279583D03*
X0065333Y0302417D03*
X0065333Y0327083D03*
X0065333Y0349917D03*
D13*
X0053719Y0342289D03*
X0053719Y0334711D03*
X0053719Y0294789D03*
X0053719Y0287211D03*
X0053719Y0120289D03*
X0053719Y0112711D03*
X0053719Y0072789D03*
X0053719Y0065211D03*
D14*
X0051159Y0061126D02*
X0061789Y0061126D01*
X0061789Y0054039D01*
X0058640Y0054039D01*
X0058640Y0055220D01*
X0051159Y0055220D01*
X0050858Y0055299D01*
X0050581Y0055442D01*
X0050343Y0055644D01*
X0050156Y0055893D01*
X0050029Y0056178D01*
X0049969Y0056484D01*
X0049978Y0056795D01*
X0049978Y0059945D01*
X0050008Y0060208D01*
X0050095Y0060457D01*
X0050236Y0060681D01*
X0050423Y0060868D01*
X0050647Y0061009D01*
X0050897Y0061096D01*
X0051159Y0061126D01*
X0050334Y0060779D02*
X0061789Y0060779D01*
X0061789Y0060381D02*
X0050069Y0060381D01*
X0049983Y0059982D02*
X0061789Y0059982D01*
X0061789Y0059584D02*
X0049978Y0059584D01*
X0049978Y0059185D02*
X0061789Y0059185D01*
X0061789Y0058787D02*
X0049978Y0058787D01*
X0049978Y0058388D02*
X0061789Y0058388D01*
X0061789Y0057990D02*
X0049978Y0057990D01*
X0049978Y0057591D02*
X0061789Y0057591D01*
X0061789Y0057193D02*
X0049978Y0057193D01*
X0049978Y0056794D02*
X0061789Y0056794D01*
X0061789Y0056396D02*
X0049986Y0056396D01*
X0050110Y0055997D02*
X0061789Y0055997D01*
X0061789Y0055599D02*
X0050396Y0055599D01*
X0058640Y0055200D02*
X0061789Y0055200D01*
X0061789Y0054802D02*
X0058640Y0054802D01*
X0058640Y0054403D02*
X0061789Y0054403D01*
X0061789Y0076874D02*
X0051553Y0076874D01*
X0051242Y0076865D01*
X0050936Y0076925D01*
X0050651Y0077052D01*
X0050402Y0077239D01*
X0050200Y0077477D01*
X0050057Y0077753D01*
X0049978Y0078055D01*
X0049978Y0080811D01*
X0050018Y0081161D01*
X0050134Y0081494D01*
X0050322Y0081793D01*
X0050571Y0082042D01*
X0050870Y0082230D01*
X0051203Y0082346D01*
X0051553Y0082386D01*
X0058640Y0082386D01*
X0058640Y0083961D01*
X0061789Y0083961D01*
X0061789Y0076874D01*
X0061789Y0077118D02*
X0050562Y0077118D01*
X0050179Y0077517D02*
X0061789Y0077517D01*
X0061789Y0077915D02*
X0050015Y0077915D01*
X0049978Y0078314D02*
X0061789Y0078314D01*
X0061789Y0078712D02*
X0049978Y0078712D01*
X0049978Y0079111D02*
X0061789Y0079111D01*
X0061789Y0079509D02*
X0049978Y0079509D01*
X0049978Y0079908D02*
X0061789Y0079908D01*
X0061789Y0080306D02*
X0049978Y0080306D01*
X0049978Y0080705D02*
X0061789Y0080705D01*
X0061789Y0081103D02*
X0050011Y0081103D01*
X0050139Y0081502D02*
X0061789Y0081502D01*
X0061789Y0081901D02*
X0050430Y0081901D01*
X0051067Y0082299D02*
X0061789Y0082299D01*
X0061789Y0082698D02*
X0058640Y0082698D01*
X0058640Y0083096D02*
X0061789Y0083096D01*
X0061789Y0083495D02*
X0058640Y0083495D01*
X0058640Y0083893D02*
X0061789Y0083893D01*
X0061789Y0101539D02*
X0058640Y0101539D01*
X0058640Y0102720D01*
X0051159Y0102720D01*
X0050858Y0102799D01*
X0050581Y0102942D01*
X0050343Y0103144D01*
X0050156Y0103393D01*
X0050029Y0103678D01*
X0049969Y0103984D01*
X0049978Y0104295D01*
X0049978Y0107445D01*
X0050008Y0107708D01*
X0050095Y0107957D01*
X0050236Y0108181D01*
X0050423Y0108368D01*
X0050647Y0108509D01*
X0050897Y0108596D01*
X0051159Y0108626D01*
X0061789Y0108626D01*
X0061789Y0101539D01*
X0061789Y0101826D02*
X0058640Y0101826D01*
X0058640Y0102225D02*
X0061789Y0102225D01*
X0061789Y0102623D02*
X0058640Y0102623D01*
X0061789Y0103022D02*
X0050488Y0103022D01*
X0050144Y0103420D02*
X0061789Y0103420D01*
X0061789Y0103819D02*
X0050002Y0103819D01*
X0049976Y0104217D02*
X0061789Y0104217D01*
X0061789Y0104616D02*
X0049978Y0104616D01*
X0049978Y0105014D02*
X0061789Y0105014D01*
X0061789Y0105413D02*
X0049978Y0105413D01*
X0049978Y0105811D02*
X0061789Y0105811D01*
X0061789Y0106210D02*
X0049978Y0106210D01*
X0049978Y0106608D02*
X0061789Y0106608D01*
X0061789Y0107007D02*
X0049978Y0107007D01*
X0049978Y0107405D02*
X0061789Y0107405D01*
X0061789Y0107804D02*
X0050042Y0107804D01*
X0050257Y0108202D02*
X0061789Y0108202D01*
X0061789Y0108601D02*
X0050936Y0108601D01*
X0051242Y0124365D02*
X0050936Y0124425D01*
X0050651Y0124552D01*
X0050402Y0124739D01*
X0050200Y0124977D01*
X0050057Y0125253D01*
X0049978Y0125555D01*
X0049978Y0128311D01*
X0050018Y0128661D01*
X0050134Y0128994D01*
X0050322Y0129293D01*
X0050571Y0129542D01*
X0050870Y0129730D01*
X0051203Y0129846D01*
X0051553Y0129886D01*
X0058640Y0129886D01*
X0058640Y0131461D01*
X0061789Y0131461D01*
X0061789Y0124374D01*
X0051553Y0124374D01*
X0051242Y0124365D01*
X0050675Y0124541D02*
X0061789Y0124541D01*
X0061789Y0124940D02*
X0050232Y0124940D01*
X0050035Y0125338D02*
X0061789Y0125338D01*
X0061789Y0125737D02*
X0049978Y0125737D01*
X0049978Y0126135D02*
X0061789Y0126135D01*
X0061789Y0126534D02*
X0049978Y0126534D01*
X0049978Y0126932D02*
X0061789Y0126932D01*
X0061789Y0127331D02*
X0049978Y0127331D01*
X0049978Y0127729D02*
X0061789Y0127729D01*
X0061789Y0128128D02*
X0049978Y0128128D01*
X0050003Y0128526D02*
X0061789Y0128526D01*
X0061789Y0128925D02*
X0050110Y0128925D01*
X0050352Y0129323D02*
X0061789Y0129323D01*
X0061789Y0129722D02*
X0050857Y0129722D01*
X0058640Y0130120D02*
X0061789Y0130120D01*
X0061789Y0130519D02*
X0058640Y0130519D01*
X0058640Y0130917D02*
X0061789Y0130917D01*
X0061789Y0131316D02*
X0058640Y0131316D01*
X0058640Y0276039D02*
X0058640Y0277220D01*
X0051159Y0277220D01*
X0050858Y0277299D01*
X0050581Y0277442D01*
X0050343Y0277644D01*
X0050156Y0277893D01*
X0050029Y0278178D01*
X0049969Y0278484D01*
X0049978Y0278795D01*
X0049978Y0281945D01*
X0050008Y0282208D01*
X0050095Y0282457D01*
X0050236Y0282681D01*
X0050423Y0282868D01*
X0050647Y0283009D01*
X0050897Y0283096D01*
X0051159Y0283126D01*
X0061789Y0283126D01*
X0061789Y0276039D01*
X0058640Y0276039D01*
X0058640Y0276374D02*
X0061789Y0276374D01*
X0061789Y0276773D02*
X0058640Y0276773D01*
X0058640Y0277171D02*
X0061789Y0277171D01*
X0061789Y0277570D02*
X0050431Y0277570D01*
X0050123Y0277968D02*
X0061789Y0277968D01*
X0061789Y0278367D02*
X0049992Y0278367D01*
X0049977Y0278765D02*
X0061789Y0278765D01*
X0061789Y0279164D02*
X0049978Y0279164D01*
X0049978Y0279562D02*
X0061789Y0279562D01*
X0061789Y0279961D02*
X0049978Y0279961D01*
X0049978Y0280359D02*
X0061789Y0280359D01*
X0061789Y0280758D02*
X0049978Y0280758D01*
X0049978Y0281156D02*
X0061789Y0281156D01*
X0061789Y0281555D02*
X0049978Y0281555D01*
X0049979Y0281953D02*
X0061789Y0281953D01*
X0061789Y0282352D02*
X0050058Y0282352D01*
X0050305Y0282750D02*
X0061789Y0282750D01*
X0061789Y0298874D02*
X0051553Y0298874D01*
X0051242Y0298865D01*
X0050936Y0298925D01*
X0050651Y0299052D01*
X0050402Y0299239D01*
X0050200Y0299477D01*
X0050057Y0299753D01*
X0049978Y0300055D01*
X0049978Y0302811D01*
X0050018Y0303161D01*
X0050134Y0303494D01*
X0050322Y0303793D01*
X0050571Y0304042D01*
X0050870Y0304230D01*
X0051203Y0304346D01*
X0051553Y0304386D01*
X0058640Y0304386D01*
X0058640Y0305961D01*
X0061789Y0305961D01*
X0061789Y0298874D01*
X0061789Y0299089D02*
X0050601Y0299089D01*
X0050195Y0299488D02*
X0061789Y0299488D01*
X0061789Y0299886D02*
X0050022Y0299886D01*
X0049978Y0300285D02*
X0061789Y0300285D01*
X0061789Y0300683D02*
X0049978Y0300683D01*
X0049978Y0301082D02*
X0061789Y0301082D01*
X0061789Y0301480D02*
X0049978Y0301480D01*
X0049978Y0301879D02*
X0061789Y0301879D01*
X0061789Y0302277D02*
X0049978Y0302277D01*
X0049978Y0302676D02*
X0061789Y0302676D01*
X0061789Y0303074D02*
X0050008Y0303074D01*
X0050127Y0303473D02*
X0061789Y0303473D01*
X0061789Y0303871D02*
X0050400Y0303871D01*
X0050984Y0304270D02*
X0061789Y0304270D01*
X0061789Y0304668D02*
X0058640Y0304668D01*
X0058640Y0305067D02*
X0061789Y0305067D01*
X0061789Y0305465D02*
X0058640Y0305465D01*
X0058640Y0305864D02*
X0061789Y0305864D01*
X0061789Y0323539D02*
X0058640Y0323539D01*
X0058640Y0324720D01*
X0051159Y0324720D01*
X0050858Y0324799D01*
X0050581Y0324942D01*
X0050343Y0325144D01*
X0050156Y0325393D01*
X0050029Y0325678D01*
X0049969Y0325984D01*
X0049978Y0326295D01*
X0049978Y0329445D01*
X0050008Y0329708D01*
X0050095Y0329957D01*
X0050236Y0330181D01*
X0050423Y0330368D01*
X0050647Y0330509D01*
X0050897Y0330596D01*
X0051159Y0330626D01*
X0061789Y0330626D01*
X0061789Y0323539D01*
X0061789Y0323797D02*
X0058640Y0323797D01*
X0058640Y0324195D02*
X0061789Y0324195D01*
X0061789Y0324594D02*
X0058640Y0324594D01*
X0061789Y0324992D02*
X0050522Y0324992D01*
X0050158Y0325391D02*
X0061789Y0325391D01*
X0061789Y0325789D02*
X0050007Y0325789D01*
X0049975Y0326188D02*
X0061789Y0326188D01*
X0061789Y0326586D02*
X0049978Y0326586D01*
X0049978Y0326985D02*
X0061789Y0326985D01*
X0061789Y0327383D02*
X0049978Y0327383D01*
X0049978Y0327782D02*
X0061789Y0327782D01*
X0061789Y0328181D02*
X0049978Y0328181D01*
X0049978Y0328579D02*
X0061789Y0328579D01*
X0061789Y0328978D02*
X0049978Y0328978D01*
X0049978Y0329376D02*
X0061789Y0329376D01*
X0061789Y0329775D02*
X0050031Y0329775D01*
X0050231Y0330173D02*
X0061789Y0330173D01*
X0061789Y0330572D02*
X0050826Y0330572D01*
X0051242Y0346365D02*
X0050936Y0346425D01*
X0050651Y0346552D01*
X0050402Y0346739D01*
X0050200Y0346977D01*
X0050057Y0347253D01*
X0049978Y0347555D01*
X0049978Y0350311D01*
X0050018Y0350661D01*
X0050134Y0350994D01*
X0050322Y0351293D01*
X0050571Y0351542D01*
X0050870Y0351730D01*
X0051203Y0351846D01*
X0051553Y0351886D01*
X0058640Y0351886D01*
X0058640Y0353461D01*
X0061789Y0353461D01*
X0061789Y0346374D01*
X0051553Y0346374D01*
X0051242Y0346365D01*
X0050741Y0346512D02*
X0061789Y0346512D01*
X0061789Y0346911D02*
X0050256Y0346911D01*
X0050042Y0347309D02*
X0061789Y0347309D01*
X0061789Y0347708D02*
X0049978Y0347708D01*
X0049978Y0348106D02*
X0061789Y0348106D01*
X0061789Y0348505D02*
X0049978Y0348505D01*
X0049978Y0348903D02*
X0061789Y0348903D01*
X0061789Y0349302D02*
X0049978Y0349302D01*
X0049978Y0349700D02*
X0061789Y0349700D01*
X0061789Y0350099D02*
X0049978Y0350099D01*
X0049999Y0350497D02*
X0061789Y0350497D01*
X0061789Y0350896D02*
X0050100Y0350896D01*
X0050323Y0351294D02*
X0061789Y0351294D01*
X0061789Y0351693D02*
X0050811Y0351693D01*
X0058640Y0352091D02*
X0061789Y0352091D01*
X0061789Y0352490D02*
X0058640Y0352490D01*
X0058640Y0352888D02*
X0061789Y0352888D01*
X0061789Y0353287D02*
X0058640Y0353287D01*
D15*
X0396695Y0363500D03*
X0396695Y0367831D03*
X0396695Y0372161D03*
X0396695Y0376492D03*
X0396695Y0380823D03*
X0396695Y0385154D03*
X0396695Y0389484D03*
X0396695Y0393815D03*
X0396695Y0171815D03*
X0396695Y0167484D03*
X0396695Y0163154D03*
X0396695Y0158823D03*
X0396695Y0154492D03*
X0396695Y0150161D03*
X0396695Y0145831D03*
X0396695Y0141500D03*
D16*
X0396203Y0181461D03*
X0396203Y0403461D03*
D17*
X0396203Y0358776D03*
X0396203Y0136776D03*
D18*
X0366281Y0135693D03*
X0366281Y0357693D03*
D19*
X0363722Y0404740D03*
X0363722Y0182740D03*
D20*
X0360376Y0137071D03*
X0360376Y0359071D03*
D21*
X0354175Y0403461D03*
X0354175Y0181461D03*
D22*
X0068809Y0096122D03*
X0066250Y0096122D03*
X0063691Y0096122D03*
X0063691Y0088878D03*
X0066250Y0088878D03*
X0068809Y0088878D03*
X0068809Y0310878D03*
X0066250Y0310878D03*
X0063691Y0310878D03*
X0063691Y0318122D03*
X0066250Y0318122D03*
X0068809Y0318122D03*
D23*
G36*
X0154720Y0330025D02*
X0153319Y0331426D01*
X0157224Y0335331D01*
X0158625Y0333930D01*
X0154720Y0330025D01*
G37*
G36*
X0156112Y0328633D02*
X0154711Y0330034D01*
X0158616Y0333939D01*
X0160017Y0332538D01*
X0156112Y0328633D01*
G37*
G36*
X0157503Y0327241D02*
X0156102Y0328642D01*
X0160007Y0332547D01*
X0161408Y0331146D01*
X0157503Y0327241D01*
G37*
G36*
X0158895Y0325849D02*
X0157494Y0327250D01*
X0161399Y0331155D01*
X0162800Y0329754D01*
X0158895Y0325849D01*
G37*
G36*
X0160287Y0324457D02*
X0158886Y0325858D01*
X0162791Y0329763D01*
X0164192Y0328362D01*
X0160287Y0324457D01*
G37*
G36*
X0161679Y0323065D02*
X0160278Y0324466D01*
X0164183Y0328371D01*
X0165584Y0326970D01*
X0161679Y0323065D01*
G37*
G36*
X0163071Y0321674D02*
X0161670Y0323075D01*
X0165575Y0326980D01*
X0166976Y0325579D01*
X0163071Y0321674D01*
G37*
G36*
X0164463Y0320282D02*
X0163062Y0321683D01*
X0166967Y0325588D01*
X0168368Y0324187D01*
X0164463Y0320282D01*
G37*
G36*
X0165855Y0318890D02*
X0164454Y0320291D01*
X0168359Y0324196D01*
X0169760Y0322795D01*
X0165855Y0318890D01*
G37*
G36*
X0167247Y0317498D02*
X0165846Y0318899D01*
X0169751Y0322804D01*
X0171152Y0321403D01*
X0167247Y0317498D01*
G37*
G36*
X0168639Y0316106D02*
X0167238Y0317507D01*
X0171143Y0321412D01*
X0172544Y0320011D01*
X0168639Y0316106D01*
G37*
G36*
X0170031Y0314714D02*
X0168630Y0316115D01*
X0172535Y0320020D01*
X0173936Y0318619D01*
X0170031Y0314714D01*
G37*
G36*
X0171423Y0313322D02*
X0170022Y0314723D01*
X0173927Y0318628D01*
X0175328Y0317227D01*
X0171423Y0313322D01*
G37*
G36*
X0172815Y0311930D02*
X0171414Y0313331D01*
X0175319Y0317236D01*
X0176720Y0315835D01*
X0172815Y0311930D01*
G37*
G36*
X0174207Y0310538D02*
X0172806Y0311939D01*
X0176711Y0315844D01*
X0178112Y0314443D01*
X0174207Y0310538D01*
G37*
G36*
X0175599Y0309146D02*
X0174198Y0310547D01*
X0178103Y0314452D01*
X0179504Y0313051D01*
X0175599Y0309146D01*
G37*
G36*
X0176991Y0307754D02*
X0175590Y0309155D01*
X0179495Y0313060D01*
X0180896Y0311659D01*
X0176991Y0307754D01*
G37*
G36*
X0178383Y0306362D02*
X0176982Y0307763D01*
X0180887Y0311668D01*
X0182288Y0310267D01*
X0178383Y0306362D01*
G37*
G36*
X0179775Y0304970D02*
X0178374Y0306371D01*
X0182279Y0310276D01*
X0183680Y0308875D01*
X0179775Y0304970D01*
G37*
G36*
X0181166Y0303578D02*
X0179765Y0304979D01*
X0183670Y0308884D01*
X0185071Y0307483D01*
X0181166Y0303578D01*
G37*
G36*
X0182558Y0302186D02*
X0181157Y0303587D01*
X0185062Y0307492D01*
X0186463Y0306091D01*
X0182558Y0302186D01*
G37*
G36*
X0183950Y0300794D02*
X0182549Y0302195D01*
X0186454Y0306100D01*
X0187855Y0304699D01*
X0183950Y0300794D01*
G37*
G36*
X0185342Y0299402D02*
X0183941Y0300803D01*
X0187846Y0304708D01*
X0189247Y0303307D01*
X0185342Y0299402D01*
G37*
G36*
X0186734Y0298011D02*
X0185333Y0299412D01*
X0189238Y0303317D01*
X0190639Y0301916D01*
X0186734Y0298011D01*
G37*
G36*
X0188126Y0296619D02*
X0186725Y0298020D01*
X0190630Y0301925D01*
X0192031Y0300524D01*
X0188126Y0296619D01*
G37*
G36*
X0201775Y0298020D02*
X0200374Y0296619D01*
X0196469Y0300524D01*
X0197870Y0301925D01*
X0201775Y0298020D01*
G37*
G36*
X0203167Y0299412D02*
X0201766Y0298011D01*
X0197861Y0301916D01*
X0199262Y0303317D01*
X0203167Y0299412D01*
G37*
G36*
X0204559Y0300803D02*
X0203158Y0299402D01*
X0199253Y0303307D01*
X0200654Y0304708D01*
X0204559Y0300803D01*
G37*
G36*
X0205951Y0302195D02*
X0204550Y0300794D01*
X0200645Y0304699D01*
X0202046Y0306100D01*
X0205951Y0302195D01*
G37*
G36*
X0207343Y0303587D02*
X0205942Y0302186D01*
X0202037Y0306091D01*
X0203438Y0307492D01*
X0207343Y0303587D01*
G37*
G36*
X0208735Y0304979D02*
X0207334Y0303578D01*
X0203429Y0307483D01*
X0204830Y0308884D01*
X0208735Y0304979D01*
G37*
G36*
X0210126Y0306371D02*
X0208725Y0304970D01*
X0204820Y0308875D01*
X0206221Y0310276D01*
X0210126Y0306371D01*
G37*
G36*
X0211518Y0307763D02*
X0210117Y0306362D01*
X0206212Y0310267D01*
X0207613Y0311668D01*
X0211518Y0307763D01*
G37*
G36*
X0212910Y0309155D02*
X0211509Y0307754D01*
X0207604Y0311659D01*
X0209005Y0313060D01*
X0212910Y0309155D01*
G37*
G36*
X0214302Y0310547D02*
X0212901Y0309146D01*
X0208996Y0313051D01*
X0210397Y0314452D01*
X0214302Y0310547D01*
G37*
G36*
X0215694Y0311939D02*
X0214293Y0310538D01*
X0210388Y0314443D01*
X0211789Y0315844D01*
X0215694Y0311939D01*
G37*
G36*
X0217086Y0313331D02*
X0215685Y0311930D01*
X0211780Y0315835D01*
X0213181Y0317236D01*
X0217086Y0313331D01*
G37*
G36*
X0218478Y0314723D02*
X0217077Y0313322D01*
X0213172Y0317227D01*
X0214573Y0318628D01*
X0218478Y0314723D01*
G37*
G36*
X0219870Y0316115D02*
X0218469Y0314714D01*
X0214564Y0318619D01*
X0215965Y0320020D01*
X0219870Y0316115D01*
G37*
G36*
X0221262Y0317507D02*
X0219861Y0316106D01*
X0215956Y0320011D01*
X0217357Y0321412D01*
X0221262Y0317507D01*
G37*
G36*
X0222654Y0318899D02*
X0221253Y0317498D01*
X0217348Y0321403D01*
X0218749Y0322804D01*
X0222654Y0318899D01*
G37*
G36*
X0224046Y0320291D02*
X0222645Y0318890D01*
X0218740Y0322795D01*
X0220141Y0324196D01*
X0224046Y0320291D01*
G37*
G36*
X0225438Y0321683D02*
X0224037Y0320282D01*
X0220132Y0324187D01*
X0221533Y0325588D01*
X0225438Y0321683D01*
G37*
G36*
X0226830Y0323075D02*
X0225429Y0321674D01*
X0221524Y0325579D01*
X0222925Y0326980D01*
X0226830Y0323075D01*
G37*
G36*
X0228222Y0324466D02*
X0226821Y0323065D01*
X0222916Y0326970D01*
X0224317Y0328371D01*
X0228222Y0324466D01*
G37*
G36*
X0229614Y0325858D02*
X0228213Y0324457D01*
X0224308Y0328362D01*
X0225709Y0329763D01*
X0229614Y0325858D01*
G37*
G36*
X0231006Y0327250D02*
X0229605Y0325849D01*
X0225700Y0329754D01*
X0227101Y0331155D01*
X0231006Y0327250D01*
G37*
G36*
X0232398Y0328642D02*
X0230997Y0327241D01*
X0227092Y0331146D01*
X0228493Y0332547D01*
X0232398Y0328642D01*
G37*
G36*
X0233789Y0330034D02*
X0232388Y0328633D01*
X0228483Y0332538D01*
X0229884Y0333939D01*
X0233789Y0330034D01*
G37*
G36*
X0235181Y0331426D02*
X0233780Y0330025D01*
X0229875Y0333930D01*
X0231276Y0335331D01*
X0235181Y0331426D01*
G37*
G36*
X0233780Y0345075D02*
X0235181Y0343674D01*
X0231276Y0339769D01*
X0229875Y0341170D01*
X0233780Y0345075D01*
G37*
G36*
X0232388Y0346467D02*
X0233789Y0345066D01*
X0229884Y0341161D01*
X0228483Y0342562D01*
X0232388Y0346467D01*
G37*
G36*
X0230997Y0347859D02*
X0232398Y0346458D01*
X0228493Y0342553D01*
X0227092Y0343954D01*
X0230997Y0347859D01*
G37*
G36*
X0229605Y0349251D02*
X0231006Y0347850D01*
X0227101Y0343945D01*
X0225700Y0345346D01*
X0229605Y0349251D01*
G37*
G36*
X0228213Y0350643D02*
X0229614Y0349242D01*
X0225709Y0345337D01*
X0224308Y0346738D01*
X0228213Y0350643D01*
G37*
G36*
X0226821Y0352035D02*
X0228222Y0350634D01*
X0224317Y0346729D01*
X0222916Y0348130D01*
X0226821Y0352035D01*
G37*
G36*
X0225429Y0353426D02*
X0226830Y0352025D01*
X0222925Y0348120D01*
X0221524Y0349521D01*
X0225429Y0353426D01*
G37*
G36*
X0224037Y0354818D02*
X0225438Y0353417D01*
X0221533Y0349512D01*
X0220132Y0350913D01*
X0224037Y0354818D01*
G37*
G36*
X0222645Y0356210D02*
X0224046Y0354809D01*
X0220141Y0350904D01*
X0218740Y0352305D01*
X0222645Y0356210D01*
G37*
G36*
X0221253Y0357602D02*
X0222654Y0356201D01*
X0218749Y0352296D01*
X0217348Y0353697D01*
X0221253Y0357602D01*
G37*
G36*
X0219861Y0358994D02*
X0221262Y0357593D01*
X0217357Y0353688D01*
X0215956Y0355089D01*
X0219861Y0358994D01*
G37*
G36*
X0218469Y0360386D02*
X0219870Y0358985D01*
X0215965Y0355080D01*
X0214564Y0356481D01*
X0218469Y0360386D01*
G37*
G36*
X0217077Y0361778D02*
X0218478Y0360377D01*
X0214573Y0356472D01*
X0213172Y0357873D01*
X0217077Y0361778D01*
G37*
G36*
X0215685Y0363170D02*
X0217086Y0361769D01*
X0213181Y0357864D01*
X0211780Y0359265D01*
X0215685Y0363170D01*
G37*
G36*
X0214293Y0364562D02*
X0215694Y0363161D01*
X0211789Y0359256D01*
X0210388Y0360657D01*
X0214293Y0364562D01*
G37*
G36*
X0212901Y0365954D02*
X0214302Y0364553D01*
X0210397Y0360648D01*
X0208996Y0362049D01*
X0212901Y0365954D01*
G37*
G36*
X0211509Y0367346D02*
X0212910Y0365945D01*
X0209005Y0362040D01*
X0207604Y0363441D01*
X0211509Y0367346D01*
G37*
G36*
X0210117Y0368738D02*
X0211518Y0367337D01*
X0207613Y0363432D01*
X0206212Y0364833D01*
X0210117Y0368738D01*
G37*
G36*
X0208725Y0370130D02*
X0210126Y0368729D01*
X0206221Y0364824D01*
X0204820Y0366225D01*
X0208725Y0370130D01*
G37*
G36*
X0207334Y0371522D02*
X0208735Y0370121D01*
X0204830Y0366216D01*
X0203429Y0367617D01*
X0207334Y0371522D01*
G37*
G36*
X0205942Y0372914D02*
X0207343Y0371513D01*
X0203438Y0367608D01*
X0202037Y0369009D01*
X0205942Y0372914D01*
G37*
G36*
X0204550Y0374306D02*
X0205951Y0372905D01*
X0202046Y0369000D01*
X0200645Y0370401D01*
X0204550Y0374306D01*
G37*
G36*
X0203158Y0375698D02*
X0204559Y0374297D01*
X0200654Y0370392D01*
X0199253Y0371793D01*
X0203158Y0375698D01*
G37*
G36*
X0201766Y0377089D02*
X0203167Y0375688D01*
X0199262Y0371783D01*
X0197861Y0373184D01*
X0201766Y0377089D01*
G37*
G36*
X0200374Y0378481D02*
X0201775Y0377080D01*
X0197870Y0373175D01*
X0196469Y0374576D01*
X0200374Y0378481D01*
G37*
G36*
X0186725Y0377080D02*
X0188126Y0378481D01*
X0192031Y0374576D01*
X0190630Y0373175D01*
X0186725Y0377080D01*
G37*
G36*
X0185333Y0375688D02*
X0186734Y0377089D01*
X0190639Y0373184D01*
X0189238Y0371783D01*
X0185333Y0375688D01*
G37*
G36*
X0183941Y0374297D02*
X0185342Y0375698D01*
X0189247Y0371793D01*
X0187846Y0370392D01*
X0183941Y0374297D01*
G37*
G36*
X0182549Y0372905D02*
X0183950Y0374306D01*
X0187855Y0370401D01*
X0186454Y0369000D01*
X0182549Y0372905D01*
G37*
G36*
X0181157Y0371513D02*
X0182558Y0372914D01*
X0186463Y0369009D01*
X0185062Y0367608D01*
X0181157Y0371513D01*
G37*
G36*
X0179765Y0370121D02*
X0181166Y0371522D01*
X0185071Y0367617D01*
X0183670Y0366216D01*
X0179765Y0370121D01*
G37*
G36*
X0178374Y0368729D02*
X0179775Y0370130D01*
X0183680Y0366225D01*
X0182279Y0364824D01*
X0178374Y0368729D01*
G37*
G36*
X0176982Y0367337D02*
X0178383Y0368738D01*
X0182288Y0364833D01*
X0180887Y0363432D01*
X0176982Y0367337D01*
G37*
G36*
X0175590Y0365945D02*
X0176991Y0367346D01*
X0180896Y0363441D01*
X0179495Y0362040D01*
X0175590Y0365945D01*
G37*
G36*
X0174198Y0364553D02*
X0175599Y0365954D01*
X0179504Y0362049D01*
X0178103Y0360648D01*
X0174198Y0364553D01*
G37*
G36*
X0172806Y0363161D02*
X0174207Y0364562D01*
X0178112Y0360657D01*
X0176711Y0359256D01*
X0172806Y0363161D01*
G37*
G36*
X0171414Y0361769D02*
X0172815Y0363170D01*
X0176720Y0359265D01*
X0175319Y0357864D01*
X0171414Y0361769D01*
G37*
G36*
X0170022Y0360377D02*
X0171423Y0361778D01*
X0175328Y0357873D01*
X0173927Y0356472D01*
X0170022Y0360377D01*
G37*
G36*
X0168630Y0358985D02*
X0170031Y0360386D01*
X0173936Y0356481D01*
X0172535Y0355080D01*
X0168630Y0358985D01*
G37*
G36*
X0167238Y0357593D02*
X0168639Y0358994D01*
X0172544Y0355089D01*
X0171143Y0353688D01*
X0167238Y0357593D01*
G37*
G36*
X0165846Y0356201D02*
X0167247Y0357602D01*
X0171152Y0353697D01*
X0169751Y0352296D01*
X0165846Y0356201D01*
G37*
G36*
X0164454Y0354809D02*
X0165855Y0356210D01*
X0169760Y0352305D01*
X0168359Y0350904D01*
X0164454Y0354809D01*
G37*
G36*
X0163062Y0353417D02*
X0164463Y0354818D01*
X0168368Y0350913D01*
X0166967Y0349512D01*
X0163062Y0353417D01*
G37*
G36*
X0161670Y0352025D02*
X0163071Y0353426D01*
X0166976Y0349521D01*
X0165575Y0348120D01*
X0161670Y0352025D01*
G37*
G36*
X0160278Y0350634D02*
X0161679Y0352035D01*
X0165584Y0348130D01*
X0164183Y0346729D01*
X0160278Y0350634D01*
G37*
G36*
X0158886Y0349242D02*
X0160287Y0350643D01*
X0164192Y0346738D01*
X0162791Y0345337D01*
X0158886Y0349242D01*
G37*
G36*
X0157494Y0347850D02*
X0158895Y0349251D01*
X0162800Y0345346D01*
X0161399Y0343945D01*
X0157494Y0347850D01*
G37*
G36*
X0156102Y0346458D02*
X0157503Y0347859D01*
X0161408Y0343954D01*
X0160007Y0342553D01*
X0156102Y0346458D01*
G37*
G36*
X0154711Y0345066D02*
X0156112Y0346467D01*
X0160017Y0342562D01*
X0158616Y0341161D01*
X0154711Y0345066D01*
G37*
G36*
X0153319Y0343674D02*
X0154720Y0345075D01*
X0158625Y0341170D01*
X0157224Y0339769D01*
X0153319Y0343674D01*
G37*
G36*
X0186725Y0155080D02*
X0188126Y0156481D01*
X0192031Y0152576D01*
X0190630Y0151175D01*
X0186725Y0155080D01*
G37*
G36*
X0185333Y0153688D02*
X0186734Y0155089D01*
X0190639Y0151184D01*
X0189238Y0149783D01*
X0185333Y0153688D01*
G37*
G36*
X0183941Y0152297D02*
X0185342Y0153698D01*
X0189247Y0149793D01*
X0187846Y0148392D01*
X0183941Y0152297D01*
G37*
G36*
X0182549Y0150905D02*
X0183950Y0152306D01*
X0187855Y0148401D01*
X0186454Y0147000D01*
X0182549Y0150905D01*
G37*
G36*
X0181157Y0149513D02*
X0182558Y0150914D01*
X0186463Y0147009D01*
X0185062Y0145608D01*
X0181157Y0149513D01*
G37*
G36*
X0179765Y0148121D02*
X0181166Y0149522D01*
X0185071Y0145617D01*
X0183670Y0144216D01*
X0179765Y0148121D01*
G37*
G36*
X0178374Y0146729D02*
X0179775Y0148130D01*
X0183680Y0144225D01*
X0182279Y0142824D01*
X0178374Y0146729D01*
G37*
G36*
X0176982Y0145337D02*
X0178383Y0146738D01*
X0182288Y0142833D01*
X0180887Y0141432D01*
X0176982Y0145337D01*
G37*
G36*
X0175590Y0143945D02*
X0176991Y0145346D01*
X0180896Y0141441D01*
X0179495Y0140040D01*
X0175590Y0143945D01*
G37*
G36*
X0174198Y0142553D02*
X0175599Y0143954D01*
X0179504Y0140049D01*
X0178103Y0138648D01*
X0174198Y0142553D01*
G37*
G36*
X0172806Y0141161D02*
X0174207Y0142562D01*
X0178112Y0138657D01*
X0176711Y0137256D01*
X0172806Y0141161D01*
G37*
G36*
X0171414Y0139769D02*
X0172815Y0141170D01*
X0176720Y0137265D01*
X0175319Y0135864D01*
X0171414Y0139769D01*
G37*
G36*
X0170022Y0138377D02*
X0171423Y0139778D01*
X0175328Y0135873D01*
X0173927Y0134472D01*
X0170022Y0138377D01*
G37*
G36*
X0168630Y0136985D02*
X0170031Y0138386D01*
X0173936Y0134481D01*
X0172535Y0133080D01*
X0168630Y0136985D01*
G37*
G36*
X0167238Y0135593D02*
X0168639Y0136994D01*
X0172544Y0133089D01*
X0171143Y0131688D01*
X0167238Y0135593D01*
G37*
G36*
X0165846Y0134201D02*
X0167247Y0135602D01*
X0171152Y0131697D01*
X0169751Y0130296D01*
X0165846Y0134201D01*
G37*
G36*
X0164454Y0132809D02*
X0165855Y0134210D01*
X0169760Y0130305D01*
X0168359Y0128904D01*
X0164454Y0132809D01*
G37*
G36*
X0163062Y0131417D02*
X0164463Y0132818D01*
X0168368Y0128913D01*
X0166967Y0127512D01*
X0163062Y0131417D01*
G37*
G36*
X0161670Y0130025D02*
X0163071Y0131426D01*
X0166976Y0127521D01*
X0165575Y0126120D01*
X0161670Y0130025D01*
G37*
G36*
X0160278Y0128634D02*
X0161679Y0130035D01*
X0165584Y0126130D01*
X0164183Y0124729D01*
X0160278Y0128634D01*
G37*
G36*
X0158886Y0127242D02*
X0160287Y0128643D01*
X0164192Y0124738D01*
X0162791Y0123337D01*
X0158886Y0127242D01*
G37*
G36*
X0157494Y0125850D02*
X0158895Y0127251D01*
X0162800Y0123346D01*
X0161399Y0121945D01*
X0157494Y0125850D01*
G37*
G36*
X0156102Y0124458D02*
X0157503Y0125859D01*
X0161408Y0121954D01*
X0160007Y0120553D01*
X0156102Y0124458D01*
G37*
G36*
X0154711Y0123066D02*
X0156112Y0124467D01*
X0160017Y0120562D01*
X0158616Y0119161D01*
X0154711Y0123066D01*
G37*
G36*
X0153319Y0121674D02*
X0154720Y0123075D01*
X0158625Y0119170D01*
X0157224Y0117769D01*
X0153319Y0121674D01*
G37*
G36*
X0154720Y0108025D02*
X0153319Y0109426D01*
X0157224Y0113331D01*
X0158625Y0111930D01*
X0154720Y0108025D01*
G37*
G36*
X0156112Y0106633D02*
X0154711Y0108034D01*
X0158616Y0111939D01*
X0160017Y0110538D01*
X0156112Y0106633D01*
G37*
G36*
X0157503Y0105241D02*
X0156102Y0106642D01*
X0160007Y0110547D01*
X0161408Y0109146D01*
X0157503Y0105241D01*
G37*
G36*
X0158895Y0103849D02*
X0157494Y0105250D01*
X0161399Y0109155D01*
X0162800Y0107754D01*
X0158895Y0103849D01*
G37*
G36*
X0160287Y0102457D02*
X0158886Y0103858D01*
X0162791Y0107763D01*
X0164192Y0106362D01*
X0160287Y0102457D01*
G37*
G36*
X0161679Y0101065D02*
X0160278Y0102466D01*
X0164183Y0106371D01*
X0165584Y0104970D01*
X0161679Y0101065D01*
G37*
G36*
X0163071Y0099674D02*
X0161670Y0101075D01*
X0165575Y0104980D01*
X0166976Y0103579D01*
X0163071Y0099674D01*
G37*
G36*
X0164463Y0098282D02*
X0163062Y0099683D01*
X0166967Y0103588D01*
X0168368Y0102187D01*
X0164463Y0098282D01*
G37*
G36*
X0165855Y0096890D02*
X0164454Y0098291D01*
X0168359Y0102196D01*
X0169760Y0100795D01*
X0165855Y0096890D01*
G37*
G36*
X0167247Y0095498D02*
X0165846Y0096899D01*
X0169751Y0100804D01*
X0171152Y0099403D01*
X0167247Y0095498D01*
G37*
G36*
X0168639Y0094106D02*
X0167238Y0095507D01*
X0171143Y0099412D01*
X0172544Y0098011D01*
X0168639Y0094106D01*
G37*
G36*
X0170031Y0092714D02*
X0168630Y0094115D01*
X0172535Y0098020D01*
X0173936Y0096619D01*
X0170031Y0092714D01*
G37*
G36*
X0171423Y0091322D02*
X0170022Y0092723D01*
X0173927Y0096628D01*
X0175328Y0095227D01*
X0171423Y0091322D01*
G37*
G36*
X0172815Y0089930D02*
X0171414Y0091331D01*
X0175319Y0095236D01*
X0176720Y0093835D01*
X0172815Y0089930D01*
G37*
G36*
X0174207Y0088538D02*
X0172806Y0089939D01*
X0176711Y0093844D01*
X0178112Y0092443D01*
X0174207Y0088538D01*
G37*
G36*
X0175599Y0087146D02*
X0174198Y0088547D01*
X0178103Y0092452D01*
X0179504Y0091051D01*
X0175599Y0087146D01*
G37*
G36*
X0176991Y0085754D02*
X0175590Y0087155D01*
X0179495Y0091060D01*
X0180896Y0089659D01*
X0176991Y0085754D01*
G37*
G36*
X0178383Y0084362D02*
X0176982Y0085763D01*
X0180887Y0089668D01*
X0182288Y0088267D01*
X0178383Y0084362D01*
G37*
G36*
X0179775Y0082970D02*
X0178374Y0084371D01*
X0182279Y0088276D01*
X0183680Y0086875D01*
X0179775Y0082970D01*
G37*
G36*
X0181166Y0081578D02*
X0179765Y0082979D01*
X0183670Y0086884D01*
X0185071Y0085483D01*
X0181166Y0081578D01*
G37*
G36*
X0182558Y0080186D02*
X0181157Y0081587D01*
X0185062Y0085492D01*
X0186463Y0084091D01*
X0182558Y0080186D01*
G37*
G36*
X0183950Y0078794D02*
X0182549Y0080195D01*
X0186454Y0084100D01*
X0187855Y0082699D01*
X0183950Y0078794D01*
G37*
G36*
X0185342Y0077402D02*
X0183941Y0078803D01*
X0187846Y0082708D01*
X0189247Y0081307D01*
X0185342Y0077402D01*
G37*
G36*
X0186734Y0076011D02*
X0185333Y0077412D01*
X0189238Y0081317D01*
X0190639Y0079916D01*
X0186734Y0076011D01*
G37*
G36*
X0188126Y0074619D02*
X0186725Y0076020D01*
X0190630Y0079925D01*
X0192031Y0078524D01*
X0188126Y0074619D01*
G37*
G36*
X0201775Y0076020D02*
X0200374Y0074619D01*
X0196469Y0078524D01*
X0197870Y0079925D01*
X0201775Y0076020D01*
G37*
G36*
X0203167Y0077412D02*
X0201766Y0076011D01*
X0197861Y0079916D01*
X0199262Y0081317D01*
X0203167Y0077412D01*
G37*
G36*
X0204559Y0078803D02*
X0203158Y0077402D01*
X0199253Y0081307D01*
X0200654Y0082708D01*
X0204559Y0078803D01*
G37*
G36*
X0205951Y0080195D02*
X0204550Y0078794D01*
X0200645Y0082699D01*
X0202046Y0084100D01*
X0205951Y0080195D01*
G37*
G36*
X0207343Y0081587D02*
X0205942Y0080186D01*
X0202037Y0084091D01*
X0203438Y0085492D01*
X0207343Y0081587D01*
G37*
G36*
X0208735Y0082979D02*
X0207334Y0081578D01*
X0203429Y0085483D01*
X0204830Y0086884D01*
X0208735Y0082979D01*
G37*
G36*
X0210126Y0084371D02*
X0208725Y0082970D01*
X0204820Y0086875D01*
X0206221Y0088276D01*
X0210126Y0084371D01*
G37*
G36*
X0211518Y0085763D02*
X0210117Y0084362D01*
X0206212Y0088267D01*
X0207613Y0089668D01*
X0211518Y0085763D01*
G37*
G36*
X0212910Y0087155D02*
X0211509Y0085754D01*
X0207604Y0089659D01*
X0209005Y0091060D01*
X0212910Y0087155D01*
G37*
G36*
X0214302Y0088547D02*
X0212901Y0087146D01*
X0208996Y0091051D01*
X0210397Y0092452D01*
X0214302Y0088547D01*
G37*
G36*
X0215694Y0089939D02*
X0214293Y0088538D01*
X0210388Y0092443D01*
X0211789Y0093844D01*
X0215694Y0089939D01*
G37*
G36*
X0217086Y0091331D02*
X0215685Y0089930D01*
X0211780Y0093835D01*
X0213181Y0095236D01*
X0217086Y0091331D01*
G37*
G36*
X0218478Y0092723D02*
X0217077Y0091322D01*
X0213172Y0095227D01*
X0214573Y0096628D01*
X0218478Y0092723D01*
G37*
G36*
X0219870Y0094115D02*
X0218469Y0092714D01*
X0214564Y0096619D01*
X0215965Y0098020D01*
X0219870Y0094115D01*
G37*
G36*
X0221262Y0095507D02*
X0219861Y0094106D01*
X0215956Y0098011D01*
X0217357Y0099412D01*
X0221262Y0095507D01*
G37*
G36*
X0222654Y0096899D02*
X0221253Y0095498D01*
X0217348Y0099403D01*
X0218749Y0100804D01*
X0222654Y0096899D01*
G37*
G36*
X0224046Y0098291D02*
X0222645Y0096890D01*
X0218740Y0100795D01*
X0220141Y0102196D01*
X0224046Y0098291D01*
G37*
G36*
X0225438Y0099683D02*
X0224037Y0098282D01*
X0220132Y0102187D01*
X0221533Y0103588D01*
X0225438Y0099683D01*
G37*
G36*
X0226830Y0101075D02*
X0225429Y0099674D01*
X0221524Y0103579D01*
X0222925Y0104980D01*
X0226830Y0101075D01*
G37*
G36*
X0228222Y0102466D02*
X0226821Y0101065D01*
X0222916Y0104970D01*
X0224317Y0106371D01*
X0228222Y0102466D01*
G37*
G36*
X0229614Y0103858D02*
X0228213Y0102457D01*
X0224308Y0106362D01*
X0225709Y0107763D01*
X0229614Y0103858D01*
G37*
G36*
X0231006Y0105250D02*
X0229605Y0103849D01*
X0225700Y0107754D01*
X0227101Y0109155D01*
X0231006Y0105250D01*
G37*
G36*
X0232398Y0106642D02*
X0230997Y0105241D01*
X0227092Y0109146D01*
X0228493Y0110547D01*
X0232398Y0106642D01*
G37*
G36*
X0233789Y0108034D02*
X0232388Y0106633D01*
X0228483Y0110538D01*
X0229884Y0111939D01*
X0233789Y0108034D01*
G37*
G36*
X0235181Y0109426D02*
X0233780Y0108025D01*
X0229875Y0111930D01*
X0231276Y0113331D01*
X0235181Y0109426D01*
G37*
G36*
X0233780Y0123075D02*
X0235181Y0121674D01*
X0231276Y0117769D01*
X0229875Y0119170D01*
X0233780Y0123075D01*
G37*
G36*
X0232388Y0124467D02*
X0233789Y0123066D01*
X0229884Y0119161D01*
X0228483Y0120562D01*
X0232388Y0124467D01*
G37*
G36*
X0230997Y0125859D02*
X0232398Y0124458D01*
X0228493Y0120553D01*
X0227092Y0121954D01*
X0230997Y0125859D01*
G37*
G36*
X0229605Y0127251D02*
X0231006Y0125850D01*
X0227101Y0121945D01*
X0225700Y0123346D01*
X0229605Y0127251D01*
G37*
G36*
X0228213Y0128643D02*
X0229614Y0127242D01*
X0225709Y0123337D01*
X0224308Y0124738D01*
X0228213Y0128643D01*
G37*
G36*
X0226821Y0130035D02*
X0228222Y0128634D01*
X0224317Y0124729D01*
X0222916Y0126130D01*
X0226821Y0130035D01*
G37*
G36*
X0225429Y0131426D02*
X0226830Y0130025D01*
X0222925Y0126120D01*
X0221524Y0127521D01*
X0225429Y0131426D01*
G37*
G36*
X0224037Y0132818D02*
X0225438Y0131417D01*
X0221533Y0127512D01*
X0220132Y0128913D01*
X0224037Y0132818D01*
G37*
G36*
X0222645Y0134210D02*
X0224046Y0132809D01*
X0220141Y0128904D01*
X0218740Y0130305D01*
X0222645Y0134210D01*
G37*
G36*
X0221253Y0135602D02*
X0222654Y0134201D01*
X0218749Y0130296D01*
X0217348Y0131697D01*
X0221253Y0135602D01*
G37*
G36*
X0219861Y0136994D02*
X0221262Y0135593D01*
X0217357Y0131688D01*
X0215956Y0133089D01*
X0219861Y0136994D01*
G37*
G36*
X0218469Y0138386D02*
X0219870Y0136985D01*
X0215965Y0133080D01*
X0214564Y0134481D01*
X0218469Y0138386D01*
G37*
G36*
X0217077Y0139778D02*
X0218478Y0138377D01*
X0214573Y0134472D01*
X0213172Y0135873D01*
X0217077Y0139778D01*
G37*
G36*
X0215685Y0141170D02*
X0217086Y0139769D01*
X0213181Y0135864D01*
X0211780Y0137265D01*
X0215685Y0141170D01*
G37*
G36*
X0214293Y0142562D02*
X0215694Y0141161D01*
X0211789Y0137256D01*
X0210388Y0138657D01*
X0214293Y0142562D01*
G37*
G36*
X0212901Y0143954D02*
X0214302Y0142553D01*
X0210397Y0138648D01*
X0208996Y0140049D01*
X0212901Y0143954D01*
G37*
G36*
X0211509Y0145346D02*
X0212910Y0143945D01*
X0209005Y0140040D01*
X0207604Y0141441D01*
X0211509Y0145346D01*
G37*
G36*
X0210117Y0146738D02*
X0211518Y0145337D01*
X0207613Y0141432D01*
X0206212Y0142833D01*
X0210117Y0146738D01*
G37*
G36*
X0208725Y0148130D02*
X0210126Y0146729D01*
X0206221Y0142824D01*
X0204820Y0144225D01*
X0208725Y0148130D01*
G37*
G36*
X0207334Y0149522D02*
X0208735Y0148121D01*
X0204830Y0144216D01*
X0203429Y0145617D01*
X0207334Y0149522D01*
G37*
G36*
X0205942Y0150914D02*
X0207343Y0149513D01*
X0203438Y0145608D01*
X0202037Y0147009D01*
X0205942Y0150914D01*
G37*
G36*
X0204550Y0152306D02*
X0205951Y0150905D01*
X0202046Y0147000D01*
X0200645Y0148401D01*
X0204550Y0152306D01*
G37*
G36*
X0203158Y0153698D02*
X0204559Y0152297D01*
X0200654Y0148392D01*
X0199253Y0149793D01*
X0203158Y0153698D01*
G37*
G36*
X0201766Y0155089D02*
X0203167Y0153688D01*
X0199262Y0149783D01*
X0197861Y0151184D01*
X0201766Y0155089D01*
G37*
G36*
X0200374Y0156481D02*
X0201775Y0155080D01*
X0197870Y0151175D01*
X0196469Y0152576D01*
X0200374Y0156481D01*
G37*
D24*
X0319565Y0125433D03*
X0324565Y0125433D03*
X0329565Y0125433D03*
X0334565Y0125433D03*
X0339565Y0125433D03*
X0344565Y0125433D03*
X0349565Y0125433D03*
X0354565Y0125433D03*
X0359565Y0125433D03*
X0364565Y0125433D03*
X0369565Y0125433D03*
X0374565Y0125433D03*
X0379565Y0125433D03*
X0384565Y0125433D03*
X0384565Y0054567D03*
X0379565Y0054567D03*
X0374565Y0054567D03*
X0369565Y0054567D03*
X0364565Y0054567D03*
X0359565Y0054567D03*
X0354565Y0054567D03*
X0349565Y0054567D03*
X0344565Y0054567D03*
X0339565Y0054567D03*
X0334565Y0054567D03*
X0329565Y0054567D03*
X0324565Y0054567D03*
X0319565Y0054567D03*
X0319565Y0276567D03*
X0324565Y0276567D03*
X0329565Y0276567D03*
X0334565Y0276567D03*
X0339565Y0276567D03*
X0344565Y0276567D03*
X0349565Y0276567D03*
X0354565Y0276567D03*
X0359565Y0276567D03*
X0364565Y0276567D03*
X0369565Y0276567D03*
X0374565Y0276567D03*
X0379565Y0276567D03*
X0384565Y0276567D03*
X0384565Y0347433D03*
X0379565Y0347433D03*
X0374565Y0347433D03*
X0369565Y0347433D03*
X0364565Y0347433D03*
X0359565Y0347433D03*
X0354565Y0347433D03*
X0349565Y0347433D03*
X0344565Y0347433D03*
X0339565Y0347433D03*
X0334565Y0347433D03*
X0329565Y0347433D03*
X0324565Y0347433D03*
X0319565Y0347433D03*
D25*
X0313699Y0334500D03*
X0313699Y0329500D03*
X0313699Y0324500D03*
X0313699Y0319500D03*
X0313699Y0314500D03*
X0313699Y0309500D03*
X0313699Y0304500D03*
X0313699Y0299500D03*
X0313699Y0294500D03*
X0313699Y0289500D03*
X0313699Y0112500D03*
X0313699Y0107500D03*
X0313699Y0102500D03*
X0313699Y0097500D03*
X0313699Y0092500D03*
X0313699Y0087500D03*
X0313699Y0082500D03*
X0313699Y0077500D03*
X0313699Y0072500D03*
X0313699Y0067500D03*
D26*
X0354250Y0090000D03*
X0354250Y0312000D03*
D27*
X0324187Y0379288D03*
X0316313Y0379288D03*
X0316313Y0391512D03*
X0324187Y0391512D03*
X0324187Y0169512D03*
X0316313Y0169512D03*
X0316313Y0157288D03*
X0324187Y0157288D03*
D28*
X0322612Y0157494D03*
X0321037Y0157494D03*
X0319463Y0157494D03*
X0317888Y0157494D03*
X0317888Y0169306D03*
X0319463Y0169306D03*
X0321037Y0169306D03*
X0322612Y0169306D03*
X0322612Y0379494D03*
X0321037Y0379494D03*
X0319463Y0379494D03*
X0317888Y0379494D03*
X0317888Y0391306D03*
X0319463Y0391306D03*
X0321037Y0391306D03*
X0322612Y0391306D03*
D29*
X0326362Y0389337D03*
X0326362Y0381463D03*
X0314138Y0381463D03*
X0314138Y0389337D03*
X0314138Y0167337D03*
X0314138Y0159463D03*
X0326362Y0159463D03*
X0326362Y0167337D03*
D30*
X0326156Y0165762D03*
X0326156Y0164187D03*
X0326156Y0162613D03*
X0326156Y0161038D03*
X0314344Y0161038D03*
X0314344Y0162613D03*
X0314344Y0164187D03*
X0314344Y0165762D03*
X0314344Y0383038D03*
X0314344Y0384613D03*
X0314344Y0386187D03*
X0314344Y0387762D03*
X0326156Y0387762D03*
X0326156Y0386187D03*
X0326156Y0384613D03*
X0326156Y0383038D03*
D31*
X0324185Y0380869D03*
X0316315Y0380869D03*
X0316315Y0389931D03*
X0324185Y0389931D03*
X0324185Y0167931D03*
X0316315Y0167931D03*
X0316315Y0158869D03*
X0324185Y0158869D03*
D32*
X0324781Y0159465D03*
X0324781Y0167335D03*
X0315719Y0167335D03*
X0315719Y0159465D03*
X0315719Y0381465D03*
X0315719Y0389335D03*
X0324781Y0389335D03*
X0324781Y0381465D03*
D33*
X0322250Y0368746D03*
X0316250Y0368746D03*
X0310250Y0368746D03*
X0310250Y0362054D03*
X0316250Y0362054D03*
X0322250Y0362054D03*
X0288750Y0362054D03*
X0288750Y0368746D03*
X0240500Y0340796D03*
X0240500Y0334104D03*
X0202250Y0265096D03*
X0202250Y0258404D03*
X0186250Y0258404D03*
X0186250Y0265096D03*
X0220250Y0223846D03*
X0220250Y0217154D03*
X0234250Y0217154D03*
X0234250Y0223846D03*
X0244250Y0203846D03*
X0244250Y0197154D03*
X0260250Y0199154D03*
X0260250Y0205846D03*
X0280250Y0205846D03*
X0280250Y0199154D03*
X0293250Y0199154D03*
X0293250Y0205846D03*
X0313250Y0205846D03*
X0313250Y0199154D03*
X0326250Y0199154D03*
X0326250Y0205846D03*
X0346250Y0205846D03*
X0346250Y0199154D03*
X0359250Y0199154D03*
X0359250Y0205846D03*
X0379250Y0205846D03*
X0379250Y0199154D03*
X0322250Y0146746D03*
X0316250Y0146746D03*
X0310250Y0146746D03*
X0310250Y0140054D03*
X0316250Y0140054D03*
X0322250Y0140054D03*
X0288750Y0140054D03*
X0288750Y0146746D03*
X0240500Y0118796D03*
X0240500Y0112104D03*
X0202250Y0043096D03*
X0202250Y0036404D03*
X0186250Y0036404D03*
X0186250Y0043096D03*
X0148000Y0112204D03*
X0148000Y0118896D03*
X0097750Y0101846D03*
X0091750Y0101846D03*
X0091750Y0095154D03*
X0097750Y0095154D03*
X0085750Y0095154D03*
X0079750Y0095154D03*
X0079750Y0101846D03*
X0085750Y0101846D03*
X0089250Y0152654D03*
X0089250Y0159346D03*
X0089250Y0167654D03*
X0089250Y0174346D03*
X0064250Y0173346D03*
X0058250Y0173346D03*
X0058250Y0166654D03*
X0064250Y0166654D03*
X0077750Y0199154D03*
X0084750Y0199154D03*
X0084750Y0205846D03*
X0077750Y0205846D03*
X0106750Y0205846D03*
X0106750Y0199154D03*
X0113750Y0199154D03*
X0113750Y0205846D03*
X0131250Y0205846D03*
X0131250Y0199154D03*
X0151250Y0199154D03*
X0151250Y0205846D03*
X0097750Y0257154D03*
X0091750Y0257154D03*
X0091750Y0263846D03*
X0097750Y0263846D03*
X0085750Y0263846D03*
X0079750Y0263846D03*
X0079750Y0257154D03*
X0085750Y0257154D03*
X0085750Y0317154D03*
X0079750Y0317154D03*
X0079750Y0323846D03*
X0085750Y0323846D03*
X0091750Y0323846D03*
X0097750Y0323846D03*
X0097750Y0317154D03*
X0091750Y0317154D03*
X0148000Y0334204D03*
X0148000Y0340896D03*
X0089250Y0374654D03*
X0089250Y0381346D03*
X0089250Y0389654D03*
X0089250Y0396346D03*
X0064250Y0395346D03*
X0058250Y0395346D03*
X0058250Y0388654D03*
X0064250Y0388654D03*
X0077750Y0421154D03*
X0077750Y0427846D03*
X0084750Y0427846D03*
X0084750Y0421154D03*
X0106750Y0421154D03*
X0106750Y0427846D03*
X0113750Y0427846D03*
X0113750Y0421154D03*
X0131250Y0421154D03*
X0131250Y0427846D03*
X0151250Y0427846D03*
X0151250Y0421154D03*
X0210250Y0419154D03*
X0210250Y0425846D03*
X0220250Y0439154D03*
X0220250Y0445846D03*
X0234250Y0445846D03*
X0234250Y0439154D03*
X0244250Y0425846D03*
X0244250Y0419154D03*
X0260250Y0421154D03*
X0260250Y0427846D03*
X0280250Y0427846D03*
X0280250Y0421154D03*
X0293250Y0421154D03*
X0293250Y0427846D03*
X0313250Y0427846D03*
X0313250Y0421154D03*
X0326250Y0421154D03*
X0326250Y0427846D03*
X0346250Y0427846D03*
X0346250Y0421154D03*
X0359250Y0421154D03*
X0359250Y0427846D03*
X0379250Y0427846D03*
X0379250Y0421154D03*
X0210250Y0203846D03*
X0210250Y0197154D03*
X0097750Y0041846D03*
X0091750Y0041846D03*
X0091750Y0035154D03*
X0097750Y0035154D03*
X0085750Y0035154D03*
X0079750Y0035154D03*
X0079750Y0041846D03*
X0085750Y0041846D03*
D34*
X0296510Y0139100D03*
X0300250Y0139100D03*
X0303990Y0139100D03*
X0303990Y0147700D03*
X0296510Y0147700D03*
X0296510Y0361100D03*
X0300250Y0361100D03*
X0303990Y0361100D03*
X0303990Y0369700D03*
X0296510Y0369700D03*
D35*
X0237990Y0424563D03*
X0234250Y0432831D03*
X0230510Y0424563D03*
X0223990Y0424563D03*
X0216510Y0424563D03*
X0220250Y0432831D03*
X0210250Y0432169D03*
X0206510Y0440437D03*
X0213990Y0440437D03*
X0240510Y0440437D03*
X0247990Y0440437D03*
X0244250Y0432169D03*
X0259510Y0440563D03*
X0266990Y0440563D03*
X0273510Y0440563D03*
X0277250Y0448831D03*
X0280990Y0440563D03*
X0292510Y0440563D03*
X0299990Y0440563D03*
X0306510Y0440563D03*
X0310250Y0448831D03*
X0313990Y0440563D03*
X0325510Y0440563D03*
X0332990Y0440563D03*
X0329250Y0448831D03*
X0339510Y0440563D03*
X0346990Y0440563D03*
X0343250Y0448831D03*
X0358510Y0440563D03*
X0362250Y0448831D03*
X0365990Y0440563D03*
X0372510Y0440563D03*
X0379990Y0440563D03*
X0376250Y0448831D03*
X0296250Y0448831D03*
X0263250Y0448831D03*
X0151990Y0440563D03*
X0148250Y0448831D03*
X0144510Y0440563D03*
X0137990Y0440563D03*
X0130510Y0440563D03*
X0134250Y0448831D03*
X0107490Y0440563D03*
X0100010Y0440563D03*
X0091490Y0440563D03*
X0087750Y0448831D03*
X0084010Y0440563D03*
X0103750Y0448831D03*
X0103750Y0226831D03*
X0100010Y0218563D03*
X0107490Y0218563D03*
X0091490Y0218563D03*
X0084010Y0218563D03*
X0087750Y0226831D03*
X0130510Y0218563D03*
X0137990Y0218563D03*
X0144510Y0218563D03*
X0151990Y0218563D03*
X0148250Y0226831D03*
X0134250Y0226831D03*
X0206510Y0218437D03*
X0213990Y0218437D03*
X0210250Y0210169D03*
X0220250Y0210831D03*
X0216510Y0202563D03*
X0223990Y0202563D03*
X0230510Y0202563D03*
X0237990Y0202563D03*
X0234250Y0210831D03*
X0240510Y0218437D03*
X0244250Y0210169D03*
X0247990Y0218437D03*
X0259510Y0218563D03*
X0266990Y0218563D03*
X0273510Y0218563D03*
X0280990Y0218563D03*
X0277250Y0226831D03*
X0263250Y0226831D03*
X0292510Y0218563D03*
X0299990Y0218563D03*
X0306510Y0218563D03*
X0313990Y0218563D03*
X0310250Y0226831D03*
X0296250Y0226831D03*
X0325510Y0218563D03*
X0332990Y0218563D03*
X0339510Y0218563D03*
X0346990Y0218563D03*
X0343250Y0226831D03*
X0329250Y0226831D03*
X0358510Y0218563D03*
X0365990Y0218563D03*
X0372510Y0218563D03*
X0379990Y0218563D03*
X0376250Y0226831D03*
X0362250Y0226831D03*
D36*
X0365250Y0202500D03*
X0369250Y0202500D03*
X0373250Y0202500D03*
X0340250Y0202500D03*
X0336250Y0202500D03*
X0332250Y0202500D03*
X0307250Y0202500D03*
X0303250Y0202500D03*
X0299250Y0202500D03*
X0274250Y0202500D03*
X0270250Y0202500D03*
X0266250Y0202500D03*
X0195850Y0175500D03*
X0192650Y0175500D03*
X0145250Y0202500D03*
X0141250Y0202500D03*
X0137250Y0202500D03*
X0099750Y0202500D03*
X0095750Y0202500D03*
X0091750Y0202500D03*
X0192650Y0397500D03*
X0195850Y0397500D03*
X0145250Y0424500D03*
X0141250Y0424500D03*
X0137250Y0424500D03*
X0099750Y0424500D03*
X0095750Y0424500D03*
X0091750Y0424500D03*
X0266250Y0424500D03*
X0270250Y0424500D03*
X0274250Y0424500D03*
X0299250Y0424500D03*
X0303250Y0424500D03*
X0307250Y0424500D03*
X0332250Y0424500D03*
X0336250Y0424500D03*
X0340250Y0424500D03*
X0365250Y0424500D03*
X0369250Y0424500D03*
X0373250Y0424500D03*
D37*
X0368000Y0424318D02*
X0366500Y0424318D01*
X0366500Y0424000D02*
X0366500Y0425000D01*
X0368000Y0425000D01*
X0368000Y0424000D01*
X0366500Y0424000D01*
X0366500Y0424816D02*
X0368000Y0424816D01*
X0335000Y0424816D02*
X0333500Y0424816D01*
X0333500Y0425000D02*
X0335000Y0425000D01*
X0335000Y0424000D01*
X0333500Y0424000D01*
X0333500Y0425000D01*
X0333500Y0424318D02*
X0335000Y0424318D01*
X0302000Y0424318D02*
X0300500Y0424318D01*
X0300500Y0424000D02*
X0300500Y0425000D01*
X0302000Y0425000D01*
X0302000Y0424000D01*
X0300500Y0424000D01*
X0300500Y0424816D02*
X0302000Y0424816D01*
X0269000Y0424816D02*
X0267500Y0424816D01*
X0267500Y0425000D02*
X0269000Y0425000D01*
X0269000Y0424000D01*
X0267500Y0424000D01*
X0267500Y0425000D01*
X0267500Y0424318D02*
X0269000Y0424318D01*
X0144000Y0424318D02*
X0142500Y0424318D01*
X0142500Y0424000D02*
X0142500Y0425000D01*
X0144000Y0425000D01*
X0144000Y0424000D01*
X0142500Y0424000D01*
X0142500Y0424816D02*
X0144000Y0424816D01*
X0098500Y0424816D02*
X0097000Y0424816D01*
X0097000Y0425000D02*
X0097000Y0424000D01*
X0098500Y0424000D01*
X0098500Y0425000D01*
X0097000Y0425000D01*
X0097000Y0424318D02*
X0098500Y0424318D01*
X0098500Y0203000D02*
X0098500Y0202000D01*
X0097000Y0202000D01*
X0097000Y0203000D01*
X0098500Y0203000D01*
X0098500Y0202979D02*
X0097000Y0202979D01*
X0097000Y0202480D02*
X0098500Y0202480D01*
X0142500Y0202480D02*
X0144000Y0202480D01*
X0144000Y0202000D02*
X0142500Y0202000D01*
X0142500Y0203000D01*
X0144000Y0203000D01*
X0144000Y0202000D01*
X0144000Y0202979D02*
X0142500Y0202979D01*
X0267500Y0202979D02*
X0269000Y0202979D01*
X0269000Y0203000D02*
X0269000Y0202000D01*
X0267500Y0202000D01*
X0267500Y0203000D01*
X0269000Y0203000D01*
X0269000Y0202480D02*
X0267500Y0202480D01*
X0300500Y0202480D02*
X0302000Y0202480D01*
X0302000Y0202000D02*
X0302000Y0203000D01*
X0300500Y0203000D01*
X0300500Y0202000D01*
X0302000Y0202000D01*
X0302000Y0202979D02*
X0300500Y0202979D01*
X0333500Y0202979D02*
X0335000Y0202979D01*
X0335000Y0203000D02*
X0335000Y0202000D01*
X0333500Y0202000D01*
X0333500Y0203000D01*
X0335000Y0203000D01*
X0335000Y0202480D02*
X0333500Y0202480D01*
X0366500Y0202480D02*
X0368000Y0202480D01*
X0368000Y0202000D02*
X0368000Y0203000D01*
X0366500Y0203000D01*
X0366500Y0202000D01*
X0368000Y0202000D01*
X0368000Y0202979D02*
X0366500Y0202979D01*
D38*
X0364329Y0233500D03*
X0369250Y0233500D03*
X0374171Y0233500D03*
X0341171Y0233500D03*
X0336250Y0233500D03*
X0331329Y0233500D03*
X0308171Y0233500D03*
X0303250Y0233500D03*
X0298329Y0233500D03*
X0275171Y0233500D03*
X0270250Y0233500D03*
X0265329Y0233500D03*
X0234671Y0233500D03*
X0229750Y0233500D03*
X0224829Y0233500D03*
X0219907Y0233500D03*
X0189171Y0233500D03*
X0184250Y0233500D03*
X0179329Y0233500D03*
X0148671Y0233500D03*
X0143750Y0233500D03*
X0138829Y0233500D03*
X0133907Y0233500D03*
X0103171Y0233500D03*
X0098250Y0233500D03*
X0093329Y0233500D03*
X0088407Y0233500D03*
X0088407Y0455500D03*
X0093329Y0455500D03*
X0098250Y0455500D03*
X0103171Y0455500D03*
X0133907Y0455500D03*
X0138829Y0455500D03*
X0143750Y0455500D03*
X0148671Y0455500D03*
X0179329Y0455500D03*
X0184250Y0455500D03*
X0189171Y0455500D03*
X0219907Y0455500D03*
X0224829Y0455500D03*
X0229750Y0455500D03*
X0234671Y0455500D03*
X0265329Y0455500D03*
X0270250Y0455500D03*
X0275171Y0455500D03*
X0298329Y0455500D03*
X0303250Y0455500D03*
X0308171Y0455500D03*
X0331329Y0455500D03*
X0336250Y0455500D03*
X0341171Y0455500D03*
X0364329Y0455500D03*
X0369250Y0455500D03*
X0374171Y0455500D03*
D39*
X0381947Y0465185D03*
X0356553Y0465185D03*
X0348947Y0465185D03*
X0323553Y0465185D03*
X0315947Y0465185D03*
X0290553Y0465185D03*
X0282947Y0465185D03*
X0257553Y0465185D03*
X0242447Y0465185D03*
X0212132Y0465185D03*
X0196947Y0465185D03*
X0171553Y0465185D03*
X0156447Y0465185D03*
X0126132Y0465185D03*
X0110947Y0465185D03*
X0080632Y0465185D03*
X0080632Y0243185D03*
X0110947Y0243185D03*
X0126132Y0243185D03*
X0156447Y0243185D03*
X0171553Y0243185D03*
X0196947Y0243185D03*
X0212132Y0243185D03*
X0242447Y0243185D03*
X0257553Y0243185D03*
X0282947Y0243185D03*
X0290553Y0243185D03*
X0315947Y0243185D03*
X0323553Y0243185D03*
X0348947Y0243185D03*
X0356553Y0243185D03*
X0381947Y0243185D03*
D40*
X0080869Y0174240D03*
X0080869Y0166760D03*
X0070631Y0166760D03*
X0070631Y0170500D03*
X0070631Y0174240D03*
X0070631Y0388760D03*
X0070631Y0392500D03*
X0070631Y0396240D03*
X0080869Y0396240D03*
X0080869Y0388760D03*
D41*
X0049750Y0031500D03*
X0049750Y0253500D03*
X0091750Y0478750D03*
X0297000Y0279250D03*
X0297000Y0274250D03*
X0297000Y0269250D03*
X0297000Y0264250D03*
X0297000Y0259250D03*
X0302000Y0259250D03*
X0302000Y0264250D03*
X0302000Y0269250D03*
X0302000Y0274250D03*
X0302000Y0279250D03*
X0413750Y0245500D03*
X0302000Y0057250D03*
X0302000Y0052250D03*
X0302000Y0047250D03*
X0302000Y0042250D03*
X0302000Y0037250D03*
X0297000Y0037250D03*
X0297000Y0042250D03*
X0297000Y0047250D03*
X0297000Y0052250D03*
X0297000Y0057250D03*
X0413750Y0467500D03*
X0371750Y0478750D03*
D42*
X0125250Y0397250D03*
X0110250Y0397250D03*
X0110250Y0375250D03*
X0125250Y0375250D03*
X0125250Y0175250D03*
X0110250Y0175250D03*
X0110250Y0153250D03*
X0125250Y0153250D03*
D43*
X0158500Y0254250D03*
X0158500Y0269250D03*
X0180500Y0269250D03*
X0180500Y0254250D03*
X0208000Y0254250D03*
X0208000Y0269250D03*
X0230000Y0269250D03*
X0230000Y0254250D03*
X0315750Y0254250D03*
X0315750Y0269250D03*
X0337750Y0269250D03*
X0337750Y0254250D03*
X0362000Y0254250D03*
X0362000Y0269250D03*
X0384000Y0269250D03*
X0384000Y0254250D03*
X0384000Y0047250D03*
X0384000Y0032250D03*
X0362000Y0032250D03*
X0362000Y0047250D03*
X0337750Y0047250D03*
X0337750Y0032250D03*
X0315750Y0032250D03*
X0315750Y0047250D03*
X0230000Y0047250D03*
X0230000Y0032250D03*
X0208000Y0032250D03*
X0208000Y0047250D03*
X0180500Y0047250D03*
X0180500Y0032250D03*
X0158500Y0032250D03*
X0158500Y0047250D03*
D44*
X0164924Y0052127D02*
X0164924Y0054873D01*
X0167670Y0054873D01*
X0167670Y0052127D01*
X0164924Y0052127D01*
X0164924Y0054017D02*
X0167670Y0054017D01*
X0171830Y0054873D02*
X0171830Y0052127D01*
X0171830Y0054873D02*
X0174576Y0054873D01*
X0174576Y0052127D01*
X0171830Y0052127D01*
X0171830Y0054017D02*
X0174576Y0054017D01*
X0214424Y0054873D02*
X0214424Y0052127D01*
X0214424Y0054873D02*
X0217170Y0054873D01*
X0217170Y0052127D01*
X0214424Y0052127D01*
X0214424Y0054017D02*
X0217170Y0054017D01*
X0221330Y0054873D02*
X0221330Y0052127D01*
X0221330Y0054873D02*
X0224076Y0054873D01*
X0224076Y0052127D01*
X0221330Y0052127D01*
X0221330Y0054017D02*
X0224076Y0054017D01*
X0105123Y0043326D02*
X0102377Y0043326D01*
X0105123Y0043326D02*
X0105123Y0040580D01*
X0102377Y0040580D01*
X0102377Y0043326D01*
X0102377Y0042470D02*
X0105123Y0042470D01*
X0105123Y0036420D02*
X0102377Y0036420D01*
X0105123Y0036420D02*
X0105123Y0033674D01*
X0102377Y0033674D01*
X0102377Y0036420D01*
X0102377Y0035564D02*
X0105123Y0035564D01*
X0105123Y0096420D02*
X0102377Y0096420D01*
X0105123Y0096420D02*
X0105123Y0093674D01*
X0102377Y0093674D01*
X0102377Y0096420D01*
X0102377Y0095564D02*
X0105123Y0095564D01*
X0105123Y0103326D02*
X0102377Y0103326D01*
X0105123Y0103326D02*
X0105123Y0100580D01*
X0102377Y0100580D01*
X0102377Y0103326D01*
X0102377Y0102470D02*
X0105123Y0102470D01*
X0053623Y0167920D02*
X0050877Y0167920D01*
X0053623Y0167920D02*
X0053623Y0165174D01*
X0050877Y0165174D01*
X0050877Y0167920D01*
X0050877Y0167064D02*
X0053623Y0167064D01*
X0053623Y0174826D02*
X0050877Y0174826D01*
X0053623Y0174826D02*
X0053623Y0172080D01*
X0050877Y0172080D01*
X0050877Y0174826D01*
X0050877Y0173970D02*
X0053623Y0173970D01*
X0076377Y0214420D02*
X0079123Y0214420D01*
X0079123Y0211674D01*
X0076377Y0211674D01*
X0076377Y0214420D01*
X0076377Y0213564D02*
X0079123Y0213564D01*
X0079123Y0221326D02*
X0076377Y0221326D01*
X0079123Y0221326D02*
X0079123Y0218580D01*
X0076377Y0218580D01*
X0076377Y0221326D01*
X0076377Y0220470D02*
X0079123Y0220470D01*
X0112377Y0221326D02*
X0115123Y0221326D01*
X0115123Y0218580D01*
X0112377Y0218580D01*
X0112377Y0221326D01*
X0112377Y0220470D02*
X0115123Y0220470D01*
X0115123Y0214420D02*
X0112377Y0214420D01*
X0115123Y0214420D02*
X0115123Y0211674D01*
X0112377Y0211674D01*
X0112377Y0214420D01*
X0112377Y0213564D02*
X0115123Y0213564D01*
X0105123Y0258420D02*
X0102377Y0258420D01*
X0105123Y0258420D02*
X0105123Y0255674D01*
X0102377Y0255674D01*
X0102377Y0258420D01*
X0102377Y0257564D02*
X0105123Y0257564D01*
X0105123Y0265326D02*
X0102377Y0265326D01*
X0105123Y0265326D02*
X0105123Y0262580D01*
X0102377Y0262580D01*
X0102377Y0265326D01*
X0102377Y0264470D02*
X0105123Y0264470D01*
X0105123Y0318420D02*
X0102377Y0318420D01*
X0105123Y0318420D02*
X0105123Y0315674D01*
X0102377Y0315674D01*
X0102377Y0318420D01*
X0102377Y0317564D02*
X0105123Y0317564D01*
X0105123Y0325326D02*
X0102377Y0325326D01*
X0105123Y0325326D02*
X0105123Y0322580D01*
X0102377Y0322580D01*
X0102377Y0325326D01*
X0102377Y0324470D02*
X0105123Y0324470D01*
X0164924Y0276873D02*
X0164924Y0274127D01*
X0164924Y0276873D02*
X0167670Y0276873D01*
X0167670Y0274127D01*
X0164924Y0274127D01*
X0164924Y0276017D02*
X0167670Y0276017D01*
X0171830Y0276873D02*
X0171830Y0274127D01*
X0171830Y0276873D02*
X0174576Y0276873D01*
X0174576Y0274127D01*
X0171830Y0274127D01*
X0171830Y0276017D02*
X0174576Y0276017D01*
X0214424Y0276873D02*
X0214424Y0274127D01*
X0214424Y0276873D02*
X0217170Y0276873D01*
X0217170Y0274127D01*
X0214424Y0274127D01*
X0214424Y0276017D02*
X0217170Y0276017D01*
X0221330Y0276873D02*
X0221330Y0274127D01*
X0221330Y0276873D02*
X0224076Y0276873D01*
X0224076Y0274127D01*
X0221330Y0274127D01*
X0221330Y0276017D02*
X0224076Y0276017D01*
X0115123Y0436420D02*
X0112377Y0436420D01*
X0115123Y0436420D02*
X0115123Y0433674D01*
X0112377Y0433674D01*
X0112377Y0436420D01*
X0112377Y0435564D02*
X0115123Y0435564D01*
X0115123Y0443326D02*
X0112377Y0443326D01*
X0115123Y0443326D02*
X0115123Y0440580D01*
X0112377Y0440580D01*
X0112377Y0443326D01*
X0112377Y0442470D02*
X0115123Y0442470D01*
X0079123Y0443326D02*
X0076377Y0443326D01*
X0079123Y0443326D02*
X0079123Y0440580D01*
X0076377Y0440580D01*
X0076377Y0443326D01*
X0076377Y0442470D02*
X0079123Y0442470D01*
X0079123Y0436420D02*
X0076377Y0436420D01*
X0079123Y0436420D02*
X0079123Y0433674D01*
X0076377Y0433674D01*
X0076377Y0436420D01*
X0076377Y0435564D02*
X0079123Y0435564D01*
X0053623Y0396826D02*
X0050877Y0396826D01*
X0053623Y0396826D02*
X0053623Y0394080D01*
X0050877Y0394080D01*
X0050877Y0396826D01*
X0050877Y0395970D02*
X0053623Y0395970D01*
X0053623Y0389920D02*
X0050877Y0389920D01*
X0053623Y0389920D02*
X0053623Y0387174D01*
X0050877Y0387174D01*
X0050877Y0389920D01*
X0050877Y0389064D02*
X0053623Y0389064D01*
D45*
X0062250Y0373421D03*
X0062250Y0368500D03*
X0083250Y0367543D03*
X0083250Y0360457D03*
X0062250Y0151421D03*
X0062250Y0146500D03*
X0083250Y0145543D03*
X0083250Y0138457D03*
D46*
X0052565Y0138724D03*
X0052565Y0159197D03*
X0052565Y0360724D03*
X0052565Y0381197D03*
D47*
X0068919Y0378000D03*
X0077187Y0374260D03*
X0077187Y0381740D03*
X0077187Y0367740D03*
X0077187Y0360260D03*
X0068919Y0364000D03*
X0077187Y0159740D03*
X0077187Y0152260D03*
X0077187Y0145740D03*
X0077187Y0138260D03*
X0068919Y0142000D03*
X0068919Y0156000D03*
D48*
X0091250Y0143600D03*
X0091250Y0140400D03*
X0091250Y0362400D03*
X0091250Y0365600D03*
D49*
X0084778Y0354000D03*
X0075722Y0354000D03*
X0075722Y0132000D03*
X0084778Y0132000D03*
D50*
X0083250Y0151472D03*
X0083250Y0160528D03*
X0083250Y0373472D03*
X0083250Y0382528D03*
D51*
X0295510Y0344000D03*
X0295510Y0341244D03*
X0302990Y0341244D03*
X0302990Y0344000D03*
X0302990Y0122000D03*
X0302990Y0119244D03*
X0295510Y0119244D03*
X0295510Y0122000D03*
D52*
X0295510Y0124756D03*
X0302990Y0124756D03*
X0302990Y0346756D03*
X0295510Y0346756D03*
D53*
X0303596Y0378313D03*
X0303596Y0156313D03*
D54*
X0303793Y0157888D03*
X0303793Y0159463D03*
X0303793Y0161038D03*
X0303793Y0162613D03*
X0303793Y0164187D03*
X0303793Y0165762D03*
X0303793Y0167337D03*
X0303793Y0168912D03*
X0303793Y0170487D03*
X0296707Y0170487D03*
X0296707Y0168912D03*
X0296707Y0167337D03*
X0296707Y0165762D03*
X0296707Y0164187D03*
X0296707Y0162613D03*
X0296707Y0161038D03*
X0296707Y0159463D03*
X0296707Y0157888D03*
X0296707Y0156313D03*
X0296707Y0378313D03*
X0296707Y0379888D03*
X0296707Y0381463D03*
X0296707Y0383038D03*
X0296707Y0384613D03*
X0296707Y0386187D03*
X0296707Y0387762D03*
X0296707Y0389337D03*
X0296707Y0390912D03*
X0296707Y0392487D03*
X0303793Y0392487D03*
X0303793Y0390912D03*
X0303793Y0389337D03*
X0303793Y0387762D03*
X0303793Y0386187D03*
X0303793Y0384613D03*
X0303793Y0383038D03*
X0303793Y0381463D03*
X0303793Y0379888D03*
D55*
G36*
X0173452Y0376101D02*
X0167598Y0370247D01*
X0163970Y0373875D01*
X0169824Y0379729D01*
X0173452Y0376101D01*
G37*
G36*
X0167049Y0382504D02*
X0161195Y0376650D01*
X0157567Y0380278D01*
X0163421Y0386132D01*
X0167049Y0382504D01*
G37*
G36*
X0156748Y0372203D02*
X0150894Y0366349D01*
X0147266Y0369977D01*
X0153120Y0375831D01*
X0156748Y0372203D01*
G37*
G36*
X0163151Y0365800D02*
X0157297Y0359946D01*
X0153669Y0363574D01*
X0159523Y0369428D01*
X0163151Y0365800D01*
G37*
G36*
X0167049Y0160504D02*
X0161195Y0154650D01*
X0157567Y0158278D01*
X0163421Y0164132D01*
X0167049Y0160504D01*
G37*
G36*
X0173452Y0154101D02*
X0167598Y0148247D01*
X0163970Y0151875D01*
X0169824Y0157729D01*
X0173452Y0154101D01*
G37*
G36*
X0163151Y0143800D02*
X0157297Y0137946D01*
X0153669Y0141574D01*
X0159523Y0147428D01*
X0163151Y0143800D01*
G37*
G36*
X0156748Y0150203D02*
X0150894Y0144349D01*
X0147266Y0147977D01*
X0153120Y0153831D01*
X0156748Y0150203D01*
G37*
D56*
X0058250Y0237000D03*
X0058250Y0262000D03*
X0058250Y0459000D03*
X0405250Y0459000D03*
X0405250Y0262000D03*
X0405250Y0237000D03*
X0405250Y0040000D03*
X0058250Y0040000D03*
D57*
X0080726Y0051000D03*
X0080726Y0056000D03*
X0080726Y0061000D03*
X0080726Y0066000D03*
X0080726Y0071000D03*
X0080726Y0076000D03*
X0080726Y0081000D03*
X0080726Y0086000D03*
X0102774Y0086000D03*
X0102774Y0081000D03*
X0102774Y0076000D03*
X0102774Y0071000D03*
X0102774Y0066000D03*
X0102774Y0061000D03*
X0102774Y0056000D03*
X0102774Y0051000D03*
X0102774Y0273000D03*
X0102774Y0278000D03*
X0102774Y0283000D03*
X0102774Y0288000D03*
X0102774Y0293000D03*
X0102774Y0298000D03*
X0102774Y0303000D03*
X0102774Y0308000D03*
X0080726Y0308000D03*
X0080726Y0303000D03*
X0080726Y0298000D03*
X0080726Y0293000D03*
X0080726Y0288000D03*
X0080726Y0283000D03*
X0080726Y0278000D03*
X0080726Y0273000D03*
D58*
X0122450Y0272500D03*
X0122450Y0267500D03*
X0122450Y0262500D03*
X0122450Y0257500D03*
X0148050Y0257500D03*
X0148050Y0262500D03*
X0148050Y0267500D03*
X0148050Y0272500D03*
X0148050Y0050500D03*
X0148050Y0045500D03*
X0148050Y0040500D03*
X0148050Y0035500D03*
X0122450Y0035500D03*
X0122450Y0040500D03*
X0122450Y0045500D03*
X0122450Y0050500D03*
D59*
X0088185Y0020250D02*
X0088187Y0020369D01*
X0088193Y0020488D01*
X0088203Y0020607D01*
X0088217Y0020725D01*
X0088235Y0020843D01*
X0088256Y0020960D01*
X0088282Y0021076D01*
X0088312Y0021192D01*
X0088345Y0021306D01*
X0088382Y0021419D01*
X0088423Y0021531D01*
X0088468Y0021642D01*
X0088516Y0021751D01*
X0088568Y0021858D01*
X0088624Y0021963D01*
X0088683Y0022067D01*
X0088745Y0022168D01*
X0088811Y0022268D01*
X0088880Y0022365D01*
X0088952Y0022459D01*
X0089028Y0022552D01*
X0089106Y0022641D01*
X0089187Y0022728D01*
X0089272Y0022813D01*
X0089359Y0022894D01*
X0089448Y0022972D01*
X0089541Y0023048D01*
X0089635Y0023120D01*
X0089732Y0023189D01*
X0089832Y0023255D01*
X0089933Y0023317D01*
X0090037Y0023376D01*
X0090142Y0023432D01*
X0090249Y0023484D01*
X0090358Y0023532D01*
X0090469Y0023577D01*
X0090581Y0023618D01*
X0090694Y0023655D01*
X0090808Y0023688D01*
X0090924Y0023718D01*
X0091040Y0023744D01*
X0091157Y0023765D01*
X0091275Y0023783D01*
X0091393Y0023797D01*
X0091512Y0023807D01*
X0091631Y0023813D01*
X0091750Y0023815D01*
X0091869Y0023813D01*
X0091988Y0023807D01*
X0092107Y0023797D01*
X0092225Y0023783D01*
X0092343Y0023765D01*
X0092460Y0023744D01*
X0092576Y0023718D01*
X0092692Y0023688D01*
X0092806Y0023655D01*
X0092919Y0023618D01*
X0093031Y0023577D01*
X0093142Y0023532D01*
X0093251Y0023484D01*
X0093358Y0023432D01*
X0093463Y0023376D01*
X0093567Y0023317D01*
X0093668Y0023255D01*
X0093768Y0023189D01*
X0093865Y0023120D01*
X0093959Y0023048D01*
X0094052Y0022972D01*
X0094141Y0022894D01*
X0094228Y0022813D01*
X0094313Y0022728D01*
X0094394Y0022641D01*
X0094472Y0022552D01*
X0094548Y0022459D01*
X0094620Y0022365D01*
X0094689Y0022268D01*
X0094755Y0022168D01*
X0094817Y0022067D01*
X0094876Y0021963D01*
X0094932Y0021858D01*
X0094984Y0021751D01*
X0095032Y0021642D01*
X0095077Y0021531D01*
X0095118Y0021419D01*
X0095155Y0021306D01*
X0095188Y0021192D01*
X0095218Y0021076D01*
X0095244Y0020960D01*
X0095265Y0020843D01*
X0095283Y0020725D01*
X0095297Y0020607D01*
X0095307Y0020488D01*
X0095313Y0020369D01*
X0095315Y0020250D01*
X0095313Y0020131D01*
X0095307Y0020012D01*
X0095297Y0019893D01*
X0095283Y0019775D01*
X0095265Y0019657D01*
X0095244Y0019540D01*
X0095218Y0019424D01*
X0095188Y0019308D01*
X0095155Y0019194D01*
X0095118Y0019081D01*
X0095077Y0018969D01*
X0095032Y0018858D01*
X0094984Y0018749D01*
X0094932Y0018642D01*
X0094876Y0018537D01*
X0094817Y0018433D01*
X0094755Y0018332D01*
X0094689Y0018232D01*
X0094620Y0018135D01*
X0094548Y0018041D01*
X0094472Y0017948D01*
X0094394Y0017859D01*
X0094313Y0017772D01*
X0094228Y0017687D01*
X0094141Y0017606D01*
X0094052Y0017528D01*
X0093959Y0017452D01*
X0093865Y0017380D01*
X0093768Y0017311D01*
X0093668Y0017245D01*
X0093567Y0017183D01*
X0093463Y0017124D01*
X0093358Y0017068D01*
X0093251Y0017016D01*
X0093142Y0016968D01*
X0093031Y0016923D01*
X0092919Y0016882D01*
X0092806Y0016845D01*
X0092692Y0016812D01*
X0092576Y0016782D01*
X0092460Y0016756D01*
X0092343Y0016735D01*
X0092225Y0016717D01*
X0092107Y0016703D01*
X0091988Y0016693D01*
X0091869Y0016687D01*
X0091750Y0016685D01*
X0091631Y0016687D01*
X0091512Y0016693D01*
X0091393Y0016703D01*
X0091275Y0016717D01*
X0091157Y0016735D01*
X0091040Y0016756D01*
X0090924Y0016782D01*
X0090808Y0016812D01*
X0090694Y0016845D01*
X0090581Y0016882D01*
X0090469Y0016923D01*
X0090358Y0016968D01*
X0090249Y0017016D01*
X0090142Y0017068D01*
X0090037Y0017124D01*
X0089933Y0017183D01*
X0089832Y0017245D01*
X0089732Y0017311D01*
X0089635Y0017380D01*
X0089541Y0017452D01*
X0089448Y0017528D01*
X0089359Y0017606D01*
X0089272Y0017687D01*
X0089187Y0017772D01*
X0089106Y0017859D01*
X0089028Y0017948D01*
X0088952Y0018041D01*
X0088880Y0018135D01*
X0088811Y0018232D01*
X0088745Y0018332D01*
X0088683Y0018433D01*
X0088624Y0018537D01*
X0088568Y0018642D01*
X0088516Y0018749D01*
X0088468Y0018858D01*
X0088423Y0018969D01*
X0088382Y0019081D01*
X0088345Y0019194D01*
X0088312Y0019308D01*
X0088282Y0019424D01*
X0088256Y0019540D01*
X0088235Y0019657D01*
X0088217Y0019775D01*
X0088203Y0019893D01*
X0088193Y0020012D01*
X0088187Y0020131D01*
X0088185Y0020250D01*
D60*
X0091750Y0020250D03*
M02*
