G75*
%MOIN*%
%OFA0B0*%
%FSLAX25Y25*%
%IPPOS*%
%LPD*%
%AMOC8*
5,1,8,0,0,1.08239X$1,22.5*
%
%ADD10C,0.00000*%
%ADD11C,0.01100*%
%ADD12C,0.01500*%
%ADD13C,0.01000*%
%ADD14C,0.00079*%
D10*
X0046750Y0031500D02*
X0046750Y0245500D01*
X0046752Y0245607D01*
X0046758Y0245714D01*
X0046767Y0245821D01*
X0046781Y0245927D01*
X0046798Y0246033D01*
X0046819Y0246138D01*
X0046843Y0246242D01*
X0046872Y0246345D01*
X0046904Y0246447D01*
X0046939Y0246548D01*
X0046978Y0246648D01*
X0047021Y0246746D01*
X0047067Y0246843D01*
X0047117Y0246938D01*
X0047170Y0247031D01*
X0047226Y0247122D01*
X0047286Y0247211D01*
X0047348Y0247298D01*
X0047414Y0247382D01*
X0047483Y0247465D01*
X0047554Y0247544D01*
X0047629Y0247621D01*
X0047706Y0247696D01*
X0047785Y0247767D01*
X0047868Y0247836D01*
X0047952Y0247902D01*
X0048039Y0247964D01*
X0048128Y0248024D01*
X0048219Y0248080D01*
X0048312Y0248133D01*
X0048407Y0248183D01*
X0048504Y0248229D01*
X0048602Y0248272D01*
X0048702Y0248311D01*
X0048803Y0248346D01*
X0048905Y0248378D01*
X0049008Y0248407D01*
X0049112Y0248431D01*
X0049217Y0248452D01*
X0049323Y0248469D01*
X0049429Y0248483D01*
X0049536Y0248492D01*
X0049643Y0248498D01*
X0049750Y0248500D01*
X0413750Y0248500D01*
X0413750Y0250500D02*
X0049750Y0250500D01*
X0049643Y0250502D01*
X0049536Y0250508D01*
X0049429Y0250517D01*
X0049323Y0250531D01*
X0049217Y0250548D01*
X0049112Y0250569D01*
X0049008Y0250593D01*
X0048905Y0250622D01*
X0048803Y0250654D01*
X0048702Y0250689D01*
X0048602Y0250728D01*
X0048504Y0250771D01*
X0048407Y0250817D01*
X0048312Y0250867D01*
X0048219Y0250920D01*
X0048128Y0250976D01*
X0048039Y0251036D01*
X0047952Y0251098D01*
X0047868Y0251164D01*
X0047785Y0251233D01*
X0047706Y0251304D01*
X0047629Y0251379D01*
X0047554Y0251456D01*
X0047483Y0251535D01*
X0047414Y0251618D01*
X0047348Y0251702D01*
X0047286Y0251789D01*
X0047226Y0251878D01*
X0047170Y0251969D01*
X0047117Y0252062D01*
X0047067Y0252157D01*
X0047021Y0252254D01*
X0046978Y0252352D01*
X0046939Y0252452D01*
X0046904Y0252553D01*
X0046872Y0252655D01*
X0046843Y0252758D01*
X0046819Y0252862D01*
X0046798Y0252967D01*
X0046781Y0253073D01*
X0046767Y0253179D01*
X0046758Y0253286D01*
X0046752Y0253393D01*
X0046750Y0253500D01*
X0046750Y0467500D01*
X0046752Y0467607D01*
X0046758Y0467714D01*
X0046767Y0467821D01*
X0046781Y0467927D01*
X0046798Y0468033D01*
X0046819Y0468138D01*
X0046843Y0468242D01*
X0046872Y0468345D01*
X0046904Y0468447D01*
X0046939Y0468548D01*
X0046978Y0468648D01*
X0047021Y0468746D01*
X0047067Y0468843D01*
X0047117Y0468938D01*
X0047170Y0469031D01*
X0047226Y0469122D01*
X0047286Y0469211D01*
X0047348Y0469298D01*
X0047414Y0469382D01*
X0047483Y0469465D01*
X0047554Y0469544D01*
X0047629Y0469621D01*
X0047706Y0469696D01*
X0047785Y0469767D01*
X0047868Y0469836D01*
X0047952Y0469902D01*
X0048039Y0469964D01*
X0048128Y0470024D01*
X0048219Y0470080D01*
X0048312Y0470133D01*
X0048407Y0470183D01*
X0048504Y0470229D01*
X0048602Y0470272D01*
X0048702Y0470311D01*
X0048803Y0470346D01*
X0048905Y0470378D01*
X0049008Y0470407D01*
X0049112Y0470431D01*
X0049217Y0470452D01*
X0049323Y0470469D01*
X0049429Y0470483D01*
X0049536Y0470492D01*
X0049643Y0470498D01*
X0049750Y0470500D01*
X0413750Y0470500D01*
X0413857Y0470498D01*
X0413964Y0470492D01*
X0414071Y0470483D01*
X0414177Y0470469D01*
X0414283Y0470452D01*
X0414388Y0470431D01*
X0414492Y0470407D01*
X0414595Y0470378D01*
X0414697Y0470346D01*
X0414798Y0470311D01*
X0414898Y0470272D01*
X0414996Y0470229D01*
X0415093Y0470183D01*
X0415188Y0470133D01*
X0415281Y0470080D01*
X0415372Y0470024D01*
X0415461Y0469964D01*
X0415548Y0469902D01*
X0415632Y0469836D01*
X0415715Y0469767D01*
X0415794Y0469696D01*
X0415871Y0469621D01*
X0415946Y0469544D01*
X0416017Y0469465D01*
X0416086Y0469382D01*
X0416152Y0469298D01*
X0416214Y0469211D01*
X0416274Y0469122D01*
X0416330Y0469031D01*
X0416383Y0468938D01*
X0416433Y0468843D01*
X0416479Y0468746D01*
X0416522Y0468648D01*
X0416561Y0468548D01*
X0416596Y0468447D01*
X0416628Y0468345D01*
X0416657Y0468242D01*
X0416681Y0468138D01*
X0416702Y0468033D01*
X0416719Y0467927D01*
X0416733Y0467821D01*
X0416742Y0467714D01*
X0416748Y0467607D01*
X0416750Y0467500D01*
X0416750Y0410000D01*
X0416748Y0409924D01*
X0416742Y0409848D01*
X0416733Y0409773D01*
X0416719Y0409698D01*
X0416702Y0409624D01*
X0416681Y0409551D01*
X0416657Y0409479D01*
X0416628Y0409408D01*
X0416597Y0409339D01*
X0416562Y0409272D01*
X0416523Y0409207D01*
X0416481Y0409143D01*
X0416436Y0409082D01*
X0416388Y0409023D01*
X0416337Y0408967D01*
X0416283Y0408913D01*
X0416227Y0408862D01*
X0416168Y0408814D01*
X0416107Y0408769D01*
X0416043Y0408727D01*
X0415978Y0408688D01*
X0415911Y0408653D01*
X0415842Y0408622D01*
X0415771Y0408593D01*
X0415699Y0408569D01*
X0415626Y0408548D01*
X0415552Y0408531D01*
X0415477Y0408517D01*
X0415402Y0408508D01*
X0415326Y0408502D01*
X0415250Y0408500D01*
X0415057Y0408486D01*
X0414864Y0408467D01*
X0414672Y0408443D01*
X0414480Y0408415D01*
X0414289Y0408382D01*
X0414099Y0408344D01*
X0413910Y0408302D01*
X0413722Y0408255D01*
X0413535Y0408204D01*
X0413350Y0408148D01*
X0413166Y0408088D01*
X0412983Y0408023D01*
X0412802Y0407954D01*
X0412623Y0407881D01*
X0412445Y0407803D01*
X0412270Y0407721D01*
X0412097Y0407635D01*
X0411925Y0407545D01*
X0411756Y0407450D01*
X0411589Y0407352D01*
X0411425Y0407249D01*
X0411263Y0407143D01*
X0411104Y0407032D01*
X0410947Y0406918D01*
X0410794Y0406800D01*
X0410643Y0406679D01*
X0410495Y0406553D01*
X0410350Y0406425D01*
X0410209Y0406292D01*
X0410070Y0406157D01*
X0409935Y0406018D01*
X0409804Y0405876D01*
X0409676Y0405731D01*
X0409551Y0405582D01*
X0409430Y0405431D01*
X0409313Y0405277D01*
X0409199Y0405120D01*
X0409089Y0404960D01*
X0408984Y0404798D01*
X0408882Y0404633D01*
X0408784Y0404466D01*
X0408690Y0404297D01*
X0408600Y0404125D01*
X0408515Y0403951D01*
X0408434Y0403775D01*
X0408357Y0403597D01*
X0408284Y0403418D01*
X0408216Y0403237D01*
X0408152Y0403054D01*
X0408092Y0402869D01*
X0408037Y0402684D01*
X0407987Y0402497D01*
X0407941Y0402309D01*
X0407899Y0402119D01*
X0407862Y0401929D01*
X0407830Y0401738D01*
X0407803Y0401546D01*
X0407780Y0401354D01*
X0407761Y0401161D01*
X0407748Y0400968D01*
X0407739Y0400774D01*
X0407734Y0400581D01*
X0407735Y0400387D01*
X0407740Y0400193D01*
X0407750Y0400000D01*
X0407750Y0361500D01*
X0407759Y0361310D01*
X0407772Y0361120D01*
X0407789Y0360931D01*
X0407812Y0360742D01*
X0407839Y0360553D01*
X0407871Y0360366D01*
X0407907Y0360179D01*
X0407948Y0359993D01*
X0407993Y0359808D01*
X0408043Y0359624D01*
X0408097Y0359442D01*
X0408156Y0359261D01*
X0408220Y0359082D01*
X0408287Y0358904D01*
X0408359Y0358728D01*
X0408436Y0358553D01*
X0408516Y0358381D01*
X0408601Y0358210D01*
X0408690Y0358042D01*
X0408783Y0357876D01*
X0408880Y0357713D01*
X0408981Y0357551D01*
X0409086Y0357393D01*
X0409195Y0357236D01*
X0409308Y0357083D01*
X0409424Y0356933D01*
X0409544Y0356785D01*
X0409668Y0356640D01*
X0409795Y0356499D01*
X0409926Y0356360D01*
X0410059Y0356225D01*
X0410197Y0356093D01*
X0410337Y0355965D01*
X0410481Y0355840D01*
X0410627Y0355718D01*
X0410777Y0355601D01*
X0410929Y0355487D01*
X0411084Y0355376D01*
X0411242Y0355270D01*
X0411402Y0355167D01*
X0411565Y0355069D01*
X0411730Y0354974D01*
X0411898Y0354884D01*
X0412067Y0354797D01*
X0412239Y0354715D01*
X0412412Y0354637D01*
X0412588Y0354564D01*
X0412765Y0354494D01*
X0412944Y0354429D01*
X0413124Y0354369D01*
X0413306Y0354313D01*
X0413490Y0354261D01*
X0413674Y0354214D01*
X0413859Y0354172D01*
X0414046Y0354134D01*
X0414233Y0354100D01*
X0414421Y0354071D01*
X0414610Y0354047D01*
X0414799Y0354028D01*
X0414989Y0354013D01*
X0415179Y0354003D01*
X0415369Y0353997D01*
X0415560Y0353996D01*
X0415750Y0354000D01*
X0415810Y0353998D01*
X0415871Y0353993D01*
X0415930Y0353984D01*
X0415989Y0353971D01*
X0416048Y0353955D01*
X0416105Y0353935D01*
X0416160Y0353912D01*
X0416215Y0353885D01*
X0416267Y0353856D01*
X0416318Y0353823D01*
X0416367Y0353787D01*
X0416413Y0353749D01*
X0416457Y0353707D01*
X0416499Y0353663D01*
X0416537Y0353617D01*
X0416573Y0353568D01*
X0416606Y0353517D01*
X0416635Y0353465D01*
X0416662Y0353410D01*
X0416685Y0353355D01*
X0416705Y0353298D01*
X0416721Y0353239D01*
X0416734Y0353180D01*
X0416743Y0353121D01*
X0416748Y0353060D01*
X0416750Y0353000D01*
X0416750Y0253500D01*
X0416748Y0253393D01*
X0416742Y0253286D01*
X0416733Y0253179D01*
X0416719Y0253073D01*
X0416702Y0252967D01*
X0416681Y0252862D01*
X0416657Y0252758D01*
X0416628Y0252655D01*
X0416596Y0252553D01*
X0416561Y0252452D01*
X0416522Y0252352D01*
X0416479Y0252254D01*
X0416433Y0252157D01*
X0416383Y0252062D01*
X0416330Y0251969D01*
X0416274Y0251878D01*
X0416214Y0251789D01*
X0416152Y0251702D01*
X0416086Y0251618D01*
X0416017Y0251535D01*
X0415946Y0251456D01*
X0415871Y0251379D01*
X0415794Y0251304D01*
X0415715Y0251233D01*
X0415632Y0251164D01*
X0415548Y0251098D01*
X0415461Y0251036D01*
X0415372Y0250976D01*
X0415281Y0250920D01*
X0415188Y0250867D01*
X0415093Y0250817D01*
X0414996Y0250771D01*
X0414898Y0250728D01*
X0414798Y0250689D01*
X0414697Y0250654D01*
X0414595Y0250622D01*
X0414492Y0250593D01*
X0414388Y0250569D01*
X0414283Y0250548D01*
X0414177Y0250531D01*
X0414071Y0250517D01*
X0413964Y0250508D01*
X0413857Y0250502D01*
X0413750Y0250500D01*
X0413750Y0248500D02*
X0413857Y0248498D01*
X0413964Y0248492D01*
X0414071Y0248483D01*
X0414177Y0248469D01*
X0414283Y0248452D01*
X0414388Y0248431D01*
X0414492Y0248407D01*
X0414595Y0248378D01*
X0414697Y0248346D01*
X0414798Y0248311D01*
X0414898Y0248272D01*
X0414996Y0248229D01*
X0415093Y0248183D01*
X0415188Y0248133D01*
X0415281Y0248080D01*
X0415372Y0248024D01*
X0415461Y0247964D01*
X0415548Y0247902D01*
X0415632Y0247836D01*
X0415715Y0247767D01*
X0415794Y0247696D01*
X0415871Y0247621D01*
X0415946Y0247544D01*
X0416017Y0247465D01*
X0416086Y0247382D01*
X0416152Y0247298D01*
X0416214Y0247211D01*
X0416274Y0247122D01*
X0416330Y0247031D01*
X0416383Y0246938D01*
X0416433Y0246843D01*
X0416479Y0246746D01*
X0416522Y0246648D01*
X0416561Y0246548D01*
X0416596Y0246447D01*
X0416628Y0246345D01*
X0416657Y0246242D01*
X0416681Y0246138D01*
X0416702Y0246033D01*
X0416719Y0245927D01*
X0416733Y0245821D01*
X0416742Y0245714D01*
X0416748Y0245607D01*
X0416750Y0245500D01*
X0416750Y0188000D01*
X0416748Y0187924D01*
X0416742Y0187848D01*
X0416733Y0187773D01*
X0416719Y0187698D01*
X0416702Y0187624D01*
X0416681Y0187551D01*
X0416657Y0187479D01*
X0416628Y0187408D01*
X0416597Y0187339D01*
X0416562Y0187272D01*
X0416523Y0187207D01*
X0416481Y0187143D01*
X0416436Y0187082D01*
X0416388Y0187023D01*
X0416337Y0186967D01*
X0416283Y0186913D01*
X0416227Y0186862D01*
X0416168Y0186814D01*
X0416107Y0186769D01*
X0416043Y0186727D01*
X0415978Y0186688D01*
X0415911Y0186653D01*
X0415842Y0186622D01*
X0415771Y0186593D01*
X0415699Y0186569D01*
X0415626Y0186548D01*
X0415552Y0186531D01*
X0415477Y0186517D01*
X0415402Y0186508D01*
X0415326Y0186502D01*
X0415250Y0186500D01*
X0415057Y0186486D01*
X0414864Y0186467D01*
X0414672Y0186443D01*
X0414480Y0186415D01*
X0414289Y0186382D01*
X0414099Y0186344D01*
X0413910Y0186302D01*
X0413722Y0186255D01*
X0413535Y0186204D01*
X0413350Y0186148D01*
X0413166Y0186088D01*
X0412983Y0186023D01*
X0412802Y0185954D01*
X0412623Y0185881D01*
X0412445Y0185803D01*
X0412270Y0185721D01*
X0412097Y0185635D01*
X0411925Y0185545D01*
X0411756Y0185450D01*
X0411589Y0185352D01*
X0411425Y0185249D01*
X0411263Y0185143D01*
X0411104Y0185032D01*
X0410947Y0184918D01*
X0410794Y0184800D01*
X0410643Y0184679D01*
X0410495Y0184553D01*
X0410350Y0184425D01*
X0410209Y0184292D01*
X0410070Y0184157D01*
X0409935Y0184018D01*
X0409804Y0183876D01*
X0409676Y0183731D01*
X0409551Y0183582D01*
X0409430Y0183431D01*
X0409313Y0183277D01*
X0409199Y0183120D01*
X0409089Y0182960D01*
X0408984Y0182798D01*
X0408882Y0182633D01*
X0408784Y0182466D01*
X0408690Y0182297D01*
X0408600Y0182125D01*
X0408515Y0181951D01*
X0408434Y0181775D01*
X0408357Y0181597D01*
X0408284Y0181418D01*
X0408216Y0181237D01*
X0408152Y0181054D01*
X0408092Y0180869D01*
X0408037Y0180684D01*
X0407987Y0180497D01*
X0407941Y0180309D01*
X0407899Y0180119D01*
X0407862Y0179929D01*
X0407830Y0179738D01*
X0407803Y0179546D01*
X0407780Y0179354D01*
X0407761Y0179161D01*
X0407748Y0178968D01*
X0407739Y0178774D01*
X0407734Y0178581D01*
X0407735Y0178387D01*
X0407740Y0178193D01*
X0407750Y0178000D01*
X0407750Y0139500D01*
X0407759Y0139310D01*
X0407772Y0139120D01*
X0407789Y0138931D01*
X0407812Y0138742D01*
X0407839Y0138553D01*
X0407871Y0138366D01*
X0407907Y0138179D01*
X0407948Y0137993D01*
X0407993Y0137808D01*
X0408043Y0137624D01*
X0408097Y0137442D01*
X0408156Y0137261D01*
X0408220Y0137082D01*
X0408287Y0136904D01*
X0408359Y0136728D01*
X0408436Y0136553D01*
X0408516Y0136381D01*
X0408601Y0136210D01*
X0408690Y0136042D01*
X0408783Y0135876D01*
X0408880Y0135713D01*
X0408981Y0135551D01*
X0409086Y0135393D01*
X0409195Y0135236D01*
X0409308Y0135083D01*
X0409424Y0134933D01*
X0409544Y0134785D01*
X0409668Y0134640D01*
X0409795Y0134499D01*
X0409926Y0134360D01*
X0410059Y0134225D01*
X0410197Y0134093D01*
X0410337Y0133965D01*
X0410481Y0133840D01*
X0410627Y0133718D01*
X0410777Y0133601D01*
X0410929Y0133487D01*
X0411084Y0133376D01*
X0411242Y0133270D01*
X0411402Y0133167D01*
X0411565Y0133069D01*
X0411730Y0132974D01*
X0411898Y0132884D01*
X0412067Y0132797D01*
X0412239Y0132715D01*
X0412412Y0132637D01*
X0412588Y0132564D01*
X0412765Y0132494D01*
X0412944Y0132429D01*
X0413124Y0132369D01*
X0413306Y0132313D01*
X0413490Y0132261D01*
X0413674Y0132214D01*
X0413859Y0132172D01*
X0414046Y0132134D01*
X0414233Y0132100D01*
X0414421Y0132071D01*
X0414610Y0132047D01*
X0414799Y0132028D01*
X0414989Y0132013D01*
X0415179Y0132003D01*
X0415369Y0131997D01*
X0415560Y0131996D01*
X0415750Y0132000D01*
X0415810Y0131998D01*
X0415871Y0131993D01*
X0415930Y0131984D01*
X0415989Y0131971D01*
X0416048Y0131955D01*
X0416105Y0131935D01*
X0416160Y0131912D01*
X0416215Y0131885D01*
X0416267Y0131856D01*
X0416318Y0131823D01*
X0416367Y0131787D01*
X0416413Y0131749D01*
X0416457Y0131707D01*
X0416499Y0131663D01*
X0416537Y0131617D01*
X0416573Y0131568D01*
X0416606Y0131517D01*
X0416635Y0131465D01*
X0416662Y0131410D01*
X0416685Y0131355D01*
X0416705Y0131298D01*
X0416721Y0131239D01*
X0416734Y0131180D01*
X0416743Y0131121D01*
X0416748Y0131060D01*
X0416750Y0131000D01*
X0416750Y0031500D01*
X0416748Y0031393D01*
X0416742Y0031286D01*
X0416733Y0031179D01*
X0416719Y0031073D01*
X0416702Y0030967D01*
X0416681Y0030862D01*
X0416657Y0030758D01*
X0416628Y0030655D01*
X0416596Y0030553D01*
X0416561Y0030452D01*
X0416522Y0030352D01*
X0416479Y0030254D01*
X0416433Y0030157D01*
X0416383Y0030062D01*
X0416330Y0029969D01*
X0416274Y0029878D01*
X0416214Y0029789D01*
X0416152Y0029702D01*
X0416086Y0029618D01*
X0416017Y0029535D01*
X0415946Y0029456D01*
X0415871Y0029379D01*
X0415794Y0029304D01*
X0415715Y0029233D01*
X0415632Y0029164D01*
X0415548Y0029098D01*
X0415461Y0029036D01*
X0415372Y0028976D01*
X0415281Y0028920D01*
X0415188Y0028867D01*
X0415093Y0028817D01*
X0414996Y0028771D01*
X0414898Y0028728D01*
X0414798Y0028689D01*
X0414697Y0028654D01*
X0414595Y0028622D01*
X0414492Y0028593D01*
X0414388Y0028569D01*
X0414283Y0028548D01*
X0414177Y0028531D01*
X0414071Y0028517D01*
X0413964Y0028508D01*
X0413857Y0028502D01*
X0413750Y0028500D01*
X0049750Y0028500D01*
X0049643Y0028502D01*
X0049536Y0028508D01*
X0049429Y0028517D01*
X0049323Y0028531D01*
X0049217Y0028548D01*
X0049112Y0028569D01*
X0049008Y0028593D01*
X0048905Y0028622D01*
X0048803Y0028654D01*
X0048702Y0028689D01*
X0048602Y0028728D01*
X0048504Y0028771D01*
X0048407Y0028817D01*
X0048312Y0028867D01*
X0048219Y0028920D01*
X0048128Y0028976D01*
X0048039Y0029036D01*
X0047952Y0029098D01*
X0047868Y0029164D01*
X0047785Y0029233D01*
X0047706Y0029304D01*
X0047629Y0029379D01*
X0047554Y0029456D01*
X0047483Y0029535D01*
X0047414Y0029618D01*
X0047348Y0029702D01*
X0047286Y0029789D01*
X0047226Y0029878D01*
X0047170Y0029969D01*
X0047117Y0030062D01*
X0047067Y0030157D01*
X0047021Y0030254D01*
X0046978Y0030352D01*
X0046939Y0030452D01*
X0046904Y0030553D01*
X0046872Y0030655D01*
X0046843Y0030758D01*
X0046819Y0030862D01*
X0046798Y0030967D01*
X0046781Y0031073D01*
X0046767Y0031179D01*
X0046758Y0031286D01*
X0046752Y0031393D01*
X0046750Y0031500D01*
X0051750Y0040000D02*
X0051752Y0040161D01*
X0051758Y0040321D01*
X0051768Y0040482D01*
X0051782Y0040642D01*
X0051800Y0040802D01*
X0051821Y0040961D01*
X0051847Y0041120D01*
X0051877Y0041278D01*
X0051910Y0041435D01*
X0051948Y0041592D01*
X0051989Y0041747D01*
X0052034Y0041901D01*
X0052083Y0042054D01*
X0052136Y0042206D01*
X0052192Y0042357D01*
X0052253Y0042506D01*
X0052316Y0042654D01*
X0052384Y0042800D01*
X0052455Y0042944D01*
X0052529Y0043086D01*
X0052607Y0043227D01*
X0052689Y0043365D01*
X0052774Y0043502D01*
X0052862Y0043636D01*
X0052954Y0043768D01*
X0053049Y0043898D01*
X0053147Y0044026D01*
X0053248Y0044151D01*
X0053352Y0044273D01*
X0053459Y0044393D01*
X0053569Y0044510D01*
X0053682Y0044625D01*
X0053798Y0044736D01*
X0053917Y0044845D01*
X0054038Y0044950D01*
X0054162Y0045053D01*
X0054288Y0045153D01*
X0054416Y0045249D01*
X0054547Y0045342D01*
X0054681Y0045432D01*
X0054816Y0045519D01*
X0054954Y0045602D01*
X0055093Y0045682D01*
X0055235Y0045758D01*
X0055378Y0045831D01*
X0055523Y0045900D01*
X0055670Y0045966D01*
X0055818Y0046028D01*
X0055968Y0046086D01*
X0056119Y0046141D01*
X0056272Y0046192D01*
X0056426Y0046239D01*
X0056581Y0046282D01*
X0056737Y0046321D01*
X0056893Y0046357D01*
X0057051Y0046388D01*
X0057209Y0046416D01*
X0057368Y0046440D01*
X0057528Y0046460D01*
X0057688Y0046476D01*
X0057848Y0046488D01*
X0058009Y0046496D01*
X0058170Y0046500D01*
X0058330Y0046500D01*
X0058491Y0046496D01*
X0058652Y0046488D01*
X0058812Y0046476D01*
X0058972Y0046460D01*
X0059132Y0046440D01*
X0059291Y0046416D01*
X0059449Y0046388D01*
X0059607Y0046357D01*
X0059763Y0046321D01*
X0059919Y0046282D01*
X0060074Y0046239D01*
X0060228Y0046192D01*
X0060381Y0046141D01*
X0060532Y0046086D01*
X0060682Y0046028D01*
X0060830Y0045966D01*
X0060977Y0045900D01*
X0061122Y0045831D01*
X0061265Y0045758D01*
X0061407Y0045682D01*
X0061546Y0045602D01*
X0061684Y0045519D01*
X0061819Y0045432D01*
X0061953Y0045342D01*
X0062084Y0045249D01*
X0062212Y0045153D01*
X0062338Y0045053D01*
X0062462Y0044950D01*
X0062583Y0044845D01*
X0062702Y0044736D01*
X0062818Y0044625D01*
X0062931Y0044510D01*
X0063041Y0044393D01*
X0063148Y0044273D01*
X0063252Y0044151D01*
X0063353Y0044026D01*
X0063451Y0043898D01*
X0063546Y0043768D01*
X0063638Y0043636D01*
X0063726Y0043502D01*
X0063811Y0043365D01*
X0063893Y0043227D01*
X0063971Y0043086D01*
X0064045Y0042944D01*
X0064116Y0042800D01*
X0064184Y0042654D01*
X0064247Y0042506D01*
X0064308Y0042357D01*
X0064364Y0042206D01*
X0064417Y0042054D01*
X0064466Y0041901D01*
X0064511Y0041747D01*
X0064552Y0041592D01*
X0064590Y0041435D01*
X0064623Y0041278D01*
X0064653Y0041120D01*
X0064679Y0040961D01*
X0064700Y0040802D01*
X0064718Y0040642D01*
X0064732Y0040482D01*
X0064742Y0040321D01*
X0064748Y0040161D01*
X0064750Y0040000D01*
X0064748Y0039839D01*
X0064742Y0039679D01*
X0064732Y0039518D01*
X0064718Y0039358D01*
X0064700Y0039198D01*
X0064679Y0039039D01*
X0064653Y0038880D01*
X0064623Y0038722D01*
X0064590Y0038565D01*
X0064552Y0038408D01*
X0064511Y0038253D01*
X0064466Y0038099D01*
X0064417Y0037946D01*
X0064364Y0037794D01*
X0064308Y0037643D01*
X0064247Y0037494D01*
X0064184Y0037346D01*
X0064116Y0037200D01*
X0064045Y0037056D01*
X0063971Y0036914D01*
X0063893Y0036773D01*
X0063811Y0036635D01*
X0063726Y0036498D01*
X0063638Y0036364D01*
X0063546Y0036232D01*
X0063451Y0036102D01*
X0063353Y0035974D01*
X0063252Y0035849D01*
X0063148Y0035727D01*
X0063041Y0035607D01*
X0062931Y0035490D01*
X0062818Y0035375D01*
X0062702Y0035264D01*
X0062583Y0035155D01*
X0062462Y0035050D01*
X0062338Y0034947D01*
X0062212Y0034847D01*
X0062084Y0034751D01*
X0061953Y0034658D01*
X0061819Y0034568D01*
X0061684Y0034481D01*
X0061546Y0034398D01*
X0061407Y0034318D01*
X0061265Y0034242D01*
X0061122Y0034169D01*
X0060977Y0034100D01*
X0060830Y0034034D01*
X0060682Y0033972D01*
X0060532Y0033914D01*
X0060381Y0033859D01*
X0060228Y0033808D01*
X0060074Y0033761D01*
X0059919Y0033718D01*
X0059763Y0033679D01*
X0059607Y0033643D01*
X0059449Y0033612D01*
X0059291Y0033584D01*
X0059132Y0033560D01*
X0058972Y0033540D01*
X0058812Y0033524D01*
X0058652Y0033512D01*
X0058491Y0033504D01*
X0058330Y0033500D01*
X0058170Y0033500D01*
X0058009Y0033504D01*
X0057848Y0033512D01*
X0057688Y0033524D01*
X0057528Y0033540D01*
X0057368Y0033560D01*
X0057209Y0033584D01*
X0057051Y0033612D01*
X0056893Y0033643D01*
X0056737Y0033679D01*
X0056581Y0033718D01*
X0056426Y0033761D01*
X0056272Y0033808D01*
X0056119Y0033859D01*
X0055968Y0033914D01*
X0055818Y0033972D01*
X0055670Y0034034D01*
X0055523Y0034100D01*
X0055378Y0034169D01*
X0055235Y0034242D01*
X0055093Y0034318D01*
X0054954Y0034398D01*
X0054816Y0034481D01*
X0054681Y0034568D01*
X0054547Y0034658D01*
X0054416Y0034751D01*
X0054288Y0034847D01*
X0054162Y0034947D01*
X0054038Y0035050D01*
X0053917Y0035155D01*
X0053798Y0035264D01*
X0053682Y0035375D01*
X0053569Y0035490D01*
X0053459Y0035607D01*
X0053352Y0035727D01*
X0053248Y0035849D01*
X0053147Y0035974D01*
X0053049Y0036102D01*
X0052954Y0036232D01*
X0052862Y0036364D01*
X0052774Y0036498D01*
X0052689Y0036635D01*
X0052607Y0036773D01*
X0052529Y0036914D01*
X0052455Y0037056D01*
X0052384Y0037200D01*
X0052316Y0037346D01*
X0052253Y0037494D01*
X0052192Y0037643D01*
X0052136Y0037794D01*
X0052083Y0037946D01*
X0052034Y0038099D01*
X0051989Y0038253D01*
X0051948Y0038408D01*
X0051910Y0038565D01*
X0051877Y0038722D01*
X0051847Y0038880D01*
X0051821Y0039039D01*
X0051800Y0039198D01*
X0051782Y0039358D01*
X0051768Y0039518D01*
X0051758Y0039679D01*
X0051752Y0039839D01*
X0051750Y0040000D01*
X0051750Y0237000D02*
X0051752Y0237161D01*
X0051758Y0237321D01*
X0051768Y0237482D01*
X0051782Y0237642D01*
X0051800Y0237802D01*
X0051821Y0237961D01*
X0051847Y0238120D01*
X0051877Y0238278D01*
X0051910Y0238435D01*
X0051948Y0238592D01*
X0051989Y0238747D01*
X0052034Y0238901D01*
X0052083Y0239054D01*
X0052136Y0239206D01*
X0052192Y0239357D01*
X0052253Y0239506D01*
X0052316Y0239654D01*
X0052384Y0239800D01*
X0052455Y0239944D01*
X0052529Y0240086D01*
X0052607Y0240227D01*
X0052689Y0240365D01*
X0052774Y0240502D01*
X0052862Y0240636D01*
X0052954Y0240768D01*
X0053049Y0240898D01*
X0053147Y0241026D01*
X0053248Y0241151D01*
X0053352Y0241273D01*
X0053459Y0241393D01*
X0053569Y0241510D01*
X0053682Y0241625D01*
X0053798Y0241736D01*
X0053917Y0241845D01*
X0054038Y0241950D01*
X0054162Y0242053D01*
X0054288Y0242153D01*
X0054416Y0242249D01*
X0054547Y0242342D01*
X0054681Y0242432D01*
X0054816Y0242519D01*
X0054954Y0242602D01*
X0055093Y0242682D01*
X0055235Y0242758D01*
X0055378Y0242831D01*
X0055523Y0242900D01*
X0055670Y0242966D01*
X0055818Y0243028D01*
X0055968Y0243086D01*
X0056119Y0243141D01*
X0056272Y0243192D01*
X0056426Y0243239D01*
X0056581Y0243282D01*
X0056737Y0243321D01*
X0056893Y0243357D01*
X0057051Y0243388D01*
X0057209Y0243416D01*
X0057368Y0243440D01*
X0057528Y0243460D01*
X0057688Y0243476D01*
X0057848Y0243488D01*
X0058009Y0243496D01*
X0058170Y0243500D01*
X0058330Y0243500D01*
X0058491Y0243496D01*
X0058652Y0243488D01*
X0058812Y0243476D01*
X0058972Y0243460D01*
X0059132Y0243440D01*
X0059291Y0243416D01*
X0059449Y0243388D01*
X0059607Y0243357D01*
X0059763Y0243321D01*
X0059919Y0243282D01*
X0060074Y0243239D01*
X0060228Y0243192D01*
X0060381Y0243141D01*
X0060532Y0243086D01*
X0060682Y0243028D01*
X0060830Y0242966D01*
X0060977Y0242900D01*
X0061122Y0242831D01*
X0061265Y0242758D01*
X0061407Y0242682D01*
X0061546Y0242602D01*
X0061684Y0242519D01*
X0061819Y0242432D01*
X0061953Y0242342D01*
X0062084Y0242249D01*
X0062212Y0242153D01*
X0062338Y0242053D01*
X0062462Y0241950D01*
X0062583Y0241845D01*
X0062702Y0241736D01*
X0062818Y0241625D01*
X0062931Y0241510D01*
X0063041Y0241393D01*
X0063148Y0241273D01*
X0063252Y0241151D01*
X0063353Y0241026D01*
X0063451Y0240898D01*
X0063546Y0240768D01*
X0063638Y0240636D01*
X0063726Y0240502D01*
X0063811Y0240365D01*
X0063893Y0240227D01*
X0063971Y0240086D01*
X0064045Y0239944D01*
X0064116Y0239800D01*
X0064184Y0239654D01*
X0064247Y0239506D01*
X0064308Y0239357D01*
X0064364Y0239206D01*
X0064417Y0239054D01*
X0064466Y0238901D01*
X0064511Y0238747D01*
X0064552Y0238592D01*
X0064590Y0238435D01*
X0064623Y0238278D01*
X0064653Y0238120D01*
X0064679Y0237961D01*
X0064700Y0237802D01*
X0064718Y0237642D01*
X0064732Y0237482D01*
X0064742Y0237321D01*
X0064748Y0237161D01*
X0064750Y0237000D01*
X0064748Y0236839D01*
X0064742Y0236679D01*
X0064732Y0236518D01*
X0064718Y0236358D01*
X0064700Y0236198D01*
X0064679Y0236039D01*
X0064653Y0235880D01*
X0064623Y0235722D01*
X0064590Y0235565D01*
X0064552Y0235408D01*
X0064511Y0235253D01*
X0064466Y0235099D01*
X0064417Y0234946D01*
X0064364Y0234794D01*
X0064308Y0234643D01*
X0064247Y0234494D01*
X0064184Y0234346D01*
X0064116Y0234200D01*
X0064045Y0234056D01*
X0063971Y0233914D01*
X0063893Y0233773D01*
X0063811Y0233635D01*
X0063726Y0233498D01*
X0063638Y0233364D01*
X0063546Y0233232D01*
X0063451Y0233102D01*
X0063353Y0232974D01*
X0063252Y0232849D01*
X0063148Y0232727D01*
X0063041Y0232607D01*
X0062931Y0232490D01*
X0062818Y0232375D01*
X0062702Y0232264D01*
X0062583Y0232155D01*
X0062462Y0232050D01*
X0062338Y0231947D01*
X0062212Y0231847D01*
X0062084Y0231751D01*
X0061953Y0231658D01*
X0061819Y0231568D01*
X0061684Y0231481D01*
X0061546Y0231398D01*
X0061407Y0231318D01*
X0061265Y0231242D01*
X0061122Y0231169D01*
X0060977Y0231100D01*
X0060830Y0231034D01*
X0060682Y0230972D01*
X0060532Y0230914D01*
X0060381Y0230859D01*
X0060228Y0230808D01*
X0060074Y0230761D01*
X0059919Y0230718D01*
X0059763Y0230679D01*
X0059607Y0230643D01*
X0059449Y0230612D01*
X0059291Y0230584D01*
X0059132Y0230560D01*
X0058972Y0230540D01*
X0058812Y0230524D01*
X0058652Y0230512D01*
X0058491Y0230504D01*
X0058330Y0230500D01*
X0058170Y0230500D01*
X0058009Y0230504D01*
X0057848Y0230512D01*
X0057688Y0230524D01*
X0057528Y0230540D01*
X0057368Y0230560D01*
X0057209Y0230584D01*
X0057051Y0230612D01*
X0056893Y0230643D01*
X0056737Y0230679D01*
X0056581Y0230718D01*
X0056426Y0230761D01*
X0056272Y0230808D01*
X0056119Y0230859D01*
X0055968Y0230914D01*
X0055818Y0230972D01*
X0055670Y0231034D01*
X0055523Y0231100D01*
X0055378Y0231169D01*
X0055235Y0231242D01*
X0055093Y0231318D01*
X0054954Y0231398D01*
X0054816Y0231481D01*
X0054681Y0231568D01*
X0054547Y0231658D01*
X0054416Y0231751D01*
X0054288Y0231847D01*
X0054162Y0231947D01*
X0054038Y0232050D01*
X0053917Y0232155D01*
X0053798Y0232264D01*
X0053682Y0232375D01*
X0053569Y0232490D01*
X0053459Y0232607D01*
X0053352Y0232727D01*
X0053248Y0232849D01*
X0053147Y0232974D01*
X0053049Y0233102D01*
X0052954Y0233232D01*
X0052862Y0233364D01*
X0052774Y0233498D01*
X0052689Y0233635D01*
X0052607Y0233773D01*
X0052529Y0233914D01*
X0052455Y0234056D01*
X0052384Y0234200D01*
X0052316Y0234346D01*
X0052253Y0234494D01*
X0052192Y0234643D01*
X0052136Y0234794D01*
X0052083Y0234946D01*
X0052034Y0235099D01*
X0051989Y0235253D01*
X0051948Y0235408D01*
X0051910Y0235565D01*
X0051877Y0235722D01*
X0051847Y0235880D01*
X0051821Y0236039D01*
X0051800Y0236198D01*
X0051782Y0236358D01*
X0051768Y0236518D01*
X0051758Y0236679D01*
X0051752Y0236839D01*
X0051750Y0237000D01*
X0051750Y0262000D02*
X0051752Y0262161D01*
X0051758Y0262321D01*
X0051768Y0262482D01*
X0051782Y0262642D01*
X0051800Y0262802D01*
X0051821Y0262961D01*
X0051847Y0263120D01*
X0051877Y0263278D01*
X0051910Y0263435D01*
X0051948Y0263592D01*
X0051989Y0263747D01*
X0052034Y0263901D01*
X0052083Y0264054D01*
X0052136Y0264206D01*
X0052192Y0264357D01*
X0052253Y0264506D01*
X0052316Y0264654D01*
X0052384Y0264800D01*
X0052455Y0264944D01*
X0052529Y0265086D01*
X0052607Y0265227D01*
X0052689Y0265365D01*
X0052774Y0265502D01*
X0052862Y0265636D01*
X0052954Y0265768D01*
X0053049Y0265898D01*
X0053147Y0266026D01*
X0053248Y0266151D01*
X0053352Y0266273D01*
X0053459Y0266393D01*
X0053569Y0266510D01*
X0053682Y0266625D01*
X0053798Y0266736D01*
X0053917Y0266845D01*
X0054038Y0266950D01*
X0054162Y0267053D01*
X0054288Y0267153D01*
X0054416Y0267249D01*
X0054547Y0267342D01*
X0054681Y0267432D01*
X0054816Y0267519D01*
X0054954Y0267602D01*
X0055093Y0267682D01*
X0055235Y0267758D01*
X0055378Y0267831D01*
X0055523Y0267900D01*
X0055670Y0267966D01*
X0055818Y0268028D01*
X0055968Y0268086D01*
X0056119Y0268141D01*
X0056272Y0268192D01*
X0056426Y0268239D01*
X0056581Y0268282D01*
X0056737Y0268321D01*
X0056893Y0268357D01*
X0057051Y0268388D01*
X0057209Y0268416D01*
X0057368Y0268440D01*
X0057528Y0268460D01*
X0057688Y0268476D01*
X0057848Y0268488D01*
X0058009Y0268496D01*
X0058170Y0268500D01*
X0058330Y0268500D01*
X0058491Y0268496D01*
X0058652Y0268488D01*
X0058812Y0268476D01*
X0058972Y0268460D01*
X0059132Y0268440D01*
X0059291Y0268416D01*
X0059449Y0268388D01*
X0059607Y0268357D01*
X0059763Y0268321D01*
X0059919Y0268282D01*
X0060074Y0268239D01*
X0060228Y0268192D01*
X0060381Y0268141D01*
X0060532Y0268086D01*
X0060682Y0268028D01*
X0060830Y0267966D01*
X0060977Y0267900D01*
X0061122Y0267831D01*
X0061265Y0267758D01*
X0061407Y0267682D01*
X0061546Y0267602D01*
X0061684Y0267519D01*
X0061819Y0267432D01*
X0061953Y0267342D01*
X0062084Y0267249D01*
X0062212Y0267153D01*
X0062338Y0267053D01*
X0062462Y0266950D01*
X0062583Y0266845D01*
X0062702Y0266736D01*
X0062818Y0266625D01*
X0062931Y0266510D01*
X0063041Y0266393D01*
X0063148Y0266273D01*
X0063252Y0266151D01*
X0063353Y0266026D01*
X0063451Y0265898D01*
X0063546Y0265768D01*
X0063638Y0265636D01*
X0063726Y0265502D01*
X0063811Y0265365D01*
X0063893Y0265227D01*
X0063971Y0265086D01*
X0064045Y0264944D01*
X0064116Y0264800D01*
X0064184Y0264654D01*
X0064247Y0264506D01*
X0064308Y0264357D01*
X0064364Y0264206D01*
X0064417Y0264054D01*
X0064466Y0263901D01*
X0064511Y0263747D01*
X0064552Y0263592D01*
X0064590Y0263435D01*
X0064623Y0263278D01*
X0064653Y0263120D01*
X0064679Y0262961D01*
X0064700Y0262802D01*
X0064718Y0262642D01*
X0064732Y0262482D01*
X0064742Y0262321D01*
X0064748Y0262161D01*
X0064750Y0262000D01*
X0064748Y0261839D01*
X0064742Y0261679D01*
X0064732Y0261518D01*
X0064718Y0261358D01*
X0064700Y0261198D01*
X0064679Y0261039D01*
X0064653Y0260880D01*
X0064623Y0260722D01*
X0064590Y0260565D01*
X0064552Y0260408D01*
X0064511Y0260253D01*
X0064466Y0260099D01*
X0064417Y0259946D01*
X0064364Y0259794D01*
X0064308Y0259643D01*
X0064247Y0259494D01*
X0064184Y0259346D01*
X0064116Y0259200D01*
X0064045Y0259056D01*
X0063971Y0258914D01*
X0063893Y0258773D01*
X0063811Y0258635D01*
X0063726Y0258498D01*
X0063638Y0258364D01*
X0063546Y0258232D01*
X0063451Y0258102D01*
X0063353Y0257974D01*
X0063252Y0257849D01*
X0063148Y0257727D01*
X0063041Y0257607D01*
X0062931Y0257490D01*
X0062818Y0257375D01*
X0062702Y0257264D01*
X0062583Y0257155D01*
X0062462Y0257050D01*
X0062338Y0256947D01*
X0062212Y0256847D01*
X0062084Y0256751D01*
X0061953Y0256658D01*
X0061819Y0256568D01*
X0061684Y0256481D01*
X0061546Y0256398D01*
X0061407Y0256318D01*
X0061265Y0256242D01*
X0061122Y0256169D01*
X0060977Y0256100D01*
X0060830Y0256034D01*
X0060682Y0255972D01*
X0060532Y0255914D01*
X0060381Y0255859D01*
X0060228Y0255808D01*
X0060074Y0255761D01*
X0059919Y0255718D01*
X0059763Y0255679D01*
X0059607Y0255643D01*
X0059449Y0255612D01*
X0059291Y0255584D01*
X0059132Y0255560D01*
X0058972Y0255540D01*
X0058812Y0255524D01*
X0058652Y0255512D01*
X0058491Y0255504D01*
X0058330Y0255500D01*
X0058170Y0255500D01*
X0058009Y0255504D01*
X0057848Y0255512D01*
X0057688Y0255524D01*
X0057528Y0255540D01*
X0057368Y0255560D01*
X0057209Y0255584D01*
X0057051Y0255612D01*
X0056893Y0255643D01*
X0056737Y0255679D01*
X0056581Y0255718D01*
X0056426Y0255761D01*
X0056272Y0255808D01*
X0056119Y0255859D01*
X0055968Y0255914D01*
X0055818Y0255972D01*
X0055670Y0256034D01*
X0055523Y0256100D01*
X0055378Y0256169D01*
X0055235Y0256242D01*
X0055093Y0256318D01*
X0054954Y0256398D01*
X0054816Y0256481D01*
X0054681Y0256568D01*
X0054547Y0256658D01*
X0054416Y0256751D01*
X0054288Y0256847D01*
X0054162Y0256947D01*
X0054038Y0257050D01*
X0053917Y0257155D01*
X0053798Y0257264D01*
X0053682Y0257375D01*
X0053569Y0257490D01*
X0053459Y0257607D01*
X0053352Y0257727D01*
X0053248Y0257849D01*
X0053147Y0257974D01*
X0053049Y0258102D01*
X0052954Y0258232D01*
X0052862Y0258364D01*
X0052774Y0258498D01*
X0052689Y0258635D01*
X0052607Y0258773D01*
X0052529Y0258914D01*
X0052455Y0259056D01*
X0052384Y0259200D01*
X0052316Y0259346D01*
X0052253Y0259494D01*
X0052192Y0259643D01*
X0052136Y0259794D01*
X0052083Y0259946D01*
X0052034Y0260099D01*
X0051989Y0260253D01*
X0051948Y0260408D01*
X0051910Y0260565D01*
X0051877Y0260722D01*
X0051847Y0260880D01*
X0051821Y0261039D01*
X0051800Y0261198D01*
X0051782Y0261358D01*
X0051768Y0261518D01*
X0051758Y0261679D01*
X0051752Y0261839D01*
X0051750Y0262000D01*
X0051750Y0459000D02*
X0051752Y0459161D01*
X0051758Y0459321D01*
X0051768Y0459482D01*
X0051782Y0459642D01*
X0051800Y0459802D01*
X0051821Y0459961D01*
X0051847Y0460120D01*
X0051877Y0460278D01*
X0051910Y0460435D01*
X0051948Y0460592D01*
X0051989Y0460747D01*
X0052034Y0460901D01*
X0052083Y0461054D01*
X0052136Y0461206D01*
X0052192Y0461357D01*
X0052253Y0461506D01*
X0052316Y0461654D01*
X0052384Y0461800D01*
X0052455Y0461944D01*
X0052529Y0462086D01*
X0052607Y0462227D01*
X0052689Y0462365D01*
X0052774Y0462502D01*
X0052862Y0462636D01*
X0052954Y0462768D01*
X0053049Y0462898D01*
X0053147Y0463026D01*
X0053248Y0463151D01*
X0053352Y0463273D01*
X0053459Y0463393D01*
X0053569Y0463510D01*
X0053682Y0463625D01*
X0053798Y0463736D01*
X0053917Y0463845D01*
X0054038Y0463950D01*
X0054162Y0464053D01*
X0054288Y0464153D01*
X0054416Y0464249D01*
X0054547Y0464342D01*
X0054681Y0464432D01*
X0054816Y0464519D01*
X0054954Y0464602D01*
X0055093Y0464682D01*
X0055235Y0464758D01*
X0055378Y0464831D01*
X0055523Y0464900D01*
X0055670Y0464966D01*
X0055818Y0465028D01*
X0055968Y0465086D01*
X0056119Y0465141D01*
X0056272Y0465192D01*
X0056426Y0465239D01*
X0056581Y0465282D01*
X0056737Y0465321D01*
X0056893Y0465357D01*
X0057051Y0465388D01*
X0057209Y0465416D01*
X0057368Y0465440D01*
X0057528Y0465460D01*
X0057688Y0465476D01*
X0057848Y0465488D01*
X0058009Y0465496D01*
X0058170Y0465500D01*
X0058330Y0465500D01*
X0058491Y0465496D01*
X0058652Y0465488D01*
X0058812Y0465476D01*
X0058972Y0465460D01*
X0059132Y0465440D01*
X0059291Y0465416D01*
X0059449Y0465388D01*
X0059607Y0465357D01*
X0059763Y0465321D01*
X0059919Y0465282D01*
X0060074Y0465239D01*
X0060228Y0465192D01*
X0060381Y0465141D01*
X0060532Y0465086D01*
X0060682Y0465028D01*
X0060830Y0464966D01*
X0060977Y0464900D01*
X0061122Y0464831D01*
X0061265Y0464758D01*
X0061407Y0464682D01*
X0061546Y0464602D01*
X0061684Y0464519D01*
X0061819Y0464432D01*
X0061953Y0464342D01*
X0062084Y0464249D01*
X0062212Y0464153D01*
X0062338Y0464053D01*
X0062462Y0463950D01*
X0062583Y0463845D01*
X0062702Y0463736D01*
X0062818Y0463625D01*
X0062931Y0463510D01*
X0063041Y0463393D01*
X0063148Y0463273D01*
X0063252Y0463151D01*
X0063353Y0463026D01*
X0063451Y0462898D01*
X0063546Y0462768D01*
X0063638Y0462636D01*
X0063726Y0462502D01*
X0063811Y0462365D01*
X0063893Y0462227D01*
X0063971Y0462086D01*
X0064045Y0461944D01*
X0064116Y0461800D01*
X0064184Y0461654D01*
X0064247Y0461506D01*
X0064308Y0461357D01*
X0064364Y0461206D01*
X0064417Y0461054D01*
X0064466Y0460901D01*
X0064511Y0460747D01*
X0064552Y0460592D01*
X0064590Y0460435D01*
X0064623Y0460278D01*
X0064653Y0460120D01*
X0064679Y0459961D01*
X0064700Y0459802D01*
X0064718Y0459642D01*
X0064732Y0459482D01*
X0064742Y0459321D01*
X0064748Y0459161D01*
X0064750Y0459000D01*
X0064748Y0458839D01*
X0064742Y0458679D01*
X0064732Y0458518D01*
X0064718Y0458358D01*
X0064700Y0458198D01*
X0064679Y0458039D01*
X0064653Y0457880D01*
X0064623Y0457722D01*
X0064590Y0457565D01*
X0064552Y0457408D01*
X0064511Y0457253D01*
X0064466Y0457099D01*
X0064417Y0456946D01*
X0064364Y0456794D01*
X0064308Y0456643D01*
X0064247Y0456494D01*
X0064184Y0456346D01*
X0064116Y0456200D01*
X0064045Y0456056D01*
X0063971Y0455914D01*
X0063893Y0455773D01*
X0063811Y0455635D01*
X0063726Y0455498D01*
X0063638Y0455364D01*
X0063546Y0455232D01*
X0063451Y0455102D01*
X0063353Y0454974D01*
X0063252Y0454849D01*
X0063148Y0454727D01*
X0063041Y0454607D01*
X0062931Y0454490D01*
X0062818Y0454375D01*
X0062702Y0454264D01*
X0062583Y0454155D01*
X0062462Y0454050D01*
X0062338Y0453947D01*
X0062212Y0453847D01*
X0062084Y0453751D01*
X0061953Y0453658D01*
X0061819Y0453568D01*
X0061684Y0453481D01*
X0061546Y0453398D01*
X0061407Y0453318D01*
X0061265Y0453242D01*
X0061122Y0453169D01*
X0060977Y0453100D01*
X0060830Y0453034D01*
X0060682Y0452972D01*
X0060532Y0452914D01*
X0060381Y0452859D01*
X0060228Y0452808D01*
X0060074Y0452761D01*
X0059919Y0452718D01*
X0059763Y0452679D01*
X0059607Y0452643D01*
X0059449Y0452612D01*
X0059291Y0452584D01*
X0059132Y0452560D01*
X0058972Y0452540D01*
X0058812Y0452524D01*
X0058652Y0452512D01*
X0058491Y0452504D01*
X0058330Y0452500D01*
X0058170Y0452500D01*
X0058009Y0452504D01*
X0057848Y0452512D01*
X0057688Y0452524D01*
X0057528Y0452540D01*
X0057368Y0452560D01*
X0057209Y0452584D01*
X0057051Y0452612D01*
X0056893Y0452643D01*
X0056737Y0452679D01*
X0056581Y0452718D01*
X0056426Y0452761D01*
X0056272Y0452808D01*
X0056119Y0452859D01*
X0055968Y0452914D01*
X0055818Y0452972D01*
X0055670Y0453034D01*
X0055523Y0453100D01*
X0055378Y0453169D01*
X0055235Y0453242D01*
X0055093Y0453318D01*
X0054954Y0453398D01*
X0054816Y0453481D01*
X0054681Y0453568D01*
X0054547Y0453658D01*
X0054416Y0453751D01*
X0054288Y0453847D01*
X0054162Y0453947D01*
X0054038Y0454050D01*
X0053917Y0454155D01*
X0053798Y0454264D01*
X0053682Y0454375D01*
X0053569Y0454490D01*
X0053459Y0454607D01*
X0053352Y0454727D01*
X0053248Y0454849D01*
X0053147Y0454974D01*
X0053049Y0455102D01*
X0052954Y0455232D01*
X0052862Y0455364D01*
X0052774Y0455498D01*
X0052689Y0455635D01*
X0052607Y0455773D01*
X0052529Y0455914D01*
X0052455Y0456056D01*
X0052384Y0456200D01*
X0052316Y0456346D01*
X0052253Y0456494D01*
X0052192Y0456643D01*
X0052136Y0456794D01*
X0052083Y0456946D01*
X0052034Y0457099D01*
X0051989Y0457253D01*
X0051948Y0457408D01*
X0051910Y0457565D01*
X0051877Y0457722D01*
X0051847Y0457880D01*
X0051821Y0458039D01*
X0051800Y0458198D01*
X0051782Y0458358D01*
X0051768Y0458518D01*
X0051758Y0458679D01*
X0051752Y0458839D01*
X0051750Y0459000D01*
X0398750Y0459000D02*
X0398752Y0459161D01*
X0398758Y0459321D01*
X0398768Y0459482D01*
X0398782Y0459642D01*
X0398800Y0459802D01*
X0398821Y0459961D01*
X0398847Y0460120D01*
X0398877Y0460278D01*
X0398910Y0460435D01*
X0398948Y0460592D01*
X0398989Y0460747D01*
X0399034Y0460901D01*
X0399083Y0461054D01*
X0399136Y0461206D01*
X0399192Y0461357D01*
X0399253Y0461506D01*
X0399316Y0461654D01*
X0399384Y0461800D01*
X0399455Y0461944D01*
X0399529Y0462086D01*
X0399607Y0462227D01*
X0399689Y0462365D01*
X0399774Y0462502D01*
X0399862Y0462636D01*
X0399954Y0462768D01*
X0400049Y0462898D01*
X0400147Y0463026D01*
X0400248Y0463151D01*
X0400352Y0463273D01*
X0400459Y0463393D01*
X0400569Y0463510D01*
X0400682Y0463625D01*
X0400798Y0463736D01*
X0400917Y0463845D01*
X0401038Y0463950D01*
X0401162Y0464053D01*
X0401288Y0464153D01*
X0401416Y0464249D01*
X0401547Y0464342D01*
X0401681Y0464432D01*
X0401816Y0464519D01*
X0401954Y0464602D01*
X0402093Y0464682D01*
X0402235Y0464758D01*
X0402378Y0464831D01*
X0402523Y0464900D01*
X0402670Y0464966D01*
X0402818Y0465028D01*
X0402968Y0465086D01*
X0403119Y0465141D01*
X0403272Y0465192D01*
X0403426Y0465239D01*
X0403581Y0465282D01*
X0403737Y0465321D01*
X0403893Y0465357D01*
X0404051Y0465388D01*
X0404209Y0465416D01*
X0404368Y0465440D01*
X0404528Y0465460D01*
X0404688Y0465476D01*
X0404848Y0465488D01*
X0405009Y0465496D01*
X0405170Y0465500D01*
X0405330Y0465500D01*
X0405491Y0465496D01*
X0405652Y0465488D01*
X0405812Y0465476D01*
X0405972Y0465460D01*
X0406132Y0465440D01*
X0406291Y0465416D01*
X0406449Y0465388D01*
X0406607Y0465357D01*
X0406763Y0465321D01*
X0406919Y0465282D01*
X0407074Y0465239D01*
X0407228Y0465192D01*
X0407381Y0465141D01*
X0407532Y0465086D01*
X0407682Y0465028D01*
X0407830Y0464966D01*
X0407977Y0464900D01*
X0408122Y0464831D01*
X0408265Y0464758D01*
X0408407Y0464682D01*
X0408546Y0464602D01*
X0408684Y0464519D01*
X0408819Y0464432D01*
X0408953Y0464342D01*
X0409084Y0464249D01*
X0409212Y0464153D01*
X0409338Y0464053D01*
X0409462Y0463950D01*
X0409583Y0463845D01*
X0409702Y0463736D01*
X0409818Y0463625D01*
X0409931Y0463510D01*
X0410041Y0463393D01*
X0410148Y0463273D01*
X0410252Y0463151D01*
X0410353Y0463026D01*
X0410451Y0462898D01*
X0410546Y0462768D01*
X0410638Y0462636D01*
X0410726Y0462502D01*
X0410811Y0462365D01*
X0410893Y0462227D01*
X0410971Y0462086D01*
X0411045Y0461944D01*
X0411116Y0461800D01*
X0411184Y0461654D01*
X0411247Y0461506D01*
X0411308Y0461357D01*
X0411364Y0461206D01*
X0411417Y0461054D01*
X0411466Y0460901D01*
X0411511Y0460747D01*
X0411552Y0460592D01*
X0411590Y0460435D01*
X0411623Y0460278D01*
X0411653Y0460120D01*
X0411679Y0459961D01*
X0411700Y0459802D01*
X0411718Y0459642D01*
X0411732Y0459482D01*
X0411742Y0459321D01*
X0411748Y0459161D01*
X0411750Y0459000D01*
X0411748Y0458839D01*
X0411742Y0458679D01*
X0411732Y0458518D01*
X0411718Y0458358D01*
X0411700Y0458198D01*
X0411679Y0458039D01*
X0411653Y0457880D01*
X0411623Y0457722D01*
X0411590Y0457565D01*
X0411552Y0457408D01*
X0411511Y0457253D01*
X0411466Y0457099D01*
X0411417Y0456946D01*
X0411364Y0456794D01*
X0411308Y0456643D01*
X0411247Y0456494D01*
X0411184Y0456346D01*
X0411116Y0456200D01*
X0411045Y0456056D01*
X0410971Y0455914D01*
X0410893Y0455773D01*
X0410811Y0455635D01*
X0410726Y0455498D01*
X0410638Y0455364D01*
X0410546Y0455232D01*
X0410451Y0455102D01*
X0410353Y0454974D01*
X0410252Y0454849D01*
X0410148Y0454727D01*
X0410041Y0454607D01*
X0409931Y0454490D01*
X0409818Y0454375D01*
X0409702Y0454264D01*
X0409583Y0454155D01*
X0409462Y0454050D01*
X0409338Y0453947D01*
X0409212Y0453847D01*
X0409084Y0453751D01*
X0408953Y0453658D01*
X0408819Y0453568D01*
X0408684Y0453481D01*
X0408546Y0453398D01*
X0408407Y0453318D01*
X0408265Y0453242D01*
X0408122Y0453169D01*
X0407977Y0453100D01*
X0407830Y0453034D01*
X0407682Y0452972D01*
X0407532Y0452914D01*
X0407381Y0452859D01*
X0407228Y0452808D01*
X0407074Y0452761D01*
X0406919Y0452718D01*
X0406763Y0452679D01*
X0406607Y0452643D01*
X0406449Y0452612D01*
X0406291Y0452584D01*
X0406132Y0452560D01*
X0405972Y0452540D01*
X0405812Y0452524D01*
X0405652Y0452512D01*
X0405491Y0452504D01*
X0405330Y0452500D01*
X0405170Y0452500D01*
X0405009Y0452504D01*
X0404848Y0452512D01*
X0404688Y0452524D01*
X0404528Y0452540D01*
X0404368Y0452560D01*
X0404209Y0452584D01*
X0404051Y0452612D01*
X0403893Y0452643D01*
X0403737Y0452679D01*
X0403581Y0452718D01*
X0403426Y0452761D01*
X0403272Y0452808D01*
X0403119Y0452859D01*
X0402968Y0452914D01*
X0402818Y0452972D01*
X0402670Y0453034D01*
X0402523Y0453100D01*
X0402378Y0453169D01*
X0402235Y0453242D01*
X0402093Y0453318D01*
X0401954Y0453398D01*
X0401816Y0453481D01*
X0401681Y0453568D01*
X0401547Y0453658D01*
X0401416Y0453751D01*
X0401288Y0453847D01*
X0401162Y0453947D01*
X0401038Y0454050D01*
X0400917Y0454155D01*
X0400798Y0454264D01*
X0400682Y0454375D01*
X0400569Y0454490D01*
X0400459Y0454607D01*
X0400352Y0454727D01*
X0400248Y0454849D01*
X0400147Y0454974D01*
X0400049Y0455102D01*
X0399954Y0455232D01*
X0399862Y0455364D01*
X0399774Y0455498D01*
X0399689Y0455635D01*
X0399607Y0455773D01*
X0399529Y0455914D01*
X0399455Y0456056D01*
X0399384Y0456200D01*
X0399316Y0456346D01*
X0399253Y0456494D01*
X0399192Y0456643D01*
X0399136Y0456794D01*
X0399083Y0456946D01*
X0399034Y0457099D01*
X0398989Y0457253D01*
X0398948Y0457408D01*
X0398910Y0457565D01*
X0398877Y0457722D01*
X0398847Y0457880D01*
X0398821Y0458039D01*
X0398800Y0458198D01*
X0398782Y0458358D01*
X0398768Y0458518D01*
X0398758Y0458679D01*
X0398752Y0458839D01*
X0398750Y0459000D01*
X0398750Y0262000D02*
X0398752Y0262161D01*
X0398758Y0262321D01*
X0398768Y0262482D01*
X0398782Y0262642D01*
X0398800Y0262802D01*
X0398821Y0262961D01*
X0398847Y0263120D01*
X0398877Y0263278D01*
X0398910Y0263435D01*
X0398948Y0263592D01*
X0398989Y0263747D01*
X0399034Y0263901D01*
X0399083Y0264054D01*
X0399136Y0264206D01*
X0399192Y0264357D01*
X0399253Y0264506D01*
X0399316Y0264654D01*
X0399384Y0264800D01*
X0399455Y0264944D01*
X0399529Y0265086D01*
X0399607Y0265227D01*
X0399689Y0265365D01*
X0399774Y0265502D01*
X0399862Y0265636D01*
X0399954Y0265768D01*
X0400049Y0265898D01*
X0400147Y0266026D01*
X0400248Y0266151D01*
X0400352Y0266273D01*
X0400459Y0266393D01*
X0400569Y0266510D01*
X0400682Y0266625D01*
X0400798Y0266736D01*
X0400917Y0266845D01*
X0401038Y0266950D01*
X0401162Y0267053D01*
X0401288Y0267153D01*
X0401416Y0267249D01*
X0401547Y0267342D01*
X0401681Y0267432D01*
X0401816Y0267519D01*
X0401954Y0267602D01*
X0402093Y0267682D01*
X0402235Y0267758D01*
X0402378Y0267831D01*
X0402523Y0267900D01*
X0402670Y0267966D01*
X0402818Y0268028D01*
X0402968Y0268086D01*
X0403119Y0268141D01*
X0403272Y0268192D01*
X0403426Y0268239D01*
X0403581Y0268282D01*
X0403737Y0268321D01*
X0403893Y0268357D01*
X0404051Y0268388D01*
X0404209Y0268416D01*
X0404368Y0268440D01*
X0404528Y0268460D01*
X0404688Y0268476D01*
X0404848Y0268488D01*
X0405009Y0268496D01*
X0405170Y0268500D01*
X0405330Y0268500D01*
X0405491Y0268496D01*
X0405652Y0268488D01*
X0405812Y0268476D01*
X0405972Y0268460D01*
X0406132Y0268440D01*
X0406291Y0268416D01*
X0406449Y0268388D01*
X0406607Y0268357D01*
X0406763Y0268321D01*
X0406919Y0268282D01*
X0407074Y0268239D01*
X0407228Y0268192D01*
X0407381Y0268141D01*
X0407532Y0268086D01*
X0407682Y0268028D01*
X0407830Y0267966D01*
X0407977Y0267900D01*
X0408122Y0267831D01*
X0408265Y0267758D01*
X0408407Y0267682D01*
X0408546Y0267602D01*
X0408684Y0267519D01*
X0408819Y0267432D01*
X0408953Y0267342D01*
X0409084Y0267249D01*
X0409212Y0267153D01*
X0409338Y0267053D01*
X0409462Y0266950D01*
X0409583Y0266845D01*
X0409702Y0266736D01*
X0409818Y0266625D01*
X0409931Y0266510D01*
X0410041Y0266393D01*
X0410148Y0266273D01*
X0410252Y0266151D01*
X0410353Y0266026D01*
X0410451Y0265898D01*
X0410546Y0265768D01*
X0410638Y0265636D01*
X0410726Y0265502D01*
X0410811Y0265365D01*
X0410893Y0265227D01*
X0410971Y0265086D01*
X0411045Y0264944D01*
X0411116Y0264800D01*
X0411184Y0264654D01*
X0411247Y0264506D01*
X0411308Y0264357D01*
X0411364Y0264206D01*
X0411417Y0264054D01*
X0411466Y0263901D01*
X0411511Y0263747D01*
X0411552Y0263592D01*
X0411590Y0263435D01*
X0411623Y0263278D01*
X0411653Y0263120D01*
X0411679Y0262961D01*
X0411700Y0262802D01*
X0411718Y0262642D01*
X0411732Y0262482D01*
X0411742Y0262321D01*
X0411748Y0262161D01*
X0411750Y0262000D01*
X0411748Y0261839D01*
X0411742Y0261679D01*
X0411732Y0261518D01*
X0411718Y0261358D01*
X0411700Y0261198D01*
X0411679Y0261039D01*
X0411653Y0260880D01*
X0411623Y0260722D01*
X0411590Y0260565D01*
X0411552Y0260408D01*
X0411511Y0260253D01*
X0411466Y0260099D01*
X0411417Y0259946D01*
X0411364Y0259794D01*
X0411308Y0259643D01*
X0411247Y0259494D01*
X0411184Y0259346D01*
X0411116Y0259200D01*
X0411045Y0259056D01*
X0410971Y0258914D01*
X0410893Y0258773D01*
X0410811Y0258635D01*
X0410726Y0258498D01*
X0410638Y0258364D01*
X0410546Y0258232D01*
X0410451Y0258102D01*
X0410353Y0257974D01*
X0410252Y0257849D01*
X0410148Y0257727D01*
X0410041Y0257607D01*
X0409931Y0257490D01*
X0409818Y0257375D01*
X0409702Y0257264D01*
X0409583Y0257155D01*
X0409462Y0257050D01*
X0409338Y0256947D01*
X0409212Y0256847D01*
X0409084Y0256751D01*
X0408953Y0256658D01*
X0408819Y0256568D01*
X0408684Y0256481D01*
X0408546Y0256398D01*
X0408407Y0256318D01*
X0408265Y0256242D01*
X0408122Y0256169D01*
X0407977Y0256100D01*
X0407830Y0256034D01*
X0407682Y0255972D01*
X0407532Y0255914D01*
X0407381Y0255859D01*
X0407228Y0255808D01*
X0407074Y0255761D01*
X0406919Y0255718D01*
X0406763Y0255679D01*
X0406607Y0255643D01*
X0406449Y0255612D01*
X0406291Y0255584D01*
X0406132Y0255560D01*
X0405972Y0255540D01*
X0405812Y0255524D01*
X0405652Y0255512D01*
X0405491Y0255504D01*
X0405330Y0255500D01*
X0405170Y0255500D01*
X0405009Y0255504D01*
X0404848Y0255512D01*
X0404688Y0255524D01*
X0404528Y0255540D01*
X0404368Y0255560D01*
X0404209Y0255584D01*
X0404051Y0255612D01*
X0403893Y0255643D01*
X0403737Y0255679D01*
X0403581Y0255718D01*
X0403426Y0255761D01*
X0403272Y0255808D01*
X0403119Y0255859D01*
X0402968Y0255914D01*
X0402818Y0255972D01*
X0402670Y0256034D01*
X0402523Y0256100D01*
X0402378Y0256169D01*
X0402235Y0256242D01*
X0402093Y0256318D01*
X0401954Y0256398D01*
X0401816Y0256481D01*
X0401681Y0256568D01*
X0401547Y0256658D01*
X0401416Y0256751D01*
X0401288Y0256847D01*
X0401162Y0256947D01*
X0401038Y0257050D01*
X0400917Y0257155D01*
X0400798Y0257264D01*
X0400682Y0257375D01*
X0400569Y0257490D01*
X0400459Y0257607D01*
X0400352Y0257727D01*
X0400248Y0257849D01*
X0400147Y0257974D01*
X0400049Y0258102D01*
X0399954Y0258232D01*
X0399862Y0258364D01*
X0399774Y0258498D01*
X0399689Y0258635D01*
X0399607Y0258773D01*
X0399529Y0258914D01*
X0399455Y0259056D01*
X0399384Y0259200D01*
X0399316Y0259346D01*
X0399253Y0259494D01*
X0399192Y0259643D01*
X0399136Y0259794D01*
X0399083Y0259946D01*
X0399034Y0260099D01*
X0398989Y0260253D01*
X0398948Y0260408D01*
X0398910Y0260565D01*
X0398877Y0260722D01*
X0398847Y0260880D01*
X0398821Y0261039D01*
X0398800Y0261198D01*
X0398782Y0261358D01*
X0398768Y0261518D01*
X0398758Y0261679D01*
X0398752Y0261839D01*
X0398750Y0262000D01*
X0398750Y0237000D02*
X0398752Y0237161D01*
X0398758Y0237321D01*
X0398768Y0237482D01*
X0398782Y0237642D01*
X0398800Y0237802D01*
X0398821Y0237961D01*
X0398847Y0238120D01*
X0398877Y0238278D01*
X0398910Y0238435D01*
X0398948Y0238592D01*
X0398989Y0238747D01*
X0399034Y0238901D01*
X0399083Y0239054D01*
X0399136Y0239206D01*
X0399192Y0239357D01*
X0399253Y0239506D01*
X0399316Y0239654D01*
X0399384Y0239800D01*
X0399455Y0239944D01*
X0399529Y0240086D01*
X0399607Y0240227D01*
X0399689Y0240365D01*
X0399774Y0240502D01*
X0399862Y0240636D01*
X0399954Y0240768D01*
X0400049Y0240898D01*
X0400147Y0241026D01*
X0400248Y0241151D01*
X0400352Y0241273D01*
X0400459Y0241393D01*
X0400569Y0241510D01*
X0400682Y0241625D01*
X0400798Y0241736D01*
X0400917Y0241845D01*
X0401038Y0241950D01*
X0401162Y0242053D01*
X0401288Y0242153D01*
X0401416Y0242249D01*
X0401547Y0242342D01*
X0401681Y0242432D01*
X0401816Y0242519D01*
X0401954Y0242602D01*
X0402093Y0242682D01*
X0402235Y0242758D01*
X0402378Y0242831D01*
X0402523Y0242900D01*
X0402670Y0242966D01*
X0402818Y0243028D01*
X0402968Y0243086D01*
X0403119Y0243141D01*
X0403272Y0243192D01*
X0403426Y0243239D01*
X0403581Y0243282D01*
X0403737Y0243321D01*
X0403893Y0243357D01*
X0404051Y0243388D01*
X0404209Y0243416D01*
X0404368Y0243440D01*
X0404528Y0243460D01*
X0404688Y0243476D01*
X0404848Y0243488D01*
X0405009Y0243496D01*
X0405170Y0243500D01*
X0405330Y0243500D01*
X0405491Y0243496D01*
X0405652Y0243488D01*
X0405812Y0243476D01*
X0405972Y0243460D01*
X0406132Y0243440D01*
X0406291Y0243416D01*
X0406449Y0243388D01*
X0406607Y0243357D01*
X0406763Y0243321D01*
X0406919Y0243282D01*
X0407074Y0243239D01*
X0407228Y0243192D01*
X0407381Y0243141D01*
X0407532Y0243086D01*
X0407682Y0243028D01*
X0407830Y0242966D01*
X0407977Y0242900D01*
X0408122Y0242831D01*
X0408265Y0242758D01*
X0408407Y0242682D01*
X0408546Y0242602D01*
X0408684Y0242519D01*
X0408819Y0242432D01*
X0408953Y0242342D01*
X0409084Y0242249D01*
X0409212Y0242153D01*
X0409338Y0242053D01*
X0409462Y0241950D01*
X0409583Y0241845D01*
X0409702Y0241736D01*
X0409818Y0241625D01*
X0409931Y0241510D01*
X0410041Y0241393D01*
X0410148Y0241273D01*
X0410252Y0241151D01*
X0410353Y0241026D01*
X0410451Y0240898D01*
X0410546Y0240768D01*
X0410638Y0240636D01*
X0410726Y0240502D01*
X0410811Y0240365D01*
X0410893Y0240227D01*
X0410971Y0240086D01*
X0411045Y0239944D01*
X0411116Y0239800D01*
X0411184Y0239654D01*
X0411247Y0239506D01*
X0411308Y0239357D01*
X0411364Y0239206D01*
X0411417Y0239054D01*
X0411466Y0238901D01*
X0411511Y0238747D01*
X0411552Y0238592D01*
X0411590Y0238435D01*
X0411623Y0238278D01*
X0411653Y0238120D01*
X0411679Y0237961D01*
X0411700Y0237802D01*
X0411718Y0237642D01*
X0411732Y0237482D01*
X0411742Y0237321D01*
X0411748Y0237161D01*
X0411750Y0237000D01*
X0411748Y0236839D01*
X0411742Y0236679D01*
X0411732Y0236518D01*
X0411718Y0236358D01*
X0411700Y0236198D01*
X0411679Y0236039D01*
X0411653Y0235880D01*
X0411623Y0235722D01*
X0411590Y0235565D01*
X0411552Y0235408D01*
X0411511Y0235253D01*
X0411466Y0235099D01*
X0411417Y0234946D01*
X0411364Y0234794D01*
X0411308Y0234643D01*
X0411247Y0234494D01*
X0411184Y0234346D01*
X0411116Y0234200D01*
X0411045Y0234056D01*
X0410971Y0233914D01*
X0410893Y0233773D01*
X0410811Y0233635D01*
X0410726Y0233498D01*
X0410638Y0233364D01*
X0410546Y0233232D01*
X0410451Y0233102D01*
X0410353Y0232974D01*
X0410252Y0232849D01*
X0410148Y0232727D01*
X0410041Y0232607D01*
X0409931Y0232490D01*
X0409818Y0232375D01*
X0409702Y0232264D01*
X0409583Y0232155D01*
X0409462Y0232050D01*
X0409338Y0231947D01*
X0409212Y0231847D01*
X0409084Y0231751D01*
X0408953Y0231658D01*
X0408819Y0231568D01*
X0408684Y0231481D01*
X0408546Y0231398D01*
X0408407Y0231318D01*
X0408265Y0231242D01*
X0408122Y0231169D01*
X0407977Y0231100D01*
X0407830Y0231034D01*
X0407682Y0230972D01*
X0407532Y0230914D01*
X0407381Y0230859D01*
X0407228Y0230808D01*
X0407074Y0230761D01*
X0406919Y0230718D01*
X0406763Y0230679D01*
X0406607Y0230643D01*
X0406449Y0230612D01*
X0406291Y0230584D01*
X0406132Y0230560D01*
X0405972Y0230540D01*
X0405812Y0230524D01*
X0405652Y0230512D01*
X0405491Y0230504D01*
X0405330Y0230500D01*
X0405170Y0230500D01*
X0405009Y0230504D01*
X0404848Y0230512D01*
X0404688Y0230524D01*
X0404528Y0230540D01*
X0404368Y0230560D01*
X0404209Y0230584D01*
X0404051Y0230612D01*
X0403893Y0230643D01*
X0403737Y0230679D01*
X0403581Y0230718D01*
X0403426Y0230761D01*
X0403272Y0230808D01*
X0403119Y0230859D01*
X0402968Y0230914D01*
X0402818Y0230972D01*
X0402670Y0231034D01*
X0402523Y0231100D01*
X0402378Y0231169D01*
X0402235Y0231242D01*
X0402093Y0231318D01*
X0401954Y0231398D01*
X0401816Y0231481D01*
X0401681Y0231568D01*
X0401547Y0231658D01*
X0401416Y0231751D01*
X0401288Y0231847D01*
X0401162Y0231947D01*
X0401038Y0232050D01*
X0400917Y0232155D01*
X0400798Y0232264D01*
X0400682Y0232375D01*
X0400569Y0232490D01*
X0400459Y0232607D01*
X0400352Y0232727D01*
X0400248Y0232849D01*
X0400147Y0232974D01*
X0400049Y0233102D01*
X0399954Y0233232D01*
X0399862Y0233364D01*
X0399774Y0233498D01*
X0399689Y0233635D01*
X0399607Y0233773D01*
X0399529Y0233914D01*
X0399455Y0234056D01*
X0399384Y0234200D01*
X0399316Y0234346D01*
X0399253Y0234494D01*
X0399192Y0234643D01*
X0399136Y0234794D01*
X0399083Y0234946D01*
X0399034Y0235099D01*
X0398989Y0235253D01*
X0398948Y0235408D01*
X0398910Y0235565D01*
X0398877Y0235722D01*
X0398847Y0235880D01*
X0398821Y0236039D01*
X0398800Y0236198D01*
X0398782Y0236358D01*
X0398768Y0236518D01*
X0398758Y0236679D01*
X0398752Y0236839D01*
X0398750Y0237000D01*
X0398750Y0040000D02*
X0398752Y0040161D01*
X0398758Y0040321D01*
X0398768Y0040482D01*
X0398782Y0040642D01*
X0398800Y0040802D01*
X0398821Y0040961D01*
X0398847Y0041120D01*
X0398877Y0041278D01*
X0398910Y0041435D01*
X0398948Y0041592D01*
X0398989Y0041747D01*
X0399034Y0041901D01*
X0399083Y0042054D01*
X0399136Y0042206D01*
X0399192Y0042357D01*
X0399253Y0042506D01*
X0399316Y0042654D01*
X0399384Y0042800D01*
X0399455Y0042944D01*
X0399529Y0043086D01*
X0399607Y0043227D01*
X0399689Y0043365D01*
X0399774Y0043502D01*
X0399862Y0043636D01*
X0399954Y0043768D01*
X0400049Y0043898D01*
X0400147Y0044026D01*
X0400248Y0044151D01*
X0400352Y0044273D01*
X0400459Y0044393D01*
X0400569Y0044510D01*
X0400682Y0044625D01*
X0400798Y0044736D01*
X0400917Y0044845D01*
X0401038Y0044950D01*
X0401162Y0045053D01*
X0401288Y0045153D01*
X0401416Y0045249D01*
X0401547Y0045342D01*
X0401681Y0045432D01*
X0401816Y0045519D01*
X0401954Y0045602D01*
X0402093Y0045682D01*
X0402235Y0045758D01*
X0402378Y0045831D01*
X0402523Y0045900D01*
X0402670Y0045966D01*
X0402818Y0046028D01*
X0402968Y0046086D01*
X0403119Y0046141D01*
X0403272Y0046192D01*
X0403426Y0046239D01*
X0403581Y0046282D01*
X0403737Y0046321D01*
X0403893Y0046357D01*
X0404051Y0046388D01*
X0404209Y0046416D01*
X0404368Y0046440D01*
X0404528Y0046460D01*
X0404688Y0046476D01*
X0404848Y0046488D01*
X0405009Y0046496D01*
X0405170Y0046500D01*
X0405330Y0046500D01*
X0405491Y0046496D01*
X0405652Y0046488D01*
X0405812Y0046476D01*
X0405972Y0046460D01*
X0406132Y0046440D01*
X0406291Y0046416D01*
X0406449Y0046388D01*
X0406607Y0046357D01*
X0406763Y0046321D01*
X0406919Y0046282D01*
X0407074Y0046239D01*
X0407228Y0046192D01*
X0407381Y0046141D01*
X0407532Y0046086D01*
X0407682Y0046028D01*
X0407830Y0045966D01*
X0407977Y0045900D01*
X0408122Y0045831D01*
X0408265Y0045758D01*
X0408407Y0045682D01*
X0408546Y0045602D01*
X0408684Y0045519D01*
X0408819Y0045432D01*
X0408953Y0045342D01*
X0409084Y0045249D01*
X0409212Y0045153D01*
X0409338Y0045053D01*
X0409462Y0044950D01*
X0409583Y0044845D01*
X0409702Y0044736D01*
X0409818Y0044625D01*
X0409931Y0044510D01*
X0410041Y0044393D01*
X0410148Y0044273D01*
X0410252Y0044151D01*
X0410353Y0044026D01*
X0410451Y0043898D01*
X0410546Y0043768D01*
X0410638Y0043636D01*
X0410726Y0043502D01*
X0410811Y0043365D01*
X0410893Y0043227D01*
X0410971Y0043086D01*
X0411045Y0042944D01*
X0411116Y0042800D01*
X0411184Y0042654D01*
X0411247Y0042506D01*
X0411308Y0042357D01*
X0411364Y0042206D01*
X0411417Y0042054D01*
X0411466Y0041901D01*
X0411511Y0041747D01*
X0411552Y0041592D01*
X0411590Y0041435D01*
X0411623Y0041278D01*
X0411653Y0041120D01*
X0411679Y0040961D01*
X0411700Y0040802D01*
X0411718Y0040642D01*
X0411732Y0040482D01*
X0411742Y0040321D01*
X0411748Y0040161D01*
X0411750Y0040000D01*
X0411748Y0039839D01*
X0411742Y0039679D01*
X0411732Y0039518D01*
X0411718Y0039358D01*
X0411700Y0039198D01*
X0411679Y0039039D01*
X0411653Y0038880D01*
X0411623Y0038722D01*
X0411590Y0038565D01*
X0411552Y0038408D01*
X0411511Y0038253D01*
X0411466Y0038099D01*
X0411417Y0037946D01*
X0411364Y0037794D01*
X0411308Y0037643D01*
X0411247Y0037494D01*
X0411184Y0037346D01*
X0411116Y0037200D01*
X0411045Y0037056D01*
X0410971Y0036914D01*
X0410893Y0036773D01*
X0410811Y0036635D01*
X0410726Y0036498D01*
X0410638Y0036364D01*
X0410546Y0036232D01*
X0410451Y0036102D01*
X0410353Y0035974D01*
X0410252Y0035849D01*
X0410148Y0035727D01*
X0410041Y0035607D01*
X0409931Y0035490D01*
X0409818Y0035375D01*
X0409702Y0035264D01*
X0409583Y0035155D01*
X0409462Y0035050D01*
X0409338Y0034947D01*
X0409212Y0034847D01*
X0409084Y0034751D01*
X0408953Y0034658D01*
X0408819Y0034568D01*
X0408684Y0034481D01*
X0408546Y0034398D01*
X0408407Y0034318D01*
X0408265Y0034242D01*
X0408122Y0034169D01*
X0407977Y0034100D01*
X0407830Y0034034D01*
X0407682Y0033972D01*
X0407532Y0033914D01*
X0407381Y0033859D01*
X0407228Y0033808D01*
X0407074Y0033761D01*
X0406919Y0033718D01*
X0406763Y0033679D01*
X0406607Y0033643D01*
X0406449Y0033612D01*
X0406291Y0033584D01*
X0406132Y0033560D01*
X0405972Y0033540D01*
X0405812Y0033524D01*
X0405652Y0033512D01*
X0405491Y0033504D01*
X0405330Y0033500D01*
X0405170Y0033500D01*
X0405009Y0033504D01*
X0404848Y0033512D01*
X0404688Y0033524D01*
X0404528Y0033540D01*
X0404368Y0033560D01*
X0404209Y0033584D01*
X0404051Y0033612D01*
X0403893Y0033643D01*
X0403737Y0033679D01*
X0403581Y0033718D01*
X0403426Y0033761D01*
X0403272Y0033808D01*
X0403119Y0033859D01*
X0402968Y0033914D01*
X0402818Y0033972D01*
X0402670Y0034034D01*
X0402523Y0034100D01*
X0402378Y0034169D01*
X0402235Y0034242D01*
X0402093Y0034318D01*
X0401954Y0034398D01*
X0401816Y0034481D01*
X0401681Y0034568D01*
X0401547Y0034658D01*
X0401416Y0034751D01*
X0401288Y0034847D01*
X0401162Y0034947D01*
X0401038Y0035050D01*
X0400917Y0035155D01*
X0400798Y0035264D01*
X0400682Y0035375D01*
X0400569Y0035490D01*
X0400459Y0035607D01*
X0400352Y0035727D01*
X0400248Y0035849D01*
X0400147Y0035974D01*
X0400049Y0036102D01*
X0399954Y0036232D01*
X0399862Y0036364D01*
X0399774Y0036498D01*
X0399689Y0036635D01*
X0399607Y0036773D01*
X0399529Y0036914D01*
X0399455Y0037056D01*
X0399384Y0037200D01*
X0399316Y0037346D01*
X0399253Y0037494D01*
X0399192Y0037643D01*
X0399136Y0037794D01*
X0399083Y0037946D01*
X0399034Y0038099D01*
X0398989Y0038253D01*
X0398948Y0038408D01*
X0398910Y0038565D01*
X0398877Y0038722D01*
X0398847Y0038880D01*
X0398821Y0039039D01*
X0398800Y0039198D01*
X0398782Y0039358D01*
X0398768Y0039518D01*
X0398758Y0039679D01*
X0398752Y0039839D01*
X0398750Y0040000D01*
D11*
X0423800Y0117045D02*
X0423800Y0118684D01*
X0423802Y0118763D01*
X0423808Y0118842D01*
X0423817Y0118921D01*
X0423831Y0118999D01*
X0423848Y0119076D01*
X0423868Y0119153D01*
X0423893Y0119228D01*
X0423921Y0119302D01*
X0423953Y0119375D01*
X0423988Y0119446D01*
X0424026Y0119515D01*
X0424068Y0119582D01*
X0424113Y0119647D01*
X0424161Y0119710D01*
X0424212Y0119771D01*
X0424266Y0119829D01*
X0424323Y0119884D01*
X0424382Y0119937D01*
X0424444Y0119986D01*
X0424508Y0120033D01*
X0424574Y0120076D01*
X0424642Y0120116D01*
X0424713Y0120153D01*
X0424784Y0120187D01*
X0424858Y0120216D01*
X0424933Y0120243D01*
X0425008Y0120265D01*
X0425085Y0120284D01*
X0425163Y0120300D01*
X0425241Y0120311D01*
X0425320Y0120319D01*
X0425399Y0120323D01*
X0425479Y0120323D01*
X0425558Y0120319D01*
X0425637Y0120311D01*
X0425715Y0120300D01*
X0425793Y0120284D01*
X0425870Y0120265D01*
X0425945Y0120243D01*
X0426020Y0120216D01*
X0426094Y0120187D01*
X0426165Y0120153D01*
X0426236Y0120116D01*
X0426304Y0120076D01*
X0426370Y0120033D01*
X0426434Y0119986D01*
X0426496Y0119937D01*
X0426555Y0119884D01*
X0426612Y0119829D01*
X0426666Y0119771D01*
X0426717Y0119710D01*
X0426765Y0119647D01*
X0426810Y0119582D01*
X0426852Y0119515D01*
X0426890Y0119446D01*
X0426925Y0119375D01*
X0426957Y0119302D01*
X0426985Y0119228D01*
X0427010Y0119153D01*
X0427030Y0119076D01*
X0427047Y0118999D01*
X0427061Y0118921D01*
X0427070Y0118842D01*
X0427076Y0118763D01*
X0427078Y0118684D01*
X0427078Y0117045D01*
X0427078Y0119012D02*
X0429700Y0120323D01*
X0428389Y0123062D02*
X0427078Y0123062D01*
X0427007Y0123064D01*
X0426936Y0123070D01*
X0426866Y0123079D01*
X0426796Y0123093D01*
X0426727Y0123110D01*
X0426659Y0123131D01*
X0426593Y0123155D01*
X0426528Y0123183D01*
X0426464Y0123215D01*
X0426402Y0123250D01*
X0426342Y0123288D01*
X0426285Y0123329D01*
X0426229Y0123374D01*
X0426176Y0123421D01*
X0426126Y0123471D01*
X0426079Y0123524D01*
X0426034Y0123580D01*
X0425993Y0123637D01*
X0425955Y0123697D01*
X0425920Y0123759D01*
X0425888Y0123823D01*
X0425860Y0123888D01*
X0425836Y0123954D01*
X0425815Y0124022D01*
X0425798Y0124091D01*
X0425784Y0124161D01*
X0425775Y0124231D01*
X0425769Y0124302D01*
X0425767Y0124373D01*
X0425769Y0124444D01*
X0425775Y0124515D01*
X0425784Y0124585D01*
X0425798Y0124655D01*
X0425815Y0124724D01*
X0425836Y0124792D01*
X0425860Y0124858D01*
X0425888Y0124923D01*
X0425920Y0124987D01*
X0425955Y0125049D01*
X0425993Y0125109D01*
X0426034Y0125166D01*
X0426079Y0125222D01*
X0426126Y0125275D01*
X0426176Y0125325D01*
X0426229Y0125372D01*
X0426285Y0125417D01*
X0426342Y0125458D01*
X0426402Y0125496D01*
X0426464Y0125531D01*
X0426528Y0125563D01*
X0426593Y0125591D01*
X0426659Y0125615D01*
X0426727Y0125636D01*
X0426796Y0125653D01*
X0426866Y0125667D01*
X0426936Y0125676D01*
X0427007Y0125682D01*
X0427078Y0125684D01*
X0428389Y0125684D01*
X0428460Y0125682D01*
X0428531Y0125676D01*
X0428601Y0125667D01*
X0428671Y0125653D01*
X0428740Y0125636D01*
X0428808Y0125615D01*
X0428874Y0125591D01*
X0428939Y0125563D01*
X0429003Y0125531D01*
X0429065Y0125496D01*
X0429125Y0125458D01*
X0429182Y0125417D01*
X0429238Y0125372D01*
X0429291Y0125325D01*
X0429341Y0125275D01*
X0429388Y0125222D01*
X0429433Y0125166D01*
X0429474Y0125109D01*
X0429512Y0125049D01*
X0429547Y0124987D01*
X0429579Y0124923D01*
X0429607Y0124858D01*
X0429631Y0124792D01*
X0429652Y0124724D01*
X0429669Y0124655D01*
X0429683Y0124585D01*
X0429692Y0124515D01*
X0429698Y0124444D01*
X0429700Y0124373D01*
X0429698Y0124302D01*
X0429692Y0124231D01*
X0429683Y0124161D01*
X0429669Y0124091D01*
X0429652Y0124022D01*
X0429631Y0123954D01*
X0429607Y0123888D01*
X0429579Y0123823D01*
X0429547Y0123759D01*
X0429512Y0123697D01*
X0429474Y0123637D01*
X0429433Y0123580D01*
X0429388Y0123524D01*
X0429341Y0123471D01*
X0429291Y0123421D01*
X0429238Y0123374D01*
X0429182Y0123329D01*
X0429125Y0123288D01*
X0429065Y0123250D01*
X0429003Y0123215D01*
X0428939Y0123183D01*
X0428874Y0123155D01*
X0428808Y0123131D01*
X0428740Y0123110D01*
X0428671Y0123093D01*
X0428601Y0123079D01*
X0428531Y0123070D01*
X0428460Y0123064D01*
X0428389Y0123062D01*
X0428717Y0128601D02*
X0425767Y0128601D01*
X0425767Y0131223D02*
X0429700Y0131223D01*
X0429700Y0129584D01*
X0429698Y0129522D01*
X0429692Y0129461D01*
X0429683Y0129400D01*
X0429669Y0129340D01*
X0429652Y0129280D01*
X0429631Y0129222D01*
X0429606Y0129165D01*
X0429578Y0129110D01*
X0429547Y0129057D01*
X0429512Y0129006D01*
X0429474Y0128957D01*
X0429434Y0128911D01*
X0429390Y0128867D01*
X0429344Y0128827D01*
X0429295Y0128789D01*
X0429244Y0128754D01*
X0429191Y0128723D01*
X0429136Y0128695D01*
X0429079Y0128670D01*
X0429021Y0128649D01*
X0428961Y0128632D01*
X0428901Y0128618D01*
X0428840Y0128609D01*
X0428779Y0128603D01*
X0428717Y0128601D01*
X0428717Y0134233D02*
X0423800Y0134233D01*
X0425767Y0133578D02*
X0425767Y0135544D01*
X0427078Y0138037D02*
X0428717Y0138037D01*
X0428779Y0138039D01*
X0428840Y0138045D01*
X0428901Y0138054D01*
X0428961Y0138068D01*
X0429021Y0138085D01*
X0429079Y0138106D01*
X0429136Y0138131D01*
X0429191Y0138159D01*
X0429244Y0138190D01*
X0429295Y0138225D01*
X0429344Y0138263D01*
X0429390Y0138303D01*
X0429434Y0138347D01*
X0429474Y0138393D01*
X0429512Y0138442D01*
X0429547Y0138493D01*
X0429578Y0138546D01*
X0429606Y0138601D01*
X0429631Y0138658D01*
X0429652Y0138716D01*
X0429669Y0138776D01*
X0429683Y0138836D01*
X0429692Y0138897D01*
X0429698Y0138958D01*
X0429700Y0139020D01*
X0429700Y0140659D01*
X0427733Y0140659D02*
X0427733Y0138037D01*
X0427078Y0138037D02*
X0427007Y0138039D01*
X0426936Y0138045D01*
X0426866Y0138054D01*
X0426796Y0138068D01*
X0426727Y0138085D01*
X0426659Y0138106D01*
X0426593Y0138130D01*
X0426528Y0138158D01*
X0426464Y0138190D01*
X0426402Y0138225D01*
X0426342Y0138263D01*
X0426285Y0138304D01*
X0426229Y0138349D01*
X0426176Y0138396D01*
X0426126Y0138446D01*
X0426079Y0138499D01*
X0426034Y0138555D01*
X0425993Y0138612D01*
X0425955Y0138672D01*
X0425920Y0138734D01*
X0425888Y0138798D01*
X0425860Y0138863D01*
X0425836Y0138929D01*
X0425815Y0138997D01*
X0425798Y0139066D01*
X0425784Y0139136D01*
X0425775Y0139206D01*
X0425769Y0139277D01*
X0425767Y0139348D01*
X0425769Y0139419D01*
X0425775Y0139490D01*
X0425784Y0139560D01*
X0425798Y0139630D01*
X0425815Y0139699D01*
X0425836Y0139767D01*
X0425860Y0139833D01*
X0425888Y0139898D01*
X0425920Y0139962D01*
X0425955Y0140024D01*
X0425993Y0140084D01*
X0426034Y0140141D01*
X0426079Y0140197D01*
X0426126Y0140250D01*
X0426176Y0140300D01*
X0426229Y0140347D01*
X0426285Y0140392D01*
X0426342Y0140433D01*
X0426402Y0140471D01*
X0426464Y0140506D01*
X0426528Y0140538D01*
X0426593Y0140566D01*
X0426659Y0140590D01*
X0426727Y0140611D01*
X0426796Y0140628D01*
X0426866Y0140642D01*
X0426936Y0140651D01*
X0427007Y0140657D01*
X0427078Y0140659D01*
X0427733Y0140659D01*
X0429700Y0135544D02*
X0429700Y0135216D01*
X0429698Y0135154D01*
X0429692Y0135093D01*
X0429683Y0135032D01*
X0429669Y0134972D01*
X0429652Y0134912D01*
X0429631Y0134854D01*
X0429606Y0134797D01*
X0429578Y0134742D01*
X0429547Y0134689D01*
X0429512Y0134638D01*
X0429474Y0134589D01*
X0429434Y0134543D01*
X0429390Y0134499D01*
X0429344Y0134459D01*
X0429295Y0134421D01*
X0429244Y0134386D01*
X0429191Y0134355D01*
X0429136Y0134327D01*
X0429079Y0134302D01*
X0429021Y0134281D01*
X0428961Y0134264D01*
X0428901Y0134250D01*
X0428840Y0134241D01*
X0428779Y0134235D01*
X0428717Y0134233D01*
X0428061Y0146735D02*
X0425439Y0146735D01*
X0425360Y0146737D01*
X0425281Y0146743D01*
X0425202Y0146752D01*
X0425124Y0146766D01*
X0425047Y0146783D01*
X0424970Y0146803D01*
X0424895Y0146828D01*
X0424821Y0146856D01*
X0424748Y0146888D01*
X0424677Y0146923D01*
X0424608Y0146961D01*
X0424541Y0147003D01*
X0424476Y0147048D01*
X0424413Y0147096D01*
X0424352Y0147147D01*
X0424294Y0147201D01*
X0424239Y0147258D01*
X0424186Y0147317D01*
X0424137Y0147379D01*
X0424090Y0147443D01*
X0424047Y0147509D01*
X0424007Y0147577D01*
X0423970Y0147648D01*
X0423936Y0147719D01*
X0423907Y0147793D01*
X0423880Y0147868D01*
X0423858Y0147943D01*
X0423839Y0148020D01*
X0423823Y0148098D01*
X0423812Y0148176D01*
X0423804Y0148255D01*
X0423800Y0148334D01*
X0423800Y0148414D01*
X0423804Y0148493D01*
X0423812Y0148572D01*
X0423823Y0148650D01*
X0423839Y0148728D01*
X0423858Y0148805D01*
X0423880Y0148880D01*
X0423907Y0148955D01*
X0423936Y0149029D01*
X0423970Y0149100D01*
X0424007Y0149171D01*
X0424047Y0149239D01*
X0424090Y0149305D01*
X0424137Y0149369D01*
X0424186Y0149431D01*
X0424239Y0149490D01*
X0424294Y0149547D01*
X0424352Y0149601D01*
X0424413Y0149652D01*
X0424476Y0149700D01*
X0424541Y0149745D01*
X0424608Y0149787D01*
X0424677Y0149825D01*
X0424748Y0149860D01*
X0424821Y0149892D01*
X0424895Y0149920D01*
X0424970Y0149945D01*
X0425047Y0149965D01*
X0425124Y0149982D01*
X0425202Y0149996D01*
X0425281Y0150005D01*
X0425360Y0150011D01*
X0425439Y0150013D01*
X0428061Y0150013D01*
X0428140Y0150011D01*
X0428219Y0150005D01*
X0428298Y0149996D01*
X0428376Y0149982D01*
X0428453Y0149965D01*
X0428530Y0149945D01*
X0428605Y0149920D01*
X0428679Y0149892D01*
X0428752Y0149860D01*
X0428823Y0149825D01*
X0428892Y0149787D01*
X0428959Y0149745D01*
X0429024Y0149700D01*
X0429087Y0149652D01*
X0429148Y0149601D01*
X0429206Y0149547D01*
X0429261Y0149490D01*
X0429314Y0149431D01*
X0429363Y0149369D01*
X0429410Y0149305D01*
X0429453Y0149239D01*
X0429493Y0149171D01*
X0429530Y0149100D01*
X0429564Y0149029D01*
X0429593Y0148955D01*
X0429620Y0148880D01*
X0429642Y0148805D01*
X0429661Y0148728D01*
X0429677Y0148650D01*
X0429688Y0148572D01*
X0429696Y0148493D01*
X0429700Y0148414D01*
X0429700Y0148334D01*
X0429696Y0148255D01*
X0429688Y0148176D01*
X0429677Y0148098D01*
X0429661Y0148020D01*
X0429642Y0147943D01*
X0429620Y0147868D01*
X0429593Y0147793D01*
X0429564Y0147719D01*
X0429530Y0147648D01*
X0429493Y0147577D01*
X0429453Y0147509D01*
X0429410Y0147443D01*
X0429363Y0147379D01*
X0429314Y0147317D01*
X0429261Y0147258D01*
X0429206Y0147201D01*
X0429148Y0147147D01*
X0429087Y0147096D01*
X0429024Y0147048D01*
X0428959Y0147003D01*
X0428892Y0146961D01*
X0428823Y0146923D01*
X0428752Y0146888D01*
X0428679Y0146856D01*
X0428605Y0146828D01*
X0428530Y0146803D01*
X0428453Y0146783D01*
X0428376Y0146766D01*
X0428298Y0146752D01*
X0428219Y0146743D01*
X0428140Y0146737D01*
X0428061Y0146735D01*
X0428717Y0153012D02*
X0425767Y0153012D01*
X0425767Y0155634D02*
X0429700Y0155634D01*
X0429700Y0153995D01*
X0429698Y0153933D01*
X0429692Y0153872D01*
X0429683Y0153811D01*
X0429669Y0153751D01*
X0429652Y0153691D01*
X0429631Y0153633D01*
X0429606Y0153576D01*
X0429578Y0153521D01*
X0429547Y0153468D01*
X0429512Y0153417D01*
X0429474Y0153368D01*
X0429434Y0153322D01*
X0429390Y0153278D01*
X0429344Y0153238D01*
X0429295Y0153200D01*
X0429244Y0153165D01*
X0429191Y0153134D01*
X0429136Y0153106D01*
X0429079Y0153081D01*
X0429021Y0153060D01*
X0428961Y0153043D01*
X0428901Y0153029D01*
X0428840Y0153020D01*
X0428779Y0153014D01*
X0428717Y0153012D01*
X0428717Y0158644D02*
X0423800Y0158644D01*
X0425767Y0157988D02*
X0425767Y0159955D01*
X0428717Y0158644D02*
X0428779Y0158646D01*
X0428840Y0158652D01*
X0428901Y0158661D01*
X0428961Y0158675D01*
X0429021Y0158692D01*
X0429079Y0158713D01*
X0429136Y0158738D01*
X0429191Y0158766D01*
X0429244Y0158797D01*
X0429295Y0158832D01*
X0429344Y0158870D01*
X0429390Y0158910D01*
X0429434Y0158954D01*
X0429474Y0159000D01*
X0429512Y0159049D01*
X0429547Y0159100D01*
X0429578Y0159153D01*
X0429606Y0159208D01*
X0429631Y0159265D01*
X0429652Y0159323D01*
X0429669Y0159383D01*
X0429683Y0159443D01*
X0429692Y0159504D01*
X0429698Y0159565D01*
X0429700Y0159627D01*
X0429700Y0159955D01*
X0429700Y0117045D02*
X0423800Y0117045D01*
X0511644Y0024878D02*
X0511778Y0024832D01*
X0511913Y0024789D01*
X0512049Y0024750D01*
X0512186Y0024714D01*
X0512323Y0024682D01*
X0512462Y0024653D01*
X0512601Y0024627D01*
X0512741Y0024606D01*
X0512882Y0024587D01*
X0513022Y0024573D01*
X0513164Y0024562D01*
X0513305Y0024554D01*
X0513447Y0024551D01*
X0513447Y0024550D02*
X0513504Y0024551D01*
X0513562Y0024556D01*
X0513619Y0024565D01*
X0513675Y0024578D01*
X0513730Y0024594D01*
X0513784Y0024614D01*
X0513836Y0024638D01*
X0513887Y0024665D01*
X0513935Y0024696D01*
X0513982Y0024730D01*
X0514026Y0024767D01*
X0514068Y0024807D01*
X0514106Y0024849D01*
X0514142Y0024894D01*
X0514175Y0024942D01*
X0514204Y0024991D01*
X0514230Y0025042D01*
X0514253Y0025095D01*
X0514271Y0025150D01*
X0514286Y0025205D01*
X0514298Y0025262D01*
X0514305Y0025319D01*
X0514309Y0025376D01*
X0514308Y0025434D01*
X0514304Y0025491D01*
X0514296Y0025548D01*
X0514284Y0025604D01*
X0514268Y0025660D01*
X0514249Y0025714D01*
X0514226Y0025766D01*
X0514199Y0025817D01*
X0514169Y0025867D01*
X0514136Y0025914D01*
X0514100Y0025958D01*
X0514061Y0026000D01*
X0514019Y0026040D01*
X0513974Y0026076D01*
X0513927Y0026109D01*
X0513878Y0026139D01*
X0513827Y0026166D01*
X0513775Y0026189D01*
X0513774Y0026189D02*
X0512136Y0026844D01*
X0512135Y0026845D02*
X0512083Y0026868D01*
X0512032Y0026895D01*
X0511983Y0026925D01*
X0511936Y0026958D01*
X0511891Y0026994D01*
X0511849Y0027034D01*
X0511810Y0027076D01*
X0511774Y0027120D01*
X0511741Y0027167D01*
X0511711Y0027217D01*
X0511684Y0027268D01*
X0511661Y0027320D01*
X0511642Y0027374D01*
X0511626Y0027430D01*
X0511614Y0027486D01*
X0511606Y0027543D01*
X0511602Y0027600D01*
X0511601Y0027658D01*
X0511605Y0027715D01*
X0511612Y0027772D01*
X0511624Y0027829D01*
X0511639Y0027884D01*
X0511657Y0027939D01*
X0511680Y0027992D01*
X0511706Y0028043D01*
X0511735Y0028092D01*
X0511768Y0028140D01*
X0511804Y0028185D01*
X0511842Y0028227D01*
X0511884Y0028267D01*
X0511928Y0028304D01*
X0511975Y0028338D01*
X0512023Y0028369D01*
X0512074Y0028396D01*
X0512126Y0028420D01*
X0512180Y0028440D01*
X0512235Y0028456D01*
X0512291Y0028469D01*
X0512348Y0028478D01*
X0512406Y0028483D01*
X0512463Y0028484D01*
X0512463Y0028483D02*
X0512580Y0028479D01*
X0512697Y0028472D01*
X0512813Y0028461D01*
X0512930Y0028447D01*
X0513045Y0028428D01*
X0513160Y0028407D01*
X0513274Y0028381D01*
X0513388Y0028352D01*
X0513500Y0028320D01*
X0513612Y0028284D01*
X0513722Y0028244D01*
X0513831Y0028201D01*
X0513938Y0028155D01*
X0516988Y0027500D02*
X0516988Y0025533D01*
X0516990Y0025471D01*
X0516996Y0025410D01*
X0517005Y0025349D01*
X0517019Y0025289D01*
X0517036Y0025229D01*
X0517057Y0025171D01*
X0517082Y0025114D01*
X0517110Y0025059D01*
X0517141Y0025006D01*
X0517176Y0024955D01*
X0517214Y0024906D01*
X0517254Y0024860D01*
X0517298Y0024816D01*
X0517344Y0024776D01*
X0517393Y0024738D01*
X0517444Y0024703D01*
X0517497Y0024672D01*
X0517552Y0024644D01*
X0517609Y0024619D01*
X0517667Y0024598D01*
X0517727Y0024581D01*
X0517787Y0024567D01*
X0517848Y0024558D01*
X0517909Y0024552D01*
X0517971Y0024550D01*
X0519282Y0024550D01*
X0521695Y0025861D02*
X0521695Y0027172D01*
X0521696Y0027172D02*
X0521698Y0027243D01*
X0521704Y0027314D01*
X0521713Y0027384D01*
X0521727Y0027454D01*
X0521744Y0027523D01*
X0521765Y0027591D01*
X0521789Y0027657D01*
X0521817Y0027722D01*
X0521849Y0027786D01*
X0521884Y0027848D01*
X0521922Y0027908D01*
X0521963Y0027965D01*
X0522008Y0028021D01*
X0522055Y0028074D01*
X0522105Y0028124D01*
X0522158Y0028171D01*
X0522214Y0028216D01*
X0522271Y0028257D01*
X0522331Y0028295D01*
X0522393Y0028330D01*
X0522457Y0028362D01*
X0522522Y0028390D01*
X0522588Y0028414D01*
X0522656Y0028435D01*
X0522725Y0028452D01*
X0522795Y0028466D01*
X0522865Y0028475D01*
X0522936Y0028481D01*
X0523007Y0028483D01*
X0523078Y0028481D01*
X0523149Y0028475D01*
X0523219Y0028466D01*
X0523289Y0028452D01*
X0523358Y0028435D01*
X0523426Y0028414D01*
X0523492Y0028390D01*
X0523557Y0028362D01*
X0523621Y0028330D01*
X0523683Y0028295D01*
X0523743Y0028257D01*
X0523800Y0028216D01*
X0523856Y0028171D01*
X0523909Y0028124D01*
X0523959Y0028074D01*
X0524006Y0028021D01*
X0524051Y0027965D01*
X0524092Y0027908D01*
X0524130Y0027848D01*
X0524165Y0027786D01*
X0524197Y0027722D01*
X0524225Y0027657D01*
X0524249Y0027591D01*
X0524270Y0027523D01*
X0524287Y0027454D01*
X0524301Y0027384D01*
X0524310Y0027314D01*
X0524316Y0027243D01*
X0524318Y0027172D01*
X0524318Y0025861D01*
X0524316Y0025790D01*
X0524310Y0025719D01*
X0524301Y0025649D01*
X0524287Y0025579D01*
X0524270Y0025510D01*
X0524249Y0025442D01*
X0524225Y0025376D01*
X0524197Y0025311D01*
X0524165Y0025247D01*
X0524130Y0025185D01*
X0524092Y0025125D01*
X0524051Y0025068D01*
X0524006Y0025012D01*
X0523959Y0024959D01*
X0523909Y0024909D01*
X0523856Y0024862D01*
X0523800Y0024817D01*
X0523743Y0024776D01*
X0523683Y0024738D01*
X0523621Y0024703D01*
X0523557Y0024671D01*
X0523492Y0024643D01*
X0523426Y0024619D01*
X0523358Y0024598D01*
X0523289Y0024581D01*
X0523219Y0024567D01*
X0523149Y0024558D01*
X0523078Y0024552D01*
X0523007Y0024550D01*
X0522936Y0024552D01*
X0522865Y0024558D01*
X0522795Y0024567D01*
X0522725Y0024581D01*
X0522656Y0024598D01*
X0522588Y0024619D01*
X0522522Y0024643D01*
X0522457Y0024671D01*
X0522393Y0024703D01*
X0522331Y0024738D01*
X0522271Y0024776D01*
X0522214Y0024817D01*
X0522158Y0024862D01*
X0522105Y0024909D01*
X0522055Y0024959D01*
X0522008Y0025012D01*
X0521963Y0025068D01*
X0521922Y0025125D01*
X0521884Y0025185D01*
X0521849Y0025247D01*
X0521817Y0025311D01*
X0521789Y0025376D01*
X0521765Y0025442D01*
X0521744Y0025510D01*
X0521727Y0025579D01*
X0521713Y0025649D01*
X0521704Y0025719D01*
X0521698Y0025790D01*
X0521696Y0025861D01*
X0519282Y0028483D02*
X0517971Y0028483D01*
X0517909Y0028481D01*
X0517848Y0028475D01*
X0517787Y0028466D01*
X0517727Y0028452D01*
X0517667Y0028435D01*
X0517609Y0028414D01*
X0517552Y0028389D01*
X0517497Y0028361D01*
X0517444Y0028330D01*
X0517393Y0028295D01*
X0517344Y0028257D01*
X0517298Y0028217D01*
X0517254Y0028173D01*
X0517214Y0028127D01*
X0517176Y0028078D01*
X0517141Y0028027D01*
X0517110Y0027974D01*
X0517082Y0027919D01*
X0517057Y0027862D01*
X0517036Y0027804D01*
X0517019Y0027744D01*
X0517005Y0027684D01*
X0516996Y0027623D01*
X0516990Y0027562D01*
X0516988Y0027500D01*
X0508768Y0026844D02*
X0504834Y0026844D01*
X0502163Y0028483D02*
X0500852Y0024550D01*
X0499541Y0028483D01*
X0527284Y0028483D02*
X0527284Y0024550D01*
X0529251Y0027828D02*
X0529251Y0028483D01*
X0527284Y0028483D01*
X0531337Y0027172D02*
X0531337Y0025533D01*
X0531339Y0025471D01*
X0531345Y0025410D01*
X0531354Y0025349D01*
X0531368Y0025289D01*
X0531385Y0025229D01*
X0531406Y0025171D01*
X0531431Y0025114D01*
X0531459Y0025059D01*
X0531490Y0025006D01*
X0531525Y0024955D01*
X0531563Y0024906D01*
X0531603Y0024860D01*
X0531647Y0024816D01*
X0531693Y0024776D01*
X0531742Y0024738D01*
X0531793Y0024703D01*
X0531846Y0024672D01*
X0531901Y0024644D01*
X0531958Y0024619D01*
X0532016Y0024598D01*
X0532076Y0024581D01*
X0532136Y0024567D01*
X0532197Y0024558D01*
X0532258Y0024552D01*
X0532320Y0024550D01*
X0533959Y0024550D01*
X0533959Y0026517D02*
X0531337Y0026517D01*
X0531337Y0027172D02*
X0531339Y0027243D01*
X0531345Y0027314D01*
X0531354Y0027384D01*
X0531368Y0027454D01*
X0531385Y0027523D01*
X0531406Y0027591D01*
X0531430Y0027657D01*
X0531458Y0027722D01*
X0531490Y0027786D01*
X0531525Y0027848D01*
X0531563Y0027908D01*
X0531604Y0027965D01*
X0531649Y0028021D01*
X0531696Y0028074D01*
X0531746Y0028124D01*
X0531799Y0028171D01*
X0531855Y0028216D01*
X0531912Y0028257D01*
X0531972Y0028295D01*
X0532034Y0028330D01*
X0532098Y0028362D01*
X0532163Y0028390D01*
X0532229Y0028414D01*
X0532297Y0028435D01*
X0532366Y0028452D01*
X0532436Y0028466D01*
X0532506Y0028475D01*
X0532577Y0028481D01*
X0532648Y0028483D01*
X0532719Y0028481D01*
X0532790Y0028475D01*
X0532860Y0028466D01*
X0532930Y0028452D01*
X0532999Y0028435D01*
X0533067Y0028414D01*
X0533133Y0028390D01*
X0533198Y0028362D01*
X0533262Y0028330D01*
X0533324Y0028295D01*
X0533384Y0028257D01*
X0533441Y0028216D01*
X0533497Y0028171D01*
X0533550Y0028124D01*
X0533600Y0028074D01*
X0533647Y0028021D01*
X0533692Y0027965D01*
X0533733Y0027908D01*
X0533771Y0027848D01*
X0533806Y0027786D01*
X0533838Y0027722D01*
X0533866Y0027657D01*
X0533890Y0027591D01*
X0533911Y0027523D01*
X0533928Y0027454D01*
X0533942Y0027384D01*
X0533951Y0027314D01*
X0533957Y0027243D01*
X0533959Y0027172D01*
X0533959Y0026517D01*
X0533959Y0246550D02*
X0532320Y0246550D01*
X0532258Y0246552D01*
X0532197Y0246558D01*
X0532136Y0246567D01*
X0532076Y0246581D01*
X0532016Y0246598D01*
X0531958Y0246619D01*
X0531901Y0246644D01*
X0531846Y0246672D01*
X0531793Y0246703D01*
X0531742Y0246738D01*
X0531693Y0246776D01*
X0531647Y0246816D01*
X0531603Y0246860D01*
X0531563Y0246906D01*
X0531525Y0246955D01*
X0531490Y0247006D01*
X0531459Y0247059D01*
X0531431Y0247114D01*
X0531406Y0247171D01*
X0531385Y0247229D01*
X0531368Y0247289D01*
X0531354Y0247349D01*
X0531345Y0247410D01*
X0531339Y0247471D01*
X0531337Y0247533D01*
X0531337Y0249172D01*
X0531337Y0248517D02*
X0533959Y0248517D01*
X0533959Y0249172D01*
X0533957Y0249243D01*
X0533951Y0249314D01*
X0533942Y0249384D01*
X0533928Y0249454D01*
X0533911Y0249523D01*
X0533890Y0249591D01*
X0533866Y0249657D01*
X0533838Y0249722D01*
X0533806Y0249786D01*
X0533771Y0249848D01*
X0533733Y0249908D01*
X0533692Y0249965D01*
X0533647Y0250021D01*
X0533600Y0250074D01*
X0533550Y0250124D01*
X0533497Y0250171D01*
X0533441Y0250216D01*
X0533384Y0250257D01*
X0533324Y0250295D01*
X0533262Y0250330D01*
X0533198Y0250362D01*
X0533133Y0250390D01*
X0533067Y0250414D01*
X0532999Y0250435D01*
X0532930Y0250452D01*
X0532860Y0250466D01*
X0532790Y0250475D01*
X0532719Y0250481D01*
X0532648Y0250483D01*
X0532577Y0250481D01*
X0532506Y0250475D01*
X0532436Y0250466D01*
X0532366Y0250452D01*
X0532297Y0250435D01*
X0532229Y0250414D01*
X0532163Y0250390D01*
X0532098Y0250362D01*
X0532034Y0250330D01*
X0531972Y0250295D01*
X0531912Y0250257D01*
X0531855Y0250216D01*
X0531799Y0250171D01*
X0531746Y0250124D01*
X0531696Y0250074D01*
X0531649Y0250021D01*
X0531604Y0249965D01*
X0531563Y0249908D01*
X0531525Y0249848D01*
X0531490Y0249786D01*
X0531458Y0249722D01*
X0531430Y0249657D01*
X0531406Y0249591D01*
X0531385Y0249523D01*
X0531368Y0249454D01*
X0531354Y0249384D01*
X0531345Y0249314D01*
X0531339Y0249243D01*
X0531337Y0249172D01*
X0529251Y0249828D02*
X0529251Y0250483D01*
X0527284Y0250483D01*
X0527284Y0246550D01*
X0524318Y0247861D02*
X0524318Y0249172D01*
X0524316Y0249243D01*
X0524310Y0249314D01*
X0524301Y0249384D01*
X0524287Y0249454D01*
X0524270Y0249523D01*
X0524249Y0249591D01*
X0524225Y0249657D01*
X0524197Y0249722D01*
X0524165Y0249786D01*
X0524130Y0249848D01*
X0524092Y0249908D01*
X0524051Y0249965D01*
X0524006Y0250021D01*
X0523959Y0250074D01*
X0523909Y0250124D01*
X0523856Y0250171D01*
X0523800Y0250216D01*
X0523743Y0250257D01*
X0523683Y0250295D01*
X0523621Y0250330D01*
X0523557Y0250362D01*
X0523492Y0250390D01*
X0523426Y0250414D01*
X0523358Y0250435D01*
X0523289Y0250452D01*
X0523219Y0250466D01*
X0523149Y0250475D01*
X0523078Y0250481D01*
X0523007Y0250483D01*
X0522936Y0250481D01*
X0522865Y0250475D01*
X0522795Y0250466D01*
X0522725Y0250452D01*
X0522656Y0250435D01*
X0522588Y0250414D01*
X0522522Y0250390D01*
X0522457Y0250362D01*
X0522393Y0250330D01*
X0522331Y0250295D01*
X0522271Y0250257D01*
X0522214Y0250216D01*
X0522158Y0250171D01*
X0522105Y0250124D01*
X0522055Y0250074D01*
X0522008Y0250021D01*
X0521963Y0249965D01*
X0521922Y0249908D01*
X0521884Y0249848D01*
X0521849Y0249786D01*
X0521817Y0249722D01*
X0521789Y0249657D01*
X0521765Y0249591D01*
X0521744Y0249523D01*
X0521727Y0249454D01*
X0521713Y0249384D01*
X0521704Y0249314D01*
X0521698Y0249243D01*
X0521696Y0249172D01*
X0521695Y0249172D02*
X0521695Y0247861D01*
X0521696Y0247861D02*
X0521698Y0247790D01*
X0521704Y0247719D01*
X0521713Y0247649D01*
X0521727Y0247579D01*
X0521744Y0247510D01*
X0521765Y0247442D01*
X0521789Y0247376D01*
X0521817Y0247311D01*
X0521849Y0247247D01*
X0521884Y0247185D01*
X0521922Y0247125D01*
X0521963Y0247068D01*
X0522008Y0247012D01*
X0522055Y0246959D01*
X0522105Y0246909D01*
X0522158Y0246862D01*
X0522214Y0246817D01*
X0522271Y0246776D01*
X0522331Y0246738D01*
X0522393Y0246703D01*
X0522457Y0246671D01*
X0522522Y0246643D01*
X0522588Y0246619D01*
X0522656Y0246598D01*
X0522725Y0246581D01*
X0522795Y0246567D01*
X0522865Y0246558D01*
X0522936Y0246552D01*
X0523007Y0246550D01*
X0523078Y0246552D01*
X0523149Y0246558D01*
X0523219Y0246567D01*
X0523289Y0246581D01*
X0523358Y0246598D01*
X0523426Y0246619D01*
X0523492Y0246643D01*
X0523557Y0246671D01*
X0523621Y0246703D01*
X0523683Y0246738D01*
X0523743Y0246776D01*
X0523800Y0246817D01*
X0523856Y0246862D01*
X0523909Y0246909D01*
X0523959Y0246959D01*
X0524006Y0247012D01*
X0524051Y0247068D01*
X0524092Y0247125D01*
X0524130Y0247185D01*
X0524165Y0247247D01*
X0524197Y0247311D01*
X0524225Y0247376D01*
X0524249Y0247442D01*
X0524270Y0247510D01*
X0524287Y0247579D01*
X0524301Y0247649D01*
X0524310Y0247719D01*
X0524316Y0247790D01*
X0524318Y0247861D01*
X0519282Y0246550D02*
X0517971Y0246550D01*
X0517909Y0246552D01*
X0517848Y0246558D01*
X0517787Y0246567D01*
X0517727Y0246581D01*
X0517667Y0246598D01*
X0517609Y0246619D01*
X0517552Y0246644D01*
X0517497Y0246672D01*
X0517444Y0246703D01*
X0517393Y0246738D01*
X0517344Y0246776D01*
X0517298Y0246816D01*
X0517254Y0246860D01*
X0517214Y0246906D01*
X0517176Y0246955D01*
X0517141Y0247006D01*
X0517110Y0247059D01*
X0517082Y0247114D01*
X0517057Y0247171D01*
X0517036Y0247229D01*
X0517019Y0247289D01*
X0517005Y0247349D01*
X0516996Y0247410D01*
X0516990Y0247471D01*
X0516988Y0247533D01*
X0516988Y0249500D01*
X0516990Y0249562D01*
X0516996Y0249623D01*
X0517005Y0249684D01*
X0517019Y0249744D01*
X0517036Y0249804D01*
X0517057Y0249862D01*
X0517082Y0249919D01*
X0517110Y0249974D01*
X0517141Y0250027D01*
X0517176Y0250078D01*
X0517214Y0250127D01*
X0517254Y0250173D01*
X0517298Y0250217D01*
X0517344Y0250257D01*
X0517393Y0250295D01*
X0517444Y0250330D01*
X0517497Y0250361D01*
X0517552Y0250389D01*
X0517609Y0250414D01*
X0517667Y0250435D01*
X0517727Y0250452D01*
X0517787Y0250466D01*
X0517848Y0250475D01*
X0517909Y0250481D01*
X0517971Y0250483D01*
X0519282Y0250483D01*
X0513774Y0248189D02*
X0512136Y0248844D01*
X0512135Y0248845D02*
X0512083Y0248868D01*
X0512032Y0248895D01*
X0511983Y0248925D01*
X0511936Y0248958D01*
X0511891Y0248994D01*
X0511849Y0249034D01*
X0511810Y0249076D01*
X0511774Y0249120D01*
X0511741Y0249167D01*
X0511711Y0249217D01*
X0511684Y0249268D01*
X0511661Y0249320D01*
X0511642Y0249374D01*
X0511626Y0249430D01*
X0511614Y0249486D01*
X0511606Y0249543D01*
X0511602Y0249600D01*
X0511601Y0249658D01*
X0511605Y0249715D01*
X0511612Y0249772D01*
X0511624Y0249829D01*
X0511639Y0249884D01*
X0511657Y0249939D01*
X0511680Y0249992D01*
X0511706Y0250043D01*
X0511735Y0250092D01*
X0511768Y0250140D01*
X0511804Y0250185D01*
X0511842Y0250227D01*
X0511884Y0250267D01*
X0511928Y0250304D01*
X0511975Y0250338D01*
X0512023Y0250369D01*
X0512074Y0250396D01*
X0512126Y0250420D01*
X0512180Y0250440D01*
X0512235Y0250456D01*
X0512291Y0250469D01*
X0512348Y0250478D01*
X0512406Y0250483D01*
X0512463Y0250484D01*
X0511644Y0246878D02*
X0511778Y0246832D01*
X0511913Y0246789D01*
X0512049Y0246750D01*
X0512186Y0246714D01*
X0512323Y0246682D01*
X0512462Y0246653D01*
X0512601Y0246627D01*
X0512741Y0246606D01*
X0512882Y0246587D01*
X0513022Y0246573D01*
X0513164Y0246562D01*
X0513305Y0246554D01*
X0513447Y0246551D01*
X0513447Y0246550D02*
X0513504Y0246551D01*
X0513562Y0246556D01*
X0513619Y0246565D01*
X0513675Y0246578D01*
X0513730Y0246594D01*
X0513784Y0246614D01*
X0513836Y0246638D01*
X0513887Y0246665D01*
X0513935Y0246696D01*
X0513982Y0246730D01*
X0514026Y0246767D01*
X0514068Y0246807D01*
X0514106Y0246849D01*
X0514142Y0246894D01*
X0514175Y0246942D01*
X0514204Y0246991D01*
X0514230Y0247042D01*
X0514253Y0247095D01*
X0514271Y0247150D01*
X0514286Y0247205D01*
X0514298Y0247262D01*
X0514305Y0247319D01*
X0514309Y0247376D01*
X0514308Y0247434D01*
X0514304Y0247491D01*
X0514296Y0247548D01*
X0514284Y0247604D01*
X0514268Y0247660D01*
X0514249Y0247714D01*
X0514226Y0247766D01*
X0514199Y0247817D01*
X0514169Y0247867D01*
X0514136Y0247914D01*
X0514100Y0247958D01*
X0514061Y0248000D01*
X0514019Y0248040D01*
X0513974Y0248076D01*
X0513927Y0248109D01*
X0513878Y0248139D01*
X0513827Y0248166D01*
X0513775Y0248189D01*
X0513938Y0250155D02*
X0513831Y0250201D01*
X0513722Y0250244D01*
X0513612Y0250284D01*
X0513500Y0250320D01*
X0513388Y0250352D01*
X0513274Y0250381D01*
X0513160Y0250407D01*
X0513045Y0250428D01*
X0512930Y0250447D01*
X0512813Y0250461D01*
X0512697Y0250472D01*
X0512580Y0250479D01*
X0512463Y0250483D01*
X0508768Y0248844D02*
X0504834Y0248844D01*
X0502163Y0250483D02*
X0500852Y0246550D01*
X0499541Y0250483D01*
X0429700Y0339045D02*
X0423800Y0339045D01*
X0423800Y0340684D01*
X0423802Y0340763D01*
X0423808Y0340842D01*
X0423817Y0340921D01*
X0423831Y0340999D01*
X0423848Y0341076D01*
X0423868Y0341153D01*
X0423893Y0341228D01*
X0423921Y0341302D01*
X0423953Y0341375D01*
X0423988Y0341446D01*
X0424026Y0341515D01*
X0424068Y0341582D01*
X0424113Y0341647D01*
X0424161Y0341710D01*
X0424212Y0341771D01*
X0424266Y0341829D01*
X0424323Y0341884D01*
X0424382Y0341937D01*
X0424444Y0341986D01*
X0424508Y0342033D01*
X0424574Y0342076D01*
X0424642Y0342116D01*
X0424713Y0342153D01*
X0424784Y0342187D01*
X0424858Y0342216D01*
X0424933Y0342243D01*
X0425008Y0342265D01*
X0425085Y0342284D01*
X0425163Y0342300D01*
X0425241Y0342311D01*
X0425320Y0342319D01*
X0425399Y0342323D01*
X0425479Y0342323D01*
X0425558Y0342319D01*
X0425637Y0342311D01*
X0425715Y0342300D01*
X0425793Y0342284D01*
X0425870Y0342265D01*
X0425945Y0342243D01*
X0426020Y0342216D01*
X0426094Y0342187D01*
X0426165Y0342153D01*
X0426236Y0342116D01*
X0426304Y0342076D01*
X0426370Y0342033D01*
X0426434Y0341986D01*
X0426496Y0341937D01*
X0426555Y0341884D01*
X0426612Y0341829D01*
X0426666Y0341771D01*
X0426717Y0341710D01*
X0426765Y0341647D01*
X0426810Y0341582D01*
X0426852Y0341515D01*
X0426890Y0341446D01*
X0426925Y0341375D01*
X0426957Y0341302D01*
X0426985Y0341228D01*
X0427010Y0341153D01*
X0427030Y0341076D01*
X0427047Y0340999D01*
X0427061Y0340921D01*
X0427070Y0340842D01*
X0427076Y0340763D01*
X0427078Y0340684D01*
X0427078Y0339045D01*
X0427078Y0341012D02*
X0429700Y0342323D01*
X0428389Y0345062D02*
X0427078Y0345062D01*
X0427007Y0345064D01*
X0426936Y0345070D01*
X0426866Y0345079D01*
X0426796Y0345093D01*
X0426727Y0345110D01*
X0426659Y0345131D01*
X0426593Y0345155D01*
X0426528Y0345183D01*
X0426464Y0345215D01*
X0426402Y0345250D01*
X0426342Y0345288D01*
X0426285Y0345329D01*
X0426229Y0345374D01*
X0426176Y0345421D01*
X0426126Y0345471D01*
X0426079Y0345524D01*
X0426034Y0345580D01*
X0425993Y0345637D01*
X0425955Y0345697D01*
X0425920Y0345759D01*
X0425888Y0345823D01*
X0425860Y0345888D01*
X0425836Y0345954D01*
X0425815Y0346022D01*
X0425798Y0346091D01*
X0425784Y0346161D01*
X0425775Y0346231D01*
X0425769Y0346302D01*
X0425767Y0346373D01*
X0425769Y0346444D01*
X0425775Y0346515D01*
X0425784Y0346585D01*
X0425798Y0346655D01*
X0425815Y0346724D01*
X0425836Y0346792D01*
X0425860Y0346858D01*
X0425888Y0346923D01*
X0425920Y0346987D01*
X0425955Y0347049D01*
X0425993Y0347109D01*
X0426034Y0347166D01*
X0426079Y0347222D01*
X0426126Y0347275D01*
X0426176Y0347325D01*
X0426229Y0347372D01*
X0426285Y0347417D01*
X0426342Y0347458D01*
X0426402Y0347496D01*
X0426464Y0347531D01*
X0426528Y0347563D01*
X0426593Y0347591D01*
X0426659Y0347615D01*
X0426727Y0347636D01*
X0426796Y0347653D01*
X0426866Y0347667D01*
X0426936Y0347676D01*
X0427007Y0347682D01*
X0427078Y0347684D01*
X0428389Y0347684D01*
X0428460Y0347682D01*
X0428531Y0347676D01*
X0428601Y0347667D01*
X0428671Y0347653D01*
X0428740Y0347636D01*
X0428808Y0347615D01*
X0428874Y0347591D01*
X0428939Y0347563D01*
X0429003Y0347531D01*
X0429065Y0347496D01*
X0429125Y0347458D01*
X0429182Y0347417D01*
X0429238Y0347372D01*
X0429291Y0347325D01*
X0429341Y0347275D01*
X0429388Y0347222D01*
X0429433Y0347166D01*
X0429474Y0347109D01*
X0429512Y0347049D01*
X0429547Y0346987D01*
X0429579Y0346923D01*
X0429607Y0346858D01*
X0429631Y0346792D01*
X0429652Y0346724D01*
X0429669Y0346655D01*
X0429683Y0346585D01*
X0429692Y0346515D01*
X0429698Y0346444D01*
X0429700Y0346373D01*
X0429698Y0346302D01*
X0429692Y0346231D01*
X0429683Y0346161D01*
X0429669Y0346091D01*
X0429652Y0346022D01*
X0429631Y0345954D01*
X0429607Y0345888D01*
X0429579Y0345823D01*
X0429547Y0345759D01*
X0429512Y0345697D01*
X0429474Y0345637D01*
X0429433Y0345580D01*
X0429388Y0345524D01*
X0429341Y0345471D01*
X0429291Y0345421D01*
X0429238Y0345374D01*
X0429182Y0345329D01*
X0429125Y0345288D01*
X0429065Y0345250D01*
X0429003Y0345215D01*
X0428939Y0345183D01*
X0428874Y0345155D01*
X0428808Y0345131D01*
X0428740Y0345110D01*
X0428671Y0345093D01*
X0428601Y0345079D01*
X0428531Y0345070D01*
X0428460Y0345064D01*
X0428389Y0345062D01*
X0428717Y0350601D02*
X0425767Y0350601D01*
X0425767Y0353223D02*
X0429700Y0353223D01*
X0429700Y0351584D01*
X0429698Y0351522D01*
X0429692Y0351461D01*
X0429683Y0351400D01*
X0429669Y0351340D01*
X0429652Y0351280D01*
X0429631Y0351222D01*
X0429606Y0351165D01*
X0429578Y0351110D01*
X0429547Y0351057D01*
X0429512Y0351006D01*
X0429474Y0350957D01*
X0429434Y0350911D01*
X0429390Y0350867D01*
X0429344Y0350827D01*
X0429295Y0350789D01*
X0429244Y0350754D01*
X0429191Y0350723D01*
X0429136Y0350695D01*
X0429079Y0350670D01*
X0429021Y0350649D01*
X0428961Y0350632D01*
X0428901Y0350618D01*
X0428840Y0350609D01*
X0428779Y0350603D01*
X0428717Y0350601D01*
X0428717Y0356233D02*
X0423800Y0356233D01*
X0425767Y0355578D02*
X0425767Y0357544D01*
X0427078Y0360037D02*
X0428717Y0360037D01*
X0428779Y0360039D01*
X0428840Y0360045D01*
X0428901Y0360054D01*
X0428961Y0360068D01*
X0429021Y0360085D01*
X0429079Y0360106D01*
X0429136Y0360131D01*
X0429191Y0360159D01*
X0429244Y0360190D01*
X0429295Y0360225D01*
X0429344Y0360263D01*
X0429390Y0360303D01*
X0429434Y0360347D01*
X0429474Y0360393D01*
X0429512Y0360442D01*
X0429547Y0360493D01*
X0429578Y0360546D01*
X0429606Y0360601D01*
X0429631Y0360658D01*
X0429652Y0360716D01*
X0429669Y0360776D01*
X0429683Y0360836D01*
X0429692Y0360897D01*
X0429698Y0360958D01*
X0429700Y0361020D01*
X0429700Y0362659D01*
X0427733Y0362659D02*
X0427733Y0360037D01*
X0427078Y0360037D02*
X0427007Y0360039D01*
X0426936Y0360045D01*
X0426866Y0360054D01*
X0426796Y0360068D01*
X0426727Y0360085D01*
X0426659Y0360106D01*
X0426593Y0360130D01*
X0426528Y0360158D01*
X0426464Y0360190D01*
X0426402Y0360225D01*
X0426342Y0360263D01*
X0426285Y0360304D01*
X0426229Y0360349D01*
X0426176Y0360396D01*
X0426126Y0360446D01*
X0426079Y0360499D01*
X0426034Y0360555D01*
X0425993Y0360612D01*
X0425955Y0360672D01*
X0425920Y0360734D01*
X0425888Y0360798D01*
X0425860Y0360863D01*
X0425836Y0360929D01*
X0425815Y0360997D01*
X0425798Y0361066D01*
X0425784Y0361136D01*
X0425775Y0361206D01*
X0425769Y0361277D01*
X0425767Y0361348D01*
X0425769Y0361419D01*
X0425775Y0361490D01*
X0425784Y0361560D01*
X0425798Y0361630D01*
X0425815Y0361699D01*
X0425836Y0361767D01*
X0425860Y0361833D01*
X0425888Y0361898D01*
X0425920Y0361962D01*
X0425955Y0362024D01*
X0425993Y0362084D01*
X0426034Y0362141D01*
X0426079Y0362197D01*
X0426126Y0362250D01*
X0426176Y0362300D01*
X0426229Y0362347D01*
X0426285Y0362392D01*
X0426342Y0362433D01*
X0426402Y0362471D01*
X0426464Y0362506D01*
X0426528Y0362538D01*
X0426593Y0362566D01*
X0426659Y0362590D01*
X0426727Y0362611D01*
X0426796Y0362628D01*
X0426866Y0362642D01*
X0426936Y0362651D01*
X0427007Y0362657D01*
X0427078Y0362659D01*
X0427733Y0362659D01*
X0429700Y0357544D02*
X0429700Y0357216D01*
X0429698Y0357154D01*
X0429692Y0357093D01*
X0429683Y0357032D01*
X0429669Y0356972D01*
X0429652Y0356912D01*
X0429631Y0356854D01*
X0429606Y0356797D01*
X0429578Y0356742D01*
X0429547Y0356689D01*
X0429512Y0356638D01*
X0429474Y0356589D01*
X0429434Y0356543D01*
X0429390Y0356499D01*
X0429344Y0356459D01*
X0429295Y0356421D01*
X0429244Y0356386D01*
X0429191Y0356355D01*
X0429136Y0356327D01*
X0429079Y0356302D01*
X0429021Y0356281D01*
X0428961Y0356264D01*
X0428901Y0356250D01*
X0428840Y0356241D01*
X0428779Y0356235D01*
X0428717Y0356233D01*
X0428061Y0368735D02*
X0425439Y0368735D01*
X0425360Y0368737D01*
X0425281Y0368743D01*
X0425202Y0368752D01*
X0425124Y0368766D01*
X0425047Y0368783D01*
X0424970Y0368803D01*
X0424895Y0368828D01*
X0424821Y0368856D01*
X0424748Y0368888D01*
X0424677Y0368923D01*
X0424608Y0368961D01*
X0424541Y0369003D01*
X0424476Y0369048D01*
X0424413Y0369096D01*
X0424352Y0369147D01*
X0424294Y0369201D01*
X0424239Y0369258D01*
X0424186Y0369317D01*
X0424137Y0369379D01*
X0424090Y0369443D01*
X0424047Y0369509D01*
X0424007Y0369577D01*
X0423970Y0369648D01*
X0423936Y0369719D01*
X0423907Y0369793D01*
X0423880Y0369868D01*
X0423858Y0369943D01*
X0423839Y0370020D01*
X0423823Y0370098D01*
X0423812Y0370176D01*
X0423804Y0370255D01*
X0423800Y0370334D01*
X0423800Y0370414D01*
X0423804Y0370493D01*
X0423812Y0370572D01*
X0423823Y0370650D01*
X0423839Y0370728D01*
X0423858Y0370805D01*
X0423880Y0370880D01*
X0423907Y0370955D01*
X0423936Y0371029D01*
X0423970Y0371100D01*
X0424007Y0371171D01*
X0424047Y0371239D01*
X0424090Y0371305D01*
X0424137Y0371369D01*
X0424186Y0371431D01*
X0424239Y0371490D01*
X0424294Y0371547D01*
X0424352Y0371601D01*
X0424413Y0371652D01*
X0424476Y0371700D01*
X0424541Y0371745D01*
X0424608Y0371787D01*
X0424677Y0371825D01*
X0424748Y0371860D01*
X0424821Y0371892D01*
X0424895Y0371920D01*
X0424970Y0371945D01*
X0425047Y0371965D01*
X0425124Y0371982D01*
X0425202Y0371996D01*
X0425281Y0372005D01*
X0425360Y0372011D01*
X0425439Y0372013D01*
X0428061Y0372013D01*
X0428140Y0372011D01*
X0428219Y0372005D01*
X0428298Y0371996D01*
X0428376Y0371982D01*
X0428453Y0371965D01*
X0428530Y0371945D01*
X0428605Y0371920D01*
X0428679Y0371892D01*
X0428752Y0371860D01*
X0428823Y0371825D01*
X0428892Y0371787D01*
X0428959Y0371745D01*
X0429024Y0371700D01*
X0429087Y0371652D01*
X0429148Y0371601D01*
X0429206Y0371547D01*
X0429261Y0371490D01*
X0429314Y0371431D01*
X0429363Y0371369D01*
X0429410Y0371305D01*
X0429453Y0371239D01*
X0429493Y0371171D01*
X0429530Y0371100D01*
X0429564Y0371029D01*
X0429593Y0370955D01*
X0429620Y0370880D01*
X0429642Y0370805D01*
X0429661Y0370728D01*
X0429677Y0370650D01*
X0429688Y0370572D01*
X0429696Y0370493D01*
X0429700Y0370414D01*
X0429700Y0370334D01*
X0429696Y0370255D01*
X0429688Y0370176D01*
X0429677Y0370098D01*
X0429661Y0370020D01*
X0429642Y0369943D01*
X0429620Y0369868D01*
X0429593Y0369793D01*
X0429564Y0369719D01*
X0429530Y0369648D01*
X0429493Y0369577D01*
X0429453Y0369509D01*
X0429410Y0369443D01*
X0429363Y0369379D01*
X0429314Y0369317D01*
X0429261Y0369258D01*
X0429206Y0369201D01*
X0429148Y0369147D01*
X0429087Y0369096D01*
X0429024Y0369048D01*
X0428959Y0369003D01*
X0428892Y0368961D01*
X0428823Y0368923D01*
X0428752Y0368888D01*
X0428679Y0368856D01*
X0428605Y0368828D01*
X0428530Y0368803D01*
X0428453Y0368783D01*
X0428376Y0368766D01*
X0428298Y0368752D01*
X0428219Y0368743D01*
X0428140Y0368737D01*
X0428061Y0368735D01*
X0428717Y0375012D02*
X0425767Y0375012D01*
X0425767Y0377634D02*
X0429700Y0377634D01*
X0429700Y0375995D01*
X0429698Y0375933D01*
X0429692Y0375872D01*
X0429683Y0375811D01*
X0429669Y0375751D01*
X0429652Y0375691D01*
X0429631Y0375633D01*
X0429606Y0375576D01*
X0429578Y0375521D01*
X0429547Y0375468D01*
X0429512Y0375417D01*
X0429474Y0375368D01*
X0429434Y0375322D01*
X0429390Y0375278D01*
X0429344Y0375238D01*
X0429295Y0375200D01*
X0429244Y0375165D01*
X0429191Y0375134D01*
X0429136Y0375106D01*
X0429079Y0375081D01*
X0429021Y0375060D01*
X0428961Y0375043D01*
X0428901Y0375029D01*
X0428840Y0375020D01*
X0428779Y0375014D01*
X0428717Y0375012D01*
X0428717Y0380644D02*
X0423800Y0380644D01*
X0425767Y0379988D02*
X0425767Y0381955D01*
X0428717Y0380644D02*
X0428779Y0380646D01*
X0428840Y0380652D01*
X0428901Y0380661D01*
X0428961Y0380675D01*
X0429021Y0380692D01*
X0429079Y0380713D01*
X0429136Y0380738D01*
X0429191Y0380766D01*
X0429244Y0380797D01*
X0429295Y0380832D01*
X0429344Y0380870D01*
X0429390Y0380910D01*
X0429434Y0380954D01*
X0429474Y0381000D01*
X0429512Y0381049D01*
X0429547Y0381100D01*
X0429578Y0381153D01*
X0429606Y0381208D01*
X0429631Y0381265D01*
X0429652Y0381323D01*
X0429669Y0381383D01*
X0429683Y0381443D01*
X0429692Y0381504D01*
X0429698Y0381565D01*
X0429700Y0381627D01*
X0429700Y0381955D01*
X0500852Y0468550D02*
X0502163Y0472483D01*
X0499541Y0472483D02*
X0500852Y0468550D01*
X0504834Y0470844D02*
X0508768Y0470844D01*
X0512136Y0470844D02*
X0513774Y0470189D01*
X0513775Y0470189D02*
X0513827Y0470166D01*
X0513878Y0470139D01*
X0513927Y0470109D01*
X0513974Y0470076D01*
X0514019Y0470040D01*
X0514061Y0470000D01*
X0514100Y0469958D01*
X0514136Y0469914D01*
X0514169Y0469867D01*
X0514199Y0469817D01*
X0514226Y0469766D01*
X0514249Y0469714D01*
X0514268Y0469660D01*
X0514284Y0469604D01*
X0514296Y0469548D01*
X0514304Y0469491D01*
X0514308Y0469434D01*
X0514309Y0469376D01*
X0514305Y0469319D01*
X0514298Y0469262D01*
X0514286Y0469205D01*
X0514271Y0469150D01*
X0514253Y0469095D01*
X0514230Y0469042D01*
X0514204Y0468991D01*
X0514175Y0468942D01*
X0514142Y0468894D01*
X0514106Y0468849D01*
X0514068Y0468807D01*
X0514026Y0468767D01*
X0513982Y0468730D01*
X0513935Y0468696D01*
X0513887Y0468665D01*
X0513836Y0468638D01*
X0513784Y0468614D01*
X0513730Y0468594D01*
X0513675Y0468578D01*
X0513619Y0468565D01*
X0513562Y0468556D01*
X0513504Y0468551D01*
X0513447Y0468550D01*
X0513938Y0472155D02*
X0513831Y0472201D01*
X0513722Y0472244D01*
X0513612Y0472284D01*
X0513500Y0472320D01*
X0513388Y0472352D01*
X0513274Y0472381D01*
X0513160Y0472407D01*
X0513045Y0472428D01*
X0512930Y0472447D01*
X0512813Y0472461D01*
X0512697Y0472472D01*
X0512580Y0472479D01*
X0512463Y0472483D01*
X0512463Y0472484D02*
X0512406Y0472483D01*
X0512348Y0472478D01*
X0512291Y0472469D01*
X0512235Y0472456D01*
X0512180Y0472440D01*
X0512126Y0472420D01*
X0512074Y0472396D01*
X0512023Y0472369D01*
X0511975Y0472338D01*
X0511928Y0472304D01*
X0511884Y0472267D01*
X0511842Y0472227D01*
X0511804Y0472185D01*
X0511768Y0472140D01*
X0511735Y0472092D01*
X0511706Y0472043D01*
X0511680Y0471992D01*
X0511657Y0471939D01*
X0511639Y0471884D01*
X0511624Y0471829D01*
X0511612Y0471772D01*
X0511605Y0471715D01*
X0511601Y0471658D01*
X0511602Y0471600D01*
X0511606Y0471543D01*
X0511614Y0471486D01*
X0511626Y0471430D01*
X0511642Y0471374D01*
X0511661Y0471320D01*
X0511684Y0471268D01*
X0511711Y0471217D01*
X0511741Y0471167D01*
X0511774Y0471120D01*
X0511810Y0471076D01*
X0511849Y0471034D01*
X0511891Y0470994D01*
X0511936Y0470958D01*
X0511983Y0470925D01*
X0512032Y0470895D01*
X0512083Y0470868D01*
X0512135Y0470845D01*
X0511644Y0468878D02*
X0511778Y0468832D01*
X0511913Y0468789D01*
X0512049Y0468750D01*
X0512186Y0468714D01*
X0512323Y0468682D01*
X0512462Y0468653D01*
X0512601Y0468627D01*
X0512741Y0468606D01*
X0512882Y0468587D01*
X0513022Y0468573D01*
X0513164Y0468562D01*
X0513305Y0468554D01*
X0513447Y0468551D01*
X0516988Y0469533D02*
X0516988Y0471500D01*
X0516990Y0471562D01*
X0516996Y0471623D01*
X0517005Y0471684D01*
X0517019Y0471744D01*
X0517036Y0471804D01*
X0517057Y0471862D01*
X0517082Y0471919D01*
X0517110Y0471974D01*
X0517141Y0472027D01*
X0517176Y0472078D01*
X0517214Y0472127D01*
X0517254Y0472173D01*
X0517298Y0472217D01*
X0517344Y0472257D01*
X0517393Y0472295D01*
X0517444Y0472330D01*
X0517497Y0472361D01*
X0517552Y0472389D01*
X0517609Y0472414D01*
X0517667Y0472435D01*
X0517727Y0472452D01*
X0517787Y0472466D01*
X0517848Y0472475D01*
X0517909Y0472481D01*
X0517971Y0472483D01*
X0519282Y0472483D01*
X0521695Y0471172D02*
X0521695Y0469861D01*
X0521696Y0469861D02*
X0521698Y0469790D01*
X0521704Y0469719D01*
X0521713Y0469649D01*
X0521727Y0469579D01*
X0521744Y0469510D01*
X0521765Y0469442D01*
X0521789Y0469376D01*
X0521817Y0469311D01*
X0521849Y0469247D01*
X0521884Y0469185D01*
X0521922Y0469125D01*
X0521963Y0469068D01*
X0522008Y0469012D01*
X0522055Y0468959D01*
X0522105Y0468909D01*
X0522158Y0468862D01*
X0522214Y0468817D01*
X0522271Y0468776D01*
X0522331Y0468738D01*
X0522393Y0468703D01*
X0522457Y0468671D01*
X0522522Y0468643D01*
X0522588Y0468619D01*
X0522656Y0468598D01*
X0522725Y0468581D01*
X0522795Y0468567D01*
X0522865Y0468558D01*
X0522936Y0468552D01*
X0523007Y0468550D01*
X0523078Y0468552D01*
X0523149Y0468558D01*
X0523219Y0468567D01*
X0523289Y0468581D01*
X0523358Y0468598D01*
X0523426Y0468619D01*
X0523492Y0468643D01*
X0523557Y0468671D01*
X0523621Y0468703D01*
X0523683Y0468738D01*
X0523743Y0468776D01*
X0523800Y0468817D01*
X0523856Y0468862D01*
X0523909Y0468909D01*
X0523959Y0468959D01*
X0524006Y0469012D01*
X0524051Y0469068D01*
X0524092Y0469125D01*
X0524130Y0469185D01*
X0524165Y0469247D01*
X0524197Y0469311D01*
X0524225Y0469376D01*
X0524249Y0469442D01*
X0524270Y0469510D01*
X0524287Y0469579D01*
X0524301Y0469649D01*
X0524310Y0469719D01*
X0524316Y0469790D01*
X0524318Y0469861D01*
X0524318Y0471172D01*
X0524316Y0471243D01*
X0524310Y0471314D01*
X0524301Y0471384D01*
X0524287Y0471454D01*
X0524270Y0471523D01*
X0524249Y0471591D01*
X0524225Y0471657D01*
X0524197Y0471722D01*
X0524165Y0471786D01*
X0524130Y0471848D01*
X0524092Y0471908D01*
X0524051Y0471965D01*
X0524006Y0472021D01*
X0523959Y0472074D01*
X0523909Y0472124D01*
X0523856Y0472171D01*
X0523800Y0472216D01*
X0523743Y0472257D01*
X0523683Y0472295D01*
X0523621Y0472330D01*
X0523557Y0472362D01*
X0523492Y0472390D01*
X0523426Y0472414D01*
X0523358Y0472435D01*
X0523289Y0472452D01*
X0523219Y0472466D01*
X0523149Y0472475D01*
X0523078Y0472481D01*
X0523007Y0472483D01*
X0522936Y0472481D01*
X0522865Y0472475D01*
X0522795Y0472466D01*
X0522725Y0472452D01*
X0522656Y0472435D01*
X0522588Y0472414D01*
X0522522Y0472390D01*
X0522457Y0472362D01*
X0522393Y0472330D01*
X0522331Y0472295D01*
X0522271Y0472257D01*
X0522214Y0472216D01*
X0522158Y0472171D01*
X0522105Y0472124D01*
X0522055Y0472074D01*
X0522008Y0472021D01*
X0521963Y0471965D01*
X0521922Y0471908D01*
X0521884Y0471848D01*
X0521849Y0471786D01*
X0521817Y0471722D01*
X0521789Y0471657D01*
X0521765Y0471591D01*
X0521744Y0471523D01*
X0521727Y0471454D01*
X0521713Y0471384D01*
X0521704Y0471314D01*
X0521698Y0471243D01*
X0521696Y0471172D01*
X0519282Y0468550D02*
X0517971Y0468550D01*
X0517909Y0468552D01*
X0517848Y0468558D01*
X0517787Y0468567D01*
X0517727Y0468581D01*
X0517667Y0468598D01*
X0517609Y0468619D01*
X0517552Y0468644D01*
X0517497Y0468672D01*
X0517444Y0468703D01*
X0517393Y0468738D01*
X0517344Y0468776D01*
X0517298Y0468816D01*
X0517254Y0468860D01*
X0517214Y0468906D01*
X0517176Y0468955D01*
X0517141Y0469006D01*
X0517110Y0469059D01*
X0517082Y0469114D01*
X0517057Y0469171D01*
X0517036Y0469229D01*
X0517019Y0469289D01*
X0517005Y0469349D01*
X0516996Y0469410D01*
X0516990Y0469471D01*
X0516988Y0469533D01*
X0527284Y0468550D02*
X0527284Y0472483D01*
X0529251Y0472483D01*
X0529251Y0471828D01*
X0531337Y0471172D02*
X0531337Y0469533D01*
X0531339Y0469471D01*
X0531345Y0469410D01*
X0531354Y0469349D01*
X0531368Y0469289D01*
X0531385Y0469229D01*
X0531406Y0469171D01*
X0531431Y0469114D01*
X0531459Y0469059D01*
X0531490Y0469006D01*
X0531525Y0468955D01*
X0531563Y0468906D01*
X0531603Y0468860D01*
X0531647Y0468816D01*
X0531693Y0468776D01*
X0531742Y0468738D01*
X0531793Y0468703D01*
X0531846Y0468672D01*
X0531901Y0468644D01*
X0531958Y0468619D01*
X0532016Y0468598D01*
X0532076Y0468581D01*
X0532136Y0468567D01*
X0532197Y0468558D01*
X0532258Y0468552D01*
X0532320Y0468550D01*
X0533959Y0468550D01*
X0533959Y0470517D02*
X0531337Y0470517D01*
X0531337Y0471172D02*
X0531339Y0471243D01*
X0531345Y0471314D01*
X0531354Y0471384D01*
X0531368Y0471454D01*
X0531385Y0471523D01*
X0531406Y0471591D01*
X0531430Y0471657D01*
X0531458Y0471722D01*
X0531490Y0471786D01*
X0531525Y0471848D01*
X0531563Y0471908D01*
X0531604Y0471965D01*
X0531649Y0472021D01*
X0531696Y0472074D01*
X0531746Y0472124D01*
X0531799Y0472171D01*
X0531855Y0472216D01*
X0531912Y0472257D01*
X0531972Y0472295D01*
X0532034Y0472330D01*
X0532098Y0472362D01*
X0532163Y0472390D01*
X0532229Y0472414D01*
X0532297Y0472435D01*
X0532366Y0472452D01*
X0532436Y0472466D01*
X0532506Y0472475D01*
X0532577Y0472481D01*
X0532648Y0472483D01*
X0532719Y0472481D01*
X0532790Y0472475D01*
X0532860Y0472466D01*
X0532930Y0472452D01*
X0532999Y0472435D01*
X0533067Y0472414D01*
X0533133Y0472390D01*
X0533198Y0472362D01*
X0533262Y0472330D01*
X0533324Y0472295D01*
X0533384Y0472257D01*
X0533441Y0472216D01*
X0533497Y0472171D01*
X0533550Y0472124D01*
X0533600Y0472074D01*
X0533647Y0472021D01*
X0533692Y0471965D01*
X0533733Y0471908D01*
X0533771Y0471848D01*
X0533806Y0471786D01*
X0533838Y0471722D01*
X0533866Y0471657D01*
X0533890Y0471591D01*
X0533911Y0471523D01*
X0533928Y0471454D01*
X0533942Y0471384D01*
X0533951Y0471314D01*
X0533957Y0471243D01*
X0533959Y0471172D01*
X0533959Y0470517D01*
X0039700Y0381955D02*
X0039700Y0381627D01*
X0039698Y0381565D01*
X0039692Y0381504D01*
X0039683Y0381443D01*
X0039669Y0381383D01*
X0039652Y0381323D01*
X0039631Y0381265D01*
X0039606Y0381208D01*
X0039578Y0381153D01*
X0039547Y0381100D01*
X0039512Y0381049D01*
X0039474Y0381000D01*
X0039434Y0380954D01*
X0039390Y0380910D01*
X0039344Y0380870D01*
X0039295Y0380832D01*
X0039244Y0380797D01*
X0039191Y0380766D01*
X0039136Y0380738D01*
X0039079Y0380713D01*
X0039021Y0380692D01*
X0038961Y0380675D01*
X0038901Y0380661D01*
X0038840Y0380652D01*
X0038779Y0380646D01*
X0038717Y0380644D01*
X0033800Y0380644D01*
X0035767Y0379988D02*
X0035767Y0381955D01*
X0035767Y0377634D02*
X0039700Y0377634D01*
X0039700Y0375995D01*
X0039698Y0375933D01*
X0039692Y0375872D01*
X0039683Y0375811D01*
X0039669Y0375751D01*
X0039652Y0375691D01*
X0039631Y0375633D01*
X0039606Y0375576D01*
X0039578Y0375521D01*
X0039547Y0375468D01*
X0039512Y0375417D01*
X0039474Y0375368D01*
X0039434Y0375322D01*
X0039390Y0375278D01*
X0039344Y0375238D01*
X0039295Y0375200D01*
X0039244Y0375165D01*
X0039191Y0375134D01*
X0039136Y0375106D01*
X0039079Y0375081D01*
X0039021Y0375060D01*
X0038961Y0375043D01*
X0038901Y0375029D01*
X0038840Y0375020D01*
X0038779Y0375014D01*
X0038717Y0375012D01*
X0035767Y0375012D01*
X0035439Y0372013D02*
X0038061Y0372013D01*
X0038140Y0372011D01*
X0038219Y0372005D01*
X0038298Y0371996D01*
X0038376Y0371982D01*
X0038453Y0371965D01*
X0038530Y0371945D01*
X0038605Y0371920D01*
X0038679Y0371892D01*
X0038752Y0371860D01*
X0038823Y0371825D01*
X0038892Y0371787D01*
X0038959Y0371745D01*
X0039024Y0371700D01*
X0039087Y0371652D01*
X0039148Y0371601D01*
X0039206Y0371547D01*
X0039261Y0371490D01*
X0039314Y0371431D01*
X0039363Y0371369D01*
X0039410Y0371305D01*
X0039453Y0371239D01*
X0039493Y0371171D01*
X0039530Y0371100D01*
X0039564Y0371029D01*
X0039593Y0370955D01*
X0039620Y0370880D01*
X0039642Y0370805D01*
X0039661Y0370728D01*
X0039677Y0370650D01*
X0039688Y0370572D01*
X0039696Y0370493D01*
X0039700Y0370414D01*
X0039700Y0370334D01*
X0039696Y0370255D01*
X0039688Y0370176D01*
X0039677Y0370098D01*
X0039661Y0370020D01*
X0039642Y0369943D01*
X0039620Y0369868D01*
X0039593Y0369793D01*
X0039564Y0369719D01*
X0039530Y0369648D01*
X0039493Y0369577D01*
X0039453Y0369509D01*
X0039410Y0369443D01*
X0039363Y0369379D01*
X0039314Y0369317D01*
X0039261Y0369258D01*
X0039206Y0369201D01*
X0039148Y0369147D01*
X0039087Y0369096D01*
X0039024Y0369048D01*
X0038959Y0369003D01*
X0038892Y0368961D01*
X0038823Y0368923D01*
X0038752Y0368888D01*
X0038679Y0368856D01*
X0038605Y0368828D01*
X0038530Y0368803D01*
X0038453Y0368783D01*
X0038376Y0368766D01*
X0038298Y0368752D01*
X0038219Y0368743D01*
X0038140Y0368737D01*
X0038061Y0368735D01*
X0035439Y0368735D01*
X0035360Y0368737D01*
X0035281Y0368743D01*
X0035202Y0368752D01*
X0035124Y0368766D01*
X0035047Y0368783D01*
X0034970Y0368803D01*
X0034895Y0368828D01*
X0034821Y0368856D01*
X0034748Y0368888D01*
X0034677Y0368923D01*
X0034608Y0368961D01*
X0034541Y0369003D01*
X0034476Y0369048D01*
X0034413Y0369096D01*
X0034352Y0369147D01*
X0034294Y0369201D01*
X0034239Y0369258D01*
X0034186Y0369317D01*
X0034137Y0369379D01*
X0034090Y0369443D01*
X0034047Y0369509D01*
X0034007Y0369577D01*
X0033970Y0369648D01*
X0033936Y0369719D01*
X0033907Y0369793D01*
X0033880Y0369868D01*
X0033858Y0369943D01*
X0033839Y0370020D01*
X0033823Y0370098D01*
X0033812Y0370176D01*
X0033804Y0370255D01*
X0033800Y0370334D01*
X0033800Y0370414D01*
X0033804Y0370493D01*
X0033812Y0370572D01*
X0033823Y0370650D01*
X0033839Y0370728D01*
X0033858Y0370805D01*
X0033880Y0370880D01*
X0033907Y0370955D01*
X0033936Y0371029D01*
X0033970Y0371100D01*
X0034007Y0371171D01*
X0034047Y0371239D01*
X0034090Y0371305D01*
X0034137Y0371369D01*
X0034186Y0371431D01*
X0034239Y0371490D01*
X0034294Y0371547D01*
X0034352Y0371601D01*
X0034413Y0371652D01*
X0034476Y0371700D01*
X0034541Y0371745D01*
X0034608Y0371787D01*
X0034677Y0371825D01*
X0034748Y0371860D01*
X0034821Y0371892D01*
X0034895Y0371920D01*
X0034970Y0371945D01*
X0035047Y0371965D01*
X0035124Y0371982D01*
X0035202Y0371996D01*
X0035281Y0372005D01*
X0035360Y0372011D01*
X0035439Y0372013D01*
X0037078Y0362659D02*
X0037733Y0362659D01*
X0037733Y0360037D01*
X0037078Y0360037D02*
X0038717Y0360037D01*
X0038779Y0360039D01*
X0038840Y0360045D01*
X0038901Y0360054D01*
X0038961Y0360068D01*
X0039021Y0360085D01*
X0039079Y0360106D01*
X0039136Y0360131D01*
X0039191Y0360159D01*
X0039244Y0360190D01*
X0039295Y0360225D01*
X0039344Y0360263D01*
X0039390Y0360303D01*
X0039434Y0360347D01*
X0039474Y0360393D01*
X0039512Y0360442D01*
X0039547Y0360493D01*
X0039578Y0360546D01*
X0039606Y0360601D01*
X0039631Y0360658D01*
X0039652Y0360716D01*
X0039669Y0360776D01*
X0039683Y0360836D01*
X0039692Y0360897D01*
X0039698Y0360958D01*
X0039700Y0361020D01*
X0039700Y0362659D01*
X0037078Y0362659D02*
X0037007Y0362657D01*
X0036936Y0362651D01*
X0036866Y0362642D01*
X0036796Y0362628D01*
X0036727Y0362611D01*
X0036659Y0362590D01*
X0036593Y0362566D01*
X0036528Y0362538D01*
X0036464Y0362506D01*
X0036402Y0362471D01*
X0036342Y0362433D01*
X0036285Y0362392D01*
X0036229Y0362347D01*
X0036176Y0362300D01*
X0036126Y0362250D01*
X0036079Y0362197D01*
X0036034Y0362141D01*
X0035993Y0362084D01*
X0035955Y0362024D01*
X0035920Y0361962D01*
X0035888Y0361898D01*
X0035860Y0361833D01*
X0035836Y0361767D01*
X0035815Y0361699D01*
X0035798Y0361630D01*
X0035784Y0361560D01*
X0035775Y0361490D01*
X0035769Y0361419D01*
X0035767Y0361348D01*
X0035769Y0361277D01*
X0035775Y0361206D01*
X0035784Y0361136D01*
X0035798Y0361066D01*
X0035815Y0360997D01*
X0035836Y0360929D01*
X0035860Y0360863D01*
X0035888Y0360798D01*
X0035920Y0360734D01*
X0035955Y0360672D01*
X0035993Y0360612D01*
X0036034Y0360555D01*
X0036079Y0360499D01*
X0036126Y0360446D01*
X0036176Y0360396D01*
X0036229Y0360349D01*
X0036285Y0360304D01*
X0036342Y0360263D01*
X0036402Y0360225D01*
X0036464Y0360190D01*
X0036528Y0360158D01*
X0036593Y0360130D01*
X0036659Y0360106D01*
X0036727Y0360085D01*
X0036796Y0360068D01*
X0036866Y0360054D01*
X0036936Y0360045D01*
X0037007Y0360039D01*
X0037078Y0360037D01*
X0035767Y0357544D02*
X0035767Y0355578D01*
X0033800Y0356233D02*
X0038717Y0356233D01*
X0038779Y0356235D01*
X0038840Y0356241D01*
X0038901Y0356250D01*
X0038961Y0356264D01*
X0039021Y0356281D01*
X0039079Y0356302D01*
X0039136Y0356327D01*
X0039191Y0356355D01*
X0039244Y0356386D01*
X0039295Y0356421D01*
X0039344Y0356459D01*
X0039390Y0356499D01*
X0039434Y0356543D01*
X0039474Y0356589D01*
X0039512Y0356638D01*
X0039547Y0356689D01*
X0039578Y0356742D01*
X0039606Y0356797D01*
X0039631Y0356854D01*
X0039652Y0356912D01*
X0039669Y0356972D01*
X0039683Y0357032D01*
X0039692Y0357093D01*
X0039698Y0357154D01*
X0039700Y0357216D01*
X0039700Y0357544D01*
X0039700Y0353223D02*
X0035767Y0353223D01*
X0035767Y0350601D02*
X0038717Y0350601D01*
X0038779Y0350603D01*
X0038840Y0350609D01*
X0038901Y0350618D01*
X0038961Y0350632D01*
X0039021Y0350649D01*
X0039079Y0350670D01*
X0039136Y0350695D01*
X0039191Y0350723D01*
X0039244Y0350754D01*
X0039295Y0350789D01*
X0039344Y0350827D01*
X0039390Y0350867D01*
X0039434Y0350911D01*
X0039474Y0350957D01*
X0039512Y0351006D01*
X0039547Y0351057D01*
X0039578Y0351110D01*
X0039606Y0351165D01*
X0039631Y0351222D01*
X0039652Y0351280D01*
X0039669Y0351340D01*
X0039683Y0351400D01*
X0039692Y0351461D01*
X0039698Y0351522D01*
X0039700Y0351584D01*
X0039700Y0353223D01*
X0038389Y0347684D02*
X0037078Y0347684D01*
X0037007Y0347682D01*
X0036936Y0347676D01*
X0036866Y0347667D01*
X0036796Y0347653D01*
X0036727Y0347636D01*
X0036659Y0347615D01*
X0036593Y0347591D01*
X0036528Y0347563D01*
X0036464Y0347531D01*
X0036402Y0347496D01*
X0036342Y0347458D01*
X0036285Y0347417D01*
X0036229Y0347372D01*
X0036176Y0347325D01*
X0036126Y0347275D01*
X0036079Y0347222D01*
X0036034Y0347166D01*
X0035993Y0347109D01*
X0035955Y0347049D01*
X0035920Y0346987D01*
X0035888Y0346923D01*
X0035860Y0346858D01*
X0035836Y0346792D01*
X0035815Y0346724D01*
X0035798Y0346655D01*
X0035784Y0346585D01*
X0035775Y0346515D01*
X0035769Y0346444D01*
X0035767Y0346373D01*
X0035769Y0346302D01*
X0035775Y0346231D01*
X0035784Y0346161D01*
X0035798Y0346091D01*
X0035815Y0346022D01*
X0035836Y0345954D01*
X0035860Y0345888D01*
X0035888Y0345823D01*
X0035920Y0345759D01*
X0035955Y0345697D01*
X0035993Y0345637D01*
X0036034Y0345580D01*
X0036079Y0345524D01*
X0036126Y0345471D01*
X0036176Y0345421D01*
X0036229Y0345374D01*
X0036285Y0345329D01*
X0036342Y0345288D01*
X0036402Y0345250D01*
X0036464Y0345215D01*
X0036528Y0345183D01*
X0036593Y0345155D01*
X0036659Y0345131D01*
X0036727Y0345110D01*
X0036796Y0345093D01*
X0036866Y0345079D01*
X0036936Y0345070D01*
X0037007Y0345064D01*
X0037078Y0345062D01*
X0038389Y0345062D01*
X0038460Y0345064D01*
X0038531Y0345070D01*
X0038601Y0345079D01*
X0038671Y0345093D01*
X0038740Y0345110D01*
X0038808Y0345131D01*
X0038874Y0345155D01*
X0038939Y0345183D01*
X0039003Y0345215D01*
X0039065Y0345250D01*
X0039125Y0345288D01*
X0039182Y0345329D01*
X0039238Y0345374D01*
X0039291Y0345421D01*
X0039341Y0345471D01*
X0039388Y0345524D01*
X0039433Y0345580D01*
X0039474Y0345637D01*
X0039512Y0345697D01*
X0039547Y0345759D01*
X0039579Y0345823D01*
X0039607Y0345888D01*
X0039631Y0345954D01*
X0039652Y0346022D01*
X0039669Y0346091D01*
X0039683Y0346161D01*
X0039692Y0346231D01*
X0039698Y0346302D01*
X0039700Y0346373D01*
X0039698Y0346444D01*
X0039692Y0346515D01*
X0039683Y0346585D01*
X0039669Y0346655D01*
X0039652Y0346724D01*
X0039631Y0346792D01*
X0039607Y0346858D01*
X0039579Y0346923D01*
X0039547Y0346987D01*
X0039512Y0347049D01*
X0039474Y0347109D01*
X0039433Y0347166D01*
X0039388Y0347222D01*
X0039341Y0347275D01*
X0039291Y0347325D01*
X0039238Y0347372D01*
X0039182Y0347417D01*
X0039125Y0347458D01*
X0039065Y0347496D01*
X0039003Y0347531D01*
X0038939Y0347563D01*
X0038874Y0347591D01*
X0038808Y0347615D01*
X0038740Y0347636D01*
X0038671Y0347653D01*
X0038601Y0347667D01*
X0038531Y0347676D01*
X0038460Y0347682D01*
X0038389Y0347684D01*
X0039700Y0342323D02*
X0037078Y0341012D01*
X0037078Y0340684D02*
X0037078Y0339045D01*
X0037078Y0340684D02*
X0037076Y0340763D01*
X0037070Y0340842D01*
X0037061Y0340921D01*
X0037047Y0340999D01*
X0037030Y0341076D01*
X0037010Y0341153D01*
X0036985Y0341228D01*
X0036957Y0341302D01*
X0036925Y0341375D01*
X0036890Y0341446D01*
X0036852Y0341515D01*
X0036810Y0341582D01*
X0036765Y0341647D01*
X0036717Y0341710D01*
X0036666Y0341771D01*
X0036612Y0341829D01*
X0036555Y0341884D01*
X0036496Y0341937D01*
X0036434Y0341986D01*
X0036370Y0342033D01*
X0036304Y0342076D01*
X0036236Y0342116D01*
X0036165Y0342153D01*
X0036094Y0342187D01*
X0036020Y0342216D01*
X0035945Y0342243D01*
X0035870Y0342265D01*
X0035793Y0342284D01*
X0035715Y0342300D01*
X0035637Y0342311D01*
X0035558Y0342319D01*
X0035479Y0342323D01*
X0035399Y0342323D01*
X0035320Y0342319D01*
X0035241Y0342311D01*
X0035163Y0342300D01*
X0035085Y0342284D01*
X0035008Y0342265D01*
X0034933Y0342243D01*
X0034858Y0342216D01*
X0034784Y0342187D01*
X0034713Y0342153D01*
X0034642Y0342116D01*
X0034574Y0342076D01*
X0034508Y0342033D01*
X0034444Y0341986D01*
X0034382Y0341937D01*
X0034323Y0341884D01*
X0034266Y0341829D01*
X0034212Y0341771D01*
X0034161Y0341710D01*
X0034113Y0341647D01*
X0034068Y0341582D01*
X0034026Y0341515D01*
X0033988Y0341446D01*
X0033953Y0341375D01*
X0033921Y0341302D01*
X0033893Y0341228D01*
X0033868Y0341153D01*
X0033848Y0341076D01*
X0033831Y0340999D01*
X0033817Y0340921D01*
X0033808Y0340842D01*
X0033802Y0340763D01*
X0033800Y0340684D01*
X0033800Y0339045D01*
X0039700Y0339045D01*
X0039700Y0159955D02*
X0039700Y0159627D01*
X0039698Y0159565D01*
X0039692Y0159504D01*
X0039683Y0159443D01*
X0039669Y0159383D01*
X0039652Y0159323D01*
X0039631Y0159265D01*
X0039606Y0159208D01*
X0039578Y0159153D01*
X0039547Y0159100D01*
X0039512Y0159049D01*
X0039474Y0159000D01*
X0039434Y0158954D01*
X0039390Y0158910D01*
X0039344Y0158870D01*
X0039295Y0158832D01*
X0039244Y0158797D01*
X0039191Y0158766D01*
X0039136Y0158738D01*
X0039079Y0158713D01*
X0039021Y0158692D01*
X0038961Y0158675D01*
X0038901Y0158661D01*
X0038840Y0158652D01*
X0038779Y0158646D01*
X0038717Y0158644D01*
X0033800Y0158644D01*
X0035767Y0157988D02*
X0035767Y0159955D01*
X0035767Y0155634D02*
X0039700Y0155634D01*
X0039700Y0153995D01*
X0039698Y0153933D01*
X0039692Y0153872D01*
X0039683Y0153811D01*
X0039669Y0153751D01*
X0039652Y0153691D01*
X0039631Y0153633D01*
X0039606Y0153576D01*
X0039578Y0153521D01*
X0039547Y0153468D01*
X0039512Y0153417D01*
X0039474Y0153368D01*
X0039434Y0153322D01*
X0039390Y0153278D01*
X0039344Y0153238D01*
X0039295Y0153200D01*
X0039244Y0153165D01*
X0039191Y0153134D01*
X0039136Y0153106D01*
X0039079Y0153081D01*
X0039021Y0153060D01*
X0038961Y0153043D01*
X0038901Y0153029D01*
X0038840Y0153020D01*
X0038779Y0153014D01*
X0038717Y0153012D01*
X0035767Y0153012D01*
X0035439Y0150013D02*
X0038061Y0150013D01*
X0038140Y0150011D01*
X0038219Y0150005D01*
X0038298Y0149996D01*
X0038376Y0149982D01*
X0038453Y0149965D01*
X0038530Y0149945D01*
X0038605Y0149920D01*
X0038679Y0149892D01*
X0038752Y0149860D01*
X0038823Y0149825D01*
X0038892Y0149787D01*
X0038959Y0149745D01*
X0039024Y0149700D01*
X0039087Y0149652D01*
X0039148Y0149601D01*
X0039206Y0149547D01*
X0039261Y0149490D01*
X0039314Y0149431D01*
X0039363Y0149369D01*
X0039410Y0149305D01*
X0039453Y0149239D01*
X0039493Y0149171D01*
X0039530Y0149100D01*
X0039564Y0149029D01*
X0039593Y0148955D01*
X0039620Y0148880D01*
X0039642Y0148805D01*
X0039661Y0148728D01*
X0039677Y0148650D01*
X0039688Y0148572D01*
X0039696Y0148493D01*
X0039700Y0148414D01*
X0039700Y0148334D01*
X0039696Y0148255D01*
X0039688Y0148176D01*
X0039677Y0148098D01*
X0039661Y0148020D01*
X0039642Y0147943D01*
X0039620Y0147868D01*
X0039593Y0147793D01*
X0039564Y0147719D01*
X0039530Y0147648D01*
X0039493Y0147577D01*
X0039453Y0147509D01*
X0039410Y0147443D01*
X0039363Y0147379D01*
X0039314Y0147317D01*
X0039261Y0147258D01*
X0039206Y0147201D01*
X0039148Y0147147D01*
X0039087Y0147096D01*
X0039024Y0147048D01*
X0038959Y0147003D01*
X0038892Y0146961D01*
X0038823Y0146923D01*
X0038752Y0146888D01*
X0038679Y0146856D01*
X0038605Y0146828D01*
X0038530Y0146803D01*
X0038453Y0146783D01*
X0038376Y0146766D01*
X0038298Y0146752D01*
X0038219Y0146743D01*
X0038140Y0146737D01*
X0038061Y0146735D01*
X0035439Y0146735D01*
X0035360Y0146737D01*
X0035281Y0146743D01*
X0035202Y0146752D01*
X0035124Y0146766D01*
X0035047Y0146783D01*
X0034970Y0146803D01*
X0034895Y0146828D01*
X0034821Y0146856D01*
X0034748Y0146888D01*
X0034677Y0146923D01*
X0034608Y0146961D01*
X0034541Y0147003D01*
X0034476Y0147048D01*
X0034413Y0147096D01*
X0034352Y0147147D01*
X0034294Y0147201D01*
X0034239Y0147258D01*
X0034186Y0147317D01*
X0034137Y0147379D01*
X0034090Y0147443D01*
X0034047Y0147509D01*
X0034007Y0147577D01*
X0033970Y0147648D01*
X0033936Y0147719D01*
X0033907Y0147793D01*
X0033880Y0147868D01*
X0033858Y0147943D01*
X0033839Y0148020D01*
X0033823Y0148098D01*
X0033812Y0148176D01*
X0033804Y0148255D01*
X0033800Y0148334D01*
X0033800Y0148414D01*
X0033804Y0148493D01*
X0033812Y0148572D01*
X0033823Y0148650D01*
X0033839Y0148728D01*
X0033858Y0148805D01*
X0033880Y0148880D01*
X0033907Y0148955D01*
X0033936Y0149029D01*
X0033970Y0149100D01*
X0034007Y0149171D01*
X0034047Y0149239D01*
X0034090Y0149305D01*
X0034137Y0149369D01*
X0034186Y0149431D01*
X0034239Y0149490D01*
X0034294Y0149547D01*
X0034352Y0149601D01*
X0034413Y0149652D01*
X0034476Y0149700D01*
X0034541Y0149745D01*
X0034608Y0149787D01*
X0034677Y0149825D01*
X0034748Y0149860D01*
X0034821Y0149892D01*
X0034895Y0149920D01*
X0034970Y0149945D01*
X0035047Y0149965D01*
X0035124Y0149982D01*
X0035202Y0149996D01*
X0035281Y0150005D01*
X0035360Y0150011D01*
X0035439Y0150013D01*
X0037078Y0140659D02*
X0037733Y0140659D01*
X0037733Y0138037D01*
X0037078Y0138037D02*
X0038717Y0138037D01*
X0038779Y0138039D01*
X0038840Y0138045D01*
X0038901Y0138054D01*
X0038961Y0138068D01*
X0039021Y0138085D01*
X0039079Y0138106D01*
X0039136Y0138131D01*
X0039191Y0138159D01*
X0039244Y0138190D01*
X0039295Y0138225D01*
X0039344Y0138263D01*
X0039390Y0138303D01*
X0039434Y0138347D01*
X0039474Y0138393D01*
X0039512Y0138442D01*
X0039547Y0138493D01*
X0039578Y0138546D01*
X0039606Y0138601D01*
X0039631Y0138658D01*
X0039652Y0138716D01*
X0039669Y0138776D01*
X0039683Y0138836D01*
X0039692Y0138897D01*
X0039698Y0138958D01*
X0039700Y0139020D01*
X0039700Y0140659D01*
X0037078Y0140659D02*
X0037007Y0140657D01*
X0036936Y0140651D01*
X0036866Y0140642D01*
X0036796Y0140628D01*
X0036727Y0140611D01*
X0036659Y0140590D01*
X0036593Y0140566D01*
X0036528Y0140538D01*
X0036464Y0140506D01*
X0036402Y0140471D01*
X0036342Y0140433D01*
X0036285Y0140392D01*
X0036229Y0140347D01*
X0036176Y0140300D01*
X0036126Y0140250D01*
X0036079Y0140197D01*
X0036034Y0140141D01*
X0035993Y0140084D01*
X0035955Y0140024D01*
X0035920Y0139962D01*
X0035888Y0139898D01*
X0035860Y0139833D01*
X0035836Y0139767D01*
X0035815Y0139699D01*
X0035798Y0139630D01*
X0035784Y0139560D01*
X0035775Y0139490D01*
X0035769Y0139419D01*
X0035767Y0139348D01*
X0035769Y0139277D01*
X0035775Y0139206D01*
X0035784Y0139136D01*
X0035798Y0139066D01*
X0035815Y0138997D01*
X0035836Y0138929D01*
X0035860Y0138863D01*
X0035888Y0138798D01*
X0035920Y0138734D01*
X0035955Y0138672D01*
X0035993Y0138612D01*
X0036034Y0138555D01*
X0036079Y0138499D01*
X0036126Y0138446D01*
X0036176Y0138396D01*
X0036229Y0138349D01*
X0036285Y0138304D01*
X0036342Y0138263D01*
X0036402Y0138225D01*
X0036464Y0138190D01*
X0036528Y0138158D01*
X0036593Y0138130D01*
X0036659Y0138106D01*
X0036727Y0138085D01*
X0036796Y0138068D01*
X0036866Y0138054D01*
X0036936Y0138045D01*
X0037007Y0138039D01*
X0037078Y0138037D01*
X0035767Y0135544D02*
X0035767Y0133578D01*
X0033800Y0134233D02*
X0038717Y0134233D01*
X0038779Y0134235D01*
X0038840Y0134241D01*
X0038901Y0134250D01*
X0038961Y0134264D01*
X0039021Y0134281D01*
X0039079Y0134302D01*
X0039136Y0134327D01*
X0039191Y0134355D01*
X0039244Y0134386D01*
X0039295Y0134421D01*
X0039344Y0134459D01*
X0039390Y0134499D01*
X0039434Y0134543D01*
X0039474Y0134589D01*
X0039512Y0134638D01*
X0039547Y0134689D01*
X0039578Y0134742D01*
X0039606Y0134797D01*
X0039631Y0134854D01*
X0039652Y0134912D01*
X0039669Y0134972D01*
X0039683Y0135032D01*
X0039692Y0135093D01*
X0039698Y0135154D01*
X0039700Y0135216D01*
X0039700Y0135544D01*
X0039700Y0131223D02*
X0035767Y0131223D01*
X0035767Y0128601D02*
X0038717Y0128601D01*
X0038779Y0128603D01*
X0038840Y0128609D01*
X0038901Y0128618D01*
X0038961Y0128632D01*
X0039021Y0128649D01*
X0039079Y0128670D01*
X0039136Y0128695D01*
X0039191Y0128723D01*
X0039244Y0128754D01*
X0039295Y0128789D01*
X0039344Y0128827D01*
X0039390Y0128867D01*
X0039434Y0128911D01*
X0039474Y0128957D01*
X0039512Y0129006D01*
X0039547Y0129057D01*
X0039578Y0129110D01*
X0039606Y0129165D01*
X0039631Y0129222D01*
X0039652Y0129280D01*
X0039669Y0129340D01*
X0039683Y0129400D01*
X0039692Y0129461D01*
X0039698Y0129522D01*
X0039700Y0129584D01*
X0039700Y0131223D01*
X0038389Y0125684D02*
X0037078Y0125684D01*
X0037007Y0125682D01*
X0036936Y0125676D01*
X0036866Y0125667D01*
X0036796Y0125653D01*
X0036727Y0125636D01*
X0036659Y0125615D01*
X0036593Y0125591D01*
X0036528Y0125563D01*
X0036464Y0125531D01*
X0036402Y0125496D01*
X0036342Y0125458D01*
X0036285Y0125417D01*
X0036229Y0125372D01*
X0036176Y0125325D01*
X0036126Y0125275D01*
X0036079Y0125222D01*
X0036034Y0125166D01*
X0035993Y0125109D01*
X0035955Y0125049D01*
X0035920Y0124987D01*
X0035888Y0124923D01*
X0035860Y0124858D01*
X0035836Y0124792D01*
X0035815Y0124724D01*
X0035798Y0124655D01*
X0035784Y0124585D01*
X0035775Y0124515D01*
X0035769Y0124444D01*
X0035767Y0124373D01*
X0035769Y0124302D01*
X0035775Y0124231D01*
X0035784Y0124161D01*
X0035798Y0124091D01*
X0035815Y0124022D01*
X0035836Y0123954D01*
X0035860Y0123888D01*
X0035888Y0123823D01*
X0035920Y0123759D01*
X0035955Y0123697D01*
X0035993Y0123637D01*
X0036034Y0123580D01*
X0036079Y0123524D01*
X0036126Y0123471D01*
X0036176Y0123421D01*
X0036229Y0123374D01*
X0036285Y0123329D01*
X0036342Y0123288D01*
X0036402Y0123250D01*
X0036464Y0123215D01*
X0036528Y0123183D01*
X0036593Y0123155D01*
X0036659Y0123131D01*
X0036727Y0123110D01*
X0036796Y0123093D01*
X0036866Y0123079D01*
X0036936Y0123070D01*
X0037007Y0123064D01*
X0037078Y0123062D01*
X0038389Y0123062D01*
X0038460Y0123064D01*
X0038531Y0123070D01*
X0038601Y0123079D01*
X0038671Y0123093D01*
X0038740Y0123110D01*
X0038808Y0123131D01*
X0038874Y0123155D01*
X0038939Y0123183D01*
X0039003Y0123215D01*
X0039065Y0123250D01*
X0039125Y0123288D01*
X0039182Y0123329D01*
X0039238Y0123374D01*
X0039291Y0123421D01*
X0039341Y0123471D01*
X0039388Y0123524D01*
X0039433Y0123580D01*
X0039474Y0123637D01*
X0039512Y0123697D01*
X0039547Y0123759D01*
X0039579Y0123823D01*
X0039607Y0123888D01*
X0039631Y0123954D01*
X0039652Y0124022D01*
X0039669Y0124091D01*
X0039683Y0124161D01*
X0039692Y0124231D01*
X0039698Y0124302D01*
X0039700Y0124373D01*
X0039698Y0124444D01*
X0039692Y0124515D01*
X0039683Y0124585D01*
X0039669Y0124655D01*
X0039652Y0124724D01*
X0039631Y0124792D01*
X0039607Y0124858D01*
X0039579Y0124923D01*
X0039547Y0124987D01*
X0039512Y0125049D01*
X0039474Y0125109D01*
X0039433Y0125166D01*
X0039388Y0125222D01*
X0039341Y0125275D01*
X0039291Y0125325D01*
X0039238Y0125372D01*
X0039182Y0125417D01*
X0039125Y0125458D01*
X0039065Y0125496D01*
X0039003Y0125531D01*
X0038939Y0125563D01*
X0038874Y0125591D01*
X0038808Y0125615D01*
X0038740Y0125636D01*
X0038671Y0125653D01*
X0038601Y0125667D01*
X0038531Y0125676D01*
X0038460Y0125682D01*
X0038389Y0125684D01*
X0039700Y0120323D02*
X0037078Y0119012D01*
X0037078Y0118684D02*
X0037078Y0117045D01*
X0037078Y0118684D02*
X0037076Y0118763D01*
X0037070Y0118842D01*
X0037061Y0118921D01*
X0037047Y0118999D01*
X0037030Y0119076D01*
X0037010Y0119153D01*
X0036985Y0119228D01*
X0036957Y0119302D01*
X0036925Y0119375D01*
X0036890Y0119446D01*
X0036852Y0119515D01*
X0036810Y0119582D01*
X0036765Y0119647D01*
X0036717Y0119710D01*
X0036666Y0119771D01*
X0036612Y0119829D01*
X0036555Y0119884D01*
X0036496Y0119937D01*
X0036434Y0119986D01*
X0036370Y0120033D01*
X0036304Y0120076D01*
X0036236Y0120116D01*
X0036165Y0120153D01*
X0036094Y0120187D01*
X0036020Y0120216D01*
X0035945Y0120243D01*
X0035870Y0120265D01*
X0035793Y0120284D01*
X0035715Y0120300D01*
X0035637Y0120311D01*
X0035558Y0120319D01*
X0035479Y0120323D01*
X0035399Y0120323D01*
X0035320Y0120319D01*
X0035241Y0120311D01*
X0035163Y0120300D01*
X0035085Y0120284D01*
X0035008Y0120265D01*
X0034933Y0120243D01*
X0034858Y0120216D01*
X0034784Y0120187D01*
X0034713Y0120153D01*
X0034642Y0120116D01*
X0034574Y0120076D01*
X0034508Y0120033D01*
X0034444Y0119986D01*
X0034382Y0119937D01*
X0034323Y0119884D01*
X0034266Y0119829D01*
X0034212Y0119771D01*
X0034161Y0119710D01*
X0034113Y0119647D01*
X0034068Y0119582D01*
X0034026Y0119515D01*
X0033988Y0119446D01*
X0033953Y0119375D01*
X0033921Y0119302D01*
X0033893Y0119228D01*
X0033868Y0119153D01*
X0033848Y0119076D01*
X0033831Y0118999D01*
X0033817Y0118921D01*
X0033808Y0118842D01*
X0033802Y0118763D01*
X0033800Y0118684D01*
X0033800Y0117045D01*
X0039700Y0117045D01*
D12*
X0001750Y0027500D02*
X0486750Y0027500D01*
X0486750Y0249500D02*
X0001750Y0249500D01*
X0001750Y0471500D02*
X0486750Y0471500D01*
D13*
X0001750Y0026500D02*
X0001750Y0001500D01*
X0461750Y0001500D01*
X0461750Y0026500D01*
X0001750Y0026500D01*
X0001750Y0028500D02*
X0001750Y0470500D01*
X0026750Y0470500D01*
X0026750Y0028500D01*
X0001750Y0028500D01*
X0436750Y0028500D02*
X0436750Y0470500D01*
X0461750Y0470500D01*
X0461750Y0028500D01*
X0436750Y0028500D01*
X0461750Y0472500D02*
X0001750Y0472500D01*
X0001750Y0497500D01*
X0461750Y0497500D01*
X0461750Y0472500D01*
D14*
X0065844Y0349346D02*
X0064270Y0349346D01*
X0064270Y0349347D02*
X0064198Y0349342D01*
X0064126Y0349333D01*
X0064055Y0349320D01*
X0063984Y0349303D01*
X0063915Y0349283D01*
X0063847Y0349258D01*
X0063780Y0349231D01*
X0063715Y0349199D01*
X0063651Y0349164D01*
X0063590Y0349126D01*
X0063531Y0349085D01*
X0063474Y0349040D01*
X0063419Y0348992D01*
X0063368Y0348942D01*
X0063319Y0348888D01*
X0063273Y0348833D01*
X0063230Y0348774D01*
X0063190Y0348714D01*
X0063154Y0348651D01*
X0063121Y0348587D01*
X0063091Y0348521D01*
X0063066Y0348453D01*
X0063043Y0348384D01*
X0063025Y0348314D01*
X0063011Y0348243D01*
X0063000Y0348172D01*
X0062993Y0348100D01*
X0062990Y0348027D01*
X0062991Y0348027D02*
X0062989Y0347960D01*
X0062991Y0347893D01*
X0062997Y0347826D01*
X0063007Y0347759D01*
X0063020Y0347693D01*
X0063037Y0347628D01*
X0063058Y0347564D01*
X0063083Y0347502D01*
X0063111Y0347440D01*
X0063143Y0347381D01*
X0063177Y0347323D01*
X0063215Y0347268D01*
X0063257Y0347215D01*
X0063301Y0347164D01*
X0063348Y0347116D01*
X0063397Y0347070D01*
X0063450Y0347028D01*
X0063504Y0346988D01*
X0063561Y0346952D01*
X0063619Y0346919D01*
X0063680Y0346889D01*
X0063742Y0346863D01*
X0063805Y0346841D01*
X0063870Y0346822D01*
X0063935Y0346806D01*
X0064002Y0346795D01*
X0064068Y0346787D01*
X0064136Y0346783D01*
X0064203Y0346783D01*
X0064270Y0346787D01*
X0065844Y0346787D01*
X0065913Y0346789D01*
X0065982Y0346795D01*
X0066051Y0346804D01*
X0066119Y0346817D01*
X0066186Y0346834D01*
X0066253Y0346854D01*
X0066318Y0346878D01*
X0066381Y0346905D01*
X0066444Y0346936D01*
X0066504Y0346970D01*
X0066562Y0347008D01*
X0066619Y0347048D01*
X0066673Y0347091D01*
X0066724Y0347138D01*
X0066773Y0347187D01*
X0066820Y0347238D01*
X0066863Y0347292D01*
X0066903Y0347349D01*
X0066941Y0347407D01*
X0066975Y0347467D01*
X0067006Y0347530D01*
X0067033Y0347593D01*
X0067057Y0347658D01*
X0067077Y0347725D01*
X0067094Y0347792D01*
X0067107Y0347860D01*
X0067116Y0347929D01*
X0067122Y0347998D01*
X0067124Y0348067D01*
X0067123Y0348137D01*
X0067118Y0348206D01*
X0067110Y0348275D01*
X0067098Y0348344D01*
X0067082Y0348411D01*
X0067062Y0348478D01*
X0067038Y0348544D01*
X0067011Y0348608D01*
X0066981Y0348670D01*
X0066947Y0348731D01*
X0066910Y0348790D01*
X0066869Y0348847D01*
X0066826Y0348901D01*
X0066779Y0348953D01*
X0066730Y0349002D01*
X0066678Y0349049D01*
X0066624Y0349092D01*
X0066567Y0349133D01*
X0066508Y0349170D01*
X0066447Y0349204D01*
X0066385Y0349234D01*
X0066321Y0349261D01*
X0066255Y0349285D01*
X0066188Y0349305D01*
X0066121Y0349321D01*
X0066052Y0349333D01*
X0065983Y0349341D01*
X0065914Y0349346D01*
X0065844Y0349347D01*
X0054309Y0350626D02*
X0051947Y0350626D01*
X0051876Y0350616D01*
X0051807Y0350602D01*
X0051738Y0350584D01*
X0051670Y0350563D01*
X0051603Y0350538D01*
X0051538Y0350509D01*
X0051474Y0350477D01*
X0051413Y0350442D01*
X0051353Y0350404D01*
X0051295Y0350362D01*
X0051240Y0350317D01*
X0051186Y0350270D01*
X0051136Y0350220D01*
X0051088Y0350167D01*
X0051043Y0350112D01*
X0051002Y0350054D01*
X0050963Y0349995D01*
X0050927Y0349933D01*
X0050895Y0349870D01*
X0050866Y0349804D01*
X0050841Y0349738D01*
X0050819Y0349670D01*
X0050801Y0349601D01*
X0050786Y0349532D01*
X0050776Y0349462D01*
X0050769Y0349391D01*
X0050765Y0349320D01*
X0050766Y0349249D01*
X0050766Y0349248D02*
X0050765Y0349177D01*
X0050769Y0349106D01*
X0050776Y0349035D01*
X0050786Y0348965D01*
X0050801Y0348896D01*
X0050819Y0348827D01*
X0050841Y0348759D01*
X0050866Y0348693D01*
X0050895Y0348627D01*
X0050927Y0348564D01*
X0050963Y0348502D01*
X0051002Y0348443D01*
X0051043Y0348385D01*
X0051088Y0348330D01*
X0051136Y0348277D01*
X0051186Y0348227D01*
X0051240Y0348180D01*
X0051295Y0348135D01*
X0051353Y0348093D01*
X0051413Y0348055D01*
X0051474Y0348020D01*
X0051538Y0347988D01*
X0051603Y0347959D01*
X0051670Y0347934D01*
X0051738Y0347913D01*
X0051807Y0347895D01*
X0051876Y0347881D01*
X0051947Y0347871D01*
X0051947Y0347870D02*
X0054309Y0347870D01*
X0054309Y0347871D02*
X0054380Y0347881D01*
X0054449Y0347895D01*
X0054518Y0347913D01*
X0054586Y0347934D01*
X0054653Y0347959D01*
X0054718Y0347988D01*
X0054782Y0348020D01*
X0054843Y0348055D01*
X0054903Y0348093D01*
X0054961Y0348135D01*
X0055016Y0348180D01*
X0055070Y0348227D01*
X0055120Y0348277D01*
X0055168Y0348330D01*
X0055213Y0348385D01*
X0055254Y0348443D01*
X0055293Y0348502D01*
X0055329Y0348564D01*
X0055361Y0348627D01*
X0055390Y0348693D01*
X0055415Y0348759D01*
X0055437Y0348827D01*
X0055455Y0348896D01*
X0055470Y0348965D01*
X0055480Y0349035D01*
X0055487Y0349106D01*
X0055491Y0349177D01*
X0055490Y0349248D01*
X0055490Y0349249D02*
X0055491Y0349320D01*
X0055487Y0349391D01*
X0055480Y0349462D01*
X0055470Y0349532D01*
X0055455Y0349601D01*
X0055437Y0349670D01*
X0055415Y0349738D01*
X0055390Y0349804D01*
X0055361Y0349870D01*
X0055329Y0349933D01*
X0055293Y0349995D01*
X0055254Y0350054D01*
X0055213Y0350112D01*
X0055168Y0350167D01*
X0055120Y0350220D01*
X0055070Y0350270D01*
X0055016Y0350317D01*
X0054961Y0350362D01*
X0054903Y0350404D01*
X0054843Y0350442D01*
X0054782Y0350477D01*
X0054718Y0350509D01*
X0054653Y0350538D01*
X0054586Y0350563D01*
X0054518Y0350584D01*
X0054449Y0350602D01*
X0054380Y0350616D01*
X0054309Y0350626D01*
X0064270Y0330213D02*
X0065844Y0330213D01*
X0065914Y0330212D01*
X0065983Y0330207D01*
X0066052Y0330199D01*
X0066121Y0330187D01*
X0066188Y0330171D01*
X0066255Y0330151D01*
X0066321Y0330127D01*
X0066385Y0330100D01*
X0066447Y0330070D01*
X0066508Y0330036D01*
X0066567Y0329999D01*
X0066624Y0329958D01*
X0066678Y0329915D01*
X0066730Y0329868D01*
X0066779Y0329819D01*
X0066826Y0329767D01*
X0066869Y0329713D01*
X0066910Y0329656D01*
X0066947Y0329597D01*
X0066981Y0329536D01*
X0067011Y0329474D01*
X0067038Y0329410D01*
X0067062Y0329344D01*
X0067082Y0329277D01*
X0067098Y0329210D01*
X0067110Y0329141D01*
X0067118Y0329072D01*
X0067123Y0329003D01*
X0067124Y0328933D01*
X0067122Y0328864D01*
X0067116Y0328795D01*
X0067107Y0328726D01*
X0067094Y0328658D01*
X0067077Y0328591D01*
X0067057Y0328524D01*
X0067033Y0328459D01*
X0067006Y0328396D01*
X0066975Y0328333D01*
X0066941Y0328273D01*
X0066903Y0328215D01*
X0066863Y0328158D01*
X0066820Y0328104D01*
X0066773Y0328053D01*
X0066724Y0328004D01*
X0066673Y0327957D01*
X0066619Y0327914D01*
X0066562Y0327874D01*
X0066504Y0327836D01*
X0066444Y0327802D01*
X0066381Y0327771D01*
X0066318Y0327744D01*
X0066253Y0327720D01*
X0066186Y0327700D01*
X0066119Y0327683D01*
X0066051Y0327670D01*
X0065982Y0327661D01*
X0065913Y0327655D01*
X0065844Y0327653D01*
X0065844Y0327654D02*
X0064270Y0327654D01*
X0064270Y0327653D02*
X0064203Y0327649D01*
X0064136Y0327649D01*
X0064068Y0327653D01*
X0064002Y0327661D01*
X0063935Y0327672D01*
X0063870Y0327688D01*
X0063805Y0327707D01*
X0063742Y0327729D01*
X0063680Y0327755D01*
X0063619Y0327785D01*
X0063561Y0327818D01*
X0063504Y0327854D01*
X0063450Y0327894D01*
X0063397Y0327936D01*
X0063348Y0327982D01*
X0063301Y0328030D01*
X0063257Y0328081D01*
X0063215Y0328134D01*
X0063177Y0328189D01*
X0063143Y0328247D01*
X0063111Y0328306D01*
X0063083Y0328368D01*
X0063058Y0328430D01*
X0063037Y0328494D01*
X0063020Y0328559D01*
X0063007Y0328625D01*
X0062997Y0328692D01*
X0062991Y0328759D01*
X0062989Y0328826D01*
X0062991Y0328893D01*
X0062990Y0328893D02*
X0062993Y0328966D01*
X0063000Y0329038D01*
X0063011Y0329109D01*
X0063025Y0329180D01*
X0063043Y0329250D01*
X0063066Y0329319D01*
X0063091Y0329387D01*
X0063121Y0329453D01*
X0063154Y0329517D01*
X0063190Y0329580D01*
X0063230Y0329640D01*
X0063273Y0329699D01*
X0063319Y0329754D01*
X0063368Y0329808D01*
X0063419Y0329858D01*
X0063474Y0329906D01*
X0063531Y0329951D01*
X0063590Y0329992D01*
X0063651Y0330030D01*
X0063715Y0330065D01*
X0063780Y0330097D01*
X0063847Y0330124D01*
X0063915Y0330149D01*
X0063984Y0330169D01*
X0064055Y0330186D01*
X0064126Y0330199D01*
X0064198Y0330208D01*
X0064270Y0330213D01*
X0054309Y0329130D02*
X0051947Y0329130D01*
X0051947Y0329129D02*
X0051876Y0329119D01*
X0051807Y0329105D01*
X0051738Y0329087D01*
X0051670Y0329066D01*
X0051603Y0329041D01*
X0051538Y0329012D01*
X0051474Y0328980D01*
X0051413Y0328945D01*
X0051353Y0328907D01*
X0051295Y0328865D01*
X0051240Y0328820D01*
X0051186Y0328773D01*
X0051136Y0328723D01*
X0051088Y0328670D01*
X0051043Y0328615D01*
X0051002Y0328557D01*
X0050963Y0328498D01*
X0050927Y0328436D01*
X0050895Y0328373D01*
X0050866Y0328307D01*
X0050841Y0328241D01*
X0050819Y0328173D01*
X0050801Y0328104D01*
X0050786Y0328035D01*
X0050776Y0327965D01*
X0050769Y0327894D01*
X0050765Y0327823D01*
X0050766Y0327752D01*
X0050766Y0327751D02*
X0050765Y0327680D01*
X0050769Y0327609D01*
X0050776Y0327538D01*
X0050786Y0327468D01*
X0050801Y0327399D01*
X0050819Y0327330D01*
X0050841Y0327262D01*
X0050866Y0327196D01*
X0050895Y0327130D01*
X0050927Y0327067D01*
X0050963Y0327005D01*
X0051002Y0326946D01*
X0051043Y0326888D01*
X0051088Y0326833D01*
X0051136Y0326780D01*
X0051186Y0326730D01*
X0051240Y0326683D01*
X0051295Y0326638D01*
X0051353Y0326596D01*
X0051413Y0326558D01*
X0051474Y0326523D01*
X0051538Y0326491D01*
X0051603Y0326462D01*
X0051670Y0326437D01*
X0051738Y0326416D01*
X0051807Y0326398D01*
X0051876Y0326384D01*
X0051947Y0326374D01*
X0054309Y0326374D01*
X0054380Y0326384D01*
X0054449Y0326398D01*
X0054518Y0326416D01*
X0054586Y0326437D01*
X0054653Y0326462D01*
X0054718Y0326491D01*
X0054782Y0326523D01*
X0054843Y0326558D01*
X0054903Y0326596D01*
X0054961Y0326638D01*
X0055016Y0326683D01*
X0055070Y0326730D01*
X0055120Y0326780D01*
X0055168Y0326833D01*
X0055213Y0326888D01*
X0055254Y0326946D01*
X0055293Y0327005D01*
X0055329Y0327067D01*
X0055361Y0327130D01*
X0055390Y0327196D01*
X0055415Y0327262D01*
X0055437Y0327330D01*
X0055455Y0327399D01*
X0055470Y0327468D01*
X0055480Y0327538D01*
X0055487Y0327609D01*
X0055491Y0327680D01*
X0055490Y0327751D01*
X0055490Y0327752D02*
X0055491Y0327823D01*
X0055487Y0327894D01*
X0055480Y0327965D01*
X0055470Y0328035D01*
X0055455Y0328104D01*
X0055437Y0328173D01*
X0055415Y0328241D01*
X0055390Y0328307D01*
X0055361Y0328373D01*
X0055329Y0328436D01*
X0055293Y0328498D01*
X0055254Y0328557D01*
X0055213Y0328615D01*
X0055168Y0328670D01*
X0055120Y0328723D01*
X0055070Y0328773D01*
X0055016Y0328820D01*
X0054961Y0328865D01*
X0054903Y0328907D01*
X0054843Y0328945D01*
X0054782Y0328980D01*
X0054718Y0329012D01*
X0054653Y0329041D01*
X0054586Y0329066D01*
X0054518Y0329087D01*
X0054449Y0329105D01*
X0054380Y0329119D01*
X0054309Y0329129D01*
X0054309Y0303126D02*
X0051947Y0303126D01*
X0051876Y0303116D01*
X0051807Y0303102D01*
X0051738Y0303084D01*
X0051670Y0303063D01*
X0051603Y0303038D01*
X0051538Y0303009D01*
X0051474Y0302977D01*
X0051413Y0302942D01*
X0051353Y0302904D01*
X0051295Y0302862D01*
X0051240Y0302817D01*
X0051186Y0302770D01*
X0051136Y0302720D01*
X0051088Y0302667D01*
X0051043Y0302612D01*
X0051002Y0302554D01*
X0050963Y0302495D01*
X0050927Y0302433D01*
X0050895Y0302370D01*
X0050866Y0302304D01*
X0050841Y0302238D01*
X0050819Y0302170D01*
X0050801Y0302101D01*
X0050786Y0302032D01*
X0050776Y0301962D01*
X0050769Y0301891D01*
X0050765Y0301820D01*
X0050766Y0301749D01*
X0050766Y0301748D02*
X0050765Y0301677D01*
X0050769Y0301606D01*
X0050776Y0301535D01*
X0050786Y0301465D01*
X0050801Y0301396D01*
X0050819Y0301327D01*
X0050841Y0301259D01*
X0050866Y0301193D01*
X0050895Y0301127D01*
X0050927Y0301064D01*
X0050963Y0301002D01*
X0051002Y0300943D01*
X0051043Y0300885D01*
X0051088Y0300830D01*
X0051136Y0300777D01*
X0051186Y0300727D01*
X0051240Y0300680D01*
X0051295Y0300635D01*
X0051353Y0300593D01*
X0051413Y0300555D01*
X0051474Y0300520D01*
X0051538Y0300488D01*
X0051603Y0300459D01*
X0051670Y0300434D01*
X0051738Y0300413D01*
X0051807Y0300395D01*
X0051876Y0300381D01*
X0051947Y0300371D01*
X0051947Y0300370D02*
X0054309Y0300370D01*
X0054309Y0300371D02*
X0054380Y0300381D01*
X0054449Y0300395D01*
X0054518Y0300413D01*
X0054586Y0300434D01*
X0054653Y0300459D01*
X0054718Y0300488D01*
X0054782Y0300520D01*
X0054843Y0300555D01*
X0054903Y0300593D01*
X0054961Y0300635D01*
X0055016Y0300680D01*
X0055070Y0300727D01*
X0055120Y0300777D01*
X0055168Y0300830D01*
X0055213Y0300885D01*
X0055254Y0300943D01*
X0055293Y0301002D01*
X0055329Y0301064D01*
X0055361Y0301127D01*
X0055390Y0301193D01*
X0055415Y0301259D01*
X0055437Y0301327D01*
X0055455Y0301396D01*
X0055470Y0301465D01*
X0055480Y0301535D01*
X0055487Y0301606D01*
X0055491Y0301677D01*
X0055490Y0301748D01*
X0055490Y0301749D02*
X0055491Y0301820D01*
X0055487Y0301891D01*
X0055480Y0301962D01*
X0055470Y0302032D01*
X0055455Y0302101D01*
X0055437Y0302170D01*
X0055415Y0302238D01*
X0055390Y0302304D01*
X0055361Y0302370D01*
X0055329Y0302433D01*
X0055293Y0302495D01*
X0055254Y0302554D01*
X0055213Y0302612D01*
X0055168Y0302667D01*
X0055120Y0302720D01*
X0055070Y0302770D01*
X0055016Y0302817D01*
X0054961Y0302862D01*
X0054903Y0302904D01*
X0054843Y0302942D01*
X0054782Y0302977D01*
X0054718Y0303009D01*
X0054653Y0303038D01*
X0054586Y0303063D01*
X0054518Y0303084D01*
X0054449Y0303102D01*
X0054380Y0303116D01*
X0054309Y0303126D01*
X0064270Y0301846D02*
X0065844Y0301846D01*
X0065844Y0301847D02*
X0065914Y0301846D01*
X0065983Y0301841D01*
X0066052Y0301833D01*
X0066121Y0301821D01*
X0066188Y0301805D01*
X0066255Y0301785D01*
X0066321Y0301761D01*
X0066385Y0301734D01*
X0066447Y0301704D01*
X0066508Y0301670D01*
X0066567Y0301633D01*
X0066624Y0301592D01*
X0066678Y0301549D01*
X0066730Y0301502D01*
X0066779Y0301453D01*
X0066826Y0301401D01*
X0066869Y0301347D01*
X0066910Y0301290D01*
X0066947Y0301231D01*
X0066981Y0301170D01*
X0067011Y0301108D01*
X0067038Y0301044D01*
X0067062Y0300978D01*
X0067082Y0300911D01*
X0067098Y0300844D01*
X0067110Y0300775D01*
X0067118Y0300706D01*
X0067123Y0300637D01*
X0067124Y0300567D01*
X0067122Y0300498D01*
X0067116Y0300429D01*
X0067107Y0300360D01*
X0067094Y0300292D01*
X0067077Y0300225D01*
X0067057Y0300158D01*
X0067033Y0300093D01*
X0067006Y0300030D01*
X0066975Y0299967D01*
X0066941Y0299907D01*
X0066903Y0299849D01*
X0066863Y0299792D01*
X0066820Y0299738D01*
X0066773Y0299687D01*
X0066724Y0299638D01*
X0066673Y0299591D01*
X0066619Y0299548D01*
X0066562Y0299508D01*
X0066504Y0299470D01*
X0066444Y0299436D01*
X0066381Y0299405D01*
X0066318Y0299378D01*
X0066253Y0299354D01*
X0066186Y0299334D01*
X0066119Y0299317D01*
X0066051Y0299304D01*
X0065982Y0299295D01*
X0065913Y0299289D01*
X0065844Y0299287D01*
X0064270Y0299287D01*
X0064203Y0299283D01*
X0064136Y0299283D01*
X0064068Y0299287D01*
X0064002Y0299295D01*
X0063935Y0299306D01*
X0063870Y0299322D01*
X0063805Y0299341D01*
X0063742Y0299363D01*
X0063680Y0299389D01*
X0063619Y0299419D01*
X0063561Y0299452D01*
X0063504Y0299488D01*
X0063450Y0299528D01*
X0063397Y0299570D01*
X0063348Y0299616D01*
X0063301Y0299664D01*
X0063257Y0299715D01*
X0063215Y0299768D01*
X0063177Y0299823D01*
X0063143Y0299881D01*
X0063111Y0299940D01*
X0063083Y0300002D01*
X0063058Y0300064D01*
X0063037Y0300128D01*
X0063020Y0300193D01*
X0063007Y0300259D01*
X0062997Y0300326D01*
X0062991Y0300393D01*
X0062989Y0300460D01*
X0062991Y0300527D01*
X0062990Y0300527D02*
X0062993Y0300600D01*
X0063000Y0300672D01*
X0063011Y0300743D01*
X0063025Y0300814D01*
X0063043Y0300884D01*
X0063066Y0300953D01*
X0063091Y0301021D01*
X0063121Y0301087D01*
X0063154Y0301151D01*
X0063190Y0301214D01*
X0063230Y0301274D01*
X0063273Y0301333D01*
X0063319Y0301388D01*
X0063368Y0301442D01*
X0063419Y0301492D01*
X0063474Y0301540D01*
X0063531Y0301585D01*
X0063590Y0301626D01*
X0063651Y0301664D01*
X0063715Y0301699D01*
X0063780Y0301731D01*
X0063847Y0301758D01*
X0063915Y0301783D01*
X0063984Y0301803D01*
X0064055Y0301820D01*
X0064126Y0301833D01*
X0064198Y0301842D01*
X0064270Y0301847D01*
X0064270Y0282713D02*
X0065844Y0282713D01*
X0065914Y0282712D01*
X0065983Y0282707D01*
X0066052Y0282699D01*
X0066121Y0282687D01*
X0066188Y0282671D01*
X0066255Y0282651D01*
X0066321Y0282627D01*
X0066385Y0282600D01*
X0066447Y0282570D01*
X0066508Y0282536D01*
X0066567Y0282499D01*
X0066624Y0282458D01*
X0066678Y0282415D01*
X0066730Y0282368D01*
X0066779Y0282319D01*
X0066826Y0282267D01*
X0066869Y0282213D01*
X0066910Y0282156D01*
X0066947Y0282097D01*
X0066981Y0282036D01*
X0067011Y0281974D01*
X0067038Y0281910D01*
X0067062Y0281844D01*
X0067082Y0281777D01*
X0067098Y0281710D01*
X0067110Y0281641D01*
X0067118Y0281572D01*
X0067123Y0281503D01*
X0067124Y0281433D01*
X0067122Y0281364D01*
X0067116Y0281295D01*
X0067107Y0281226D01*
X0067094Y0281158D01*
X0067077Y0281091D01*
X0067057Y0281024D01*
X0067033Y0280959D01*
X0067006Y0280896D01*
X0066975Y0280833D01*
X0066941Y0280773D01*
X0066903Y0280715D01*
X0066863Y0280658D01*
X0066820Y0280604D01*
X0066773Y0280553D01*
X0066724Y0280504D01*
X0066673Y0280457D01*
X0066619Y0280414D01*
X0066562Y0280374D01*
X0066504Y0280336D01*
X0066444Y0280302D01*
X0066381Y0280271D01*
X0066318Y0280244D01*
X0066253Y0280220D01*
X0066186Y0280200D01*
X0066119Y0280183D01*
X0066051Y0280170D01*
X0065982Y0280161D01*
X0065913Y0280155D01*
X0065844Y0280153D01*
X0065844Y0280154D02*
X0064270Y0280154D01*
X0064270Y0280153D02*
X0064203Y0280149D01*
X0064136Y0280149D01*
X0064068Y0280153D01*
X0064002Y0280161D01*
X0063935Y0280172D01*
X0063870Y0280188D01*
X0063805Y0280207D01*
X0063742Y0280229D01*
X0063680Y0280255D01*
X0063619Y0280285D01*
X0063561Y0280318D01*
X0063504Y0280354D01*
X0063450Y0280394D01*
X0063397Y0280436D01*
X0063348Y0280482D01*
X0063301Y0280530D01*
X0063257Y0280581D01*
X0063215Y0280634D01*
X0063177Y0280689D01*
X0063143Y0280747D01*
X0063111Y0280806D01*
X0063083Y0280868D01*
X0063058Y0280930D01*
X0063037Y0280994D01*
X0063020Y0281059D01*
X0063007Y0281125D01*
X0062997Y0281192D01*
X0062991Y0281259D01*
X0062989Y0281326D01*
X0062991Y0281393D01*
X0062990Y0281393D02*
X0062993Y0281466D01*
X0063000Y0281538D01*
X0063011Y0281609D01*
X0063025Y0281680D01*
X0063043Y0281750D01*
X0063066Y0281819D01*
X0063091Y0281887D01*
X0063121Y0281953D01*
X0063154Y0282017D01*
X0063190Y0282080D01*
X0063230Y0282140D01*
X0063273Y0282199D01*
X0063319Y0282254D01*
X0063368Y0282308D01*
X0063419Y0282358D01*
X0063474Y0282406D01*
X0063531Y0282451D01*
X0063590Y0282492D01*
X0063651Y0282530D01*
X0063715Y0282565D01*
X0063780Y0282597D01*
X0063847Y0282624D01*
X0063915Y0282649D01*
X0063984Y0282669D01*
X0064055Y0282686D01*
X0064126Y0282699D01*
X0064198Y0282708D01*
X0064270Y0282713D01*
X0054309Y0281630D02*
X0051947Y0281630D01*
X0051947Y0281629D02*
X0051876Y0281619D01*
X0051807Y0281605D01*
X0051738Y0281587D01*
X0051670Y0281566D01*
X0051603Y0281541D01*
X0051538Y0281512D01*
X0051474Y0281480D01*
X0051413Y0281445D01*
X0051353Y0281407D01*
X0051295Y0281365D01*
X0051240Y0281320D01*
X0051186Y0281273D01*
X0051136Y0281223D01*
X0051088Y0281170D01*
X0051043Y0281115D01*
X0051002Y0281057D01*
X0050963Y0280998D01*
X0050927Y0280936D01*
X0050895Y0280873D01*
X0050866Y0280807D01*
X0050841Y0280741D01*
X0050819Y0280673D01*
X0050801Y0280604D01*
X0050786Y0280535D01*
X0050776Y0280465D01*
X0050769Y0280394D01*
X0050765Y0280323D01*
X0050766Y0280252D01*
X0050766Y0280251D02*
X0050765Y0280180D01*
X0050769Y0280109D01*
X0050776Y0280038D01*
X0050786Y0279968D01*
X0050801Y0279899D01*
X0050819Y0279830D01*
X0050841Y0279762D01*
X0050866Y0279696D01*
X0050895Y0279630D01*
X0050927Y0279567D01*
X0050963Y0279505D01*
X0051002Y0279446D01*
X0051043Y0279388D01*
X0051088Y0279333D01*
X0051136Y0279280D01*
X0051186Y0279230D01*
X0051240Y0279183D01*
X0051295Y0279138D01*
X0051353Y0279096D01*
X0051413Y0279058D01*
X0051474Y0279023D01*
X0051538Y0278991D01*
X0051603Y0278962D01*
X0051670Y0278937D01*
X0051738Y0278916D01*
X0051807Y0278898D01*
X0051876Y0278884D01*
X0051947Y0278874D01*
X0054309Y0278874D01*
X0054380Y0278884D01*
X0054449Y0278898D01*
X0054518Y0278916D01*
X0054586Y0278937D01*
X0054653Y0278962D01*
X0054718Y0278991D01*
X0054782Y0279023D01*
X0054843Y0279058D01*
X0054903Y0279096D01*
X0054961Y0279138D01*
X0055016Y0279183D01*
X0055070Y0279230D01*
X0055120Y0279280D01*
X0055168Y0279333D01*
X0055213Y0279388D01*
X0055254Y0279446D01*
X0055293Y0279505D01*
X0055329Y0279567D01*
X0055361Y0279630D01*
X0055390Y0279696D01*
X0055415Y0279762D01*
X0055437Y0279830D01*
X0055455Y0279899D01*
X0055470Y0279968D01*
X0055480Y0280038D01*
X0055487Y0280109D01*
X0055491Y0280180D01*
X0055490Y0280251D01*
X0055490Y0280252D02*
X0055491Y0280323D01*
X0055487Y0280394D01*
X0055480Y0280465D01*
X0055470Y0280535D01*
X0055455Y0280604D01*
X0055437Y0280673D01*
X0055415Y0280741D01*
X0055390Y0280807D01*
X0055361Y0280873D01*
X0055329Y0280936D01*
X0055293Y0280998D01*
X0055254Y0281057D01*
X0055213Y0281115D01*
X0055168Y0281170D01*
X0055120Y0281223D01*
X0055070Y0281273D01*
X0055016Y0281320D01*
X0054961Y0281365D01*
X0054903Y0281407D01*
X0054843Y0281445D01*
X0054782Y0281480D01*
X0054718Y0281512D01*
X0054653Y0281541D01*
X0054586Y0281566D01*
X0054518Y0281587D01*
X0054449Y0281605D01*
X0054380Y0281619D01*
X0054309Y0281629D01*
X0054309Y0128626D02*
X0051947Y0128626D01*
X0051876Y0128616D01*
X0051807Y0128602D01*
X0051738Y0128584D01*
X0051670Y0128563D01*
X0051603Y0128538D01*
X0051538Y0128509D01*
X0051474Y0128477D01*
X0051413Y0128442D01*
X0051353Y0128404D01*
X0051295Y0128362D01*
X0051240Y0128317D01*
X0051186Y0128270D01*
X0051136Y0128220D01*
X0051088Y0128167D01*
X0051043Y0128112D01*
X0051002Y0128054D01*
X0050963Y0127995D01*
X0050927Y0127933D01*
X0050895Y0127870D01*
X0050866Y0127804D01*
X0050841Y0127738D01*
X0050819Y0127670D01*
X0050801Y0127601D01*
X0050786Y0127532D01*
X0050776Y0127462D01*
X0050769Y0127391D01*
X0050765Y0127320D01*
X0050766Y0127249D01*
X0050766Y0127248D02*
X0050765Y0127177D01*
X0050769Y0127106D01*
X0050776Y0127035D01*
X0050786Y0126965D01*
X0050801Y0126896D01*
X0050819Y0126827D01*
X0050841Y0126759D01*
X0050866Y0126693D01*
X0050895Y0126627D01*
X0050927Y0126564D01*
X0050963Y0126502D01*
X0051002Y0126443D01*
X0051043Y0126385D01*
X0051088Y0126330D01*
X0051136Y0126277D01*
X0051186Y0126227D01*
X0051240Y0126180D01*
X0051295Y0126135D01*
X0051353Y0126093D01*
X0051413Y0126055D01*
X0051474Y0126020D01*
X0051538Y0125988D01*
X0051603Y0125959D01*
X0051670Y0125934D01*
X0051738Y0125913D01*
X0051807Y0125895D01*
X0051876Y0125881D01*
X0051947Y0125871D01*
X0051947Y0125870D02*
X0054309Y0125870D01*
X0054309Y0125871D02*
X0054380Y0125881D01*
X0054449Y0125895D01*
X0054518Y0125913D01*
X0054586Y0125934D01*
X0054653Y0125959D01*
X0054718Y0125988D01*
X0054782Y0126020D01*
X0054843Y0126055D01*
X0054903Y0126093D01*
X0054961Y0126135D01*
X0055016Y0126180D01*
X0055070Y0126227D01*
X0055120Y0126277D01*
X0055168Y0126330D01*
X0055213Y0126385D01*
X0055254Y0126443D01*
X0055293Y0126502D01*
X0055329Y0126564D01*
X0055361Y0126627D01*
X0055390Y0126693D01*
X0055415Y0126759D01*
X0055437Y0126827D01*
X0055455Y0126896D01*
X0055470Y0126965D01*
X0055480Y0127035D01*
X0055487Y0127106D01*
X0055491Y0127177D01*
X0055490Y0127248D01*
X0055490Y0127249D02*
X0055491Y0127320D01*
X0055487Y0127391D01*
X0055480Y0127462D01*
X0055470Y0127532D01*
X0055455Y0127601D01*
X0055437Y0127670D01*
X0055415Y0127738D01*
X0055390Y0127804D01*
X0055361Y0127870D01*
X0055329Y0127933D01*
X0055293Y0127995D01*
X0055254Y0128054D01*
X0055213Y0128112D01*
X0055168Y0128167D01*
X0055120Y0128220D01*
X0055070Y0128270D01*
X0055016Y0128317D01*
X0054961Y0128362D01*
X0054903Y0128404D01*
X0054843Y0128442D01*
X0054782Y0128477D01*
X0054718Y0128509D01*
X0054653Y0128538D01*
X0054586Y0128563D01*
X0054518Y0128584D01*
X0054449Y0128602D01*
X0054380Y0128616D01*
X0054309Y0128626D01*
X0064270Y0127346D02*
X0065844Y0127346D01*
X0065844Y0127347D02*
X0065914Y0127346D01*
X0065983Y0127341D01*
X0066052Y0127333D01*
X0066121Y0127321D01*
X0066188Y0127305D01*
X0066255Y0127285D01*
X0066321Y0127261D01*
X0066385Y0127234D01*
X0066447Y0127204D01*
X0066508Y0127170D01*
X0066567Y0127133D01*
X0066624Y0127092D01*
X0066678Y0127049D01*
X0066730Y0127002D01*
X0066779Y0126953D01*
X0066826Y0126901D01*
X0066869Y0126847D01*
X0066910Y0126790D01*
X0066947Y0126731D01*
X0066981Y0126670D01*
X0067011Y0126608D01*
X0067038Y0126544D01*
X0067062Y0126478D01*
X0067082Y0126411D01*
X0067098Y0126344D01*
X0067110Y0126275D01*
X0067118Y0126206D01*
X0067123Y0126137D01*
X0067124Y0126067D01*
X0067122Y0125998D01*
X0067116Y0125929D01*
X0067107Y0125860D01*
X0067094Y0125792D01*
X0067077Y0125725D01*
X0067057Y0125658D01*
X0067033Y0125593D01*
X0067006Y0125530D01*
X0066975Y0125467D01*
X0066941Y0125407D01*
X0066903Y0125349D01*
X0066863Y0125292D01*
X0066820Y0125238D01*
X0066773Y0125187D01*
X0066724Y0125138D01*
X0066673Y0125091D01*
X0066619Y0125048D01*
X0066562Y0125008D01*
X0066504Y0124970D01*
X0066444Y0124936D01*
X0066381Y0124905D01*
X0066318Y0124878D01*
X0066253Y0124854D01*
X0066186Y0124834D01*
X0066119Y0124817D01*
X0066051Y0124804D01*
X0065982Y0124795D01*
X0065913Y0124789D01*
X0065844Y0124787D01*
X0064270Y0124787D01*
X0064203Y0124783D01*
X0064136Y0124783D01*
X0064068Y0124787D01*
X0064002Y0124795D01*
X0063935Y0124806D01*
X0063870Y0124822D01*
X0063805Y0124841D01*
X0063742Y0124863D01*
X0063680Y0124889D01*
X0063619Y0124919D01*
X0063561Y0124952D01*
X0063504Y0124988D01*
X0063450Y0125028D01*
X0063397Y0125070D01*
X0063348Y0125116D01*
X0063301Y0125164D01*
X0063257Y0125215D01*
X0063215Y0125268D01*
X0063177Y0125323D01*
X0063143Y0125381D01*
X0063111Y0125440D01*
X0063083Y0125502D01*
X0063058Y0125564D01*
X0063037Y0125628D01*
X0063020Y0125693D01*
X0063007Y0125759D01*
X0062997Y0125826D01*
X0062991Y0125893D01*
X0062989Y0125960D01*
X0062991Y0126027D01*
X0062990Y0126027D02*
X0062993Y0126100D01*
X0063000Y0126172D01*
X0063011Y0126243D01*
X0063025Y0126314D01*
X0063043Y0126384D01*
X0063066Y0126453D01*
X0063091Y0126521D01*
X0063121Y0126587D01*
X0063154Y0126651D01*
X0063190Y0126714D01*
X0063230Y0126774D01*
X0063273Y0126833D01*
X0063319Y0126888D01*
X0063368Y0126942D01*
X0063419Y0126992D01*
X0063474Y0127040D01*
X0063531Y0127085D01*
X0063590Y0127126D01*
X0063651Y0127164D01*
X0063715Y0127199D01*
X0063780Y0127231D01*
X0063847Y0127258D01*
X0063915Y0127283D01*
X0063984Y0127303D01*
X0064055Y0127320D01*
X0064126Y0127333D01*
X0064198Y0127342D01*
X0064270Y0127347D01*
X0064270Y0108213D02*
X0065844Y0108213D01*
X0065914Y0108212D01*
X0065983Y0108207D01*
X0066052Y0108199D01*
X0066121Y0108187D01*
X0066188Y0108171D01*
X0066255Y0108151D01*
X0066321Y0108127D01*
X0066385Y0108100D01*
X0066447Y0108070D01*
X0066508Y0108036D01*
X0066567Y0107999D01*
X0066624Y0107958D01*
X0066678Y0107915D01*
X0066730Y0107868D01*
X0066779Y0107819D01*
X0066826Y0107767D01*
X0066869Y0107713D01*
X0066910Y0107656D01*
X0066947Y0107597D01*
X0066981Y0107536D01*
X0067011Y0107474D01*
X0067038Y0107410D01*
X0067062Y0107344D01*
X0067082Y0107277D01*
X0067098Y0107210D01*
X0067110Y0107141D01*
X0067118Y0107072D01*
X0067123Y0107003D01*
X0067124Y0106933D01*
X0067122Y0106864D01*
X0067116Y0106795D01*
X0067107Y0106726D01*
X0067094Y0106658D01*
X0067077Y0106591D01*
X0067057Y0106524D01*
X0067033Y0106459D01*
X0067006Y0106396D01*
X0066975Y0106333D01*
X0066941Y0106273D01*
X0066903Y0106215D01*
X0066863Y0106158D01*
X0066820Y0106104D01*
X0066773Y0106053D01*
X0066724Y0106004D01*
X0066673Y0105957D01*
X0066619Y0105914D01*
X0066562Y0105874D01*
X0066504Y0105836D01*
X0066444Y0105802D01*
X0066381Y0105771D01*
X0066318Y0105744D01*
X0066253Y0105720D01*
X0066186Y0105700D01*
X0066119Y0105683D01*
X0066051Y0105670D01*
X0065982Y0105661D01*
X0065913Y0105655D01*
X0065844Y0105653D01*
X0065844Y0105654D02*
X0064270Y0105654D01*
X0064270Y0105653D02*
X0064203Y0105649D01*
X0064136Y0105649D01*
X0064068Y0105653D01*
X0064002Y0105661D01*
X0063935Y0105672D01*
X0063870Y0105688D01*
X0063805Y0105707D01*
X0063742Y0105729D01*
X0063680Y0105755D01*
X0063619Y0105785D01*
X0063561Y0105818D01*
X0063504Y0105854D01*
X0063450Y0105894D01*
X0063397Y0105936D01*
X0063348Y0105982D01*
X0063301Y0106030D01*
X0063257Y0106081D01*
X0063215Y0106134D01*
X0063177Y0106189D01*
X0063143Y0106247D01*
X0063111Y0106306D01*
X0063083Y0106368D01*
X0063058Y0106430D01*
X0063037Y0106494D01*
X0063020Y0106559D01*
X0063007Y0106625D01*
X0062997Y0106692D01*
X0062991Y0106759D01*
X0062989Y0106826D01*
X0062991Y0106893D01*
X0062990Y0106893D02*
X0062993Y0106966D01*
X0063000Y0107038D01*
X0063011Y0107109D01*
X0063025Y0107180D01*
X0063043Y0107250D01*
X0063066Y0107319D01*
X0063091Y0107387D01*
X0063121Y0107453D01*
X0063154Y0107517D01*
X0063190Y0107580D01*
X0063230Y0107640D01*
X0063273Y0107699D01*
X0063319Y0107754D01*
X0063368Y0107808D01*
X0063419Y0107858D01*
X0063474Y0107906D01*
X0063531Y0107951D01*
X0063590Y0107992D01*
X0063651Y0108030D01*
X0063715Y0108065D01*
X0063780Y0108097D01*
X0063847Y0108124D01*
X0063915Y0108149D01*
X0063984Y0108169D01*
X0064055Y0108186D01*
X0064126Y0108199D01*
X0064198Y0108208D01*
X0064270Y0108213D01*
X0054309Y0107130D02*
X0051947Y0107130D01*
X0051947Y0107129D02*
X0051876Y0107119D01*
X0051807Y0107105D01*
X0051738Y0107087D01*
X0051670Y0107066D01*
X0051603Y0107041D01*
X0051538Y0107012D01*
X0051474Y0106980D01*
X0051413Y0106945D01*
X0051353Y0106907D01*
X0051295Y0106865D01*
X0051240Y0106820D01*
X0051186Y0106773D01*
X0051136Y0106723D01*
X0051088Y0106670D01*
X0051043Y0106615D01*
X0051002Y0106557D01*
X0050963Y0106498D01*
X0050927Y0106436D01*
X0050895Y0106373D01*
X0050866Y0106307D01*
X0050841Y0106241D01*
X0050819Y0106173D01*
X0050801Y0106104D01*
X0050786Y0106035D01*
X0050776Y0105965D01*
X0050769Y0105894D01*
X0050765Y0105823D01*
X0050766Y0105752D01*
X0050766Y0105751D02*
X0050765Y0105680D01*
X0050769Y0105609D01*
X0050776Y0105538D01*
X0050786Y0105468D01*
X0050801Y0105399D01*
X0050819Y0105330D01*
X0050841Y0105262D01*
X0050866Y0105196D01*
X0050895Y0105130D01*
X0050927Y0105067D01*
X0050963Y0105005D01*
X0051002Y0104946D01*
X0051043Y0104888D01*
X0051088Y0104833D01*
X0051136Y0104780D01*
X0051186Y0104730D01*
X0051240Y0104683D01*
X0051295Y0104638D01*
X0051353Y0104596D01*
X0051413Y0104558D01*
X0051474Y0104523D01*
X0051538Y0104491D01*
X0051603Y0104462D01*
X0051670Y0104437D01*
X0051738Y0104416D01*
X0051807Y0104398D01*
X0051876Y0104384D01*
X0051947Y0104374D01*
X0054309Y0104374D01*
X0054380Y0104384D01*
X0054449Y0104398D01*
X0054518Y0104416D01*
X0054586Y0104437D01*
X0054653Y0104462D01*
X0054718Y0104491D01*
X0054782Y0104523D01*
X0054843Y0104558D01*
X0054903Y0104596D01*
X0054961Y0104638D01*
X0055016Y0104683D01*
X0055070Y0104730D01*
X0055120Y0104780D01*
X0055168Y0104833D01*
X0055213Y0104888D01*
X0055254Y0104946D01*
X0055293Y0105005D01*
X0055329Y0105067D01*
X0055361Y0105130D01*
X0055390Y0105196D01*
X0055415Y0105262D01*
X0055437Y0105330D01*
X0055455Y0105399D01*
X0055470Y0105468D01*
X0055480Y0105538D01*
X0055487Y0105609D01*
X0055491Y0105680D01*
X0055490Y0105751D01*
X0055490Y0105752D02*
X0055491Y0105823D01*
X0055487Y0105894D01*
X0055480Y0105965D01*
X0055470Y0106035D01*
X0055455Y0106104D01*
X0055437Y0106173D01*
X0055415Y0106241D01*
X0055390Y0106307D01*
X0055361Y0106373D01*
X0055329Y0106436D01*
X0055293Y0106498D01*
X0055254Y0106557D01*
X0055213Y0106615D01*
X0055168Y0106670D01*
X0055120Y0106723D01*
X0055070Y0106773D01*
X0055016Y0106820D01*
X0054961Y0106865D01*
X0054903Y0106907D01*
X0054843Y0106945D01*
X0054782Y0106980D01*
X0054718Y0107012D01*
X0054653Y0107041D01*
X0054586Y0107066D01*
X0054518Y0107087D01*
X0054449Y0107105D01*
X0054380Y0107119D01*
X0054309Y0107129D01*
X0054309Y0081126D02*
X0051947Y0081126D01*
X0051876Y0081116D01*
X0051807Y0081102D01*
X0051738Y0081084D01*
X0051670Y0081063D01*
X0051603Y0081038D01*
X0051538Y0081009D01*
X0051474Y0080977D01*
X0051413Y0080942D01*
X0051353Y0080904D01*
X0051295Y0080862D01*
X0051240Y0080817D01*
X0051186Y0080770D01*
X0051136Y0080720D01*
X0051088Y0080667D01*
X0051043Y0080612D01*
X0051002Y0080554D01*
X0050963Y0080495D01*
X0050927Y0080433D01*
X0050895Y0080370D01*
X0050866Y0080304D01*
X0050841Y0080238D01*
X0050819Y0080170D01*
X0050801Y0080101D01*
X0050786Y0080032D01*
X0050776Y0079962D01*
X0050769Y0079891D01*
X0050765Y0079820D01*
X0050766Y0079749D01*
X0050766Y0079748D02*
X0050765Y0079677D01*
X0050769Y0079606D01*
X0050776Y0079535D01*
X0050786Y0079465D01*
X0050801Y0079396D01*
X0050819Y0079327D01*
X0050841Y0079259D01*
X0050866Y0079193D01*
X0050895Y0079127D01*
X0050927Y0079064D01*
X0050963Y0079002D01*
X0051002Y0078943D01*
X0051043Y0078885D01*
X0051088Y0078830D01*
X0051136Y0078777D01*
X0051186Y0078727D01*
X0051240Y0078680D01*
X0051295Y0078635D01*
X0051353Y0078593D01*
X0051413Y0078555D01*
X0051474Y0078520D01*
X0051538Y0078488D01*
X0051603Y0078459D01*
X0051670Y0078434D01*
X0051738Y0078413D01*
X0051807Y0078395D01*
X0051876Y0078381D01*
X0051947Y0078371D01*
X0051947Y0078370D02*
X0054309Y0078370D01*
X0054309Y0078371D02*
X0054380Y0078381D01*
X0054449Y0078395D01*
X0054518Y0078413D01*
X0054586Y0078434D01*
X0054653Y0078459D01*
X0054718Y0078488D01*
X0054782Y0078520D01*
X0054843Y0078555D01*
X0054903Y0078593D01*
X0054961Y0078635D01*
X0055016Y0078680D01*
X0055070Y0078727D01*
X0055120Y0078777D01*
X0055168Y0078830D01*
X0055213Y0078885D01*
X0055254Y0078943D01*
X0055293Y0079002D01*
X0055329Y0079064D01*
X0055361Y0079127D01*
X0055390Y0079193D01*
X0055415Y0079259D01*
X0055437Y0079327D01*
X0055455Y0079396D01*
X0055470Y0079465D01*
X0055480Y0079535D01*
X0055487Y0079606D01*
X0055491Y0079677D01*
X0055490Y0079748D01*
X0055490Y0079749D02*
X0055491Y0079820D01*
X0055487Y0079891D01*
X0055480Y0079962D01*
X0055470Y0080032D01*
X0055455Y0080101D01*
X0055437Y0080170D01*
X0055415Y0080238D01*
X0055390Y0080304D01*
X0055361Y0080370D01*
X0055329Y0080433D01*
X0055293Y0080495D01*
X0055254Y0080554D01*
X0055213Y0080612D01*
X0055168Y0080667D01*
X0055120Y0080720D01*
X0055070Y0080770D01*
X0055016Y0080817D01*
X0054961Y0080862D01*
X0054903Y0080904D01*
X0054843Y0080942D01*
X0054782Y0080977D01*
X0054718Y0081009D01*
X0054653Y0081038D01*
X0054586Y0081063D01*
X0054518Y0081084D01*
X0054449Y0081102D01*
X0054380Y0081116D01*
X0054309Y0081126D01*
X0064270Y0079846D02*
X0065844Y0079846D01*
X0065844Y0079847D02*
X0065914Y0079846D01*
X0065983Y0079841D01*
X0066052Y0079833D01*
X0066121Y0079821D01*
X0066188Y0079805D01*
X0066255Y0079785D01*
X0066321Y0079761D01*
X0066385Y0079734D01*
X0066447Y0079704D01*
X0066508Y0079670D01*
X0066567Y0079633D01*
X0066624Y0079592D01*
X0066678Y0079549D01*
X0066730Y0079502D01*
X0066779Y0079453D01*
X0066826Y0079401D01*
X0066869Y0079347D01*
X0066910Y0079290D01*
X0066947Y0079231D01*
X0066981Y0079170D01*
X0067011Y0079108D01*
X0067038Y0079044D01*
X0067062Y0078978D01*
X0067082Y0078911D01*
X0067098Y0078844D01*
X0067110Y0078775D01*
X0067118Y0078706D01*
X0067123Y0078637D01*
X0067124Y0078567D01*
X0067122Y0078498D01*
X0067116Y0078429D01*
X0067107Y0078360D01*
X0067094Y0078292D01*
X0067077Y0078225D01*
X0067057Y0078158D01*
X0067033Y0078093D01*
X0067006Y0078030D01*
X0066975Y0077967D01*
X0066941Y0077907D01*
X0066903Y0077849D01*
X0066863Y0077792D01*
X0066820Y0077738D01*
X0066773Y0077687D01*
X0066724Y0077638D01*
X0066673Y0077591D01*
X0066619Y0077548D01*
X0066562Y0077508D01*
X0066504Y0077470D01*
X0066444Y0077436D01*
X0066381Y0077405D01*
X0066318Y0077378D01*
X0066253Y0077354D01*
X0066186Y0077334D01*
X0066119Y0077317D01*
X0066051Y0077304D01*
X0065982Y0077295D01*
X0065913Y0077289D01*
X0065844Y0077287D01*
X0064270Y0077287D01*
X0064203Y0077283D01*
X0064136Y0077283D01*
X0064068Y0077287D01*
X0064002Y0077295D01*
X0063935Y0077306D01*
X0063870Y0077322D01*
X0063805Y0077341D01*
X0063742Y0077363D01*
X0063680Y0077389D01*
X0063619Y0077419D01*
X0063561Y0077452D01*
X0063504Y0077488D01*
X0063450Y0077528D01*
X0063397Y0077570D01*
X0063348Y0077616D01*
X0063301Y0077664D01*
X0063257Y0077715D01*
X0063215Y0077768D01*
X0063177Y0077823D01*
X0063143Y0077881D01*
X0063111Y0077940D01*
X0063083Y0078002D01*
X0063058Y0078064D01*
X0063037Y0078128D01*
X0063020Y0078193D01*
X0063007Y0078259D01*
X0062997Y0078326D01*
X0062991Y0078393D01*
X0062989Y0078460D01*
X0062991Y0078527D01*
X0062990Y0078527D02*
X0062993Y0078600D01*
X0063000Y0078672D01*
X0063011Y0078743D01*
X0063025Y0078814D01*
X0063043Y0078884D01*
X0063066Y0078953D01*
X0063091Y0079021D01*
X0063121Y0079087D01*
X0063154Y0079151D01*
X0063190Y0079214D01*
X0063230Y0079274D01*
X0063273Y0079333D01*
X0063319Y0079388D01*
X0063368Y0079442D01*
X0063419Y0079492D01*
X0063474Y0079540D01*
X0063531Y0079585D01*
X0063590Y0079626D01*
X0063651Y0079664D01*
X0063715Y0079699D01*
X0063780Y0079731D01*
X0063847Y0079758D01*
X0063915Y0079783D01*
X0063984Y0079803D01*
X0064055Y0079820D01*
X0064126Y0079833D01*
X0064198Y0079842D01*
X0064270Y0079847D01*
X0064270Y0060713D02*
X0065844Y0060713D01*
X0065914Y0060712D01*
X0065983Y0060707D01*
X0066052Y0060699D01*
X0066121Y0060687D01*
X0066188Y0060671D01*
X0066255Y0060651D01*
X0066321Y0060627D01*
X0066385Y0060600D01*
X0066447Y0060570D01*
X0066508Y0060536D01*
X0066567Y0060499D01*
X0066624Y0060458D01*
X0066678Y0060415D01*
X0066730Y0060368D01*
X0066779Y0060319D01*
X0066826Y0060267D01*
X0066869Y0060213D01*
X0066910Y0060156D01*
X0066947Y0060097D01*
X0066981Y0060036D01*
X0067011Y0059974D01*
X0067038Y0059910D01*
X0067062Y0059844D01*
X0067082Y0059777D01*
X0067098Y0059710D01*
X0067110Y0059641D01*
X0067118Y0059572D01*
X0067123Y0059503D01*
X0067124Y0059433D01*
X0067122Y0059364D01*
X0067116Y0059295D01*
X0067107Y0059226D01*
X0067094Y0059158D01*
X0067077Y0059091D01*
X0067057Y0059024D01*
X0067033Y0058959D01*
X0067006Y0058896D01*
X0066975Y0058833D01*
X0066941Y0058773D01*
X0066903Y0058715D01*
X0066863Y0058658D01*
X0066820Y0058604D01*
X0066773Y0058553D01*
X0066724Y0058504D01*
X0066673Y0058457D01*
X0066619Y0058414D01*
X0066562Y0058374D01*
X0066504Y0058336D01*
X0066444Y0058302D01*
X0066381Y0058271D01*
X0066318Y0058244D01*
X0066253Y0058220D01*
X0066186Y0058200D01*
X0066119Y0058183D01*
X0066051Y0058170D01*
X0065982Y0058161D01*
X0065913Y0058155D01*
X0065844Y0058153D01*
X0065844Y0058154D02*
X0064270Y0058154D01*
X0064270Y0058153D02*
X0064203Y0058149D01*
X0064136Y0058149D01*
X0064068Y0058153D01*
X0064002Y0058161D01*
X0063935Y0058172D01*
X0063870Y0058188D01*
X0063805Y0058207D01*
X0063742Y0058229D01*
X0063680Y0058255D01*
X0063619Y0058285D01*
X0063561Y0058318D01*
X0063504Y0058354D01*
X0063450Y0058394D01*
X0063397Y0058436D01*
X0063348Y0058482D01*
X0063301Y0058530D01*
X0063257Y0058581D01*
X0063215Y0058634D01*
X0063177Y0058689D01*
X0063143Y0058747D01*
X0063111Y0058806D01*
X0063083Y0058868D01*
X0063058Y0058930D01*
X0063037Y0058994D01*
X0063020Y0059059D01*
X0063007Y0059125D01*
X0062997Y0059192D01*
X0062991Y0059259D01*
X0062989Y0059326D01*
X0062991Y0059393D01*
X0062990Y0059393D02*
X0062993Y0059466D01*
X0063000Y0059538D01*
X0063011Y0059609D01*
X0063025Y0059680D01*
X0063043Y0059750D01*
X0063066Y0059819D01*
X0063091Y0059887D01*
X0063121Y0059953D01*
X0063154Y0060017D01*
X0063190Y0060080D01*
X0063230Y0060140D01*
X0063273Y0060199D01*
X0063319Y0060254D01*
X0063368Y0060308D01*
X0063419Y0060358D01*
X0063474Y0060406D01*
X0063531Y0060451D01*
X0063590Y0060492D01*
X0063651Y0060530D01*
X0063715Y0060565D01*
X0063780Y0060597D01*
X0063847Y0060624D01*
X0063915Y0060649D01*
X0063984Y0060669D01*
X0064055Y0060686D01*
X0064126Y0060699D01*
X0064198Y0060708D01*
X0064270Y0060713D01*
X0054309Y0059630D02*
X0051947Y0059630D01*
X0051947Y0059629D02*
X0051876Y0059619D01*
X0051807Y0059605D01*
X0051738Y0059587D01*
X0051670Y0059566D01*
X0051603Y0059541D01*
X0051538Y0059512D01*
X0051474Y0059480D01*
X0051413Y0059445D01*
X0051353Y0059407D01*
X0051295Y0059365D01*
X0051240Y0059320D01*
X0051186Y0059273D01*
X0051136Y0059223D01*
X0051088Y0059170D01*
X0051043Y0059115D01*
X0051002Y0059057D01*
X0050963Y0058998D01*
X0050927Y0058936D01*
X0050895Y0058873D01*
X0050866Y0058807D01*
X0050841Y0058741D01*
X0050819Y0058673D01*
X0050801Y0058604D01*
X0050786Y0058535D01*
X0050776Y0058465D01*
X0050769Y0058394D01*
X0050765Y0058323D01*
X0050766Y0058252D01*
X0050766Y0058251D02*
X0050765Y0058180D01*
X0050769Y0058109D01*
X0050776Y0058038D01*
X0050786Y0057968D01*
X0050801Y0057899D01*
X0050819Y0057830D01*
X0050841Y0057762D01*
X0050866Y0057696D01*
X0050895Y0057630D01*
X0050927Y0057567D01*
X0050963Y0057505D01*
X0051002Y0057446D01*
X0051043Y0057388D01*
X0051088Y0057333D01*
X0051136Y0057280D01*
X0051186Y0057230D01*
X0051240Y0057183D01*
X0051295Y0057138D01*
X0051353Y0057096D01*
X0051413Y0057058D01*
X0051474Y0057023D01*
X0051538Y0056991D01*
X0051603Y0056962D01*
X0051670Y0056937D01*
X0051738Y0056916D01*
X0051807Y0056898D01*
X0051876Y0056884D01*
X0051947Y0056874D01*
X0054309Y0056874D01*
X0054380Y0056884D01*
X0054449Y0056898D01*
X0054518Y0056916D01*
X0054586Y0056937D01*
X0054653Y0056962D01*
X0054718Y0056991D01*
X0054782Y0057023D01*
X0054843Y0057058D01*
X0054903Y0057096D01*
X0054961Y0057138D01*
X0055016Y0057183D01*
X0055070Y0057230D01*
X0055120Y0057280D01*
X0055168Y0057333D01*
X0055213Y0057388D01*
X0055254Y0057446D01*
X0055293Y0057505D01*
X0055329Y0057567D01*
X0055361Y0057630D01*
X0055390Y0057696D01*
X0055415Y0057762D01*
X0055437Y0057830D01*
X0055455Y0057899D01*
X0055470Y0057968D01*
X0055480Y0058038D01*
X0055487Y0058109D01*
X0055491Y0058180D01*
X0055490Y0058251D01*
X0055490Y0058252D02*
X0055491Y0058323D01*
X0055487Y0058394D01*
X0055480Y0058465D01*
X0055470Y0058535D01*
X0055455Y0058604D01*
X0055437Y0058673D01*
X0055415Y0058741D01*
X0055390Y0058807D01*
X0055361Y0058873D01*
X0055329Y0058936D01*
X0055293Y0058998D01*
X0055254Y0059057D01*
X0055213Y0059115D01*
X0055168Y0059170D01*
X0055120Y0059223D01*
X0055070Y0059273D01*
X0055016Y0059320D01*
X0054961Y0059365D01*
X0054903Y0059407D01*
X0054843Y0059445D01*
X0054782Y0059480D01*
X0054718Y0059512D01*
X0054653Y0059541D01*
X0054586Y0059566D01*
X0054518Y0059587D01*
X0054449Y0059605D01*
X0054380Y0059619D01*
X0054309Y0059629D01*
M02*
