%
M48
M72
T01C0.0150
T02C0.0200
T03C0.1300
%
T01
X7175Y3500
X7175Y4150
X7625Y5250
X7575Y6100
X7175Y6200
X6975Y7150
X7025Y7550
X7575Y7500
X7273Y8135
X7525Y8450
X7175Y9100
X7175Y9450
X7125Y9850
X7075Y10508
X7175Y11000
X6975Y11400
X7275Y11600
X7283Y11942
X7125Y12300
X8025Y12450
X8875Y11150
X8575Y10650
X9175Y10650
X9775Y10650
X11075Y10600
X11075Y11300
X12125Y11300
X12125Y10600
X12125Y9750
X11555Y9100
X12125Y8950
X11775Y8400
X11525Y6950
X11575Y5800
X12025Y5600
X12275Y5915
X12775Y5600
X12825Y4550
X13175Y4300
X12825Y4050
X13125Y3400
X13925Y4050
X14275Y4300
X13675Y4550
X15775Y3950
X16125Y5100
X16175Y5700
X15825Y6500
X17195Y6870
X17185Y7320
X18455Y7310
X18455Y6870
X18375Y5900
X17988Y5913
X18725Y5350
X19075Y5900
X20375Y5900
X21175Y5350
X21175Y6740
X22115Y6740
X23175Y6750
X23625Y6150
X23175Y5900
X23925Y6750
X25325Y7350
X25675Y6750
X25675Y5100
X24725Y4100
X24225Y3850
X24175Y3300
X23025Y3950
X21325Y3225
X20725Y3950
X18125Y3950
X20275Y7355
X18925Y8500
X18625Y8750
X18825Y9250
X19090Y9500
X19425Y9600
X19660Y9350
X19607Y9900
X19099Y10745
X19975Y11367
X20305Y11350
X20658Y11347
X20425Y10750
X20625Y10470
X21225Y10235
X21505Y10000
X21225Y9750
X20925Y9450
X22275Y9470
X22625Y9200
X23035Y8950
X23875Y9100
X24975Y9100
X25775Y9100
X25970Y9465
X26225Y9750
X27175Y9100
X28575Y9100
X28575Y9700
X28625Y10775
X28475Y11100
X29575Y11550
X30775Y11550
X30825Y12200
X30825Y10885
X30725Y9950
X30775Y9350
X30825Y8685
X31975Y7550
X32625Y7550
X33225Y8400
X32975Y8650
X33475Y8700
X33674Y9050
X33625Y9550
X33525Y10700
X33975Y10650
X32975Y11600
X32175Y13500
X32725Y14400
X32725Y15100
X32794Y15600
X33029Y16241
X33125Y16890
X33175Y17400
X32540Y17340
X31945Y17300
X32225Y16590
X31792Y16373
X31975Y16090
X31225Y15690
X31225Y15310
X31625Y15290
X32075Y15250
X31115Y16200
X30796Y16318
X30901Y16640
X31125Y16890
X30775Y17400
X30025Y17250
X29625Y17500
X29175Y17350
X29173Y17020
X29175Y16690
X29175Y16150
X29175Y15750
X29175Y15350
X29325Y14740
X29325Y13940
X29275Y13200
X28425Y13000
X28425Y13450
X27725Y13750
X27425Y13200
X26525Y12900
X26375Y12600
X25725Y12350
X25078Y13550
X24225Y14400
X24475Y15050
X24075Y15200
X24325Y15900
X23175Y16600
X23125Y17500
X22975Y17850
X22825Y18200
X22325Y18200
X22325Y17850
X22325Y17500
X20775Y17200
X20575Y16000
X21825Y16000
X21905Y14950
X20475Y14050
X20225Y14300
X19475Y14750
X18325Y15450
X17975Y15200
X17575Y14850
X16725Y13800
X16325Y13565
X15925Y13500
X14775Y13500
X14225Y13150
X13425Y13150
X12575Y13900
X13175Y14300
X13425Y14050
X12125Y13150
X11505Y13530
X11375Y12950
X12125Y12250
X13425Y12250
X14225Y12250
X14225Y11250
X13825Y10600
X13375Y10600
X13375Y11300
X13425Y9365
X12975Y9300
X13425Y8800
X13475Y7445
X13075Y6950
X11575Y5300
X11475Y4150
X11475Y3450
X10375Y4600
X9775Y4600
X9175Y5450
X8675Y5750
X8675Y6600
X9575Y7936
X8675Y8000
X8675Y8400
X8575Y9050
X8075Y9050
X9175Y9050
X9725Y8700
X6375Y9250
X5325Y8800
X5325Y9700
X7325Y13700
X8325Y14200
X9625Y14300
X10375Y14100
X10475Y12450
X9225Y12450
X8325Y15600
X7125Y16300
X6025Y16100
X5525Y15400
X5525Y14400
X8075Y17000
X7125Y18300
X6725Y18300
X6325Y18300
X5225Y18300
X5225Y17800
X5225Y19650
X6325Y19650
X6375Y21050
X7225Y21550
X7375Y21950
X6375Y22350
X5225Y22350
X5225Y21050
X7875Y19450
X8025Y18850
X8875Y19050
X9175Y19750
X9975Y19750
X9975Y18950
X10675Y18255
X10375Y17950
X10375Y16100
X12525Y18150
X13375Y18845
X13125Y19150
X13725Y19750
X14525Y19750
X15125Y19155
X15625Y19250
X15625Y17650
X17075Y17000
X17525Y16550
X18625Y16800
X18625Y16200
X18625Y18050
X19265Y18005
X19775Y18150
X18925Y19350
X18425Y18845
X18025Y19250
X18025Y20500
X17925Y21600
X17175Y21250
X16025Y21250
X15575Y21250
X14125Y20750
X13725Y20750
X12675Y20850
X11825Y21250
X11790Y19915
X12075Y19150
X14025Y18845
X13925Y16050
X13725Y15700
X18075Y12350
X16805Y11059
X16525Y11300
X16925Y10600
X17275Y10150
X15925Y9350
X15375Y8800
X14725Y9350
X19625Y13050
X20585Y12940
X20725Y12600
X21225Y12350
X21253Y12018
X20895Y12030
X21425Y13100
X21775Y12900
X22479Y11656
X22840Y11735
X22475Y11100
X21825Y10750
X21505Y10840
X23675Y10800
X23925Y12771
X23475Y13050
X23810Y13300
X26775Y10775
X28834Y7609
X29125Y6950
X28875Y5850
X28875Y5100
X27775Y4050
X27375Y4900
X27425Y5690
X27975Y6750
X30675Y6650
X31175Y5850
X32425Y6100
X32575Y6700
X33925Y5950
X34425Y5950
X34925Y5950
X35275Y6800
X34375Y7500
X36425Y7250
X36956Y7250
X37425Y6400
X36125Y6000
X36825Y4966
X37375Y3900
X35025Y3900
X35025Y3150
X34325Y4700
X32675Y3900
X31575Y4200
X31225Y4100
X30425Y3150
X26125Y3300
X35575Y10600
X36475Y11600
X36025Y13100
X36425Y14350
X37425Y13350
X37975Y13750
X38675Y13632
X38925Y13300
X39175Y12900
X38475Y11800
X38525Y11150
X38875Y11150
X38875Y9850
X38875Y8500
X38875Y7200
X38875Y6100
X37075Y9000
X34525Y13500
X30725Y13540
X30675Y15340
X27475Y15800
X26675Y16050
X26375Y16250
X26110Y16750
X25825Y16940
X25575Y16600
X26625Y17300
X27675Y17300
X26975Y18850
X26325Y18850
X26025Y19150
X25375Y19250
X24875Y19700
X24925Y20350
X25575Y20500
X24825Y21000
X24023Y21000
X24025Y21450
X23065Y21100
X22725Y21050
X22385Y21100
X20675Y21450
X20625Y19750
X21675Y19200
X22325Y19200
X23725Y19200
X26625Y19750
X27425Y19750
X28025Y19150
X28675Y19300
X29325Y19150
X29625Y18850
X30225Y18850
X29925Y19750
X30725Y19750
X31325Y19150
X31975Y19300
X32625Y19150
X32925Y18850
X33525Y18850
X33225Y19750
X34025Y19750
X34625Y19155
X35225Y19350
X35925Y19155
X36175Y18845
X36825Y18850
X36525Y19750
X37325Y19750
X37925Y19150
X37925Y18600
X36925Y20750
X36595Y20750
X35533Y20600
X35125Y21250
X35275Y21700
X34625Y23250
X33625Y23850
X32625Y23250
X31325Y23250
X30325Y23850
X29325Y23250
X28025Y23250
X27025Y23850
X26025Y23250
X25025Y24550
X24175Y25500
X24225Y26050
X24725Y26300
X25675Y27300
X27375Y27100
X27425Y27890
X27975Y28950
X28834Y29809
X29125Y29150
X28875Y28050
X28875Y27300
X27775Y26250
X26125Y25500
X24225Y23250
X23225Y24050
X22225Y24050
X21225Y23250
X20425Y24550
X21325Y25425
X20725Y26150
X21175Y27550
X20375Y28100
X21175Y28940
X22115Y28940
X23175Y28950
X23925Y28950
X23625Y28350
X23175Y28100
X23025Y26150
X25675Y28950
X25325Y29550
X24975Y31300
X25775Y31300
X25970Y31665
X26225Y31950
X27175Y31300
X28575Y31300
X28575Y31900
X28625Y32975
X28475Y33300
X29575Y33750
X30775Y33750
X30825Y34400
X30825Y33085
X30725Y32150
X30775Y31550
X30825Y30885
X31975Y29750
X32625Y29750
X32575Y28900
X32425Y28300
X31175Y28050
X30675Y28850
X32975Y30850
X33225Y30600
X33475Y30900
X33674Y31250
X33625Y31750
X33525Y32900
X33975Y32850
X32975Y33800
X32175Y35700
X32725Y36600
X32725Y37300
X32794Y37800
X32075Y37450
X31625Y37490
X31225Y37510
X31225Y37890
X31115Y38400
X30796Y38518
X30901Y38840
X31125Y39090
X30775Y39600
X30025Y39450
X29625Y39700
X29175Y39550
X29173Y39220
X29175Y38890
X29175Y38350
X29175Y37950
X29175Y37550
X29325Y36940
X29325Y36140
X29275Y35400
X28425Y35200
X28425Y35650
X27725Y35950
X27475Y36850
X27475Y38000
X26675Y38250
X26375Y38450
X26110Y38950
X25825Y39140
X25575Y38800
X26625Y39500
X27675Y39500
X26975Y41050
X26325Y41050
X26025Y41350
X25375Y41450
X24875Y41900
X24925Y42550
X24825Y43200
X25575Y42700
X26625Y42995
X27025Y42950
X26625Y41950
X27425Y41950
X28025Y41350
X28675Y41500
X29325Y41350
X29625Y41050
X30225Y41050
X29925Y41950
X30725Y41950
X31325Y41350
X31975Y41500
X32625Y41350
X32925Y41050
X33525Y41050
X33225Y41950
X34025Y41950
X34625Y41355
X35225Y41550
X35925Y41355
X36175Y41045
X36825Y41050
X36525Y41950
X35533Y42800
X35125Y43450
X35275Y43900
X36595Y42950
X36925Y42950
X37325Y41950
X37925Y41350
X37925Y40800
X38625Y38050
X38825Y37200
X37975Y35950
X37425Y35550
X38675Y35832
X38925Y35500
X39175Y35100
X38475Y34000
X38525Y33350
X38875Y33350
X38875Y32050
X38875Y30700
X38875Y29400
X38875Y28300
X37425Y28600
X36956Y29450
X36425Y29450
X35275Y29000
X34925Y28150
X34425Y28150
X33925Y28150
X34325Y26900
X35025Y26100
X35025Y25350
X36925Y23850
X35925Y23250
X37925Y23250
X38675Y22350
X38525Y21250
X38825Y24600
X37375Y26100
X36825Y27166
X36125Y28200
X34375Y29700
X37075Y31200
X35575Y32800
X36475Y33800
X36025Y35300
X34525Y35700
X36425Y36550
X34525Y39650
X33175Y39600
X33125Y39090
X33029Y38441
X32225Y38790
X31792Y38573
X31975Y38290
X30675Y37540
X30725Y35740
X27425Y35400
X26525Y35100
X26375Y34800
X25725Y34550
X25078Y35750
X24225Y36600
X24475Y37250
X24075Y37400
X24325Y38100
X23175Y38800
X23125Y39700
X22975Y40050
X22825Y40400
X22325Y40400
X22325Y40050
X22325Y39700
X20775Y39400
X20575Y38200
X21825Y38200
X21905Y37150
X20475Y36250
X20225Y36500
X19475Y36950
X18325Y37650
X17975Y37400
X17575Y37050
X16725Y36000
X16325Y35765
X15925Y35700
X14775Y35700
X14225Y35350
X14225Y34450
X13425Y34450
X13425Y35350
X13425Y36250
X13175Y36500
X12575Y36100
X12125Y35350
X11505Y35730
X11375Y35150
X12125Y34450
X12125Y33500
X12125Y32800
X12125Y31950
X12125Y31150
X11555Y31300
X11775Y30600
X11525Y29150
X11575Y28000
X12025Y27800
X12275Y28115
X12775Y27800
X12825Y26750
X13175Y26500
X12825Y26250
X13125Y25600
X13925Y26250
X14275Y26500
X13675Y26750
X15775Y26150
X16125Y27300
X16175Y27900
X15825Y28700
X17195Y29070
X17185Y29520
X18455Y29510
X18455Y29070
X18375Y28100
X17988Y28113
X18725Y27550
X19075Y28100
X20275Y29555
X18925Y30700
X18625Y30950
X18825Y31450
X19090Y31700
X19425Y31800
X19660Y31550
X19607Y32100
X19099Y32945
X19975Y33567
X20305Y33550
X20658Y33547
X20425Y32950
X20625Y32670
X21225Y32435
X21505Y32200
X21225Y31950
X20925Y31650
X22275Y31670
X22625Y31400
X23035Y31150
X23875Y31300
X23675Y33000
X22840Y33935
X22479Y33856
X22475Y33300
X21825Y32950
X21505Y33040
X21253Y34218
X21225Y34550
X20895Y34230
X20725Y34800
X20585Y35140
X21425Y35300
X21775Y35100
X23475Y35250
X23810Y35500
X23925Y34971
X26775Y32975
X19625Y35250
X18075Y34550
X16805Y33259
X16525Y33500
X16925Y32800
X17275Y32350
X15925Y31550
X15375Y31000
X14725Y31550
X13825Y32800
X13375Y32800
X13375Y33500
X14225Y33450
X13425Y31565
X12975Y31500
X13425Y31000
X13475Y29645
X13075Y29150
X11575Y27500
X10375Y26800
X9775Y26800
X9175Y27650
X8675Y27950
X8675Y28800
X7575Y28300
X7175Y28400
X7625Y27450
X8675Y27000
X7175Y26350
X7175Y25700
X7175Y23700
X8075Y23250
X9075Y23850
X10075Y23850
X11075Y23250
X11875Y24500
X11475Y25650
X11475Y26350
X13625Y23950
X14625Y23950
X15625Y23250
X16475Y24550
X17425Y23250
X18425Y23850
X19425Y23250
X18925Y21550
X18125Y26150
X12625Y23250
X9575Y21650
X9575Y20750
X9175Y20750
X6975Y29350
X7025Y29750
X7575Y29700
X7273Y30335
X7525Y30650
X7175Y31300
X7175Y31650
X7125Y32050
X7075Y32708
X7175Y33200
X6975Y33600
X7275Y33800
X7283Y34142
X7125Y34500
X8025Y34650
X7325Y35900
X8325Y36400
X9625Y36500
X10375Y36300
X10475Y34650
X9225Y34650
X8875Y33350
X8575Y32850
X9175Y32850
X9775Y32850
X11075Y32800
X11075Y33500
X9175Y31250
X9725Y30900
X9575Y30136
X8675Y30200
X8675Y30600
X8575Y31250
X8075Y31250
X6375Y31450
X5325Y31000
X5325Y31900
X5525Y36600
X5525Y37600
X6025Y38300
X7125Y38500
X8075Y39200
X8325Y37800
X10375Y38300
X10375Y40150
X10675Y40455
X9975Y41150
X9975Y41950
X9175Y41950
X8875Y41250
X8025Y41050
X7875Y41650
X7125Y40500
X6725Y40500
X6325Y40500
X5225Y40500
X5225Y40000
X5225Y41850
X6325Y41850
X6375Y43250
X7225Y43750
X7375Y44150
X6375Y44550
X5225Y44550
X5225Y43250
X7175Y45900
X8075Y45450
X9075Y46050
X10075Y46050
X11075Y45450
X11875Y46700
X12625Y45450
X13625Y46150
X14625Y46150
X15625Y45450
X16475Y46750
X17425Y45450
X18425Y46050
X19425Y45450
X20425Y46750
X21225Y45450
X22225Y46250
X23225Y46250
X24225Y45450
X25025Y46750
X26025Y45450
X27025Y46050
X28025Y45450
X29325Y45450
X30325Y46050
X31325Y45450
X32625Y45450
X33625Y46050
X34625Y45450
X35925Y45450
X36925Y46050
X37925Y45450
X38675Y44550
X38525Y43450
X38825Y46800
X33625Y42950
X33225Y42950
X32225Y42800
X31825Y43450
X31975Y43950
X30325Y42950
X29925Y42950
X28925Y42750
X28525Y43450
X28675Y43950
X24025Y43650
X24023Y43200
X23065Y43300
X22725Y43250
X22385Y43300
X20675Y43650
X20625Y41950
X21675Y41400
X22325Y41400
X23725Y41400
X19775Y40350
X19265Y40205
X18625Y40250
X18425Y41045
X18025Y41450
X18925Y41550
X18025Y42700
X17925Y43800
X17175Y43450
X16025Y43450
X15575Y43450
X14125Y42950
X13725Y42950
X13725Y41950
X14525Y41950
X15125Y41355
X15625Y41450
X14025Y41045
X13375Y41045
X13125Y41350
X12075Y41350
X11790Y42115
X12675Y43050
X11825Y43450
X9575Y43850
X9575Y42950
X9175Y42950
X12525Y40350
X13925Y38250
X13725Y37900
X15625Y39850
X17075Y39200
X17525Y38750
X18625Y39000
X18625Y38400
X18925Y43750
X31945Y39500
X32540Y39540
X31575Y26400
X31225Y26300
X30425Y25350
X32675Y26100
X31975Y21750
X31825Y21250
X32225Y20600
X33225Y20750
X33625Y20750
X30325Y20750
X29925Y20750
X28925Y20550
X28525Y21250
X28675Y21750
X27025Y20750
X26625Y20795
X27475Y14650
X34525Y17450
X38625Y15850
X38825Y15000
X8675Y4800
T02
X29700Y4725
X29700Y4225
X29700Y3725
X30200Y3725
X30200Y4225
X30200Y4725
X30200Y5225
X30200Y5725
X29700Y5725
X29700Y5225
X29700Y25925
X29700Y26425
X29700Y26925
X29700Y27425
X29700Y27925
X30200Y27925
X30200Y27425
X30200Y26925
X30200Y26425
X30200Y25925
T03
X5825Y4000
X5825Y23700
X5825Y26200
X5825Y45900
X40525Y45900
X40525Y26200
X40525Y23700
X40525Y4000
M30
